<svg width="249" height="350" viewBox="0 0 249 350" fill="none" xmlns="http://www.w3.org/2000/svg">
<path d="M191.565 349.342C184.997 349.342 177.608 348.517 169.398 346.867C144.22 340.265 125.063 325.137 111.927 301.483C96.602 307.534 80.7293 308.909 64.3092 305.608C47.3418 301.758 32.8374 292.956 20.7961 279.203C6.018 262.15 -0.550001 242.346 1.092 219.792C2.18668 196.687 11.2177 177.708 28.1851 162.855C34.2058 157.904 40.7738 152.128 47.8892 145.527C54.4572 138.375 61.5726 131.224 69.2353 124.073C82.3713 110.87 96.0547 97.3922 110.285 83.6395C125.063 69.8868 139.294 57.7844 152.978 47.3323C162.282 40.1809 171.04 33.8547 179.25 28.3536C188.007 22.8525 196.217 18.1765 203.88 14.3258C232.341 0.573031 260.255 -3.27774 287.622 2.77347C318.82 11.5752 340.44 31.6542 352.481 63.0104C360.144 85.0148 359.87 108.119 351.66 132.324C350.566 135.075 349.471 137.825 348.376 140.576C347.282 143.326 345.913 146.352 344.271 149.653C363.975 159.004 378.206 174.408 386.964 195.862C394.626 217.866 393.805 239.32 384.501 260.225C375.196 280.579 359.597 294.606 337.703 302.308C320.736 308.909 305.137 314.96 290.906 320.461C276.675 325.412 264.634 329.538 254.782 332.839C249.309 335.039 244.109 336.965 239.183 338.615C234.804 340.265 231.247 341.641 228.51 342.741C223.037 343.841 217.29 345.216 211.269 346.867C205.248 348.517 198.68 349.342 191.565 349.342Z" fill="#CEFDE3"/>
</svg>
