<svg width="392" height="350" viewBox="0 0 392 350" fill="none" xmlns="http://www.w3.org/2000/svg">
<path d="M190.719 349.342C184.151 349.342 176.762 348.517 168.552 346.867C143.375 340.265 124.218 325.137 111.082 301.483C95.7563 307.534 79.8836 308.909 63.4635 305.608C46.4961 301.758 31.9917 292.956 19.9504 279.203C5.1723 262.15 -1.3957 242.346 0.246301 219.792C1.34097 196.687 10.372 177.708 27.3394 162.855C33.3601 157.904 39.9281 152.128 47.0435 145.527C53.6115 138.375 60.7269 131.224 68.3896 124.073C81.5256 110.87 95.209 97.3922 109.44 83.6395C124.218 69.8868 138.449 57.7844 152.132 47.3323C161.437 40.1809 170.194 33.8547 178.404 28.3536C187.161 22.8525 195.371 18.1765 203.034 14.3258C231.496 0.573031 259.41 -3.27774 286.776 2.77347C317.975 11.5752 339.594 31.6542 351.636 63.0104C359.298 85.0148 359.025 108.119 350.815 132.324C349.72 135.075 348.625 137.825 347.531 140.576C346.436 143.326 345.068 146.352 343.426 149.653C363.13 159.004 377.361 174.408 386.118 195.862C393.781 217.866 392.96 239.32 383.655 260.225C374.35 280.579 358.751 294.606 336.858 302.308C319.89 308.909 304.291 314.96 290.06 320.461C275.83 325.412 263.788 329.538 253.936 332.839C248.463 335.039 243.263 336.965 238.337 338.615C233.959 340.265 230.401 341.641 227.664 342.741C222.191 343.841 216.444 345.216 210.423 346.867C204.402 348.517 197.834 349.342 190.719 349.342Z" fill="#CEFDE3"/>
</svg>
