<svg width="200" height="200" viewBox="0 0 200 200" fill="none" xmlns="http://www.w3.org/2000/svg">
<g clip-path="url(#clip0_1065_49910)">
<rect width="200" height="200" fill="#EBFEF4"/>
<path d="M134.239 45.1574C136.256 58.1019 129.629 69.8833 119.437 71.4723C109.245 73.0613 99.3476 63.8522 97.3302 50.9076C95.3133 37.9586 101.94 26.1773 112.132 24.5883C122.324 22.9993 132.222 32.2084 134.239 45.1574Z" fill="#603813"/>
<path d="M83.5371 104.195L120.891 105.71L110.216 127.82L87.0706 126.898L83.5371 104.195Z" fill="black"/>
<path d="M31.2536 329.802C43.0336 338.69 171.88 337.549 171.793 331.228C171.579 315.817 169.202 299.167 166.992 282.874C165.741 273.66 164.544 264.565 163.824 255.87C162.123 235.388 156.373 170.854 155.563 159.442C155.041 151.997 153.736 135.115 153.582 133.105C152.636 132.438 151.67 131.801 150.688 131.191L150.597 131.138C149.875 130.713 149.045 130.225 148.15 129.712L148.129 129.699C144.29 127.46 139.249 124.616 135.916 123.035C127.581 119.076 119.014 116.657 110.003 115.358C95.0046 113.199 80.1374 115.806 69.219 118.852C59.4204 121.587 52.7958 124.677 52.1001 125.011C52.0592 125.028 52.0391 125.037 52.0391 125.037C52.0391 125.037 58.2835 127.715 59.9577 137.999C67.0805 181.745 45.5852 216.566 45.5852 216.566C45.5852 216.566 40.1462 254.649 36.9981 274.073C34.9978 286.403 29.6071 328.559 31.2536 329.802Z" fill="#CEFDE3"/>
<path d="M82.9121 83.5473C83.3212 85.8123 83.7215 88.0816 84.1262 90.3422C84.153 90.4783 84.175 90.6187 84.1973 90.7504C84.2088 90.8163 84.2211 90.8733 84.2325 90.9348C84.7697 93.9372 85.3026 96.9352 85.67 99.9508C85.8232 101.158 85.9444 102.378 86.03 103.598C86.1283 104.959 86.1818 106.333 86.1954 107.698C86.2345 110.319 86.163 112.939 86.0826 115.551C86.0374 117.03 86.0159 118.505 86.0054 119.984C85.9931 121.692 85.2666 123.54 85.9628 125.199C86.8438 127.297 88.8581 128.386 90.6328 129.619C92.5654 130.962 94.6698 132.06 96.8737 132.885C101.197 134.505 106.075 135.106 110.548 133.732C119.1 131.107 116.833 121.705 116.804 114.897L116.795 113.014L116.782 108.027L116.755 100.934C114.31 100.333 112.02 99.2221 109.752 98.1204C102.228 94.4376 94.7518 90.667 87.4232 86.6068C87.2256 86.4971 87.0373 86.3917 86.8525 86.2907C85.3794 85.4699 84.1736 84.772 82.9121 83.5473Z" fill="#FFCFCA"/>
<path d="M116.805 114.897C108.337 112.711 100.189 109.322 92.7893 104.691C90.4356 103.221 87.9946 101.645 85.6717 99.9505C85.3065 96.9349 84.7701 93.9413 84.2355 90.9389C83.7952 88.4764 83.3563 86.0095 82.916 83.547C84.3334 84.9253 85.6867 85.6452 87.4258 86.6065C94.7522 90.6624 102.229 94.4417 109.755 98.1201C112.023 99.2262 114.311 100.332 116.759 100.934L116.805 114.897Z" fill="#F9BFBB"/>
<path d="M87.4101 85.3994C83.5478 88.0945 78.2255 88.5642 73.9721 86.5275C70.3785 84.8112 67.6868 81.3567 66.8142 77.4764C66.6575 76.774 66.5601 76.0585 66.5245 75.3299C66.4657 74.0613 66.6053 72.7708 67.0376 71.5769C68.1214 68.6315 71.1163 66.5509 74.2451 66.3446C77.3805 66.1427 80.523 67.7317 82.4039 70.2425L84.3282 76.0717L87.4101 85.3994Z" fill="#FFCFCA"/>
<path d="M88.5845 352.047C84.5462 358.105 42.8615 340.104 29.0202 334.38C18.536 330.043 22.3421 323.814 23.4675 315.703C26.7789 291.802 30.7923 271.22 34.7397 249.215C36.2435 240.822 37.743 232.219 39.1915 223.155C39.2521 222.782 39.3078 222.413 39.3684 222.04C37.6016 227.869 34.3912 239.852 33.0585 244.022C25.4871 267.748 13.3722 323.779 0.752438 325.798C-1.42299 326.145 -25.4303 317.7 -26.5056 314.693C-34.0773 293.492 -10.6049 215.776 -6.8191 206.163C-0.256832 189.505 20.4743 146.624 25.9915 139.531C36.5921 125.902 70.9827 117.9 72.6841 117.421C77.6411 116.017 82.6429 114.748 87.6759 113.629C92.658 125.449 93.8848 137.082 95.1569 149.842C101.936 217.94 91.7599 347.28 88.5845 352.047Z" fill="#20CE86"/>
<path d="M99.6902 128.426L99.3219 130.353L98.9537 132.31L98.3374 135.537L97.9744 137.464L96.9595 142.784L96.6062 144.645L95.3139 151.44L74.4512 116.815L75.9001 114.805L76.8944 113.422L78.6409 110.995L79.6303 109.625L81.1197 107.558L82.0937 106.202L83.5374 104.196L99.6902 128.426Z" fill="#363740"/>
<path d="M99.3214 130.352L98.9531 132.31C95.6768 128.153 92.4765 123.943 89.3468 119.686C86.4646 115.761 83.4109 111.868 81.1191 107.557L82.0932 106.201C83.2441 108.453 84.6373 110.564 86.1065 112.632C90.377 118.641 94.7836 124.545 99.3214 130.352Z" fill="white"/>
<path d="M98.3371 135.536L97.9741 137.463C94.2536 133.069 90.5993 128.618 87.1259 124.036C83.9914 119.901 81.0487 115.595 78.6406 110.995L79.63 109.625C80.7506 111.824 81.9977 113.962 83.3352 116.038C86.9899 121.722 91.2705 126.977 95.5559 132.187C96.4746 133.306 97.4034 134.426 98.3371 135.536Z" fill="white"/>
<path d="M96.9598 142.784L96.6064 144.645C92.2806 139.935 88.2928 134.913 84.6833 129.633C82.5583 126.525 80.5646 123.325 78.7119 120.042C77.7729 118.387 76.8744 116.71 76.0114 115.02C75.9763 114.95 75.9355 114.875 75.9004 114.805L76.8946 113.422C77.1523 113.918 77.4047 114.423 77.6619 114.924C78.6364 116.807 79.6508 118.659 80.7108 120.494C84.4564 126.96 88.7471 133.109 93.5325 138.842C94.6478 140.181 95.7939 141.497 96.9598 142.784Z" fill="white"/>
<path d="M42.652 233.422C40.456 238.794 37.8565 244.215 34.7422 249.215C36.246 240.822 37.7455 232.219 39.194 223.155C40.118 221.07 49.098 200.365 51.7378 178.904C52.7474 205.153 47.1951 222.316 42.652 233.422Z" fill="#149C64"/>
<path d="M270.812 205.154C261.6 218.05 193.687 291.473 172.884 248.566C172.582 247.938 172.208 246.99 171.784 245.809C169.538 239.576 165.934 226.939 164.45 222.04C164.51 222.413 164.565 222.782 164.626 223.155C164.742 223.892 164.864 224.625 164.979 225.354C166.317 233.619 167.695 241.503 169.078 249.215C173.026 271.22 177.039 291.802 180.35 315.703C181.475 323.814 185.282 330.043 174.797 334.38C160.956 340.104 119.271 358.105 115.233 352.047C113.219 349.027 114.86 295.27 113.32 239.479C112.432 207.234 106.178 174.783 108.661 149.842C109.933 137.082 111.16 125.449 116.142 113.629C121.175 114.748 126.177 116.017 131.134 117.421C132.835 117.9 167.226 125.902 177.826 139.531C183.343 146.624 207.209 205.658 207.209 205.658C207.209 205.658 227.638 190.414 252.135 179.914C255.669 178.4 273.336 201.62 270.812 205.154Z" fill="#20CE86"/>
<path d="M104.127 128.426L104.495 130.353L104.864 132.31L105.48 135.537L105.843 137.464L106.858 142.784L107.211 144.645L108.503 151.44L129.366 116.815L127.917 114.805L126.923 113.422L125.176 110.995L124.187 109.625L122.698 107.558L121.723 106.202L120.28 104.196L104.127 128.426Z" fill="#363740"/>
<path d="M104.496 130.352L104.865 132.31C108.141 128.153 111.341 123.943 114.471 119.686C117.353 115.761 120.407 111.868 122.698 107.557L121.724 106.201C120.573 108.453 119.18 110.564 117.711 112.632C113.441 118.641 109.034 124.545 104.496 130.352Z" fill="white"/>
<path d="M105.48 135.536L105.844 137.463C109.564 133.069 113.219 128.618 116.692 124.036C119.827 119.901 122.769 115.595 125.177 110.995L124.188 109.625C123.067 111.824 121.82 113.962 120.482 116.038C116.828 121.722 112.547 126.977 108.262 132.187C107.343 133.306 106.414 134.426 105.48 135.536Z" fill="white"/>
<path d="M106.859 142.784L107.213 144.645C111.539 139.935 115.527 134.913 119.136 129.633C121.261 126.525 123.255 123.325 125.107 120.042C126.046 118.387 126.945 116.71 127.808 115.02C127.843 114.95 127.884 114.875 127.919 114.805L126.925 113.422C126.667 113.918 126.414 114.423 126.157 114.924C125.183 116.807 124.168 118.659 123.108 120.494C119.363 126.96 115.072 133.109 110.287 138.842C109.171 140.181 108.026 141.497 106.859 142.784Z" fill="white"/>
<path d="M131.314 92.2473C129.448 96.8036 126.861 100.947 122.622 103.616C118.862 105.978 114.336 107.136 109.904 106.943C105 106.728 100.284 105.016 96.1118 102.391C94.0352 101.079 92.0906 99.547 90.3296 97.8483C87.2504 94.8898 84.6619 91.4616 82.4316 87.8271C78.8099 81.9145 75.886 75.1811 74.4388 68.2238C72.7879 60.3622 73.0162 52.2109 76.2205 44.6698C77.518 41.5928 79.3348 38.7396 81.5713 36.2552C90.9937 25.7643 107.193 23.9559 118.709 32.1028C124.708 36.3562 129.183 42.7384 131.573 49.6519C132.332 51.8422 132.985 54.0897 133.515 56.3722C136.275 68.193 135.906 81.0235 131.314 92.2473Z" fill="#FFCFCA"/>
<path d="M107.48 71.1694C106.862 71.2001 106.011 70.2213 105.775 68.7596C105.651 67.9914 105.726 67.2232 105.981 66.6526C106.069 66.4551 106.315 65.9854 106.693 65.9284L106.751 65.9196C107.369 65.8889 108.221 66.8721 108.455 68.3294C108.58 69.0976 108.505 69.8657 108.25 70.4408C108.162 70.6383 107.916 71.1036 107.538 71.165L107.48 71.1694Z" fill="#1F3C49"/>
<path d="M125.987 69.3736C125.465 69.4 124.59 68.5308 124.352 67.0472C124.231 66.301 124.304 65.5592 124.551 65.0061C124.728 64.6067 124.974 64.3521 125.225 64.3126L125.279 64.3082C125.801 64.2819 126.675 65.151 126.914 66.6346C127.034 67.3808 126.962 68.1227 126.715 68.6757C126.537 69.0752 126.291 69.3297 126.041 69.3693L125.987 69.3736Z" fill="#1F3C49"/>
<path d="M116.699 72.7363C117.183 72.2052 118.001 71.9769 118.773 72.1174C119.559 72.2491 120.283 72.8066 120.647 73.5264C121.029 74.2375 121.076 75.1505 120.733 75.8704C120.407 76.5859 119.752 77.1258 119.038 77.218C119.537 76.7176 119.816 76.1557 119.922 75.5939C120.029 75.0408 119.928 74.5097 119.682 74.0312C119.431 73.5528 119.052 73.1665 118.536 72.9382C118.017 72.7056 117.394 72.6134 116.699 72.7363Z" fill="#1F3C49"/>
<path d="M108.049 57.847C107.178 57.4212 106.191 57.1666 105.195 57.1095C104.153 57.0569 103.102 57.2193 102.156 57.5836C101.416 57.8689 101.045 58.7029 101.331 59.4403C101.475 59.8134 101.77 60.1119 102.14 60.2612C102.286 60.3182 102.439 60.3533 102.596 60.3621C102.799 60.3753 103 60.3402 103.191 60.2656C103.765 60.0461 104.407 59.9451 105.045 59.9802C105.654 60.0154 106.253 60.169 106.779 60.428C106.954 60.5158 107.142 60.5641 107.337 60.5772C107.913 60.608 108.45 60.2919 108.705 59.774C109.056 59.0629 108.762 58.1981 108.049 57.847Z" fill="#1F3C49"/>
<path d="M125.717 54.8533C125.383 54.7787 125.038 54.7348 124.691 54.7172C123.163 54.6338 121.639 55.0552 120.4 55.9024C119.746 56.3501 119.578 57.2499 120.027 57.904C120.223 58.1893 120.515 58.3956 120.849 58.4834C120.942 58.5097 121.039 58.5229 121.136 58.5273C121.451 58.5448 121.767 58.457 122.027 58.2771C122.736 57.7942 123.648 57.544 124.53 57.5879C124.73 57.6011 124.928 57.6275 125.118 57.667C125.193 57.6845 125.267 57.6933 125.34 57.6976C126.053 57.7372 126.677 57.2587 126.825 56.5564C126.988 55.7926 126.496 55.0289 125.717 54.8533Z" fill="#1F3C49"/>
<path d="M107.123 66.8804C106.221 66.6916 105.929 68.0919 106.832 68.2806C107.735 68.4694 108.026 67.0647 107.123 66.8804Z" fill="white"/>
<path d="M125.921 65.0669C125.019 64.8781 124.728 66.2828 125.631 66.4672C126.534 66.6559 126.825 65.2513 125.921 65.0669Z" fill="white"/>
<path d="M127.929 79.8423C128.182 82.3443 127.732 84.7234 126.759 86.7514C125.201 90.004 122.294 92.3172 118.776 92.6728C115.172 93.0415 111.787 91.2637 109.619 88.2657C108.338 86.5143 107.48 84.3416 107.236 81.9405C107.227 81.8527 107.23 81.7649 107.221 81.6727L127.89 79.5789C127.9 79.6711 127.92 79.7589 127.929 79.8423Z" fill="#D55454"/>
<path d="M127.05 79.6671C124.982 82.3535 121.742 84.2453 117.959 84.6272C114.178 85.0091 110.624 83.8108 108.059 81.5897L127.05 79.6671Z" fill="white"/>
<path d="M126.759 86.7514C125.201 90.004 122.294 92.3172 118.776 92.6728C115.172 93.0415 111.787 91.2637 109.619 88.2657C113.07 87.1332 116.687 86.4924 120.317 86.387C122.471 86.3256 124.626 86.4485 126.759 86.7514Z" fill="#F37C7C"/>
<path d="M106.322 76.8578C106.447 79.2062 103.959 81.2517 100.766 81.4229C97.5719 81.5897 94.8811 79.8207 94.7565 77.4724C94.6314 75.1196 97.1193 73.0741 100.313 72.9029C103.506 72.7361 106.197 74.5051 106.322 76.8578Z" fill="#F9BFBB"/>
<path d="M133.255 73.0299C133.339 74.6189 131.66 76.0016 129.503 76.1157C127.346 76.2298 125.529 75.0359 125.444 73.4469C125.36 71.8579 127.04 70.4752 129.197 70.3611C131.354 70.2469 133.171 71.4409 133.255 73.0299Z" fill="#F9BFBB"/>
<path d="M171.782 245.809C169.536 239.576 165.932 226.938 164.448 222.04C164.508 222.413 164.564 222.782 164.625 223.155C164.741 223.892 164.862 224.625 164.978 225.354L164.302 221.812L160.637 166.987C160.637 166.987 172.181 218.726 172.343 236.306C172.358 238.092 172.09 241.959 171.782 245.809Z" fill="#149C64"/>
<path d="M72.5478 38.498C71.6059 34.8372 72.8007 30.7769 75.1688 27.994C77.5369 25.2067 80.9383 23.6089 84.4095 23.0383C87.8807 22.4632 91.4366 22.8451 94.8951 23.5474C98.2258 24.219 101.562 25.1891 104.941 24.9872C109.088 24.737 113.103 22.6301 115.836 19.2721C118.423 16.0897 123.988 16.5594 127.354 18.7805C130.721 21.0016 134.039 24.8994 134.732 29.087C135.398 33.1033 135.021 39.7929 128.738 43.4713C121.333 47.8081 98.0481 46.2717 94.903 46.1971C91.7584 46.1181 88.3794 46.939 86.304 49.4761C82.1827 54.5108 81.3786 62.0958 81.0867 68.8205C78.6545 67.4422 76.336 66.8716 73.596 66.8891C72.3894 66.8935 71.0743 66.9901 69.6012 68.0567C67.0026 63.0264 65.4724 57.623 64.2825 52.0176C63.6925 49.2347 63.2834 46.3639 63.6328 43.5415C63.7658 42.4705 64.0195 41.3863 64.5941 40.4996C65.4606 39.1608 66.9714 38.4409 68.4788 38.2785C69.9857 38.1205 71.0844 38.0635 72.5478 38.498Z" fill="#603813"/>
</g>
<defs>
<clipPath id="clip0_1065_49910">
<rect width="200" height="200" fill="white"/>
</clipPath>
</defs>
</svg>
