<svg width="200" height="200" viewBox="0 0 200 200" fill="none" xmlns="http://www.w3.org/2000/svg">
<g clip-path="url(#clip0_1065_49924)">
<rect width="200" height="200" fill="#EBFEF4"/>
<path d="M137.107 129.708C137.102 130.05 137.098 130.392 137.085 130.735C137.019 133.649 136.865 136.586 136.637 139.531C136.159 145.769 135.351 152.059 134.328 158.353C132.076 172.198 128.771 186.029 125.589 199.215C123.684 200.497 120.541 202.511 118.368 203.244C99.5898 209.57 87.2422 208.345 67.731 204.886C64.9174 193.548 63.4469 181.938 62.692 170.28C61.8711 157.616 61.0591 144.926 61.1776 132.24C61.5682 130.981 61.9808 129.721 62.4154 128.47C62.4944 128.242 62.5734 128.009 62.6568 127.781C62.8236 127.337 62.9904 126.894 63.166 126.455C63.6269 125.274 64.1141 124.102 64.6233 122.943C65.3081 121.385 66.0455 119.849 66.8224 118.339C69.8029 114.893 73.0116 111.645 76.4222 108.625C80.105 105.359 84.1345 102.295 88.84 100.838C92.0751 99.8328 95.5208 99.6353 98.9095 99.8065C101.021 99.9162 103.123 100.171 105.195 100.566C112.916 102.041 120.264 105.465 126.379 110.407C128.306 111.957 130.105 113.66 131.756 115.499C132.05 115.828 132.34 116.162 132.625 116.5C134.333 118.51 135.9 120.731 136.602 123.277C137.177 125.358 137.146 127.552 137.107 129.708Z" fill="#FFCFCA"/>
<path d="M126.282 30.8954C125.281 29.4732 124.215 28.0949 123.078 26.7737C120.734 24.0434 117.938 21.6468 114.883 19.7066C103.409 12.4245 87.9182 13.6096 78.1034 23.1436C73.5252 27.5857 70.5622 33.4281 68.6572 39.468C65.2114 50.4154 64.3117 61.9729 64.0527 73.3592C63.9868 76.2123 63.9824 79.0655 63.9165 81.9143C63.899 82.7395 63.4952 89.609 64.0571 89.8329C66.0323 90.6142 68.0383 91.299 70.0531 91.9398C81.0004 95.4338 92.4131 97.6812 103.83 97.2291C115.238 96.777 126.686 93.5069 135.979 86.7163C136.36 83.5691 136.549 80.514 136.567 77.4502C136.615 68.2015 136.962 58.7554 134.785 49.6911C133.169 42.9796 130.272 36.5622 126.282 30.8954Z" fill="#3A374C"/>
<path d="M112.088 69.5362L112.219 79.9041L112.518 103.379L85.6543 105.025L86.3258 91.3431L86.9229 79.2237L112.088 69.5362Z" fill="#FFCFCA"/>
<path d="M112.088 69.5361L112.22 79.904C109.375 82.7089 106.316 85.2723 102.888 87.3047C97.91 90.2456 92.0369 91.9926 86.3262 91.343L86.9232 79.2236L112.088 69.5361Z" fill="#FCB9B4"/>
<path d="M123.008 53.4713L123.013 53.4757C121.801 59.4497 119.426 65.1999 116.226 70.0635C111.051 77.9338 102.461 84.9789 92.7516 85.7646C87.7914 86.1641 82.7874 84.54 79.1881 81.0547C78.3146 80.2076 77.5113 79.2638 76.7958 78.2279C70.3257 68.8652 69.382 56.4429 72.2571 45.2849C73.5037 40.4477 75.4614 35.8563 78.0029 31.8487C80.7683 27.4812 84.8066 23.6667 89.4199 21.0901C97.0708 16.8235 106.315 15.9544 114.019 21.5949C117.499 24.1408 120.05 27.8367 121.621 31.8619C121.683 32.0111 121.74 32.1604 121.792 32.3096C124.237 38.9289 124.452 46.3559 123.008 53.4713Z" fill="#FFCFCA"/>
<path d="M91.725 25.4473C91.5231 27.8484 90.3205 30.0475 88.9422 32.0315C88.6393 32.4661 88.3276 32.9007 88.0028 33.322C84.0216 38.5455 78.6093 42.676 72.508 45.1253C72.4202 45.1604 72.3192 45.2043 72.2051 45.2526C73.4517 40.4066 75.4138 35.8021 77.9597 31.7901C80.7338 27.4138 84.7766 23.5906 89.4031 21.0096C89.9298 21.2071 90.4038 21.5056 90.7813 21.9226C91.2554 22.4449 91.5275 23.1033 91.6592 23.8013C91.7602 24.3412 91.7733 24.903 91.725 25.4473Z" fill="#FCB9B4"/>
<path d="M123.009 53.4695L123.014 53.4738C120.959 54.997 118.918 56.5772 116.482 57.2795C115.262 57.6351 113.985 57.7536 112.712 57.7536C108.84 57.758 104.973 56.6913 101.65 54.6985C96.9358 51.8673 93.4505 47.2847 91.1285 42.2982C89.7941 39.4363 88.8153 36.4339 88.0252 33.3744C87.4326 31.1095 86.9497 28.805 86.502 26.5005C87.7091 24.7491 89.5966 24.2312 91.6728 23.8756C91.8045 23.8493 91.9318 23.8273 92.0678 23.8054C99.7845 22.5368 107.83 24.139 114.819 27.6506C117.206 28.8533 119.476 30.2667 121.622 31.8601C121.684 32.0093 121.741 32.1586 121.793 32.3078C124.238 38.9271 124.453 46.3541 123.009 53.4695Z" fill="#FCB9B4"/>
<path d="M203.271 170.765C192.306 171.046 167.044 156.144 156.606 150.811C154.644 149.801 150.926 147.747 146.638 145.306C143.46 143.498 139.97 141.488 136.638 139.53C130.853 136.128 125.551 132.902 123.224 131.278C121.385 129.987 119.515 128.53 117.702 126.923C111.373 121.327 105.789 113.944 104.916 105.718C104.872 105.288 104.867 102.206 105.197 100.564C105.32 99.9411 105.491 99.5285 105.728 99.5461C124.444 100.938 141.967 109.106 158.353 118.263C163.607 121.199 166.474 123.254 170.758 126.059C171.675 126.664 172.658 127.301 173.743 127.986L173.808 128.025C173.76 127.911 173.712 127.797 173.664 127.683C172.996 126.045 172.391 124.351 171.851 122.766C171.298 121.142 170.819 119.628 170.402 118.381C169.366 115.274 168.133 111.007 168.133 111.007C168.133 111.007 164.213 100.569 163.708 100.358C162.4 99.8138 161.145 99.1554 159.964 98.3741C158.516 97.4128 157.488 96.1442 156.158 95.0513C153.858 93.1682 151.159 91.7328 148.727 90.0122C147.976 89.4766 147.2 88.9016 146.761 88.0808L146.717 87.993C146.326 87.1853 146.339 86.1143 147.006 85.5086C147.516 85.0433 148.279 84.9555 148.96 85.0872C150.154 85.3242 151.326 85.9826 152.375 86.5752C153.046 86.9571 153.74 87.4312 154.482 87.6682C155.605 88.0413 155.127 87.0932 154.758 86.3908C154.346 85.6227 153.858 84.9028 153.332 84.2137C152.291 82.8485 151.102 81.6063 150.009 80.2851L142.591 71.3174C141.862 70.4351 142.384 68.8988 143.455 68.574C144.948 68.1131 145.988 69.9786 146.848 70.8609C148.284 72.3313 149.732 73.7974 151.176 75.2591C152.217 76.3038 153.261 77.3529 154.31 78.3888C154.916 78.9946 155.324 79.8505 155.943 80.487C156.167 80.7196 156.76 81.4088 157.168 81.1893C157.594 80.9611 157.129 80.2543 157.01 79.9471C156.712 79.2096 156.391 78.4898 156.053 77.7655C155.403 76.3741 154.697 75.0089 153.977 73.6482C152.524 70.874 151.023 68.1087 149.908 65.1765C149.859 65.0536 149.824 64.9351 149.803 64.8166C149.39 63.9343 149.89 62.7755 150.821 62.4682C152.577 61.8888 153.507 64.3732 154.201 65.5145C155.316 67.3625 156.365 69.2456 157.48 71.0935C158.305 72.4718 159.135 73.8501 159.969 75.2284C160.254 75.7156 161.088 78.2396 161.944 77.9586C162.69 77.7216 161.737 75.7902 161.645 75.3381C161.417 74.2583 161.176 73.1829 160.93 72.1119C160.434 69.961 159.89 67.8277 159.284 65.7032C159.227 65.5057 159.205 65.3126 159.213 65.1282C159.02 64.5356 158.827 63.9387 158.625 63.3461C158.27 62.2795 159.161 61.1426 160.28 61.1777C161.895 61.2172 162.137 63.2671 162.523 64.4479C163.133 66.3309 163.726 68.214 164.297 70.1103C164.705 71.4447 165.095 72.7878 165.482 74.131C165.688 74.8465 166.338 78.0464 167.628 77.1071C167.878 76.9227 167.861 76.2599 167.874 75.9966C167.935 75.1494 167.799 74.3066 167.751 73.4638C167.619 71.2033 167.514 68.9383 167.448 66.6777C167.409 65.4355 168.796 64.5532 169.919 65.115C171.557 65.9359 170.968 69.0963 170.995 70.5536C171.039 72.8756 171.166 75.1933 171.381 77.5065C171.425 77.9016 171.46 78.2966 171.592 78.6741C171.759 79.157 172.062 79.5784 172.342 80.0129L172.351 80.0217C173.936 82.4754 174.866 85.3198 175.24 88.2037C175.428 89.6522 175.472 91.1227 175.376 92.58C175.275 94.0549 174.656 96.829 174.656 96.829C174.656 96.829 175.74 98.5585 176.236 99.2169C176.807 99.9675 177.333 100.753 177.873 101.521C179.001 103.119 180.129 104.713 181.253 106.31C185.16 111.841 189.172 117.306 192.872 122.982C202.454 137.669 206.365 145.183 210.579 155.306C212.897 160.867 211.159 170.563 203.271 170.765Z" fill="#FFCFCA"/>
<path d="M146.637 145.308C143.459 143.499 139.97 141.489 136.638 139.531C136.16 145.769 135.352 152.059 134.329 158.353C129.83 158.239 125.34 158.002 120.867 157.528C118.022 157.225 114.928 156.694 113.045 154.539C111.702 152.998 111.236 150.882 111.091 148.846C110.639 142.481 112.878 136.213 115.771 130.524C116.39 129.312 117.035 128.114 117.702 126.925C120.151 122.539 122.798 118.255 124.813 113.66C125.287 112.575 125.77 111.425 126.38 110.407C127.065 109.261 127.908 108.274 129.093 107.69L129.975 107.971C130.515 110.486 131.099 113.006 131.757 115.499C133.091 120.577 134.729 125.573 136.906 130.348C136.967 130.476 137.024 130.603 137.086 130.735C139.535 136.024 142.687 141.041 146.637 145.308Z" fill="#FCB9B4"/>
<path d="M172.385 89.0995C172.144 87.4183 171.718 85.7065 170.673 84.3721C169.628 83.0377 167.837 82.1685 166.205 82.6382C165.393 82.8709 164.699 83.402 163.926 83.7575C161.999 84.6398 159.559 84.4203 157.979 85.8337C157.759 86.0269 157.562 86.2595 157.496 86.5405C157.377 87.0804 157.777 87.5852 158.15 87.9934C158.677 88.5728 159.26 89.1829 160.029 89.3409C160.652 89.4638 161.288 89.2663 161.92 89.1873C163.488 88.9986 165.041 89.5648 166.459 90.2584C167.205 90.6183 167.934 91.0221 168.606 91.5094C169.966 92.4926 171.064 93.8006 172.144 95.0911C172.284 95.2623 172.372 95.4248 172.385 95.6442C172.723 93.467 172.701 91.2767 172.385 89.0995Z" fill="#F9BFBB"/>
<path d="M117.048 23.2267C113.642 20.5579 109.705 18.6309 105.403 17.6126C103.09 17.0595 100.719 16.7303 98.3446 16.6557C95.3115 16.5547 93.5864 17.6784 92.1379 20.3077C91.0141 22.3488 90.4655 24.6708 90.3557 26.9885C90.325 27.7084 90.3294 28.4326 90.3733 29.1657C90.8123 36.3249 94.7013 44.0328 99.0337 48.0711C102.536 51.3413 107.009 53.5887 111.653 54.708C116.284 55.8273 122.07 56.0073 126.376 53.6458C130.445 51.4115 130.994 46.7367 129.857 42.6106C128.448 37.4881 125.384 32.269 122.052 28.1605C120.555 26.3169 118.879 24.6665 117.048 23.2267Z" fill="#3A374C"/>
<path d="M98.9632 20.0836C98.8403 19.5788 98.6911 19.0696 98.4014 18.635C97.7386 17.6342 96.4612 17.2216 95.2629 17.1075C91.0315 16.7168 87.1072 19.1925 83.7098 21.7516C81.6028 23.3406 79.531 25.0217 77.8981 27.0936C76.7831 28.5158 75.8921 30.1003 75.0844 31.7113C72.6176 36.6494 70.8837 41.9475 69.9531 47.3861L70.4799 50.4938C70.9671 44.8534 72.9205 39.09 77.1168 35.2887C82.5027 30.412 90.3115 29.6833 97.3786 28.0022C97.8439 27.8924 98.3355 27.7564 98.6515 27.3964C98.893 27.1155 98.9895 26.738 99.0642 26.3737C99.4812 24.3018 99.446 22.1422 98.9632 20.0836Z" fill="#3A374C"/>
<path d="M126.766 58.509C125.892 56.3933 123.759 54.9053 121.033 54.8438C117.925 54.778 115.493 57.3721 113.505 59.7556L109.699 74.2058C109.598 74.6008 113.417 74.4911 113.874 74.3901C115.41 74.0478 116.968 73.2445 118.325 72.4631C121.125 70.839 123.552 68.5697 125.321 65.857C126.717 63.7237 127.806 61.0066 126.766 58.509Z" fill="#FFCFCA"/>
<path d="M92.0273 17.8847C92.0844 18.4817 92.1019 19.083 92.0888 19.68C92.0844 19.8863 92.08 20.0926 92.0625 20.2989C91.9264 22.5946 91.3118 24.8508 90.3374 26.9226C90.0213 27.5942 89.6658 28.2482 89.2795 28.8759C89.1873 29.0296 89.0908 29.1832 88.9854 29.3324C86.8609 32.5982 83.8717 35.1968 80.6016 37.2335C78.9072 38.287 77.1075 39.2044 75.1717 39.6301C74.7635 39.7179 74.3553 39.7794 73.9427 39.8189C73.8944 39.8277 73.8505 39.8321 73.8022 39.8321C73.3677 39.8672 72.9287 39.876 72.4898 39.8496C71.4626 39.7969 70.453 39.5643 69.5137 39.1122C70.115 37.2423 70.8086 35.4031 71.6162 33.6122C75.4395 25.1317 81.7779 19.2059 89.4727 16.4669C90.3198 16.581 91.1538 16.7873 91.9176 17.0243C91.9615 17.3097 92.001 17.5994 92.0273 17.8847Z" fill="#3A374C"/>
<path d="M94.6388 67.49C94.7705 69.0219 94.5642 70.488 94.0858 71.7829C93.9848 72.0638 93.8707 72.3316 93.7478 72.5949C92.6461 74.8906 90.6532 76.4972 88.2654 76.7035C86.3647 76.8659 84.5606 76.1109 83.1604 74.7502C83.0506 74.6448 82.9409 74.5351 82.84 74.421C81.5144 72.99 80.6101 70.984 80.4126 68.7147C80.3906 68.4425 80.3774 68.1748 80.373 67.907L94.5379 66.6867C94.5818 66.9501 94.6169 67.2178 94.6388 67.49Z" fill="#D55454"/>
<path d="M93.7476 72.5949C92.6459 74.8906 90.653 76.4972 88.2652 76.7035C86.3645 76.8659 84.5604 76.1109 83.1602 74.7502C83.406 74.3332 83.7045 73.9425 84.0513 73.5782C85.2145 72.3711 86.9044 71.5415 88.8402 71.3747C90.2931 71.2474 91.6758 71.5151 92.8478 72.077C93.1638 72.2306 93.4623 72.4018 93.7476 72.5949Z" fill="#F37C7C"/>
<path d="M92.6863 66.8445C92.4185 67.2044 92.1025 67.538 91.7469 67.8453C90.6013 68.8329 89.0342 69.5045 87.2696 69.6581C85.3866 69.8205 83.6264 69.3553 82.292 68.4774C81.9848 68.2754 81.7038 68.056 81.4492 67.8145L92.6863 66.8445Z" fill="white"/>
<path d="M63.1721 57.89C61.6972 52.2363 65.0903 46.4378 70.7396 44.963C76.3888 43.4837 82.1917 46.8768 83.6666 52.5304C85.1458 58.1797 81.7484 63.9782 76.0991 65.4574C70.4499 66.9323 64.6514 63.5392 63.1721 57.89ZM79.896 46.0867L91.7256 45.0903C89.904 46.6573 88.596 48.7423 87.9858 51.0556L83.9388 51.3848C83.1443 49.1857 81.7045 47.3684 79.896 46.0867ZM84.3865 53.0089C84.3426 52.7982 84.3075 52.5875 84.2548 52.3768C84.2153 52.2407 84.167 52.1134 84.1275 51.9774L87.8454 51.6745C87.7752 52.0125 87.7181 52.3505 87.6786 52.6972L84.3865 53.0089ZM88.5565 56.8804C86.9982 50.9063 90.5845 44.7742 96.5585 43.216C102.533 41.6533 108.66 45.2395 110.223 51.2136C111.786 57.1877 108.199 63.3154 102.225 64.878C96.2512 66.4407 90.1191 62.8545 88.5565 56.8804ZM62.5884 58.0392C64.151 64.0133 70.2787 67.6039 76.2527 66.0412C81.8142 64.5883 85.3039 59.1673 84.4962 53.6059L87.6215 53.3118C87.5425 54.532 87.6478 55.783 87.9726 57.034C89.6187 63.3285 96.0801 67.1123 102.379 65.4662C108.673 63.8202 112.457 57.3589 110.811 51.06C109.165 44.7655 102.699 40.9817 96.4049 42.6278C94.9959 42.9965 93.7229 43.6154 92.5992 44.4099L79.0708 45.5468C76.5952 44.1026 73.5708 43.5935 70.586 44.3748C64.6163 45.9374 61.0257 52.0695 62.5884 58.0392Z" fill="#999999"/>
<path d="M87.7821 62.7056C87.4221 62.2886 86.8559 62.0252 86.2589 62.0164C85.6575 61.9945 85.0299 62.2886 84.6436 62.767C84.2529 63.2411 84.0774 63.9478 84.3144 64.536C84.5251 65.111 85.065 65.5587 85.6312 65.5544C85.1396 65.3042 84.8586 64.852 84.7665 64.3999C84.6787 63.9522 84.8192 63.5001 85.1132 63.1533C85.3986 62.7934 85.8112 62.5563 86.2853 62.4861C86.7594 62.4159 87.2773 62.4949 87.7821 62.7056Z" fill="#B53434"/>
<path d="M96.8782 48.2027C97.0142 48.1676 97.1108 48.0403 97.102 47.891C97.0932 47.7242 96.9528 47.5969 96.786 47.6057L92.3175 47.8427C92.1507 47.8515 92.019 47.9964 92.0322 48.1632C92.0409 48.33 92.1815 48.4573 92.3483 48.4485L96.8167 48.2114L96.8782 48.2027Z" fill="#24404C"/>
<path d="M80.5807 49.7262C80.7211 49.6911 80.8177 49.5594 80.8045 49.4101C80.7957 49.2433 80.6509 49.1204 80.4841 49.1336L76.2658 49.4365C76.1034 49.4497 75.976 49.5945 75.9892 49.7613C75.998 49.9281 76.1429 50.051 76.3097 50.0422L80.528 49.735L80.5807 49.7262Z" fill="#24404C"/>
<path d="M92.0983 56.1696C92.0412 56.1696 91.9798 56.1565 91.9227 56.1301C91.7076 56.0335 91.6155 55.7789 91.7121 55.5683C92.23 54.4314 93.301 53.6413 94.5696 53.4525C95.5836 53.3033 96.918 53.83 97.8134 54.7386C97.9802 54.9054 97.9802 55.1732 97.8134 55.34C97.6466 55.5024 97.3744 55.5024 97.212 55.3356C96.5141 54.6333 95.4344 54.1856 94.6969 54.2953C93.7093 54.4402 92.884 55.0459 92.4846 55.9194C92.4144 56.0774 92.2607 56.1696 92.0983 56.1696Z" fill="#FCB9B4"/>
<path d="M76.5593 56.6921C76.4715 56.6921 76.3838 56.6657 76.3047 56.6087C76.116 56.4682 76.0765 56.2005 76.217 56.0117C76.9763 54.9934 78.2141 54.2823 79.2369 54.2823H79.2501C80.5362 54.291 81.7038 54.9231 82.3798 55.9722C82.5027 56.1741 82.4456 56.4331 82.2481 56.5604C82.0506 56.6877 81.7872 56.6306 81.6599 56.4331C81.1463 55.6254 80.2421 55.1382 79.2457 55.1338C78.4863 55.1338 77.4899 55.7264 76.9017 56.5209C76.8183 56.6306 76.691 56.6921 76.5593 56.6921Z" fill="#FCB9B4"/>
<path d="M91.8125 55.6081C91.7554 55.6081 91.6939 55.5949 91.6369 55.5686C91.4262 55.472 91.3297 55.2218 91.4262 55.0067C91.9442 53.8699 93.0152 53.0798 94.2881 52.891C95.3021 52.7418 96.6365 53.2729 97.532 54.1771C97.6944 54.3439 97.6944 54.6117 97.5276 54.7785C97.3608 54.9409 97.093 54.9409 96.9262 54.7741C96.2327 54.0718 95.1529 53.6241 94.4111 53.7338C93.4234 53.8787 92.5982 54.4844 92.2031 55.3579C92.1285 55.5159 91.9749 55.6081 91.8125 55.6081Z" fill="#24404C"/>
<path d="M76.2781 56.1306C76.1859 56.1306 76.0981 56.1042 76.0235 56.0471C75.8348 55.9067 75.7952 55.6433 75.9357 55.4546C76.6907 54.4318 77.933 53.7251 78.9557 53.7251H78.9644C80.2506 53.7295 81.4226 54.3616 82.0942 55.4151C82.2215 55.6126 82.1644 55.8759 81.9669 56.0032C81.7649 56.1261 81.5016 56.0691 81.3787 55.8716C80.8607 55.0639 79.9565 54.5811 78.9601 54.5767C78.2007 54.5767 77.2043 55.1649 76.6161 55.9593C76.5327 56.0735 76.4054 56.1306 76.2781 56.1306Z" fill="#24404C"/>
<path d="M95.0919 114.388C94.8988 114.608 94.7012 114.823 94.4993 115.038C90.878 118.826 85.5228 121.692 81.6908 124.37C76.7702 127.798 73.6976 131.261 70.9278 136.463C70.3748 137.503 69.8436 138.565 69.3301 139.641C68.9657 140.4 68.6146 141.168 68.2722 141.941C66.4462 146.032 64.8572 150.329 63.378 154.679C60.6521 162.633 58.2686 170.771 55.3935 178.216C51.9082 187.232 47.9533 195.852 43.1556 204.245C38.4545 212.484 33.4549 220.552 28.17 228.436C25.5275 232.377 22.8104 236.275 20.0319 240.12C19.0794 241.437 16.3842 245.357 14.7294 247.618C14.365 248.114 14.0534 248.531 13.8164 248.82L13.79 248.895V248.904C13.9085 250.651 13.7944 252.907 13.2282 256.73C12.9297 258.78 12.6224 260.834 12.0913 262.84C11.2617 265.992 9.24254 268.648 7.85547 271.58C7.57015 272.199 7.28487 272.826 6.85909 273.362C4.88383 275.851 2.55298 273.103 2.63199 270.82C2.63638 270.605 2.66272 270.395 2.69784 270.188C2.90414 268.955 3.5801 267.831 4.12879 266.716C4.44922 266.062 4.74769 265.395 4.90132 264.679C5.02861 264.082 5.30081 263.297 4.77847 262.796C4.30001 262.34 3.34744 262.243 2.72853 262.331C1.98232 262.441 1.34151 262.818 0.762094 263.297C0.336316 263.648 -0.0499926 264.061 -0.414319 264.469C-1.38 265.535 -2.26669 266.642 -3.19726 267.726C-4.49655 269.227 -5.52368 270.794 -6.00653 272.721C-6.49815 274.683 -6.54199 276.715 -6.70001 278.721C-6.86681 280.877 -6.98097 283.813 -8.88601 285.24C-9.75951 285.894 -11.0149 285.288 -11.3485 284.344C-11.5328 283.818 -11.5065 283.247 -11.4845 282.689C-11.3221 279.138 -11.2212 275.578 -10.5452 272.076C-9.90431 268.775 -8.35047 265.658 -6.87122 262.647C-4.67209 258.205 5.12525 243.039 5.12525 243.039C5.20426 242.886 9.33911 233.347 12.1133 227.347C14.2026 222.826 15.9716 219.354 17.9425 214.789C21.8053 205.834 26.8619 194.496 30.1453 185.313C30.4174 184.554 30.6764 183.808 30.9134 183.075C31.1987 182.219 31.4533 181.38 31.6947 180.546C33.7577 173.514 34.6751 167.137 36.3739 159.446C38.1691 151.33 40.1049 143.262 41.9397 135.155C44.85 122.267 50.1217 114.625 54.5595 111.895C60.7091 108.12 66.9071 105.096 73.3816 102.831C73.9259 102.638 74.4701 102.453 75.0144 102.273C77.4769 101.461 79.9833 100.759 82.538 100.162C82.9901 100.061 83.4466 99.9556 83.9031 99.859C86.8221 99.227 89.8114 98.7309 92.8972 98.3666C94.0165 98.2393 95.1007 98.8495 95.9918 99.7844C97.054 100.886 97.8573 102.436 98.147 103.726C99.1214 108.028 97.6422 111.478 95.0919 114.388Z" fill="#FFCFCA"/>
<path d="M112.277 144.636C106.233 150.504 98.0549 153.959 89.6842 154.925C87.2085 155.21 84.6846 155.289 82.244 154.793C75.9802 153.516 70.9104 148.454 68.5006 142.529C68.4216 142.336 68.347 142.138 68.2724 141.94C68.11 141.51 67.9607 141.076 67.8246 140.637C66.0995 135.211 66.183 129.277 67.1926 123.645C67.6666 120.985 68.3382 118.373 69.1107 115.784C70.1598 112.241 71.3933 108.747 72.5521 105.244C72.8199 104.441 73.0876 103.634 73.3817 102.83C73.926 102.637 74.4703 102.453 75.0146 102.273C77.4771 101.461 79.9835 100.758 82.5382 100.161C82.6698 101.276 82.9069 102.365 83.2405 103.427C83.596 104.555 84.0657 105.644 84.6407 106.684C86.6511 110.306 89.9037 113.286 93.7796 114.778C94.0166 114.871 94.2537 114.958 94.4995 115.037C94.8199 115.143 95.1491 115.244 95.4827 115.327C98.5027 116.117 101.676 116.082 104.788 115.885C110.666 115.52 116.82 114.476 121.359 110.736C120.691 114.44 121.613 118.229 121.758 121.995C122.083 130.418 118.33 138.767 112.277 144.636Z" fill="#FCB9B4"/>
<path d="M131.473 104.23C132.135 110.989 132.149 117.876 132.873 124.614C133.94 134.57 136.104 144.371 137.6 154.274C138.452 159.879 138.908 165.678 138.851 171.45C138.807 175.879 138.461 180.286 137.763 184.574C117.997 194.227 94.9478 196.966 73.4745 192.221C71.2666 191.734 69.0675 191.167 66.9386 190.391C63.6684 189.197 60.8372 187.485 57.5144 186.44C57.3915 176.963 57.2686 167.456 57.8041 158.001C58.1201 152.439 58.66 146.895 59.5643 141.395C61.9258 127.033 66.4864 116.546 68.5495 102.145C69.8532 101.877 71.9689 100.88 73.334 100.621C75.858 100.143 78.3864 99.3879 81.0639 99.1553C80.963 103.066 81.6346 107.03 83.5045 110.449C85.5939 114.259 89.3161 117.301 93.6222 117.92C95.637 118.21 97.6912 117.973 99.6884 117.591C103.376 116.884 107.067 115.616 109.863 113.109C112.444 110.796 114.064 107.614 115.333 104.388C116.188 102.219 116.57 101.153 117.154 98.8963C118.59 99.2826 123.523 100.973 124.296 101.381C124.836 101.666 130.941 103.94 131.473 104.23Z" fill="#20CE86"/>
<path d="M138.851 171.45C138.807 175.879 138.461 180.286 137.763 184.574C117.997 194.227 94.9478 196.966 73.4745 192.221C71.2666 191.734 69.0675 191.167 66.9386 190.391C63.6684 189.197 60.8372 187.485 57.5144 186.44C57.3915 176.963 57.2686 167.456 57.8041 158.001C59.5116 160.406 61.5307 162.513 64.1074 163.94C68.0623 166.121 72.7941 166.358 77.3021 166.047C81.8057 165.73 86.3006 164.91 90.8086 165.177C98.9993 165.656 106.54 169.655 114.538 171.498C118.12 172.323 121.803 172.719 125.481 172.771C129.967 172.837 134.458 172.389 138.851 171.45Z" fill="#149C64"/>
<path d="M36.8598 185.629C35.1787 184.246 33.0849 183.359 30.9121 183.074C31.193 182.218 31.452 181.38 31.6934 180.546C32.4659 180.875 33.1946 181.283 33.9583 181.814C35.3761 182.797 36.2936 184.013 36.8598 185.629Z" fill="#FCB9B4"/>
<path d="M179.234 139.912C177.601 138.235 175.779 135.83 174.642 133.78C173.242 131.26 171.947 128.684 170.758 126.059C171.675 126.664 172.658 127.301 173.743 127.986C174.866 132.287 176.504 136.44 179.234 139.912Z" fill="#FCB9B4"/>
</g>
<defs>
<clipPath id="clip0_1065_49924">
<rect width="200" height="200" fill="white"/>
</clipPath>
</defs>
</svg>
