<svg width="200" height="200" viewBox="0 0 200 200" fill="none" xmlns="http://www.w3.org/2000/svg">
<g clip-path="url(#clip0_1065_49907)">
<rect width="200" height="200" fill="#EBFEF4"/>
<path d="M143.232 120.132C139.989 137.36 136.508 154.466 134.298 171.853C132.204 188.318 130.187 204.805 127.567 221.195C114.071 221.498 100.617 220.931 87.1591 219.887C73.7602 218.842 60.5124 216.981 47.9282 212.078C41.2535 209.479 34.7856 206.293 28.6426 202.575C34.6667 193.831 38.3574 183.748 42.3803 173.99C46.6903 163.539 50.3898 152.833 53.4637 141.952C60.1687 118.205 62.8361 94.4224 64.4321 69.9028C65.3408 55.9531 69.3348 41.2878 78.7208 30.5775C88.1516 19.8058 103.95 13.6605 117.829 18.9015C126.401 22.1453 133.384 28.8569 138.048 36.7491C140.265 40.5022 141.99 44.5141 143.32 48.6666C143.68 49.7683 144.005 50.8876 144.308 52.0069C145.256 55.5273 145.958 59.1223 146.472 62.7261C147.262 68.327 147.622 73.9499 147.644 79.5728C147.688 93.1758 145.748 106.783 143.232 120.132Z" fill="#345668"/>
<path d="M131.956 122.94C130.097 124.393 127.715 124.942 125.414 125.451C122.641 126.065 119.862 126.684 117.031 126.891C111.512 127.29 106.306 125.903 100.896 124.749C100.626 121.571 100.349 118.388 100.08 115.21C99.7412 111.238 99.3957 107.252 98.6609 103.332C98.4336 102.13 98.1768 100.936 97.884 99.7462C97.1755 96.7877 96.2998 93.8731 95.425 90.9541C94.7055 88.5574 93.9866 86.152 93.2676 83.7553C94.8337 84.9624 96.2616 85.5243 98.1008 86.2793C105.849 89.4748 113.715 92.3763 121.617 95.1724C123.998 96.0108 126.4 96.8491 128.903 97.1652L130.546 111.045L131.956 122.94Z" fill="#FFCFCA"/>
<path d="M130.546 111.045C121.877 109.838 113.389 107.402 105.502 103.644C102.994 102.455 100.387 101.168 97.884 99.7463C97.1755 96.7878 96.2998 93.8732 95.425 90.9542C94.7055 88.5575 93.9866 86.1521 93.2676 83.7554C94.8337 84.9625 96.2616 85.5244 98.1008 86.2794C105.849 89.4749 113.715 92.3764 121.617 95.1725C123.998 96.0109 126.4 96.8492 128.903 97.1653L130.546 111.045Z" fill="#F9BFBB"/>
<path d="M143.825 88.7059C142.486 93.4465 140.379 97.858 136.464 100.988C132.992 103.762 128.622 105.421 124.193 105.728C119.292 106.066 114.41 104.899 109.965 102.757C107.753 101.686 105.646 100.382 103.705 98.8939C100.309 96.2953 97.3486 93.1788 94.722 89.8165C90.4545 84.3472 86.7888 77.9781 84.5656 71.2271C82.0385 63.5938 81.3476 55.4644 83.6837 47.5985C84.6275 44.3942 86.1129 41.3567 88.0565 38.6308C96.2446 27.1391 112.148 23.5134 124.518 30.3215C130.961 33.8726 136.131 39.715 139.286 46.3168C140.287 48.4106 141.191 50.5746 141.972 52.7825C146.05 64.2302 147.13 77.0255 143.825 88.7059Z" fill="#FFCFCA"/>
<path d="M143.321 48.6655C139.441 42.9153 135.549 36.9236 130.43 32.3761C125.843 28.3071 120.142 25.5286 113.995 24.9667C102.351 23.9001 88.7735 28.3203 81.3759 37.7225C77.6427 42.4675 75.9444 48.4197 75.6964 54.3279C75.4484 60.2318 76.6629 65.4553 78.1444 71.2274C89.3928 70.1564 99.1972 63.0278 105.009 54.0514C109.336 47.375 111.692 39.7724 112.913 31.9943C116.393 36.4979 120.252 40.7118 124.781 44.1663C130.425 48.468 137.214 51.5494 144.309 52.0059C144.006 50.8822 143.681 49.7673 143.321 48.6655Z" fill="#345668"/>
<path d="M186.837 251.086C183.216 245.907 175.284 235.859 175.284 235.859C175.284 235.859 180.205 170.21 166.69 142.17C158.099 133.286 149.742 125.297 137.447 123.01C128.449 138.097 125.708 151.7 124.227 169.205C122.263 192.412 121.697 216.901 132.173 237.703C135.074 243.462 138.759 248.791 142.504 254.04C152.389 267.902 163.485 281.277 175.846 293.217C179.173 296.425 184.182 297.15 188.264 294.972L200.164 288.625C204.057 286.549 205.515 281.694 203.408 277.818C198.184 268.223 192.93 259.795 186.837 251.086Z" fill="#20CE86"/>
<path d="M151.006 131.021C150.348 129.265 145.023 125.477 145.023 125.477C145.023 125.477 113.175 119.051 98.0594 120.974C90.5007 121.935 83.0334 123.625 75.8026 126.03C67.8686 128.668 60.9346 131.807 54.3903 137.087C47.7121 142.478 41.8008 148.763 36.1964 155.242C33.4894 158.372 30.8544 161.559 28.2347 164.763C20.7081 173.963 12.818 183.19 6.52264 193.33C-2.55875 207.96 -9.14692 226.65 -0.363139 242.992C4.88931 252.763 13.5252 260.335 22.0175 267.248C32.1221 275.474 43.2033 282.866 55.0794 288.371C58.4172 289.92 62.4068 288.744 64.3074 285.596C66.8353 281.409 68.9546 277.006 70.8846 272.503C72.0531 269.777 71.842 266.66 70.3702 264.084C62.3252 249.993 52.3343 236.786 39.9862 223.92C49.0615 215.277 58.088 206.134 65.3921 196.064C66.0803 204.764 66.3626 213.473 65.9184 222.204C65.7911 224.715 65.6357 227.379 66.8393 229.582C68.3629 232.379 71.6229 233.669 74.6565 234.635C96.7474 241.645 120.727 242.487 143.316 237.295C147.876 236.246 152.648 234.766 155.501 230.798C158.091 227.199 158.718 222.564 159.443 218.301C160.667 211.033 161.409 203.676 161.668 196.31C162.441 174.126 158.837 151.788 151.006 131.021Z" fill="#20CE86"/>
<path d="M138.114 119.841C137.939 119.161 137.732 118.481 137.605 117.835C137.092 115.171 137.583 111.769 134.644 109.93C133.2 109.026 131.418 109.184 129.75 109.157C127.781 109.131 125.816 109.166 123.848 109.127C119.722 109.039 115.59 108.618 111.524 107.876C109.449 107.498 107.391 107.033 105.359 106.489C103.528 105.997 101.677 105.172 99.7774 104.983C98.4118 104.847 96.9233 105.185 96.138 106.12C95.6289 106.73 95.4717 107.503 95.3291 108.249C94.6096 112.028 93.9468 115.882 94.5552 119.718C94.7426 120.904 95.0885 122.141 96.0446 123.028C98.2015 125.034 102.918 125.662 105.826 126.281C115.435 128.326 125.722 128.598 134.746 125.284C135.834 124.885 136.929 124.42 137.684 123.638C138.768 122.519 138.457 121.185 138.114 119.841Z" fill="#149C64"/>
<path d="M98.9868 123.686C98.8323 123.664 98.7024 123.559 98.6769 123.419C97.6484 117.787 97.565 112.094 98.4293 106.506C98.4548 106.339 98.6286 106.229 98.82 106.256H98.827C99.021 106.287 99.1575 106.445 99.1316 106.607C98.2765 112.142 98.3586 117.774 99.3761 123.348C99.4068 123.515 99.2752 123.669 99.0816 123.686H98.9868Z" fill="#13935E"/>
<path d="M101.998 124.753H101.992C101.798 124.722 101.662 124.564 101.687 124.397C102.077 121.843 102.017 119.196 101.959 116.637L101.764 108.108C101.758 107.862 101.715 107.783 101.681 107.761C101.518 107.665 101.475 107.472 101.583 107.336C101.692 107.199 101.911 107.169 102.075 107.27C102.458 107.507 102.468 107.919 102.473 108.121L102.667 116.65C102.726 119.231 102.787 121.9 102.389 124.503C102.365 124.665 102.19 124.775 101.998 124.753Z" fill="#13935E"/>
<path d="M105.702 125.512C105.526 125.49 105.389 125.358 105.388 125.2C105.358 119.678 105.524 114.091 105.882 108.591C105.893 108.424 106.06 108.301 106.255 108.318C106.446 108.336 106.6 108.481 106.589 108.648C106.233 114.139 106.067 119.713 106.097 125.222C106.098 125.389 105.94 125.521 105.744 125.516L105.702 125.512Z" fill="#13935E"/>
<path d="M108.721 126.132C108.533 126.11 108.394 125.96 108.407 125.798C108.838 120.359 108.922 114.82 108.658 109.342C108.65 109.175 108.802 109.039 108.997 109.039C109.195 109.043 109.357 109.175 109.365 109.342C109.63 114.842 109.546 120.403 109.114 125.864C109.101 126.031 108.932 126.153 108.736 126.136L108.721 126.132Z" fill="#13935E"/>
<path d="M112.069 127.071H112.068C111.874 127.045 111.734 126.891 111.756 126.725C112.084 124.244 112.158 121.554 111.998 118.007L111.982 117.669C111.925 116.458 111.867 115.202 112.044 113.973C112.106 113.552 112.195 113.13 112.284 112.713C112.455 111.91 112.616 111.151 112.588 110.369C112.581 110.203 112.735 110.066 112.931 110.066C113.124 110.066 113.289 110.207 113.296 110.374C113.326 111.221 113.15 112.046 112.981 112.845C112.894 113.253 112.807 113.661 112.747 114.074C112.577 115.25 112.634 116.48 112.69 117.669L112.705 118.007C112.867 121.589 112.792 124.306 112.46 126.817C112.438 126.984 112.263 127.098 112.069 127.071Z" fill="#13935E"/>
<path d="M114.971 126.811H114.959C114.765 126.781 114.632 126.618 114.66 126.456C115.552 121.289 115.843 116.009 115.525 110.75C115.514 110.583 115.665 110.447 115.86 110.443C116.059 110.443 116.222 110.579 116.232 110.746C116.553 116.04 116.26 121.364 115.361 126.57C115.333 126.728 115.16 126.838 114.971 126.811Z" fill="#13935E"/>
<path d="M118.862 126.688H118.846C118.653 126.653 118.521 126.495 118.551 126.328C118.769 125.143 118.647 123.892 118.528 122.681C118.473 122.11 118.416 121.522 118.392 120.942C118.342 119.656 118.46 118.353 118.573 117.097C118.762 114.999 118.957 112.835 118.355 110.772C118.307 110.61 118.421 110.447 118.611 110.412C118.801 110.377 118.993 110.482 119.041 110.645C119.672 112.804 119.473 115.021 119.279 117.167C119.167 118.41 119.051 119.696 119.1 120.947C119.123 121.513 119.179 122.092 119.234 122.654C119.356 123.901 119.482 125.187 119.251 126.447C119.222 126.609 119.049 126.715 118.862 126.688Z" fill="#13935E"/>
<path d="M121.923 126.461C121.735 126.435 121.596 126.285 121.61 126.123C122.08 121.036 122.227 115.856 122.047 110.725C122.041 110.558 122.195 110.422 122.39 110.426C122.586 110.426 122.749 110.567 122.755 110.734C122.935 115.882 122.788 121.084 122.316 126.193C122.301 126.36 122.131 126.479 121.936 126.461H121.923Z" fill="#13935E"/>
<path d="M125.379 125.692C125.188 125.665 125.048 125.512 125.066 125.349C125.558 120.714 126.067 115.921 125.144 111.211C125.111 111.044 125.241 110.89 125.433 110.868C125.628 110.846 125.809 110.965 125.842 111.132C126.781 115.921 126.268 120.753 125.772 125.428C125.754 125.595 125.582 125.714 125.387 125.692H125.379Z" fill="#13935E"/>
<path d="M128.376 126.206C128.199 126.18 128.062 126.048 128.063 125.89L128.123 111.208C128.124 111.041 128.282 110.909 128.478 110.918C128.668 110.922 128.832 111.067 128.831 111.234L128.771 125.917C128.77 126.088 128.611 126.215 128.415 126.206H128.376Z" fill="#13935E"/>
<path d="M131.939 125.271C131.757 125.249 131.618 125.109 131.625 124.946C131.812 120.394 131.69 115.768 131.263 111.203C131.247 111.031 131.392 110.891 131.587 110.882C131.781 110.873 131.953 111.01 131.969 111.176C132.399 115.768 132.521 120.416 132.333 124.994C132.326 125.161 132.162 125.288 131.967 125.275L131.939 125.271Z" fill="#13935E"/>
<path d="M135.387 123.946L135.314 123.928C135.128 123.867 135.028 123.691 135.09 123.533C135.524 122.44 135.329 121.255 135.123 119.999C135.027 119.42 134.929 118.823 134.898 118.235C134.873 117.765 134.891 117.296 134.908 116.839C134.926 116.383 134.944 115.908 134.916 115.452C134.828 113.946 134.256 112.458 133.702 111.019C133.64 110.856 133.74 110.689 133.925 110.641C134.111 110.593 134.312 110.685 134.374 110.847C134.943 112.327 135.531 113.854 135.624 115.443C135.653 115.93 135.634 116.413 135.616 116.883C135.599 117.326 135.582 117.787 135.605 118.23C135.635 118.792 135.731 119.372 135.824 119.938C136.033 121.207 136.249 122.519 135.762 123.752C135.708 123.889 135.549 123.963 135.387 123.946Z" fill="#13935E"/>
<path d="M97.9775 87.5702C94.4409 90.6867 89.2016 91.7577 84.7428 90.2082C80.9758 88.9046 77.9097 85.7705 76.6056 82.0175C76.3703 81.3327 76.1934 80.6348 76.0753 79.9149C75.8739 78.6551 75.8677 77.3603 76.1631 76.1224C76.9089 73.0717 79.6527 70.6663 82.7407 70.1088C85.8358 69.5558 89.1393 70.776 91.2923 73.0673L93.8628 78.6464L97.9775 87.5702Z" fill="#FFCFCA"/>
<path d="M148.859 235.697C150.606 234.688 152.402 233.81 154.048 232.8C155.694 231.795 157.16 230.579 158.077 228.973C158.538 228.178 158.881 227.305 159.109 226.387C159.346 225.47 159.447 224.592 159.346 223.653C159.258 222.713 159.078 221.726 158.942 220.734C158.797 219.742 158.683 218.745 158.578 217.749C158.385 215.751 158.275 213.754 158.209 211.757C158.134 209.76 158.139 207.758 158.183 205.765C158.257 201.775 158.477 197.803 158.701 193.83C159.148 185.885 159.763 177.958 159.587 170.013C159.451 162.068 158.806 154.128 157.63 146.262C158.938 154.11 159.715 162.046 159.982 170C160.294 177.967 159.811 185.929 159.495 193.87C159.337 197.842 159.183 201.81 159.175 205.779C159.161 207.763 159.192 209.734 159.302 211.713C159.394 213.688 159.535 215.664 159.763 217.621C159.881 218.6 160.009 219.575 160.167 220.549C160.32 221.524 160.513 222.494 160.628 223.53C160.764 224.57 160.658 225.702 160.408 226.708C160.171 227.726 159.798 228.727 159.28 229.662C158.758 230.592 158.082 231.439 157.313 232.164C156.541 232.888 155.698 233.502 154.833 234.051C153.108 235.149 151.335 236.044 149.654 237.054L148.859 235.697Z" fill="#149C64"/>
<path d="M65.2324 134.677C67.1647 136.082 68.8072 137.913 70.0907 139.967C71.3895 142.012 72.3368 144.273 73.0545 146.582C73.7792 148.895 74.2269 151.283 74.5403 153.671C74.8511 156.063 74.9854 158.473 75.0359 160.878C75.0591 163.284 74.9577 165.689 74.7527 168.081C74.5271 170.474 74.212 172.857 73.7533 175.214C72.8596 179.933 71.4071 184.577 69.1667 188.8C70.8035 184.314 71.8855 179.692 72.5413 175.017C72.8495 172.673 73.1317 170.324 73.2669 167.967C73.4232 165.61 73.511 163.253 73.4627 160.896C73.4434 158.539 73.317 156.186 73.0641 153.846C72.9539 152.67 72.7898 151.511 72.6006 150.352C72.3908 149.198 72.1643 148.048 71.8768 146.915C71.5818 145.783 71.2469 144.659 70.8373 143.562C70.6516 143.004 70.408 142.473 70.1916 141.929C69.9379 141.402 69.7097 140.858 69.4244 140.349C68.3617 138.255 66.9395 136.345 65.2324 134.677Z" fill="#149C64"/>
<path d="M94.1554 126.127C93.9935 126.127 93.8416 126.026 93.7845 125.868C93.7117 125.662 93.8192 125.438 94.0238 125.363C94.5189 125.188 95.014 125.016 95.5096 124.841C95.715 124.766 95.9393 124.876 96.0113 125.082C96.0833 125.284 95.9753 125.512 95.7703 125.583C95.2752 125.758 94.781 125.929 94.2867 126.105C94.2432 126.122 94.1989 126.127 94.1554 126.127Z" fill="#149C64"/>
<path d="M88.1967 128.274C88.0364 128.274 87.8854 128.173 87.8275 128.015C87.7529 127.808 87.8578 127.584 88.0619 127.51C89.0535 127.145 90.046 126.785 91.0397 126.43C91.2439 126.355 91.4699 126.461 91.5432 126.667C91.6165 126.873 91.5107 127.097 91.3062 127.172C90.3141 127.527 89.3226 127.887 88.3319 128.247C88.2875 128.265 88.2419 128.274 88.1967 128.274ZM82.2612 130.477C82.1023 130.477 81.9522 130.38 81.893 130.222C81.8161 130.016 81.9188 129.792 82.1225 129.713C83.1106 129.34 84.0995 128.971 85.0893 128.603C85.293 128.528 85.52 128.633 85.5955 128.835C85.671 129.042 85.5669 129.266 85.3633 129.34C84.3747 129.709 83.3871 130.078 82.3999 130.451C82.3543 130.468 82.3073 130.477 82.2612 130.477ZM76.3495 132.742C76.1928 132.742 76.0444 132.65 75.9834 132.492C75.9035 132.29 76.0032 132.062 76.2051 131.983C76.8894 131.71 77.5754 131.447 78.2602 131.184L79.1614 130.837C79.3642 130.762 79.592 130.863 79.6697 131.065C79.7469 131.267 79.6455 131.495 79.4427 131.574L78.5425 131.921C77.8595 132.18 77.176 132.448 76.4939 132.716C76.4465 132.733 76.3978 132.742 76.3495 132.742ZM70.5334 135.24C70.3873 135.24 70.2464 135.161 70.1788 135.016C70.0844 134.823 70.1669 134.586 70.3627 134.493C71.2621 134.059 72.2111 133.633 73.2641 133.181C73.4643 133.098 73.6956 133.19 73.7807 133.392C73.8655 133.589 73.7728 133.822 73.5727 133.905C72.5311 134.349 71.5926 134.774 70.7042 135.2C70.6489 135.226 70.5909 135.24 70.5334 135.24ZM65.033 138.365C64.907 138.365 64.7836 138.303 64.7073 138.194C64.5848 138.014 64.6318 137.768 64.8113 137.645C65.6572 137.07 66.5723 136.504 67.5314 135.964C67.7206 135.859 67.9607 135.924 68.0674 136.113C68.1741 136.302 68.1074 136.543 67.9178 136.649C66.978 137.18 66.0816 137.733 65.2542 138.295C65.1861 138.343 65.1093 138.365 65.033 138.365ZM60.1541 142.386C60.0514 142.386 59.9486 142.346 59.8718 142.267C59.7204 142.109 59.7239 141.863 59.8797 141.71C60.6734 140.937 61.4722 140.217 62.2536 139.572C62.4212 139.432 62.6688 139.454 62.808 139.62C62.9462 139.791 62.9234 140.037 62.7561 140.178C61.9902 140.81 61.2075 141.517 60.428 142.276C60.3516 142.351 60.2528 142.386 60.1541 142.386ZM55.8603 147.034C55.7699 147.034 55.6794 147.003 55.6053 146.942C55.4398 146.801 55.4196 146.551 55.5605 146.389C56.3159 145.498 57.0033 144.721 57.6622 144.001C57.8088 143.839 58.0581 143.83 58.2183 143.975C58.3785 144.124 58.3895 144.374 58.2424 144.532C57.5902 145.243 56.9094 146.016 56.1601 146.898C56.082 146.99 55.9718 147.034 55.8603 147.034ZM51.8242 151.915C51.7364 151.915 51.6482 151.884 51.5748 151.823C51.4067 151.687 51.3821 151.437 51.5204 151.27L53.5286 148.825C53.6669 148.654 53.9153 148.632 54.0825 148.768C54.2507 148.908 54.2748 149.154 54.1365 149.325L52.1288 151.77C52.0511 151.863 51.9378 151.915 51.8242 151.915ZM47.8139 156.814C47.7266 156.814 47.6388 156.783 47.5655 156.726C47.3974 156.586 47.3719 156.34 47.5093 156.173C48.1769 155.352 48.8446 154.536 49.5131 153.719C49.6509 153.553 49.8989 153.526 50.0671 153.662C50.2352 153.803 50.2597 154.048 50.1224 154.22C49.4538 155.036 48.7862 155.853 48.1194 156.669C48.0413 156.766 47.9285 156.814 47.8139 156.814ZM43.8235 161.73C43.7361 161.73 43.6492 161.699 43.5763 161.642C43.4073 161.506 43.3806 161.256 43.5171 161.089C44.1803 160.268 44.8445 159.448 45.5099 158.627C45.6473 158.46 45.8949 158.434 46.0634 158.57C46.2324 158.706 46.2579 158.956 46.1209 159.123C45.4559 159.944 44.7922 160.76 44.1298 161.581C44.0517 161.677 43.938 161.73 43.8235 161.73ZM39.8664 166.673C39.7808 166.673 39.6943 166.642 39.6219 166.585C39.4516 166.449 39.423 166.203 39.5582 166.032C40.214 165.207 40.8724 164.381 41.5326 163.556C41.6687 163.385 41.9158 163.359 42.0857 163.495C42.2555 163.631 42.2828 163.877 42.1471 164.048C41.4878 164.873 40.8303 165.698 40.1749 166.523C40.0968 166.62 39.9822 166.673 39.8664 166.673ZM35.958 171.655C35.8737 171.655 35.789 171.624 35.717 171.571C35.5454 171.435 35.5137 171.189 35.6472 171.018C36.2938 170.184 36.9434 169.35 37.5957 168.521C37.7296 168.349 37.9771 168.319 38.1479 168.455C38.3191 168.586 38.3489 168.837 38.2146 169.003C37.5636 169.837 36.9149 170.667 36.2692 171.501C36.1915 171.602 36.0756 171.655 35.958 171.655ZM32.1132 176.685C32.0311 176.685 31.9477 176.659 31.8771 176.606C31.7037 176.474 31.669 176.229 31.7994 176.053C32.4345 175.21 33.0728 174.367 33.7145 173.529C33.8462 173.358 34.0924 173.323 34.2663 173.454C34.4388 173.586 34.4717 173.832 34.3396 174.007C33.6996 174.846 33.0622 175.684 32.4284 176.527C32.3511 176.628 32.2331 176.685 32.1132 176.685ZM28.3488 181.772C28.2685 181.772 28.1877 181.75 28.1179 181.698C27.9419 181.57 27.9028 181.325 28.0306 181.149C28.6512 180.293 29.2759 179.442 29.9045 178.594C30.0335 178.419 30.2802 178.384 30.4544 178.511C30.6291 178.638 30.666 178.889 30.537 179.06C29.9101 179.907 29.2868 180.758 28.6675 181.61C28.5907 181.72 28.4704 181.772 28.3488 181.772ZM24.6801 186.934C24.6024 186.934 24.5243 186.912 24.4558 186.864C24.2771 186.741 24.2332 186.495 24.3575 186.316C24.9606 185.451 25.5685 184.586 26.1809 183.721C26.3068 183.546 26.5522 183.506 26.73 183.629C26.9069 183.756 26.9481 184.002 26.8226 184.178C26.2116 185.038 25.6049 185.899 25.0036 186.763C24.9268 186.877 24.8043 186.934 24.6801 186.934ZM21.1237 192.171C21.0491 192.171 20.9736 192.149 20.9069 192.105C20.7256 191.987 20.676 191.741 20.7958 191.561C21.3792 190.679 21.9678 189.801 22.5617 188.927C22.6838 188.747 22.9282 188.703 23.1078 188.822C23.2877 188.945 23.3347 189.191 23.2122 189.371C22.6205 190.24 22.0337 191.118 21.4525 191.996C21.3766 192.11 21.2515 192.171 21.1237 192.171ZM17.6977 197.496C17.6262 197.496 17.5542 197.478 17.4897 197.434C17.3053 197.32 17.2491 197.079 17.3641 196.894C17.9247 195.999 18.4909 195.103 19.0629 194.217C19.181 194.032 19.4241 193.98 19.6067 194.098C19.7898 194.217 19.842 194.458 19.7248 194.642C19.1546 195.529 18.5901 196.416 18.0318 197.311C17.9572 197.43 17.829 197.496 17.6977 197.496ZM14.4425 202.925C14.3771 202.925 14.3108 202.908 14.2498 202.873C14.0602 202.767 13.9939 202.526 14.1006 202.337C14.5948 201.464 15.1194 200.564 15.704 199.594C15.8155 199.409 16.0578 199.348 16.2439 199.462C16.4301 199.572 16.4902 199.813 16.3778 200.002C15.7975 200.968 15.2765 201.854 14.7858 202.723C14.7133 202.855 14.5799 202.925 14.4425 202.925ZM11.5468 208.553C11.4923 208.553 11.4366 208.544 11.3835 208.517C11.186 208.43 11.0986 208.193 11.189 207.995C11.6126 207.069 12.0823 206.108 12.5858 205.133C12.685 204.94 12.9229 204.865 13.116 204.966C13.3087 205.063 13.3846 205.304 13.2846 205.498C12.7872 206.459 12.3233 207.411 11.905 208.324C11.8387 208.469 11.696 208.553 11.5468 208.553ZM9.27962 214.461L9.16506 214.443C8.95656 214.382 8.83935 214.162 8.903 213.952C9.20192 212.973 9.55307 211.954 9.94769 210.936C10.0258 210.73 10.2536 210.629 10.4564 210.708C10.6592 210.787 10.7602 211.015 10.6816 211.217C10.294 212.222 9.94901 213.219 9.65579 214.18C9.60443 214.351 9.44818 214.461 9.27962 214.461ZM7.99437 220.65H7.95268C7.73672 220.624 7.58002 220.431 7.6024 220.215C7.71038 219.184 7.87893 218.117 8.10323 217.051C8.148 216.84 8.35694 216.704 8.56939 216.748C8.78185 216.792 8.91835 216.998 8.87314 217.213C8.65455 218.253 8.4904 219.289 8.38505 220.299C8.36398 220.501 8.19321 220.65 7.99437 220.65ZM8.08612 226.966C7.89299 226.966 7.72399 226.822 7.69677 226.624C7.67746 226.488 7.65945 226.352 7.64233 226.216C7.52865 225.298 7.46502 224.359 7.45317 223.42C7.45009 223.205 7.62391 223.025 7.84119 223.025C8.06461 223.038 8.23755 223.196 8.24018 223.411C8.25204 224.32 8.31394 225.233 8.42367 226.119C8.44035 226.251 8.4579 226.383 8.47633 226.519C8.50618 226.734 8.35608 226.931 8.14099 226.962L8.08612 226.966ZM9.67379 233.077C9.51489 233.077 9.36566 232.98 9.30596 232.822C8.92188 231.808 8.59311 230.785 8.32842 229.771C8.27312 229.561 8.39909 229.346 8.60935 229.293C8.8196 229.236 9.03511 229.363 9.08998 229.574C9.34764 230.557 9.66764 231.558 10.0416 232.541C10.1189 232.747 10.0166 232.976 9.81337 233.05C9.76728 233.068 9.72032 233.077 9.67379 233.077ZM12.4444 238.761C12.3101 238.761 12.1793 238.691 12.1056 238.568C11.5499 237.633 11.0367 236.685 10.5815 235.759C10.4858 235.561 10.5666 235.328 10.7619 235.232C10.9577 235.135 11.193 235.214 11.2882 235.412C11.7342 236.32 12.2372 237.247 12.782 238.164C12.893 238.353 12.832 238.594 12.645 238.704C12.5818 238.743 12.5125 238.761 12.4444 238.761ZM16.0289 243.971C15.9117 243.971 15.7958 243.919 15.7181 243.818C15.0496 242.962 14.4144 242.097 13.8315 241.254C13.7081 241.074 13.7529 240.828 13.9316 240.706C14.1102 240.583 14.3556 240.627 14.4789 240.806C15.054 241.636 15.6795 242.488 16.3392 243.335C16.4727 243.506 16.4424 243.756 16.2707 243.888C16.1987 243.945 16.1136 243.971 16.0289 243.971ZM20.1427 248.782C20.0373 248.782 19.9315 248.738 19.8543 248.655C19.1107 247.852 18.3974 247.057 17.7351 246.285C17.5933 246.118 17.6126 245.872 17.7776 245.727C17.9423 245.587 18.1907 245.604 18.332 245.771C18.9883 246.535 19.6945 247.325 20.4315 248.119C20.579 248.277 20.5698 248.528 20.4105 248.677C20.3345 248.747 20.2388 248.782 20.1427 248.782ZM24.591 253.29C24.4922 253.29 24.3943 253.255 24.318 253.18C23.5235 252.417 22.7623 251.666 22.0547 250.951C21.902 250.797 21.9038 250.547 22.0583 250.393C22.2128 250.239 22.4621 250.244 22.6148 250.397C23.3176 251.109 24.0739 251.855 24.864 252.614C25.0203 252.768 25.0251 253.014 24.8741 253.172C24.7969 253.251 24.6941 253.29 24.591 253.29ZM29.228 257.605C29.1337 257.605 29.0388 257.574 28.9638 257.504C28.1882 256.802 27.4073 256.086 26.6255 255.362C26.4662 255.213 26.4569 254.963 26.6049 254.804C26.7528 254.646 27.0021 254.638 27.161 254.783C27.9402 255.507 28.7193 256.218 29.4923 256.92C29.6534 257.065 29.6657 257.315 29.5195 257.478C29.4418 257.561 29.3351 257.605 29.228 257.605ZM33.9695 261.801C33.8796 261.801 33.7891 261.771 33.7149 261.709C32.8981 261.016 32.0922 260.313 31.3192 259.624C31.1572 259.479 31.1427 259.233 31.2871 259.071C31.432 258.909 31.6804 258.891 31.8433 259.036C32.6114 259.721 33.4125 260.419 34.2241 261.108C34.39 261.248 34.4102 261.498 34.2698 261.665C34.1916 261.753 34.081 261.801 33.9695 261.801ZM38.8857 265.791C38.801 265.791 38.7163 265.765 38.6443 265.708C37.8046 265.054 36.968 264.391 36.1586 263.737C35.99 263.597 35.9641 263.351 36.1006 263.18C36.2376 263.013 36.4856 262.986 36.6546 263.123C37.4596 263.777 38.2914 264.439 39.1272 265.085C39.2988 265.221 39.33 265.467 39.1965 265.638C39.1188 265.739 39.0029 265.791 38.8857 265.791ZM43.9525 269.588C43.8726 269.588 43.7919 269.562 43.7225 269.509C42.8652 268.89 42.0132 268.267 41.1669 267.631C40.9931 267.503 40.9576 267.253 41.0879 267.082C41.2179 266.906 41.4646 266.871 41.6388 267.003C42.4816 267.635 43.3301 268.258 44.1834 268.873C44.3599 269 44.3994 269.246 44.2716 269.421C44.1948 269.531 44.0745 269.588 43.9525 269.588ZM49.1334 273.227C49.0566 273.227 48.9798 273.201 48.9113 273.157C48.0391 272.56 47.17 271.959 46.3053 271.353C46.1275 271.226 46.084 270.98 46.2091 270.804C46.3338 270.624 46.5796 270.58 46.7574 270.708C47.6195 271.313 48.486 271.91 49.356 272.507C49.5355 272.63 49.5811 272.876 49.4582 273.052C49.3823 273.166 49.259 273.227 49.1334 273.227ZM54.3946 276.747C54.3204 276.747 54.2454 276.726 54.1787 276.682C53.2959 276.102 52.4154 275.518 51.5375 274.93C51.3567 274.812 51.3084 274.566 51.4291 274.386C51.5498 274.206 51.7943 274.158 51.9752 274.276C52.8508 274.864 53.7301 275.448 54.611 276.023C54.7923 276.146 54.8432 276.388 54.7234 276.572C54.6479 276.686 54.5224 276.747 54.3946 276.747ZM59.705 280.193C59.6322 280.193 59.5584 280.176 59.4926 280.132C58.6046 279.561 57.7175 278.991 56.8317 278.415C56.6495 278.297 56.5973 278.051 56.7158 277.871C56.8339 277.687 57.0775 277.634 57.2596 277.753C58.145 278.328 59.0312 278.898 59.9184 279.469C60.1014 279.587 60.1541 279.833 60.0364 280.013C59.9614 280.132 59.8345 280.193 59.705 280.193Z" fill="#149C64"/>
<path d="M117.32 69.7831C116.95 67.5708 115.479 65.9774 114.034 66.2188C112.589 66.4602 111.717 68.4487 112.087 70.6566C112.456 72.8689 113.928 74.4622 115.373 74.2208C116.818 73.9794 117.69 71.991 117.32 69.7831Z" fill="#1F3C49"/>
<path d="M137.326 67.8261C136.966 65.6708 135.53 64.1126 134.121 64.3496C132.711 64.5866 131.861 66.5224 132.221 68.682C132.582 70.8373 134.018 72.3911 135.427 72.1585C136.837 71.9214 137.685 69.9813 137.326 67.8261Z" fill="#1F3C49"/>
<path d="M109.333 61.2372C109.101 61.2372 108.872 61.1362 108.717 60.9431C108.446 60.6051 108.501 60.1091 108.842 59.837C110.971 58.1382 114.078 57.7388 116.569 58.8405C116.967 59.0161 117.146 59.4814 116.97 59.8764C116.794 60.2759 116.33 60.4559 115.932 60.2803C113.961 59.4068 111.507 59.7228 109.823 61.066C109.678 61.1845 109.504 61.2372 109.333 61.2372Z" fill="#1F3C49"/>
<path d="M129.924 59.3983C129.684 59.3983 129.446 59.2885 129.292 59.0778C129.033 58.7311 129.106 58.2351 129.455 57.9805C131.471 56.4837 134.347 56.2072 136.611 57.2826C137.004 57.4713 137.17 57.941 136.983 58.3316C136.796 58.7267 136.326 58.8935 135.934 58.7047C134.18 57.8707 131.953 58.0859 130.393 59.2447C130.252 59.3456 130.087 59.3983 129.924 59.3983Z" fill="#1F3C49"/>
<path d="M125.145 75.0953C125.666 74.5159 126.551 74.2657 127.389 74.4105C128.243 74.551 129.031 75.1524 129.43 75.9293C129.85 76.6974 129.906 77.6895 129.539 78.4708C129.19 79.2477 128.483 79.8403 127.71 79.9413C128.247 79.397 128.547 78.7825 128.658 78.1767C128.77 77.5753 128.658 77.0003 128.387 76.4823C128.112 75.9644 127.699 75.5474 127.137 75.3016C126.574 75.0558 125.897 74.9592 125.145 75.0953Z" fill="#1F3C49"/>
<path d="M136.94 82.8113L136.95 82.8639C137.355 85.3001 136.803 87.6792 135.564 89.6325C134.091 91.9502 131.652 93.6664 128.694 94.158C125.507 94.6892 122.427 93.684 120.247 91.6912C118.691 90.2777 117.59 88.3596 117.222 86.1517L117.213 86.099L136.94 82.8113Z" fill="#EA5353"/>
<path d="M135.565 89.6325C134.092 91.9502 131.653 93.6664 128.695 94.158C125.508 94.6892 122.428 93.684 120.248 91.6912C121.004 91.2478 121.793 90.8572 122.593 90.506C125.65 89.1716 129.03 88.3859 132.34 88.838C133.442 88.9872 134.515 89.2682 135.565 89.6325Z" fill="#FF948F"/>
<path d="M135.104 83.1185C134.874 83.3643 134.634 83.597 134.385 83.8296C130.718 87.249 123.474 89.3428 119.324 85.7478L135.104 83.1185Z" fill="white"/>
<path d="M115.293 68.568C114.07 68.568 114.068 70.4686 115.293 70.4686C116.516 70.4686 116.518 68.568 115.293 68.568Z" fill="white"/>
<path d="M135.392 66.4557C134.17 66.4557 134.168 68.3563 135.392 68.3563C136.615 68.3563 136.617 66.4557 135.392 66.4557Z" fill="white"/>
</g>
<defs>
<clipPath id="clip0_1065_49907">
<rect width="200" height="200" fill="white"/>
</clipPath>
</defs>
</svg>
