<svg width="200" height="200" viewBox="0 0 200 200" fill="none" xmlns="http://www.w3.org/2000/svg">
<g clip-path="url(#clip0_1065_49906)">
<rect width="200" height="200" fill="#EBFEF4"/>
<path d="M172.49 132.523C172.49 118.477 161.104 107.091 147.062 107.091C145.253 107.091 143.493 107.284 141.794 107.639C139.749 97.39 141.518 84.8888 142.023 77.3126C143.186 59.7547 142.62 36.9162 127.274 24.3316C118.381 17.0407 104.655 15.0347 93.6682 19.0027C81.1274 23.5327 73.5468 35.0946 69.9738 46.696C67.6825 54.1317 66.8836 61.8045 64.9215 69.1832C63.5345 68.538 61.9937 68.1737 60.3652 68.1737C55.2559 68.1737 50.985 71.7204 49.8656 76.4873C48.7595 76.3469 47.6358 76.2679 46.4901 76.2679C31.8073 76.2679 19.9031 88.1677 19.9031 102.851C19.9031 105.985 20.4518 108.987 21.4438 111.779C14.2889 116.094 9.5 123.942 9.5 132.91C9.5 145.319 18.674 155.586 30.609 157.311C33.2822 168.719 43.5141 177.221 55.7387 177.221C56.2743 177.221 56.801 177.199 57.3277 177.164C61.4538 187.576 71.6023 194.942 83.4846 194.942C94.3837 194.942 103.834 188.735 108.5 179.666C113.008 182.739 118.456 184.539 124.324 184.539C139.538 184.539 151.921 172.463 152.43 157.381C163.895 154.914 172.49 144.726 172.49 132.523Z" fill="#602826"/>
<path d="M247.683 354.376C245.142 348.011 242.6 341.651 240.054 335.282C237.618 329.176 235.489 323.913 232.281 318.158C230.959 315.797 229.164 312.707 227.676 310.358C220.53 297.225 213.388 284.087 206.247 270.954C201.726 262.64 197.209 254.331 192.692 246.022C189.72 240.561 186.744 235.087 184.484 229.298C181.683 222.125 180.015 214.571 178.497 207.021C175.389 191.526 172.847 175.83 167.593 160.923C163.59 149.572 157.875 138.563 149.127 130.289C136.16 118.029 117.909 113.332 100.395 114.522C97.3702 114.724 94.3546 115.114 91.3742 115.685C83.1834 117.261 75.2648 120.232 68.031 124.394C60.5425 128.704 54.4236 133.985 49.5732 141.17C48.0501 143.422 46.6761 145.77 45.4208 148.18C40.6538 157.328 37.5505 167.235 33.6702 176.791C26.7831 193.769 16.8936 209.835 13.6849 227.876C10.3532 246.61 18.4914 292.006 18.4387 318.567C17.9076 328.662 14.1853 341.519 13.2942 347.098C12.6051 351.492 11.8676 356.053 12.3461 360.504C12.8509 365.227 14.1063 369.792 15.2783 374.374C15.4626 375.09 15.6513 375.827 16.0859 376.429C16.8672 377.508 18.6757 377.802 19.5185 376.63C21.3533 374.089 20.3569 370.305 19.7336 367.5C19.1542 364.884 18.4211 362.277 18.2763 359.595C18.1358 356.957 18.8162 354.569 19.8609 352.164C20.6115 350.434 21.2919 348.678 22.082 346.958C22.3014 346.484 22.5341 345.996 22.7974 345.535C22.894 345.355 22.9993 345.189 23.1091 345.017C23.6446 344.183 24.3118 343.459 25.1941 343.042C25.9403 342.691 27.1737 342.45 27.9463 342.853C28.7891 343.292 28.7539 344.39 28.8242 345.202C28.9163 346.168 28.7934 347.138 28.6486 348.09C28.4467 349.367 28.1526 350.689 28.1394 351.992C28.135 352.348 28.1526 352.703 28.2009 353.055C28.2316 353.331 28.2887 353.612 28.3589 353.889C29.149 356.825 33.1302 359.437 34.6446 355.508C34.965 354.666 35.0748 353.757 35.2021 352.866C35.8034 348.599 37.3002 344.447 37.1247 340.123C37.0105 337.367 36.5979 334.632 36.1809 331.906C35.4918 327.367 33.4639 320.748 32.9898 318.567C35.821 291.479 37.2432 268.474 38.8014 241.487C38.9682 238.634 39.1394 235.746 39.9515 233.003C40.9962 229.495 43.0417 226.383 45.0433 223.324C57.3689 204.471 69.0844 185.223 80.1722 165.615C84.0525 158.759 87.9636 151.433 87.7836 143.554C98.134 151.077 112.409 152.838 124.282 148.057C139.057 181.18 145.957 217.692 163.673 249.336C177.882 274.707 198.943 294.692 216.11 318.158C216.733 319.01 216.457 321.56 216.514 322.644C216.702 326.156 216.408 329.659 216.839 333.162C217.278 336.699 218.094 340.189 219.283 343.547C219.823 345.07 221.289 346.466 222.843 345.101C222.984 345.018 223.115 344.912 223.243 344.772C224.779 343.139 224.788 340.9 224.691 338.798C224.582 336.405 224.705 334.132 225.749 331.932C226.035 331.34 226.513 330.782 227.158 330.655C227.549 330.576 227.957 330.673 228.339 330.8C229.621 331.235 230.586 332.029 231.368 333.012C231.78 333.526 232.145 334.092 232.469 334.685C232.786 335.247 233.066 335.83 233.339 336.414C233.681 337.143 234.001 337.871 234.335 338.565C234.405 338.71 234.471 338.85 234.541 338.982C234.603 339.109 234.669 339.237 234.734 339.364C235.143 340.176 235.551 340.988 235.963 341.804C236.71 343.284 237.456 344.763 238.202 346.247C238.852 347.537 239.506 348.832 240.155 350.122C241.297 352.379 242.517 354.911 244.558 356.509C246.086 357.707 248.522 356.478 247.683 354.376Z" fill="#FFCFCA"/>
<path d="M123.672 122.752C121.604 124.02 119.107 124.306 116.701 124.556C113.8 124.868 110.894 125.175 107.979 125.056C102.299 124.828 97.1461 122.804 91.7602 121C91.8524 117.726 91.9358 114.447 92.0323 111.172C92.1465 107.077 92.2562 102.973 91.9577 98.8819C91.8655 97.6309 91.7426 96.3798 91.5802 95.1376C91.2027 92.0342 90.6453 88.9572 90.0922 85.8714C89.6357 83.3431 89.1792 80.806 88.7227 78.2776C90.18 79.6911 91.5758 80.4285 93.3623 81.4161C100.899 85.573 108.594 89.4445 116.332 93.215C118.668 94.3475 121.02 95.4844 123.54 96.0945L123.61 110.453L123.672 122.752Z" fill="#FFCFCA"/>
<path d="M123.61 110.452C114.902 108.214 106.518 104.742 98.9062 99.9967C96.4832 98.4867 93.9725 96.8758 91.5802 95.1375C91.2027 92.0342 90.6453 88.9572 90.0922 85.8714C89.6357 83.343 89.1792 80.8059 88.7227 78.2776C90.18 79.691 91.5758 80.4284 93.3623 81.416C100.899 85.5729 108.594 89.4444 116.332 93.2149C118.668 94.3474 121.02 95.4843 123.54 96.0945L123.61 110.452Z" fill="#F9BFBB"/>
<path d="M138.499 55.6373C138.055 53.5743 137.498 51.5375 136.844 49.5535C134.781 43.2853 130.778 37.4517 125.321 33.5056C114.848 25.9381 99.8318 27.233 90.8948 36.4728C88.7747 38.6632 87.0364 41.1915 85.7679 43.9306C82.647 50.6509 82.2607 57.9725 83.6215 65.0791C84.811 71.3648 87.3744 77.4837 90.5963 82.874C92.5804 86.1881 94.9024 89.3265 97.6853 92.0524C99.2787 93.615 101.043 95.0372 102.935 96.2575C106.741 98.7068 111.064 100.34 115.594 100.634C119.685 100.897 123.895 99.9534 127.424 97.9035C131.401 95.5947 133.881 91.9207 135.703 87.8604C140.184 77.8612 140.799 66.3301 138.499 55.6373Z" fill="#FFCFCA"/>
<path d="M92.5468 80.7707C88.5919 82.5967 83.6668 82.1577 80.1289 79.6074C77.1397 77.4566 75.2522 73.8704 75.0898 70.2008C75.0635 69.5336 75.0898 68.8664 75.1776 68.1992C75.3312 67.0316 75.6648 65.8816 76.2574 64.8632C77.7235 62.3612 80.7874 60.9522 83.6712 61.277C86.5595 61.6062 89.1581 63.5639 90.4618 66.1581L91.265 71.7767L92.5468 80.7707Z" fill="#FFCFCA"/>
<path d="M126.885 29.8699C123.488 39.5092 116.399 47.6604 107.716 53.0639C99.0385 58.4673 88.8505 61.2152 78.6406 61.7463C77.9163 61.7858 80.0233 48.3057 80.4095 47.0108C82.4814 40.1325 86.985 34.018 92.9283 29.9796C93.8194 29.3739 94.7412 28.8164 95.6893 28.3116C101.567 25.1819 108.463 24.0538 115.042 25.0107C117.751 25.4014 120.398 26.0993 122.816 27.3723C123.286 27.6181 127.092 29.2861 126.885 29.8699Z" fill="#602826"/>
<path d="M141.854 227.471C143.768 212.226 145.216 197.012 148.302 181.943C151.041 168.573 154.175 154.421 149.088 141.235C146.946 138.97 144.36 137.105 141.692 135.459C118.866 121.382 90.2119 122.821 64.9109 131.706C63.559 152.639 66.2805 173.669 68.0363 194.629C68.563 197.636 68.9405 200.669 69.2917 203.702C71.504 222.669 72.6935 241.723 73.9752 260.769C74.5766 260.686 75.1911 260.633 75.8188 260.611C80.0985 260.467 84.3563 261.173 88.579 261.884C99.4473 263.702 110.311 265.519 121.175 267.336C125.385 268.043 129.616 268.754 133.76 269.759C136.192 258.829 138.781 247.93 141.362 237.036C141.292 233.879 141.446 230.702 141.854 227.471Z" fill="#FFCFCA"/>
<path d="M177.549 185.249C174.072 189.612 169.929 192.505 165.175 194.462C163.845 195.007 162.642 195.463 161.505 195.849C156.764 197.46 153.257 197.851 147.389 198.505L142.679 245.674C136.661 247.478 130.379 248.238 124.116 248.457C114.402 248.791 104.574 248.198 94.8948 247.404C85.971 246.675 76.8892 245.231 68.8301 241.122C69.0408 229.705 68.7994 218.284 68.1322 206.88C67.8601 202.117 67.5133 197.359 67.0919 192.605C67.0831 192.548 67.0787 192.491 67.0744 192.434C65.9024 194.115 64.704 195.397 63.7296 197.197C52.1721 189.546 41.9095 180.451 32.832 170.03C33.0296 169.561 33.2227 169.087 33.4158 168.604C34.5351 165.83 35.8959 163.249 37.4015 160.659C40.6146 155.106 43.8891 149.554 47.3612 144.154C48.0064 143.145 48.6693 142.153 49.354 141.17C53.941 134.555 59.4191 128.528 66.0428 123.91C69.5851 121.439 73.382 119.393 77.4028 117.818C79.4834 117.001 91.0804 113.819 91.1989 114.016C92.6123 116.352 94.0433 117.269 96.6462 118.072C102.91 120.008 109.622 120.179 116.122 119.323C119.735 118.845 124.752 115.636 124.752 115.636C124.752 115.636 136.072 118.867 141.858 122.361C144.377 123.875 146.739 125.648 148.995 127.531C155.86 133.255 161.066 140.34 164.828 148.425C168.691 156.722 171.149 165.558 174.02 174.222C175.231 177.883 176.425 181.557 177.549 185.249Z" fill="#20CE86"/>
<path d="M149.929 175.934C150.048 173.814 150.14 171.681 149.986 169.561C149.811 167.05 149.289 164.588 148.7 162.165C147.388 156.77 145.742 151.481 143.775 146.358C144.21 147.197 144.693 148.017 145.176 148.825C148.639 154.703 151.927 160.944 152.976 167.919C153.779 173.231 153.248 178.774 154.499 183.972C155.596 188.502 158.032 192.557 161.202 195.569C161.303 195.661 161.403 195.757 161.504 195.85C156.764 197.46 153.257 197.851 147.388 198.505C148.595 190.543 149.473 183.994 149.929 175.934Z" fill="#149C64"/>
<path d="M76.2351 179.771C74.4266 189.055 72.5128 198.593 68.1321 206.88C67.86 202.118 67.5132 197.359 67.0918 192.606C70.9063 188.892 74.8699 184.915 76.2351 179.771Z" fill="#149C64"/>
<path d="M109.366 54.0433C109.928 53.9862 110.498 54.0301 111.06 54.0739C112.061 54.1573 113.062 54.2364 114.058 54.3198C114.392 54.3461 114.804 54.3285 114.949 54.0301C115.019 53.8808 114.998 53.7009 114.936 53.5516C114.69 52.9766 113.984 52.7791 113.365 52.7001C111.824 52.5069 110.2 52.6123 108.76 53.2224C108.479 53.3409 106.868 54.074 106.982 54.4515C107.083 54.7851 109.041 54.074 109.366 54.0433Z" fill="#211A17"/>
<path d="M131.162 53.3628C130.595 53.3496 130.034 53.433 129.472 53.5208C128.484 53.6744 127.492 53.8324 126.5 53.986C126.171 54.0343 125.758 54.0475 125.591 53.7622C125.508 53.6173 125.517 53.4373 125.569 53.2837C125.771 52.6911 126.465 52.4409 127.075 52.318C128.598 52.0108 130.227 52.002 131.706 52.498C131.996 52.599 133.655 53.2135 133.571 53.5954C133.492 53.9378 131.487 53.3715 131.162 53.3628Z" fill="#211A17"/>
<path d="M129.386 79.6424C128.262 82.5614 126.204 84.5674 123.702 84.7781C121.296 84.9756 119.014 83.4524 117.434 80.9329C116.349 79.2034 115.594 76.9999 115.357 74.5594L115.827 74.5199L129.746 73.3698L130.264 73.3259C130.422 75.6392 130.084 77.8207 129.386 79.6424Z" fill="#CE7872"/>
<path d="M129.747 73.3699C128.198 75.7139 125.836 77.2853 123.08 77.518C120.327 77.7462 117.738 76.5743 115.828 74.52L129.747 73.3699Z" fill="white"/>
<path d="M129.386 79.6424C128.262 82.5614 126.204 84.5674 123.702 84.7781C121.296 84.9756 119.014 83.4524 117.434 80.9329C118.11 80.4852 118.821 80.0901 119.562 79.7609C121.709 78.8084 124.119 78.3914 126.432 78.7601C127.464 78.9225 128.442 79.2341 129.386 79.6424Z" fill="#EA8C8B"/>
<path d="M114.879 63.0549C114.937 64.9511 113.896 66.5225 112.557 66.562C111.219 66.6015 110.091 65.0959 110.033 63.1997C109.976 61.3034 111.012 59.732 112.351 59.6925C113.69 59.653 114.822 61.1586 114.879 63.0549Z" fill="#211A17"/>
<path d="M113.124 61.9534C112.347 61.9753 112.382 63.1912 113.163 63.1649C113.94 63.1429 113.905 61.9314 113.124 61.9534Z" fill="white"/>
<path d="M127.811 62.6635C127.868 64.5598 129 66.0654 130.339 66.0259C131.678 65.9864 132.714 64.4149 132.657 62.5187C132.6 60.6224 131.472 59.1168 130.133 59.1564C128.794 59.1959 127.754 60.7673 127.811 62.6635Z" fill="#211A17"/>
<path d="M130.954 61.058C130.172 61.08 130.207 62.2915 130.989 62.2695C131.77 62.2476 131.735 61.0361 130.954 61.058Z" fill="white"/>
<path d="M123.668 66.9305C122.878 66.3159 121.649 66.3335 120.902 67.0051L123.066 70.7405C123.668 70.701 124.159 70.2006 124.383 69.6388C124.752 68.7082 124.458 67.545 123.668 66.9305Z" fill="#CE7872"/>
<path d="M111.394 72.7426C111.596 75.6352 108.87 78.1855 105.305 78.4313C101.746 78.6771 98.6905 76.5306 98.493 73.638C98.291 70.7409 101.017 68.195 104.581 67.9448C108.141 67.699 111.196 69.8455 111.394 72.7426Z" fill="#F9BFBB"/>
<path d="M138.881 69.7052C138.995 71.3293 137.468 72.7603 135.466 72.8964C133.464 73.0368 131.752 71.8297 131.643 70.2056C131.529 68.5815 133.056 67.1506 135.058 67.0145C137.059 66.874 138.771 68.0811 138.881 69.7052Z" fill="#F9BFBB"/>
</g>
<defs>
<clipPath id="clip0_1065_49906">
<rect width="200" height="200" fill="white"/>
</clipPath>
</defs>
</svg>
