<svg width="200" height="200" viewBox="0 0 200 200" fill="none" xmlns="http://www.w3.org/2000/svg">
<g clip-path="url(#clip0_1065_49905)">
<rect width="200" height="200" fill="#EBFEF4"/>
<path d="M168.366 132.57L168.349 132.526C165.267 124.388 159.789 116.886 153.692 110.754C147.012 104.034 141.424 98.2003 139.242 88.5917C137.623 81.4456 137.666 74.045 137.548 66.7233C137.359 54.8805 136.253 42.1423 129.528 32.0421C123.633 23.1754 114.082 17.1662 103.319 17.0038C89.4919 16.7974 76.3499 25.1375 69.3707 36.8925C61.9963 49.3059 61.2413 63.9228 55.8994 77.1088C52.9189 84.47 47.928 91.041 43.7317 97.7832C37.5732 107.66 30.1726 117.391 27.3239 128.826C20.7967 155.189 35.0801 183.51 60.2932 193.531C62.6679 194.475 65.1129 195.243 67.5973 195.831C68.7342 196.099 69.8798 196.331 71.0342 196.524C88.4473 199.457 106.159 197.205 123.076 192.534C133.049 189.782 142.907 186.095 151.331 180.077C166.246 169.433 175.161 150.571 168.366 132.57Z" fill="#603813"/>
<path d="M286.522 207.205C283.691 206.573 280.838 206.033 277.985 205.502C274.701 204.892 271.409 204.356 268.143 203.663C267.92 203.614 267.38 203.443 267.397 203.14C267.402 203.022 267.507 202.93 267.621 202.895C267.946 202.798 268.367 202.952 268.679 203.035C270.97 203.654 273.222 204.053 275.562 204.422C277.598 204.747 279.622 205.116 281.641 205.524C283.063 205.814 284.538 206.296 285.978 206.411C286.992 206.49 288.085 206.217 288.445 205.142C289.498 201.99 283.177 201.165 281.312 200.766C275.623 199.545 269.983 198.079 264.281 196.934C263.772 196.833 263.245 196.798 262.784 196.534C262.696 196.482 262.6 196.411 262.573 196.31C262.538 196.17 262.644 196.038 262.749 195.937C263.521 195.209 264.632 194.888 265.589 194.471C266.919 193.887 268.402 193.233 269.5 192.25C270.307 191.513 270.887 190.275 270.237 189.261C269.697 188.414 268.648 187.957 267.669 187.913C266.427 187.852 265.224 188.317 264.057 188.76C261.454 189.753 258.829 190.683 256.178 191.548C253.733 192.347 251.112 192.404 248.685 193.268C247.078 193.843 245.538 194.581 244.063 195.45C243.444 195.226 206.138 177.133 189.269 173.784L160.083 133.932C158.815 135.358 157.516 136.758 156.221 138.163C152.665 142.008 149.215 145.95 145.642 149.778C144.518 150.98 143.381 152.17 142.24 153.355C141.801 153.948 141.367 154.536 140.928 155.128C151.326 167.985 168.783 189.564 174.038 195.959C174.371 196.793 174.872 197.43 175.574 197.798C193.61 207.227 238.87 208.386 239.559 208.706C240.051 208.939 240.42 209.641 240.784 210.054C241.232 210.567 241.71 211.055 242.206 211.524C243.203 212.464 244.269 213.324 245.397 214.105C247.535 215.58 249.879 216.739 252.35 217.547C253.851 218.038 255.414 218.192 256.972 218.385C260.273 218.793 263.557 219.307 266.857 219.684C270.154 220.062 273.468 220.018 276.773 219.891C277.98 219.842 279.574 219.79 280.267 218.609C280.711 217.845 280.526 216.936 279.723 216.519C278.928 216.102 277.91 216.177 277.037 216.111C276.045 216.032 275.053 215.958 274.056 215.887C272.366 215.765 270.672 215.655 268.982 215.549C268.174 215.497 267.248 215.615 266.489 215.299C266.032 215.115 266.524 214.693 266.787 214.628C267.323 214.496 267.968 214.685 268.508 214.746C269.175 214.821 269.847 214.891 270.514 214.957C271.853 215.084 273.196 215.198 274.539 215.295C277.155 215.492 279.776 215.633 282.396 215.76C283.107 215.795 283.823 215.826 284.521 215.681C285.802 215.418 287.409 213.943 286.355 212.56C285.82 211.858 284.815 211.774 283.932 211.744C281.005 211.691 278.086 211.485 275.175 211.173C273.718 211.019 272.265 210.835 270.812 210.633C270.088 210.532 269.368 210.427 268.644 210.317C268.363 210.273 267.226 210.278 267.138 209.931C267.015 209.444 267.964 209.518 268.201 209.545C270.224 209.795 272.252 210.041 274.276 210.286C277.651 210.699 281.027 211.107 284.402 211.52C286.022 211.717 289.296 212.547 290.012 210.423C290.754 208.215 288.116 207.561 286.522 207.205Z" fill="#FFCFCA"/>
<path d="M177.172 153.209C169.499 162.071 163.09 168.405 155.255 177.118C154.329 176.104 153.403 175.06 152.516 174.037C149.277 170.301 146.595 166.895 146.494 166.763L146.489 166.759C146.489 166.759 144.097 221.75 143.698 223.743C142.991 227.281 150.475 254.825 148.882 256.419C128.536 276.759 68.7824 271.163 57.6244 249.246C56.3339 246.709 76.3104 218.164 76.3104 218.164C76.3104 218.164 68.0977 191.863 64.0243 176.596C62.3738 170.42 61.215 166.048 61.2106 165.96C60.7761 167.273 60.0167 170.74 58.8227 174.726C54.8371 173.532 28.5134 168.032 25.748 166.759C35.045 137.284 46.9053 122.417 52.3395 118.067C56.1803 114.994 81.591 105.425 109.907 107.554C125.841 108.748 144.804 115.92 148.026 118.839C156.098 126.139 168.779 142.279 177.172 153.209Z" fill="#20CE86"/>
<path d="M116.873 115.873C115.197 121.246 109.543 122.506 104.548 122.453C99.039 122.392 91.7525 121.119 89.7904 115.087C88.4384 110.926 89.4129 106.15 89.4305 101.862C89.448 99.0132 89.3558 96.16 89.1232 93.3156C88.9827 91.573 88.7939 89.8304 88.5437 88.0966C88.3374 86.7007 88.1092 85.3005 87.8503 83.909C87.6747 82.974 87.4859 82.0391 87.284 81.1129C87.1435 80.4633 86.3622 78.7119 87.1172 78.2642C87.8151 77.8472 89.2461 79.0806 89.8255 79.4317C98.3806 84.5586 107.318 89.0623 116.531 92.8811C116.895 93.0303 117.273 93.1971 117.488 93.5263C117.694 93.8336 117.699 94.2287 117.699 94.6062C117.703 97.5954 117.703 100.593 117.707 103.587C117.712 104.75 117.743 105.918 117.76 107.081C117.817 110.044 117.773 112.998 116.873 115.873Z" fill="#FFCFCA"/>
<path d="M117.76 107.081C109.758 104.877 102.068 101.594 95.0445 97.2042C93.0956 95.9839 91.0809 94.6934 89.1232 93.3151C88.9827 91.5725 88.7939 89.8299 88.5437 88.096C88.3374 86.7002 88.1092 85.2999 87.8503 83.9085C87.6747 82.9735 87.4859 82.0385 87.284 81.1123C87.1435 80.4627 86.3622 78.7113 87.1172 78.2636C87.8151 77.8466 89.2461 79.08 89.8255 79.4312C98.3806 84.5581 107.318 89.0617 116.531 92.8806C116.895 93.0298 117.273 93.1966 117.488 93.5258C117.694 93.833 117.699 94.2281 117.699 94.6056C117.703 97.5948 117.703 100.593 117.707 103.586C117.712 104.75 117.743 105.917 117.76 107.081Z" fill="#F9BFBB"/>
<path d="M131.056 83.3773C129.345 87.5649 126.965 91.3705 123.072 93.8199C119.613 95.9926 115.456 97.0593 111.383 96.8793C106.875 96.6818 102.542 95.1148 98.7104 92.6962C96.8009 91.4934 95.0144 90.0844 93.3947 88.5262C90.5635 85.8047 88.1845 82.6531 86.139 79.3171C82.8118 73.8873 80.1254 67.6981 78.7954 61.307C78.6373 60.5696 78.5012 59.8278 78.3827 59.0859C77.3468 52.5544 77.7858 45.8824 80.4327 39.6581C81.6222 36.8313 83.2946 34.2108 85.3489 31.9283C94.0049 22.289 108.894 20.621 119.473 28.1094C124.986 32.016 129.099 37.8848 131.293 44.2319C131.991 46.2467 132.588 48.3142 133.08 50.4124C133.163 50.7723 133.247 51.141 133.321 51.5053C135.586 62.062 135.139 73.4132 131.056 83.3773Z" fill="#FFCFCA"/>
<path d="M109.152 64.0106C108.586 64.0369 107.804 63.1371 107.585 61.7939C107.471 61.0872 107.541 60.3849 107.778 59.8581C107.857 59.6738 108.085 59.248 108.432 59.191L108.485 59.1866C109.051 59.1558 109.832 60.0557 110.052 61.3989C110.166 62.1056 110.096 62.8123 109.863 63.3346C109.78 63.519 109.556 63.9448 109.204 64.0018L109.152 64.0106Z" fill="#1F3C49"/>
<path d="M126.163 62.3603C125.68 62.3823 124.877 61.5834 124.657 60.2183C124.548 59.5379 124.613 58.8531 124.842 58.344C125.004 57.9753 125.232 57.7426 125.461 57.7075L125.509 57.7031C125.992 57.6768 126.795 58.4801 127.014 59.8408C127.124 60.5256 127.058 61.2103 126.83 61.7195C126.668 62.0838 126.439 62.3165 126.211 62.356L126.163 62.3603Z" fill="#1F3C49"/>
<path d="M117.625 65.4461C118.073 64.9589 118.823 64.7482 119.53 64.8799C120.254 64.9984 120.917 65.5163 121.255 66.1748C121.606 66.8244 121.646 67.6672 121.334 68.33C121.031 68.984 120.43 69.48 119.776 69.5678C120.232 69.1069 120.491 68.589 120.588 68.0754C120.684 67.5662 120.592 67.079 120.368 66.6356C120.136 66.2011 119.789 65.8455 119.315 65.6304C118.836 65.4197 118.266 65.332 117.625 65.4461Z" fill="#1F3C49"/>
<path d="M109.152 54.1785C109.1 54.1873 109.047 54.1829 108.994 54.1653C108.362 53.9722 107.669 53.9107 106.988 53.9853C106.896 53.9985 106.804 54.0117 106.712 54.0249C106.097 54.1302 105.5 54.3453 104.982 54.6482C104.938 54.6745 104.895 54.6921 104.846 54.6965C104.78 54.7052 104.737 54.7052 104.697 54.6921C104.592 54.6701 104.495 54.6043 104.438 54.5077C104.328 54.3234 104.394 54.0776 104.579 53.9678C105.176 53.6167 105.865 53.3708 106.576 53.2523C106.681 53.2347 106.791 53.2172 106.896 53.2084C107.682 53.1206 108.49 53.1909 109.223 53.4103C109.433 53.4718 109.552 53.6913 109.486 53.902C109.442 54.0468 109.324 54.1522 109.174 54.1785H109.152Z" fill="#1F3C49"/>
<path d="M122.558 51.8035L122.484 51.7771C122.396 51.7376 122.33 51.663 122.29 51.5796C122.207 51.3777 122.299 51.145 122.497 51.0573C123.48 50.6359 124.617 50.5218 125.692 50.7325C125.789 50.75 125.885 50.772 125.982 50.7983C126.245 50.8641 126.504 50.9519 126.746 51.0573C126.943 51.145 127.04 51.3777 126.952 51.5753C126.877 51.7508 126.702 51.843 126.518 51.8079C126.474 51.7991 126.456 51.7903 126.434 51.7815C126.228 51.6937 126.008 51.6191 125.785 51.562C125.705 51.5401 125.622 51.5226 125.543 51.5094C124.621 51.3251 123.651 51.4216 122.808 51.7859C122.738 51.8167 122.655 51.8254 122.576 51.8079L122.558 51.8035Z" fill="#1F3C49"/>
<path d="M108.823 60.0644C107.997 59.8932 107.73 61.1838 108.559 61.3549C109.389 61.5261 109.657 60.2356 108.823 60.0644Z" fill="white"/>
<path d="M126.1 58.4014C125.271 58.2302 125.003 59.5163 125.832 59.6919C126.662 59.863 126.93 58.5726 126.1 58.4014Z" fill="white"/>
<path d="M127.944 71.9778C128.177 74.2779 127.764 76.4638 126.869 78.325C125.438 81.3142 122.765 83.4431 119.534 83.7679C116.22 84.1059 113.112 82.473 111.12 79.7208C109.943 78.1099 109.153 76.1127 108.929 73.9048C108.92 73.8258 108.925 73.7467 108.916 73.6633L127.909 71.7364C127.918 71.8198 127.936 71.8988 127.944 71.9778Z" fill="#D55454"/>
<path d="M127.138 71.8158C125.237 74.287 122.261 76.0253 118.784 76.3764C115.312 76.7276 112.047 75.6214 109.689 73.5847L127.138 71.8158Z" fill="white"/>
<path d="M126.869 78.325C125.438 81.3142 122.764 83.4431 119.534 83.7679C116.22 84.1059 113.112 82.473 111.119 79.7208C114.288 78.6761 117.611 78.088 120.947 77.9914C122.927 77.9343 124.911 78.0484 126.869 78.325Z" fill="#F37C7C"/>
<path d="M108.09 69.2345C108.204 71.3941 105.917 73.2728 102.985 73.4308C100.048 73.5844 97.5772 71.9603 97.4631 69.8007C97.349 67.6367 99.6358 65.758 102.568 65.6044C105.505 65.4464 107.976 67.0705 108.09 69.2345Z" fill="#F9BFBB"/>
<path d="M132.838 65.7184C132.917 67.1801 131.372 68.4486 129.388 68.554C127.408 68.6593 125.74 67.5619 125.661 66.1002C125.582 64.6386 127.127 63.37 129.107 63.2647C131.091 63.1593 132.759 64.2567 132.838 65.7184Z" fill="#F9BFBB"/>
<path d="M133.676 51.4041C128.466 49.8853 123.203 46.5054 118.949 41.5102C118.388 40.8562 117.865 40.1846 117.369 39.5086C114.134 46.3298 107.528 52.6068 98.7359 56.3291C91.6425 59.3315 84.3428 60.1479 78.0351 59.0813C76.986 52.4664 77.4338 45.7109 80.1114 39.4077C81.3185 36.5413 83.0084 33.8901 85.089 31.5768C93.8548 21.8146 108.933 20.1291 119.647 27.7097C125.231 31.6646 129.396 37.6124 131.622 44.0386C132.329 46.0753 132.934 48.1734 133.43 50.2936C133.514 50.6623 133.597 51.031 133.676 51.4041Z" fill="#603813"/>
<path d="M90.7132 76.6835C87.1621 79.1636 82.2722 79.5981 78.3656 77.7238C75.0603 76.1436 72.5891 72.97 71.7858 69.4058C71.641 68.7605 71.5532 68.1065 71.5225 67.4349C71.4654 66.2673 71.597 65.0821 71.9921 63.9848C72.9885 61.2808 75.7407 59.367 78.6158 59.1783C81.4953 58.9939 84.3836 60.4513 86.113 62.7601L87.882 68.1153L90.7132 76.6835Z" fill="#FFCFCA"/>
<path d="M117.676 107.554C117.241 111.311 116.683 115.288 113.707 117.979C111.096 120.34 107.444 121.354 103.963 121.328C100.298 121.297 96.6499 120.117 93.6914 117.983C90.3423 115.573 89.3283 111.522 89.2142 107.593C89.1659 105.754 86.2644 105.745 86.3171 107.593C86.4444 112.141 87.6691 116.925 91.4089 119.844C94.9556 122.614 99.4416 124.146 103.963 124.19C108.207 124.23 112.601 122.878 115.757 120.002C119.322 116.759 120.055 112.079 120.577 107.554C120.783 105.723 117.882 105.741 117.676 107.554Z" fill="#149C64"/>
<path d="M53.691 298.128C53.8534 298.909 54.0378 299.695 54.0246 300.489C53.95 304.198 49.8679 303.237 48.3228 301.033C48.1823 300.827 48.0549 300.616 47.9408 300.393C47.8969 300.314 47.8575 300.23 47.8223 300.142C47.6292 299.73 47.4843 299.295 47.3658 298.852C47.1244 297.961 46.9927 297.03 46.8171 296.144C46.6547 295.31 46.4615 294.471 46.1016 293.699C46.027 293.532 45.9481 293.356 45.8647 293.176C45.7374 292.908 45.5969 292.636 45.4038 292.421C45.3379 292.351 45.272 292.285 45.1974 292.233C45.1184 292.175 45.0394 292.127 44.9516 292.092C44.9077 292.07 44.8638 292.057 44.8155 292.044C44.7673 292.026 44.719 292.017 44.6663 292.013C44.4293 291.982 44.1747 292.017 43.9245 292.092C43.8323 292.118 43.7358 292.149 43.648 292.189C43.5075 292.25 43.367 292.32 43.231 292.399C43.1432 292.448 43.0597 292.5 42.9763 292.557C42.77 292.698 42.5857 292.851 42.4409 293.001C42.059 293.383 41.7912 293.839 41.5893 294.335C41.4708 294.634 41.3786 294.945 41.3083 295.261C41.1591 295.889 41.0933 296.547 41.0406 297.184C40.9001 298.847 40.865 300.502 40.7597 302.166C40.7509 302.368 40.7421 302.57 40.7333 302.772C40.6675 304.519 40.7992 306.195 41.3259 307.841L41.3303 307.846C41.4356 308.166 41.5497 308.482 41.6858 308.798C42.6164 310.984 44.0035 312.924 45.2764 314.917C46.4309 316.743 48.0374 319.083 48.011 321.374C48.0066 321.769 47.954 322.16 47.8443 322.546C47.6731 323.156 47.1946 323.534 46.6416 323.683C46.0753 323.837 45.4257 323.749 44.934 323.415C44.3941 323.051 44.0167 322.498 43.648 321.958C41.2952 318.508 38.881 315.102 37.0418 311.344C35.308 307.798 33.1044 298.782 32.3538 294.932C31.2608 289.235 26.8889 258.1 25.6642 245.322C23.1578 219.165 25.0936 201.704 27.7405 187.478C28.5043 183.365 30.2073 175.784 31.8973 168.462C39.2541 170.253 51.0179 172.799 56.4301 174.107L50.0521 199.834C50.0521 199.834 47.5151 233.725 46.466 245.66C45.5222 256.441 42.8841 268.885 42.6296 272.089C44.1264 273.687 45.711 275.912 48.1954 280.464C49.3587 282.593 50.5262 284.735 51.448 286.987C52.9009 290.521 52.9053 294.414 53.691 298.128Z" fill="#FFCFCA"/>
<path d="M70.7712 141.678C70.7009 142.389 69.0373 158.792 67.5888 165.166C66.6846 169.147 65.2844 173.278 64.0246 176.596C62.3741 170.42 61.2153 166.048 61.2109 165.96C61.2109 165.96 65.596 157.195 67.9883 150.422C70.2269 144.07 70.7185 141.919 70.7712 141.678Z" fill="#149C64"/>
<path d="M152.516 174.038C149.276 170.302 146.594 166.896 146.493 166.764L146.489 166.76C146.489 166.76 146.888 153.609 146.489 148.105C146.23 144.505 143.39 132.474 143.307 132.096C143.509 132.465 150.023 144.255 151.669 152.016C153.297 159.68 153.025 168.235 152.516 174.038Z" fill="#149C64"/>
</g>
<defs>
<clipPath id="clip0_1065_49905">
<rect width="200" height="200" fill="white"/>
</clipPath>
</defs>
</svg>
