<svg width="200" height="200" viewBox="0 0 200 200" fill="none" xmlns="http://www.w3.org/2000/svg">
<g clip-path="url(#clip0_1065_49925)">
<rect width="200" height="200" fill="#EBFEF4"/>
<path d="M101.489 98.6934C104.526 98.6232 107.274 100.335 109.93 101.814C112.585 103.289 115.667 104.628 118.577 103.754C121.632 102.841 123.48 99.8303 125.995 97.8726C128.738 95.7437 132.25 94.8965 135.27 93.1802C138.114 91.5605 140.529 89.1024 141.81 86.0868C143.088 83.0756 143.149 79.5026 141.692 76.5748C141.305 75.7979 140.801 75.0034 140.875 74.1387C140.941 73.3617 141.464 72.7033 142.003 72.1458C143.443 70.6578 145.225 69.4287 146.2 67.6027C146.959 66.1849 147.152 64.5213 147.047 62.9148C146.74 58.3014 143.882 53.9383 139.778 51.8138C135.674 49.6893 130.463 49.8736 126.522 52.2835C122.795 54.5616 118.103 53.9778 114.354 56.2164C108.086 59.9607 102.529 64.8901 98.0604 70.6666C96.0412 73.2784 94.2196 76.1008 93.2319 79.248C92.2399 82.3953 92.139 85.9112 93.4822 88.9224C94.1845 90.5026 95.2512 91.8897 96.309 93.2592C97.74 95.1203 99.6099 97.2888 101.489 98.6934Z" fill="#323A40"/>
<path d="M84.2508 121.102C82.8023 126.268 94.272 133.44 97.6958 132.742C102.902 131.676 110.171 126.132 114.213 122.427C114.38 119.363 114.556 116.304 114.727 113.244C114.938 109.417 115.157 105.585 115.75 101.797C115.934 100.638 116.145 99.4789 116.395 98.3333C116.992 95.4757 117.747 92.6489 118.506 89.8177C119.13 87.4957 119.748 85.1693 120.372 82.8472C118.901 84.0499 117.545 84.6293 115.802 85.4107C108.454 88.6984 100.983 91.7052 93.4731 94.6154C91.2125 95.4889 88.93 96.3624 86.5377 96.7399L85.3525 110.11L84.2508 121.102Z" fill="#FFCFCA"/>
<path d="M85.3535 110.11C93.6452 108.705 101.726 106.124 109.193 102.292C111.563 101.076 114.03 99.7684 116.396 98.333C116.993 95.4755 117.748 92.6487 118.507 89.8175C119.131 87.4954 119.749 85.169 120.373 82.847C118.902 84.0497 117.546 84.6291 115.803 85.4104C108.455 88.6981 100.984 91.7049 93.474 94.6151C91.2135 95.4886 88.9309 96.3622 86.5387 96.7397L85.3535 110.11Z" fill="#F9BFBB"/>
<path d="M71.1881 87.3813C72.3557 91.9639 74.2695 96.2568 77.9478 99.3601C81.2136 102.108 85.3705 103.811 89.6151 104.219C94.3118 104.671 99.0305 103.671 103.35 101.722C105.501 100.752 107.559 99.5489 109.46 98.1706C112.787 95.7608 115.706 92.8418 118.313 89.6813C122.549 84.5325 126.228 78.5101 128.532 72.0795C131.153 64.815 132.022 57.0236 129.976 49.4167C129.147 46.3133 127.799 43.3592 125.999 40.6948C118.428 29.4533 103.244 25.5687 91.1953 31.7974C84.9184 35.0456 79.8046 40.528 76.6091 46.7874C75.5995 48.7715 74.6777 50.8257 73.8656 52.9283C69.6649 63.8186 68.3086 76.0828 71.1881 87.3813Z" fill="#FFCFCA"/>
<path d="M115.244 87.443C118.563 90.5244 123.567 91.6788 127.886 90.3049C131.538 89.1505 134.562 86.2184 135.905 82.6409C136.151 81.9913 136.34 81.3285 136.472 80.6349C136.696 79.4366 136.731 78.19 136.48 76.996C135.84 74.0463 133.267 71.6672 130.313 71.0527C127.355 70.447 124.155 71.5356 122.03 73.6776L119.419 78.9713L115.244 87.443Z" fill="#FFCFCA"/>
<path d="M96.225 70.1566C96.8176 70.2093 97.6691 69.2963 97.9456 67.9005C98.0949 67.1674 98.051 66.4256 97.8228 65.8681C97.7482 65.675 97.5287 65.2185 97.1687 65.1483L97.1116 65.1395C96.5191 65.0868 95.6676 65.9998 95.3866 67.3913C95.2418 68.1243 95.2856 68.8661 95.5095 69.4236C95.5885 69.6167 95.808 70.0776 96.1679 70.1479L96.225 70.1566Z" fill="#1F3C49"/>
<path d="M78.5084 67.7694C79.0088 67.8133 79.8778 67.0056 80.1632 65.5922C80.3036 64.8811 80.2598 64.1613 80.0447 63.6214C79.8867 63.2307 79.6584 62.9805 79.4213 62.9322L79.3687 62.9234C78.8683 62.8795 77.9991 63.6872 77.7138 65.1006C77.5733 65.8161 77.6173 66.5316 77.8324 67.0715C77.9904 67.4621 78.2186 67.7123 78.4556 67.7606L78.5084 67.7694Z" fill="#1F3C49"/>
<path d="M87.3105 71.3287C86.8671 70.802 86.0858 70.5518 85.3396 70.6615C84.5802 70.7581 83.8647 71.2716 83.4916 71.9476C83.0966 72.6148 83.0219 73.4927 83.3248 74.1994C83.6101 74.893 84.2202 75.4373 84.905 75.5514C84.4441 75.0554 84.1939 74.5023 84.1105 73.9624C84.0315 73.4269 84.1456 72.9177 84.4002 72.4656C84.6592 72.0179 85.0367 71.6579 85.5415 71.456C86.0462 71.2497 86.6476 71.1839 87.3105 71.3287Z" fill="#1F3C49"/>
<path d="M101.159 59.7281C101.269 59.7238 101.383 59.6798 101.462 59.592C101.616 59.4209 101.603 59.1619 101.436 59.0083C100.198 57.8802 98.4642 57.3007 96.8006 57.4412C96.5724 57.4632 96.4056 57.6607 96.4231 57.8889C96.4451 58.1172 96.6426 58.284 96.8708 58.2665C98.315 58.1348 99.8074 58.6439 100.878 59.6184C100.957 59.693 101.058 59.7281 101.159 59.7281Z" fill="#1F3C49"/>
<path d="M83.3203 56.8215C83.4124 56.7908 83.4958 56.7293 83.5485 56.6416C83.667 56.4484 83.6056 56.1938 83.4124 56.0753C82.1175 55.2852 80.4759 55.0482 79.0142 55.4388C78.7991 55.5003 78.663 55.7241 78.7201 55.9436C78.7771 56.1675 79.0054 56.2948 79.2249 56.2377C80.4759 55.9041 81.8761 56.106 82.9822 56.7776C83.0876 56.8435 83.2105 56.8566 83.3203 56.8215Z" fill="#1F3C49"/>
<path d="M96.722 66.0485C97.5955 65.8993 97.8238 67.2556 96.9503 67.4048C96.0768 67.5497 95.8485 66.1934 96.722 66.0485Z" fill="white"/>
<path d="M78.7245 63.6345C79.598 63.4852 79.8307 64.8415 78.9528 64.9908C78.0836 65.1356 77.851 63.7793 78.7245 63.6345Z" fill="white"/>
<path d="M77.7284 78.062C77.6669 79.8573 78.1015 81.5341 78.8916 82.9299C80.1558 85.1773 82.3373 86.6917 84.8613 86.7839C87.4511 86.8717 89.7819 85.4451 91.1865 83.2065C92.0161 81.8984 92.5253 80.3094 92.5868 78.5844C92.5912 78.5185 92.5824 78.4571 92.5868 78.3912L77.746 77.8733C77.7416 77.9391 77.7328 78.0006 77.7284 78.062Z" fill="#D55454"/>
<path d="M78.3477 77.8919C79.9498 79.7136 82.3509 80.9119 85.0636 81.0041C87.7806 81.1007 90.2607 80.0779 91.9858 78.3704L78.3477 77.8919Z" fill="white"/>
<path d="M78.8906 82.9299C80.1548 85.1773 82.3364 86.6917 84.8603 86.7839C87.4501 86.8717 89.7809 85.4451 91.1855 83.2065C88.6704 82.5612 86.0587 82.2759 83.4689 82.3681C81.9282 82.4252 80.3962 82.6183 78.8906 82.9299Z" fill="#F37C7C"/>
<path d="M95.1978 76.1789C94.9959 78.4307 97.3092 80.485 100.373 80.7616C103.437 81.0381 106.084 79.4359 106.286 77.1797C106.492 74.9279 104.174 72.8737 101.115 72.5971C98.051 72.3206 95.4041 73.9227 95.1978 76.1789Z" fill="#F9BFBB"/>
<path d="M71.3994 71.0214C71.2589 72.5446 72.8259 73.9272 74.8934 74.116C76.9608 74.3047 78.7474 73.2206 78.8834 71.6974C79.0239 70.1743 77.4612 68.7872 75.3893 68.6028C73.3219 68.4141 71.5355 69.4983 71.3994 71.0214Z" fill="#F9BFBB"/>
<path d="M126.951 121.281C122.065 119.88 116.697 117.242 114.744 116.72C107.374 127.272 91.3697 128.866 84.2983 115.754C77.0469 117.119 67.4998 118.893 59.0764 121.03C58.9973 131.864 53.3657 144.431 52.0488 155.023C49.9331 172.036 47.0931 183.997 44.0951 200.897C40.9479 218.652 40.9523 233.546 37.6645 257.148C35.4127 273.293 34.1046 292.093 32.9414 316.766C64.076 329.57 102.102 328.855 159.486 317.89C159.165 290.232 150.11 229.486 147.147 201.902C140.795 174.933 135.418 147.692 126.951 121.281Z" fill="#149C64"/>
<path d="M131.591 71.3292C125.112 71.3028 119.142 78.7561 117.149 59.8551C116.833 56.879 116.381 53.9293 115.854 50.984C115.332 48.043 114.099 45.0011 111.627 43.4955C105.882 40.0015 98.9242 46.9544 92.3619 45.8878C89.3683 45.4006 86.2474 41.551 83.3591 42.4991C82.0423 42.9337 79.7948 44.707 78.8335 45.7385C75.8267 48.9472 74.5626 53.4552 72.3152 57.2872C71.6655 53.1392 69.7693 47.1827 71.5778 43.4297C72.6269 41.2569 74.2159 38.768 75.3045 36.6128C78.4385 30.4149 77.8723 26.1308 83.1265 21.7808C86.0542 19.3534 93.1213 16.9129 96.668 18.1463C98.4282 18.7608 100.057 19.8275 101.891 20.1347C104.376 20.5517 106.843 19.5202 109.226 18.6774C112.769 17.4308 116.552 16.5573 120.235 17.2377C123.918 17.9137 127.478 20.4201 128.628 24.1511C129.497 26.9648 129.014 30.3227 130.774 32.6359C132.398 34.7648 135.3 35.1687 137.508 36.6084C142.2 39.6767 142.771 46.6384 141.691 52.3184C140.361 59.3108 136.011 65.9038 131.591 71.3292Z" fill="#323A40"/>
<path d="M84.6578 114.578C84.6578 114.578 84.8465 123.884 84.5612 130.661C83.8501 147.605 80.7424 154.966 80.1015 171.922C79.8469 178.704 79.9391 185.486 80.062 192.268C80.1366 196.495 80.2245 200.717 80.2464 204.94C80.264 208.68 80.2332 212.42 80.0884 216.164C80.0796 216.48 80.0664 216.8 80.0532 217.116C79.6362 227.129 78.6574 237.115 77.3493 247.057C77.0596 249.296 76.7436 251.53 76.4144 253.76C76.05 256.279 75.6594 258.786 75.2643 261.296C75.2424 261.433 75.2205 261.564 75.1985 261.7C75.1634 261.937 75.1239 262.179 75.0844 262.42C74.4391 266.463 73.7763 270.554 73.1091 274.689C69.0489 299.713 64.6857 326.212 61.9686 350.776C61.7974 352.33 27.4497 339.205 15.5806 328.688C14.2857 327.538 23.1305 293.809 27.8448 275.194C28.6656 271.963 29.3548 269.189 29.8509 267.117C29.8991 266.919 29.943 266.735 29.9825 266.555L30.0045 266.472C30.2108 265.598 30.3732 264.874 30.4873 264.325C30.5137 264.18 30.5399 264.049 30.5663 263.93C30.5838 263.842 30.6014 263.759 30.6102 263.68C27.8404 263.386 21.8268 262.306 19.0922 261.503C12.0997 259.453 5.39709 255.643 1.93379 247.628C0.494046 244.287 -0.38829 240.218 -0.489248 235.241C-0.546311 231.58 -0.375139 227.853 -0.00203332 224.087C0.0330825 223.766 0.0638431 223.446 0.0989589 223.126C1.16121 213.355 3.56664 203.342 6.8368 193.589C17.9992 160.277 39.2223 129.981 51.267 122.541C65.5943 113.696 84.6578 114.578 84.6578 114.578Z" fill="#20CE86"/>
<path d="M158.235 266.037C158.252 266.13 158.261 266.217 158.274 266.31C158.875 270.396 159.569 275.233 160.306 280.448C163.853 305.587 168.366 339.495 167.558 340.158C162.141 344.499 138.201 353.454 115.367 354.34C114.652 354.029 112.132 313.65 109.735 272.064C109.41 266.459 109.09 260.827 108.774 255.27C107.909 239.981 107.097 225.25 106.439 213.056C106.312 210.69 106.189 208.421 106.075 206.262C105.289 191.702 104.797 182.15 104.819 182.023C108.673 161.441 114.722 115.233 114.722 115.233C114.722 115.233 136.375 118.599 157.8 131.706C169.867 139.085 188.07 178.081 193.658 221.111C193.833 222.472 193.996 223.841 194.145 225.211C194.593 229.311 194.913 233.441 195.089 237.598C195.909 257.048 174.879 263.404 158.235 266.037Z" fill="#20CE86"/>
<path d="M148.42 155.057C148.267 159.824 147.77 164.754 147.617 169.516C147.555 171.465 147.49 173.414 147.428 175.363C147.143 184.353 146.853 193.351 146.076 202.31L152.573 202.025C149.333 186.631 150.356 170.671 148.42 155.057Z" fill="#149C64"/>
<path d="M50.7144 157.157C50.6091 161.919 50.8373 166.871 50.732 171.633C50.6881 173.586 50.6442 175.535 50.6003 177.484C50.3984 186.478 50.1965 195.472 50.4818 204.466L44.0117 203.826C48.0852 188.629 47.9315 172.638 50.7144 157.157Z" fill="#149C64"/>
<path d="M60.4201 222.476C61.0654 222.533 61.9872 222.392 62.549 222.7C63.3304 223.126 64.0854 224.188 64.735 224.815C66.5479 226.571 68.409 228.283 70.2087 230.052C70.7047 230.544 71.1919 231.04 71.6791 231.536C75.656 226.843 79.567 222.094 83.4429 217.314C79.0403 214.11 75.678 211.7 74.168 210.681C73.435 210.194 72.7019 209.703 71.9733 209.211C71.7714 207.214 71.3982 205.238 70.8232 203.316C70.1121 200.954 68.8128 199.032 67.8779 196.776C66.2669 192.882 65.4329 188.62 64.0985 184.608C63.6815 183.366 63.2118 182.075 62.2857 181.145L62.1804 181.044C61.2454 180.183 59.7837 179.762 58.6863 180.412C57.8435 180.916 57.4134 181.922 57.3124 182.896C57.1412 184.617 57.5539 186.478 57.927 188.146C58.1684 189.212 58.5239 190.354 58.5459 191.455C58.581 193.141 57.4968 192.096 56.6935 191.306C55.82 190.433 55.0475 189.471 54.3276 188.475C52.901 186.5 51.6983 184.371 50.3551 182.339L41.2381 168.573C40.3427 167.217 38.0382 167.3 37.1515 168.621C35.9137 170.456 38.0163 172.638 38.8591 174.165C40.2681 176.724 41.6595 179.288 43.051 181.86C44.043 183.704 45.0351 185.552 46.0095 187.404C46.5846 188.475 47.5809 189.384 48.1867 190.481C48.4062 190.885 49.1085 191.973 48.6388 192.439C48.1516 192.922 47.3791 192 47.0191 191.71C46.1412 191.003 45.2897 190.266 44.4469 189.515C42.8272 188.058 41.2601 186.535 39.7106 184.994C36.5458 181.882 33.4117 178.704 29.887 175.983C29.7377 175.864 29.5885 175.772 29.4393 175.693C28.4121 174.767 26.63 174.973 25.8311 176.105C24.3211 178.248 27.3147 180.539 28.5745 181.952C30.62 184.23 32.7489 186.425 34.7988 188.699C36.3307 190.393 37.8626 192.088 39.3902 193.782C39.9301 194.374 43.0159 196.547 42.2829 197.592C41.6508 198.509 39.4165 196.42 38.8459 196.104C37.4763 195.349 36.1156 194.581 34.7593 193.804C32.0422 192.246 29.3691 190.626 26.7354 188.932C26.4896 188.769 26.2349 188.664 25.9847 188.598C25.256 188.093 24.5274 187.584 23.8075 187.062C22.5039 186.14 20.5945 186.882 20.1775 188.418C19.5717 190.63 22.2537 191.798 23.6978 192.812C25.9979 194.418 28.3155 195.994 30.6551 197.552C32.3056 198.654 33.9604 199.743 35.6284 200.818C36.5151 201.393 40.5929 203.592 38.7845 204.957C38.4289 205.225 37.5422 204.922 37.1735 204.835C36.0015 204.571 34.9129 204.04 33.7848 203.623C30.7737 202.513 27.7406 201.442 24.6943 200.419C23.0263 199.853 21.2529 201.371 21.5602 203.131C21.9947 205.686 26.529 206.191 28.4955 206.832C31.634 207.846 34.7286 208.974 37.7793 210.22C38.3016 210.44 38.8239 210.655 39.2804 210.989C39.8642 211.41 40.312 212.003 40.7861 212.56C45.0702 217.621 51.5622 220.97 58.0411 222.151C58.8268 222.296 59.6256 222.406 60.4201 222.476Z" fill="#FFCFCA"/>
</g>
<defs>
<clipPath id="clip0_1065_49925">
<rect width="200" height="200" fill="white"/>
</clipPath>
</defs>
</svg>
