<svg width="200" height="200" viewBox="0 0 200 200" fill="none" xmlns="http://www.w3.org/2000/svg">
<g clip-path="url(#clip0_1065_49912)">
<rect width="200" height="200" fill="#EBFEF4"/>
<path d="M274.433 205.848C271.655 205.225 268.858 204.698 266.06 204.176C262.841 203.579 259.613 203.052 256.41 202.372C256.192 202.323 255.662 202.156 255.679 201.858C255.685 201.744 255.787 201.652 255.897 201.621C256.216 201.524 256.633 201.674 256.937 201.757C259.183 202.363 261.393 202.753 263.687 203.118C265.681 203.434 267.668 203.794 269.646 204.198C271.043 204.483 272.485 204.953 273.901 205.067C274.894 205.146 275.966 204.878 276.319 203.824C277.351 200.734 271.151 199.922 269.326 199.532C263.747 198.338 258.215 196.898 252.624 195.774C252.127 195.678 251.607 195.638 251.158 195.383C251.069 195.331 250.976 195.265 250.95 195.164C250.916 195.028 251.02 194.896 251.122 194.8C251.88 194.08 252.97 193.768 253.908 193.36C255.213 192.789 256.666 192.148 257.741 191.183C258.535 190.458 259.1 189.243 258.466 188.251C257.936 187.421 256.907 186.973 255.948 186.929C254.727 186.868 253.548 187.324 252.406 187.759C249.853 188.733 247.277 189.646 244.68 190.494C242.283 191.275 239.711 191.332 237.334 192.179C235.757 192.741 234.244 193.465 232.8 194.317C232.11 194.071 185.13 171.272 173.623 172.611C167.339 173.34 160.039 193.689 165.644 196.621C183.328 205.87 227.709 207.002 228.383 207.318C228.868 207.547 229.228 208.231 229.585 208.64C230.025 209.14 230.494 209.623 230.98 210.079C231.956 211.001 233.004 211.848 234.108 212.608C236.205 214.056 238.503 215.193 240.923 215.983C242.397 216.466 243.929 216.615 245.458 216.809C248.692 217.208 251.914 217.713 255.152 218.081C258.38 218.45 261.633 218.411 264.874 218.283C266.058 218.235 267.622 218.187 268.298 217.024C268.733 216.282 268.554 215.386 267.766 214.978C266.988 214.57 265.99 214.644 265.131 214.579C264.157 214.5 263.184 214.429 262.21 214.359C260.551 214.241 258.891 214.127 257.231 214.026C256.442 213.977 255.533 214.091 254.787 213.784C254.342 213.6 254.825 213.187 255.083 213.126C255.608 212.994 256.239 213.178 256.767 213.24C257.423 213.31 258.08 213.38 258.737 213.446C260.05 213.573 261.365 213.683 262.681 213.78C265.248 213.969 267.818 214.109 270.389 214.232C271.083 214.267 271.786 214.298 272.468 214.157C273.727 213.898 275.302 212.45 274.27 211.098C273.745 210.409 272.758 210.325 271.893 210.295C269.024 210.242 266.159 210.04 263.305 209.737C261.877 209.583 260.451 209.408 259.028 209.206C258.319 209.109 257.61 209.004 256.902 208.894C256.629 208.855 255.511 208.859 255.425 208.521C255.305 208.043 256.236 208.113 256.467 208.139C258.452 208.381 260.439 208.627 262.424 208.868C265.734 209.272 269.044 209.671 272.354 210.075C273.943 210.268 277.154 211.085 277.854 209C278.583 206.836 275.995 206.195 274.433 205.848Z" fill="#FFCFCA"/>
<path d="M156.161 103.613C156.249 102.424 156.212 101.225 156.03 100.058C155.564 97.0817 154.203 94.312 151.873 92.4026C149.859 90.7565 147.369 89.9181 145.319 88.3204C142.985 86.5031 141.345 83.786 140.252 80.9021C138.86 77.2238 138.106 73.1415 137.332 69.2744C136.486 65.0474 135.846 60.772 135.247 56.4967C134.157 48.6966 133.101 40.6726 130.049 33.4388C126.87 25.902 121.338 20.323 114.166 17.5093C107.026 14.7045 99.1087 14.2085 91.7414 16.2364C82.3146 18.8306 74.6681 26.06 70.4029 35.4886C67.5699 41.7524 66.0323 48.6175 65.0003 55.5046C64.251 60.5086 63.7493 65.5917 62.2529 70.3937C61.1376 73.9712 59.4103 77.4345 56.8697 80.055C54.0596 82.9564 50.1086 83.8914 46.8297 86.0422C43.2461 88.395 40.8363 92.5255 39.9641 96.9632C29.6369 101.089 22.3359 111.176 22.3359 122.975C22.3359 138.439 34.8732 150.976 50.339 150.976C54.4265 150.976 58.3059 150.093 61.807 148.518C62.7937 149.101 63.8182 149.628 64.8765 150.093C67.0344 164.065 79.1107 174.762 93.686 174.762C100.41 174.762 106.597 172.48 111.528 168.657C112.836 168.88 114.179 169.008 115.551 169.008C127.807 169.008 137.856 159.583 138.862 147.587C140.14 147.793 141.45 147.907 142.787 147.907C156.134 147.907 166.954 137.087 166.954 123.743C166.954 115.342 162.666 107.946 156.161 103.613Z" fill="#F7931E"/>
<path d="M199.361 206.982C198.057 208.72 170.637 204.366 161.499 196.535C158.131 193.651 154.464 188.48 151.33 183.419C147.087 176.572 143.815 169.931 143.57 169.421L143.555 169.391C143.555 169.391 143.171 202.764 142.787 204.682C142.104 208.088 153.144 241.892 151.61 243.428C132.027 263.009 62.9981 255.701 52.2571 234.605C51.0144 232.164 67.6013 200.077 67.6013 200.077C67.6013 200.077 59.3728 167.069 58.153 159.089C58.0766 158.579 58.0266 158.175 58.0112 157.881C57.4586 159.536 55.698 163.535 53.5423 168.227C48.8895 178.354 44.7041 192.699 44.5851 192.791C43.8718 193.322 38.655 216.367 36.9132 218.109C34.3814 220.642 10.5483 212.561 9.6774 210.818C8.70689 208.874 11.8177 188.875 16.582 176.295C26.1722 150.977 37.6805 123.744 50.3393 114C56.3731 109.356 79.7347 98.4611 106.993 100.507C122.33 101.657 143.543 111.801 147.571 115.589C161.933 129.078 174.826 162.293 176.295 165.638C182.747 168.179 206.208 179.157 206.323 180.43C206.76 185.219 202.683 202.549 199.361 206.982Z" fill="#20CE86"/>
<path d="M114.087 109.28C112.473 114.455 107.029 115.667 102.223 115.614C96.9171 115.557 89.9049 114.332 88.0139 108.525C86.7133 104.518 87.6492 99.9218 87.6685 95.7913C87.6839 93.0479 87.5956 90.3045 87.3731 87.5698C87.2388 85.8886 87.0548 84.2119 86.8134 82.5439C86.6177 81.1963 86.3951 79.8487 86.1458 78.5099C85.9768 77.6101 85.7968 76.7103 85.6011 75.8192C85.4667 75.1915 84.7148 73.5103 85.44 73.0758C86.1111 72.6763 87.4885 73.8615 88.0482 74.1995C96.2842 79.1376 104.884 83.47 113.757 87.1484C114.106 87.2933 114.471 87.4513 114.678 87.7673C114.874 88.0658 114.881 88.4477 114.881 88.8077C114.885 91.6871 114.885 94.571 114.889 97.4549C114.893 98.5742 114.924 99.6979 114.939 100.817C114.993 103.666 114.95 106.515 114.087 109.28Z" fill="#FFCFCA"/>
<path d="M114.939 100.817C107.236 98.6968 99.8326 95.5364 93.0737 91.3093C91.1941 90.133 89.2566 88.8907 87.3731 87.5695C87.2388 85.8883 87.0548 84.2116 86.8134 82.5436C86.6177 81.196 86.3951 79.8484 86.1458 78.5096C85.9768 77.6098 85.7968 76.71 85.6011 75.8189C85.4667 75.1912 84.7148 73.51 85.44 73.0755C86.1111 72.676 87.4885 73.8612 88.0482 74.1992C96.2842 79.1373 104.884 83.4697 113.757 87.1481C114.106 87.293 114.471 87.451 114.678 87.767C114.874 88.0655 114.881 88.4474 114.881 88.8073C114.885 91.6868 114.885 94.5707 114.889 97.4546C114.893 98.5739 114.924 99.6976 114.939 100.817Z" fill="#F9BFBB"/>
<path d="M88.9 73.7909C85.4837 76.1743 80.7755 76.5913 77.0133 74.7917C73.8344 73.2685 71.4536 70.2134 70.6819 66.7853C70.5428 66.162 70.4572 65.5299 70.4256 64.8846C70.3729 63.7609 70.4971 62.6197 70.8794 61.5662C71.8377 58.9588 74.4871 57.1196 77.2547 56.9397C80.0284 56.7597 82.8078 58.1599 84.4714 60.3854L86.1737 65.5387L88.9 73.7909Z" fill="#FFCFCA"/>
<path d="M127.735 79.8481C126.085 83.8777 123.796 87.5429 120.046 89.9044C116.721 91.9938 112.717 93.0166 108.798 92.8454C104.459 92.6566 100.287 91.1466 96.597 88.8202C94.76 87.6614 93.0402 86.305 91.4824 84.8038C88.7587 82.1833 86.4687 79.1502 84.4961 75.9371C81.2922 70.7092 78.7064 64.7527 77.4256 58.5987C75.9656 51.6458 76.1675 44.4339 79.0018 37.7619C80.1497 35.0404 81.7566 32.5208 83.735 30.3217C92.0702 21.0424 106.399 19.4402 116.586 26.6477C121.892 30.4095 125.851 36.0544 127.964 42.1689C128.636 44.1046 129.213 46.0931 129.683 48.1122C132.124 58.5723 131.798 69.9191 127.735 79.8481Z" fill="#FFCFCA"/>
<path d="M106.653 61.2019C106.107 61.2326 105.354 60.3635 105.146 59.073C105.036 58.3926 105.102 57.7123 105.328 57.2075C105.405 57.0319 105.623 56.6193 105.957 56.5666L106.009 56.5622C106.555 56.5315 107.308 57.4006 107.516 58.6911C107.626 59.3715 107.56 60.0519 107.334 60.5566C107.256 60.7322 107.039 61.1448 106.704 61.1975L106.653 61.2019Z" fill="#1F3C49"/>
<path d="M123.024 59.6173C122.562 59.6392 121.789 58.8667 121.578 57.5586C121.471 56.9002 121.536 56.2417 121.754 55.7501C121.911 55.399 122.129 55.1751 122.35 55.14L122.398 55.1312C122.859 55.1093 123.632 55.8818 123.844 57.1899C123.95 57.8527 123.886 58.5111 123.668 58.9983C123.51 59.3539 123.293 59.5734 123.071 59.6129L123.024 59.6173Z" fill="#1F3C49"/>
<path d="M114.809 62.5896C115.237 62.1199 115.96 61.918 116.643 62.0409C117.338 62.1594 117.979 62.6554 118.3 63.2875C118.639 63.9152 118.68 64.7273 118.377 65.3637C118.088 65.9958 117.509 66.4743 116.878 66.5533C117.318 66.1099 117.566 65.6139 117.66 65.1179C117.754 64.6307 117.665 64.161 117.447 63.7352C117.225 63.3138 116.89 62.9715 116.433 62.7652C115.975 62.5632 115.423 62.4798 114.809 62.5896Z" fill="#1F3C49"/>
<path d="M106.652 50.5922C106.601 50.5966 106.551 50.5922 106.5 50.579C105.891 50.3903 105.222 50.3332 104.566 50.4078C104.478 50.4166 104.389 50.4298 104.3 50.4429C103.71 50.5395 103.134 50.7502 102.635 51.0443C102.594 51.0662 102.552 51.0838 102.506 51.0882C102.443 51.097 102.402 51.097 102.36 51.0838C102.26 51.0662 102.168 50.996 102.115 50.9082C102.009 50.7283 102.069 50.4956 102.249 50.3859C102.824 50.0479 103.488 49.8108 104.171 49.6967C104.273 49.6792 104.376 49.666 104.478 49.6528C105.237 49.5694 106.012 49.6397 106.72 49.8504C106.92 49.9118 107.034 50.1225 106.974 50.3244C106.932 50.4605 106.816 50.5658 106.673 50.5878L106.652 50.5922Z" fill="#1F3C49"/>
<path d="M119.554 48.3057L119.482 48.2793C119.399 48.2398 119.335 48.1696 119.298 48.0862C119.216 47.893 119.305 47.6692 119.497 47.5858C120.444 47.182 121.536 47.0678 122.573 47.2741C122.666 47.2917 122.759 47.3136 122.851 47.3356C123.105 47.4014 123.352 47.4848 123.587 47.5858C123.775 47.6692 123.869 47.893 123.787 48.0818C123.715 48.253 123.546 48.3452 123.367 48.3057C123.326 48.2969 123.307 48.2925 123.288 48.2837C123.089 48.2003 122.878 48.1257 122.661 48.073C122.584 48.0511 122.507 48.0335 122.429 48.0203C121.54 47.8448 120.606 47.9369 119.797 48.2837C119.727 48.3144 119.648 48.3232 119.572 48.3101L119.554 48.3057Z" fill="#1F3C49"/>
<path d="M106.336 57.4094C105.538 57.2426 105.28 58.4848 106.08 58.6472C106.878 58.814 107.136 57.5762 106.336 57.4094Z" fill="white"/>
<path d="M122.965 55.8069C122.167 55.6401 121.909 56.8823 122.708 57.0447C123.507 57.2115 123.764 55.9693 122.965 55.8069Z" fill="white"/>
<path d="M124.742 68.8747C124.965 71.087 124.567 73.1939 123.707 74.9848C122.329 77.8643 119.757 79.9098 116.645 80.2259C113.458 80.5507 110.463 78.9792 108.545 76.328C107.412 74.7785 106.653 72.8559 106.437 70.7314C106.43 70.6524 106.432 70.5778 106.424 70.4944L124.708 68.642C124.716 68.7254 124.734 68.8001 124.742 68.8747Z" fill="#D55454"/>
<path d="M123.965 68.7165C122.136 71.0956 119.27 72.768 115.924 73.1103C112.579 73.4483 109.435 72.3861 107.166 70.4196L123.965 68.7165Z" fill="white"/>
<path d="M123.706 74.9848C122.328 77.8643 119.757 79.9098 116.645 80.2259C113.457 80.5507 110.462 78.9792 108.545 76.328C111.597 75.3228 114.796 74.7566 118.008 74.6644C119.913 74.6117 121.82 74.7215 123.706 74.9848Z" fill="#F37C7C"/>
<path d="M105.629 66.2331C105.74 68.3137 103.539 70.1222 100.714 70.2714C97.8891 70.425 95.5091 68.858 95.3985 66.7774C95.2879 64.6968 97.4884 62.8883 100.313 62.7391C103.138 62.5898 105.518 64.1525 105.629 66.2331Z" fill="#F9BFBB"/>
<path d="M129.452 62.8476C129.527 64.2523 128.041 65.4769 126.133 65.5779C124.225 65.6788 122.618 64.621 122.544 63.2163C122.469 61.8117 123.955 60.5914 125.863 60.4905C127.771 60.3895 129.378 61.443 129.452 62.8476Z" fill="#F9BFBB"/>
<path d="M127.884 39.8424C126.906 38.328 125.556 36.6161 123.76 36.7917C123.102 36.8532 122.5 37.178 121.865 37.358C120.541 37.7311 119.049 37.4589 117.947 36.6337C117.027 35.9489 116.382 34.9218 115.391 34.3424C114.221 33.662 112.647 33.7542 111.562 34.5662C110.631 35.2642 110.115 36.3703 109.395 37.2833C107.76 39.3639 105.065 40.3999 102.424 40.5535C99.7824 40.7071 97.1615 40.075 94.6213 39.3376C93.4142 38.9865 92.0526 38.6221 90.9556 39.2366C90.1945 39.6624 89.738 40.4789 89.4211 41.2909C88.613 43.3715 88.4795 45.6541 88.6428 47.8795C88.8399 50.5615 89.4092 53.4629 88.0559 55.785C87.1056 57.4178 85.2366 58.4713 83.3487 58.4362C81.5793 58.4055 79.9552 57.51 78.2477 57.0491C76.5397 56.5839 74.3976 56.7068 73.4126 58.1772C72.6432 50.8687 72.5049 43.2223 75.4919 36.5108C78.2152 30.3919 83.3996 25.4713 89.5308 22.7717C95.662 20.0766 102.676 19.5674 109.211 21.0335C111.687 21.5866 114.116 22.425 116.306 23.7067C121.906 26.9812 125.791 33.7015 127.884 39.8424Z" fill="#F7931E"/>
<path d="M58.1517 159.088C58.0753 158.579 58.0253 158.175 58.0099 157.881C57.4573 159.536 55.6967 163.535 53.541 168.227C55.436 154.014 56.4372 137.338 56.4372 137.338C56.4372 137.338 57.4002 150.573 58.1517 159.088Z" fill="#149C64"/>
<path d="M151.33 183.419C147.087 176.571 143.815 169.93 143.57 169.42C142.822 157.121 141.636 131.71 141.199 127.668C146.585 145.024 147.437 163.214 150.858 181.061C151.008 181.847 151.165 182.637 151.33 183.419Z" fill="#149C64"/>
</g>
<defs>
<clipPath id="clip0_1065_49912">
<rect width="200" height="200" fill="white"/>
</clipPath>
</defs>
</svg>
