<svg width="200" height="200" viewBox="0 0 200 200" fill="none" xmlns="http://www.w3.org/2000/svg">
<g clip-path="url(#clip0_1065_49908)">
<rect width="200" height="200" fill="#EBFEF4"/>
<path d="M83.2961 113.857C83.1188 111.39 80.9733 109.433 78.4177 110.139C63.0813 114.375 47.23 121.517 40.0914 136.66C37.3001 142.582 36.3081 149.175 34.9452 155.535C33.4199 162.655 32.0025 169.797 30.694 176.956C29.0383 186.02 27.6859 195.133 26.4037 204.254C25.2383 212.541 25.4556 222.725 21.6324 230.178C14.5017 244.08 7.06281 258.24 -0.225918 272.221C-3.964 279.389 -7.69022 286.565 -11.3787 293.76C-13.1793 297.271 -14.9693 300.792 -16.7518 304.316C-17.6192 306.028 -19.1349 308.065 -18.2122 310.032C-16.4016 313.881 -11.1948 316.006 -7.78679 318.249C-6.78292 318.911 -5.75884 319.583 -4.59958 319.908C0.680962 321.387 5.1389 312.823 7.65582 309.5C11.9593 303.816 16.1916 298.075 20.3511 292.285C29.5167 279.525 38.9418 266.497 46.9956 252.841C50.1771 247.446 53.5676 241.96 56.1174 236.253C62.1595 222.721 64.4161 207.796 69.3257 193.833C74.508 179.094 80.8609 164.191 82.6044 148.53C83.8852 137.025 84.128 125.401 83.2961 113.857Z" fill="#149C64"/>
<path d="M205.901 326.611C200.919 327.88 184.525 326.199 183.932 325.839C181.263 324.223 181.079 237.04 176.992 229.872C174.741 225.921 165.957 211.458 156.95 196.191C148.452 181.767 139.743 166.619 136.157 158.938C129.441 144.571 132.274 110.658 133.292 106.883C142.601 109.258 148.909 112.001 149.571 112.291L149.628 112.322C155.879 115.188 163.433 120.574 166.589 123.497C187.786 143.153 207.732 204.343 211.107 220.869C215.15 240.661 209.422 325.712 205.901 326.611Z" fill="#149C64"/>
<path d="M171.984 299.244C160.953 307.518 39.0156 308.111 39.0156 302.33C39.0156 280.273 43.9955 255.371 45.5678 233.34C46.9092 214.593 51.5032 155.524 52.12 145.081C52.544 137.83 53.6616 120.799 53.6616 120.799C53.6616 120.799 64.561 114.245 70.2344 111.55C78.0696 107.828 86.1441 105.506 94.654 104.202C108.818 102.042 122.92 104.237 133.292 106.884C142.601 109.259 148.909 112.002 149.572 112.292L149.629 112.323C149.629 112.323 143.756 114.847 142.307 124.271C136.14 164.351 156.937 195.911 156.937 195.911C156.937 195.911 162.582 230.658 165.817 248.37C167.871 259.62 173.525 298.09 171.984 299.244Z" fill="#20CE86"/>
<path d="M73.6226 37.5114C74.4697 34.3641 75.8393 31.4539 77.6385 29.1363C82.4507 22.9427 90.6011 18.3864 98.6141 19.5453C105.893 20.5943 112.405 23.5704 116.227 30.1458C120.227 37.0198 120.094 46.2816 115.322 52.756C112.469 56.6275 108.563 59.7529 104.193 61.7501C102.882 62.347 101.524 62.843 100.134 63.2205C92.7585 65.2309 83.1016 64.375 77.4928 58.6599C72.1775 53.2477 71.7487 44.4643 73.6226 37.5114Z" fill="#32334C"/>
<path d="M118.821 68.2252C118.463 70.2092 118.112 72.1933 117.758 74.1773C117.734 74.2958 117.715 74.4187 117.696 74.5372C117.686 74.5899 117.675 74.6426 117.665 74.6953C117.194 77.3246 116.728 79.9495 116.406 82.5875C116.272 83.6498 116.166 84.7164 116.091 85.7831C116.005 86.977 115.958 88.1797 115.946 89.3737C115.912 91.665 115.975 93.9607 116.045 96.252C116.129 99.0437 116.209 101.835 116.292 104.623C114.648 106.405 112.347 108.643 109.887 110.627C105.097 111.958 99.5219 112.84 94.6834 113.015C91.4088 111.106 88.5052 108.305 88.9933 105.738L89.1443 95.677L89.1513 94.0265L89.1636 89.6634L89.1869 83.4479C91.3281 82.9255 93.3328 81.9511 95.319 80.9854C101.908 77.7635 108.454 74.4582 114.871 70.9027C115.044 70.8106 115.209 70.7184 115.371 70.6262C116.661 69.9107 117.716 69.2962 118.821 68.2252Z" fill="#FFCFCA"/>
<path d="M89.1465 95.6775C96.5616 93.7637 103.696 90.7964 110.176 86.7405C112.237 85.4544 114.375 84.0761 116.409 82.5925C116.728 79.95 117.197 77.3251 117.666 74.7002C118.051 72.5449 118.436 70.3809 118.821 68.2257C117.58 69.4328 116.395 70.0605 114.873 70.9077C108.457 74.4588 101.91 77.764 95.3203 80.9859C93.3345 81.956 91.3307 82.9261 89.1869 83.4484L89.1465 95.6775Z" fill="#F9BFBB"/>
<path d="M74.5305 76.143C75.9466 80.2121 78.0127 83.9607 81.5936 86.4934C84.7694 88.7364 88.6717 89.9611 92.5555 90.0006C96.8541 90.0445 101.058 88.776 104.831 86.6734C106.708 85.6243 108.48 84.3777 110.101 82.9774C112.933 80.5325 115.358 77.6574 117.48 74.5892C120.926 69.5895 123.8 63.8393 125.395 57.8258C127.209 51.0265 127.395 43.8892 124.95 37.1426C123.961 34.3904 122.507 31.8137 120.669 29.5356C112.925 19.9183 98.8478 17.5699 88.3929 24.1497C82.9469 27.5823 78.7321 32.955 76.3166 38.8852C75.5493 40.7639 74.872 42.6996 74.3005 44.6705C71.3289 54.876 71.0453 66.1131 74.5305 76.143Z" fill="#FFCFCA"/>
<path d="M114.521 72.7947C117.771 75.3362 122.402 75.9946 126.218 74.4144C129.441 73.0844 131.958 70.1874 132.904 66.8426C133.074 66.2324 133.193 65.6135 133.258 64.9771C133.37 63.8665 133.308 62.734 132.987 61.6718C132.179 59.0425 129.658 57.0804 126.932 56.7556C124.2 56.4308 121.378 57.6686 119.615 59.7799L117.656 64.7839L114.521 72.7947Z" fill="#FFCFCA"/>
<path d="M96.3667 58.8397C96.9048 58.8968 97.6962 58.076 97.9706 56.8118C98.1154 56.1446 98.086 55.4686 97.8903 54.9594C97.8227 54.7795 97.6295 54.3625 97.3021 54.2922L97.2512 54.2835C96.713 54.2264 95.922 55.0428 95.6477 56.307C95.5028 56.9742 95.5318 57.6502 95.7276 58.1638C95.7956 58.3393 95.9883 58.7607 96.3162 58.8309L96.3667 58.8397Z" fill="#1F3C49"/>
<path d="M80.2692 56.3949C80.7244 56.4432 81.5299 55.719 81.8086 54.4373C81.9491 53.792 81.9205 53.138 81.7314 52.6419C81.5944 52.282 81.3916 52.0494 81.1744 52.0055L81.1274 51.9967C80.6726 51.9484 79.8667 52.6683 79.588 53.9544C79.4479 54.5997 79.4761 55.2537 79.6653 55.7497C79.8022 56.1096 80.0054 56.3379 80.2223 56.3862L80.2692 56.3949Z" fill="#1F3C49"/>
<path d="M88.2327 59.7708C87.8346 59.2835 87.1301 59.0465 86.4484 59.1343C85.7553 59.2089 85.0956 59.6654 84.7436 60.2755C84.3753 60.8769 84.2923 61.6758 84.5575 62.321C84.8085 62.9619 85.3563 63.4667 85.9757 63.5808C85.5635 63.1199 85.3458 62.6151 85.2795 62.1191C85.2128 61.6319 85.3256 61.171 85.5635 60.7628C85.8054 60.3589 86.1552 60.0385 86.6174 59.8629C87.0814 59.6829 87.6309 59.6303 88.2327 59.7708Z" fill="#1F3C49"/>
<path d="M101.267 48.7135C101.363 48.6828 101.445 48.6125 101.49 48.5116C101.575 48.3228 101.49 48.099 101.3 48.0156C99.9107 47.3923 98.2449 47.3791 96.8437 47.9761C96.6528 48.0595 96.5637 48.2789 96.6458 48.4721C96.7274 48.6608 96.9478 48.7486 97.1396 48.6696C98.352 48.1472 99.7913 48.1648 100.993 48.7003C101.083 48.7442 101.18 48.7442 101.267 48.7135Z" fill="#1F3C49"/>
<path d="M85.0997 46.2465C85.1857 46.2289 85.2652 46.185 85.3227 46.1104C85.4491 45.9436 85.4179 45.7066 85.2529 45.5793C84.1586 44.7409 82.6916 44.3678 81.3291 44.5829C81.1298 44.618 80.9841 44.8067 81.0161 45.013C81.0482 45.2193 81.2409 45.3598 81.4463 45.3247C82.6091 45.1447 83.861 45.4608 84.795 46.1762C84.8855 46.2465 84.9965 46.2684 85.0997 46.2465Z" fill="#1F3C49"/>
<path d="M96.8823 55.104C97.6799 54.9811 97.8691 56.2233 97.0697 56.3418C96.2722 56.4647 96.0835 55.2225 96.8823 55.104Z" fill="white"/>
<path d="M80.5308 52.6333C81.3288 52.5104 81.5175 53.7482 80.7182 53.8711C79.9206 53.994 79.7319 52.7518 80.5308 52.6333Z" fill="white"/>
<path d="M79.4046 65.7576C79.3198 67.3905 79.6885 68.9225 80.3864 70.2086C81.5031 72.276 83.4679 73.6894 85.7666 73.8079C88.122 73.9308 90.2663 72.6667 91.5801 70.6475C92.357 69.4667 92.846 68.027 92.9272 66.4556C92.9303 66.4029 92.9254 66.3458 92.9285 66.2844L79.4212 65.5821C79.4182 65.6435 79.4076 65.7006 79.4046 65.7576Z" fill="#D55454"/>
<path d="M79.9688 65.6137C81.3993 67.2949 83.5673 68.423 86.0385 68.5503C88.5102 68.6776 90.7827 67.7821 92.3796 66.2546L79.9688 65.6137Z" fill="white"/>
<path d="M80.3867 70.2086C81.5034 72.276 83.4681 73.6894 85.7669 73.8079C88.1223 73.9308 90.2666 72.6667 91.5804 70.6475C89.3005 70.0198 86.928 69.7213 84.5642 69.7652C83.1613 69.796 81.7637 69.9452 80.3867 70.2086Z" fill="#F37C7C"/>
<path d="M95.3422 64.3059C95.1218 66.3602 97.2002 68.2652 99.9849 68.5637C102.769 68.8622 105.205 67.44 105.426 65.3901C105.646 63.3402 103.568 61.4352 100.783 61.1367C97.9987 60.8382 95.5625 62.256 95.3422 64.3059Z" fill="#F9BFBB"/>
<path d="M73.7433 59.2476C73.5941 60.6303 74.9978 61.9164 76.8783 62.1184C78.7587 62.3247 80.4039 61.3634 80.5527 59.9807C80.7015 58.5936 79.2978 57.3075 77.4173 57.1056C75.5373 56.9037 73.8921 57.8606 73.7433 59.2476Z" fill="#F9BFBB"/>
<path d="M73.6959 28.899C73.1972 23.737 81.1729 18.1097 96.0229 15.5155C107.5 13.5095 122.78 17.4381 130.676 25.9054C135.325 30.8962 138.135 37.6823 137.542 44.508C137.059 50.0914 134.606 55.5782 132.345 60.67C130.705 57.4745 126.129 56.2279 122.631 57.3603C120.589 58.0188 118.917 59.3356 117.589 60.9597C117.537 54.4501 115.89 48.1556 115.893 41.6373C115.871 41.7689 105.111 40.3204 104.348 40.2238C98.1228 39.4206 91.9438 38.6305 85.9004 36.8834C83.3242 36.1372 80.7866 35.2681 78.3004 34.2761C76.4779 33.5475 73.8442 30.4353 73.6959 28.899Z" fill="#32334C"/>
<path d="M102.866 61.7063C101.804 62.6588 100.437 63.2953 98.9064 63.4445C97.8204 63.5499 96.7679 63.3962 95.8074 63.0319C93.409 62.1321 91.5971 59.9285 91.3341 57.2071C90.9663 53.397 93.7668 49.9996 97.5724 49.6352C101.382 49.2665 104.777 52.0626 105.145 55.8727C105.365 58.1508 104.452 60.2841 102.866 61.7063ZM90.7604 54.7139L88.1197 54.3144C88.128 54.2398 88.1443 54.1696 88.153 54.0993L90.8227 54.4768C90.7995 54.5558 90.7797 54.6349 90.7604 54.7139ZM81.1615 60.1261C80.9464 60.1436 80.7344 60.1524 80.5215 60.1568C79.9917 60.1612 79.4711 60.0997 78.9681 59.9812C77.4085 59.6345 76.0298 58.7478 75.0549 57.5143C74.2525 56.5048 73.7222 55.2625 73.5892 53.8843C73.5304 53.2785 73.551 52.6903 73.6467 52.1153L73.6463 52.1109C74.1392 49.0734 76.628 46.6241 79.8275 46.3124C83.6372 45.9437 87.032 48.7442 87.3998 52.5499C87.7677 56.3599 84.9707 59.7574 81.1615 60.1261ZM126.77 56.3555L125.766 56.338L117.307 56.1931L112.401 56.1097L105.924 56.0044C105.918 55.9341 105.919 55.8683 105.912 55.7981C105.503 51.5666 101.73 48.4589 97.4982 48.8671C94.5174 49.1524 92.0975 51.1189 91.0686 53.735L88.2027 53.3268C88.2062 53.0415 88.1948 52.7605 88.1671 52.4796C87.7584 48.2482 83.9848 45.136 79.7534 45.5443C77.2408 45.7901 75.1264 47.2298 73.907 49.2402L73.7551 48.2218C73.7314 48.0594 73.6116 47.9453 73.461 47.9058C73.4136 47.897 73.3632 47.8926 73.3131 47.897C73.1033 47.9321 72.9593 48.1253 72.9918 48.3403L73.1437 49.3499L73.3114 50.4473C73.2868 50.5131 73.2627 50.5834 73.2381 50.6492C72.8729 51.6807 72.71 52.8 72.8219 53.9589C72.9685 55.4732 73.5458 56.8428 74.4202 57.9621C75.7853 59.7003 77.8725 60.8284 80.1813 60.9206L80.2902 60.925C80.6005 60.9337 80.917 60.9206 81.2357 60.8899C84.573 60.5694 87.2049 58.1508 87.9678 55.0694L90.6129 55.4689C90.5304 56.0614 90.5071 56.6628 90.5668 57.2773C90.8561 60.2753 92.8335 62.7115 95.4685 63.7298C95.7183 63.8308 95.9742 63.9142 96.2363 63.9844C97.1071 64.2171 98.0329 64.3005 98.9806 64.2127C100.776 64.0371 102.365 63.2558 103.574 62.097C103.62 62.0575 103.666 62.0092 103.712 61.9609C105.049 60.6089 105.878 58.7697 105.941 56.7725L111.595 56.8691L117.378 56.9657L123.684 57.0754H123.82L125.581 57.1061L126.756 57.1237H126.802C126.844 57.1193 126.886 57.1061 126.923 57.0886C127.042 57.0359 127.127 56.9218 127.145 56.7813L127.149 56.7418C127.152 56.5355 126.984 56.3555 126.77 56.3555Z" fill="black"/>
<path d="M119.937 106.155C119.693 108.828 114.597 110.992 108.182 112.295C103.312 113.287 97.6885 113.779 92.8496 113.621C88.3806 113.476 84.5872 112.778 82.6804 111.4C80.8044 110.044 81.4312 93.7016 88.0018 94.2942C88.1488 94.3074 88.3644 94.3074 88.6457 94.2942C90.3752 94.2371 94.4798 93.7455 99.1528 93.1924C104.952 92.4989 111.624 91.7088 115.698 91.5113C117.754 91.4103 119.151 91.4586 119.448 91.7483C121.531 93.7762 120.338 101.726 119.937 106.155Z" fill="#20CE86"/>
</g>
<defs>
<clipPath id="clip0_1065_49908">
<rect width="200" height="200" fill="white"/>
</clipPath>
</defs>
</svg>
