<svg width="200" height="200" viewBox="0 0 200 200" fill="none" xmlns="http://www.w3.org/2000/svg">
<g clip-path="url(#clip0_1065_49904)">
<rect width="200" height="200" fill="#EBFEF4"/>
<path d="M-109.31 259.331C-104.459 255.279 -99.609 251.228 -94.7586 247.176C-90.1102 243.287 -86.0762 239.956 -80.9537 236.69C-78.8512 235.351 -76.0419 233.631 -73.8033 232.38C-62.259 224.847 -50.7146 217.319 -39.1659 209.791C-31.8618 205.029 -24.5578 200.262 -17.2537 195.499C-12.456 192.369 -7.64511 189.231 -3.27758 185.526C2.13903 180.935 33.1594 134.652 36.5042 130.631C38.5102 133.234 51.3406 143.901 54.1631 165.045C43.1279 175.237 17.5022 202.852 4.83416 210.893C-17.798 225.255 -43.6344 232.248 -67.838 243.77C-68.7115 244.187 -69.6069 246.378 -70.1293 247.229C-71.8192 249.994 -73.1142 252.971 -74.9972 255.622C-76.8979 258.299 -79.0926 260.771 -81.5288 262.979C-82.6305 263.975 -84.4302 264.467 -85.0974 262.68C-85.172 262.548 -85.2335 262.404 -85.273 262.237C-85.8041 260.24 -84.834 258.418 -83.8332 256.759C-82.6964 254.862 -81.8009 252.966 -81.6868 250.723C-81.656 250.117 -81.8009 249.455 -82.2706 249.068C-82.5515 248.831 -82.9246 248.735 -83.2889 248.669C-84.5224 248.463 -85.6549 248.686 -86.7171 249.139C-87.279 249.376 -87.8189 249.678 -88.3412 250.016C-88.846 250.332 -89.3288 250.679 -89.8073 251.035C-90.4043 251.478 -90.9793 251.93 -91.5587 252.347C-91.6728 252.431 -91.7913 252.514 -91.9055 252.593C-92.0108 252.668 -92.1206 252.742 -92.2259 252.817C-92.9151 253.3 -93.6042 253.778 -94.2934 254.257C-95.5487 255.135 -96.7998 256.008 -98.0551 256.882C-99.1481 257.645 -100.245 258.409 -101.338 259.173C-103.252 260.503 -105.35 262.022 -107.708 262.425C-109.472 262.728 -110.903 260.665 -109.31 259.331Z" fill="#FFCFCA"/>
<path d="M84.8673 58.4112C83.9016 56.3789 83.151 54.2061 82.6462 51.9148C79.0337 35.5376 89.3797 19.3317 105.757 15.7192C122.134 12.1066 138.34 22.457 141.952 38.8341C142.058 39.3082 142.15 39.7823 142.233 40.2563C147.628 42.9208 151.811 47.9204 153.207 54.2544C153.611 56.076 153.751 57.8976 153.668 59.6754C159.769 62.1159 164.598 67.436 166.116 74.3362C168.566 85.4196 161.56 96.389 150.477 98.8339C148.633 99.2377 146.794 99.3782 144.994 99.286C142.387 101.735 139.108 103.539 135.364 104.365C130.781 105.374 126.225 104.768 122.274 102.929C119.908 104.812 117.086 106.199 113.934 106.893C105.542 108.745 97.2193 105.177 92.6103 98.5222C82.5101 99.3694 73.0947 92.6403 70.8517 82.4743C68.5297 71.944 74.7364 61.5233 84.8673 58.4112Z" fill="#AC1B35"/>
<path d="M120.912 100.586C118.129 99.1109 115.68 97.0873 112.87 95.6695C112.629 95.6256 112.388 95.5861 112.133 95.5642C107.678 95.1998 103.24 94.5414 98.7671 94.2912C97.38 94.2166 95.971 94.2254 94.5883 94.401C90.0452 97.1049 85.3792 99.5893 80.3182 100.84C78.2551 101.349 75.7048 101.907 73.0624 102.179C71.131 103.044 70.1258 104.497 71.1442 107.148C72.123 109.703 73.9973 112.007 75.8629 114.026C76.4335 114.645 77.0305 115.238 77.6494 115.808C86.1518 123.573 101.225 127.638 112.212 122.59C117.875 119.992 122.65 115.58 126.179 110.717C127.286 109.193 128.076 107.495 128.914 105.831C128.98 105.699 129.12 105.383 129.305 104.984C126.495 103.544 123.699 102.069 120.912 100.586Z" fill="#FFCFCA"/>
<path d="M91.793 103.433C93.3512 104.64 95.344 105.092 97.2666 105.505C99.5843 106.01 101.906 106.51 104.272 106.673C108.881 106.984 113.218 105.808 117.73 104.82C117.941 102.165 118.161 99.5135 118.376 96.8578C118.639 93.5394 118.911 90.2122 119.513 86.9332C119.697 85.9324 119.903 84.9316 120.145 83.9396C120.724 81.4683 121.444 79.0322 122.164 76.5872C122.752 74.5856 123.345 72.5752 123.937 70.5692C122.633 71.5832 121.444 72.0573 119.912 72.6981C113.455 75.3977 106.902 77.847 100.313 80.2129C98.3333 80.924 96.3273 81.6351 94.2423 81.9073L92.9254 93.4999L91.793 103.433Z" fill="#FFCFCA"/>
<path d="M92.9258 93.5011C100.155 92.4608 107.231 90.3934 113.802 87.2242C115.891 86.219 118.06 85.1347 120.145 83.9408C120.724 81.4695 121.444 79.0334 122.164 76.5884C122.752 74.5868 123.345 72.5765 123.937 70.5705C122.634 71.5844 121.444 72.0585 119.912 72.6994C113.455 75.3989 106.902 77.8482 100.313 80.2142C98.3336 80.9252 96.3276 81.6363 94.2426 81.9085L92.9258 93.5011Z" fill="#F9BFBB"/>
<path d="M81.1096 73.4493C82.027 77.4569 83.5941 81.2274 86.7238 84.0016C89.5023 86.4597 93.0753 88.0311 96.7537 88.4745C100.823 88.9661 104.944 88.2023 108.741 86.6045C110.629 85.8057 112.442 84.8049 114.127 83.6504C117.068 81.6269 119.667 79.1556 122.002 76.4649C125.79 72.0842 129.117 66.9309 131.259 61.3958C133.691 55.1408 134.613 48.3942 132.998 41.7397C132.348 39.027 131.237 36.4284 129.736 34.0757C123.398 24.1467 110.291 20.4464 99.6903 25.5952C94.1683 28.2816 89.6076 32.9344 86.6974 38.3028C85.7756 40.0059 84.9285 41.7704 84.1822 43.5789C80.2976 52.946 78.8534 63.573 81.1096 73.4493Z" fill="#FFCFCA"/>
<path d="M119.381 74.4546C122.199 77.2025 126.518 78.313 130.302 77.2156C133.497 76.2895 136.188 73.805 137.435 70.7324C137.663 70.1705 137.839 69.5955 137.966 68.9985C138.19 67.9626 138.247 66.8784 138.054 65.8381C137.562 63.2615 135.38 61.137 132.826 60.5444C130.271 59.9474 127.466 60.8297 125.574 62.6426L123.191 67.1857L119.381 74.4546Z" fill="#FFCFCA"/>
<path d="M88.6281 30.3231C89.6728 29.4891 90.7263 28.6639 91.8061 27.8694C91.9378 27.7684 92.0826 27.6762 92.2187 27.5797C92.2669 27.5446 92.3196 27.5094 92.3723 27.4699L92.3899 27.4568C92.9078 27.1188 93.4214 26.7764 93.9481 26.456C95.0235 25.7976 96.1341 25.1918 97.2885 24.6826C97.486 24.5948 97.7582 24.5246 97.9733 24.4193C98.3903 24.3007 98.8073 24.191 99.2287 24.0944C100.787 21.2369 103.522 19.0422 106.95 18.2828C109.961 17.62 112.955 18.1862 115.408 19.6435C116.431 18.9632 117.59 18.4496 118.863 18.1687C124.323 16.9659 129.722 20.4161 130.925 25.8722C131.004 26.2189 131.061 26.5613 131.101 26.9037C134.147 28.4225 136.508 31.2493 137.303 34.8355C137.913 37.6096 137.479 40.3662 136.267 42.7058C139.278 43.7154 141.701 46.235 142.434 49.5622C143.549 54.6101 140.358 59.6009 135.315 60.7158C130.267 61.8264 125.276 58.6396 124.165 53.5961C123.805 51.9808 123.893 50.3742 124.336 48.895C119.727 48.2629 115.773 44.8874 114.605 40.1292C113.784 40.5286 112.906 40.8447 111.971 41.051C107.555 42.021 103.179 40.3531 100.48 37.0917C99.1716 38.312 97.53 39.2074 95.6556 39.6244C90.8711 40.6779 86.1349 38.2417 84.0938 34.0147C85.595 32.7724 87.1005 31.5346 88.6281 30.3231Z" fill="#AC1B35"/>
<path d="M78.7659 110.238L78.8405 110.225C78.4674 110.33 78.0943 110.427 77.7168 110.515C77.9626 110.436 78.4762 110.291 78.7659 110.238Z" fill="#FFCFCA"/>
<path d="M103.231 59.025C103.745 59.0865 104.504 58.3096 104.776 57.1069C104.921 56.4704 104.899 55.8251 104.715 55.3379C104.649 55.1667 104.469 54.7673 104.157 54.697L104.109 54.6883C103.596 54.6268 102.836 55.4037 102.564 56.6065C102.419 57.2429 102.445 57.8882 102.625 58.3754C102.691 58.5466 102.871 58.946 103.183 59.0163L103.231 59.025Z" fill="#1F3C49"/>
<path d="M87.8958 56.571C88.3259 56.6193 89.1029 55.9345 89.3794 54.7143C89.5155 54.0997 89.4936 53.472 89.318 52.998C89.1907 52.66 88.9975 52.4361 88.7912 52.3878L88.7473 52.3791C88.3128 52.3308 87.5402 53.0112 87.2637 54.2358C87.1232 54.8503 87.1452 55.478 87.3208 55.9521C87.4525 56.2901 87.6412 56.514 87.8475 56.5622L87.8958 56.571Z" fill="#1F3C49"/>
<path d="M95.4624 59.8549C95.0849 59.3852 94.4177 59.1526 93.768 59.2316C93.1052 59.2974 92.4731 59.7276 92.1307 60.307C91.7752 60.882 91.6874 61.6414 91.9376 62.2603C92.1703 62.8704 92.6882 63.3577 93.2808 63.4718C92.8901 63.0285 92.6882 62.5412 92.6268 62.0716C92.5653 61.6019 92.6794 61.1673 92.9077 60.781C93.1447 60.3948 93.4783 60.0919 93.9217 59.9251C94.365 59.7583 94.8917 59.7144 95.4624 59.8549Z" fill="#1F3C49"/>
<path d="M107.744 50.0701C107.841 50.0745 107.937 50.035 108.008 49.9604C108.148 49.8199 108.139 49.5917 107.999 49.4556C106.95 48.4504 105.453 47.9061 104.004 47.9939C103.807 48.0071 103.658 48.1739 103.671 48.3714C103.68 48.5733 103.851 48.7225 104.048 48.7094C105.304 48.6304 106.594 49.1044 107.503 49.9735C107.569 50.0394 107.656 50.0701 107.744 50.0701Z" fill="#1F3C49"/>
<path d="M92.3116 47.1648C92.3906 47.1385 92.4653 47.0902 92.5135 47.0112C92.6189 46.8444 92.5706 46.6249 92.4038 46.5152C91.302 45.8041 89.8755 45.5627 88.5981 45.87C88.4094 45.9182 88.2865 46.1114 88.3347 46.3045C88.3786 46.4976 88.5718 46.6162 88.765 46.5679C89.8579 46.3045 91.0738 46.5108 92.0175 47.121C92.1053 47.178 92.2151 47.1912 92.3116 47.1648Z" fill="#1F3C49"/>
<path d="M103.75 55.465C104.514 55.3597 104.685 56.5404 103.922 56.6502C103.158 56.7599 102.991 55.5748 103.75 55.465Z" fill="white"/>
<path d="M88.1721 52.9807C88.9359 52.8709 89.1027 54.0561 88.3433 54.1658C87.5795 54.2756 87.4083 53.0904 88.1721 52.9807Z" fill="white"/>
<path d="M86.9954 65.4951C86.9032 67.0533 87.2412 68.5194 87.8953 69.7529C88.9487 71.7281 90.8099 73.0932 93.0003 73.2249C95.2477 73.361 97.3019 72.1715 98.5705 70.2533C99.3211 69.1339 99.7996 67.7644 99.8917 66.2676C99.8917 66.2149 99.8873 66.1579 99.8917 66.1052L87.013 65.3283C87.0086 65.3853 86.9998 65.4424 86.9954 65.4951Z" fill="#D55454"/>
<path d="M87.5352 65.3632C88.8871 66.9786 90.9458 68.0671 93.3029 68.2076C95.66 68.3524 97.8328 67.5141 99.3692 66.0699L87.5352 65.3632Z" fill="white"/>
<path d="M87.8965 69.7529C88.95 71.7281 90.8111 73.0932 93.0015 73.2249C95.2489 73.361 97.3031 72.1715 98.5717 70.2533C96.4033 69.6387 94.1427 69.3358 91.8865 69.3622C90.5477 69.3797 89.2133 69.5114 87.8965 69.7529Z" fill="#F37C7C"/>
<path d="M102.209 64.2348C101.985 66.1881 103.951 68.0229 106.607 68.3301C109.258 68.6374 111.593 67.303 111.822 65.3453C112.05 63.392 110.079 61.5572 107.423 61.2499C104.772 60.9427 102.437 62.2815 102.209 64.2348Z" fill="#F9BFBB"/>
<path d="M81.6449 59.2395C81.4913 60.5608 82.8213 61.7986 84.6122 62.0049C86.4075 62.2112 87.9833 61.3113 88.1369 59.9901C88.2861 58.6733 86.9606 57.431 85.1653 57.2247C83.3744 57.0184 81.7985 57.9183 81.6449 59.2395Z" fill="#F9BFBB"/>
<path d="M161.642 310.819C161.537 306.013 159.896 294.75 160.62 286.181C163.649 263.795 175.772 226.493 175.136 210.322C174.526 194.753 168.056 180.066 164.219 164.966C162.06 156.459 160.593 147.759 157.635 139.498C156.858 137.321 155.971 135.183 154.953 133.107C151.7 126.492 147.153 121.335 141.346 116.835C136.517 113.096 131.158 110.045 125.478 107.815L122.317 130.772C122.374 130.741 122.427 130.719 122.48 130.689C121.417 137.303 123.862 143.932 126.334 150.16C133.405 167.964 141.043 185.539 149.242 202.852C150.577 205.665 151.937 208.518 152.411 211.595C152.78 214.001 152.587 216.455 152.394 218.882C150.581 241.795 149.115 261.346 148.36 284.496C147.706 286.278 145.23 291.62 144.12 295.364C143.453 297.616 142.79 299.868 142.373 302.177C141.727 305.802 142.504 309.472 142.518 313.137C142.522 313.905 142.509 314.682 142.684 315.428C143.501 318.914 147.157 317.175 148.162 314.792C148.255 314.568 148.338 314.335 148.395 314.107C148.478 313.817 148.531 313.519 148.571 313.221C148.711 312.123 148.615 310.973 148.593 309.876C148.579 309.055 148.593 308.225 148.777 307.422C148.935 306.746 149.032 305.815 149.791 305.543C150.489 305.293 151.503 305.64 152.087 306.022C152.785 306.478 153.263 307.163 153.614 307.927C153.689 308.085 153.755 308.238 153.816 308.401C153.987 308.818 154.128 309.257 154.255 309.683C154.725 311.223 155.093 312.782 155.524 314.327C156.125 316.473 156.419 318.562 155.998 320.77C155.563 323.013 154.646 325.125 153.851 327.262C153.004 329.554 151.722 332.626 152.973 334.979C153.553 336.063 155.107 336.024 155.892 335.207C156.327 334.751 156.573 334.149 156.81 333.57C158.328 329.843 159.917 326.143 160.892 322.223C161.809 318.527 161.717 314.603 161.642 310.819Z" fill="#FFCFCA"/>
<path d="M167.788 162.787C153.97 173.221 146.715 178.888 136.948 183.084L136.926 183.141C136.026 185.876 135.109 188.712 134.178 191.609C133.928 192.399 133.669 193.202 133.415 194.001C132.348 197.355 131.272 200.783 130.21 204.246C117.042 208.271 66.5848 216.361 59.9654 217.243C59.2938 213.596 58.6398 210.084 57.9858 206.169C56.5417 197.521 55.0887 186.925 53.4295 168.647C53.3988 168.713 53.3637 168.783 53.3285 168.862C52.714 170.122 51.485 172.769 49.3868 177.044C49.1103 177.611 48.8162 178.203 48.5089 178.827C42.5129 173.436 21.0527 149.026 21.0527 149.026C21.0527 149.026 35.5687 123.752 47.1218 115.179C61.5544 104.469 82.1279 99.421 82.1279 99.421C82.1279 99.421 87.1626 104.697 88.6858 105.847C93.1279 109.21 97.8027 110.992 103.364 111.338C111.546 111.852 120.167 108.051 124.982 101.098C143.712 108.727 157.126 117.716 167.788 162.787Z" fill="#20CE86"/>
<path d="M49.3859 177.046C51.4841 172.771 52.7131 170.124 53.3276 168.864C52.9896 165.01 53.1564 161.108 53.8324 157.285C51.4709 161.038 49.7327 165.172 49.1445 169.474C48.7977 171.989 48.8592 174.566 49.3859 177.046Z" fill="#149C64"/>
<path d="M136.926 183.143C136.026 185.878 135.109 188.713 134.178 191.61C129.139 183.306 127.282 173.153 128.876 163.527C130.201 170.519 132.958 177.235 136.926 183.143Z" fill="#149C64"/>
</g>
<defs>
<clipPath id="clip0_1065_49904">
<rect width="200" height="200" fill="white"/>
</clipPath>
</defs>
</svg>
