<svg width="200" height="200" viewBox="0 0 200 200" fill="none" xmlns="http://www.w3.org/2000/svg">
<g clip-path="url(#clip0_1065_49903)">
<rect width="200" height="200" fill="#EBFEF4"/>
<path d="M241.591 324.031C239.151 317.917 236.706 311.802 234.265 305.683C231.921 299.819 229.876 294.762 226.794 289.236C225.526 286.967 223.801 283.995 222.365 281.739C215.504 269.119 208.644 256.499 201.779 243.88C197.437 235.895 193.096 227.911 188.755 219.926C185.902 214.681 183.044 209.418 180.871 203.861C178.181 196.969 176.574 189.709 175.121 182.453C174.046 177.12 173.045 171.756 171.97 166.414C168.84 167.806 165.715 169.21 162.607 170.659C155.944 173.766 149.316 177.006 142.617 180.065C147.691 194.88 153.235 209.466 160.877 223.109C174.524 247.488 194.76 266.687 211.255 289.236C211.852 290.052 211.589 292.502 211.646 293.542C211.826 296.918 211.545 300.284 211.958 303.647C212.375 307.048 213.165 310.402 214.306 313.628C214.824 315.09 216.233 316.433 217.725 315.121C217.862 315.037 217.989 314.936 218.107 314.8C219.587 313.233 219.595 311.087 219.499 309.068C219.393 306.763 219.512 304.582 220.517 302.47C220.789 301.9 221.25 301.36 221.869 301.241C222.247 301.162 222.637 301.259 223.006 301.377C224.235 301.799 225.166 302.562 225.916 303.506C226.311 303.998 226.662 304.542 226.974 305.113C227.277 305.653 227.549 306.21 227.813 306.772C228.137 307.474 228.445 308.177 228.769 308.839C228.831 308.98 228.897 309.112 228.967 309.243C229.024 309.362 229.09 309.485 229.147 309.608C229.542 310.389 229.937 311.166 230.332 311.952C231.048 313.374 231.763 314.796 232.483 316.222C233.106 317.46 233.734 318.703 234.357 319.945C235.455 322.113 236.627 324.545 238.589 326.081C240.055 327.231 242.394 326.051 241.591 324.031Z" fill="#FFCFCA"/>
<path d="M58.5015 128.652C36.6068 128.648 15.6382 197.791 15.1027 198.686C14.6462 199.454 -28.9105 263.584 -29.0378 263.738C-29.0378 263.738 -43.8216 278.614 -47.4341 283.087C-49.8703 286.12 -52.4161 289.254 -53.9744 292.836C-55.6249 296.628 -56.6345 300.627 -57.7143 304.608C-57.8855 305.232 -58.0567 305.873 -57.982 306.513C-57.8416 307.668 -56.573 308.673 -55.4142 308.146C-52.899 307.018 -52.0343 303.722 -51.2968 301.325C-50.6121 299.091 -50.0502 296.804 -48.9967 294.71C-47.9652 292.647 -46.407 291.133 -44.559 289.763C-43.229 288.771 -41.9472 287.74 -40.5865 286.778C-40.0729 286.41 -39.5287 286.041 -38.958 285.751C-38.1855 285.352 -37.3603 285.088 -36.4912 285.154C-35.7669 285.211 -34.7134 285.558 -34.2876 286.199C-33.8223 286.892 -34.3315 287.713 -34.6212 288.359C-34.9767 289.127 -35.486 289.807 -36.0127 290.47C-36.9126 291.589 -37.9616 292.695 -38.5059 294.034C-38.6025 294.262 -38.6815 294.495 -38.7429 294.736C-39.4057 297.3 -37.4656 301 -34.5993 298.678C-33.9803 298.182 -33.5019 297.541 -33.019 296.918C-30.7102 293.946 -27.7561 291.449 -26.0223 288.091C-24.9118 285.953 -24.047 283.706 -23.1911 281.463C-21.5845 277.275 -20.891 274.751 -20.5837 272.745L-20.5793 272.736L-20.531 272.657C-20.1886 272.39 19.4703 236.835 42.8398 204.976C48.3179 197.51 61.7409 168.14 68.2373 146.824C69.5761 142.43 62.5881 132.892 58.5015 128.652Z" fill="#FFCFCA"/>
<path d="M90.0714 79.3577C96.6908 82.7376 103.433 85.8673 110.219 88.9092C112.26 89.8222 114.323 90.7396 116.514 91.1961L116.966 103.583L117.356 114.197C116.957 114.46 116.531 114.68 116.092 114.864C114.086 119.956 109.131 123.56 103.323 123.56C97.077 123.56 91.8097 119.385 90.1505 113.675C90.0232 113.635 89.9002 113.596 89.7729 113.56C89.7729 113.025 89.7685 112.489 89.7685 111.954C89.6588 111.265 89.6018 110.558 89.6018 109.838C89.6018 109.162 89.6544 108.499 89.751 107.845C89.7466 106.924 89.7422 105.997 89.7378 105.071C89.7247 101.533 89.7071 97.991 89.3384 94.4707C89.2243 93.3908 89.0838 92.3154 88.9082 91.2444C88.4956 88.58 87.9338 85.9375 87.3719 83.2951C86.9066 81.1223 86.4458 78.9451 85.9805 76.7767C87.2798 77.9575 88.5 78.5544 90.0714 79.3577Z" fill="#FFCFCA"/>
<path d="M130.187 58.0393C129.485 66.647 125.727 75.0134 119.582 81.0796C116.769 83.8538 113.459 86.1582 109.78 87.5892C105.738 89.1606 101.331 89.6523 97.0027 89.4284C94.4436 89.2923 91.867 88.9061 89.523 87.8877C86.7093 86.663 84.3566 84.5912 82.1663 82.4448C78.422 78.7708 74.9719 74.75 72.4084 70.1718C69.8494 65.598 68.2033 60.4359 68.2208 55.1905C68.2252 53.4128 68.4272 51.6043 69.1163 49.9626C70.0337 47.7767 71.7413 46.0297 73.4927 44.4363C79.2824 39.1601 86.0729 34.8409 93.6184 32.7471C101.423 30.5831 109.666 30.8728 117.756 31.1845C119.806 31.2591 121.676 31.6629 123.322 32.949C124.665 33.9981 125.403 35.7759 126.14 37.2727C128.168 41.3988 129.502 45.8717 130.042 50.4411C130.341 52.9607 130.393 55.5109 130.187 58.0393Z" fill="#534741"/>
<path d="M116.966 103.585C109.394 101.895 102.063 99.1298 95.3651 95.2407C93.2318 94.0073 91.0196 92.6816 88.9082 91.2463C88.4956 88.5819 87.9338 85.9394 87.3719 83.2969C86.9066 81.1242 86.4458 78.947 85.9805 76.7786C87.2798 77.9593 88.5 78.5563 90.0714 79.3596C96.6908 82.7395 103.433 85.8692 110.219 88.9111C112.26 89.8241 114.323 90.7415 116.514 91.198L116.966 103.585Z" fill="#F9BFBB"/>
<path d="M129.283 53.9866C128.809 52.0728 128.229 50.1853 127.558 48.3505C125.446 42.5608 121.531 37.2319 116.321 33.7072C106.308 26.9474 92.3234 28.6022 84.2511 37.4997C82.3373 39.6066 80.7834 42.0209 79.6861 44.615C76.969 50.9842 76.8241 57.8361 78.3078 64.4335C79.607 70.2715 82.1793 75.9076 85.3485 80.8501C87.3018 83.8833 89.5624 86.7452 92.2443 89.2121C93.7763 90.6211 95.4706 91.8985 97.2747 92.9783C100.896 95.1555 104.983 96.5557 109.223 96.6962C113.055 96.8191 116.957 95.8095 120.192 93.7947C123.84 91.5166 126.043 88.0138 127.628 84.1686C131.517 74.6917 131.75 63.9024 129.283 53.9866Z" fill="#FFCFCA"/>
<path d="M87.1071 78.8269C83.4639 80.6486 78.8549 80.3852 75.4707 78.107C72.6131 76.1888 70.7476 72.8968 70.4842 69.473C70.4403 68.8497 70.4447 68.2263 70.5062 67.5986C70.6159 66.5057 70.8968 65.4215 71.4148 64.4558C72.714 62.0723 75.5365 60.6677 78.236 60.8828C80.9443 61.1066 83.4331 62.8536 84.7236 65.2415L85.641 70.465L87.1071 78.8269Z" fill="#FFCFCA"/>
<path d="M98.5248 46.7667C104.639 45.6167 110.767 44.2516 116.557 42.0832C121.262 40.3274 126.468 36.9431 127.728 31.8557C129.304 25.4866 123.953 20.6054 118.624 18.1078C108.226 13.2355 95.3689 14.0959 85.8744 20.6625C80.111 24.6438 75.7742 30.574 73.7814 37.1889C72.6401 40.9858 72.1661 46.7272 76.6346 48.4874C81.8273 50.5373 88.2491 48.6147 93.5208 47.6797C95.1801 47.3813 96.8525 47.0828 98.5248 46.7667Z" fill="#534741"/>
<path d="M63.4149 48.1005C63.946 44.1631 65.6843 40.5243 68.893 38.4832C73.5502 35.5203 80.5997 36.3543 83.4309 41.4241C85.2788 44.7338 85.3096 48.9521 84.8048 52.6173C84.5722 54.3292 84.12 56.041 83.2026 57.5247C82.5881 58.5211 80.5075 61.0933 79.1204 60.8914C78.6552 60.8212 78.1723 60.7597 77.7729 60.729C77.6939 60.7202 77.6149 60.7158 77.5359 60.7158C76.1137 60.7202 74.7881 61.0802 73.559 61.7913C72.6416 62.2873 71.9041 62.9632 71.3511 63.8192C69.6041 65.7286 66.9747 62.4321 66.0485 61.0407C63.8099 57.6695 62.7916 52.6831 63.4149 48.1005Z" fill="#534741"/>
<path d="M154.386 191.184C154.329 191.206 154.276 191.237 154.219 191.259C155.896 219.268 156.875 275.124 159.017 298.704C126.328 296.689 77.9389 298.524 49.1966 295.03C48.4197 280.659 49.1878 246.676 53.1471 201.706C53.5334 197.29 53.9811 192.755 54.4947 188.12C54.5122 187.975 54.5254 187.835 54.5429 187.686L54.4814 187.646C50.2237 184.736 45.4743 182.12 40.7117 179.548C34.0792 175.966 27.4248 172.476 22.0082 168.416C21.5341 168.056 28.2983 156.446 28.5924 155.836C37.8191 136.618 53.7529 116.251 75.6871 111.55C76.9776 111.274 89.5929 109.838 89.6148 109.268C89.6104 109.456 89.6061 109.645 89.6061 109.838C89.6061 117.419 95.7469 123.56 103.328 123.56C110.904 123.56 117.045 117.419 117.045 109.838C117.045 109.654 117.04 109.47 117.031 109.29C128.536 111.629 139.514 116.822 148.421 124.398C156.515 131.281 162.954 140.033 167.203 149.761C167.993 151.56 168.722 153.386 169.411 155.23C172.26 162.894 174.477 170.773 176.864 178.582C173.994 180.702 170.829 182.743 167.488 184.67C163.323 187.071 158.876 189.283 154.386 191.184Z" fill="#20CE86"/>
<path d="M154.027 165.44C154.532 174.013 153.921 182.616 154.387 191.185C158.877 189.28 163.319 187.072 167.489 184.671C165.475 182.564 163.728 180.193 162.314 177.63C158.934 171.502 157.538 164.519 155.673 157.776C153.803 151.03 151.384 144.604 146.332 139.753C151.582 147.141 153.491 156.402 154.027 165.44Z" fill="#149C64"/>
<path d="M102.095 52.5648C102.639 52.5077 103.184 52.5516 103.728 52.5955C104.685 52.6745 105.646 52.7535 106.608 52.8326C106.924 52.8589 107.323 52.8413 107.463 52.5516C107.529 52.4112 107.507 52.24 107.446 52.0951C107.213 51.5376 106.533 51.3533 105.936 51.2743C104.461 51.0899 102.898 51.1909 101.516 51.7747C101.244 51.8888 99.6986 52.5955 99.8083 52.9598C99.9049 53.2803 101.788 52.5955 102.095 52.5648Z" fill="#211A17"/>
<path d="M123.037 51.915C122.492 51.8974 121.952 51.9808 121.412 52.0642C120.46 52.2135 119.507 52.3627 118.559 52.5119C118.243 52.5602 117.844 52.5734 117.686 52.2968C117.607 52.1564 117.616 51.9852 117.664 51.836C117.857 51.2653 118.524 51.0283 119.112 50.9098C120.57 50.6157 122.137 50.6025 123.559 51.0854C123.835 51.1775 125.433 51.7701 125.35 52.1388C125.275 52.468 123.348 51.9238 123.037 51.915Z" fill="#211A17"/>
<path d="M121.329 77.1631C120.254 79.9635 118.274 81.8949 115.873 82.0925C113.56 82.2856 111.365 80.8239 109.846 78.4009C108.806 76.7373 108.082 74.626 107.854 72.2776L108.306 72.2381L121.676 71.1363L122.172 71.0968C122.326 73.3179 122.005 75.4117 121.329 77.1631Z" fill="#CE7872"/>
<path d="M121.675 71.1362C120.191 73.3836 117.918 74.898 115.271 75.1175C112.624 75.3369 110.139 74.2132 108.305 72.238L121.675 71.1362Z" fill="white"/>
<path d="M121.329 77.1631C120.253 79.9635 118.274 81.8949 115.872 82.0925C113.559 82.2856 111.364 80.8239 109.846 78.4009C110.5 77.9707 111.18 77.5932 111.896 77.2772C113.954 76.3598 116.268 75.9604 118.493 76.3159C119.485 76.4739 120.424 76.768 121.329 77.1631Z" fill="#EA8C8B"/>
<path d="M107.392 61.2244C107.449 63.046 106.448 64.556 105.162 64.5911C103.876 64.6306 102.791 63.1865 102.734 61.3648C102.682 59.5388 103.678 58.0332 104.964 57.9937C106.25 57.9542 107.339 59.4027 107.392 61.2244Z" fill="#211A17"/>
<path d="M105.706 60.1667C104.955 60.1886 104.99 61.3518 105.741 61.3299C106.492 61.3079 106.456 60.1447 105.706 60.1667Z" fill="white"/>
<path d="M119.819 60.8521C119.871 62.6738 120.96 64.1179 122.246 64.0784C123.532 64.0389 124.529 62.5333 124.476 60.7117C124.419 58.8857 123.335 57.4415 122.049 57.481C120.763 57.5205 119.762 59.0261 119.819 60.8521Z" fill="#211A17"/>
<path d="M122.833 59.3063C122.087 59.3282 122.118 60.4915 122.868 60.4695C123.619 60.4476 123.584 59.28 122.833 59.3063Z" fill="white"/>
<path d="M115.837 64.9477C115.078 64.3551 113.897 64.3727 113.182 65.0179L115.258 68.6085C115.837 68.5734 116.311 68.0905 116.522 67.5506C116.878 66.6552 116.597 65.5403 115.837 64.9477Z" fill="#CE7872"/>
<path d="M97.4979 65.1489C94.0741 65.3859 91.4536 67.8309 91.6467 70.6138C91.8399 73.3967 94.772 75.4598 98.1958 75.2228C101.62 74.9857 104.24 72.5364 104.047 69.7535C103.854 66.9705 100.922 64.9119 97.4979 65.1489Z" fill="#F9BFBB"/>
<path d="M130.453 66.8341C130.348 65.2758 128.702 64.117 126.779 64.2487C124.857 64.3848 123.386 65.7587 123.496 67.3169C123.606 68.8796 125.252 70.0384 127.17 69.9023C129.093 69.7706 130.563 68.3967 130.453 66.8341Z" fill="#F9BFBB"/>
<path d="M59.7481 153.989C57.1451 165.051 55.3849 176.318 54.4807 187.648C50.2229 184.737 45.4735 182.121 40.7109 179.549C42.1243 178.566 43.4983 177.525 44.8283 176.424C49.5865 172.469 53.7345 167.632 56.1619 161.938C57.3427 159.147 57.8738 156.368 59.7481 153.989Z" fill="#149C64"/>
</g>
<defs>
<clipPath id="clip0_1065_49903">
<rect width="200" height="200" fill="white"/>
</clipPath>
</defs>
</svg>
