<svg width="200" height="200" viewBox="0 0 200 200" fill="none" xmlns="http://www.w3.org/2000/svg">
<g clip-path="url(#clip0_1065_49923)">
<rect width="200" height="200" fill="#FFF1F1"/>
<path d="M137.239 44.6574C139.256 57.6019 132.629 69.3833 122.437 70.9723C112.245 72.5613 102.348 63.3522 100.33 50.4076C98.3133 37.4586 104.94 25.6773 115.132 24.0883C125.324 22.4993 135.222 31.7084 137.239 44.6574Z" fill="#603813"/>
<path d="M86.5371 103.695L123.891 105.21L113.216 127.32L90.0706 126.398L86.5371 103.695Z" fill="black"/>
<path d="M34.2536 329.302C46.0336 338.19 174.88 337.049 174.793 330.728C174.579 315.317 172.202 298.667 169.992 282.374C168.741 273.16 167.544 264.065 166.824 255.37C165.123 234.888 159.373 170.354 158.563 158.942C158.041 151.497 156.736 134.615 156.582 132.605C155.636 131.938 154.67 131.301 153.688 130.691L153.597 130.638C152.875 130.213 152.045 129.725 151.15 129.212L151.129 129.199C147.29 126.96 142.249 124.116 138.916 122.535C130.581 118.576 122.014 116.157 113.003 114.858C98.0046 112.699 83.1374 115.306 72.219 118.352C62.4204 121.087 55.7958 124.177 55.1001 124.511C55.0592 124.528 55.0391 124.537 55.0391 124.537C55.0391 124.537 61.2835 127.215 62.9577 137.499C70.0805 181.245 48.5852 216.066 48.5852 216.066C48.5852 216.066 43.1462 254.149 39.9981 273.573C37.9978 285.903 32.6071 328.059 34.2536 329.302Z" fill="#FFA0A0"/>
<path d="M85.9121 83.0473C86.3212 85.3123 86.7215 87.5816 87.1262 89.8422C87.153 89.9783 87.175 90.1187 87.1973 90.2504C87.2088 90.3163 87.2211 90.3733 87.2325 90.4348C87.7697 93.4372 88.3026 96.4352 88.67 99.4508C88.8232 100.658 88.9444 101.878 89.03 103.098C89.1283 104.459 89.1818 105.833 89.1954 107.198C89.2345 109.819 89.163 112.439 89.0826 115.051C89.0374 116.53 89.0159 118.005 89.0054 119.484C88.9931 121.192 88.2666 123.04 88.9628 124.699C89.8438 126.797 91.8581 127.886 93.6328 129.119C95.5654 130.462 97.6698 131.56 99.8737 132.385C104.197 134.005 109.075 134.606 113.548 133.232C122.1 130.607 119.833 121.205 119.804 114.397L119.795 112.514L119.782 107.527L119.755 100.434C117.31 99.8326 115.02 98.7221 112.752 97.6204C105.228 93.9376 97.7518 90.167 90.4232 86.1068C90.2256 85.9971 90.0373 85.8917 89.8525 85.7907C88.3794 84.9699 87.1736 84.272 85.9121 83.0473Z" fill="#FFCFCA"/>
<path d="M119.805 114.397C111.337 112.211 103.189 108.822 95.7893 104.191C93.4356 102.721 90.9946 101.145 88.6717 99.4505C88.3065 96.4349 87.7701 93.4413 87.2355 90.4389C86.7952 87.9764 86.3563 85.5095 85.916 83.047C87.3334 84.4253 88.6867 85.1452 90.4258 86.1065C97.7522 90.1624 105.229 93.9417 112.755 97.6201C115.023 98.7262 117.311 99.8324 119.759 100.434L119.805 114.397Z" fill="#F9BFBB"/>
<path d="M90.4101 84.8994C86.5478 87.5945 81.2255 88.0642 76.9721 86.0275C73.3785 84.3112 70.6868 80.8567 69.8142 76.9764C69.6575 76.274 69.5601 75.5585 69.5245 74.8299C69.4657 73.5613 69.6053 72.2708 70.0376 71.0769C71.1214 68.1315 74.1163 66.0509 77.2451 65.8446C80.3805 65.6427 83.523 67.2317 85.4039 69.7425L87.3282 75.5717L90.4101 84.8994Z" fill="#FFCFCA"/>
<path d="M91.5845 351.547C87.5462 357.605 45.8615 339.604 32.0202 333.88C21.536 329.543 25.3421 323.314 26.4675 315.202C29.7789 291.302 33.7923 270.72 37.7397 248.715C39.2435 240.322 40.743 231.719 42.1915 222.655C42.2521 222.282 42.3078 221.913 42.3684 221.54C40.6016 227.369 37.3912 239.352 36.0585 243.522C28.4871 267.247 16.3722 323.279 3.75244 325.298C1.57701 325.645 -22.4303 317.2 -23.5056 314.193C-31.0773 292.992 -7.60489 215.276 -3.8191 205.663C2.74317 189.005 23.4743 146.124 28.9915 139.031C39.5921 125.402 73.9827 117.4 75.6841 116.921C80.6411 115.516 85.6429 114.248 90.6759 113.129C95.658 124.949 96.8848 136.582 98.1569 149.342C104.936 217.44 94.7599 346.78 91.5845 351.547Z" fill="#FF6B6B"/>
<path d="M102.69 127.926L102.322 129.853L101.954 131.81L101.337 135.037L100.974 136.964L99.9595 142.284L99.6062 144.145L98.3139 150.94L77.4512 116.315L78.9001 114.305L79.8944 112.922L81.6409 110.495L82.6303 109.125L84.1197 107.058L85.0937 105.702L86.5374 103.696L102.69 127.926Z" fill="#363740"/>
<path d="M102.321 129.852L101.953 131.81C98.6768 127.653 95.4765 123.443 92.3468 119.186C89.4646 115.261 86.4109 111.368 84.1191 107.057L85.0932 105.701C86.2441 107.953 87.6373 110.064 89.1065 112.132C93.377 118.141 97.7836 124.045 102.321 129.852Z" fill="white"/>
<path d="M101.337 135.036L100.974 136.963C97.2536 132.569 93.5993 128.118 90.1259 123.536C86.9914 119.401 84.0487 115.095 81.6406 110.495L82.63 109.125C83.7506 111.324 84.9977 113.462 86.3352 115.538C89.9899 121.222 94.2705 126.477 98.5559 131.687C99.4746 132.806 100.403 133.926 101.337 135.036Z" fill="white"/>
<path d="M99.9598 142.284L99.6064 144.145C95.2806 139.435 91.2928 134.413 87.6833 129.133C85.5583 126.025 83.5646 122.825 81.7119 119.542C80.7729 117.887 79.8744 116.21 79.0114 114.52C78.9763 114.45 78.9355 114.375 78.9004 114.305L79.8946 112.922C80.1523 113.418 80.4047 113.923 80.6619 114.424C81.6364 116.307 82.6508 118.159 83.7108 119.994C87.4564 126.46 91.7471 132.609 96.5325 138.342C97.6478 139.681 98.7939 140.997 99.9598 142.284Z" fill="white"/>
<path d="M45.652 232.922C43.456 238.294 40.8565 243.715 37.7422 248.715C39.246 240.322 40.7455 231.719 42.194 222.655C43.118 220.57 52.098 199.865 54.7378 178.404C55.7474 204.653 50.1951 221.816 45.652 232.922Z" fill="#AF4646"/>
<path d="M273.812 204.654C264.6 217.55 196.687 290.973 175.884 248.065C175.582 247.438 175.208 246.49 174.784 245.309C172.538 239.076 168.934 226.438 167.45 221.54C167.51 221.913 167.565 222.282 167.626 222.655C167.742 223.392 167.864 224.125 167.979 224.854C169.317 233.119 170.695 241.003 172.078 248.715C176.026 270.72 180.039 291.302 183.35 315.202C184.475 323.314 188.282 329.543 177.797 333.88C163.956 339.604 122.271 357.605 118.233 351.547C116.219 348.527 117.86 294.769 116.32 238.979C115.432 206.734 109.178 174.283 111.661 149.342C112.933 136.582 114.16 124.949 119.142 113.129C124.175 114.248 129.177 115.516 134.134 116.921C135.835 117.4 170.226 125.402 180.826 139.031C186.343 146.124 210.209 205.158 210.209 205.158C210.209 205.158 230.638 189.914 255.135 179.414C258.669 177.9 276.336 201.12 273.812 204.654Z" fill="#FF6B6B"/>
<path d="M107.127 127.926L107.495 129.853L107.864 131.81L108.48 135.037L108.843 136.964L109.858 142.284L110.211 144.145L111.503 150.94L132.366 116.315L130.917 114.305L129.923 112.922L128.176 110.495L127.187 109.125L125.698 107.058L124.723 105.702L123.28 103.696L107.127 127.926Z" fill="#363740"/>
<path d="M107.496 129.852L107.865 131.81C111.141 127.653 114.341 123.443 117.471 119.186C120.353 115.261 123.407 111.368 125.698 107.057L124.724 105.701C123.573 107.953 122.18 110.064 120.711 112.132C116.441 118.141 112.034 124.045 107.496 129.852Z" fill="white"/>
<path d="M108.48 135.036L108.844 136.963C112.564 132.569 116.219 128.118 119.692 123.536C122.827 119.401 125.769 115.095 128.177 110.495L127.188 109.125C126.067 111.324 124.82 113.462 123.482 115.538C119.828 121.222 115.547 126.477 111.262 131.687C110.343 132.806 109.414 133.926 108.48 135.036Z" fill="white"/>
<path d="M109.859 142.284L110.213 144.145C114.539 139.435 118.527 134.413 122.136 129.133C124.261 126.025 126.255 122.825 128.107 119.542C129.046 117.887 129.945 116.21 130.808 114.52C130.843 114.45 130.884 114.375 130.919 114.305L129.925 112.922C129.667 113.418 129.414 113.923 129.157 114.424C128.183 116.307 127.168 118.159 126.108 119.994C122.363 126.46 118.072 132.609 113.287 138.342C112.171 139.681 111.026 140.997 109.859 142.284Z" fill="white"/>
<path d="M134.314 91.7473C132.448 96.3036 129.861 100.447 125.622 103.116C121.862 105.478 117.336 106.636 112.904 106.443C108 106.228 103.284 104.516 99.1118 101.891C97.0352 100.579 95.0906 99.047 93.3296 97.3483C90.2504 94.3898 87.6619 90.9616 85.4316 87.3271C81.8099 81.4145 78.886 74.6811 77.4388 67.7238C75.7879 59.8622 76.0162 51.7109 79.2205 44.1698C80.518 41.0928 82.3348 38.2396 84.5713 35.7552C93.9937 25.2643 110.193 23.4559 121.709 31.6028C127.708 35.8562 132.183 42.2384 134.573 49.1519C135.332 51.3422 135.985 53.5897 136.515 55.8722C139.275 67.693 138.906 80.5235 134.314 91.7473Z" fill="#FFCFCA"/>
<path d="M110.48 70.6694C109.862 70.7001 109.011 69.7213 108.775 68.2596C108.651 67.4914 108.726 66.7232 108.981 66.1526C109.069 65.9551 109.315 65.4854 109.693 65.4284L109.751 65.4196C110.369 65.3889 111.221 66.3721 111.455 67.8294C111.58 68.5976 111.505 69.3657 111.25 69.9408C111.162 70.1383 110.916 70.6036 110.538 70.665L110.48 70.6694Z" fill="#1F3C49"/>
<path d="M128.987 68.8736C128.465 68.9 127.59 68.0308 127.352 66.5472C127.231 65.801 127.304 65.0592 127.551 64.5061C127.728 64.1067 127.974 63.8521 128.225 63.8126L128.279 63.8082C128.801 63.7819 129.675 64.651 129.914 66.1346C130.034 66.8808 129.962 67.6227 129.715 68.1757C129.537 68.5752 129.291 68.8297 129.041 68.8693L128.987 68.8736Z" fill="#1F3C49"/>
<path d="M119.699 72.2363C120.183 71.7052 121.001 71.4769 121.773 71.6174C122.559 71.7491 123.283 72.3066 123.647 73.0264C124.029 73.7375 124.076 74.6505 123.733 75.3704C123.407 76.0859 122.752 76.6258 122.038 76.718C122.537 76.2176 122.816 75.6557 122.922 75.0939C123.029 74.5408 122.928 74.0097 122.682 73.5312C122.431 73.0528 122.052 72.6665 121.536 72.4382C121.017 72.2056 120.394 72.1134 119.699 72.2363Z" fill="#1F3C49"/>
<path d="M111.049 57.347C110.178 56.9212 109.191 56.6666 108.195 56.6095C107.153 56.5569 106.102 56.7193 105.156 57.0836C104.416 57.3689 104.045 58.2029 104.331 58.9403C104.475 59.3134 104.77 59.6119 105.14 59.7612C105.286 59.8182 105.439 59.8533 105.596 59.8621C105.799 59.8753 106 59.8402 106.191 59.7656C106.765 59.5461 107.407 59.4451 108.045 59.4802C108.654 59.5154 109.253 59.669 109.779 59.928C109.954 60.0158 110.142 60.0641 110.337 60.0772C110.913 60.108 111.45 59.7919 111.705 59.274C112.056 58.5629 111.762 57.6981 111.049 57.347Z" fill="#1F3C49"/>
<path d="M128.717 54.3533C128.383 54.2787 128.038 54.2348 127.691 54.2172C126.163 54.1338 124.639 54.5552 123.4 55.4024C122.746 55.8501 122.578 56.7499 123.027 57.404C123.223 57.6893 123.515 57.8956 123.849 57.9834C123.942 58.0097 124.039 58.0229 124.136 58.0273C124.451 58.0448 124.767 57.957 125.027 57.7771C125.736 57.2942 126.648 57.044 127.53 57.0879C127.73 57.1011 127.928 57.1275 128.118 57.167C128.193 57.1845 128.267 57.1933 128.34 57.1976C129.053 57.2372 129.677 56.7587 129.825 56.0564C129.988 55.2926 129.496 54.5289 128.717 54.3533Z" fill="#1F3C49"/>
<path d="M110.123 66.3804C109.221 66.1916 108.929 67.5919 109.832 67.7806C110.735 67.9694 111.026 66.5647 110.123 66.3804Z" fill="white"/>
<path d="M128.921 64.5669C128.019 64.3781 127.728 65.7828 128.631 65.9672C129.534 66.1559 129.825 64.7513 128.921 64.5669Z" fill="white"/>
<path d="M130.929 79.3423C131.182 81.8443 130.732 84.2234 129.759 86.2514C128.201 89.504 125.294 91.8172 121.776 92.1728C118.172 92.5415 114.787 90.7637 112.619 87.7657C111.338 86.0143 110.48 83.8416 110.236 81.4405C110.227 81.3527 110.23 81.2649 110.221 81.1727L130.89 79.0789C130.9 79.1711 130.92 79.2589 130.929 79.3423Z" fill="#D55454"/>
<path d="M130.05 79.1671C127.982 81.8535 124.742 83.7453 120.959 84.1272C117.178 84.5091 113.624 83.3108 111.059 81.0897L130.05 79.1671Z" fill="white"/>
<path d="M129.759 86.2514C128.201 89.504 125.294 91.8172 121.776 92.1728C118.172 92.5415 114.787 90.7637 112.619 87.7657C116.07 86.6332 119.687 85.9924 123.317 85.887C125.471 85.8256 127.626 85.9485 129.759 86.2514Z" fill="#F37C7C"/>
<path d="M109.322 76.3578C109.447 78.7062 106.959 80.7517 103.766 80.9229C100.572 81.0897 97.8811 79.3207 97.7565 76.9724C97.6314 74.6196 100.119 72.5741 103.313 72.4029C106.506 72.2361 109.197 74.0051 109.322 76.3578Z" fill="#F9BFBB"/>
<path d="M136.255 72.5299C136.339 74.1189 134.66 75.5016 132.503 75.6157C130.346 75.7298 128.529 74.5359 128.444 72.9469C128.36 71.3579 130.04 69.9752 132.197 69.8611C134.354 69.7469 136.171 70.9409 136.255 72.5299Z" fill="#F9BFBB"/>
<path d="M174.782 245.309C172.536 239.076 168.932 226.438 167.448 221.54C167.508 221.913 167.564 222.282 167.625 222.655C167.741 223.392 167.862 224.125 167.978 224.854L167.302 221.312L163.637 166.487C163.637 166.487 175.181 218.226 175.343 235.806C175.358 237.592 175.09 241.459 174.782 245.309Z" fill="#AF4646"/>
<path d="M75.5478 37.998C74.6059 34.3372 75.8007 30.2769 78.1688 27.494C80.5369 24.7067 83.9383 23.1089 87.4095 22.5383C90.8807 21.9632 94.4366 22.3451 97.8951 23.0474C101.226 23.719 104.562 24.6891 107.941 24.4872C112.088 24.237 116.103 22.1301 118.836 18.7721C121.423 15.5897 126.988 16.0594 130.354 18.2805C133.721 20.5016 137.039 24.3994 137.732 28.587C138.398 32.6033 138.021 39.2929 131.738 42.9713C124.333 47.3081 101.048 45.7717 97.903 45.6971C94.7584 45.6181 91.3794 46.439 89.304 48.9761C85.1827 54.0108 84.3786 61.5958 84.0867 68.3205C81.6545 66.9422 79.336 66.3716 76.596 66.3891C75.3894 66.3935 74.0743 66.4901 72.6012 67.5567C70.0026 62.5264 68.4724 57.123 67.2825 51.5176C66.6925 48.7347 66.2834 45.8639 66.6328 43.0415C66.7658 41.9705 67.0195 40.8863 67.5941 39.9996C68.4606 38.6608 69.9714 37.9409 71.4788 37.7785C72.9857 37.6205 74.0844 37.5635 75.5478 37.998Z" fill="#603813"/>
</g>
<defs>
<clipPath id="clip0_1065_49923">
<rect width="200" height="200" fill="white"/>
</clipPath>
</defs>
</svg>
