<svg width="200" height="200" viewBox="0 0 200 200" fill="none" xmlns="http://www.w3.org/2000/svg">
<g clip-path="url(#clip0_1065_49920)">
<rect width="200" height="200" fill="#FFF1F1"/>
<path d="M137.607 131.208C137.602 131.55 137.598 131.892 137.585 132.235C137.519 135.149 137.365 138.086 137.137 141.031C136.659 147.269 135.851 153.559 134.828 159.853C132.576 173.698 129.271 187.529 126.089 200.715C124.184 201.997 121.041 204.011 118.868 204.744C100.09 211.07 87.7422 209.845 68.231 206.386C65.4174 195.048 63.9469 183.438 63.192 171.78C62.3711 159.116 61.5591 146.426 61.6776 133.74C62.0682 132.481 62.4808 131.221 62.9154 129.97C62.9944 129.742 63.0734 129.509 63.1568 129.281C63.3236 128.837 63.4904 128.394 63.666 127.955C64.1269 126.774 64.6141 125.602 65.1233 124.443C65.8081 122.885 66.5455 121.349 67.3224 119.839C70.3029 116.393 73.5116 113.145 76.9222 110.125C80.605 106.859 84.6345 103.795 89.34 102.338C92.5751 101.333 96.0208 101.135 99.4095 101.306C101.521 101.416 103.623 101.671 105.695 102.066C113.416 103.541 120.764 106.965 126.879 111.907C128.806 113.457 130.605 115.16 132.256 116.999C132.55 117.328 132.84 117.662 133.125 118C134.833 120.01 136.4 122.231 137.102 124.777C137.677 126.858 137.646 129.052 137.607 131.208Z" fill="#FFCFCA"/>
<path d="M126.782 32.3954C125.781 30.9732 124.715 29.5949 123.578 28.2737C121.234 25.5434 118.438 23.1468 115.383 21.2066C103.909 13.9245 88.4182 15.1096 78.6034 24.6436C74.0252 29.0857 71.0622 34.9281 69.1572 40.968C65.7114 51.9154 64.8117 63.4729 64.5527 74.8592C64.4868 77.7123 64.4824 80.5655 64.4165 83.4143C64.399 84.2395 63.9952 91.109 64.5571 91.3329C66.5323 92.1142 68.5383 92.799 70.5531 93.4398C81.5004 96.9338 92.9131 99.1812 104.33 98.7291C115.738 98.277 127.186 95.0069 136.479 88.2163C136.86 85.0691 137.049 82.014 137.067 78.9502C137.115 69.7015 137.462 60.2554 135.285 51.1911C133.669 44.4796 130.772 38.0622 126.782 32.3954Z" fill="#3A374C"/>
<path d="M112.588 71.0362L112.719 81.4041L113.018 104.879L86.1543 106.525L86.8258 92.8431L87.4229 80.7237L112.588 71.0362Z" fill="#FFCFCA"/>
<path d="M112.588 71.0361L112.72 81.404C109.875 84.2089 106.816 86.7723 103.388 88.8047C98.41 91.7456 92.5369 93.4926 86.8262 92.843L87.4232 80.7236L112.588 71.0361Z" fill="#FCB9B4"/>
<path d="M123.508 54.9713L123.513 54.9757C122.301 60.9497 119.926 66.6999 116.726 71.5635C111.551 79.4338 102.961 86.4789 93.2516 87.2646C88.2914 87.6641 83.2874 86.04 79.6881 82.5547C78.8146 81.7076 78.0113 80.7638 77.2958 79.7279C70.8257 70.3652 69.882 57.9429 72.7571 46.7849C74.0037 41.9477 75.9614 37.3563 78.5029 33.3487C81.2683 28.9812 85.3066 25.1667 89.9199 22.5901C97.5708 18.3235 106.815 17.4544 114.519 23.0949C117.999 25.6408 120.55 29.3367 122.121 33.3619C122.183 33.5111 122.24 33.6604 122.292 33.8096C124.737 40.4289 124.952 47.8559 123.508 54.9713Z" fill="#FFCFCA"/>
<path d="M92.225 26.9473C92.0231 29.3484 90.8205 31.5475 89.4422 33.5315C89.1393 33.9661 88.8276 34.4007 88.5028 34.822C84.5216 40.0455 79.1093 44.176 73.008 46.6253C72.9202 46.6604 72.8192 46.7043 72.7051 46.7526C73.9517 41.9066 75.9138 37.3021 78.4597 33.2901C81.2338 28.9138 85.2766 25.0906 89.9031 22.5096C90.4298 22.7071 90.9038 23.0056 91.2813 23.4226C91.7554 23.9449 92.0275 24.6033 92.1592 25.3013C92.2602 25.8412 92.2733 26.403 92.225 26.9473Z" fill="#FCB9B4"/>
<path d="M123.509 54.9695L123.514 54.9738C121.459 56.497 119.418 58.0772 116.982 58.7795C115.762 59.1351 114.485 59.2536 113.212 59.2536C109.34 59.258 105.473 58.1913 102.15 56.1985C97.4358 53.3673 93.9505 48.7847 91.6285 43.7982C90.2941 40.9363 89.3153 37.9339 88.5252 34.8744C87.9326 32.6095 87.4497 30.305 87.002 28.0005C88.2091 26.2491 90.0966 25.7312 92.1728 25.3756C92.3045 25.3493 92.4318 25.3273 92.5678 25.3054C100.285 24.0368 108.33 25.639 115.319 29.1506C117.706 30.3533 119.976 31.7667 122.122 33.3601C122.184 33.5093 122.241 33.6586 122.293 33.8078C124.738 40.4271 124.953 47.8541 123.509 54.9695Z" fill="#FCB9B4"/>
<path d="M203.771 172.265C192.806 172.546 167.544 157.644 157.106 152.311C155.144 151.301 151.426 149.247 147.138 146.806C143.96 144.998 140.47 142.988 137.138 141.03C131.353 137.628 126.051 134.402 123.724 132.778C121.885 131.487 120.015 130.03 118.202 128.423C111.873 122.827 106.289 115.444 105.416 107.218C105.372 106.788 105.367 103.706 105.697 102.064C105.82 101.441 105.991 101.029 106.228 101.046C124.944 102.438 142.467 110.606 158.853 119.763C164.107 122.699 166.974 124.754 171.258 127.559C172.175 128.164 173.158 128.801 174.243 129.486L174.308 129.525C174.26 129.411 174.212 129.297 174.164 129.183C173.496 127.545 172.891 125.851 172.351 124.266C171.798 122.642 171.319 121.128 170.902 119.881C169.866 116.774 168.633 112.507 168.633 112.507C168.633 112.507 164.713 102.069 164.208 101.858C162.9 101.314 161.645 100.655 160.464 99.8741C159.016 98.9128 157.988 97.6442 156.658 96.5513C154.358 94.6682 151.659 93.2328 149.227 91.5122C148.476 90.9766 147.7 90.4016 147.261 89.5808L147.217 89.493C146.826 88.6853 146.839 87.6143 147.506 87.0086C148.016 86.5433 148.779 86.4555 149.46 86.5872C150.654 86.8242 151.826 87.4826 152.875 88.0752C153.546 88.4571 154.24 88.9312 154.982 89.1682C156.105 89.5413 155.627 88.5932 155.258 87.8908C154.846 87.1227 154.358 86.4028 153.832 85.7137C152.791 84.3485 151.602 83.1063 150.509 81.7851L143.091 72.8174C142.362 71.9351 142.884 70.3988 143.955 70.074C145.448 69.6131 146.488 71.4786 147.348 72.3609C148.784 73.8313 150.232 75.2974 151.676 76.7591C152.717 77.8038 153.761 78.8529 154.81 79.8888C155.416 80.4946 155.824 81.3505 156.443 81.987C156.667 82.2196 157.26 82.9088 157.668 82.6893C158.094 82.4611 157.629 81.7543 157.51 81.4471C157.212 80.7096 156.891 79.9898 156.553 79.2655C155.903 77.8741 155.197 76.5089 154.477 75.1482C153.024 72.374 151.523 69.6087 150.408 66.6765C150.359 66.5536 150.324 66.4351 150.303 66.3166C149.89 65.4343 150.39 64.2755 151.321 63.9682C153.077 63.3888 154.007 65.8732 154.701 67.0145C155.816 68.8625 156.865 70.7456 157.98 72.5935C158.805 73.9718 159.635 75.3501 160.469 76.7284C160.754 77.2156 161.588 79.7396 162.444 79.4586C163.19 79.2216 162.237 77.2902 162.145 76.8381C161.917 75.7583 161.676 74.6829 161.43 73.6119C160.934 71.461 160.39 69.3277 159.784 67.2032C159.727 67.0057 159.705 66.8126 159.713 66.6282C159.52 66.0356 159.327 65.4387 159.125 64.8461C158.77 63.7795 159.661 62.6426 160.78 62.6777C162.395 62.7172 162.637 64.7671 163.023 65.9479C163.633 67.8309 164.226 69.714 164.797 71.6103C165.205 72.9447 165.595 74.2878 165.982 75.631C166.188 76.3465 166.838 79.5464 168.128 78.6071C168.378 78.4227 168.361 77.7599 168.374 77.4966C168.435 76.6494 168.299 75.8066 168.251 74.9638C168.119 72.7033 168.014 70.4383 167.948 68.1777C167.909 66.9355 169.296 66.0532 170.419 66.615C172.057 67.4359 171.468 70.5963 171.495 72.0536C171.539 74.3756 171.666 76.6933 171.881 79.0065C171.925 79.4016 171.96 79.7966 172.092 80.1741C172.259 80.657 172.562 81.0784 172.842 81.5129L172.851 81.5217C174.436 83.9754 175.366 86.8198 175.74 89.7037C175.928 91.1522 175.972 92.6227 175.876 94.08C175.775 95.5549 175.156 98.329 175.156 98.329C175.156 98.329 176.24 100.058 176.736 100.717C177.307 101.467 177.833 102.253 178.373 103.021C179.501 104.619 180.629 106.213 181.753 107.81C185.66 113.341 189.672 118.806 193.372 124.482C202.954 139.169 206.865 146.683 211.079 156.806C213.397 162.367 211.659 172.063 203.771 172.265Z" fill="#FFCFCA"/>
<path d="M147.137 146.808C143.959 144.999 140.47 142.989 137.138 141.031C136.66 147.269 135.852 153.559 134.829 159.853C130.33 159.739 125.84 159.502 121.367 159.028C118.522 158.725 115.428 158.194 113.545 156.039C112.202 154.498 111.736 152.382 111.591 150.346C111.139 143.981 113.378 137.713 116.271 132.024C116.89 130.812 117.535 129.614 118.202 128.425C120.651 124.039 123.298 119.755 125.313 115.16C125.787 114.075 126.27 112.925 126.88 111.907C127.565 110.761 128.408 109.774 129.593 109.19L130.475 109.471C131.015 111.986 131.599 114.506 132.257 116.999C133.591 122.077 135.229 127.073 137.406 131.848C137.467 131.976 137.524 132.103 137.586 132.235C140.035 137.524 143.187 142.541 147.137 146.808Z" fill="#FCB9B4"/>
<path d="M172.885 90.5995C172.644 88.9183 172.218 87.2065 171.173 85.8721C170.128 84.5377 168.337 83.6685 166.705 84.1382C165.893 84.3709 165.199 84.902 164.426 85.2575C162.499 86.1398 160.059 85.9203 158.479 87.3337C158.259 87.5269 158.062 87.7595 157.996 88.0405C157.877 88.5804 158.277 89.0852 158.65 89.4934C159.177 90.0728 159.76 90.6829 160.529 90.8409C161.152 90.9638 161.788 90.7663 162.42 90.6873C163.988 90.4986 165.541 91.0648 166.959 91.7584C167.705 92.1183 168.434 92.5221 169.106 93.0094C170.466 93.9926 171.564 95.3006 172.644 96.5911C172.784 96.7623 172.872 96.9248 172.885 97.1442C173.223 94.967 173.201 92.7767 172.885 90.5995Z" fill="#F9BFBB"/>
<path d="M117.548 24.7267C114.142 22.0579 110.205 20.1309 105.903 19.1126C103.59 18.5595 101.219 18.2303 98.8446 18.1557C95.8115 18.0547 94.0864 19.1784 92.6379 21.8077C91.5141 23.8488 90.9655 26.1708 90.8557 28.4885C90.825 29.2084 90.8294 29.9326 90.8733 30.6657C91.3123 37.8249 95.2013 45.5328 99.5337 49.5711C103.036 52.8413 107.509 55.0887 112.153 56.208C116.784 57.3273 122.57 57.5073 126.876 55.1458C130.945 52.9115 131.494 48.2367 130.357 44.1106C128.948 38.9881 125.884 33.769 122.552 29.6605C121.055 27.8169 119.379 26.1665 117.548 24.7267Z" fill="#3A374C"/>
<path d="M99.4632 21.5836C99.3403 21.0788 99.1911 20.5696 98.9014 20.135C98.2386 19.1342 96.9612 18.7216 95.7629 18.6075C91.5315 18.2168 87.6072 20.6925 84.2098 23.2516C82.1028 24.8406 80.031 26.5217 78.3981 28.5936C77.2831 30.0158 76.3921 31.6003 75.5844 33.2113C73.1176 38.1494 71.3837 43.4475 70.4531 48.8861L70.9799 51.9938C71.4671 46.3534 73.4205 40.59 77.6168 36.7887C83.0027 31.912 90.8115 31.1833 97.8786 29.5022C98.3439 29.3924 98.8355 29.2564 99.1515 28.8964C99.393 28.6155 99.4895 28.238 99.5642 27.8737C99.9812 25.8018 99.946 23.6422 99.4632 21.5836Z" fill="#3A374C"/>
<path d="M127.266 60.009C126.392 57.8933 124.259 56.4053 121.533 56.3438C118.425 56.278 115.993 58.8721 114.005 61.2556L110.199 75.7058C110.098 76.1008 113.917 75.9911 114.374 75.8901C115.91 75.5478 117.468 74.7445 118.825 73.9631C121.625 72.339 124.052 70.0697 125.821 67.357C127.217 65.2237 128.306 62.5066 127.266 60.009Z" fill="#FFCFCA"/>
<path d="M92.5273 19.3847C92.5844 19.9817 92.6019 20.583 92.5888 21.18C92.5844 21.3863 92.58 21.5926 92.5625 21.7989C92.4264 24.0946 91.8118 26.3508 90.8374 28.4226C90.5213 29.0942 90.1658 29.7482 89.7795 30.3759C89.6873 30.5296 89.5908 30.6832 89.4854 30.8324C87.3609 34.0982 84.3717 36.6968 81.1016 38.7335C79.4072 39.787 77.6075 40.7044 75.6717 41.1301C75.2635 41.2179 74.8553 41.2794 74.4427 41.3189C74.3944 41.3277 74.3505 41.3321 74.3022 41.3321C73.8677 41.3672 73.4287 41.376 72.9898 41.3496C71.9626 41.2969 70.953 41.0643 70.0137 40.6122C70.615 38.7423 71.3086 36.9031 72.1162 35.1122C75.9395 26.6317 82.2779 20.7059 89.9727 17.9669C90.8198 18.081 91.6538 18.2873 92.4176 18.5243C92.4615 18.8097 92.501 19.0994 92.5273 19.3847Z" fill="#3A374C"/>
<path d="M95.1388 68.99C95.2705 70.5219 95.0642 71.988 94.5858 73.2829C94.4848 73.5638 94.3707 73.8316 94.2478 74.0949C93.1461 76.3906 91.1532 77.9972 88.7654 78.2035C86.8647 78.3659 85.0606 77.6109 83.6604 76.2502C83.5506 76.1448 83.4409 76.0351 83.34 75.921C82.0144 74.49 81.1101 72.484 80.9126 70.2147C80.8906 69.9425 80.8774 69.6748 80.873 69.407L95.0379 68.1867C95.0818 68.4501 95.1169 68.7178 95.1388 68.99Z" fill="#D55454"/>
<path d="M94.2476 74.0949C93.1459 76.3906 91.153 77.9972 88.7652 78.2035C86.8645 78.3659 85.0604 77.6109 83.6602 76.2502C83.906 75.8332 84.2045 75.4425 84.5513 75.0782C85.7145 73.8711 87.4044 73.0415 89.3402 72.8747C90.7931 72.7474 92.1758 73.0151 93.3478 73.577C93.6638 73.7306 93.9623 73.9018 94.2476 74.0949Z" fill="#F37C7C"/>
<path d="M93.1863 68.3445C92.9185 68.7044 92.6025 69.038 92.2469 69.3453C91.1013 70.3329 89.5342 71.0045 87.7696 71.1581C85.8866 71.3205 84.1264 70.8553 82.792 69.9774C82.4848 69.7754 82.2038 69.556 81.9492 69.3145L93.1863 68.3445Z" fill="white"/>
<path d="M63.6721 59.39C62.1972 53.7363 65.5903 47.9378 71.2396 46.463C76.8888 44.9837 82.6917 48.3768 84.1666 54.0304C85.6458 59.6797 82.2484 65.4782 76.5991 66.9574C70.9499 68.4323 65.1514 65.0392 63.6721 59.39ZM80.396 47.5867L92.2256 46.5903C90.404 48.1573 89.096 50.2423 88.4858 52.5556L84.4388 52.8848C83.6443 50.6857 82.2045 48.8684 80.396 47.5867ZM84.8865 54.5089C84.8426 54.2982 84.8075 54.0875 84.7548 53.8768C84.7153 53.7407 84.667 53.6134 84.6275 53.4774L88.3454 53.1745C88.2752 53.5125 88.2181 53.8505 88.1786 54.1972L84.8865 54.5089ZM89.0565 58.3804C87.4982 52.4063 91.0845 46.2742 97.0585 44.716C103.033 43.1533 109.16 46.7395 110.723 52.7136C112.286 58.6877 108.699 64.8154 102.725 66.378C96.7512 67.9407 90.6191 64.3545 89.0565 58.3804ZM63.0884 59.5392C64.651 65.5133 70.7787 69.1039 76.7527 67.5412C82.3142 66.0883 85.8039 60.6673 84.9962 55.1059L88.1215 54.8118C88.0425 56.032 88.1478 57.283 88.4726 58.534C90.1187 64.8285 96.5801 68.6123 102.879 66.9662C109.173 65.3202 112.957 58.8589 111.311 52.56C109.665 46.2655 103.199 42.4817 96.9049 44.1278C95.4959 44.4965 94.2229 45.1154 93.0992 45.9099L79.5708 47.0468C77.0952 45.6026 74.0708 45.0935 71.086 45.8748C65.1163 47.4374 61.5257 53.5695 63.0884 59.5392Z" fill="#999999"/>
<path d="M88.2821 64.2056C87.9221 63.7886 87.3559 63.5252 86.7589 63.5164C86.1575 63.4945 85.5299 63.7886 85.1436 64.267C84.7529 64.7411 84.5774 65.4478 84.8144 66.036C85.0251 66.611 85.565 67.0587 86.1312 67.0544C85.6396 66.8042 85.3586 66.352 85.2665 65.8999C85.1787 65.4522 85.3192 65.0001 85.6132 64.6533C85.8986 64.2934 86.3112 64.0563 86.7853 63.9861C87.2594 63.9159 87.7773 63.9949 88.2821 64.2056Z" fill="#B53434"/>
<path d="M97.3782 49.7027C97.5142 49.6676 97.6108 49.5403 97.602 49.391C97.5932 49.2242 97.4528 49.0969 97.286 49.1057L92.8175 49.3427C92.6507 49.3515 92.519 49.4964 92.5322 49.6632C92.5409 49.83 92.6815 49.9573 92.8483 49.9485L97.3167 49.7114L97.3782 49.7027Z" fill="#24404C"/>
<path d="M81.0807 51.2262C81.2211 51.1911 81.3177 51.0594 81.3045 50.9101C81.2957 50.7433 81.1509 50.6204 80.9841 50.6336L76.7658 50.9365C76.6034 50.9497 76.476 51.0945 76.4892 51.2613C76.498 51.4281 76.6429 51.551 76.8097 51.5422L81.028 51.235L81.0807 51.2262Z" fill="#24404C"/>
<path d="M92.5983 57.6696C92.5412 57.6696 92.4798 57.6565 92.4227 57.6301C92.2076 57.5335 92.1155 57.2789 92.2121 57.0683C92.73 55.9314 93.801 55.1413 95.0696 54.9525C96.0836 54.8033 97.418 55.33 98.3134 56.2386C98.4802 56.4054 98.4802 56.6732 98.3134 56.84C98.1466 57.0024 97.8744 57.0024 97.712 56.8356C97.0141 56.1333 95.9344 55.6856 95.1969 55.7953C94.2093 55.9402 93.384 56.5459 92.9846 57.4194C92.9144 57.5774 92.7607 57.6696 92.5983 57.6696Z" fill="#FCB9B4"/>
<path d="M77.0593 58.1921C76.9715 58.1921 76.8838 58.1657 76.8047 58.1087C76.616 57.9682 76.5765 57.7005 76.717 57.5117C77.4763 56.4934 78.7141 55.7823 79.7369 55.7823H79.7501C81.0362 55.791 82.2038 56.4231 82.8798 57.4722C83.0027 57.6741 82.9456 57.9331 82.7481 58.0604C82.5506 58.1877 82.2872 58.1306 82.1599 57.9331C81.6463 57.1254 80.7421 56.6382 79.7457 56.6338C78.9863 56.6338 77.9899 57.2264 77.4017 58.0209C77.3183 58.1306 77.191 58.1921 77.0593 58.1921Z" fill="#FCB9B4"/>
<path d="M92.3125 57.1081C92.2554 57.1081 92.1939 57.0949 92.1369 57.0686C91.9262 56.972 91.8297 56.7218 91.9262 56.5067C92.4442 55.3699 93.5152 54.5798 94.7881 54.391C95.8021 54.2418 97.1365 54.7729 98.032 55.6771C98.1944 55.8439 98.1944 56.1117 98.0276 56.2785C97.8608 56.4409 97.593 56.4409 97.4262 56.2741C96.7327 55.5718 95.6529 55.1241 94.9111 55.2338C93.9234 55.3787 93.0982 55.9844 92.7031 56.8579C92.6285 57.0159 92.4749 57.1081 92.3125 57.1081Z" fill="#24404C"/>
<path d="M76.7781 57.6306C76.6859 57.6306 76.5981 57.6042 76.5235 57.5471C76.3348 57.4067 76.2952 57.1433 76.4357 56.9546C77.1907 55.9318 78.433 55.2251 79.4557 55.2251H79.4644C80.7506 55.2295 81.9226 55.8616 82.5942 56.9151C82.7215 57.1126 82.6644 57.3759 82.4669 57.5032C82.2649 57.6261 82.0016 57.5691 81.8787 57.3716C81.3607 56.5639 80.4565 56.0811 79.4601 56.0767C78.7007 56.0767 77.7043 56.6649 77.1161 57.4593C77.0327 57.5735 76.9054 57.6306 76.7781 57.6306Z" fill="#24404C"/>
<path d="M95.5919 115.888C95.3988 116.108 95.2012 116.323 94.9993 116.538C91.378 120.326 86.0228 123.192 82.1908 125.87C77.2702 129.298 74.1976 132.761 71.4278 137.963C70.8748 139.003 70.3436 140.065 69.8301 141.141C69.4657 141.9 69.1146 142.668 68.7722 143.441C66.9462 147.532 65.3572 151.829 63.878 156.179C61.1521 164.133 58.7686 172.271 55.8935 179.716C52.4082 188.732 48.4533 197.352 43.6556 205.745C38.9545 213.984 33.9549 222.052 28.67 229.936C26.0275 233.877 23.3104 237.775 20.5319 241.62C19.5794 242.937 16.8842 246.857 15.2294 249.118C14.865 249.614 14.5534 250.031 14.3164 250.32L14.29 250.395V250.404C14.4085 252.151 14.2944 254.407 13.7282 258.23C13.4297 260.28 13.1224 262.334 12.5913 264.34C11.7617 267.492 9.74254 270.148 8.35547 273.08C8.07015 273.699 7.78487 274.326 7.35909 274.862C5.38383 277.351 3.05298 274.603 3.13199 272.32C3.13638 272.105 3.16272 271.895 3.19784 271.688C3.40414 270.455 4.0801 269.331 4.62879 268.216C4.94922 267.562 5.24769 266.895 5.40132 266.179C5.52861 265.582 5.80081 264.797 5.27847 264.296C4.80001 263.84 3.84744 263.743 3.22853 263.831C2.48232 263.941 1.84151 264.318 1.26209 264.797C0.836316 265.148 0.450007 265.561 0.085681 265.969C-0.880003 267.035 -1.76669 268.142 -2.69726 269.226C-3.99655 270.727 -5.02368 272.294 -5.50653 274.221C-5.99815 276.183 -6.04199 278.215 -6.20001 280.221C-6.36681 282.377 -6.48097 285.313 -8.38601 286.74C-9.25951 287.394 -10.5149 286.788 -10.8485 285.844C-11.0328 285.318 -11.0065 284.747 -10.9845 284.189C-10.8221 280.638 -10.7212 277.078 -10.0452 273.576C-9.40431 270.275 -7.85047 267.158 -6.37122 264.147C-4.17209 259.705 5.62525 244.539 5.62525 244.539C5.70426 244.386 9.83911 234.847 12.6133 228.847C14.7026 224.326 16.4716 220.854 18.4425 216.289C22.3053 207.334 27.3619 195.996 30.6453 186.813C30.9174 186.054 31.1764 185.308 31.4134 184.575C31.6987 183.719 31.9533 182.88 32.1947 182.046C34.2577 175.014 35.1751 168.637 36.8739 160.946C38.6691 152.83 40.6049 144.762 42.4397 136.655C45.35 123.767 50.6217 116.125 55.0595 113.395C61.2091 109.62 67.4071 106.596 73.8816 104.331C74.4259 104.138 74.9701 103.953 75.5144 103.773C77.9769 102.961 80.4833 102.259 83.038 101.662C83.4901 101.561 83.9466 101.456 84.4031 101.359C87.3221 100.727 90.3114 100.231 93.3972 99.8666C94.5165 99.7393 95.6007 100.349 96.4918 101.284C97.554 102.386 98.3573 103.936 98.647 105.226C99.6214 109.528 98.1422 112.978 95.5919 115.888Z" fill="#FFCFCA"/>
<path d="M112.777 146.136C106.733 152.004 98.5549 155.459 90.1842 156.425C87.7085 156.71 85.1846 156.789 82.744 156.293C76.4802 155.016 71.4104 149.954 69.0006 144.029C68.9216 143.836 68.847 143.638 68.7724 143.44C68.61 143.01 68.4607 142.576 68.3246 142.137C66.5995 136.711 66.683 130.777 67.6926 125.145C68.1666 122.485 68.8382 119.873 69.6107 117.284C70.6598 113.741 71.8933 110.247 73.0521 106.744C73.3199 105.941 73.5876 105.134 73.8817 104.33C74.426 104.137 74.9703 103.953 75.5146 103.773C77.9771 102.961 80.4835 102.258 83.0382 101.661C83.1698 102.776 83.4069 103.865 83.7405 104.927C84.096 106.055 84.5657 107.144 85.1407 108.184C87.1511 111.806 90.4037 114.786 94.2796 116.278C94.5166 116.371 94.7537 116.458 94.9995 116.537C95.3199 116.643 95.6491 116.744 95.9827 116.827C99.0027 117.617 102.176 117.582 105.288 117.385C111.166 117.02 117.32 115.976 121.859 112.236C121.191 115.94 122.113 119.729 122.258 123.495C122.583 131.918 118.83 140.267 112.777 146.136Z" fill="#FCB9B4"/>
<path d="M131.973 105.73C132.635 112.489 132.649 119.376 133.373 126.114C134.44 136.07 136.604 145.871 138.1 155.774C138.952 161.379 139.408 167.178 139.351 172.95C139.307 177.379 138.961 181.786 138.263 186.074C118.497 195.727 95.4478 198.466 73.9745 193.721C71.7666 193.234 69.5675 192.667 67.4386 191.891C64.1684 190.697 61.3372 188.985 58.0144 187.94C57.8915 178.463 57.7686 168.956 58.3041 159.501C58.6201 153.939 59.16 148.395 60.0643 142.895C62.4258 128.533 66.9864 118.046 69.0495 103.645C70.3532 103.377 72.4689 102.38 73.834 102.121C76.358 101.643 78.8864 100.888 81.5639 100.655C81.463 104.566 82.1346 108.53 84.0045 111.949C86.0939 115.759 89.8161 118.801 94.1222 119.42C96.137 119.71 98.1912 119.473 100.188 119.091C103.876 118.384 107.567 117.116 110.363 114.609C112.944 112.296 114.564 109.114 115.833 105.888C116.688 103.719 117.07 102.653 117.654 100.396C119.09 100.783 124.023 102.473 124.796 102.881C125.336 103.166 131.441 105.44 131.973 105.73Z" fill="#FF6B6B"/>
<path d="M139.351 172.95C139.307 177.379 138.961 181.786 138.263 186.074C118.497 195.727 95.4478 198.466 73.9745 193.721C71.7666 193.234 69.5675 192.667 67.4386 191.891C64.1684 190.697 61.3372 188.985 58.0144 187.94C57.8915 178.463 57.7686 168.956 58.3041 159.501C60.0116 161.906 62.0307 164.013 64.6074 165.44C68.5623 167.621 73.2941 167.858 77.8021 167.547C82.3057 167.23 86.8006 166.41 91.3086 166.677C99.4993 167.156 107.04 171.155 115.038 172.998C118.62 173.823 122.303 174.219 125.981 174.271C130.467 174.337 134.958 173.889 139.351 172.95Z" fill="#DD5050"/>
<path d="M37.3598 187.129C35.6787 185.746 33.5849 184.859 31.4121 184.574C31.693 183.718 31.952 182.88 32.1934 182.046C32.9659 182.375 33.6946 182.783 34.4583 183.314C35.8761 184.297 36.7936 185.513 37.3598 187.129Z" fill="#FCB9B4"/>
<path d="M179.734 141.412C178.101 139.735 176.279 137.33 175.142 135.28C173.742 132.76 172.447 130.184 171.258 127.559C172.175 128.164 173.158 128.801 174.243 129.486C175.366 133.787 177.004 137.94 179.734 141.412Z" fill="#FCB9B4"/>
</g>
<defs>
<clipPath id="clip0_1065_49920">
<rect width="200" height="200" fill="white"/>
</clipPath>
</defs>
</svg>
