<svg width="200" height="200" viewBox="0 0 200 200" fill="none" xmlns="http://www.w3.org/2000/svg">
<g clip-path="url(#clip0_1065_49932)">
<rect width="200" height="200" fill="#FFF1F1"/>
<path d="M138.732 119.632C135.489 136.86 132.008 153.966 129.798 171.353C127.704 187.818 125.687 204.305 123.067 220.695C109.571 220.998 96.1172 220.431 82.6591 219.387C69.2602 218.342 56.0124 216.481 43.4282 211.578C36.7535 208.979 30.2856 205.793 24.1426 202.075C30.1667 193.331 33.8574 183.248 37.8803 173.49C42.1903 163.039 45.8898 152.333 48.9637 141.452C55.6687 117.705 58.3361 93.9224 59.9321 69.4028C60.8408 55.4531 64.8348 40.7878 74.2208 30.0775C83.6516 19.3058 99.4501 13.1605 113.329 18.4015C121.901 21.6453 128.884 28.3569 133.548 36.2491C135.765 40.0022 137.49 44.0141 138.82 48.1666C139.18 49.2683 139.505 50.3876 139.808 51.5069C140.756 55.0273 141.458 58.6223 141.972 62.2261C142.762 67.827 143.122 73.4499 143.144 79.0728C143.188 92.6758 141.248 106.283 138.732 119.632Z" fill="#345668"/>
<path d="M127.456 122.44C125.597 123.893 123.215 124.442 120.914 124.951C118.141 125.565 115.362 126.184 112.531 126.391C107.012 126.79 101.806 125.403 96.3956 124.249C96.1261 121.071 95.8491 117.888 95.5796 114.71C95.2412 110.738 94.8957 106.752 94.1609 102.832C93.9336 101.63 93.6768 100.436 93.384 99.2462C92.6755 96.2877 91.7998 93.3731 90.925 90.4541C90.2055 88.0574 89.4866 85.652 88.7676 83.2553C90.3337 84.4624 91.7616 85.0243 93.6008 85.7793C101.349 88.9748 109.215 91.8763 117.117 94.6724C119.498 95.5108 121.9 96.3491 124.403 96.6652L126.046 110.545L127.456 122.44Z" fill="#FFCFCA"/>
<path d="M126.046 110.545C117.377 109.338 108.889 106.902 101.002 103.144C98.4942 101.955 95.8873 100.668 93.384 99.2463C92.6755 96.2878 91.7998 93.3732 90.925 90.4542C90.2055 88.0575 89.4866 85.6521 88.7676 83.2554C90.3337 84.4625 91.7616 85.0244 93.6008 85.7794C101.349 88.9749 109.215 91.8764 117.117 94.6725C119.498 95.5109 121.9 96.3492 124.403 96.6653L126.046 110.545Z" fill="#F9BFBB"/>
<path d="M139.325 88.2059C137.986 92.9465 135.879 97.358 131.964 100.488C128.492 103.262 124.122 104.921 119.693 105.228C114.792 105.566 109.91 104.399 105.465 102.257C103.253 101.186 101.146 99.8819 99.2046 98.3939C95.8093 95.7953 92.8486 92.6788 90.222 89.3165C85.9545 83.8472 82.2888 77.4781 80.0656 70.7271C77.5385 63.0938 76.8476 54.9644 79.1837 47.0985C80.1275 43.8942 81.6129 40.8567 83.5565 38.1308C91.7446 26.6391 107.648 23.0134 120.018 29.8215C126.461 33.3726 131.631 39.215 134.786 45.8168C135.787 47.9106 136.691 50.0746 137.472 52.2825C141.55 63.7302 142.63 76.5255 139.325 88.2059Z" fill="#FFCFCA"/>
<path d="M138.821 48.1655C134.941 42.4153 131.049 36.4236 125.93 31.8761C121.343 27.8071 115.642 25.0286 109.495 24.4667C97.8506 23.4001 84.2735 27.8203 76.8759 37.2225C73.1427 41.9675 71.4444 47.9197 71.1964 53.8279C70.9484 59.7318 72.1629 64.9553 73.6444 70.7274C84.8928 69.6564 94.6972 62.5278 100.509 53.5514C104.836 46.875 107.192 39.2724 108.413 31.4943C111.893 35.9979 115.752 40.2118 120.281 43.6663C125.925 47.968 132.714 51.0494 139.809 51.5059C139.506 50.3822 139.181 49.2673 138.821 48.1655Z" fill="#345668"/>
<path d="M182.337 250.586C178.716 245.407 170.784 235.359 170.784 235.359C170.784 235.359 175.705 169.71 162.19 141.67C153.599 132.786 145.242 124.797 132.947 122.51C123.949 137.597 121.208 151.2 119.727 168.705C117.763 191.912 117.197 216.401 127.673 237.203C130.574 242.962 134.259 248.291 138.004 253.54C147.889 267.402 158.985 280.777 171.346 292.717C174.673 295.925 179.682 296.65 183.764 294.472L195.664 288.125C199.557 286.049 201.015 281.194 198.908 277.318C193.684 267.723 188.43 259.295 182.337 250.586Z" fill="#FF6B6B"/>
<path d="M146.506 130.521C145.848 128.765 140.523 124.977 140.523 124.977C140.523 124.977 108.675 118.551 93.5594 120.474C86.0007 121.435 78.5334 123.125 71.3026 125.53C63.3686 128.168 56.4346 131.307 49.8903 136.587C43.2121 141.978 37.3008 148.263 31.6964 154.742C28.9894 157.872 26.3544 161.059 23.7347 164.263C16.2081 173.463 8.31802 182.69 2.02264 192.83C-7.05875 207.46 -13.6469 226.15 -4.86314 242.492C0.389307 252.263 9.02516 259.835 17.5175 266.748C27.6221 274.974 38.7033 282.366 50.5794 287.871C53.9172 289.42 57.9068 288.244 59.8074 285.096C62.3353 280.909 64.4546 276.506 66.3846 272.003C67.5531 269.277 67.342 266.16 65.8702 263.584C57.8252 249.493 47.8343 236.286 35.4862 223.42C44.5615 214.777 53.588 205.634 60.8921 195.564C61.5803 204.264 61.8626 212.973 61.4184 221.704C61.2911 224.215 61.1357 226.879 62.3393 229.082C63.8629 231.879 67.1229 233.169 70.1565 234.135C92.2474 241.145 116.227 241.987 138.816 236.795C143.376 235.746 148.148 234.266 151.001 230.298C153.591 226.699 154.218 222.064 154.943 217.801C156.167 210.533 156.909 203.176 157.168 195.81C157.941 173.626 154.337 151.288 146.506 130.521Z" fill="#FF6B6B"/>
<path d="M133.614 119.341C133.439 118.661 133.232 117.981 133.105 117.335C132.592 114.671 133.083 111.269 130.144 109.43C128.7 108.526 126.918 108.684 125.25 108.657C123.281 108.631 121.316 108.666 119.348 108.627C115.222 108.539 111.09 108.118 107.024 107.376C104.949 106.998 102.891 106.533 100.859 105.989C99.0282 105.497 97.1771 104.672 95.2774 104.483C93.9118 104.347 92.4233 104.685 91.638 105.62C91.1289 106.23 90.9717 107.003 90.8291 107.749C90.1096 111.528 89.4468 115.382 90.0552 119.218C90.2426 120.404 90.5885 121.641 91.5446 122.528C93.7015 124.534 98.418 125.162 101.326 125.781C110.935 127.826 121.222 128.098 130.246 124.784C131.334 124.385 132.429 123.92 133.184 123.138C134.268 122.019 133.957 120.685 133.614 119.341Z" fill="#D75252"/>
<path d="M94.4868 123.186C94.3323 123.164 94.2024 123.059 94.1769 122.919C93.1484 117.287 93.065 111.594 93.9293 106.006C93.9548 105.839 94.1286 105.729 94.32 105.756H94.327C94.521 105.787 94.6575 105.945 94.6316 106.107C93.7765 111.642 93.8586 117.274 94.8761 122.848C94.9068 123.015 94.7752 123.169 94.5816 123.186H94.4868Z" fill="#FF6B6B"/>
<path d="M97.4984 124.253H97.4923C97.2983 124.222 97.1618 124.064 97.1868 123.897C97.5775 121.343 97.5169 118.696 97.4589 116.137L97.264 107.608C97.2583 107.362 97.2153 107.283 97.1807 107.261C97.0178 107.165 96.9748 106.972 97.0832 106.836C97.1925 106.699 97.4111 106.669 97.5748 106.77C97.9585 107.007 97.9681 107.419 97.9725 107.621L98.167 116.15C98.2258 118.731 98.2868 121.4 97.8891 124.003C97.8645 124.165 97.6898 124.275 97.4984 124.253Z" fill="#FF6B6B"/>
<path d="M101.202 125.012C101.026 124.99 100.889 124.858 100.888 124.7C100.858 119.178 101.024 113.591 101.382 108.091C101.393 107.924 101.56 107.801 101.755 107.818C101.946 107.836 102.1 107.981 102.089 108.148C101.733 113.639 101.567 119.213 101.597 124.722C101.598 124.889 101.44 125.021 101.244 125.016L101.202 125.012Z" fill="#FF6B6B"/>
<path d="M104.221 125.632C104.033 125.61 103.894 125.46 103.907 125.298C104.338 119.859 104.422 114.32 104.158 108.842C104.15 108.675 104.302 108.539 104.497 108.539C104.695 108.543 104.857 108.675 104.865 108.842C105.13 114.342 105.046 119.903 104.614 125.364C104.601 125.531 104.432 125.653 104.236 125.636L104.221 125.632Z" fill="#FF6B6B"/>
<path d="M107.569 126.571H107.568C107.374 126.545 107.234 126.391 107.256 126.225C107.584 123.744 107.658 121.054 107.498 117.507L107.482 117.169C107.425 115.958 107.367 114.702 107.544 113.473C107.606 113.052 107.695 112.63 107.784 112.213C107.955 111.41 108.116 110.651 108.088 109.869C108.081 109.703 108.235 109.566 108.431 109.566C108.624 109.566 108.789 109.707 108.796 109.874C108.826 110.721 108.65 111.546 108.481 112.345C108.394 112.753 108.307 113.161 108.247 113.574C108.077 114.75 108.134 115.98 108.19 117.169L108.205 117.507C108.367 121.089 108.292 123.806 107.96 126.317C107.938 126.484 107.763 126.598 107.569 126.571Z" fill="#FF6B6B"/>
<path d="M110.471 126.311H110.459C110.265 126.281 110.132 126.118 110.16 125.956C111.052 120.789 111.343 115.509 111.025 110.25C111.014 110.083 111.165 109.947 111.36 109.943C111.559 109.943 111.722 110.079 111.732 110.246C112.053 115.54 111.76 120.864 110.861 126.07C110.833 126.228 110.66 126.338 110.471 126.311Z" fill="#FF6B6B"/>
<path d="M114.362 126.188H114.346C114.153 126.153 114.021 125.995 114.051 125.828C114.269 124.643 114.147 123.392 114.028 122.181C113.973 121.61 113.916 121.022 113.892 120.442C113.842 119.156 113.96 117.853 114.073 116.597C114.262 114.499 114.457 112.335 113.855 110.272C113.807 110.11 113.921 109.947 114.111 109.912C114.301 109.877 114.493 109.982 114.541 110.145C115.172 112.304 114.973 114.521 114.779 116.667C114.667 117.91 114.551 119.196 114.6 120.447C114.623 121.013 114.679 121.592 114.734 122.154C114.856 123.401 114.982 124.687 114.751 125.947C114.722 126.109 114.549 126.215 114.362 126.188Z" fill="#FF6B6B"/>
<path d="M117.423 125.961C117.235 125.935 117.096 125.785 117.11 125.623C117.58 120.536 117.727 115.356 117.547 110.225C117.541 110.058 117.695 109.922 117.89 109.926C118.086 109.926 118.249 110.067 118.255 110.234C118.435 115.382 118.288 120.584 117.816 125.693C117.801 125.86 117.631 125.979 117.436 125.961H117.423Z" fill="#FF6B6B"/>
<path d="M120.879 125.192C120.688 125.165 120.548 125.012 120.566 124.849C121.058 120.214 121.567 115.421 120.644 110.711C120.611 110.544 120.741 110.39 120.933 110.368C121.128 110.346 121.309 110.465 121.342 110.632C122.281 115.421 121.768 120.253 121.272 124.928C121.254 125.095 121.082 125.214 120.887 125.192H120.879Z" fill="#FF6B6B"/>
<path d="M123.876 125.706C123.699 125.68 123.562 125.548 123.563 125.39L123.623 110.708C123.624 110.541 123.782 110.409 123.978 110.418C124.168 110.422 124.332 110.567 124.331 110.734L124.271 125.417C124.27 125.588 124.111 125.715 123.915 125.706H123.876Z" fill="#FF6B6B"/>
<path d="M127.439 124.771C127.257 124.749 127.118 124.609 127.125 124.446C127.312 119.894 127.19 115.268 126.763 110.703C126.747 110.531 126.892 110.391 127.087 110.382C127.281 110.373 127.453 110.51 127.469 110.676C127.899 115.268 128.021 119.916 127.833 124.494C127.826 124.661 127.662 124.788 127.467 124.775L127.439 124.771Z" fill="#FF6B6B"/>
<path d="M130.887 123.446L130.814 123.428C130.628 123.367 130.528 123.191 130.59 123.033C131.024 121.94 130.829 120.755 130.623 119.499C130.527 118.92 130.429 118.323 130.398 117.735C130.373 117.265 130.391 116.796 130.408 116.339C130.426 115.883 130.444 115.408 130.416 114.952C130.328 113.446 129.756 111.958 129.202 110.519C129.14 110.356 129.24 110.189 129.425 110.141C129.611 110.093 129.812 110.185 129.874 110.347C130.443 111.827 131.031 113.354 131.124 114.943C131.153 115.43 131.134 115.913 131.116 116.383C131.099 116.826 131.082 117.287 131.105 117.73C131.135 118.292 131.231 118.872 131.324 119.438C131.533 120.707 131.749 122.019 131.262 123.252C131.208 123.389 131.049 123.463 130.887 123.446Z" fill="#FF6B6B"/>
<path d="M93.4775 87.0702C89.9409 90.1867 84.7016 91.2577 80.2428 89.7082C76.4758 88.4046 73.4097 85.2705 72.1056 81.5175C71.8703 80.8327 71.6934 80.1348 71.5753 79.4149C71.3739 78.1551 71.3677 76.8603 71.6631 75.6224C72.4089 72.5717 75.1527 70.1663 78.2407 69.6088C81.3358 69.0558 84.6393 70.276 86.7923 72.5673L89.3628 78.1464L93.4775 87.0702Z" fill="#FFCFCA"/>
<path d="M144.359 235.197C146.106 234.188 147.902 233.31 149.548 232.3C151.194 231.295 152.66 230.079 153.577 228.473C154.038 227.678 154.381 226.805 154.609 225.887C154.846 224.97 154.947 224.092 154.846 223.153C154.758 222.213 154.578 221.226 154.442 220.234C154.297 219.242 154.183 218.245 154.078 217.249C153.885 215.251 153.775 213.254 153.709 211.257C153.634 209.26 153.639 207.258 153.683 205.265C153.757 201.275 153.977 197.303 154.201 193.33C154.648 185.385 155.263 177.458 155.087 169.513C154.951 161.568 154.306 153.628 153.13 145.762C154.438 153.61 155.215 161.546 155.482 169.5C155.794 177.467 155.311 185.429 154.995 193.37C154.837 197.342 154.683 201.31 154.675 205.279C154.661 207.263 154.692 209.234 154.802 211.213C154.894 213.188 155.035 215.164 155.263 217.121C155.381 218.1 155.509 219.075 155.667 220.049C155.82 221.024 156.013 221.994 156.128 223.03C156.264 224.07 156.158 225.202 155.908 226.208C155.671 227.226 155.298 228.227 154.78 229.162C154.258 230.092 153.582 230.939 152.813 231.664C152.041 232.388 151.198 233.002 150.333 233.551C148.608 234.649 146.835 235.544 145.154 236.554L144.359 235.197Z" fill="#D75252"/>
<path d="M60.7324 134.177C62.6647 135.582 64.3072 137.413 65.5907 139.467C66.8895 141.512 67.8368 143.773 68.5545 146.082C69.2792 148.395 69.7269 150.783 70.0403 153.171C70.3511 155.563 70.4854 157.973 70.5359 160.378C70.5591 162.784 70.4577 165.189 70.2527 167.581C70.0271 169.974 69.712 172.357 69.2533 174.714C68.3596 179.433 66.9071 184.077 64.6667 188.3C66.3035 183.814 67.3855 179.192 68.0413 174.517C68.3495 172.173 68.6317 169.824 68.7669 167.467C68.9232 165.11 69.011 162.753 68.9627 160.396C68.9434 158.039 68.817 155.686 68.5641 153.346C68.4539 152.17 68.2898 151.011 68.1006 149.852C67.8908 148.698 67.6643 147.548 67.3768 146.415C67.0818 145.283 66.7469 144.159 66.3373 143.062C66.1516 142.504 65.908 141.973 65.6916 141.429C65.4379 140.902 65.2097 140.358 64.9244 139.849C63.8617 137.755 62.4395 135.845 60.7324 134.177Z" fill="#D75252"/>
<path d="M89.6554 125.627C89.4935 125.627 89.3416 125.526 89.2845 125.368C89.2117 125.162 89.3192 124.938 89.5238 124.863C90.0189 124.688 90.514 124.516 91.0096 124.341C91.215 124.266 91.4393 124.376 91.5113 124.582C91.5833 124.784 91.4753 125.012 91.2703 125.083C90.7752 125.258 90.281 125.429 89.7867 125.605C89.7432 125.622 89.6989 125.627 89.6554 125.627Z" fill="#D75252"/>
<path d="M83.6967 127.774C83.5364 127.774 83.3854 127.673 83.3275 127.515C83.2529 127.308 83.3578 127.084 83.5619 127.01C84.5535 126.645 85.546 126.285 86.5397 125.93C86.7439 125.855 86.9699 125.961 87.0432 126.167C87.1165 126.373 87.0107 126.597 86.8062 126.672C85.8141 127.027 84.8226 127.387 83.8319 127.747C83.7875 127.765 83.7419 127.774 83.6967 127.774ZM77.7612 129.977C77.6023 129.977 77.4522 129.88 77.393 129.722C77.3161 129.516 77.4188 129.292 77.6225 129.213C78.6106 128.84 79.5995 128.471 80.5893 128.103C80.793 128.028 81.02 128.133 81.0955 128.335C81.171 128.542 81.0669 128.766 80.8633 128.84C79.8747 129.209 78.8871 129.578 77.8999 129.951C77.8543 129.968 77.8073 129.977 77.7612 129.977ZM71.8495 132.242C71.6928 132.242 71.5444 132.15 71.4834 131.992C71.4035 131.79 71.5032 131.562 71.7051 131.483C72.3894 131.21 73.0754 130.947 73.7602 130.684L74.6614 130.337C74.8642 130.262 75.092 130.363 75.1697 130.565C75.2469 130.767 75.1455 130.995 74.9427 131.074L74.0425 131.421C73.3595 131.68 72.676 131.948 71.9939 132.216C71.9465 132.233 71.8978 132.242 71.8495 132.242ZM66.0334 134.74C65.8873 134.74 65.7464 134.661 65.6788 134.516C65.5844 134.323 65.6669 134.086 65.8627 133.993C66.7621 133.559 67.7111 133.133 68.7641 132.681C68.9643 132.598 69.1956 132.69 69.2807 132.892C69.3655 133.089 69.2728 133.322 69.0727 133.405C68.0311 133.849 67.0926 134.274 66.2042 134.7C66.1489 134.726 66.0909 134.74 66.0334 134.74ZM60.533 137.865C60.407 137.865 60.2836 137.803 60.2073 137.694C60.0848 137.514 60.1318 137.268 60.3113 137.145C61.1572 136.57 62.0723 136.004 63.0314 135.464C63.2206 135.359 63.4607 135.424 63.5674 135.613C63.6741 135.802 63.6074 136.043 63.4178 136.149C62.478 136.68 61.5816 137.233 60.7542 137.795C60.6861 137.843 60.6093 137.865 60.533 137.865ZM55.6541 141.886C55.5514 141.886 55.4486 141.846 55.3718 141.767C55.2204 141.609 55.2239 141.363 55.3797 141.21C56.1734 140.437 56.9722 139.717 57.7536 139.072C57.9212 138.932 58.1688 138.954 58.308 139.12C58.4462 139.291 58.4234 139.537 58.2561 139.678C57.4902 140.31 56.7075 141.017 55.928 141.776C55.8516 141.851 55.7528 141.886 55.6541 141.886ZM51.3603 146.534C51.2699 146.534 51.1794 146.503 51.1053 146.442C50.9398 146.301 50.9196 146.051 51.0605 145.889C51.8159 144.998 52.5033 144.221 53.1622 143.501C53.3088 143.339 53.5581 143.33 53.7183 143.475C53.8785 143.624 53.8895 143.874 53.7424 144.032C53.0902 144.743 52.4094 145.516 51.6601 146.398C51.582 146.49 51.4718 146.534 51.3603 146.534ZM47.3242 151.415C47.2364 151.415 47.1482 151.384 47.0748 151.323C46.9067 151.187 46.8821 150.937 47.0204 150.77L49.0286 148.325C49.1669 148.154 49.4153 148.132 49.5825 148.268C49.7507 148.408 49.7748 148.654 49.6365 148.825L47.6288 151.27C47.5511 151.363 47.4378 151.415 47.3242 151.415ZM43.3139 156.314C43.2266 156.314 43.1388 156.283 43.0655 156.226C42.8974 156.086 42.8719 155.84 43.0093 155.673C43.6769 154.852 44.3446 154.036 45.0131 153.219C45.1509 153.053 45.3989 153.026 45.5671 153.162C45.7352 153.303 45.7597 153.548 45.6224 153.72C44.9538 154.536 44.2862 155.353 43.6194 156.169C43.5413 156.266 43.4285 156.314 43.3139 156.314ZM39.3235 161.23C39.2361 161.23 39.1492 161.199 39.0763 161.142C38.9073 161.006 38.8806 160.756 39.0171 160.589C39.6803 159.768 40.3445 158.948 41.0099 158.127C41.1473 157.96 41.3949 157.934 41.5634 158.07C41.7324 158.206 41.7579 158.456 41.6209 158.623C40.9559 159.444 40.2922 160.26 39.6298 161.081C39.5517 161.177 39.438 161.23 39.3235 161.23ZM35.3664 166.173C35.2808 166.173 35.1943 166.142 35.1219 166.085C34.9516 165.949 34.923 165.703 35.0582 165.532C35.714 164.707 36.3724 163.881 37.0326 163.056C37.1687 162.885 37.4158 162.859 37.5857 162.995C37.7555 163.131 37.7828 163.377 37.6471 163.548C36.9878 164.373 36.3303 165.198 35.6749 166.023C35.5968 166.12 35.4822 166.173 35.3664 166.173ZM31.458 171.155C31.3737 171.155 31.289 171.124 31.217 171.071C31.0454 170.935 31.0137 170.689 31.1472 170.518C31.7938 169.684 32.4434 168.85 33.0957 168.021C33.2296 167.849 33.4771 167.819 33.6479 167.955C33.8191 168.086 33.8489 168.337 33.7146 168.503C33.0636 169.337 32.4149 170.167 31.7692 171.001C31.6915 171.102 31.5756 171.155 31.458 171.155ZM27.6132 176.185C27.5311 176.185 27.4477 176.159 27.3771 176.106C27.2037 175.974 27.169 175.729 27.2994 175.553C27.9345 174.71 28.5728 173.867 29.2145 173.029C29.3462 172.858 29.5924 172.823 29.7663 172.954C29.9388 173.086 29.9717 173.332 29.8396 173.507C29.1996 174.346 28.5622 175.184 27.9284 176.027C27.8511 176.128 27.7331 176.185 27.6132 176.185ZM23.8488 181.272C23.7685 181.272 23.6877 181.25 23.6179 181.198C23.4419 181.07 23.4028 180.825 23.5306 180.649C24.1512 179.793 24.7759 178.942 25.4045 178.094C25.5335 177.919 25.7802 177.884 25.9544 178.011C26.1291 178.138 26.166 178.389 26.037 178.56C25.4101 179.407 24.7868 180.258 24.1675 181.11C24.0907 181.22 23.9704 181.272 23.8488 181.272ZM20.1801 186.434C20.1024 186.434 20.0243 186.412 19.9558 186.364C19.7771 186.241 19.7332 185.995 19.8575 185.816C20.4606 184.951 21.0685 184.086 21.6809 183.221C21.8068 183.046 22.0522 183.006 22.23 183.129C22.4069 183.256 22.4481 183.502 22.3226 183.678C21.7116 184.538 21.1049 185.399 20.5036 186.263C20.4268 186.377 20.3043 186.434 20.1801 186.434ZM16.6237 191.671C16.5491 191.671 16.4736 191.649 16.4069 191.605C16.2256 191.487 16.176 191.241 16.2958 191.061C16.8792 190.179 17.4678 189.301 18.0617 188.427C18.1838 188.247 18.4282 188.203 18.6078 188.322C18.7877 188.445 18.8347 188.691 18.7122 188.871C18.1205 189.74 17.5337 190.618 16.9525 191.496C16.8766 191.61 16.7515 191.671 16.6237 191.671ZM13.1977 196.996C13.1262 196.996 13.0542 196.978 12.9897 196.934C12.8053 196.82 12.7491 196.579 12.8641 196.394C13.4247 195.499 13.9909 194.603 14.5629 193.717C14.681 193.532 14.9241 193.48 15.1067 193.598C15.2898 193.717 15.342 193.958 15.2248 194.142C14.6546 195.029 14.0901 195.916 13.5318 196.811C13.4572 196.93 13.329 196.996 13.1977 196.996ZM9.94253 202.425C9.87712 202.425 9.81083 202.408 9.74982 202.373C9.5602 202.267 9.49392 202.026 9.60058 201.837C10.0948 200.964 10.6194 200.064 11.204 199.094C11.3155 198.909 11.5578 198.848 11.7439 198.962C11.9301 199.072 11.9902 199.313 11.8778 199.502C11.2975 200.468 10.7765 201.354 10.2858 202.223C10.2133 202.355 10.0799 202.425 9.94253 202.425ZM7.04678 208.053C6.99235 208.053 6.93659 208.044 6.88348 208.017C6.68596 207.93 6.59862 207.693 6.68904 207.495C7.11263 206.569 7.58229 205.608 8.08576 204.633C8.18497 204.44 8.42288 204.365 8.61602 204.466C8.80871 204.563 8.88465 204.804 8.78457 204.998C8.28724 205.959 7.82328 206.911 7.40497 207.824C7.33869 207.969 7.19602 208.053 7.04678 208.053ZM4.77962 213.961L4.66506 213.943C4.45656 213.882 4.33935 213.662 4.403 213.452C4.70192 212.473 5.05307 211.454 5.44769 210.436C5.52582 210.23 5.75365 210.129 5.95644 210.208C6.15923 210.287 6.26019 210.515 6.18162 210.717C5.79402 211.722 5.44901 212.719 5.15579 213.68C5.10443 213.851 4.94818 213.961 4.77962 213.961ZM3.49437 220.15H3.45268C3.23672 220.124 3.08002 219.931 3.1024 219.715C3.21038 218.684 3.37893 217.617 3.60323 216.551C3.648 216.34 3.85694 216.204 4.06939 216.248C4.28185 216.292 4.41835 216.498 4.37314 216.713C4.15455 217.753 3.9904 218.789 3.88505 219.799C3.86398 220.001 3.69321 220.15 3.49437 220.15ZM3.58612 226.466C3.39299 226.466 3.22399 226.322 3.19677 226.124C3.17746 225.988 3.15945 225.852 3.14233 225.716C3.02865 224.798 2.96502 223.859 2.95317 222.92C2.95009 222.705 3.12391 222.525 3.34119 222.525C3.56461 222.538 3.73755 222.696 3.74018 222.911C3.75204 223.82 3.81394 224.733 3.92367 225.619C3.94035 225.751 3.9579 225.883 3.97633 226.019C4.00618 226.234 3.85608 226.431 3.64099 226.462L3.58612 226.466ZM5.17379 232.577C5.01489 232.577 4.86566 232.48 4.80596 232.322C4.42188 231.308 4.09311 230.285 3.82842 229.271C3.77312 229.061 3.89909 228.846 4.10935 228.793C4.3196 228.736 4.53511 228.863 4.58998 229.074C4.84764 230.057 5.16764 231.058 5.54163 232.041C5.61888 232.247 5.5166 232.476 5.31337 232.55C5.26728 232.568 5.22032 232.577 5.17379 232.577ZM7.94444 238.261C7.81012 238.261 7.6793 238.191 7.60556 238.068C7.04985 237.133 6.53671 236.185 6.08152 235.259C5.98583 235.061 6.06661 234.828 6.26195 234.732C6.45772 234.635 6.69298 234.714 6.78823 234.912C7.2342 235.82 7.73725 236.747 8.28198 237.664C8.39304 237.853 8.33202 238.094 8.14503 238.204C8.08182 238.243 8.01247 238.261 7.94444 238.261ZM11.5289 243.471C11.4117 243.471 11.2958 243.419 11.2181 243.318C10.5496 242.462 9.91441 241.597 9.33149 240.754C9.20815 240.574 9.25293 240.328 9.43158 240.206C9.61024 240.083 9.8556 240.127 9.97894 240.306C10.554 241.136 11.1795 241.988 11.8392 242.835C11.9727 243.006 11.9424 243.256 11.7707 243.388C11.6987 243.445 11.6136 243.471 11.5289 243.471ZM15.6427 248.282C15.5373 248.282 15.4315 248.238 15.3543 248.155C14.6107 247.352 13.8974 246.557 13.2351 245.785C13.0933 245.618 13.1126 245.372 13.2776 245.227C13.4423 245.087 13.6907 245.104 13.832 245.271C14.4883 246.035 15.1945 246.825 15.9315 247.619C16.079 247.777 16.0698 248.028 15.9105 248.177C15.8345 248.247 15.7388 248.282 15.6427 248.282ZM20.091 252.79C19.9922 252.79 19.8943 252.755 19.818 252.68C19.0235 251.917 18.2623 251.166 17.5547 250.451C17.402 250.297 17.4038 250.047 17.5583 249.893C17.7128 249.739 17.9621 249.744 18.1148 249.897C18.8176 250.609 19.5739 251.355 20.364 252.114C20.5203 252.268 20.5251 252.514 20.3741 252.672C20.2969 252.751 20.1941 252.79 20.091 252.79ZM24.728 257.105C24.6337 257.105 24.5388 257.074 24.4638 257.004C23.6882 256.302 22.9073 255.586 22.1255 254.862C21.9662 254.713 21.9569 254.463 22.1049 254.304C22.2528 254.146 22.5021 254.138 22.661 254.283C23.4402 255.007 24.2193 255.718 24.9923 256.42C25.1534 256.565 25.1657 256.815 25.0195 256.978C24.9418 257.061 24.8351 257.105 24.728 257.105ZM29.4695 261.301C29.3796 261.301 29.2891 261.271 29.2149 261.209C28.3981 260.516 27.5922 259.813 26.8192 259.124C26.6572 258.979 26.6427 258.733 26.7871 258.571C26.932 258.409 27.1804 258.391 27.3433 258.536C28.1114 259.221 28.9125 259.919 29.7241 260.608C29.89 260.748 29.9102 260.998 29.7698 261.165C29.6916 261.253 29.581 261.301 29.4695 261.301ZM34.3857 265.291C34.301 265.291 34.2163 265.265 34.1443 265.208C33.3046 264.554 32.468 263.891 31.6586 263.237C31.49 263.097 31.4641 262.851 31.6006 262.68C31.7376 262.513 31.9856 262.486 32.1546 262.623C32.9596 263.277 33.7914 263.939 34.6272 264.585C34.7988 264.721 34.83 264.967 34.6965 265.138C34.6188 265.239 34.5029 265.291 34.3857 265.291ZM39.4525 269.088C39.3726 269.088 39.2919 269.062 39.2225 269.009C38.3652 268.39 37.5132 267.767 36.6669 267.131C36.4931 267.003 36.4576 266.753 36.5879 266.582C36.7179 266.406 36.9646 266.371 37.1388 266.503C37.9816 267.135 38.8301 267.758 39.6834 268.373C39.8599 268.5 39.8994 268.746 39.7716 268.921C39.6948 269.031 39.5745 269.088 39.4525 269.088ZM44.6334 272.727C44.5566 272.727 44.4798 272.701 44.4113 272.657C43.5391 272.06 42.67 271.459 41.8053 270.853C41.6275 270.726 41.584 270.48 41.7091 270.304C41.8338 270.124 42.0796 270.08 42.2574 270.208C43.1195 270.813 43.986 271.41 44.856 272.007C45.0355 272.13 45.0811 272.376 44.9582 272.552C44.8823 272.666 44.759 272.727 44.6334 272.727ZM49.8946 276.247C49.8204 276.247 49.7454 276.226 49.6787 276.182C48.7959 275.602 47.9154 275.018 47.0375 274.43C46.8567 274.312 46.8084 274.066 46.9291 273.886C47.0498 273.706 47.2943 273.658 47.4752 273.776C48.3508 274.364 49.2301 274.948 50.111 275.523C50.2923 275.646 50.3432 275.888 50.2234 276.072C50.1479 276.186 50.0224 276.247 49.8946 276.247ZM55.205 279.693C55.1322 279.693 55.0584 279.676 54.9926 279.632C54.1046 279.061 53.2175 278.491 52.3317 277.915C52.1495 277.797 52.0973 277.551 52.2158 277.371C52.3339 277.187 52.5775 277.134 52.7596 277.253C53.645 277.828 54.5312 278.398 55.4184 278.969C55.6014 279.087 55.6541 279.333 55.5364 279.513C55.4614 279.632 55.3345 279.693 55.205 279.693Z" fill="#D75252"/>
<path d="M112.82 69.2831C112.45 67.0708 110.979 65.4774 109.534 65.7188C108.089 65.9602 107.217 67.9487 107.587 70.1566C107.956 72.3689 109.428 73.9622 110.873 73.7208C112.318 73.4794 113.19 71.491 112.82 69.2831Z" fill="#1F3C49"/>
<path d="M132.826 67.3261C132.466 65.1708 131.03 63.6126 129.621 63.8496C128.211 64.0866 127.361 66.0224 127.721 68.182C128.082 70.3373 129.518 71.8911 130.927 71.6585C132.337 71.4214 133.185 69.4813 132.826 67.3261Z" fill="#1F3C49"/>
<path d="M104.833 60.7372C104.601 60.7372 104.372 60.6362 104.217 60.4431C103.946 60.1051 104.001 59.6091 104.342 59.337C106.471 57.6382 109.578 57.2388 112.069 58.3405C112.467 58.5161 112.646 58.9814 112.47 59.3764C112.294 59.7759 111.83 59.9559 111.432 59.7803C109.461 58.9068 107.007 59.2228 105.323 60.566C105.178 60.6845 105.004 60.7372 104.833 60.7372Z" fill="#1F3C49"/>
<path d="M125.424 58.8983C125.184 58.8983 124.946 58.7885 124.792 58.5778C124.533 58.2311 124.606 57.7351 124.955 57.4805C126.971 55.9837 129.847 55.7072 132.111 56.7826C132.504 56.9713 132.67 57.441 132.483 57.8316C132.296 58.2267 131.826 58.3935 131.434 58.2047C129.68 57.3707 127.453 57.5859 125.893 58.7447C125.752 58.8456 125.587 58.8983 125.424 58.8983Z" fill="#1F3C49"/>
<path d="M120.645 74.5953C121.166 74.0159 122.051 73.7657 122.889 73.9105C123.743 74.051 124.531 74.6524 124.93 75.4293C125.35 76.1974 125.406 77.1895 125.039 77.9708C124.69 78.7477 123.983 79.3403 123.21 79.4413C123.747 78.897 124.047 78.2825 124.158 77.6767C124.27 77.0753 124.158 76.5003 123.887 75.9823C123.612 75.4644 123.199 75.0474 122.637 74.8016C122.074 74.5558 121.397 74.4592 120.645 74.5953Z" fill="#1F3C49"/>
<path d="M132.44 82.3112L132.45 82.3639C132.855 84.8001 132.303 87.1792 131.064 89.1325C129.591 91.4501 127.152 93.1664 124.194 93.658C121.007 94.1891 117.927 93.1839 115.747 91.1911C114.191 89.7777 113.09 87.8595 112.722 85.6516L112.713 85.599L132.44 82.3112Z" fill="#EA5353"/>
<path d="M131.065 89.1325C129.592 91.4501 127.153 93.1664 124.195 93.658C121.008 94.1891 117.928 93.1839 115.748 91.1911C116.504 90.7478 117.293 90.3571 118.093 90.006C121.15 88.6716 124.53 87.8859 127.84 88.338C128.942 88.4872 130.015 88.7682 131.065 89.1325Z" fill="#FF948F"/>
<path d="M130.604 82.6185C130.374 82.8643 130.134 83.097 129.885 83.3296C126.218 86.749 118.974 88.8428 114.824 85.2478L130.604 82.6185Z" fill="white"/>
<path d="M110.793 68.068C109.57 68.068 109.568 69.9686 110.793 69.9686C112.016 69.9686 112.018 68.068 110.793 68.068Z" fill="white"/>
<path d="M130.892 65.9557C129.67 65.9557 129.668 67.8563 130.892 67.8563C132.115 67.8563 132.117 65.9557 130.892 65.9557Z" fill="white"/>
</g>
<defs>
<clipPath id="clip0_1065_49932">
<rect width="200" height="200" fill="white"/>
</clipPath>
</defs>
</svg>
