<svg width="200" height="200" viewBox="0 0 200 200" fill="none" xmlns="http://www.w3.org/2000/svg">
<g clip-path="url(#clip0_1065_49922)">
<rect width="200" height="200" fill="#FFF1F1"/>
<path d="M173.99 132.023C173.99 117.977 162.604 106.591 148.562 106.591C146.753 106.591 144.993 106.784 143.294 107.139C141.249 96.89 143.018 84.3888 143.523 76.8125C144.686 59.2546 144.12 36.4162 128.774 23.8316C119.881 16.5406 106.155 14.5346 95.1682 18.5027C82.6274 23.0327 75.0468 34.5946 71.4738 46.1959C69.1825 53.6317 68.3836 61.3045 66.4215 68.6832C65.0345 68.0379 63.4937 67.6736 61.8652 67.6736C56.7559 67.6736 52.485 71.2203 51.3656 75.9873C50.2595 75.8468 49.1358 75.7678 47.9901 75.7678C33.3073 75.7678 21.4031 87.6677 21.4031 102.35C21.4031 105.485 21.9518 108.487 22.9438 111.279C15.7889 115.594 11 123.442 11 132.41C11 144.819 20.174 155.086 32.109 156.811C34.7822 168.219 45.0141 176.721 57.2387 176.721C57.7743 176.721 58.301 176.699 58.8277 176.664C62.9538 187.076 73.1023 194.442 84.9846 194.442C95.8837 194.442 105.334 188.235 110 179.166C114.508 182.239 119.956 184.039 125.824 184.039C141.038 184.039 153.421 171.963 153.93 156.881C165.395 154.414 173.99 144.226 173.99 132.023Z" fill="#602826"/>
<path d="M249.183 353.876C246.642 347.511 244.1 341.151 241.554 334.782C239.118 328.676 236.989 323.413 233.781 317.658C232.459 315.297 230.664 312.207 229.176 309.858C222.03 296.725 214.888 283.587 207.747 270.454C203.226 262.14 198.709 253.831 194.192 245.522C191.22 240.061 188.244 234.587 185.984 228.798C183.183 221.625 181.515 214.071 179.997 206.521C176.889 191.026 174.347 175.33 169.093 160.423C165.09 149.072 159.375 138.063 150.627 129.789C137.66 117.529 119.409 112.832 101.895 114.022C98.8702 114.224 95.8546 114.614 92.8742 115.185C84.6834 116.761 76.7648 119.732 69.531 123.894C62.0425 128.204 55.9236 133.485 51.0732 140.67C49.5501 142.922 48.1761 145.27 46.9208 147.68C42.1538 156.828 39.0505 166.735 35.1702 176.291C28.2831 193.269 18.3936 209.335 15.1849 227.376C11.8532 246.11 19.9914 291.506 19.9387 318.067C19.4076 328.162 15.6853 341.019 14.7942 346.598C14.1051 350.992 13.3676 355.553 13.8461 360.004C14.3509 364.727 15.6063 369.292 16.7783 373.874C16.9626 374.59 17.1513 375.327 17.5859 375.929C18.3672 377.008 20.1757 377.302 21.0185 376.13C22.8533 373.589 21.8569 369.805 21.2336 367C20.6542 364.384 19.9211 361.777 19.7763 359.095C19.6358 356.457 20.3162 354.069 21.3609 351.664C22.1115 349.934 22.7919 348.178 23.582 346.458C23.8014 345.984 24.0341 345.496 24.2974 345.035C24.394 344.855 24.4993 344.689 24.6091 344.517C25.1446 343.683 25.8118 342.959 26.6941 342.542C27.4403 342.191 28.6737 341.95 29.4463 342.353C30.2891 342.792 30.2539 343.89 30.3242 344.702C30.4163 345.668 30.2934 346.638 30.1486 347.59C29.9467 348.867 29.6526 350.189 29.6394 351.492C29.635 351.848 29.6526 352.203 29.7009 352.555C29.7316 352.831 29.7887 353.112 29.8589 353.389C30.649 356.325 34.6302 358.937 36.1446 355.008C36.465 354.166 36.5748 353.257 36.7021 352.366C37.3034 348.099 38.8002 343.947 38.6247 339.623C38.5105 336.867 38.0979 334.132 37.6809 331.406C36.9918 326.867 34.9639 320.248 34.4898 318.067C37.321 290.979 38.7432 267.974 40.3014 240.987C40.4682 238.134 40.6394 235.246 41.4515 232.503C42.4962 228.995 44.5417 225.883 46.5433 222.824C58.8689 203.971 70.5844 184.723 81.6722 165.115C85.5525 158.259 89.4636 150.933 89.2836 143.054C99.634 150.577 113.909 152.338 125.782 147.557C140.557 180.68 147.457 217.192 165.173 248.836C179.382 274.207 200.443 294.192 217.61 317.658C218.233 318.51 217.957 321.06 218.014 322.144C218.202 325.656 217.908 329.159 218.339 332.662C218.778 336.199 219.594 339.689 220.783 343.047C221.323 344.57 222.789 345.966 224.343 344.601C224.484 344.518 224.615 344.412 224.743 344.272C226.279 342.639 226.288 340.4 226.191 338.298C226.082 335.905 226.205 333.632 227.249 331.432C227.535 330.84 228.013 330.282 228.658 330.155C229.049 330.076 229.457 330.173 229.839 330.3C231.121 330.735 232.086 331.529 232.868 332.512C233.28 333.026 233.645 333.592 233.969 334.185C234.286 334.747 234.566 335.33 234.839 335.914C235.181 336.643 235.501 337.371 235.835 338.065C235.905 338.21 235.971 338.35 236.041 338.482C236.103 338.609 236.169 338.737 236.234 338.864C236.643 339.676 237.051 340.488 237.463 341.304C238.21 342.784 238.956 344.263 239.702 345.747C240.352 347.037 241.006 348.332 241.655 349.622C242.797 351.879 244.017 354.411 246.058 356.009C247.586 357.207 250.022 355.978 249.183 353.876Z" fill="#FFCFCA"/>
<path d="M125.172 122.252C123.104 123.52 120.607 123.806 118.201 124.056C115.3 124.367 112.394 124.675 109.479 124.556C103.799 124.328 98.6461 122.304 93.2602 120.5C93.3524 117.226 93.4358 113.947 93.5323 110.672C93.6465 106.577 93.7562 102.473 93.4577 98.3818C93.3655 97.1308 93.2426 95.8798 93.0802 94.6376C92.7027 91.5342 92.1453 88.4572 91.5922 85.3714C91.1357 82.8431 90.6792 80.306 90.2227 77.7776C91.68 79.191 93.0758 79.9285 94.8623 80.9161C102.399 85.0729 110.094 88.9444 117.832 92.715C120.168 93.8475 122.52 94.9844 125.04 95.5945L125.11 109.952L125.172 122.252Z" fill="#FFCFCA"/>
<path d="M125.11 109.952C116.402 107.714 108.018 104.242 100.406 99.4967C97.9832 97.9867 95.4725 96.3757 93.0802 94.6375C92.7027 91.5341 92.1453 88.4571 91.5922 85.3713C91.1357 82.843 90.6792 80.3059 90.2227 77.7775C91.68 79.191 93.0758 79.9284 94.8623 80.916C102.399 85.0728 110.094 88.9444 117.832 92.7149C120.168 93.8474 122.52 94.9843 125.04 95.5944L125.11 109.952Z" fill="#F9BFBB"/>
<path d="M139.999 55.1373C139.555 53.0742 138.998 51.0375 138.344 49.0534C136.281 42.7853 132.278 36.9517 126.821 33.0055C116.348 25.4381 101.332 26.733 92.3948 35.9728C90.2747 38.1632 88.5364 40.6915 87.2679 43.4305C84.147 50.1508 83.7607 57.4725 85.1215 64.579C86.311 70.8648 88.8744 76.9837 92.0963 82.374C94.0804 85.688 96.4024 88.8265 99.1853 91.5524C100.779 93.115 102.543 94.5372 104.435 95.7575C108.241 98.2068 112.564 99.8397 117.094 100.134C121.185 100.397 125.395 99.4534 128.924 97.4035C132.901 95.0946 135.381 91.4207 137.203 87.3604C141.684 77.3612 142.299 65.83 139.999 55.1373Z" fill="#FFCFCA"/>
<path d="M94.0468 80.2706C90.0919 82.0967 85.1668 81.6577 81.6289 79.1074C78.6397 76.9566 76.7522 73.3704 76.5898 69.7008C76.5635 69.0336 76.5898 68.3664 76.6776 67.6992C76.8312 66.5316 77.1648 65.3816 77.7574 64.3632C79.2235 61.8612 82.2874 60.4522 85.1712 60.777C88.0595 61.1062 90.6581 63.0639 91.9618 65.6581L92.765 71.2766L94.0468 80.2706Z" fill="#FFCFCA"/>
<path d="M128.385 29.3699C124.988 39.0092 117.899 47.1604 109.216 52.5638C100.538 57.9673 90.3505 60.7151 80.1406 61.2463C79.4163 61.2858 81.5233 47.8057 81.9095 46.5108C83.9814 39.6325 88.485 33.5179 94.4283 29.4796C95.3194 28.8739 96.2412 28.3164 97.1893 27.8116C103.067 24.6819 109.963 23.5538 116.542 24.5107C119.251 24.9014 121.898 25.5993 124.316 26.8722C124.786 27.1181 128.592 28.7861 128.385 29.3699Z" fill="#602826"/>
<path d="M143.354 226.971C145.268 211.726 146.716 196.512 149.802 181.443C152.541 168.073 155.675 153.921 150.588 140.735C148.446 138.47 145.86 136.605 143.192 134.959C120.366 120.882 91.7119 122.321 66.4109 131.206C65.059 152.139 67.7805 173.169 69.5363 194.129C70.063 197.136 70.4405 200.169 70.7917 203.202C73.004 222.169 74.1935 241.223 75.4752 260.269C76.0766 260.186 76.6911 260.133 77.3188 260.111C81.5985 259.967 85.8563 260.673 90.079 261.384C100.947 263.202 111.811 265.019 122.675 266.836C126.885 267.543 131.116 268.254 135.26 269.259C137.692 258.329 140.281 247.43 142.862 236.535C142.792 233.379 142.946 230.202 143.354 226.971Z" fill="#FFCFCA"/>
<path d="M179.049 184.749C175.572 189.112 171.429 192.005 166.675 193.962C165.345 194.507 164.142 194.963 163.005 195.349C158.264 196.96 154.757 197.351 148.889 198.005L144.179 245.174C138.161 246.978 131.879 247.738 125.616 247.957C115.902 248.291 106.074 247.698 96.3948 246.904C87.471 246.175 78.3892 244.731 70.3301 240.622C70.5408 229.205 70.2994 217.784 69.6322 206.38C69.3601 201.617 69.0133 196.859 68.5919 192.105C68.5831 192.048 68.5787 191.991 68.5744 191.934C67.4024 193.615 66.204 194.897 65.2296 196.697C53.6721 189.046 43.4095 179.951 34.332 169.53C34.5296 169.061 34.7227 168.587 34.9158 168.104C36.0351 165.33 37.3959 162.749 38.9015 160.159C42.1146 154.606 45.3891 149.053 48.8612 143.654C49.5064 142.645 50.1693 141.653 50.854 140.67C55.441 134.055 60.9191 128.028 67.5428 123.41C71.0851 120.939 74.882 118.893 78.9028 117.318C80.9834 116.501 92.5804 113.319 92.6989 113.516C94.1123 115.852 95.5433 116.769 98.1462 117.572C104.41 119.508 111.122 119.679 117.622 118.823C121.235 118.345 126.252 115.136 126.252 115.136C126.252 115.136 137.572 118.367 143.358 121.861C145.877 123.375 148.239 125.148 150.495 127.031C157.36 132.755 162.566 139.84 166.328 147.925C170.191 156.221 172.649 165.057 175.52 173.722C176.731 177.383 177.925 181.057 179.049 184.749Z" fill="#FF6B6B"/>
<path d="M151.429 175.434C151.548 173.314 151.64 171.181 151.486 169.061C151.311 166.55 150.789 164.088 150.2 161.665C148.888 156.27 147.242 150.981 145.275 145.858C145.71 146.697 146.193 147.517 146.676 148.325C150.139 154.203 153.427 160.444 154.476 167.419C155.279 172.731 154.748 178.274 155.999 183.472C157.096 188.002 159.532 192.057 162.702 195.069C162.803 195.161 162.903 195.257 163.004 195.349C158.264 196.96 154.757 197.351 148.888 198.005C150.095 190.043 150.973 183.494 151.429 175.434Z" fill="#EF5D30"/>
<path d="M77.7351 179.271C75.9266 188.554 74.0128 198.093 69.6321 206.38C69.36 201.618 69.0132 196.859 68.5918 192.106C72.4063 188.392 76.3699 184.415 77.7351 179.271Z" fill="#EF5D30"/>
<path d="M110.866 53.5432C111.428 53.4862 111.998 53.53 112.56 53.5739C113.561 53.6573 114.562 53.7364 115.558 53.8198C115.892 53.8461 116.304 53.8285 116.449 53.53C116.519 53.3808 116.498 53.2008 116.436 53.0516C116.19 52.4766 115.484 52.279 114.865 52.2C113.324 52.0069 111.7 52.1122 110.26 52.7224C109.979 52.8409 108.368 53.5739 108.482 53.9514C108.583 54.285 110.541 53.574 110.866 53.5432Z" fill="#211A17"/>
<path d="M132.662 52.8628C132.095 52.8496 131.534 52.933 130.972 53.0208C129.984 53.1744 128.992 53.3324 128 53.4861C127.671 53.5343 127.258 53.5475 127.091 53.2622C127.008 53.1174 127.017 52.9374 127.069 52.7837C127.271 52.1912 127.965 51.941 128.575 51.8181C130.098 51.5108 131.727 51.502 133.206 51.998C133.496 52.099 135.155 52.7135 135.071 53.0954C134.992 53.4378 132.987 52.8716 132.662 52.8628Z" fill="#211A17"/>
<path d="M130.886 79.1423C129.762 82.0613 127.704 84.0673 125.202 84.278C122.796 84.4755 120.514 82.9524 118.934 80.4329C117.849 78.7034 117.094 76.4999 116.857 74.0593L117.327 74.0199L131.246 72.8698L131.764 72.8259C131.922 75.1392 131.584 77.3207 130.886 79.1423Z" fill="#CE7872"/>
<path d="M131.247 72.8699C129.698 75.2139 127.336 76.7853 124.58 77.0179C121.827 77.2462 119.238 76.0742 117.328 74.0199L131.247 72.8699Z" fill="white"/>
<path d="M130.886 79.1423C129.762 82.0613 127.704 84.0673 125.202 84.278C122.796 84.4755 120.514 82.9524 118.934 80.4329C119.61 79.9851 120.321 79.5901 121.062 79.2609C123.209 78.3083 125.619 77.8914 127.932 78.2601C128.964 78.4225 129.942 78.7341 130.886 79.1423Z" fill="#EA8C8B"/>
<path d="M116.379 62.5548C116.437 64.4511 115.396 66.0225 114.057 66.062C112.719 66.1015 111.591 64.5959 111.533 62.6997C111.476 60.8034 112.512 59.232 113.851 59.1925C115.19 59.153 116.322 60.6586 116.379 62.5548Z" fill="#211A17"/>
<path d="M114.624 61.4533C113.847 61.4753 113.882 62.6912 114.663 62.6649C115.44 62.6429 115.405 61.4314 114.624 61.4533Z" fill="white"/>
<path d="M129.311 62.1635C129.368 64.0597 130.5 65.5654 131.839 65.5259C133.178 65.4863 134.214 63.9149 134.157 62.0186C134.1 60.1224 132.972 58.6168 131.633 58.6563C130.294 58.6958 129.254 60.2672 129.311 62.1635Z" fill="#211A17"/>
<path d="M132.454 60.558C131.672 60.58 131.707 61.7914 132.489 61.7695C133.27 61.7475 133.235 60.5361 132.454 60.558Z" fill="white"/>
<path d="M125.168 66.4304C124.378 65.8159 123.149 65.8335 122.402 66.5051L124.566 70.2405C125.168 70.201 125.659 69.7006 125.883 69.1387C126.252 68.2082 125.958 67.0449 125.168 66.4304Z" fill="#CE7872"/>
<path d="M112.894 72.2425C113.096 75.1352 110.37 77.6855 106.805 77.9313C103.246 78.1771 100.19 76.0306 99.993 73.138C99.791 70.2409 102.517 67.695 106.081 67.4448C109.641 67.199 112.696 69.3455 112.894 72.2425Z" fill="#F9BFBB"/>
<path d="M140.381 69.2052C140.495 70.8293 138.968 72.2603 136.966 72.3964C134.964 72.5368 133.252 71.3297 133.143 69.7056C133.029 68.0815 134.556 66.6505 136.558 66.5145C138.559 66.374 140.271 67.5811 140.381 69.2052Z" fill="#F9BFBB"/>
</g>
<defs>
<clipPath id="clip0_1065_49922">
<rect width="200" height="200" fill="white"/>
</clipPath>
</defs>
</svg>
