<svg width="200" height="200" viewBox="0 0 200 200" fill="none" xmlns="http://www.w3.org/2000/svg">
<g clip-path="url(#clip0_1065_49926)">
<rect width="200" height="200" fill="#FFF1F1"/>
<path d="M160.366 132.07L160.349 132.026C157.267 123.888 151.789 116.386 145.692 110.254C139.012 103.534 133.424 97.7003 131.242 88.0917C129.623 80.9456 129.666 73.545 129.548 66.2233C129.359 54.3805 128.253 41.6423 121.528 31.5421C115.633 22.6754 106.082 16.6662 95.3188 16.5038C81.4919 16.2974 68.3499 24.6375 61.3707 36.3925C53.9963 48.8059 53.2413 63.4228 47.8994 76.6088C44.9189 83.97 39.928 90.541 35.7317 97.2832C29.5732 107.16 22.1726 116.891 19.3239 128.326C12.7967 154.689 27.0801 183.01 52.2932 193.031C54.6679 193.975 57.1129 194.743 59.5973 195.331C60.7342 195.599 61.8798 195.831 63.0342 196.024C80.4473 198.957 98.1589 196.705 115.076 192.034C125.049 189.282 134.907 185.595 143.331 179.577C158.246 168.933 167.161 150.071 160.366 132.07Z" fill="#603813"/>
<path d="M278.522 206.705C275.691 206.073 272.838 205.533 269.985 205.002C266.701 204.392 263.409 203.856 260.143 203.163C259.92 203.114 259.38 202.943 259.397 202.64C259.402 202.522 259.507 202.43 259.621 202.395C259.946 202.298 260.367 202.452 260.679 202.535C262.97 203.154 265.222 203.553 267.562 203.922C269.598 204.247 271.622 204.616 273.641 205.024C275.063 205.314 276.538 205.796 277.978 205.911C278.992 205.99 280.085 205.717 280.445 204.642C281.498 201.49 275.177 200.665 273.312 200.266C267.623 199.045 261.983 197.579 256.281 196.434C255.772 196.333 255.245 196.298 254.784 196.034C254.696 195.982 254.6 195.911 254.573 195.81C254.538 195.67 254.644 195.538 254.749 195.437C255.521 194.709 256.632 194.388 257.589 193.971C258.919 193.387 260.402 192.733 261.5 191.75C262.307 191.013 262.887 189.775 262.237 188.761C261.697 187.914 260.648 187.457 259.669 187.413C258.427 187.352 257.224 187.817 256.057 188.26C253.454 189.253 250.829 190.183 248.178 191.048C245.733 191.847 243.112 191.904 240.685 192.768C239.078 193.343 237.538 194.081 236.063 194.95C235.444 194.726 198.138 176.633 181.269 173.284L152.083 133.432C150.815 134.858 149.516 136.258 148.221 137.663C144.665 141.508 141.215 145.45 137.642 149.278C136.518 150.48 135.381 151.67 134.24 152.855C133.801 153.448 133.367 154.036 132.928 154.628C143.326 167.485 160.783 189.064 166.038 195.459C166.371 196.293 166.872 196.93 167.574 197.298C185.61 206.727 230.87 207.886 231.559 208.206C232.051 208.439 232.42 209.141 232.784 209.554C233.232 210.067 233.71 210.555 234.206 211.024C235.203 211.964 236.269 212.824 237.397 213.605C239.535 215.08 241.879 216.239 244.35 217.047C245.851 217.538 247.414 217.692 248.972 217.885C252.273 218.293 255.557 218.807 258.857 219.184C262.154 219.562 265.468 219.518 268.773 219.391C269.98 219.342 271.574 219.29 272.267 218.109C272.711 217.345 272.526 216.436 271.723 216.019C270.928 215.602 269.91 215.677 269.037 215.611C268.045 215.532 267.053 215.458 266.056 215.387C264.366 215.265 262.672 215.155 260.982 215.049C260.174 214.997 259.248 215.115 258.489 214.799C258.032 214.615 258.524 214.193 258.787 214.128C259.323 213.996 259.968 214.185 260.508 214.246C261.175 214.321 261.847 214.391 262.514 214.457C263.853 214.584 265.196 214.698 266.539 214.795C269.155 214.992 271.776 215.133 274.396 215.26C275.107 215.295 275.823 215.326 276.521 215.181C277.802 214.918 279.409 213.443 278.355 212.06C277.82 211.358 276.815 211.274 275.932 211.244C273.005 211.191 270.086 210.985 267.175 210.673C265.718 210.519 264.265 210.335 262.812 210.133C262.088 210.032 261.368 209.927 260.644 209.817C260.363 209.773 259.226 209.778 259.138 209.431C259.015 208.944 259.964 209.018 260.201 209.045C262.224 209.295 264.252 209.541 266.276 209.786C269.651 210.199 273.027 210.607 276.402 211.02C278.022 211.217 281.296 212.047 282.012 209.923C282.754 207.715 280.116 207.061 278.522 206.705Z" fill="#FFCFCA"/>
<path d="M169.172 152.709C161.499 161.571 155.09 167.905 147.255 176.618C146.329 175.604 145.403 174.56 144.516 173.537C141.277 169.801 138.595 166.395 138.494 166.263L138.489 166.259C138.489 166.259 136.097 221.25 135.698 223.243C134.991 226.781 142.475 254.325 140.882 255.919C120.536 276.259 60.7824 270.663 49.6244 248.746C48.3339 246.209 68.3104 217.664 68.3104 217.664C68.3104 217.664 60.0977 191.363 56.0243 176.096C54.3738 169.92 53.215 165.548 53.2106 165.46C52.7761 166.773 52.0167 170.24 50.8227 174.226C46.8371 173.032 20.5134 167.532 17.748 166.259C27.045 136.784 38.9053 121.917 44.3395 117.567C48.1803 114.494 73.591 104.925 101.907 107.054C117.841 108.248 136.804 115.42 140.026 118.339C148.098 125.639 160.779 141.779 169.172 152.709Z" fill="#FF6B6B"/>
<path d="M108.873 115.373C107.197 120.746 101.543 122.006 96.5477 121.953C91.039 121.892 83.7525 120.619 81.7904 114.587C80.4384 110.426 81.4129 105.65 81.4305 101.362C81.448 98.5132 81.3558 95.66 81.1232 92.8156C80.9827 91.073 80.7939 89.3304 80.5437 87.5966C80.3374 86.2007 80.1092 84.8005 79.8503 83.409C79.6747 82.474 79.4859 81.5391 79.284 80.6129C79.1435 79.9633 78.3622 78.2119 79.1172 77.7642C79.8151 77.3472 81.2461 78.5806 81.8255 78.9317C90.3806 84.0586 99.3175 88.5623 108.531 92.3811C108.895 92.5303 109.273 92.6971 109.488 93.0263C109.694 93.3336 109.699 93.7287 109.699 94.1062C109.703 97.0954 109.703 100.093 109.707 103.087C109.712 104.25 109.743 105.418 109.76 106.581C109.817 109.544 109.773 112.498 108.873 115.373Z" fill="#FFCFCA"/>
<path d="M109.76 106.581C101.758 104.377 94.0677 101.094 87.0445 96.7042C85.0956 95.4839 83.0809 94.1934 81.1232 92.8151C80.9827 91.0725 80.7939 89.3299 80.5437 87.596C80.3374 86.2002 80.1092 84.7999 79.8503 83.4085C79.6747 82.4735 79.4859 81.5385 79.284 80.6123C79.1435 79.9627 78.3622 78.2113 79.1172 77.7636C79.8151 77.3466 81.2461 78.58 81.8255 78.9312C90.3806 84.0581 99.3175 88.5617 108.531 92.3806C108.895 92.5298 109.273 92.6966 109.488 93.0258C109.694 93.333 109.699 93.7281 109.699 94.1056C109.703 97.0948 109.703 100.093 109.707 103.086C109.712 104.25 109.743 105.417 109.76 106.581Z" fill="#F9BFBB"/>
<path d="M123.056 82.8773C121.345 87.0649 118.965 90.8705 115.072 93.3199C111.613 95.4926 107.456 96.5593 103.383 96.3793C98.8748 96.1818 94.5424 94.6148 90.7104 92.1962C88.8009 90.9934 87.0144 89.5844 85.3947 88.0262C82.5635 85.3047 80.1845 82.1531 78.139 78.8171C74.8118 73.3873 72.1254 67.1981 70.7954 60.807C70.6373 60.0696 70.5012 59.3278 70.3827 58.5859C69.3468 52.0544 69.7858 45.3824 72.4327 39.1581C73.6222 36.3313 75.2946 33.7108 77.3489 31.4283C86.0049 21.789 100.894 20.121 111.473 27.6094C116.986 31.516 121.099 37.3848 123.293 43.7319C123.991 45.7467 124.588 47.8142 125.08 49.9124C125.163 50.2723 125.247 50.641 125.321 51.0053C127.586 61.562 127.139 72.9132 123.056 82.8773Z" fill="#FFCFCA"/>
<path d="M101.152 63.5106C100.586 63.5369 99.8042 62.6371 99.5848 61.2939C99.4706 60.5872 99.5409 59.8849 99.7779 59.3581C99.8569 59.1738 100.085 58.748 100.432 58.691L100.485 58.6866C101.051 58.6558 101.832 59.5557 102.052 60.8989C102.166 61.6056 102.096 62.3123 101.863 62.8346C101.78 63.019 101.556 63.4448 101.204 63.5018L101.152 63.5106Z" fill="#1F3C49"/>
<path d="M118.163 61.8603C117.68 61.8823 116.877 61.0834 116.657 59.7183C116.548 59.0379 116.613 58.3531 116.842 57.844C117.004 57.4753 117.232 57.2426 117.461 57.2075L117.509 57.2031C117.992 57.1768 118.795 57.9801 119.014 59.3408C119.124 60.0256 119.058 60.7103 118.83 61.2195C118.668 61.5838 118.439 61.8165 118.211 61.856L118.163 61.8603Z" fill="#1F3C49"/>
<path d="M109.625 64.9461C110.073 64.4589 110.823 64.2482 111.53 64.3799C112.254 64.4984 112.917 65.0163 113.255 65.6748C113.606 66.3244 113.646 67.1672 113.334 67.83C113.031 68.484 112.43 68.98 111.776 69.0678C112.232 68.6069 112.491 68.089 112.588 67.5754C112.684 67.0662 112.592 66.579 112.368 66.1356C112.136 65.7011 111.789 65.3455 111.315 65.1304C110.836 64.9197 110.266 64.832 109.625 64.9461Z" fill="#1F3C49"/>
<path d="M101.152 53.6785C101.1 53.6873 101.047 53.6829 100.994 53.6653C100.362 53.4722 99.6688 53.4107 98.9884 53.4853C98.8963 53.4985 98.804 53.5117 98.7119 53.5249C98.0973 53.6302 97.5004 53.8453 96.9824 54.1482C96.9385 54.1745 96.8946 54.1921 96.8463 54.1965C96.7805 54.2052 96.7366 54.2052 96.6971 54.1921C96.5917 54.1701 96.4951 54.1043 96.4381 54.0077C96.3283 53.8234 96.3942 53.5776 96.5786 53.4678C97.1756 53.1167 97.8647 52.8708 98.5758 52.7523C98.6812 52.7347 98.7908 52.7172 98.8962 52.7084C99.6819 52.6206 100.49 52.6909 101.223 52.9103C101.433 52.9718 101.552 53.1913 101.486 53.402C101.442 53.5468 101.324 53.6522 101.174 53.6785H101.152Z" fill="#1F3C49"/>
<path d="M114.558 51.3035L114.484 51.2771C114.396 51.2376 114.33 51.163 114.29 51.0796C114.207 50.8777 114.299 50.645 114.497 50.5573C115.48 50.1359 116.617 50.0218 117.692 50.2325C117.789 50.25 117.885 50.272 117.982 50.2983C118.245 50.3641 118.504 50.4519 118.746 50.5573C118.943 50.645 119.04 50.8777 118.952 51.0753C118.877 51.2508 118.702 51.343 118.518 51.3079C118.474 51.2991 118.456 51.2903 118.434 51.2815C118.228 51.1937 118.008 51.1191 117.785 51.062C117.705 51.0401 117.622 51.0226 117.543 51.0094C116.621 50.8251 115.651 50.9216 114.808 51.2859C114.738 51.3167 114.655 51.3254 114.576 51.3079L114.558 51.3035Z" fill="#1F3C49"/>
<path d="M100.823 59.5644C99.9974 59.3932 99.7297 60.6838 100.559 60.8549C101.389 61.0261 101.657 59.7356 100.823 59.5644Z" fill="white"/>
<path d="M118.1 57.9014C117.271 57.7302 117.003 59.0163 117.832 59.1919C118.662 59.363 118.93 58.0726 118.1 57.9014Z" fill="white"/>
<path d="M119.944 71.4778C120.177 73.7779 119.764 75.9638 118.869 77.825C117.438 80.8142 114.765 82.9431 111.534 83.2679C108.22 83.6059 105.112 81.973 103.12 79.2208C101.943 77.6099 101.153 75.6127 100.929 73.4048C100.92 73.3258 100.925 73.2467 100.916 73.1633L119.909 71.2364C119.918 71.3198 119.936 71.3988 119.944 71.4778Z" fill="#D55454"/>
<path d="M119.138 71.3158C117.237 73.787 114.261 75.5253 110.784 75.8764C107.312 76.2276 104.047 75.1214 101.689 73.0847L119.138 71.3158Z" fill="white"/>
<path d="M118.869 77.825C117.438 80.8142 114.764 82.9431 111.534 83.2679C108.22 83.6059 105.112 81.973 103.119 79.2208C106.288 78.1761 109.611 77.588 112.947 77.4914C114.927 77.4343 116.911 77.5484 118.869 77.825Z" fill="#F37C7C"/>
<path d="M100.09 68.7345C100.204 70.8941 97.9172 72.7728 94.985 72.9308C92.0484 73.0844 89.5772 71.4603 89.4631 69.3007C89.349 67.1367 91.6358 65.258 94.568 65.1044C97.5045 64.9464 99.9759 66.5705 100.09 68.7345Z" fill="#F9BFBB"/>
<path d="M124.838 65.2184C124.917 66.6801 123.372 67.9486 121.388 68.054C119.408 68.1593 117.74 67.0619 117.661 65.6002C117.582 64.1386 119.127 62.87 121.107 62.7647C123.091 62.6593 124.759 63.7567 124.838 65.2184Z" fill="#F9BFBB"/>
<path d="M125.676 50.9041C120.466 49.3853 115.203 46.0054 110.949 41.0102C110.388 40.3562 109.865 39.6846 109.369 39.0086C106.134 45.8298 99.5281 52.1068 90.7359 55.8291C83.6425 58.8315 76.3428 59.6479 70.0351 58.5813C68.986 51.9664 69.4338 45.2109 72.1114 38.9077C73.3185 36.0413 75.0084 33.3901 77.089 31.0768C85.8548 21.3146 100.933 19.6291 111.647 27.2097C117.231 31.1646 121.396 37.1124 123.622 43.5386C124.329 45.5753 124.934 47.6734 125.43 49.7936C125.514 50.1623 125.597 50.531 125.676 50.9041Z" fill="#603813"/>
<path d="M82.7132 76.1835C79.1621 78.6636 74.2722 79.0981 70.3656 77.2238C67.0603 75.6436 64.5891 72.47 63.7858 68.9058C63.641 68.2605 63.5532 67.6065 63.5225 66.9349C63.4654 65.7673 63.597 64.5821 63.9921 63.4848C64.9885 60.7808 67.7407 58.867 70.6158 58.6783C73.4953 58.4939 76.3836 59.9513 78.113 62.2601L79.882 67.6153L82.7132 76.1835Z" fill="#FFCFCA"/>
<path d="M109.676 107.054C109.241 110.811 108.683 114.788 105.707 117.479C103.096 119.84 99.4437 120.854 95.9628 120.828C92.2976 120.797 88.6499 119.617 85.6914 117.483C82.3423 115.073 81.3283 111.022 81.2142 107.093C81.1659 105.254 78.2644 105.245 78.3171 107.093C78.4444 111.641 79.6691 116.425 83.4089 119.344C86.9556 122.114 91.4416 123.646 95.9628 123.69C100.207 123.73 104.601 122.378 107.757 119.502C111.322 116.259 112.055 111.579 112.577 107.054C112.783 105.223 109.882 105.241 109.676 107.054Z" fill="#F15A24"/>
<path d="M45.691 297.628C45.8534 298.409 46.0378 299.195 46.0246 299.989C45.95 303.698 41.8679 302.737 40.3228 300.533C40.1823 300.327 40.0549 300.116 39.9408 299.893C39.8969 299.814 39.8575 299.73 39.8223 299.642C39.6292 299.23 39.4843 298.795 39.3658 298.352C39.1244 297.461 38.9927 296.53 38.8171 295.644C38.6547 294.81 38.4615 293.971 38.1016 293.199C38.027 293.032 37.9481 292.856 37.8647 292.676C37.7374 292.408 37.5969 292.136 37.4038 291.921C37.3379 291.851 37.272 291.785 37.1974 291.733C37.1184 291.675 37.0394 291.627 36.9516 291.592C36.9077 291.57 36.8638 291.557 36.8155 291.544C36.7673 291.526 36.719 291.517 36.6663 291.513C36.4293 291.482 36.1747 291.517 35.9245 291.592C35.8323 291.618 35.7358 291.649 35.648 291.689C35.5075 291.75 35.367 291.82 35.231 291.899C35.1432 291.948 35.0597 292 34.9763 292.057C34.77 292.198 34.5857 292.351 34.4409 292.501C34.059 292.883 33.7912 293.339 33.5893 293.835C33.4708 294.134 33.3786 294.445 33.3083 294.761C33.1591 295.389 33.0933 296.047 33.0406 296.684C32.9001 298.347 32.865 300.002 32.7597 301.666C32.7509 301.868 32.7421 302.07 32.7333 302.272C32.6675 304.019 32.7992 305.695 33.3259 307.341L33.3303 307.346C33.4356 307.666 33.5497 307.982 33.6858 308.298C34.6164 310.484 36.0035 312.424 37.2764 314.417C38.4309 316.243 40.0374 318.583 40.011 320.874C40.0066 321.269 39.954 321.66 39.8443 322.046C39.6731 322.656 39.1946 323.034 38.6416 323.183C38.0753 323.337 37.4257 323.249 36.934 322.915C36.3941 322.551 36.0167 321.998 35.648 321.458C33.2952 318.008 30.881 314.602 29.0418 310.844C27.308 307.298 25.1044 298.282 24.3538 294.432C23.2608 288.735 18.8889 257.6 17.6642 244.822C15.1578 218.665 17.0936 201.204 19.7405 186.978C20.5043 182.865 22.2073 175.284 23.8973 167.962C31.2541 169.753 43.0179 172.299 48.4301 173.607L42.0521 199.334C42.0521 199.334 39.5151 233.225 38.466 245.16C37.5222 255.941 34.8841 268.385 34.6296 271.589C36.1264 273.187 37.711 275.412 40.1954 279.964C41.3587 282.093 42.5262 284.235 43.448 286.487C44.9009 290.021 44.9053 293.914 45.691 297.628Z" fill="#FFCFCA"/>
<path d="M62.7712 141.178C62.7009 141.889 61.0373 158.292 59.5888 164.666C58.6846 168.647 57.2844 172.778 56.0246 176.096C54.3741 169.92 53.2153 165.548 53.2109 165.46C53.2109 165.46 57.596 156.695 59.9883 149.922C62.2269 143.57 62.7185 141.419 62.7712 141.178Z" fill="#DD5050"/>
<path d="M144.516 173.538C141.276 169.802 138.594 166.396 138.493 166.264L138.489 166.26C138.489 166.26 138.888 153.109 138.489 147.605C138.23 144.005 135.39 131.974 135.307 131.596C135.509 131.965 142.023 143.755 143.669 151.516C145.297 159.18 145.025 167.735 144.516 173.538Z" fill="#DD5050"/>
</g>
<defs>
<clipPath id="clip0_1065_49926">
<rect width="200" height="200" fill="white"/>
</clipPath>
</defs>
</svg>
