<svg width="200" height="200" viewBox="0 0 200 200" fill="none" xmlns="http://www.w3.org/2000/svg">
<g clip-path="url(#clip0_1065_49928)">
<rect width="200" height="200" fill="#FFF1F1"/>
<path d="M103.989 98.1934C107.026 98.1232 109.774 99.8351 112.43 101.314C115.085 102.789 118.167 104.128 121.077 103.254C124.132 102.341 125.98 99.3303 128.495 97.3726C131.238 95.2437 134.75 94.3965 137.77 92.6802C140.614 91.0605 143.029 88.6024 144.31 85.5868C145.588 82.5756 145.649 79.0026 144.192 76.0748C143.805 75.2979 143.301 74.5034 143.375 73.6387C143.441 72.8617 143.964 72.2033 144.503 71.6458C145.943 70.1578 147.725 68.9287 148.7 67.1027C149.459 65.6849 149.652 64.0213 149.547 62.4148C149.24 57.8014 146.382 53.4383 142.278 51.3138C138.174 49.1893 132.963 49.3736 129.022 51.7835C125.295 54.0616 120.603 53.4778 116.854 55.7164C110.586 59.4607 105.029 64.3901 100.56 70.1666C98.5412 72.7784 96.7196 75.6008 95.7319 78.748C94.7399 81.8953 94.639 85.4112 95.9822 88.4224C96.6845 90.0026 97.7512 91.3897 98.809 92.7592C100.24 94.6203 102.11 96.7888 103.989 98.1934Z" fill="#323A40"/>
<path d="M86.7508 120.602C85.3023 125.768 96.772 132.94 100.196 132.242C105.402 131.176 112.671 125.632 116.713 121.927C116.88 118.863 117.056 115.804 117.227 112.744C117.438 108.917 117.657 105.085 118.25 101.297C118.434 100.138 118.645 98.9789 118.895 97.8333C119.492 94.9757 120.247 92.1489 121.006 89.3177C121.63 86.9957 122.248 84.6693 122.872 82.3472C121.401 83.5499 120.045 84.1293 118.302 84.9107C110.954 88.1984 103.483 91.2052 95.9731 94.1154C93.7125 94.9889 91.43 95.8624 89.0377 96.2399L87.8525 109.61L86.7508 120.602Z" fill="#FFCFCA"/>
<path d="M87.8535 109.61C96.1452 108.205 104.226 105.624 111.693 101.792C114.063 100.576 116.53 99.2684 118.896 97.833C119.493 94.9755 120.248 92.1487 121.007 89.3175C121.631 86.9954 122.249 84.669 122.873 82.347C121.402 83.5497 120.046 84.1291 118.303 84.9104C110.955 88.1981 103.484 91.2049 95.974 94.1151C93.7135 94.9886 91.4309 95.8622 89.0387 96.2397L87.8535 109.61Z" fill="#F9BFBB"/>
<path d="M73.6881 86.8813C74.8557 91.4639 76.7695 95.7568 80.4478 98.8601C83.7136 101.608 87.8705 103.311 92.1151 103.719C96.8118 104.171 101.53 103.171 105.85 101.222C108.001 100.252 110.059 99.0489 111.96 97.6706C115.287 95.2608 118.206 92.3418 120.813 89.1813C125.049 84.0325 128.728 78.0101 131.032 71.5795C133.653 64.315 134.522 56.5236 132.476 48.9167C131.647 45.8133 130.299 42.8592 128.499 40.1948C120.928 28.9533 105.744 25.0687 93.6953 31.2974C87.4184 34.5456 82.3046 40.028 79.1091 46.2874C78.0995 48.2715 77.1777 50.3257 76.3656 52.4283C72.1649 63.3186 70.8086 75.5828 73.6881 86.8813Z" fill="#FFCFCA"/>
<path d="M117.744 86.943C121.063 90.0244 126.067 91.1788 130.386 89.8049C134.038 88.6505 137.062 85.7184 138.405 82.1409C138.651 81.4913 138.84 80.8285 138.972 80.1349C139.196 78.9366 139.231 77.69 138.98 76.496C138.34 73.5463 135.767 71.1672 132.813 70.5527C129.855 69.947 126.655 71.0356 124.53 73.1776L121.919 78.4713L117.744 86.943Z" fill="#FFCFCA"/>
<path d="M98.725 69.6566C99.3176 69.7093 100.169 68.7963 100.446 67.4005C100.595 66.6674 100.551 65.9256 100.323 65.3681C100.248 65.175 100.029 64.7185 99.6687 64.6483L99.6116 64.6395C99.0191 64.5868 98.1676 65.4998 97.8866 66.8913C97.7418 67.6243 97.7856 68.3661 98.0095 68.9236C98.0885 69.1167 98.308 69.5776 98.6679 69.6479L98.725 69.6566Z" fill="#1F3C49"/>
<path d="M81.0084 67.2694C81.5088 67.3133 82.3778 66.5056 82.6632 65.0922C82.8036 64.3811 82.7598 63.6613 82.5447 63.1214C82.3867 62.7307 82.1584 62.4805 81.9213 62.4322L81.8687 62.4234C81.3683 62.3795 80.4991 63.1872 80.2138 64.6006C80.0733 65.3161 80.1173 66.0316 80.3324 66.5715C80.4904 66.9621 80.7186 67.2123 80.9556 67.2606L81.0084 67.2694Z" fill="#1F3C49"/>
<path d="M89.8105 70.8287C89.3671 70.302 88.5858 70.0518 87.8396 70.1615C87.0802 70.2581 86.3647 70.7716 85.9916 71.4476C85.5966 72.1148 85.5219 72.9927 85.8248 73.6994C86.1101 74.393 86.7202 74.9373 87.405 75.0514C86.9441 74.5554 86.6939 74.0023 86.6105 73.4624C86.5315 72.9269 86.6456 72.4177 86.9002 71.9656C87.1592 71.5179 87.5367 71.1579 88.0415 70.956C88.5462 70.7497 89.1476 70.6839 89.8105 70.8287Z" fill="#1F3C49"/>
<path d="M103.659 59.2281C103.769 59.2238 103.883 59.1798 103.962 59.092C104.116 58.9209 104.103 58.6619 103.936 58.5083C102.698 57.3802 100.964 56.8007 99.3006 56.9412C99.0724 56.9632 98.9056 57.1607 98.9231 57.3889C98.9451 57.6172 99.1426 57.784 99.3708 57.7665C100.815 57.6348 102.307 58.1439 103.378 59.1184C103.457 59.193 103.558 59.2281 103.659 59.2281Z" fill="#1F3C49"/>
<path d="M85.8203 56.3215C85.9124 56.2908 85.9958 56.2293 86.0485 56.1416C86.167 55.9484 86.1056 55.6938 85.9124 55.5753C84.6175 54.7852 82.9759 54.5482 81.5142 54.9388C81.2991 55.0003 81.163 55.2241 81.2201 55.4436C81.2771 55.6675 81.5054 55.7948 81.7249 55.7377C82.9759 55.4041 84.3761 55.606 85.4822 56.2776C85.5876 56.3435 85.7105 56.3566 85.8203 56.3215Z" fill="#1F3C49"/>
<path d="M99.222 65.5485C100.095 65.3993 100.324 66.7556 99.4503 66.9048C98.5768 67.0497 98.3485 65.6934 99.222 65.5485Z" fill="white"/>
<path d="M81.2245 63.1345C82.098 62.9852 82.3307 64.3415 81.4528 64.4908C80.5836 64.6356 80.351 63.2793 81.2245 63.1345Z" fill="white"/>
<path d="M80.2284 77.562C80.1669 79.3573 80.6015 81.0341 81.3916 82.4299C82.6558 84.6773 84.8373 86.1917 87.3613 86.2839C89.9511 86.3717 92.2819 84.9451 93.6865 82.7065C94.5161 81.3984 95.0253 79.8094 95.0868 78.0844C95.0912 78.0185 95.0824 77.9571 95.0868 77.8912L80.246 77.3733C80.2416 77.4391 80.2328 77.5006 80.2284 77.562Z" fill="#D55454"/>
<path d="M80.8477 77.3919C82.4498 79.2136 84.8509 80.4119 87.5636 80.5041C90.2806 80.6007 92.7607 79.5779 94.4858 77.8704L80.8477 77.3919Z" fill="white"/>
<path d="M81.3906 82.4299C82.6548 84.6773 84.8364 86.1917 87.3603 86.2839C89.9501 86.3717 92.2809 84.9451 93.6855 82.7065C91.1704 82.0612 88.5587 81.7759 85.9689 81.8681C84.4282 81.9252 82.8962 82.1183 81.3906 82.4299Z" fill="#F37C7C"/>
<path d="M97.6978 75.6789C97.4959 77.9307 99.8092 79.985 102.873 80.2616C105.937 80.5381 108.584 78.9359 108.786 76.6797C108.992 74.4279 106.674 72.3737 103.615 72.0971C100.551 71.8206 97.9041 73.4227 97.6978 75.6789Z" fill="#F9BFBB"/>
<path d="M73.8994 70.5214C73.7589 72.0446 75.3259 73.4272 77.3934 73.616C79.4608 73.8047 81.2474 72.7206 81.3834 71.1974C81.5239 69.6743 79.9612 68.2872 77.8893 68.1028C75.8219 67.9141 74.0355 68.9983 73.8994 70.5214Z" fill="#F9BFBB"/>
<path d="M129.451 120.781C124.565 119.38 119.197 116.742 117.244 116.22C109.874 126.772 93.8697 128.366 86.7983 115.254C79.5469 116.619 69.9998 118.393 61.5764 120.53C61.4973 131.364 55.8657 143.931 54.5488 154.523C52.4331 171.536 49.5931 183.497 46.5951 200.397C43.4479 218.152 43.4523 233.046 40.1645 256.648C37.9127 272.793 36.6046 291.593 35.4414 316.266C66.576 329.07 104.602 328.355 161.986 317.39C161.665 289.732 152.61 228.986 149.647 201.402C143.295 174.433 137.918 147.192 129.451 120.781Z" fill="#DD5050"/>
<path d="M134.091 70.8292C127.612 70.8028 121.642 78.2561 119.649 59.3551C119.333 56.379 118.881 53.4293 118.354 50.484C117.832 47.543 116.599 44.5011 114.127 42.9955C108.382 39.5015 101.424 46.4544 94.8619 45.3878C91.8683 44.9006 88.7474 41.051 85.8591 41.9991C84.5423 42.4337 82.2948 44.207 81.3335 45.2385C78.3267 48.4472 77.0626 52.9552 74.8152 56.7872C74.1655 52.6392 72.2693 46.6827 74.0778 42.9297C75.1269 40.7569 76.7159 38.268 77.8045 36.1128C80.9385 29.9149 80.3723 25.6308 85.6265 21.2808C88.5542 18.8534 95.6213 16.4129 99.168 17.6463C100.928 18.2608 102.557 19.3275 104.391 19.6347C106.876 20.0517 109.343 19.0202 111.726 18.1774C115.269 16.9308 119.052 16.0573 122.735 16.7377C126.418 17.4137 129.978 19.9201 131.128 23.6511C131.997 26.4648 131.514 29.8227 133.274 32.1359C134.898 34.2648 137.8 34.6687 140.008 36.1084C144.7 39.1767 145.271 46.1384 144.191 51.8184C142.861 58.8108 138.511 65.4038 134.091 70.8292Z" fill="#323A40"/>
<path d="M87.1578 114.078C87.1578 114.078 87.3465 123.384 87.0612 130.161C86.3501 147.105 83.2424 154.466 82.6015 171.422C82.3469 178.204 82.4391 184.986 82.562 191.768C82.6366 195.995 82.7245 200.217 82.7464 204.44C82.764 208.18 82.7332 211.92 82.5884 215.664C82.5796 215.98 82.5664 216.3 82.5532 216.616C82.1362 226.629 81.1574 236.615 79.8493 246.557C79.5596 248.796 79.2436 251.03 78.9144 253.26C78.55 255.779 78.1594 258.286 77.7643 260.796C77.7424 260.933 77.7205 261.064 77.6985 261.2C77.6634 261.437 77.6239 261.679 77.5844 261.92C76.9391 265.963 76.2763 270.054 75.6091 274.189C71.5489 299.213 67.1857 325.712 64.4686 350.276C64.2974 351.83 29.9497 338.705 18.0806 328.188C16.7857 327.038 25.6305 293.309 30.3448 274.694C31.1656 271.463 31.8548 268.689 32.3509 266.617C32.3991 266.419 32.443 266.235 32.4825 266.055L32.5045 265.972C32.7108 265.098 32.8732 264.374 32.9873 263.825C33.0137 263.68 33.0399 263.549 33.0663 263.43C33.0838 263.342 33.1014 263.259 33.1102 263.18C30.3404 262.886 24.3268 261.806 21.5922 261.003C14.5997 258.953 7.89709 255.143 4.43379 247.128C2.99405 243.787 2.11171 239.718 2.01075 234.741C1.95369 231.08 2.12486 227.353 2.49797 223.587C2.53308 223.266 2.56384 222.946 2.59896 222.626C3.66121 212.855 6.06664 202.842 9.3368 193.089C20.4992 159.777 41.7223 129.481 53.767 122.041C68.0943 113.196 87.1578 114.078 87.1578 114.078Z" fill="#FF6B6B"/>
<path d="M160.735 265.537C160.752 265.63 160.761 265.717 160.774 265.81C161.375 269.896 162.069 274.733 162.806 279.948C166.353 305.087 170.866 338.995 170.058 339.658C164.641 343.999 140.701 352.954 117.867 353.84C117.152 353.529 114.632 313.15 112.235 271.564C111.91 265.959 111.59 260.327 111.274 254.77C110.409 239.481 109.597 224.75 108.939 212.556C108.812 210.19 108.689 207.921 108.575 205.762C107.789 191.202 107.297 181.65 107.319 181.523C111.173 160.941 117.222 114.733 117.222 114.733C117.222 114.733 138.875 118.099 160.3 131.206C172.367 138.585 190.57 177.581 196.158 220.611C196.333 221.972 196.496 223.341 196.645 224.711C197.093 228.811 197.413 232.941 197.589 237.098C198.409 256.548 177.379 262.904 160.735 265.537Z" fill="#FF6B6B"/>
<path d="M150.92 154.557C150.767 159.324 150.27 164.254 150.117 169.016C150.055 170.965 149.99 172.914 149.928 174.863C149.643 183.853 149.353 192.851 148.576 201.81L155.073 201.525C151.833 186.131 152.856 170.171 150.92 154.557Z" fill="#EF5858"/>
<path d="M53.2144 156.657C53.1091 161.419 53.3373 166.371 53.232 171.133C53.1881 173.086 53.1442 175.035 53.1003 176.984C52.8984 185.978 52.6965 194.972 52.9818 203.966L46.5117 203.326C50.5852 188.129 50.4315 172.138 53.2144 156.657Z" fill="#EF5858"/>
<path d="M62.9201 221.976C63.5654 222.033 64.4872 221.892 65.049 222.2C65.8304 222.626 66.5854 223.688 67.235 224.315C69.0479 226.071 70.909 227.783 72.7087 229.552C73.2047 230.044 73.6919 230.54 74.1791 231.036C78.156 226.343 82.067 221.594 85.9429 216.814C81.5403 213.61 78.178 211.2 76.668 210.181C75.935 209.694 75.2019 209.203 74.4733 208.711C74.2714 206.714 73.8982 204.738 73.3232 202.816C72.6121 200.454 71.3128 198.532 70.3779 196.276C68.7669 192.382 67.9329 188.12 66.5985 184.108C66.1815 182.866 65.7118 181.575 64.7857 180.645L64.6804 180.544C63.7454 179.683 62.2837 179.262 61.1863 179.912C60.3435 180.416 59.9134 181.422 59.8124 182.396C59.6412 184.117 60.0539 185.978 60.427 187.646C60.6684 188.712 61.0239 189.854 61.0459 190.955C61.081 192.641 59.9968 191.596 59.1935 190.806C58.32 189.933 57.5475 188.971 56.8276 187.975C55.401 186 54.1983 183.871 52.8551 181.839L43.7381 168.073C42.8427 166.717 40.5382 166.8 39.6515 168.121C38.4137 169.956 40.5163 172.138 41.3591 173.665C42.7681 176.224 44.1595 178.788 45.551 181.36C46.543 183.204 47.5351 185.052 48.5095 186.904C49.0846 187.975 50.0809 188.884 50.6867 189.981C50.9062 190.385 51.6085 191.473 51.1388 191.939C50.6516 192.422 49.8791 191.5 49.5191 191.21C48.6412 190.503 47.7897 189.766 46.9469 189.015C45.3272 187.558 43.7601 186.035 42.2106 184.494C39.0458 181.382 35.9117 178.204 32.387 175.483C32.2377 175.364 32.0885 175.272 31.9393 175.193C30.9121 174.267 29.13 174.473 28.3311 175.605C26.8211 177.748 29.8147 180.039 31.0745 181.452C33.12 183.73 35.2489 185.925 37.2988 188.199C38.8307 189.893 40.3626 191.588 41.8902 193.282C42.4301 193.874 45.5159 196.047 44.7829 197.092C44.1508 198.009 41.9165 195.92 41.3459 195.604C39.9763 194.849 38.6156 194.081 37.2593 193.304C34.5422 191.746 31.8691 190.126 29.2354 188.432C28.9896 188.269 28.7349 188.164 28.4847 188.098C27.756 187.593 27.0274 187.084 26.3075 186.562C25.0039 185.64 23.0945 186.382 22.6775 187.918C22.0717 190.13 24.7537 191.298 26.1978 192.312C28.4979 193.918 30.8155 195.494 33.1551 197.052C34.8056 198.154 36.4604 199.243 38.1284 200.318C39.0151 200.893 43.0929 203.092 41.2845 204.457C40.9289 204.725 40.0422 204.422 39.6735 204.335C38.5015 204.071 37.4129 203.54 36.2848 203.123C33.2737 202.013 30.2406 200.942 27.1943 199.919C25.5263 199.353 23.7529 200.871 24.0602 202.631C24.4947 205.186 29.029 205.691 30.9955 206.332C34.134 207.346 37.2286 208.474 40.2793 209.72C40.8016 209.94 41.3239 210.155 41.7804 210.489C42.3642 210.91 42.812 211.503 43.2861 212.06C47.5702 217.121 54.0622 220.47 60.5411 221.651C61.3268 221.796 62.1256 221.906 62.9201 221.976Z" fill="#FFCFCA"/>
</g>
<defs>
<clipPath id="clip0_1065_49928">
<rect width="200" height="200" fill="white"/>
</clipPath>
</defs>
</svg>
