<svg width="200" height="200" viewBox="0 0 200 200" fill="none" xmlns="http://www.w3.org/2000/svg">
<g clip-path="url(#clip0_1065_49921)">
<rect width="200" height="200" fill="#FFF1F1"/>
<path d="M275.933 207.348C273.155 206.725 270.358 206.198 267.56 205.676C264.341 205.079 261.113 204.552 257.91 203.872C257.692 203.823 257.162 203.656 257.179 203.358C257.185 203.244 257.287 203.152 257.397 203.121C257.716 203.024 258.133 203.174 258.437 203.257C260.683 203.863 262.893 204.253 265.187 204.618C267.181 204.934 269.168 205.294 271.146 205.698C272.543 205.983 273.985 206.453 275.401 206.567C276.394 206.646 277.466 206.378 277.819 205.324C278.851 202.234 272.651 201.422 270.826 201.032C265.247 199.838 259.715 198.398 254.124 197.274C253.627 197.178 253.107 197.138 252.658 196.883C252.569 196.831 252.476 196.765 252.45 196.664C252.416 196.528 252.52 196.396 252.622 196.3C253.38 195.58 254.47 195.268 255.408 194.86C256.713 194.289 258.166 193.648 259.241 192.683C260.035 191.958 260.6 190.743 259.966 189.751C259.436 188.921 258.407 188.473 257.448 188.429C256.227 188.368 255.048 188.824 253.906 189.259C251.353 190.233 248.777 191.146 246.18 191.994C243.783 192.775 241.211 192.832 238.834 193.679C237.257 194.241 235.744 194.965 234.3 195.817C233.61 195.571 186.63 172.772 175.123 174.111C168.839 174.84 161.539 195.189 167.144 198.121C184.828 207.37 229.209 208.502 229.883 208.818C230.368 209.047 230.728 209.731 231.085 210.14C231.525 210.64 231.994 211.123 232.48 211.579C233.456 212.501 234.504 213.348 235.608 214.108C237.705 215.556 240.003 216.693 242.423 217.483C243.897 217.966 245.429 218.115 246.958 218.309C250.192 218.708 253.414 219.213 256.652 219.581C259.88 219.95 263.133 219.911 266.374 219.783C267.558 219.735 269.122 219.687 269.798 218.524C270.233 217.782 270.054 216.886 269.266 216.478C268.488 216.07 267.49 216.144 266.631 216.079C265.657 216 264.684 215.929 263.71 215.859C262.051 215.741 260.391 215.627 258.731 215.526C257.942 215.477 257.033 215.591 256.287 215.284C255.842 215.1 256.325 214.687 256.583 214.626C257.108 214.494 257.739 214.678 258.267 214.74C258.923 214.81 259.58 214.88 260.237 214.946C261.55 215.073 262.865 215.183 264.181 215.28C266.748 215.469 269.318 215.609 271.889 215.732C272.583 215.767 273.286 215.798 273.968 215.657C275.227 215.398 276.802 213.95 275.77 212.598C275.245 211.909 274.258 211.825 273.393 211.795C270.524 211.742 267.659 211.54 264.805 211.237C263.377 211.083 261.951 210.908 260.528 210.706C259.819 210.609 259.11 210.504 258.402 210.394C258.129 210.355 257.011 210.359 256.925 210.021C256.805 209.543 257.736 209.613 257.967 209.639C259.952 209.881 261.939 210.127 263.924 210.368C267.234 210.772 270.544 211.171 273.854 211.575C275.443 211.768 278.654 212.585 279.354 210.5C280.083 208.336 277.495 207.695 275.933 207.348Z" fill="#FFCFCA"/>
<path d="M157.661 105.113C157.749 103.924 157.712 102.725 157.53 101.558C157.064 98.5817 155.703 95.812 153.373 93.9026C151.359 92.2565 148.869 91.4181 146.819 89.8204C144.485 88.0031 142.845 85.286 141.752 82.4021C140.36 78.7238 139.606 74.6415 138.832 70.7744C137.986 66.5474 137.346 62.272 136.747 57.9967C135.657 50.1966 134.601 42.1726 131.549 34.9388C128.37 27.402 122.838 21.823 115.666 19.0093C108.526 16.2045 100.609 15.7085 93.2414 17.7364C83.8146 20.3306 76.1681 27.56 71.9029 36.9886C69.0699 43.2524 67.5323 50.1175 66.5003 57.0046C65.751 62.0086 65.2493 67.0917 63.7529 71.8937C62.6376 75.4712 60.9103 78.9345 58.3697 81.555C55.5596 84.4564 51.6086 85.3914 48.3297 87.5422C44.7461 89.895 42.3363 94.0255 41.4641 98.4632C31.1369 102.589 23.8359 112.676 23.8359 124.475C23.8359 139.939 36.3732 152.476 51.839 152.476C55.9265 152.476 59.8059 151.593 63.307 150.018C64.2937 150.601 65.3182 151.128 66.3765 151.593C68.5344 165.565 80.6107 176.262 95.186 176.262C101.91 176.262 108.097 173.98 113.028 170.157C114.336 170.38 115.679 170.508 117.051 170.508C129.307 170.508 139.356 161.083 140.362 149.087C141.64 149.293 142.95 149.407 144.287 149.407C157.634 149.407 168.454 138.587 168.454 125.243C168.454 116.842 164.166 109.446 157.661 105.113Z" fill="#F7931E"/>
<path d="M200.861 208.482C199.557 210.22 172.137 205.866 162.999 198.035C159.631 195.151 155.964 189.98 152.83 184.919C148.587 178.072 145.315 171.431 145.07 170.921L145.055 170.891C145.055 170.891 144.671 204.264 144.287 206.182C143.604 209.588 154.644 243.392 153.11 244.928C133.527 264.509 64.4981 257.201 53.7571 236.105C52.5144 233.664 69.1013 201.577 69.1013 201.577C69.1013 201.577 60.8728 168.569 59.653 160.589C59.5766 160.079 59.5266 159.675 59.5112 159.381C58.9586 161.036 57.198 165.035 55.0423 169.727C50.3895 179.854 46.2041 194.199 46.0851 194.291C45.3718 194.822 40.155 217.867 38.4132 219.609C35.8814 222.142 12.0483 214.061 11.1774 212.318C10.2069 210.374 13.3177 190.375 18.082 177.795C27.6722 152.477 39.1805 125.244 51.8393 115.5C57.8731 110.856 81.2347 99.9611 108.493 102.007C123.83 103.157 145.043 113.301 149.071 117.089C163.433 130.578 176.326 163.793 177.795 167.138C184.247 169.679 207.708 180.657 207.823 181.93C208.26 186.719 204.183 204.049 200.861 208.482Z" fill="#FF6B6B"/>
<path d="M115.587 110.78C113.973 115.955 108.529 117.167 103.723 117.114C98.4171 117.057 91.4049 115.832 89.5139 110.025C88.2133 106.018 89.1492 101.422 89.1685 97.2913C89.1839 94.5479 89.0956 91.8045 88.8731 89.0698C88.7388 87.3886 88.5548 85.7119 88.3134 84.0439C88.1177 82.6963 87.8951 81.3487 87.6458 80.0099C87.4768 79.1101 87.2968 78.2103 87.1011 77.3192C86.9667 76.6915 86.2148 75.0103 86.94 74.5758C87.6111 74.1763 88.9885 75.3615 89.5482 75.6995C97.7842 80.6376 106.384 84.97 115.257 88.6484C115.606 88.7933 115.971 88.9513 116.178 89.2673C116.374 89.5658 116.381 89.9477 116.381 90.3077C116.385 93.1871 116.385 96.071 116.389 98.9549C116.393 100.074 116.424 101.198 116.439 102.317C116.493 105.166 116.45 108.015 115.587 110.78Z" fill="#FFCFCA"/>
<path d="M116.439 102.317C108.736 100.197 101.333 97.0364 94.5737 92.8093C92.6941 91.633 90.7566 90.3907 88.8731 89.0695C88.7388 87.3883 88.5548 85.7116 88.3134 84.0436C88.1177 82.696 87.8951 81.3484 87.6458 80.0096C87.4768 79.1098 87.2968 78.21 87.1011 77.3189C86.9667 76.6912 86.2148 75.01 86.94 74.5755C87.6111 74.176 88.9885 75.3612 89.5482 75.6992C97.7842 80.6373 106.384 84.9697 115.257 88.6481C115.606 88.793 115.971 88.951 116.178 89.267C116.374 89.5655 116.381 89.9474 116.381 90.3073C116.385 93.1868 116.385 96.0707 116.389 98.9546C116.393 100.074 116.424 101.198 116.439 102.317Z" fill="#F9BFBB"/>
<path d="M90.4 75.2909C86.9837 77.6743 82.2755 78.0913 78.5133 76.2917C75.3344 74.7685 72.9536 71.7134 72.1819 68.2853C72.0428 67.662 71.9572 67.0299 71.9256 66.3846C71.8729 65.2609 71.9971 64.1197 72.3794 63.0662C73.3377 60.4588 75.9871 58.6196 78.7547 58.4397C81.5284 58.2597 84.3078 59.6599 85.9714 61.8854L87.6737 67.0387L90.4 75.2909Z" fill="#FFCFCA"/>
<path d="M129.235 81.3481C127.585 85.3777 125.296 89.0429 121.546 91.4044C118.221 93.4938 114.217 94.5166 110.298 94.3454C105.959 94.1566 101.787 92.6466 98.097 90.3202C96.26 89.1614 94.5402 87.805 92.9824 86.3038C90.2587 83.6833 87.9687 80.6502 85.9961 77.4371C82.7922 72.2092 80.2064 66.2527 78.9256 60.0987C77.4656 53.1458 77.6675 45.9339 80.5018 39.2619C81.6497 36.5404 83.2566 34.0208 85.235 31.8217C93.5702 22.5424 107.899 20.9402 118.086 28.1477C123.392 31.9095 127.351 37.5544 129.464 43.6689C130.136 45.6046 130.713 47.5931 131.183 49.6122C133.624 60.0723 133.298 71.4191 129.235 81.3481Z" fill="#FFCFCA"/>
<path d="M108.153 62.7019C107.607 62.7326 106.854 61.8635 106.646 60.573C106.536 59.8926 106.602 59.2123 106.828 58.7075C106.905 58.5319 107.123 58.1193 107.457 58.0666L107.509 58.0622C108.055 58.0315 108.808 58.9006 109.016 60.1911C109.126 60.8715 109.06 61.5519 108.834 62.0566C108.756 62.2322 108.539 62.6448 108.204 62.6975L108.153 62.7019Z" fill="#1F3C49"/>
<path d="M124.524 61.1173C124.062 61.1392 123.289 60.3667 123.078 59.0586C122.971 58.4002 123.036 57.7418 123.254 57.2501C123.411 56.899 123.629 56.6751 123.85 56.64L123.898 56.6312C124.359 56.6093 125.132 57.3818 125.344 58.6899C125.45 59.3527 125.386 60.0111 125.168 60.4984C125.01 60.8539 124.793 61.0734 124.571 61.1129L124.524 61.1173Z" fill="#1F3C49"/>
<path d="M116.309 64.0896C116.737 63.6199 117.46 63.418 118.143 63.5409C118.838 63.6594 119.479 64.1554 119.8 64.7875C120.139 65.4152 120.18 66.2273 119.877 66.8637C119.588 67.4958 119.009 67.9743 118.378 68.0533C118.818 67.6099 119.066 67.1139 119.16 66.6179C119.254 66.1307 119.165 65.661 118.947 65.2352C118.725 64.8138 118.39 64.4715 117.933 64.2652C117.475 64.0632 116.923 63.9798 116.309 64.0896Z" fill="#1F3C49"/>
<path d="M108.152 52.0922C108.101 52.0966 108.051 52.0922 108 52.079C107.391 51.8903 106.722 51.8332 106.066 51.9078C105.978 51.9166 105.889 51.9298 105.8 51.9429C105.21 52.0395 104.634 52.2502 104.135 52.5443C104.094 52.5662 104.052 52.5838 104.006 52.5882C103.943 52.597 103.902 52.597 103.86 52.5838C103.76 52.5662 103.668 52.496 103.615 52.4082C103.509 52.2283 103.569 51.9956 103.749 51.8859C104.324 51.5479 104.988 51.3108 105.671 51.1967C105.773 51.1792 105.876 51.166 105.978 51.1528C106.737 51.0694 107.512 51.1397 108.22 51.3504C108.42 51.4118 108.534 51.6225 108.474 51.8244C108.432 51.9605 108.316 52.0658 108.173 52.0878L108.152 52.0922Z" fill="#1F3C49"/>
<path d="M121.054 49.8057L120.982 49.7793C120.899 49.7398 120.835 49.6696 120.798 49.5862C120.716 49.393 120.805 49.1692 120.997 49.0858C121.944 48.682 123.036 48.5678 124.073 48.7741C124.166 48.7917 124.259 48.8136 124.351 48.8356C124.605 48.9014 124.852 48.9848 125.087 49.0858C125.275 49.1692 125.369 49.393 125.287 49.5818C125.215 49.753 125.046 49.8452 124.867 49.8057C124.826 49.7969 124.807 49.7925 124.788 49.7837C124.589 49.7003 124.378 49.6257 124.161 49.573C124.084 49.5511 124.007 49.5335 123.929 49.5203C123.04 49.3448 122.106 49.4369 121.297 49.7837C121.227 49.8144 121.148 49.8232 121.072 49.8101L121.054 49.8057Z" fill="#1F3C49"/>
<path d="M107.836 58.9094C107.038 58.7426 106.78 59.9848 107.58 60.1472C108.378 60.314 108.636 59.0762 107.836 58.9094Z" fill="white"/>
<path d="M124.465 57.3069C123.667 57.1401 123.409 58.3823 124.208 58.5447C125.007 58.7115 125.264 57.4693 124.465 57.3069Z" fill="white"/>
<path d="M126.242 70.3747C126.465 72.587 126.067 74.6939 125.207 76.4848C123.829 79.3643 121.257 81.4098 118.145 81.7259C114.958 82.0507 111.963 80.4792 110.045 77.828C108.912 76.2785 108.153 74.3559 107.937 72.2314C107.93 72.1524 107.932 72.0778 107.924 71.9944L126.208 70.142C126.216 70.2254 126.234 70.3001 126.242 70.3747Z" fill="#D55454"/>
<path d="M125.465 70.2165C123.636 72.5956 120.77 74.268 117.424 74.6103C114.079 74.9483 110.935 73.8861 108.666 71.9196L125.465 70.2165Z" fill="white"/>
<path d="M125.206 76.4848C123.828 79.3643 121.257 81.4098 118.145 81.7259C114.957 82.0507 111.962 80.4792 110.045 77.828C113.097 76.8228 116.296 76.2566 119.508 76.1644C121.413 76.1117 123.32 76.2215 125.206 76.4848Z" fill="#F37C7C"/>
<path d="M107.129 67.7331C107.24 69.8137 105.039 71.6222 102.214 71.7714C99.3891 71.925 97.0091 70.358 96.8985 68.2774C96.7879 66.1968 98.9884 64.3883 101.813 64.2391C104.638 64.0898 107.018 65.6525 107.129 67.7331Z" fill="#F9BFBB"/>
<path d="M130.952 64.3476C131.027 65.7523 129.541 66.9769 127.633 67.0779C125.725 67.1788 124.118 66.121 124.044 64.7163C123.969 63.3117 125.455 62.0914 127.363 61.9905C129.271 61.8895 130.878 62.943 130.952 64.3476Z" fill="#F9BFBB"/>
<path d="M129.384 41.3424C128.406 39.828 127.056 38.1161 125.26 38.2917C124.602 38.3532 124 38.678 123.365 38.858C122.041 39.2311 120.549 38.9589 119.447 38.1337C118.527 37.4489 117.882 36.4218 116.891 35.8424C115.721 35.162 114.147 35.2542 113.062 36.0662C112.131 36.7642 111.615 37.8703 110.895 38.7833C109.26 40.8639 106.565 41.8999 103.924 42.0535C101.282 42.2071 98.6615 41.575 96.1213 40.8376C94.9142 40.4865 93.5526 40.1221 92.4556 40.7366C91.6945 41.1624 91.238 41.9789 90.9211 42.7909C90.113 44.8715 89.9795 47.1541 90.1428 49.3795C90.3399 52.0615 90.9092 54.9629 89.5559 57.285C88.6056 58.9178 86.7366 59.9713 84.8487 59.9362C83.0793 59.9055 81.4552 59.01 79.7477 58.5491C78.0397 58.0839 75.8976 58.2068 74.9126 59.6772C74.1432 52.3687 74.0049 44.7223 76.9919 38.0108C79.7152 31.8919 84.8996 26.9713 91.0308 24.2717C97.162 21.5766 104.176 21.0674 110.711 22.5335C113.187 23.0866 115.616 23.925 117.806 25.2067C123.406 28.4812 127.291 35.2015 129.384 41.3424Z" fill="#F7931E"/>
<path d="M59.6517 160.588C59.5753 160.079 59.5253 159.675 59.5099 159.381C58.9573 161.036 57.1967 165.035 55.041 169.727C56.936 155.514 57.9372 138.838 57.9372 138.838C57.9372 138.838 58.9002 152.073 59.6517 160.588Z" fill="#AD4242"/>
<path d="M152.83 184.919C148.587 178.071 145.315 171.43 145.07 170.92C144.322 158.621 143.136 133.21 142.699 129.168C148.085 146.524 148.937 164.714 152.358 182.561C152.508 183.347 152.665 184.137 152.83 184.919Z" fill="#AD4242"/>
</g>
<defs>
<clipPath id="clip0_1065_49921">
<rect width="200" height="200" fill="white"/>
</clipPath>
</defs>
</svg>
