<svg width="200" height="200" viewBox="0 0 200 200" fill="none" xmlns="http://www.w3.org/2000/svg">
<g clip-path="url(#clip0_1065_49917)">
<rect width="200" height="200" fill="#FFF1F1"/>
<path d="M78.2961 115.357C78.1188 112.89 75.9733 110.933 73.4177 111.639C58.0813 115.875 42.23 123.017 35.0914 138.16C32.3001 144.082 31.3081 150.675 29.9452 157.035C28.4199 164.155 27.0025 171.297 25.694 178.456C24.0383 187.52 22.6859 196.633 21.4037 205.754C20.2383 214.041 20.4556 224.225 16.6324 231.678C9.50166 245.58 2.06281 259.74 -5.22592 273.721C-8.964 280.889 -12.6902 288.065 -16.3787 295.26C-18.1793 298.771 -19.9693 302.292 -21.7518 305.816C-22.6192 307.528 -24.1349 309.565 -23.2122 311.532C-21.4016 315.381 -16.1948 317.506 -12.7868 319.749C-11.7829 320.411 -10.7588 321.083 -9.59958 321.408C-4.31904 322.887 0.138899 314.323 2.65582 311C6.95926 305.316 11.1916 299.575 15.3511 293.785C24.5167 281.025 33.9418 267.997 41.9956 254.341C45.1771 248.946 48.5676 243.46 51.1174 237.753C57.1595 224.221 59.4161 209.296 64.3257 195.333C69.508 180.594 75.8609 165.691 77.6044 150.03C78.8852 138.525 79.128 126.901 78.2961 115.357Z" fill="#E36161"/>
<path d="M200.901 328.111C195.919 329.38 179.525 327.699 178.932 327.339C176.263 325.723 176.079 238.54 171.992 231.372C169.741 227.421 160.957 212.958 151.95 197.691C143.452 183.267 134.743 168.119 131.157 160.438C124.441 146.071 127.274 112.158 128.292 108.383C137.601 110.758 143.909 113.501 144.571 113.791L144.628 113.822C150.879 116.688 158.433 122.074 161.589 124.997C182.786 144.653 202.732 205.843 206.107 222.369C210.15 242.161 204.422 327.212 200.901 328.111Z" fill="#E36161"/>
<path d="M166.984 300.744C155.953 309.018 34.0156 309.611 34.0156 303.83C34.0156 281.773 38.9955 256.871 40.5678 234.84C41.9092 216.093 46.5032 157.024 47.12 146.581C47.544 139.33 48.6616 122.299 48.6616 122.299C48.6616 122.299 59.561 115.745 65.2344 113.05C73.0696 109.328 81.1441 107.006 89.654 105.702C103.818 103.542 117.92 105.737 128.292 108.384C137.601 110.759 143.909 113.502 144.572 113.792L144.629 113.823C144.629 113.823 138.756 116.347 137.307 125.771C131.14 165.851 151.937 197.411 151.937 197.411C151.937 197.411 157.582 232.158 160.817 249.87C162.871 261.12 168.525 299.59 166.984 300.744Z" fill="#FF6B6B"/>
<path d="M68.6226 39.0114C69.4697 35.8641 70.8393 32.9539 72.6385 30.6363C77.4507 24.4427 85.6011 19.8864 93.6141 21.0453C100.893 22.0943 107.405 25.0704 111.227 31.6458C115.227 38.5198 115.094 47.7816 110.322 54.256C107.469 58.1275 103.563 61.2529 99.1935 63.2501C97.8824 63.847 96.5243 64.343 95.1337 64.7205C87.7585 66.7309 78.1016 65.875 72.4928 60.1599C67.1775 54.7477 66.7487 45.9643 68.6226 39.0114Z" fill="#32334C"/>
<path d="M113.821 69.7252C113.463 71.7092 113.112 73.6933 112.758 75.6773C112.734 75.7958 112.715 75.9187 112.696 76.0372C112.686 76.0899 112.675 76.1426 112.665 76.1953C112.194 78.8246 111.728 81.4495 111.406 84.0875C111.272 85.1498 111.166 86.2164 111.091 87.2831C111.005 88.477 110.958 89.6797 110.946 90.8737C110.912 93.165 110.975 95.4607 111.045 97.752C111.129 100.544 111.209 103.335 111.292 106.123C109.648 107.905 107.347 110.143 104.887 112.127C100.097 113.458 94.5219 114.34 89.6834 114.515C86.4088 112.606 83.5052 109.805 83.9933 107.238L84.1443 97.177L84.1513 95.5265L84.1636 91.1634L84.1869 84.9479C86.3281 84.4255 88.3328 83.4511 90.319 82.4854C96.9076 79.2635 103.454 75.9582 109.871 72.4027C110.044 72.3106 110.209 72.2184 110.371 72.1262C111.661 71.4107 112.716 70.7962 113.821 69.7252Z" fill="#FFCFCA"/>
<path d="M84.1465 97.1775C91.5616 95.2637 98.6958 92.2964 105.176 88.2405C107.237 86.9544 109.375 85.5761 111.409 84.0925C111.728 81.45 112.197 78.8251 112.666 76.2002C113.051 74.0449 113.436 71.8809 113.821 69.7257C112.58 70.9328 111.395 71.5605 109.873 72.4077C103.457 75.9588 96.9097 79.264 90.3203 82.4859C88.3345 83.456 86.3307 84.4261 84.1869 84.9484L84.1465 97.1775Z" fill="#F9BFBB"/>
<path d="M69.5305 77.643C70.9466 81.7121 73.0127 85.4607 76.5936 87.9934C79.7694 90.2364 83.6717 91.4611 87.5555 91.5006C91.8541 91.5445 96.0583 90.276 99.8306 88.1734C101.708 87.1243 103.48 85.8777 105.101 84.4774C107.933 82.0325 110.358 79.1574 112.48 76.0892C115.926 71.0895 118.8 65.3393 120.395 59.3258C122.209 52.5265 122.395 45.3892 119.95 38.6426C118.961 35.8904 117.507 33.3137 115.669 31.0356C107.925 21.4183 93.8478 19.0699 83.3929 25.6497C77.9469 29.0823 73.7321 34.455 71.3166 40.3852C70.5493 42.2639 69.872 44.1996 69.3005 46.1705C66.3289 56.376 66.0453 67.6131 69.5305 77.643Z" fill="#FFCFCA"/>
<path d="M109.521 74.2947C112.771 76.8362 117.402 77.4946 121.218 75.9144C124.441 74.5844 126.958 71.6874 127.904 68.3426C128.074 67.7324 128.193 67.1135 128.258 66.4771C128.37 65.3665 128.308 64.234 127.987 63.1718C127.179 60.5425 124.658 58.5804 121.932 58.2556C119.2 57.9308 116.378 59.1686 114.615 61.2799L112.656 66.2839L109.521 74.2947Z" fill="#FFCFCA"/>
<path d="M91.3667 60.3397C91.9048 60.3968 92.6962 59.576 92.9706 58.3118C93.1154 57.6446 93.086 56.9686 92.8903 56.4594C92.8227 56.2795 92.6295 55.8625 92.3021 55.7922L92.2512 55.7835C91.713 55.7264 90.922 56.5428 90.6477 57.807C90.5028 58.4742 90.5318 59.1502 90.7276 59.6638C90.7956 59.8393 90.9883 60.2607 91.3162 60.3309L91.3667 60.3397Z" fill="#1F3C49"/>
<path d="M75.2692 57.8949C75.7244 57.9432 76.5299 57.219 76.8086 55.9373C76.9491 55.292 76.9205 54.638 76.7314 54.1419C76.5944 53.782 76.3916 53.5494 76.1744 53.5055L76.1274 53.4967C75.6726 53.4484 74.8667 54.1683 74.588 55.4544C74.4479 56.0997 74.4761 56.7537 74.6653 57.2497C74.8022 57.6096 75.0054 57.8379 75.2223 57.8862L75.2692 57.8949Z" fill="#1F3C49"/>
<path d="M83.2327 61.2708C82.8346 60.7835 82.1301 60.5465 81.4484 60.6343C80.7553 60.7089 80.0956 61.1654 79.7436 61.7755C79.3753 62.3769 79.2923 63.1758 79.5575 63.821C79.8085 64.4619 80.3563 64.9667 80.9757 65.0808C80.5635 64.6199 80.3458 64.1151 80.2795 63.6191C80.2128 63.1319 80.3256 62.671 80.5635 62.2628C80.8054 61.8589 81.1552 61.5385 81.6174 61.3629C82.0814 61.1829 82.6309 61.1303 83.2327 61.2708Z" fill="#1F3C49"/>
<path d="M96.2666 50.2135C96.3627 50.1828 96.4453 50.1125 96.49 50.0116C96.5747 49.8228 96.49 49.599 96.3004 49.5156C94.9107 48.8923 93.2449 48.8791 91.8437 49.4761C91.6528 49.5595 91.5637 49.7789 91.6458 49.9721C91.7274 50.1608 91.9478 50.2486 92.1396 50.1696C93.352 49.6472 94.7913 49.6648 95.9927 50.2003C96.0827 50.2442 96.1801 50.2442 96.2666 50.2135Z" fill="#1F3C49"/>
<path d="M80.0997 47.7465C80.1857 47.7289 80.2652 47.685 80.3227 47.6104C80.4491 47.4436 80.4179 47.2066 80.2529 47.0793C79.1586 46.2409 77.6916 45.8678 76.3291 46.0829C76.1298 46.118 75.9841 46.3067 76.0161 46.513C76.0482 46.7193 76.2409 46.8598 76.4463 46.8247C77.6091 46.6447 78.861 46.9608 79.795 47.6762C79.8855 47.7465 79.9965 47.7684 80.0997 47.7465Z" fill="#1F3C49"/>
<path d="M91.8823 56.604C92.6799 56.4811 92.8691 57.7233 92.0697 57.8418C91.2722 57.9647 91.0835 56.7225 91.8823 56.604Z" fill="white"/>
<path d="M75.5308 54.1333C76.3288 54.0104 76.5175 55.2482 75.7182 55.3711C74.9206 55.494 74.7319 54.2518 75.5308 54.1333Z" fill="white"/>
<path d="M74.4046 67.2576C74.3198 68.8905 74.6885 70.4225 75.3864 71.7086C76.5031 73.776 78.4679 75.1894 80.7666 75.3079C83.122 75.4308 85.2663 74.1667 86.5801 72.1475C87.357 70.9667 87.846 69.527 87.9272 67.9556C87.9303 67.9029 87.9254 67.8458 87.9285 67.7844L74.4212 67.0821C74.4182 67.1435 74.4076 67.2006 74.4046 67.2576Z" fill="#D55454"/>
<path d="M74.9688 67.1137C76.3993 68.7949 78.5673 69.923 81.0385 70.0503C83.5102 70.1776 85.7827 69.2821 87.3796 67.7546L74.9688 67.1137Z" fill="white"/>
<path d="M75.3867 71.7086C76.5034 73.776 78.4681 75.1894 80.7669 75.3079C83.1223 75.4308 85.2666 74.1667 86.5804 72.1475C84.3005 71.5198 81.928 71.2213 79.5642 71.2652C78.1613 71.296 76.7637 71.4452 75.3867 71.7086Z" fill="#F37C7C"/>
<path d="M90.3422 65.8059C90.1218 67.8602 92.2002 69.7652 94.9849 70.0637C97.7692 70.3622 100.205 68.94 100.426 66.8901C100.646 64.8402 98.5676 62.9352 95.783 62.6367C92.9987 62.3382 90.5625 63.756 90.3422 65.8059Z" fill="#F9BFBB"/>
<path d="M68.7433 60.7476C68.5941 62.1303 69.9978 63.4164 71.8783 63.6184C73.7587 63.8247 75.4039 62.8634 75.5527 61.4807C75.7015 60.0936 74.2978 58.8075 72.4173 58.6056C70.5373 58.4037 68.8921 59.3606 68.7433 60.7476Z" fill="#F9BFBB"/>
<path d="M68.6959 30.399C68.1972 25.237 76.1729 19.6097 91.0229 17.0155C102.5 15.0095 117.78 18.9381 125.676 27.4054C130.325 32.3962 133.135 39.1823 132.542 46.008C132.059 51.5914 129.606 57.0782 127.345 62.17C125.705 58.9745 121.129 57.7279 117.631 58.8603C115.589 59.5188 113.917 60.8356 112.589 62.4597C112.537 55.9501 110.89 49.6556 110.893 43.1373C110.871 43.2689 100.111 41.8204 99.348 41.7238C93.1228 40.9206 86.9438 40.1305 80.9004 38.3834C78.3242 37.6372 75.7866 36.7681 73.3004 35.7761C71.4779 35.0475 68.8442 31.9353 68.6959 30.399Z" fill="#32334C"/>
<path d="M97.8661 63.2063C96.8043 64.1588 95.437 64.7953 93.9064 64.9445C92.8204 65.0499 91.7679 64.8962 90.8074 64.5319C88.409 63.6321 86.5971 61.4285 86.3341 58.7071C85.9663 54.897 88.7668 51.4996 92.5724 51.1352C96.3821 50.7665 99.7769 53.5626 100.145 57.3727C100.365 59.6508 99.4516 61.7841 97.8661 63.2063ZM85.7604 56.2139L83.1197 55.8144C83.128 55.7398 83.1443 55.6696 83.153 55.5993L85.8227 55.9768C85.7995 56.0558 85.7797 56.1349 85.7604 56.2139ZM76.1615 61.6261C75.9464 61.6436 75.7344 61.6524 75.5215 61.6568C74.9917 61.6612 74.4711 61.5997 73.9681 61.4812C72.4085 61.1345 71.0298 60.2478 70.0549 59.0143C69.2525 58.0048 68.7222 56.7625 68.5892 55.3843C68.5304 54.7785 68.551 54.1903 68.6467 53.6153L68.6463 53.6109C69.1392 50.5734 71.628 48.1241 74.8275 47.8124C78.6372 47.4437 82.032 50.2442 82.3998 54.0499C82.7677 57.8599 79.9707 61.2574 76.1615 61.6261ZM121.77 57.8555L120.766 57.838L112.307 57.6931L107.401 57.6097L100.924 57.5044C100.918 57.4341 100.919 57.3683 100.912 57.2981C100.503 53.0666 96.7301 49.9589 92.4982 50.3671C89.5174 50.6524 87.0975 52.6189 86.0686 55.235L83.2027 54.8268C83.2062 54.5415 83.1948 54.2605 83.1671 53.9796C82.7584 49.7482 78.9848 46.636 74.7534 47.0443C72.2408 47.2901 70.1264 48.7298 68.907 50.7402L68.7551 49.7218C68.7314 49.5594 68.6116 49.4453 68.461 49.4058C68.4136 49.397 68.3632 49.3926 68.3131 49.397C68.1033 49.4321 67.9593 49.6253 67.9918 49.8403L68.1437 50.8499L68.3114 51.9473C68.2868 52.0131 68.2627 52.0834 68.2381 52.1492C67.8729 53.1807 67.71 54.3 67.8219 55.4589C67.9685 56.9732 68.5458 58.3428 69.4202 59.4621C70.7853 61.2003 72.8725 62.3284 75.1813 62.4206L75.2902 62.425C75.6005 62.4337 75.917 62.4206 76.2357 62.3899C79.573 62.0694 82.2049 59.6508 82.9678 56.5694L85.6129 56.9689C85.5304 57.5614 85.5071 58.1628 85.5668 58.7773C85.8561 61.7753 87.8335 64.2115 90.4685 65.2298C90.7183 65.3308 90.9742 65.4142 91.2363 65.4844C92.1071 65.7171 93.0329 65.8005 93.9806 65.7127C95.7759 65.5371 97.3653 64.7558 98.5737 63.597C98.6203 63.5575 98.6659 63.5092 98.7115 63.4609C100.049 62.1089 100.878 60.2697 100.941 58.2725L106.595 58.3691L112.378 58.4657L118.684 58.5754H118.82L120.581 58.6061L121.756 58.6237H121.802C121.844 58.6193 121.886 58.6061 121.923 58.5886C122.042 58.5359 122.127 58.4218 122.145 58.2813L122.149 58.2418C122.152 58.0355 121.984 57.8555 121.77 57.8555Z" fill="black"/>
<path d="M114.937 107.655C114.693 110.328 109.597 112.492 103.182 113.795C98.3118 114.787 92.6885 115.279 87.8496 115.121C83.3806 114.976 79.5872 114.278 77.6804 112.9C75.8044 111.544 76.4312 95.2016 83.0018 95.7942C83.1488 95.8074 83.3644 95.8074 83.6457 95.7942C85.3752 95.7371 89.4798 95.2455 94.1528 94.6924C99.9522 93.9989 106.624 93.2088 110.698 93.0113C112.754 92.9103 114.151 92.9586 114.448 93.2483C116.531 95.2762 115.338 103.226 114.937 107.655Z" fill="#FF6B6B"/>
</g>
<defs>
<clipPath id="clip0_1065_49917">
<rect width="200" height="200" fill="white"/>
</clipPath>
</defs>
</svg>
