<svg width="200" height="200" viewBox="0 0 200 200" fill="none" xmlns="http://www.w3.org/2000/svg">
<g clip-path="url(#clip0_1065_49918)">
<rect width="200" height="200" fill="#FFF1F1"/>
<path d="M-108.31 260.831C-103.459 256.779 -98.609 252.728 -93.7586 248.676C-89.1102 244.787 -85.0762 241.456 -79.9537 238.19C-77.8512 236.851 -75.0419 235.131 -72.8033 233.88C-61.259 226.347 -49.7146 218.819 -38.1659 211.291C-30.8618 206.529 -23.5578 201.762 -16.2537 196.999C-11.456 193.869 -6.64511 190.731 -2.27758 187.026C3.13903 182.435 34.1594 136.152 37.5042 132.131C39.5102 134.734 52.3406 145.401 55.1631 166.545C44.1279 176.737 18.5022 204.352 5.83416 212.393C-16.798 226.755 -42.6344 233.748 -66.838 245.27C-67.7115 245.687 -68.6069 247.878 -69.1293 248.729C-70.8192 251.494 -72.1142 254.471 -73.9972 257.122C-75.8979 259.799 -78.0926 262.271 -80.5288 264.479C-81.6305 265.475 -83.4302 265.967 -84.0974 264.18C-84.172 264.048 -84.2335 263.904 -84.273 263.737C-84.8041 261.74 -83.834 259.918 -82.8332 258.259C-81.6964 256.362 -80.8009 254.466 -80.6868 252.223C-80.656 251.617 -80.8009 250.955 -81.2706 250.568C-81.5515 250.331 -81.9246 250.235 -82.2889 250.169C-83.5224 249.963 -84.6549 250.186 -85.7171 250.639C-86.279 250.876 -86.8189 251.178 -87.3412 251.516C-87.846 251.832 -88.3288 252.179 -88.8073 252.535C-89.4043 252.978 -89.9793 253.43 -90.5587 253.847C-90.6728 253.931 -90.7913 254.014 -90.9055 254.093C-91.0108 254.168 -91.1206 254.242 -91.2259 254.317C-91.9151 254.8 -92.6042 255.278 -93.2934 255.757C-94.5487 256.635 -95.7998 257.508 -97.0551 258.382C-98.1481 259.145 -99.2455 259.909 -100.338 260.673C-102.252 262.003 -104.35 263.522 -106.708 263.925C-108.472 264.228 -109.903 262.165 -108.31 260.831Z" fill="#FFCFCA"/>
<path d="M85.8673 59.9112C84.9016 57.8789 84.151 55.7061 83.6462 53.4148C80.0337 37.0376 90.3797 20.8317 106.757 17.2192C123.134 13.6066 139.34 23.957 142.952 40.3341C143.058 40.8082 143.15 41.2823 143.233 41.7563C148.628 44.4208 152.811 49.4204 154.207 55.7544C154.611 57.576 154.751 59.3976 154.668 61.1754C160.769 63.6159 165.598 68.936 167.116 75.8362C169.566 86.9196 162.56 97.889 151.477 100.334C149.633 100.738 147.794 100.878 145.994 100.786C143.387 103.235 140.108 105.039 136.364 105.865C131.781 106.874 127.225 106.268 123.274 104.429C120.908 106.312 118.086 107.699 114.934 108.393C106.542 110.245 98.2193 106.677 93.6103 100.022C83.5101 100.869 74.0947 94.1403 71.8517 83.9743C69.5297 73.444 75.7364 63.0233 85.8673 59.9112Z" fill="#AC1B35"/>
<path d="M121.912 102.086C119.129 100.611 116.68 98.5873 113.87 97.1695C113.629 97.1256 113.388 97.0861 113.133 97.0642C108.678 96.6998 104.24 96.0414 99.7671 95.7912C98.38 95.7166 96.971 95.7254 95.5883 95.901C91.0452 98.6049 86.3792 101.089 81.3182 102.34C79.2551 102.849 76.7048 103.407 74.0624 103.679C72.131 104.544 71.1258 105.997 72.1442 108.648C73.123 111.203 74.9973 113.507 76.8629 115.526C77.4335 116.145 78.0305 116.738 78.6494 117.308C87.1518 125.073 102.225 129.138 113.212 124.09C118.875 121.492 123.65 117.08 127.179 112.217C128.286 110.693 129.076 108.995 129.914 107.331C129.98 107.199 130.12 106.883 130.305 106.484C127.495 105.044 124.699 103.569 121.912 102.086Z" fill="#FFCFCA"/>
<path d="M92.793 104.933C94.3512 106.14 96.344 106.592 98.2666 107.005C100.584 107.51 102.906 108.01 105.272 108.173C109.881 108.484 114.218 107.308 118.73 106.32C118.941 103.665 119.161 101.013 119.376 98.3578C119.639 95.0394 119.911 91.7122 120.513 88.4332C120.697 87.4324 120.903 86.4316 121.145 85.4396C121.724 82.9683 122.444 80.5322 123.164 78.0872C123.752 76.0856 124.345 74.0752 124.937 72.0692C123.633 73.0832 122.444 73.5573 120.912 74.1981C114.455 76.8977 107.902 79.347 101.313 81.7129C99.3333 82.424 97.3273 83.1351 95.2423 83.4073L93.9254 94.9999L92.793 104.933Z" fill="#FFCFCA"/>
<path d="M93.9258 95.0011C101.155 93.9608 108.231 91.8934 114.802 88.7242C116.891 87.719 119.06 86.6347 121.145 85.4408C121.724 82.9695 122.444 80.5334 123.164 78.0884C123.752 76.0868 124.345 74.0765 124.937 72.0705C123.634 73.0844 122.444 73.5585 120.912 74.1994C114.455 76.8989 107.902 79.3482 101.313 81.7142C99.3336 82.4252 97.3276 83.1363 95.2426 83.4085L93.9258 95.0011Z" fill="#F9BFBB"/>
<path d="M82.1096 74.9493C83.027 78.9569 84.5941 82.7274 87.7238 85.5016C90.5023 87.9597 94.0753 89.5311 97.7537 89.9745C101.823 90.4661 105.944 89.7023 109.741 88.1045C111.629 87.3057 113.442 86.3049 115.127 85.1504C118.068 83.1269 120.667 80.6556 123.002 77.9649C126.79 73.5842 130.117 68.4309 132.259 62.8958C134.691 56.6408 135.613 49.8942 133.998 43.2397C133.348 40.527 132.237 37.9284 130.736 35.5757C124.398 25.6467 111.291 21.9464 100.69 27.0952C95.1683 29.7816 90.6076 34.4344 87.6974 39.8028C86.7756 41.5059 85.9285 43.2704 85.1822 45.0789C81.2976 54.446 79.8534 65.073 82.1096 74.9493Z" fill="#FFCFCA"/>
<path d="M120.381 75.9546C123.199 78.7025 127.518 79.813 131.302 78.7156C134.497 77.7895 137.188 75.305 138.435 72.2324C138.663 71.6705 138.839 71.0955 138.966 70.4985C139.19 69.4626 139.247 68.3784 139.054 67.3381C138.562 64.7615 136.38 62.637 133.826 62.0444C131.271 61.4474 128.466 62.3297 126.574 64.1426L124.191 68.6857L120.381 75.9546Z" fill="#FFCFCA"/>
<path d="M89.6281 31.8231C90.6728 30.9891 91.7263 30.1639 92.8061 29.3694C92.9378 29.2684 93.0826 29.1762 93.2187 29.0797C93.2669 29.0446 93.3196 29.0094 93.3723 28.9699L93.3899 28.9568C93.9078 28.6188 94.4214 28.2764 94.9481 27.956C96.0235 27.2976 97.1341 26.6918 98.2885 26.1826C98.486 26.0948 98.7582 26.0246 98.9733 25.9193C99.3903 25.8007 99.8073 25.691 100.229 25.5944C101.787 22.7369 104.522 20.5422 107.95 19.7828C110.961 19.12 113.955 19.6862 116.408 21.1435C117.431 20.4632 118.59 19.9496 119.863 19.6687C125.323 18.4659 130.722 21.9161 131.925 27.3722C132.004 27.7189 132.061 28.0613 132.101 28.4037C135.147 29.9225 137.508 32.7493 138.303 36.3355C138.913 39.1096 138.479 41.8662 137.267 44.2058C140.278 45.2154 142.701 47.735 143.434 51.0622C144.549 56.1101 141.358 61.1009 136.315 62.2158C131.267 63.3264 126.276 60.1396 125.165 55.0961C124.805 53.4808 124.893 51.8742 125.336 50.395C120.727 49.7629 116.773 46.3874 115.605 41.6292C114.784 42.0286 113.906 42.3447 112.971 42.551C108.555 43.521 104.179 41.8531 101.48 38.5917C100.172 39.812 98.53 40.7074 96.6556 41.1244C91.8711 42.1779 87.1349 39.7417 85.0938 35.5147C86.595 34.2724 88.1005 33.0346 89.6281 31.8231Z" fill="#AC1B35"/>
<path d="M79.7659 111.738L79.8405 111.725C79.4674 111.83 79.0943 111.927 78.7168 112.015C78.9626 111.936 79.4762 111.791 79.7659 111.738Z" fill="#FFCFCA"/>
<path d="M104.231 60.525C104.745 60.5865 105.504 59.8096 105.776 58.6069C105.921 57.9704 105.899 57.3251 105.715 56.8379C105.649 56.6667 105.469 56.2673 105.157 56.197L105.109 56.1883C104.596 56.1268 103.836 56.9037 103.564 58.1065C103.419 58.7429 103.445 59.3882 103.625 59.8754C103.691 60.0466 103.871 60.446 104.183 60.5163L104.231 60.525Z" fill="#1F3C49"/>
<path d="M88.8958 58.071C89.3259 58.1193 90.1029 57.4345 90.3794 56.2142C90.5155 55.5997 90.4936 54.972 90.318 54.4979C90.1907 54.16 89.9975 53.9361 89.7912 53.8878L89.7473 53.879C89.3128 53.8307 88.5402 54.5111 88.2637 55.7358C88.1232 56.3503 88.1452 56.978 88.3208 57.4521C88.4525 57.79 88.6412 58.0139 88.8475 58.0622L88.8958 58.071Z" fill="#1F3C49"/>
<path d="M96.4624 61.3549C96.0849 60.8852 95.4177 60.6526 94.768 60.7316C94.1052 60.7974 93.4731 61.2276 93.1307 61.807C92.7752 62.382 92.6874 63.1414 92.9376 63.7603C93.1703 64.3704 93.6882 64.8577 94.2808 64.9718C93.8901 64.5285 93.6882 64.0412 93.6268 63.5716C93.5653 63.1019 93.6794 62.6673 93.9077 62.281C94.1447 61.8948 94.4783 61.5919 94.9217 61.4251C95.365 61.2583 95.8917 61.2144 96.4624 61.3549Z" fill="#1F3C49"/>
<path d="M108.744 51.5701C108.841 51.5745 108.937 51.535 109.008 51.4604C109.148 51.3199 109.139 51.0917 108.999 50.9556C107.95 49.9504 106.453 49.4061 105.004 49.4939C104.807 49.5071 104.658 49.6739 104.671 49.8714C104.68 50.0733 104.851 50.2225 105.048 50.2094C106.304 50.1304 107.594 50.6044 108.503 51.4735C108.569 51.5394 108.656 51.5701 108.744 51.5701Z" fill="#1F3C49"/>
<path d="M93.3116 48.6648C93.3906 48.6385 93.4653 48.5902 93.5135 48.5112C93.6189 48.3444 93.5706 48.1249 93.4038 48.0152C92.302 47.3041 90.8755 47.0627 89.5981 47.37C89.4094 47.4182 89.2865 47.6114 89.3347 47.8045C89.3786 47.9976 89.5718 48.1162 89.765 48.0679C90.8579 47.8045 92.0738 48.0108 93.0175 48.621C93.1053 48.678 93.2151 48.6912 93.3116 48.6648Z" fill="#1F3C49"/>
<path d="M104.75 56.965C105.514 56.8597 105.685 58.0404 104.922 58.1502C104.158 58.2599 103.991 57.0748 104.75 56.965Z" fill="white"/>
<path d="M89.1721 54.4806C89.9359 54.3709 90.1027 55.5561 89.3433 55.6658C88.5795 55.7755 88.4083 54.5904 89.1721 54.4806Z" fill="white"/>
<path d="M87.9954 66.9951C87.9032 68.5533 88.2412 70.0194 88.8953 71.2529C89.9487 73.2281 91.8099 74.5932 94.0003 74.7249C96.2477 74.861 98.3019 73.6715 99.5705 71.7533C100.321 70.6339 100.8 69.2644 100.892 67.7676C100.892 67.7149 100.887 67.6579 100.892 67.6052L88.013 66.8283C88.0086 66.8853 87.9998 66.9424 87.9954 66.9951Z" fill="#D55454"/>
<path d="M88.5352 66.8632C89.8871 68.4786 91.9458 69.5671 94.3029 69.7076C96.66 69.8524 98.8328 69.0141 100.369 67.5699L88.5352 66.8632Z" fill="white"/>
<path d="M88.8965 71.2529C89.95 73.2281 91.8111 74.5932 94.0015 74.7249C96.2489 74.861 98.3031 73.6715 99.5717 71.7533C97.4033 71.1387 95.1427 70.8358 92.8865 70.8622C91.5477 70.8797 90.2133 71.0114 88.8965 71.2529Z" fill="#F37C7C"/>
<path d="M103.209 65.7348C102.985 67.6881 104.951 69.5229 107.607 69.8301C110.258 70.1374 112.593 68.803 112.822 66.8453C113.05 64.892 111.079 63.0572 108.423 62.7499C105.772 62.4427 103.437 63.7815 103.209 65.7348Z" fill="#F9BFBB"/>
<path d="M82.6449 60.7395C82.4913 62.0607 83.8213 63.2986 85.6122 63.5049C87.4075 63.7112 88.9833 62.8113 89.1369 61.4901C89.2861 60.1732 87.9606 58.931 86.1653 58.7247C84.3744 58.5184 82.7985 59.4183 82.6449 60.7395Z" fill="#F9BFBB"/>
<path d="M162.642 312.319C162.537 307.513 160.896 296.25 161.62 287.681C164.649 265.295 176.772 227.993 176.136 211.822C175.526 196.253 169.056 181.566 165.219 166.466C163.06 157.959 161.593 149.259 158.635 140.998C157.858 138.821 156.971 136.683 155.953 134.607C152.7 127.992 148.153 122.835 142.346 118.335C137.517 114.596 132.158 111.545 126.478 109.315L123.317 132.272C123.374 132.241 123.427 132.219 123.48 132.189C122.417 138.804 124.862 145.432 127.334 151.66C134.405 169.464 142.043 187.039 150.242 204.352C151.577 207.165 152.937 210.018 153.411 213.095C153.78 215.501 153.587 217.955 153.394 220.382C151.581 243.295 150.115 262.846 149.36 285.996C148.706 287.778 146.23 293.12 145.12 296.864C144.453 299.116 143.79 301.368 143.373 303.677C142.727 307.302 143.504 310.972 143.518 314.637C143.522 315.405 143.509 316.182 143.684 316.928C144.501 320.414 148.157 318.675 149.162 316.292C149.255 316.068 149.338 315.835 149.395 315.607C149.478 315.317 149.531 315.019 149.571 314.721C149.711 313.623 149.615 312.473 149.593 311.376C149.579 310.555 149.593 309.725 149.777 308.922C149.935 308.246 150.032 307.315 150.791 307.043C151.489 306.793 152.503 307.14 153.087 307.522C153.785 307.978 154.263 308.663 154.614 309.427C154.689 309.585 154.755 309.738 154.816 309.901C154.987 310.318 155.128 310.757 155.255 311.183C155.725 312.723 156.093 314.282 156.524 315.827C157.125 317.973 157.419 320.063 156.998 322.27C156.563 324.513 155.646 326.625 154.851 328.762C154.004 331.054 152.722 334.126 153.973 336.479C154.553 337.563 156.107 337.524 156.892 336.707C157.327 336.251 157.573 335.649 157.81 335.07C159.328 331.343 160.917 327.643 161.892 323.723C162.809 320.027 162.717 316.103 162.642 312.319Z" fill="#FFCFCA"/>
<path d="M168.788 164.287C154.97 174.721 147.715 180.388 137.948 184.584L137.926 184.641C137.026 187.376 136.109 190.212 135.178 193.109C134.928 193.899 134.669 194.702 134.415 195.501C133.348 198.855 132.272 202.283 131.21 205.746C118.042 209.771 67.5848 217.861 60.9654 218.743C60.2938 215.096 59.6398 211.584 58.9858 207.669C57.5417 199.021 56.0887 188.425 54.4295 170.147C54.3988 170.213 54.3637 170.283 54.3285 170.362C53.714 171.622 52.485 174.269 50.3868 178.544C50.1103 179.111 49.8162 179.703 49.5089 180.327C43.5129 174.936 22.0527 150.526 22.0527 150.526C22.0527 150.526 36.5687 125.252 48.1218 116.679C62.5544 105.969 83.1279 100.921 83.1279 100.921C83.1279 100.921 88.1626 106.197 89.6858 107.347C94.1279 110.71 98.8027 112.492 104.364 112.838C112.546 113.352 121.167 109.551 125.982 102.598C144.712 110.227 158.126 119.216 168.788 164.287Z" fill="#FF6B6B"/>
<path d="M50.3859 178.546C52.4841 174.271 53.7131 171.624 54.3276 170.364C53.9896 166.51 54.1564 162.608 54.8324 158.785C52.4709 162.538 50.7327 166.672 50.1445 170.974C49.7977 173.489 49.8592 176.066 50.3859 178.546Z" fill="#F98080"/>
<path d="M137.926 184.643C137.026 187.378 136.109 190.213 135.178 193.11C130.139 184.806 128.282 174.653 129.876 165.027C131.201 172.019 133.958 178.735 137.926 184.643Z" fill="#F98080"/>
</g>
<defs>
<clipPath id="clip0_1065_49918">
<rect width="200" height="200" fill="white"/>
</clipPath>
</defs>
</svg>
