<svg width="200" height="200" viewBox="0 0 200 200" fill="none" xmlns="http://www.w3.org/2000/svg">
<g clip-path="url(#clip0_1065_49930)">
<rect width="200" height="200" fill="#FFF1F1"/>
<path d="M241.091 325.531C238.651 319.417 236.206 313.302 233.765 307.183C231.421 301.319 229.376 296.262 226.294 290.736C225.026 288.467 223.301 285.495 221.865 283.239C215.004 270.619 208.144 257.999 201.279 245.38C196.937 237.395 192.596 229.411 188.255 221.426C185.402 216.181 182.544 210.918 180.371 205.361C177.681 198.469 176.074 191.209 174.621 183.953C173.546 178.62 172.545 173.256 171.47 167.914C168.34 169.306 165.215 170.71 162.107 172.159C155.444 175.266 148.816 178.506 142.117 181.565C147.191 196.38 152.735 210.966 160.377 224.609C174.024 248.988 194.26 268.187 210.755 290.736C211.352 291.552 211.089 294.002 211.146 295.042C211.326 298.418 211.045 301.784 211.458 305.147C211.875 308.548 212.665 311.902 213.806 315.128C214.324 316.59 215.733 317.933 217.225 316.621C217.362 316.537 217.489 316.436 217.607 316.3C219.087 314.733 219.095 312.587 218.999 310.568C218.893 308.263 219.012 306.082 220.017 303.97C220.289 303.4 220.75 302.86 221.369 302.741C221.747 302.662 222.137 302.759 222.506 302.877C223.735 303.299 224.666 304.062 225.416 305.006C225.811 305.498 226.162 306.042 226.474 306.613C226.777 307.153 227.049 307.71 227.313 308.272C227.637 308.974 227.945 309.677 228.269 310.339C228.331 310.48 228.397 310.612 228.467 310.743C228.524 310.862 228.59 310.985 228.647 311.108C229.042 311.889 229.437 312.666 229.832 313.451C230.548 314.874 231.263 316.296 231.983 317.722C232.606 318.96 233.234 320.203 233.857 321.445C234.955 323.613 236.127 326.045 238.089 327.581C239.555 328.731 241.894 327.55 241.091 325.531Z" fill="#FFCFCA"/>
<path d="M58.0015 130.152C36.1068 130.147 15.1382 199.291 14.6027 200.186C14.1462 200.954 -29.4105 265.084 -29.5378 265.238C-29.5378 265.238 -44.3216 280.114 -47.9341 284.587C-50.3703 287.62 -52.9161 290.754 -54.4744 294.336C-56.1249 298.128 -57.1345 302.127 -58.2143 306.108C-58.3855 306.732 -58.5567 307.373 -58.482 308.013C-58.3416 309.168 -57.073 310.173 -55.9142 309.646C-53.399 308.518 -52.5343 305.222 -51.7968 302.825C-51.1121 300.591 -50.5502 298.304 -49.4967 296.21C-48.4652 294.147 -46.907 292.633 -45.059 291.263C-43.729 290.271 -42.4472 289.24 -41.0865 288.278C-40.5729 287.91 -40.0287 287.541 -39.458 287.251C-38.6855 286.852 -37.8603 286.588 -36.9912 286.654C-36.2669 286.711 -35.2134 287.058 -34.7876 287.699C-34.3223 288.392 -34.8315 289.213 -35.1212 289.859C-35.4767 290.627 -35.986 291.307 -36.5127 291.97C-37.4126 293.089 -38.4616 294.195 -39.0059 295.534C-39.1025 295.762 -39.1815 295.995 -39.2429 296.236C-39.9057 298.8 -37.9656 302.5 -35.0993 300.178C-34.4803 299.682 -34.0019 299.041 -33.519 298.418C-31.2102 295.446 -28.2561 292.949 -26.5223 289.591C-25.4118 287.453 -24.547 285.206 -23.6911 282.963C-22.0845 278.775 -21.391 276.251 -21.0837 274.245L-21.0793 274.236L-21.031 274.157C-20.6886 273.89 18.9703 238.335 42.3398 206.476C47.8179 199.01 61.2409 169.64 67.7373 148.324C69.0761 143.93 62.0881 134.392 58.0015 130.152Z" fill="#FFCFCA"/>
<path d="M89.5714 80.8577C96.1908 84.2375 102.933 87.3672 109.719 90.4092C111.76 91.3222 113.823 92.2396 116.014 92.6961L116.466 105.083L116.856 115.697C116.457 115.96 116.031 116.18 115.592 116.364C113.586 121.456 108.631 125.06 102.823 125.06C96.577 125.06 91.3097 120.885 89.6505 115.175C89.5232 115.135 89.4002 115.096 89.2729 115.06C89.2729 114.525 89.2685 113.989 89.2685 113.454C89.1588 112.765 89.1018 112.058 89.1018 111.338C89.1018 110.662 89.1544 109.999 89.251 109.345C89.2466 108.424 89.2422 107.497 89.2378 106.571C89.2247 103.033 89.2071 99.491 88.8384 95.9706C88.7243 94.8908 88.5838 93.8154 88.4082 92.7444C87.9956 90.08 87.4338 87.4375 86.8719 84.795C86.4066 82.6222 85.9458 80.4451 85.4805 78.2766C86.7798 79.4574 88 80.0544 89.5714 80.8577Z" fill="#FFCFCA"/>
<path d="M129.687 59.5393C128.985 68.147 125.227 76.5133 119.082 82.5796C116.269 85.3537 112.959 87.6582 109.28 89.0892C105.238 90.6606 100.831 91.1522 96.5027 90.9284C93.9436 90.7923 91.367 90.406 89.023 89.3877C86.2093 88.163 83.8566 86.0912 81.6663 83.9447C77.922 80.2707 74.4719 76.25 71.9084 71.6718C69.3494 67.0979 67.7033 61.9359 67.7208 56.6905C67.7252 54.9127 67.9272 53.1043 68.6163 51.4626C69.5337 49.2767 71.2413 47.5296 72.9927 45.9363C78.7824 40.6601 85.5729 36.3409 93.1184 34.2471C100.923 32.0831 109.166 32.3728 117.256 32.6844C119.306 32.7591 121.176 33.1629 122.822 34.449C124.165 35.4981 124.903 37.2758 125.64 38.7726C127.668 42.8987 129.002 47.3716 129.542 51.9411C129.841 54.4606 129.893 57.0109 129.687 59.5393Z" fill="#534741"/>
<path d="M116.466 105.085C108.894 103.395 101.563 100.63 94.8651 96.7407C92.7318 95.5072 90.5196 94.1816 88.4082 92.7463C87.9956 90.0818 87.4338 87.4394 86.8719 84.7969C86.4066 82.6241 85.9458 80.4469 85.4805 78.2785C86.7798 79.4593 88 80.0563 89.5714 80.8595C96.1908 84.2394 102.933 87.3691 109.719 90.411C111.76 91.3241 113.823 92.2415 116.014 92.698L116.466 105.085Z" fill="#F9BFBB"/>
<path d="M128.783 55.4865C128.309 53.5727 127.729 51.6852 127.058 49.8504C124.946 44.0607 121.031 38.7319 115.821 35.2072C105.808 28.4474 91.8234 30.1022 83.7511 38.9997C81.8373 41.1066 80.2834 43.5208 79.1861 46.115C76.469 52.4841 76.3241 59.3361 77.8078 65.9335C79.107 71.7715 81.6793 77.4076 84.8485 82.3501C86.8018 85.3832 89.0624 88.2452 91.7443 90.7121C93.2763 92.1211 94.9706 93.3984 96.7747 94.4782C100.396 96.6554 104.483 98.0557 108.723 98.1961C112.555 98.319 116.457 97.3094 119.692 95.2947C123.34 93.0165 125.543 89.5137 127.128 85.6686C131.017 76.1917 131.25 65.4024 128.783 55.4865Z" fill="#FFCFCA"/>
<path d="M86.6071 80.3269C82.9639 82.1486 78.3549 81.8852 74.9707 79.607C72.1131 77.6888 70.2476 74.3968 69.9842 70.973C69.9403 70.3497 69.9447 69.7263 70.0062 69.0986C70.1159 68.0057 70.3968 66.9215 70.9148 65.9558C72.214 63.5723 75.0365 62.1677 77.736 62.3828C80.4443 62.6066 82.9331 64.3536 84.2236 66.7415L85.141 71.965L86.6071 80.3269Z" fill="#FFCFCA"/>
<path d="M98.0248 48.2667C104.139 47.1167 110.267 45.7516 116.057 43.5832C120.762 41.8274 125.968 38.4431 127.228 33.3557C128.804 26.9866 123.453 22.1055 118.124 19.6079C107.726 14.7355 94.8689 15.5959 85.3744 22.1625C79.611 26.1438 75.2742 32.074 73.2814 38.6889C72.1401 42.4858 71.6661 48.2272 76.1346 49.9874C81.3273 52.0373 87.7491 50.1147 93.0208 49.1798C94.6801 48.8813 96.3525 48.5828 98.0248 48.2667Z" fill="#534741"/>
<path d="M62.9149 49.6005C63.446 45.6631 65.1843 42.0243 68.393 39.9832C73.0502 37.0203 80.0997 37.8543 82.9309 42.9241C84.7788 46.2338 84.8096 50.4521 84.3048 54.1173C84.0722 55.8292 83.62 57.5411 82.7026 59.0247C82.0881 60.0211 80.0075 62.5934 78.6204 62.3915C78.1552 62.3212 77.6723 62.2598 77.2729 62.229C77.1939 62.2203 77.1149 62.2159 77.0359 62.2159C75.6137 62.2203 74.2881 62.5802 73.059 63.2913C72.1416 63.7873 71.4041 64.4633 70.8511 65.3192C69.1041 67.2286 66.4747 63.9322 65.5485 62.5407C63.3099 59.1696 62.2916 54.1831 62.9149 49.6005Z" fill="#534741"/>
<path d="M153.886 192.684C153.829 192.706 153.776 192.737 153.719 192.759C155.396 220.768 156.375 276.624 158.517 300.204C125.828 298.189 77.4389 300.024 48.6966 296.53C47.9197 282.159 48.6878 248.176 52.6471 203.206C53.0334 198.79 53.4811 194.255 53.9947 189.62C54.0122 189.475 54.0254 189.335 54.0429 189.186L53.9814 189.146C49.7237 186.236 44.9743 183.62 40.2117 181.048C33.5792 177.466 26.9248 173.976 21.5082 169.916C21.0341 169.556 27.7983 157.946 28.0924 157.336C37.3191 138.118 53.2529 117.751 75.1871 113.05C76.4776 112.774 89.0929 111.338 89.1148 110.768C89.1104 110.956 89.1061 111.145 89.1061 111.338C89.1061 118.919 95.2469 125.06 102.828 125.06C110.404 125.06 116.545 118.919 116.545 111.338C116.545 111.154 116.54 110.97 116.531 110.79C128.036 113.129 139.014 118.322 147.921 125.898C156.015 132.781 162.454 141.533 166.703 151.261C167.493 153.06 168.222 154.886 168.911 156.73C171.76 164.394 173.977 172.273 176.364 180.082C173.494 182.202 170.329 184.243 166.988 186.17C162.823 188.571 158.376 190.783 153.886 192.684Z" fill="#FF6B6B"/>
<path d="M153.527 166.94C154.032 175.513 153.421 184.116 153.887 192.685C158.377 190.78 162.819 188.572 166.989 186.171C164.975 184.064 163.228 181.693 161.814 179.13C158.434 173.002 157.038 166.019 155.173 159.276C153.303 152.53 150.884 146.104 145.832 141.253C151.082 148.641 152.991 157.902 153.527 166.94Z" fill="#DD5050"/>
<path d="M101.595 54.0648C102.139 54.0078 102.684 54.0517 103.228 54.0956C104.185 54.1746 105.146 54.2536 106.108 54.3326C106.424 54.3589 106.823 54.3414 106.963 54.0517C107.029 53.9112 107.007 53.74 106.946 53.5951C106.713 53.0377 106.033 52.8533 105.436 52.7743C103.961 52.59 102.398 52.6909 101.016 53.2747C100.744 53.3888 99.1986 54.0956 99.3083 54.4599C99.4049 54.7803 101.288 54.0956 101.595 54.0648Z" fill="#211A17"/>
<path d="M122.537 53.415C121.992 53.3975 121.452 53.4808 120.912 53.5642C119.96 53.7135 119.007 53.8627 118.059 54.012C117.743 54.0602 117.344 54.0734 117.186 53.7969C117.107 53.6564 117.116 53.4852 117.164 53.336C117.357 52.7654 118.024 52.5283 118.612 52.4098C120.07 52.1157 121.637 52.1025 123.059 52.5854C123.335 52.6776 124.933 53.2701 124.85 53.6389C124.775 53.9681 122.848 53.4238 122.537 53.415Z" fill="#211A17"/>
<path d="M120.829 78.6631C119.754 81.4635 117.774 83.3949 115.373 83.5925C113.06 83.7856 110.865 82.3239 109.346 79.9009C108.306 78.2373 107.582 76.126 107.354 73.7776L107.806 73.7381L121.176 72.6363L121.672 72.5968C121.826 74.8179 121.505 76.9117 120.829 78.6631Z" fill="#CE7872"/>
<path d="M121.175 72.6362C119.691 74.8837 117.418 76.398 114.771 76.6175C112.124 76.837 109.639 75.7133 107.805 73.738L121.175 72.6362Z" fill="white"/>
<path d="M120.829 78.6631C119.753 81.4635 117.774 83.3949 115.372 83.5925C113.059 83.7856 110.864 82.3239 109.346 79.9009C110 79.4707 110.68 79.0932 111.396 78.7772C113.454 77.8598 115.768 77.4604 117.993 77.8159C118.985 77.9739 119.924 78.268 120.829 78.6631Z" fill="#EA8C8B"/>
<path d="M106.892 62.7244C106.949 64.546 105.948 66.056 104.662 66.0911C103.376 66.1306 102.291 64.6865 102.234 62.8649C102.182 61.0388 103.178 59.5333 104.464 59.4938C105.75 59.4542 106.839 60.9028 106.892 62.7244Z" fill="#211A17"/>
<path d="M105.206 61.6667C104.455 61.6886 104.49 62.8518 105.241 62.8299C105.992 62.8079 105.956 61.6447 105.206 61.6667Z" fill="white"/>
<path d="M119.319 62.3522C119.371 64.1738 120.46 65.6179 121.746 65.5784C123.032 65.5389 124.029 64.0333 123.976 62.2117C123.919 60.3857 122.835 58.9416 121.549 58.9811C120.263 59.0206 119.262 60.5261 119.319 62.3522Z" fill="#211A17"/>
<path d="M122.333 60.8063C121.587 60.8283 121.618 61.9915 122.368 61.9695C123.119 61.9476 123.084 60.78 122.333 60.8063Z" fill="white"/>
<path d="M115.337 66.4477C114.578 65.8551 113.397 65.8727 112.682 66.5179L114.758 70.1085C115.337 70.0734 115.811 69.5906 116.022 69.0507C116.378 68.1552 116.097 67.0403 115.337 66.4477Z" fill="#CE7872"/>
<path d="M96.9979 66.6489C93.5741 66.886 90.9536 69.3309 91.1467 72.1138C91.3399 74.8968 94.272 76.9598 97.6958 76.7228C101.12 76.4858 103.74 74.0364 103.547 71.2535C103.354 68.4706 100.422 66.4119 96.9979 66.6489Z" fill="#F9BFBB"/>
<path d="M129.953 68.3341C129.848 66.7758 128.202 65.617 126.279 65.7487C124.357 65.8848 122.886 67.2587 122.996 68.817C123.106 70.3796 124.752 71.5384 126.67 71.4024C128.593 71.2707 130.063 69.8968 129.953 68.3341Z" fill="#F9BFBB"/>
<path d="M59.2481 155.489C56.6451 166.551 54.8849 177.818 53.9807 189.148C49.7229 186.237 44.9735 183.621 40.2109 181.049C41.6243 180.066 42.9983 179.025 44.3283 177.924C49.0865 173.969 53.2345 169.132 55.6619 163.438C56.8427 160.647 57.3738 157.868 59.2481 155.489Z" fill="#DD5050"/>
</g>
<defs>
<clipPath id="clip0_1065_49930">
<rect width="200" height="200" fill="white"/>
</clipPath>
</defs>
</svg>
