<svg width="40" height="40" viewBox="0 0 40 40" fill="none" xmlns="http://www.w3.org/2000/svg">
<path d="M20 2.5C16.3545 2.50414 12.8596 3.95412 10.2818 6.53185C7.70412 9.10958 6.25414 12.6045 6.25 16.25C6.25 28.0156 18.75 36.9016 19.2828 37.2734C19.493 37.4207 19.7434 37.4996 20 37.4996C20.2566 37.4996 20.507 37.4207 20.7172 37.2734C21.25 36.9016 33.75 28.0156 33.75 16.25C33.7459 12.6045 32.2959 9.10958 29.7182 6.53185C27.1404 3.95412 23.6455 2.50414 20 2.5Z" fill="#00AEFF"/>
<path d="M19.3565 22.667C19.0844 22.667 18.7973 22.6306 18.495 22.558C17.8148 22.398 17.3311 22.0273 17.0439 21.4458C16.8474 21.0678 16.7568 20.7261 16.7719 20.4208C16.8021 20.101 16.8248 19.8684 16.8399 19.723C16.855 19.6503 16.8701 19.5776 16.8852 19.5049C16.9155 19.4177 16.9381 19.3304 16.9532 19.2432C16.8474 19.3014 16.7492 19.3522 16.6585 19.3959C16.5678 19.4249 16.4696 19.454 16.3638 19.4831C16.1219 19.5703 15.865 19.6139 15.5929 19.6139C15.1243 19.6139 14.6936 19.4904 14.3006 19.2432C13.9076 18.9815 13.628 18.6253 13.4617 18.1746C13.2652 17.6222 13.2954 17.0697 13.5524 16.5172C13.8093 15.9648 14.2326 15.5868 14.822 15.3833C14.8825 15.3687 15.0185 15.3106 15.2301 15.2088C15.4418 15.0925 15.7592 14.8817 16.1824 14.5764C16.6207 14.2711 17.1875 13.8276 17.8828 13.2461C18.4874 12.7373 19.0013 12.2938 19.4245 11.9158C19.8478 11.5233 20.0669 11.3198 20.082 11.3052C20.3692 11.029 20.7017 10.84 21.0796 10.7382C21.4726 10.6365 21.8656 10.6437 22.2586 10.76C22.9085 10.92 23.3771 11.2834 23.6643 11.8504C23.755 11.9958 23.8305 12.2211 23.891 12.5265C23.9666 12.8172 23.9439 13.1516 23.823 13.5296C23.823 13.5441 23.8154 13.5587 23.8003 13.5732C23.7852 13.5878 23.7776 13.6096 23.7776 13.6386C23.7625 13.6677 23.7474 13.7041 23.7323 13.7477C23.7323 13.7913 23.7247 13.8276 23.7096 13.8567C23.6794 13.9585 23.634 14.0675 23.5736 14.1838C23.5282 14.3001 23.4753 14.4383 23.4149 14.5982C23.3544 14.7436 23.2864 14.918 23.2108 15.1216C23.1504 15.3106 23.0748 15.5068 22.9841 15.7104C23.0143 15.6958 23.0446 15.6813 23.0748 15.6667C23.105 15.6377 23.1352 15.6159 23.1655 15.6013C23.6945 15.2669 24.2613 15.1652 24.8659 15.296C25.4705 15.4123 25.9391 15.7249 26.2716 16.2337C26.6343 16.7281 26.7477 17.2732 26.6117 17.8693C26.4907 18.4654 26.1658 18.9306 25.6368 19.265C25.274 19.4976 24.9264 19.7302 24.5938 19.9628C24.2764 20.1809 23.9514 20.4135 23.6189 20.6607C23.241 20.9369 22.8858 21.1913 22.5533 21.424C22.2359 21.6566 21.9109 21.8601 21.5784 22.0346C21.3366 22.1654 21.1098 22.2672 20.8982 22.3399C20.6866 22.4271 20.475 22.4998 20.2634 22.558C19.9309 22.6306 19.6286 22.667 19.3565 22.667Z" fill="white"/>
</svg>
