<svg width="40" height="40" viewBox="0 0 40 40" fill="none" xmlns="http://www.w3.org/2000/svg">
<path d="M20 2.5C16.3545 2.50414 12.8596 3.95412 10.2818 6.53185C7.70412 9.10958 6.25414 12.6045 6.25 16.25C6.25 28.0156 18.75 36.9016 19.2828 37.2734C19.493 37.4207 19.7434 37.4996 20 37.4996C20.2566 37.4996 20.507 37.4207 20.7172 37.2734C21.25 36.9016 33.75 28.0156 33.75 16.25C33.7459 12.6045 32.2959 9.10958 29.7182 6.53185C27.1404 3.95412 23.6455 2.50414 20 2.5Z" fill="#20CE86"/>
<path d="M19.5076 22.667C19.295 22.667 19.0558 22.6386 18.79 22.582C17.975 22.3552 17.3549 21.8355 16.9297 21.023C16.4336 21.2309 15.9198 21.2781 15.3883 21.1647C14.8391 21.0325 14.3696 20.7301 13.9798 20.2577C13.5014 19.6719 13.2888 18.9916 13.342 18.2169C13.3774 17.4232 13.6697 16.7713 14.219 16.2611C14.4139 16.091 14.6265 15.8926 14.8568 15.6659C15.0694 15.4202 15.2997 15.1746 15.5478 14.9289C15.973 14.4754 16.4159 14.0124 16.8765 13.54C17.3549 13.0676 17.8156 12.6519 18.2585 12.2929C18.5597 12.0472 18.8432 11.8299 19.1089 11.6409C19.3924 11.452 19.6582 11.2914 19.9062 11.1591C20.8275 10.6867 21.7311 10.5544 22.6169 10.7623C23.6268 11.0646 24.3267 11.7543 24.7164 12.8314C24.9645 13.5873 24.9556 14.3809 24.6899 15.2124C24.6544 15.3068 24.619 15.4013 24.5836 15.4958C24.5481 15.5903 24.5038 15.6942 24.4507 15.8076C25.0885 16.1288 25.5491 16.6579 25.8326 17.3949C26.0807 18.1508 26.0541 18.8877 25.7529 19.6058C25.4517 20.3049 24.9468 20.7868 24.2381 21.0513C23.6888 21.2781 23.1839 21.486 22.7232 21.6749C22.2626 21.845 21.8728 21.9867 21.5539 22.1001C21.3767 22.1757 21.2084 22.2418 21.049 22.2985C20.9072 22.3552 20.7921 22.4024 20.7035 22.4402C20.5263 22.478 20.3403 22.5253 20.1454 22.582C19.9505 22.6386 19.7379 22.667 19.5076 22.667Z" fill="white"/>
</svg>
