<svg width="40" height="40" viewBox="0 0 40 40" fill="none" xmlns="http://www.w3.org/2000/svg">
<path d="M20 2.5C16.3545 2.50414 12.8596 3.95412 10.2818 6.53185C7.70412 9.10958 6.25414 12.6045 6.25 16.25C6.25 28.0156 18.75 36.9016 19.2828 37.2734C19.493 37.4207 19.7434 37.4996 20 37.4996C20.2566 37.4996 20.507 37.4207 20.7172 37.2734C21.25 36.9016 33.75 28.0156 33.75 16.25C33.7459 12.6045 32.2959 9.10958 29.7182 6.53185C27.1404 3.95412 23.6455 2.50414 20 2.5Z" fill="#FF6B6B"/>
<path d="M15.9201 22.667C15.7639 22.667 15.6147 22.6596 15.4727 22.6448C15.3449 22.6448 15.2455 22.6374 15.1744 22.6226C14.7767 22.5044 14.4217 22.3122 14.1092 22.0462C13.7967 21.7949 13.5624 21.4844 13.4061 21.1149C13.3067 20.9079 13.2428 20.7232 13.2144 20.5606C13.186 20.3832 13.1718 20.2058 13.1718 20.0284C13.1718 19.7919 13.1931 19.5628 13.2357 19.3411C13.1079 19.2524 12.9729 19.1563 12.8309 19.0528C12.6889 18.9345 12.5823 18.8237 12.5113 18.7202C12.1704 18.2472 12 17.7446 12 17.2124C12 16.8577 12.0781 16.5177 12.2344 16.1925C12.3764 15.8673 12.5752 15.5864 12.8309 15.3499C12.9019 15.276 13.0368 15.1356 13.2357 14.9286C13.4203 14.7217 13.5908 14.5147 13.747 14.3078L14.1731 13.82C14.3719 13.5983 14.5779 13.3691 14.7909 13.1326C15.004 12.8961 15.2028 12.6818 15.3875 12.4896C15.6147 12.2827 15.8136 12.1053 15.984 11.9575C16.1545 11.8096 16.3036 11.6914 16.4314 11.6027C17.17 11.1297 17.937 10.9818 18.7324 11.1592C19.5561 11.381 20.103 11.8614 20.3728 12.6005L20.3515 12.5783C20.4083 12.7113 20.451 12.8444 20.4794 12.9774C20.522 13.0957 20.5504 13.2213 20.5646 13.3544C20.7634 13.1326 20.941 12.9257 21.0972 12.7335C21.2534 12.5266 21.3955 12.3418 21.5233 12.1792L21.8216 11.8244C21.85 11.7949 21.8713 11.7653 21.8855 11.7357C21.9139 11.6914 21.9281 11.6692 21.9281 11.6692C22.2548 11.2701 22.6383 10.9892 23.0786 10.8266C23.5331 10.6493 23.9876 10.6197 24.4421 10.7379C24.7545 10.8266 25.0386 10.9892 25.2943 11.2258C25.5641 11.4623 25.7843 11.7357 25.9547 12.0461C26.1536 12.5192 26.2388 12.9257 26.2104 13.2657C26.1962 13.5909 26.1749 13.8126 26.1465 13.9308C26.1323 13.99 26.111 14.0565 26.0826 14.1304C26.0684 14.2043 26.0542 14.2708 26.0399 14.33L25.9121 14.7512L25.8908 14.8178C26.1749 14.8326 26.4589 14.9139 26.743 15.0617C27.0271 15.1947 27.2614 15.3795 27.4461 15.616C27.6307 15.8525 27.7656 16.1112 27.8509 16.392C27.9503 16.6729 28 16.9464 28 17.2124C28 17.9515 27.7088 18.5798 27.1265 19.0971L27.02 19.208C26.7217 19.4741 26.4021 19.7402 26.0613 20.0062C25.7346 20.2723 25.3866 20.5236 25.0173 20.7601C24.1793 21.2775 23.3555 21.5362 22.5459 21.5362C22.2051 21.5362 21.8642 21.4844 21.5233 21.381C21.2676 21.3218 21.0262 21.2184 20.7989 21.0705C20.5859 20.9227 20.4012 20.7527 20.245 20.5606C20.0746 20.7084 19.9112 20.8488 19.755 20.9818C19.5988 21.1001 19.4212 21.2257 19.2224 21.3588H19.2437C18.917 21.5953 18.6045 21.7949 18.3063 21.9575C18.008 22.1201 17.7239 22.2605 17.4541 22.3787C17.2268 22.4822 16.9712 22.5561 16.6871 22.6005C16.4172 22.6448 16.1616 22.667 15.9201 22.667Z" fill="white"/>
</svg>
