<svg width="81" height="28" viewBox="0 0 81 28" fill="none" xmlns="http://www.w3.org/2000/svg">
<path d="M6.73828 19.2637C5.7487 19.2637 4.85352 19.1172 4.05273 18.8242C3.25195 18.5247 2.5651 18.0918 1.99219 17.5254C1.42578 16.9525 0.986328 16.2526 0.673828 15.4258C0.367839 14.5924 0.214844 13.6452 0.214844 12.584C0.214844 11.4902 0.390625 10.5397 0.742188 9.73242C1.10026 8.91862 1.57227 8.24154 2.1582 7.70117C2.75065 7.16081 3.42773 6.75716 4.18945 6.49023C4.95768 6.22331 5.75195 6.08984 6.57227 6.08984C7.39909 6.08984 8.15755 6.19727 8.84766 6.41211C9.53776 6.62695 10.127 6.91992 10.6152 7.29102C11.11 7.66211 11.4941 8.09831 11.7676 8.59961C12.041 9.10091 12.1777 9.64128 12.1777 10.2207C12.1777 10.6829 12.1029 11.0768 11.9531 11.4023C11.8034 11.7279 11.5951 11.9948 11.3281 12.2031C11.0677 12.4049 10.752 12.5547 10.3809 12.6523C10.0098 12.75 9.60612 12.7988 9.16992 12.7988C8.89648 12.7988 8.62305 12.763 8.34961 12.6914C8.08268 12.6133 7.83529 12.5189 7.60742 12.4082C7.37956 12.2975 7.18424 12.1803 7.02148 12.0566C6.86523 11.9264 6.76432 11.8125 6.71875 11.7148C6.71875 11.5456 6.71875 11.3503 6.71875 11.1289C6.72526 10.9076 6.73503 10.6829 6.74805 10.4551C6.72852 10.4486 6.70247 10.4453 6.66992 10.4453C6.64388 10.4453 6.62435 10.4453 6.61133 10.4453C6.51367 10.4453 6.43555 10.4746 6.37695 10.5332C6.32487 10.5853 6.28255 10.6829 6.25 10.8262C6.21745 10.9629 6.19466 11.1517 6.18164 11.3926C6.17513 11.6335 6.17188 11.9395 6.17188 12.3105C6.17188 12.8118 6.18164 13.2415 6.20117 13.5996C6.22721 13.9512 6.25977 14.2409 6.29883 14.4688C6.33789 14.6901 6.38672 14.8529 6.44531 14.957C6.50391 15.0612 6.56901 15.1133 6.64062 15.1133C6.70573 15.1133 6.76432 15.097 6.81641 15.0645V14.1758C7.04427 14.0195 7.32422 13.8796 7.65625 13.7559C7.98828 13.6322 8.33984 13.528 8.71094 13.4434C9.08854 13.3522 9.47591 13.2839 9.87305 13.2383C10.2702 13.1862 10.6478 13.1602 11.0059 13.1602C11.1816 13.3424 11.3411 13.5736 11.4844 13.8535C11.6341 14.1335 11.7611 14.4362 11.8652 14.7617C11.9759 15.0807 12.0638 15.4062 12.1289 15.7383C12.194 16.0638 12.2298 16.3633 12.2363 16.6367C12.1126 16.8776 11.901 17.151 11.6016 17.457C11.3021 17.7565 10.9212 18.043 10.459 18.3164C9.99674 18.5833 9.45312 18.8079 8.82812 18.9902C8.20312 19.1725 7.50651 19.2637 6.73828 19.2637ZM17.1 14.6445C16.9503 14.6445 16.8428 14.6836 16.7777 14.7617C16.7191 14.8333 16.6898 14.918 16.6898 15.0156C16.6898 15.1458 16.7354 15.237 16.8266 15.2891C16.9242 15.3411 17.0382 15.3672 17.1684 15.3672C17.3767 15.3672 17.5362 15.3151 17.6469 15.2109C17.7576 15.1068 17.8129 14.918 17.8129 14.6445H17.1ZM22.1684 14.166C22.1684 14.6152 22.2172 14.9863 22.3148 15.2793C22.4125 15.5723 22.598 15.8034 22.8715 15.9727C22.878 16.0247 22.8813 16.0898 22.8813 16.168C22.8813 16.2396 22.8813 16.2949 22.8813 16.334C22.8813 16.8288 22.8031 17.2552 22.6469 17.6133C22.4906 17.9714 22.2855 18.2676 22.0316 18.502C21.7842 18.7298 21.501 18.8991 21.182 19.0098C20.863 19.1204 20.5375 19.1758 20.2055 19.1758C19.9711 19.1758 19.74 19.1465 19.5121 19.0879C19.2908 19.0358 19.0792 18.9544 18.8773 18.8438C18.682 18.7331 18.503 18.5931 18.3402 18.4238C18.184 18.248 18.0603 18.043 17.9691 17.8086C17.8585 17.8086 17.7738 17.8379 17.7152 17.8965C17.6632 17.9551 17.6371 18.0332 17.6371 18.1309C17.6371 18.222 17.6664 18.3197 17.725 18.4238C17.7836 18.528 17.8682 18.6354 17.9789 18.7461C17.7706 18.8893 17.4906 18.9967 17.1391 19.0684C16.7875 19.14 16.4294 19.1758 16.0648 19.1758C15.4724 19.1758 14.932 19.0944 14.4438 18.9316C13.962 18.7689 13.5453 18.528 13.1938 18.209C12.8487 17.89 12.5785 17.5026 12.3832 17.0469C12.1944 16.5846 12.1 16.054 12.1 15.4551C12.1 14.8366 12.2009 14.3027 12.4027 13.8535C12.6111 13.3978 12.891 13.0234 13.2426 12.7305C13.5941 12.431 14.001 12.2096 14.4633 12.0664C14.932 11.9232 15.4268 11.8516 15.9477 11.8516C16.182 11.8516 16.3904 11.8613 16.5727 11.8809C16.7549 11.8939 16.9112 11.9102 17.0414 11.9297C17.1911 11.9557 17.3181 11.9818 17.4223 12.0078C17.4418 11.9427 17.4516 11.8874 17.4516 11.8418C17.4516 11.7572 17.406 11.6855 17.3148 11.627C17.2302 11.5684 17.1163 11.526 16.973 11.5C16.8298 11.4674 16.6638 11.4447 16.475 11.4316C16.2862 11.4186 16.0941 11.4121 15.8988 11.4121C15.4561 11.4121 15.0134 11.4609 14.5707 11.5586C14.128 11.6562 13.7309 11.806 13.3793 12.0078C13.2361 11.7669 13.1189 11.4609 13.0277 11.0898C12.9431 10.7188 12.9008 10.3411 12.9008 9.95703C12.9008 9.77474 12.9105 9.59245 12.9301 9.41016C12.9561 9.22135 13.0049 9.05534 13.0766 8.91211C13.2458 8.83398 13.4607 8.74935 13.7211 8.6582C13.988 8.56055 14.294 8.47266 14.6391 8.39453C14.9906 8.3099 15.3747 8.23828 15.7914 8.17969C16.2146 8.12109 16.6671 8.0918 17.1488 8.0918C17.9887 8.0918 18.7211 8.1862 19.3461 8.375C19.9776 8.5638 20.5017 8.83724 20.9184 9.19531C21.335 9.54688 21.6475 9.98307 21.8559 10.5039C22.0642 11.0182 22.1684 11.6009 22.1684 12.252V14.166ZM24.5223 8.32617C24.9259 8.32617 25.2612 8.39128 25.5281 8.52148C25.8016 8.65169 26.0164 8.83398 26.1727 9.06836C26.088 9.15951 26.0066 9.27018 25.9285 9.40039C25.8569 9.5306 25.7918 9.66081 25.7332 9.79102C25.6811 9.91471 25.6388 10.0352 25.6063 10.1523C25.5737 10.263 25.5574 10.3509 25.5574 10.416C25.5574 10.4941 25.5867 10.5658 25.6453 10.6309C25.7039 10.6895 25.7951 10.7188 25.9188 10.7188C26.0424 10.237 26.215 9.83333 26.4363 9.50781C26.6642 9.18229 26.9214 8.92188 27.2078 8.72656C27.5008 8.53125 27.8133 8.39453 28.1453 8.31641C28.4839 8.23177 28.8257 8.18945 29.1707 8.18945C29.4507 8.18945 29.7078 8.20898 29.9422 8.24805C30.1766 8.2806 30.3882 8.32617 30.577 8.38477C30.7658 8.44336 30.9318 8.51172 31.075 8.58984C31.2182 8.66146 31.3387 8.73307 31.4363 8.80469C31.5405 9.07812 31.6154 9.36784 31.6609 9.67383C31.7065 9.97982 31.7293 10.2793 31.7293 10.5723C31.7293 11.0996 31.6805 11.5391 31.5828 11.8906C31.4917 12.2422 31.3908 12.5319 31.2801 12.7598C31.1759 12.8118 31.0457 12.8639 30.8895 12.916C30.7332 12.9681 30.5607 13.0137 30.3719 13.0527C30.1896 13.0918 29.9943 13.1243 29.7859 13.1504C29.5776 13.1699 29.3725 13.1797 29.1707 13.1797C28.9559 13.1797 28.7638 13.1732 28.5945 13.1602C28.4318 13.1471 28.282 13.1309 28.1453 13.1113C28.0086 13.0853 27.8816 13.0592 27.7645 13.0332C27.6538 13.0007 27.5398 12.9714 27.4227 12.9453C27.3706 12.9974 27.3445 13.0723 27.3445 13.1699C27.3445 13.2611 27.4031 13.3327 27.5203 13.3848C27.644 13.4368 27.8621 13.4922 28.1746 13.5508V18.4531C27.9533 18.5964 27.7286 18.7135 27.5008 18.8047C27.2729 18.8893 27.0483 18.9544 26.827 19C26.6121 19.0521 26.4038 19.0846 26.202 19.0977C26.0066 19.1172 25.8243 19.127 25.6551 19.127C25.2905 19.127 24.9487 19.0911 24.6297 19.0195C24.3107 18.9544 24.0307 18.8535 23.7898 18.7168C23.5555 18.5736 23.3699 18.3945 23.2332 18.1797C23.0965 17.9648 23.0281 17.7077 23.0281 17.4082V12.3789C22.8328 12.1055 22.6863 11.7962 22.5887 11.4512C22.4975 11.1061 22.452 10.7448 22.452 10.3672C22.452 10.0547 22.4975 9.70964 22.5887 9.33203C22.6863 8.95443 22.8328 8.61914 23.0281 8.32617H24.5223ZM37.2375 12.6914C37.4003 12.6914 37.5207 12.6589 37.5988 12.5938C37.6835 12.5221 37.7258 12.431 37.7258 12.3203C37.7258 12.1901 37.677 12.099 37.5793 12.0469C37.4882 11.9948 37.3775 11.9688 37.2473 11.9688C37.065 11.9688 36.9185 12.0208 36.8078 12.125C36.7036 12.2227 36.6385 12.3561 36.6125 12.5254C36.6776 12.5645 36.7622 12.6035 36.8664 12.6426C36.9706 12.6751 37.0943 12.6914 37.2375 12.6914ZM37.3645 19.3027C36.4725 19.3027 35.6652 19.1758 34.9426 18.9219C34.2199 18.6615 33.6014 18.2904 33.0871 17.8086C32.5793 17.3203 32.1854 16.7279 31.9055 16.0312C31.632 15.3346 31.4953 14.5501 31.4953 13.6777C31.4953 12.7598 31.6418 11.9492 31.9348 11.2461C32.2342 10.543 32.6346 9.95378 33.1359 9.47852C33.6437 9.00326 34.2329 8.64518 34.9035 8.4043C35.5741 8.16341 36.2805 8.04297 37.0227 8.04297C37.8104 8.04297 38.5201 8.16016 39.1516 8.39453C39.7831 8.6224 40.3202 8.93815 40.7629 9.3418C41.2121 9.74544 41.5572 10.2174 41.798 10.7578C42.0389 11.2982 42.1594 11.8743 42.1594 12.4863C42.1594 13.0658 42.0552 13.5638 41.8469 13.9805C41.6451 14.3971 41.3618 14.7422 40.9973 15.0156C40.6327 15.2826 40.1997 15.4811 39.6984 15.6113C39.1971 15.7415 38.6535 15.8066 38.0676 15.8066C37.6249 15.8066 37.1952 15.7546 36.7785 15.6504C36.3684 15.5462 36.0168 15.4062 35.7238 15.2305C35.6913 15.2565 35.6685 15.2923 35.6555 15.3379C35.649 15.377 35.6457 15.4128 35.6457 15.4453C35.6457 15.543 35.7173 15.6406 35.8605 15.7383C36.0038 15.8294 36.1893 15.9141 36.4172 15.9922C36.6451 16.0638 36.9055 16.1257 37.1984 16.1777C37.4914 16.2233 37.7844 16.2461 38.0773 16.2461C38.481 16.2461 38.8488 16.2201 39.1809 16.168C39.5129 16.1094 39.8091 16.041 40.0695 15.9629C40.3365 15.8783 40.5676 15.7871 40.7629 15.6895C40.9582 15.5918 41.121 15.4974 41.2512 15.4062C41.3358 15.4779 41.4074 15.5853 41.466 15.7285C41.5311 15.8652 41.5865 16.0182 41.632 16.1875C41.6776 16.3568 41.7102 16.5326 41.7297 16.7148C41.7557 16.8906 41.7687 17.0534 41.7687 17.2031C41.7687 17.3529 41.759 17.4961 41.7395 17.6328C41.7264 17.763 41.7069 17.877 41.6809 17.9746C41.4725 18.1504 41.2447 18.3197 40.9973 18.4824C40.7499 18.6387 40.4569 18.7786 40.1184 18.9023C39.7798 19.0195 39.3859 19.1139 38.9367 19.1855C38.494 19.2637 37.9699 19.3027 37.3645 19.3027ZM42.316 5.70898C42.3811 5.66992 42.4853 5.61458 42.6285 5.54297C42.7717 5.47135 42.941 5.40299 43.1363 5.33789C43.3382 5.26628 43.566 5.20768 43.8199 5.16211C44.0738 5.11003 44.344 5.08398 44.6305 5.08398C45.0992 5.08398 45.4996 5.13607 45.8316 5.24023C46.1702 5.3444 46.4469 5.49089 46.6617 5.67969C46.8766 5.86198 47.0328 6.08333 47.1305 6.34375C47.2346 6.60417 47.2867 6.89388 47.2867 7.21289V14.0781C47.2867 14.5273 47.3355 14.9147 47.4332 15.2402C47.5309 15.5592 47.7164 15.8034 47.9898 15.9727C47.9964 16.0247 47.9996 16.0898 47.9996 16.168C47.9996 16.2396 47.9996 16.2949 47.9996 16.334C47.9996 17.278 47.7587 17.9876 47.277 18.4629C46.8017 18.9382 46.1376 19.1758 45.2848 19.1758C44.9007 19.1758 44.5296 19.1204 44.1715 19.0098C43.8134 18.8991 43.4977 18.7135 43.2242 18.4531C42.9508 18.1927 42.7294 17.8509 42.5602 17.4277C42.3974 17.0046 42.316 16.4805 42.316 15.8555V5.70898ZM50.4512 8.32617C50.9134 8.32617 51.2943 8.39453 51.5938 8.53125C51.8997 8.66146 52.1439 8.83398 52.3262 9.04883C52.515 9.26367 52.6517 9.50781 52.7363 9.78125C52.8275 10.0547 52.8893 10.3346 52.9219 10.6211C52.9023 10.7708 52.8796 10.9727 52.8535 11.2266C52.8275 11.474 52.8014 11.7539 52.7754 12.0664C52.7559 12.3724 52.7396 12.6979 52.7266 13.043C52.7135 13.388 52.707 13.7298 52.707 14.0684C52.707 14.14 52.707 14.2181 52.707 14.3027C52.707 14.3809 52.7103 14.4525 52.7168 14.5176C52.7559 14.5371 52.7917 14.5501 52.8242 14.5566C52.8633 14.5632 52.8991 14.5664 52.9316 14.5664C53.0358 14.5664 53.1074 14.5273 53.1465 14.4492C53.1921 14.3711 53.2148 14.2669 53.2148 14.1367C53.2148 13.5898 53.2311 13.0495 53.2637 12.5156C53.2962 11.9753 53.3353 11.4674 53.3809 10.9922C53.4329 10.5169 53.4883 10.0872 53.5469 9.70312C53.612 9.31901 53.6706 9.00651 53.7227 8.76562C54.0091 8.55729 54.3314 8.41081 54.6895 8.32617C55.054 8.23503 55.4512 8.18945 55.8809 8.18945C56.3301 8.18945 56.724 8.24154 57.0625 8.3457C57.401 8.44336 57.681 8.57357 57.9023 8.73633C58.1302 8.89909 58.2995 9.08464 58.4102 9.29297C58.5273 9.5013 58.5859 9.71615 58.5859 9.9375C58.5859 9.97656 58.5729 10.1068 58.5469 10.3281C58.5208 10.543 58.4785 10.8294 58.4199 11.1875C58.3678 11.5456 58.2995 11.9655 58.2148 12.4473C58.1367 12.9225 58.0391 13.4336 57.9219 13.9805C57.8112 14.5273 57.6842 15.1035 57.541 15.709C57.4043 16.3079 57.2513 16.9134 57.082 17.5254C56.7956 18.554 56.4473 19.3906 56.0371 20.0352C55.6335 20.6862 55.1875 21.194 54.6992 21.5586C54.2174 21.9297 53.7096 22.1836 53.1758 22.3203C52.6419 22.457 52.1048 22.5254 51.5645 22.5254C51.0111 22.5254 50.5326 22.4538 50.1289 22.3105C49.7253 22.1738 49.39 21.985 49.123 21.7441C48.8626 21.5098 48.6673 21.2363 48.5371 20.9238C48.4069 20.6113 48.3418 20.2826 48.3418 19.9375C48.3418 19.6055 48.3874 19.2897 48.4785 18.9902C48.5762 18.6842 48.7357 18.3685 48.957 18.043C49.0091 18.0299 49.0775 18.0202 49.1621 18.0137C49.2533 18.0072 49.3379 18.0039 49.416 18.0039C49.6113 18.0039 49.8066 18.0169 50.002 18.043C50.1973 18.0625 50.3535 18.082 50.4707 18.1016L52.0039 18.3848C52.0755 18.3978 52.1471 18.4108 52.2188 18.4238C52.2904 18.4368 52.362 18.4434 52.4336 18.4434C52.5443 18.4434 52.6354 18.4206 52.707 18.375C52.7852 18.3294 52.8242 18.222 52.8242 18.0527L50.5195 17.6133C50.2786 17.5156 50.028 17.3496 49.7676 17.1152C49.5137 16.8809 49.2728 16.5586 49.0449 16.1484C48.8171 15.7318 48.6087 15.2142 48.4199 14.5957C48.2376 13.9772 48.0977 13.2383 48 12.3789C47.8242 12.151 47.6745 11.8711 47.5508 11.5391C47.4206 11.2005 47.3555 10.8229 47.3555 10.4062C47.3555 10.0482 47.401 9.6901 47.4922 9.33203C47.5833 8.97396 47.7331 8.63867 47.9414 8.32617H50.4512Z" fill="url(#paint0_linear_1371_76778)"/>
<path d="M63.2656 7.28125C63.5195 7.11849 63.806 6.97201 64.125 6.8418C64.444 6.70508 64.7793 6.59115 65.1309 6.5C65.4889 6.40885 65.8568 6.34049 66.2344 6.29492C66.6185 6.24284 67.0026 6.2168 67.3867 6.2168C67.8945 6.2168 68.3958 6.26237 68.8906 6.35352C69.3919 6.44466 69.8477 6.58789 70.2578 6.7832C70.668 6.97852 71.0195 7.23242 71.3125 7.54492C71.6055 7.85091 71.804 8.21875 71.9082 8.64844L74.1348 17.8574C73.8353 18.2415 73.4154 18.5573 72.875 18.8047C72.3346 19.0521 71.651 19.1758 70.8242 19.1758C70.4596 19.1758 70.1178 19.1432 69.7988 19.0781C69.4798 19.013 69.1966 18.9186 68.9492 18.7949C68.7083 18.6647 68.5065 18.5052 68.3438 18.3164C68.1875 18.1211 68.0866 17.8932 68.041 17.6328L67.8262 16.4414C68.028 16.4349 68.2266 16.4121 68.4219 16.373C68.6237 16.3275 68.8027 16.2754 68.959 16.2168C69.1217 16.1517 69.252 16.0801 69.3496 16.002C69.4538 15.9238 69.5059 15.8457 69.5059 15.7676C69.5059 15.6634 69.4635 15.5788 69.3789 15.5137C69.2617 15.5983 69.125 15.6764 68.9688 15.748C68.8125 15.8132 68.6465 15.8685 68.4707 15.9141C68.3014 15.9596 68.1289 15.9954 67.9531 16.0215C67.7839 16.041 67.6243 16.0508 67.4746 16.0508C67.1947 16.0508 66.944 16.0345 66.7227 16.002C66.5078 15.9629 66.319 15.9173 66.1562 15.8652C65.9935 15.8132 65.8535 15.7578 65.7363 15.6992C65.6191 15.6341 65.5215 15.5723 65.4434 15.5137C65.4173 15.5462 65.3945 15.5853 65.375 15.6309C65.3555 15.6699 65.3457 15.7155 65.3457 15.7676C65.3457 15.8652 65.3945 15.9564 65.4922 16.041C65.5964 16.1191 65.7331 16.1908 65.9023 16.2559C66.0716 16.3145 66.2637 16.3633 66.4785 16.4023C66.6999 16.4414 66.931 16.4674 67.1719 16.4805C67.2109 16.9362 67.2533 17.3008 67.2988 17.5742C67.3509 17.8411 67.3997 18.0104 67.4453 18.082C67.3867 18.1927 67.2695 18.3132 67.0938 18.4434C66.9245 18.5671 66.7096 18.6842 66.4492 18.7949C66.1953 18.9056 65.9023 18.9967 65.5703 19.0684C65.2448 19.14 64.8965 19.1758 64.5254 19.1758C64.0632 19.1758 63.627 19.1237 63.2168 19.0195C62.8066 18.9154 62.4486 18.7721 62.1426 18.5898C61.8366 18.401 61.5924 18.1764 61.4102 17.916C61.2279 17.6491 61.1367 17.3529 61.1367 17.0273C61.1367 16.9557 61.14 16.8841 61.1465 16.8125C61.153 16.7344 61.166 16.6562 61.1855 16.5781L63.2656 7.28125ZM67.8555 12.3105C67.7839 11.9199 67.7253 11.6074 67.6797 11.373C67.6406 11.1387 67.5983 10.9629 67.5527 10.8457C67.5137 10.722 67.4681 10.6439 67.416 10.6113C67.3704 10.5723 67.3118 10.5527 67.2402 10.5527C67.1947 10.5527 67.1523 10.5592 67.1133 10.5723C67.0742 10.5853 67.0384 10.5983 67.0059 10.6113L67.377 12.584C67.403 12.61 67.4388 12.6296 67.4844 12.6426C67.5365 12.6556 67.582 12.6621 67.6211 12.6621C67.6797 12.6621 67.735 12.6556 67.7871 12.6426C67.8392 12.623 67.8783 12.6068 67.9043 12.5938L67.8555 12.3105ZM79.7406 18.2578C79.4737 18.4922 79.0928 18.7038 78.598 18.8926C78.1098 19.0814 77.5206 19.1758 76.8305 19.1758C76.4659 19.1758 76.1143 19.1367 75.7758 19.0586C75.4372 18.9805 75.1378 18.8633 74.8773 18.707C74.6234 18.5443 74.4184 18.3424 74.2621 18.1016C74.1124 17.8542 74.0375 17.5645 74.0375 17.2324V7.14453C74.3044 6.91016 74.682 6.69857 75.1703 6.50977C75.6651 6.32096 76.2576 6.22656 76.9477 6.22656C77.3122 6.22656 77.6638 6.26562 78.0023 6.34375C78.3409 6.42188 78.6371 6.54232 78.891 6.70508C79.1514 6.86133 79.3565 7.06315 79.5063 7.31055C79.6625 7.55143 79.7406 7.83789 79.7406 8.16992V18.2578Z" fill="url(#paint1_linear_1371_76778)"/>
<defs>
<linearGradient id="paint0_linear_1371_76778" x1="0" y1="14" x2="59" y2="14" gradientUnits="userSpaceOnUse">
<stop stop-color="#FFA0A0"/>
<stop offset="1" stop-color="#FF6B6B"/>
</linearGradient>
<linearGradient id="paint1_linear_1371_76778" x1="61" y1="14" x2="81" y2="14" gradientUnits="userSpaceOnUse">
<stop stop-color="#20CE86"/>
<stop offset="1" stop-color="#00AEFF"/>
</linearGradient>
</defs>
</svg>
