<svg width="375" height="287" viewBox="0 0 375 287" fill="none" xmlns="http://www.w3.org/2000/svg">
<path opacity="0.7" d="M352.414 237.986C348.287 237.986 343.643 237.47 338.484 236.438C322.662 232.311 310.623 222.852 302.368 208.061C292.737 211.845 282.762 212.705 272.443 210.641C261.78 208.233 252.665 202.73 245.098 194.131C235.811 183.468 231.683 171.085 232.715 156.983C233.403 142.536 239.079 130.669 249.741 121.382C253.525 118.287 257.653 114.675 262.124 110.548C266.252 106.076 270.723 101.605 275.539 97.1331C283.794 88.878 292.393 80.4509 301.336 71.8518C310.623 63.2528 319.566 55.6856 328.165 49.1503C334.012 44.6788 339.516 40.7232 344.675 37.2836C350.179 33.844 355.338 30.9203 360.154 28.5125C378.04 19.9135 395.582 17.5057 412.78 21.2893C432.386 26.7927 445.972 39.3474 453.539 58.9533C458.355 72.7118 458.183 87.1582 453.023 102.293C452.336 104.012 451.648 105.732 450.96 107.452C450.272 109.172 449.412 111.064 448.38 113.127C460.763 118.975 469.706 128.606 475.209 142.02C480.025 155.779 479.509 169.193 473.661 182.264C467.814 194.991 458.011 203.762 444.252 208.577C433.59 212.705 423.787 216.488 414.844 219.928C405.901 223.023 398.333 225.603 392.142 227.667C388.702 229.043 385.435 230.247 382.339 231.279C379.587 232.31 377.352 233.17 375.632 233.858C372.192 234.546 368.581 235.406 364.797 236.438C361.013 237.47 356.886 237.986 352.414 237.986Z" fill="#20CE86"/>
<path opacity="0.7" d="M194.216 283.907C188.025 283.907 181.489 283.047 174.61 281.327C159.132 277.544 148.125 268.773 141.59 255.014C137.118 246.071 135.054 237.988 135.398 230.765C136.086 223.197 136.602 217.694 136.946 214.254C137.29 212.535 137.634 210.815 137.978 209.095C138.666 207.031 139.182 204.967 139.526 202.904C137.118 204.28 134.882 205.483 132.819 206.515C130.755 207.203 128.519 207.891 126.111 208.579C120.608 210.643 114.761 211.675 108.569 211.675C97.9065 211.675 88.1035 208.751 79.1605 202.904C70.2174 196.712 63.8541 188.285 60.0705 177.622C55.599 164.552 56.287 151.481 62.1343 138.411C67.9817 125.34 77.6126 116.397 91.0272 111.582C92.403 111.238 95.4987 109.862 100.314 107.454C105.13 104.702 112.353 99.7148 121.984 92.4916C131.959 85.2684 144.857 74.7775 160.68 61.019C174.438 48.9803 186.133 38.4894 195.764 29.5464C205.395 20.2594 210.382 15.4439 210.726 15.1C217.262 8.56466 224.829 4.09316 233.428 1.68543C242.371 -0.722314 251.314 -0.550349 260.257 2.20135C275.047 5.98494 285.71 14.584 292.245 27.9986C294.309 31.4382 296.029 36.7696 297.405 43.9928C299.125 50.8721 298.609 58.7833 295.857 67.7263C295.857 68.0702 295.685 68.4142 295.341 68.7582C294.997 69.1021 294.825 69.6181 294.825 70.306C294.481 70.9939 294.137 71.8538 293.793 72.8857C293.793 73.9176 293.621 74.7775 293.277 75.4654C292.589 77.8732 291.558 80.4529 290.182 83.2046C289.15 85.9563 287.946 89.2239 286.57 93.0075C285.194 96.4472 283.646 100.575 281.927 105.39C280.551 109.862 278.831 114.505 276.767 119.321C277.455 118.977 278.143 118.633 278.831 118.289C279.519 117.601 280.207 117.085 280.895 116.741C292.933 108.83 305.832 106.422 319.59 109.518C333.349 112.269 344.012 119.665 351.579 131.703C359.834 143.398 362.414 156.297 359.318 170.399C356.566 184.502 349.171 195.508 337.133 203.42C328.878 208.923 320.966 214.426 313.399 219.93C306.176 225.089 298.781 230.593 291.214 236.44C282.614 242.975 274.531 248.995 266.964 254.498C259.741 260.001 252.346 264.817 244.779 268.945C239.275 272.04 234.116 274.448 229.3 276.168C224.485 278.231 219.669 279.951 214.854 281.327C207.287 283.047 200.407 283.907 194.216 283.907Z" fill="#00AEFF"/>
<path opacity="0.7" d="M-102.066 287C-105.85 287 -109.461 286.828 -112.901 286.484C-115.997 286.484 -118.404 286.312 -120.124 285.968C-129.755 283.216 -138.354 278.745 -145.922 272.554C-153.489 266.706 -159.164 259.483 -162.948 250.884C-165.355 246.068 -166.903 241.769 -167.591 237.985C-168.279 233.858 -168.623 229.73 -168.623 225.603C-168.623 220.099 -168.107 214.768 -167.075 209.608C-170.171 207.545 -173.439 205.309 -176.878 202.901C-180.318 200.149 -182.898 197.57 -184.617 195.162C-192.872 184.155 -197 172.46 -197 160.078C-197 151.823 -195.108 143.911 -191.325 136.344C-187.885 128.777 -183.07 122.242 -176.878 116.738C-175.158 115.019 -171.891 111.751 -167.075 106.935C-162.604 102.12 -158.476 97.3045 -154.693 92.489L-144.374 81.1382C-139.558 75.9788 -134.571 70.6474 -129.411 65.144C-124.252 59.6406 -119.436 54.6531 -114.965 50.1816C-109.461 45.3661 -104.646 41.2386 -100.518 37.7989C-96.3909 34.3593 -92.7793 31.6076 -89.6836 29.5438C-71.7975 18.537 -53.2235 15.0974 -33.9616 19.2249C-14.0118 24.3844 -0.769196 35.5632 5.7661 52.7613L5.25014 52.2454C6.62599 55.341 7.65788 58.4367 8.34581 61.5324C9.3777 64.2841 10.0656 67.2078 10.4096 70.3034C15.2251 65.144 19.5246 60.3285 23.3082 55.857C27.0918 51.0415 30.5314 46.742 33.6271 42.9584L40.8503 34.7033C41.5382 34.0153 42.0542 33.3274 42.3981 32.6395C43.0861 31.6076 43.43 31.0917 43.43 31.0917C51.3412 21.8047 60.6282 15.2694 71.291 11.4858C82.2978 7.35825 93.3046 6.67031 104.311 9.42201C111.879 11.4858 118.758 15.2694 124.949 20.7728C131.485 26.2762 136.816 32.6395 140.944 39.8627C145.759 50.8695 147.823 60.3285 147.135 68.2396C146.791 75.8068 146.275 80.9663 145.587 83.718C145.243 85.0938 144.727 86.6417 144.039 88.3615C143.695 90.0813 143.351 91.6291 143.007 93.005L139.912 102.808L139.396 104.356C146.275 104.7 153.154 106.591 160.033 110.031C166.913 113.127 172.588 117.426 177.06 122.93C181.531 128.433 184.799 134.452 186.863 140.988C189.27 147.523 190.474 153.886 190.474 160.078C190.474 177.276 183.423 191.894 169.32 203.933L166.741 206.513C159.517 212.704 151.778 218.895 143.523 225.087C135.612 231.278 127.185 237.125 118.242 242.629C97.9482 254.667 77.9983 260.687 58.3924 260.687C50.1373 260.687 41.8822 259.483 33.6271 257.075C27.4357 255.699 21.5884 253.292 16.085 249.852C10.9255 246.412 6.45403 242.457 2.67043 237.985C-1.45712 241.425 -5.4127 244.693 -9.1963 247.788C-12.9799 250.54 -17.2794 253.464 -22.0949 256.559H-21.5789C-29.4901 262.063 -37.0573 266.706 -44.2805 270.49C-51.5037 274.273 -58.383 277.541 -64.9183 280.293C-70.4217 282.7 -76.613 284.42 -83.4923 285.452C-90.0276 286.484 -96.2189 287 -102.066 287Z" fill="#FF6B6B"/>
</svg>
