<svg width="57" height="24" viewBox="0 0 57 24" fill="none" xmlns="http://www.w3.org/2000/svg">
<path opacity="0.7" d="M45.9464 19.9017C45.6013 19.9017 45.213 19.8585 44.7815 19.7722C43.4584 19.4271 42.4517 18.6361 41.7613 17.3993C40.956 17.7157 40.1218 17.7876 39.2589 17.615C38.3673 17.4136 37.605 16.9534 36.9723 16.2343C36.1956 15.3427 35.8505 14.3072 35.9368 13.1279C35.9943 11.9198 36.4689 10.9275 37.3606 10.1509C37.677 9.89202 38.0221 9.59001 38.396 9.24485C38.7412 8.87092 39.1151 8.497 39.5178 8.12308C40.2081 7.43275 40.9272 6.72805 41.6751 6.00897C42.4517 5.28988 43.1995 4.65709 43.9186 4.11059C44.4076 3.73666 44.8678 3.40589 45.2992 3.11825C45.7595 2.83062 46.1909 2.58613 46.5936 2.38479C48.0893 1.6657 49.5562 1.46436 50.9944 1.78076C52.6339 2.24097 53.77 3.29083 54.4028 4.93035C54.8055 6.08088 54.7911 7.28894 54.3597 8.55452C54.3022 8.69834 54.2446 8.84216 54.1871 8.98598C54.1296 9.12979 54.0577 9.28799 53.9714 9.46057C55.0069 9.94955 55.7547 10.7549 56.2149 11.8767C56.6176 13.0272 56.5745 14.149 56.0855 15.242C55.5965 16.3062 54.7768 17.0397 53.6262 17.4424C52.7346 17.7876 51.9148 18.104 51.167 18.3916C50.4191 18.6505 49.7863 18.8662 49.2686 19.0388C48.981 19.1538 48.7077 19.2545 48.4488 19.3408C48.2187 19.4271 48.0318 19.499 47.8879 19.5565C47.6003 19.614 47.2983 19.6859 46.9819 19.7722C46.6655 19.8585 46.3203 19.9017 45.9464 19.9017Z" fill="#20CE86"/>
<path opacity="0.7" d="M32.7147 23.7413C32.1969 23.7413 31.6504 23.6694 31.0752 23.5255C29.7808 23.2091 28.8604 22.4757 28.3139 21.3251C27.9399 20.5773 27.7674 19.9014 27.7961 19.2973C27.8537 18.6645 27.8968 18.2043 27.9256 17.9167C27.9543 17.7729 27.9831 17.6291 28.0119 17.4852C28.0694 17.3127 28.1125 17.1401 28.1413 16.9675C27.9399 17.0826 27.753 17.1832 27.5804 17.2695C27.4078 17.327 27.2209 17.3846 27.0195 17.4421C26.5593 17.6147 26.0703 17.701 25.5526 17.701C24.6609 17.701 23.8412 17.4565 23.0933 16.9675C22.3455 16.4498 21.8134 15.7451 21.497 14.8534C21.123 13.7604 21.1806 12.6674 21.6695 11.5744C22.1585 10.4814 22.9639 9.73352 24.0857 9.33083C24.2007 9.30207 24.4596 9.18701 24.8623 8.98567C25.265 8.75556 25.869 8.33849 26.6744 7.73446C27.5085 7.13043 28.5871 6.25315 29.9102 5.10262C31.0608 4.0959 32.0387 3.21862 32.8441 2.47077C33.6495 1.69416 34.0665 1.29147 34.0953 1.26271C34.6418 0.716206 35.2746 0.342284 35.9937 0.140941C36.7415 -0.0604024 37.4894 -0.0460221 38.2372 0.184084C39.4741 0.500481 40.3657 1.21956 40.9122 2.34134C41.0848 2.62897 41.2286 3.0748 41.3437 3.67883C41.4875 4.2541 41.4443 4.91566 41.2142 5.6635C41.2142 5.69227 41.1999 5.72103 41.1711 5.74979C41.1423 5.77856 41.1279 5.8217 41.1279 5.87923C41.0992 5.93676 41.0704 6.00866 41.0417 6.09495C41.0417 6.18124 41.0273 6.25315 40.9985 6.31068C40.941 6.51202 40.8547 6.72775 40.7396 6.95785C40.6533 7.18796 40.5527 7.46121 40.4376 7.77761C40.3226 8.06524 40.1931 8.4104 40.0493 8.81309C39.9343 9.18701 39.7904 9.57532 39.6179 9.978C39.6754 9.94924 39.7329 9.92048 39.7904 9.89172C39.848 9.83419 39.9055 9.79104 39.963 9.76228C40.9697 9.10072 42.0484 8.89938 43.1989 9.15825C44.3494 9.38836 45.2411 10.0068 45.8739 11.0135C46.5642 11.9914 46.7799 13.0701 46.5211 14.2494C46.291 15.4287 45.6726 16.3491 44.6658 17.0106C43.9755 17.4709 43.314 17.9311 42.6812 18.3913C42.0771 18.8227 41.4587 19.283 40.8259 19.7719C40.1068 20.3184 39.4309 20.8218 38.7981 21.282C38.1941 21.7422 37.5757 22.1449 36.9429 22.4901C36.4827 22.7489 36.0512 22.9503 35.6485 23.0941C35.2458 23.2667 34.8432 23.4105 34.4405 23.5255C33.8077 23.6694 33.2324 23.7413 32.7147 23.7413Z" fill="#00AEFF"/>
<path opacity="0.7" d="M7.93869 23.9995C7.62229 23.9995 7.32027 23.9851 7.03264 23.9564C6.77377 23.9564 6.57243 23.942 6.42861 23.9132C5.62324 23.6831 4.90415 23.3092 4.27136 22.7914C3.63856 22.3025 3.16397 21.6984 2.84757 20.9794C2.64623 20.5767 2.51679 20.2171 2.45927 19.9007C2.40174 19.5556 2.37298 19.2104 2.37298 18.8652C2.37298 18.405 2.41612 17.9592 2.50241 17.5277C2.24354 17.3552 1.97029 17.1682 1.68266 16.9669C1.39502 16.7368 1.1793 16.521 1.03548 16.3197C0.34516 15.3993 0 14.4213 0 13.3858C0 12.6955 0.158198 12.0339 0.474595 11.4012C0.762229 10.7684 1.16492 10.2219 1.68266 9.76164C1.82647 9.61783 2.09972 9.34457 2.50241 8.94189C2.87634 8.5392 3.2215 8.13651 3.53789 7.73383L4.40079 6.78464C4.80348 6.35319 5.22055 5.90735 5.652 5.44714C6.08345 4.98693 6.48614 4.56986 6.86006 4.19594C7.32027 3.79325 7.72296 3.44809 8.06812 3.16045C8.41328 2.87282 8.7153 2.64271 8.97417 2.47013C10.4699 1.54971 12.0231 1.26207 13.6338 1.60723C15.3021 2.03868 16.4095 2.97349 16.956 4.41166L16.9129 4.36851C17.0279 4.62738 17.1142 4.88626 17.1717 5.14513C17.258 5.37523 17.3155 5.61972 17.3443 5.87859C17.747 5.44714 18.1065 5.04445 18.4229 4.67053C18.7393 4.26784 19.027 3.9083 19.2858 3.59191L19.8899 2.90158C19.9474 2.84406 19.9905 2.78653 20.0193 2.729C20.0768 2.64271 20.1056 2.59957 20.1056 2.59957C20.7671 1.82296 21.5438 1.27646 22.4354 0.960059C23.3558 0.614899 24.2763 0.557371 25.1967 0.787477C25.8295 0.960058 26.4048 1.27645 26.9225 1.73667C27.469 2.19688 27.9148 2.729 28.26 3.33303C28.6627 4.25346 28.8353 5.04445 28.7777 5.70601C28.749 6.3388 28.7058 6.77025 28.6483 7.00036C28.6195 7.11541 28.5764 7.24485 28.5189 7.38867C28.4901 7.53248 28.4613 7.66192 28.4326 7.77697L28.1737 8.59673L28.1306 8.72616C28.7058 8.75493 29.2811 8.91312 29.8564 9.20076C30.4316 9.45963 30.9062 9.81917 31.2801 10.2794C31.6541 10.7396 31.9273 11.243 32.0999 11.7895C32.3012 12.336 32.4019 12.8681 32.4019 13.3858C32.4019 14.824 31.8123 16.0464 30.633 17.0532L30.4172 17.2689C29.8132 17.7866 29.166 18.3044 28.4757 18.8221C27.8142 19.3398 27.1095 19.8288 26.3616 20.289C24.6646 21.2957 22.9963 21.7991 21.3568 21.7991C20.6665 21.7991 19.9761 21.6984 19.2858 21.4971C18.7681 21.382 18.2791 21.1807 17.8189 20.8931C17.3874 20.6054 17.0135 20.2747 16.6971 19.9007C16.352 20.1884 16.0212 20.4616 15.7048 20.7205C15.3884 20.9506 15.0289 21.1951 14.6262 21.4539H14.6693C14.0078 21.9142 13.375 22.3025 12.7709 22.6189C12.1669 22.9353 11.5916 23.2085 11.0451 23.4386C10.5849 23.64 10.0672 23.7838 9.49191 23.8701C8.9454 23.9564 8.42766 23.9995 7.93869 23.9995Z" fill="#FF6B6B"/>
</svg>
