<svg width="36" height="36" viewBox="0 0 36 36" fill="none" xmlns="http://www.w3.org/2000/svg">
<rect width="36" height="36" rx="18" fill="#2A2E37"/>
<path d="M18 9.0625C16.2323 9.0625 14.5044 9.58668 13.0346 10.5687C11.5648 11.5508 10.4193 12.9467 9.74283 14.5798C9.06637 16.2129 8.88938 18.0099 9.23424 19.7436C9.57909 21.4773 10.4303 23.0698 11.6802 24.3198C12.9302 25.5697 14.5227 26.4209 16.2564 26.7658C17.9901 27.1106 19.7871 26.9336 21.4202 26.2572C23.0534 25.5807 24.4492 24.4352 25.4313 22.9654C26.4133 21.4956 26.9375 19.7677 26.9375 18C26.935 15.6304 25.9926 13.3586 24.317 11.683C22.6414 10.0074 20.3696 9.065 18 9.0625ZM18.6875 25.5307V22.8125C18.6875 22.6302 18.6151 22.4553 18.4861 22.3264C18.3572 22.1974 18.1823 22.125 18 22.125C17.8177 22.125 17.6428 22.1974 17.5139 22.3264C17.3849 22.4553 17.3125 22.6302 17.3125 22.8125V25.5307C15.5526 25.3678 13.9051 24.5944 12.6553 23.3447C11.4056 22.0949 10.6322 20.4474 10.4693 18.6875H13.1875C13.3698 18.6875 13.5447 18.6151 13.6736 18.4861C13.8026 18.3572 13.875 18.1823 13.875 18C13.875 17.8177 13.8026 17.6428 13.6736 17.5139C13.5447 17.3849 13.3698 17.3125 13.1875 17.3125H10.4693C10.6322 15.5526 11.4056 13.9051 12.6553 12.6553C13.9051 11.4056 15.5526 10.6322 17.3125 10.4693V13.1875C17.3125 13.3698 17.3849 13.5447 17.5139 13.6736C17.6428 13.8026 17.8177 13.875 18 13.875C18.1823 13.875 18.3572 13.8026 18.4861 13.6736C18.6151 13.5447 18.6875 13.3698 18.6875 13.1875V10.4693C20.4474 10.6322 22.0949 11.4056 23.3447 12.6553C24.5944 13.9051 25.3678 15.5526 25.5307 17.3125H22.8125C22.6302 17.3125 22.4553 17.3849 22.3264 17.5139C22.1974 17.6428 22.125 17.8177 22.125 18C22.125 18.1823 22.1974 18.3572 22.3264 18.4861C22.4553 18.6151 22.6302 18.6875 22.8125 18.6875H25.5307C25.3678 20.4474 24.5944 22.0949 23.3447 23.3447C22.0949 24.5944 20.4474 25.3678 18.6875 25.5307Z" fill="white"/>
</svg>
