<svg width="24" height="24" viewBox="0 0 24 24" fill="none" xmlns="http://www.w3.org/2000/svg">
<path d="M14.2494 7.49965C14.2494 7.30074 14.3284 7.10998 14.469 6.96932C14.6097 6.82867 14.8004 6.74965 14.9994 6.74965H23.2494C23.4483 6.74965 23.639 6.82867 23.7797 6.96932C23.9203 7.10998 23.9994 7.30074 23.9994 7.49965C23.9994 7.69857 23.9203 7.88933 23.7797 8.02998C23.639 8.17064 23.4483 8.24965 23.2494 8.24965H14.9994C14.8004 8.24965 14.6097 8.17064 14.469 8.02998C14.3284 7.88933 14.2494 7.69857 14.2494 7.49965ZM23.2494 11.2497H14.9994C14.8004 11.2497 14.6097 11.3287 14.469 11.4693C14.3284 11.61 14.2494 11.8007 14.2494 11.9997C14.2494 12.1986 14.3284 12.3893 14.469 12.53C14.6097 12.6706 14.8004 12.7497 14.9994 12.7497H23.2494C23.4483 12.7497 23.639 12.6706 23.7797 12.53C23.9203 12.3893 23.9994 12.1986 23.9994 11.9997C23.9994 11.8007 23.9203 11.61 23.7797 11.4693C23.639 11.3287 23.4483 11.2497 23.2494 11.2497ZM23.2494 15.7497H17.2494C17.0504 15.7497 16.8597 15.8287 16.719 15.9693C16.5784 16.11 16.4994 16.3007 16.4994 16.4997C16.4994 16.6986 16.5784 16.8893 16.719 17.03C16.8597 17.1706 17.0504 17.2497 17.2494 17.2497H23.2494C23.4483 17.2497 23.639 17.1706 23.7797 17.03C23.9203 16.8893 23.9994 16.6986 23.9994 16.4997C23.9994 16.3007 23.9203 16.11 23.7797 15.9693C23.639 15.8287 23.4483 15.7497 23.2494 15.7497ZM14.2259 17.8122C14.2504 17.9076 14.2559 18.0069 14.242 18.1044C14.2282 18.2019 14.1952 18.2958 14.1451 18.3806C14.0949 18.4654 14.0286 18.5395 13.9498 18.5986C13.871 18.6578 13.7813 18.7008 13.6859 18.7253C13.6248 18.7418 13.5617 18.75 13.4984 18.7497C13.3321 18.7497 13.1704 18.6945 13.0389 18.5927C12.9074 18.4909 12.8134 18.3482 12.7719 18.1872C12.1944 15.9428 9.92748 14.2497 7.49841 14.2497C5.06935 14.2497 2.80248 15.9418 2.22498 18.1872C2.17525 18.3799 2.05101 18.5449 1.87959 18.646C1.70817 18.7471 1.50361 18.7759 1.31092 18.7262C1.11822 18.6765 0.953169 18.5522 0.852075 18.3808C0.750981 18.2094 0.722125 18.0049 0.771853 17.8122C1.29592 15.7768 2.81935 14.1287 4.75248 13.3122C4.00813 12.7388 3.4619 11.9469 3.1904 11.0475C2.9189 10.148 2.93573 9.18611 3.23855 8.29671C3.54137 7.4073 4.11498 6.63498 4.87893 6.08806C5.64289 5.54115 6.55887 5.24707 7.49841 5.24707C8.43796 5.24707 9.35394 5.54115 10.1179 6.08806C10.8819 6.63498 11.4555 7.4073 11.7583 8.29671C12.0611 9.18611 12.0779 10.148 11.8064 11.0475C11.5349 11.9469 10.9887 12.7388 10.2444 13.3122C12.1784 14.1287 13.7019 15.7768 14.2259 17.8122ZM7.49935 12.7497C8.0927 12.7497 8.67272 12.5737 9.16606 12.2441C9.65941 11.9144 10.0439 11.4459 10.271 10.8977C10.4981 10.3495 10.5575 9.74633 10.4417 9.16438C10.326 8.58244 10.0402 8.04789 9.62067 7.62833C9.20112 7.20878 8.66657 6.92305 8.08462 6.8073C7.50268 6.69154 6.89948 6.75095 6.3513 6.97802C5.80312 7.20508 5.33459 7.5896 5.00494 8.08294C4.6753 8.57629 4.49935 9.15631 4.49935 9.74965C4.49935 10.5453 4.81542 11.3084 5.37803 11.871C5.94064 12.4336 6.7037 12.7497 7.49935 12.7497Z" fill="#2A2E37"/>
</svg>
