<svg width="156" height="69" viewBox="0 0 156 69" fill="none" xmlns="http://www.w3.org/2000/svg">
<path d="M38.9561 115C37.4035 115 35.9214 114.929 34.51 114.788C33.2397 114.788 32.2517 114.717 31.5459 114.575C27.5939 113.442 24.0653 111.6 20.9601 109.05C17.8549 106.642 15.526 103.667 13.9734 100.126C12.9854 98.1424 12.3502 96.3717 12.0679 94.8134C11.7856 93.1135 11.6445 91.4135 11.6445 89.7136C11.6445 87.447 11.8562 85.2513 12.2796 83.1264C11.0093 82.2764 9.66846 81.3556 8.257 80.364C6.84555 79.2307 5.78696 78.1683 5.08123 77.1767C1.69375 72.6435 0 67.827 0 62.7273C0 59.3274 0.776311 56.0692 2.32891 52.9527C3.74036 49.8362 5.71639 47.1446 8.257 44.878C8.96273 44.1697 10.3036 42.824 12.2796 40.8407C14.1145 38.8575 15.8083 36.8742 17.3609 34.891L21.5952 30.2162C23.5712 28.0913 25.6178 25.8955 27.735 23.629C29.8522 21.3624 31.8282 19.3083 33.6631 17.4667C35.9214 15.4835 37.8975 13.7836 39.5912 12.367C41.285 10.9504 42.767 9.81707 44.0373 8.96711C51.3768 4.43397 58.9987 3.01736 66.9028 4.71729C75.0892 6.8422 80.5233 11.4462 83.2051 18.5292L82.9933 18.3167C83.5579 19.5916 83.9814 20.8666 84.2636 22.1415C84.6871 23.2748 84.9694 24.4789 85.1105 25.7539C87.0866 23.629 88.8509 21.6457 90.4035 19.8041C91.9561 17.8209 93.3675 16.0501 94.6378 14.4919L97.6019 11.092C97.8841 10.8087 98.0959 10.5254 98.237 10.2421C98.5193 9.81707 98.6605 9.60458 98.6605 9.60458C101.907 5.77975 105.718 3.0882 110.093 1.52994C114.61 -0.169989 119.127 -0.453315 123.643 0.679967C126.748 1.52993 129.571 3.08819 132.112 5.35476C134.794 7.62133 136.981 10.2421 138.675 13.2169C140.651 17.7501 141.498 21.6457 141.216 24.9039C141.075 28.0204 140.863 30.1453 140.581 31.2786C140.439 31.8453 140.228 32.4828 139.945 33.1911C139.804 33.8994 139.663 34.5368 139.522 35.1035L138.252 39.1408L138.04 39.7783C140.863 39.9199 143.686 40.6991 146.509 42.1157C149.332 43.3906 151.66 45.1614 153.495 47.4279C155.33 49.6945 156.671 52.1736 157.518 54.8651C158.506 57.5567 159 60.1774 159 62.7273C159 69.8103 156.107 75.8309 150.32 80.789L149.261 81.8514C146.297 84.4013 143.121 86.9512 139.734 89.5011C136.487 92.051 133.029 94.4592 129.36 96.7258C121.032 101.684 112.846 104.163 104.8 104.163C101.413 104.163 98.0253 103.667 94.6378 102.676C92.0972 102.109 89.6977 101.117 87.4394 99.7007C85.3222 98.2841 83.4874 96.655 81.9348 94.8134C80.241 96.23 78.6178 97.5758 77.0652 98.8507C75.5126 99.984 73.7483 101.188 71.7723 102.463H71.984C68.7377 104.73 65.6325 106.642 62.6685 108.2C59.7044 109.759 56.8815 111.104 54.1997 112.238C51.9414 113.229 49.4008 113.938 46.5779 114.363C43.8962 114.787 41.3555 115 38.9561 115Z" fill="#FFE1E1"/>
</svg>
