<svg width="404" height="291" viewBox="0 0 404 291" fill="none" xmlns="http://www.w3.org/2000/svg">
<path d="M98.9827 291C95.0377 291 91.2721 290.821 87.6857 290.462C84.4581 290.462 81.9476 290.283 80.1545 289.925C70.1127 287.057 61.1469 282.397 53.257 275.945C45.3671 269.851 39.4496 262.323 35.5047 253.361C32.9942 248.343 31.3804 243.862 30.6631 239.919C29.9458 235.618 29.5872 231.316 29.5872 227.014C29.5872 221.279 30.1252 215.723 31.2011 210.346C27.9734 208.195 24.5664 205.865 20.98 203.356C17.3937 200.488 14.7039 197.8 12.9108 195.29C4.30359 183.82 0 171.632 0 158.727C0 150.124 1.97248 141.88 5.91744 133.993C9.50377 126.107 14.5246 119.296 20.98 113.561C22.7732 111.769 26.1802 108.363 31.2011 103.345C35.8633 98.3263 40.1669 93.3078 44.1118 88.2894L54.8708 76.4601C59.8917 71.0832 65.0919 65.527 70.4714 59.7916C75.8509 54.0562 80.8717 48.8585 85.534 44.1985C91.2721 39.18 96.2929 34.8784 100.597 31.2938C104.9 27.7092 108.666 24.8415 111.893 22.6907C130.542 11.2199 149.909 7.63524 169.992 11.9368C190.793 17.3137 204.6 28.9638 211.414 46.8869L210.876 46.3492C212.311 49.5754 213.387 52.8016 214.104 56.0277C215.18 58.8954 215.897 61.9424 216.256 65.1685C221.277 59.7916 225.759 54.7731 229.704 50.1131C233.649 45.0946 237.236 40.6138 240.463 36.6707L247.995 28.0676C248.712 27.3507 249.25 26.6338 249.608 25.9169C250.326 24.8415 250.684 24.3038 250.684 24.3038C258.933 14.6253 268.616 7.8145 279.734 3.8714C291.21 -0.430146 302.686 -1.14708 314.162 1.72061C322.052 3.87139 329.225 7.81447 335.68 13.5499C342.494 19.2853 348.053 25.9168 352.357 33.4446C357.378 44.9154 359.53 54.7731 358.812 63.0177C358.454 70.9039 357.916 76.2809 357.198 79.1486C356.84 80.5824 356.302 82.1955 355.585 83.9878C355.226 85.7801 354.867 87.3932 354.509 88.8271L351.281 99.0432L350.743 100.656C357.916 101.015 365.088 102.986 372.261 106.571C379.434 109.797 385.351 114.278 390.013 120.013C394.676 125.749 398.083 132.022 400.234 138.833C402.745 145.643 404 152.275 404 158.727C404 176.65 396.648 191.885 381.944 204.431L379.254 207.12C371.723 213.572 363.654 220.024 355.047 226.477C346.798 232.929 338.012 239.023 328.687 244.758C307.528 257.305 286.727 263.578 266.285 263.578C257.678 263.578 249.071 262.323 240.463 259.814C234.008 258.38 227.911 255.871 222.173 252.286C216.794 248.701 212.131 244.579 208.186 239.919C203.883 243.504 199.759 246.909 195.814 250.135C191.869 253.003 187.386 256.05 182.365 259.276H182.903C174.654 265.011 166.764 269.851 159.233 273.794C151.702 277.737 144.529 281.142 137.715 284.01C131.977 286.519 125.522 288.312 118.349 289.387C111.535 290.462 105.079 291 98.9827 291Z" fill="#FFE1E1"/>
</svg>
