<svg width="64" height="64" viewBox="0 0 64 64" fill="none" xmlns="http://www.w3.org/2000/svg">
<circle cx="32" cy="32" r="32" fill="#FF6B6B"/>
<path d="M20.7988 47.7627C20.3685 47.7627 19.9576 47.7431 19.5664 47.704C19.2142 47.704 18.9404 47.6844 18.7447 47.6453C17.6492 47.3323 16.671 46.8237 15.8103 46.1194C14.9495 45.4543 14.3039 44.6326 13.8735 43.6544C13.5996 43.1067 13.4235 42.6176 13.3453 42.1872C13.267 41.7177 13.2279 41.2482 13.2279 40.7787C13.2279 40.1526 13.2866 39.5462 13.404 38.9593C13.0519 38.7245 12.6802 38.4702 12.2889 38.1963C11.8976 37.8833 11.6042 37.5899 11.4085 37.316C10.4695 36.0639 10 34.7337 10 33.3251C10 32.3861 10.2152 31.4862 10.6456 30.6254C11.0368 29.7646 11.5846 29.0212 12.2889 28.3952C12.4845 28.1996 12.8562 27.8279 13.404 27.2801C13.9126 26.7323 14.3821 26.1846 14.8125 25.6368L15.9863 24.3456C16.5341 23.7587 17.1014 23.1523 17.6883 22.5263C18.2752 21.9002 18.823 21.3329 19.3316 20.8243C19.9576 20.2765 20.5054 19.807 20.9749 19.4157C21.4444 19.0245 21.8553 18.7114 22.2074 18.4767C24.242 17.2247 26.3548 16.8334 28.5459 17.3029C30.8152 17.8898 32.3215 19.1614 33.0649 21.1177L33.0062 21.059C33.1627 21.4112 33.2801 21.7633 33.3584 22.1154C33.4758 22.4284 33.554 22.761 33.5931 23.1132C34.1409 22.5263 34.63 21.9785 35.0604 21.4699C35.4908 20.9221 35.882 20.433 36.2342 20.0026L37.0558 19.0636C37.1341 18.9853 37.1928 18.9071 37.2319 18.8288C37.3101 18.7114 37.3493 18.6528 37.3493 18.6528C38.2492 17.5964 39.3056 16.853 40.5185 16.4226C41.7705 15.953 43.0226 15.8748 44.2746 16.1878C45.1354 16.4226 45.9179 16.853 46.6222 17.479C47.3656 18.105 47.972 18.8288 48.4416 19.6505C48.9893 20.9025 49.2241 21.9785 49.1458 22.8784C49.1067 23.7392 49.048 24.3261 48.9698 24.6391C48.9306 24.7956 48.8719 24.9717 48.7937 25.1673C48.7546 25.3629 48.7154 25.539 48.6763 25.6955L48.3242 26.8106L48.2655 26.9867C49.048 27.0258 49.8305 27.241 50.6131 27.6322C51.3956 27.9844 52.0412 28.4735 52.5498 29.0995C53.0585 29.7255 53.4302 30.4102 53.6649 31.1536C53.9388 31.897 54.0757 32.6208 54.0757 33.3251C54.0757 35.2814 53.2736 36.9443 51.6695 38.3137L51.376 38.6072C50.5544 39.3114 49.674 40.0157 48.735 40.72C47.8351 41.4242 46.8765 42.0894 45.8592 42.7154C43.5508 44.0848 41.2814 44.7695 39.0512 44.7695C38.1122 44.7695 37.1732 44.6326 36.2342 44.3587C35.5299 44.2022 34.8647 43.9283 34.2387 43.5371C33.6518 43.1458 33.1432 42.6959 32.7128 42.1872C32.2433 42.5785 31.7933 42.9502 31.3629 43.3023C30.9326 43.6153 30.4435 43.9479 29.8957 44.3H29.9544C29.0545 44.926 28.1937 45.4543 27.3721 45.8846C26.5504 46.315 25.7679 46.6867 25.0245 46.9997C24.3985 47.2736 23.6942 47.4693 22.9117 47.5866C22.1683 47.704 21.464 47.7627 20.7988 47.7627Z" fill="white"/>
</svg>
