<svg width="247" height="338" viewBox="0 0 247 338" fill="none" xmlns="http://www.w3.org/2000/svg">
<path d="M164.466 338C157.06 338 149.242 336.976 141.013 334.929C122.498 330.424 109.331 319.982 101.514 303.602C96.165 292.955 93.6962 283.332 94.1077 274.733C94.9306 265.724 95.5478 259.172 95.9592 255.077C96.3707 253.029 96.7822 250.982 97.1936 248.934C98.0165 246.477 98.6336 244.02 99.0451 241.563C96.1649 243.201 93.4905 244.634 91.0218 245.863C88.5531 246.682 85.8787 247.501 82.9986 248.32C76.4154 250.777 69.4207 252.005 62.0146 252.005C49.2597 252.005 37.5333 248.525 26.8357 241.563C16.138 234.192 8.52614 224.159 4.00019 211.465C-1.34866 195.904 -0.525761 180.343 6.46889 164.782C13.4635 149.221 24.9841 138.574 41.0307 132.841C42.6765 132.432 46.3795 130.794 52.1398 127.927C57.9001 124.651 66.5406 118.714 78.0611 110.114C89.9932 101.515 105.423 89.025 124.349 72.645C140.807 58.3126 154.797 45.8229 166.317 35.1759C177.838 24.1194 183.804 18.3865 184.215 17.977C192.033 10.1965 201.085 4.87304 211.371 2.00655C222.069 -0.859937 232.766 -0.655208 243.464 2.62077C261.156 7.12526 273.911 17.3627 281.729 33.3332C284.198 37.4281 286.255 43.7754 287.901 52.3748C289.958 60.5648 289.341 69.9833 286.049 80.6303C286.049 81.0397 285.843 81.4492 285.432 81.8587C285.02 82.2682 284.815 82.8825 284.815 83.7015C284.403 84.5205 283.992 85.5442 283.58 86.7727C283.58 88.0012 283.375 89.0249 282.963 89.8439C282.14 92.7104 280.906 95.7817 279.26 99.0577C278.026 102.334 276.586 106.224 274.94 110.728C273.294 114.823 271.443 119.737 269.385 125.47C267.74 130.794 265.682 136.322 263.214 142.055C264.036 141.645 264.859 141.236 265.682 140.827C266.505 140.008 267.328 139.393 268.151 138.984C282.552 129.565 297.981 126.699 314.439 130.384C330.897 133.66 343.652 142.465 352.704 156.797C362.579 170.72 365.665 186.076 361.962 202.866C358.67 219.655 349.824 232.759 335.423 242.177C325.548 248.729 316.085 255.281 307.033 261.833C298.393 267.976 289.546 274.528 280.495 281.489C270.208 289.27 260.539 296.436 251.487 302.988C242.847 309.54 234.001 315.273 224.949 320.187C218.366 323.872 212.194 326.739 206.434 328.786C200.673 331.243 194.913 333.291 189.153 334.929C180.101 336.976 171.872 338 164.466 338Z" fill="#DEF2FF"/>
</svg>
