<svg width="125" height="69" viewBox="0 0 125 69" fill="none" xmlns="http://www.w3.org/2000/svg">
<g clip-path="url(#clip0_2054_34079)">
<path d="M56.4612 115C53.9106 115 51.2183 114.652 48.3842 113.955C42.0076 112.422 37.4731 108.87 34.7808 103.297C32.9387 99.6741 32.0885 96.3999 32.2302 93.4741C32.5136 90.4089 32.7261 88.1797 32.8678 86.7864C33.0095 86.0898 33.1512 85.3932 33.2929 84.6965C33.5763 83.8606 33.7889 83.0246 33.9306 82.1886C32.9387 82.746 32.0176 83.2336 31.1674 83.6516C30.3172 83.9302 29.3961 84.2089 28.4042 84.4875C26.137 85.3235 23.728 85.7415 21.1774 85.7415C16.7846 85.7415 12.7461 84.5572 9.06185 82.1886C5.3776 79.6808 2.75611 76.2673 1.19738 71.9482C-0.644745 66.6537 -0.36134 61.3594 2.0476 56.0649C4.45653 50.7705 8.42419 47.148 13.9506 45.1975C14.5174 45.0582 15.7927 44.5009 17.7765 43.5256C19.7604 42.411 22.7361 40.3907 26.7038 37.4649C30.8131 34.539 36.127 30.2896 42.6453 24.7165C48.3134 19.8401 53.1312 15.5906 57.0989 11.9681C61.0666 8.20632 63.1212 6.25575 63.2629 6.11642C65.9553 3.46922 69.0727 1.65799 72.6153 0.682702C76.2995 -0.292582 79.9838 -0.222926 83.6681 0.891684C89.7612 2.42427 94.154 5.90743 96.8464 11.3412C97.6966 12.7344 98.4051 14.894 98.9719 17.8198C99.6804 20.6064 99.4678 23.8109 98.3342 27.4334C98.3342 27.5727 98.2634 27.712 98.1217 27.8513C97.98 27.9907 97.9091 28.1997 97.9091 28.4783C97.7674 28.757 97.6257 29.1053 97.484 29.5233C97.484 29.9412 97.4132 30.2896 97.2715 30.5682C96.9881 31.5435 96.563 32.5884 95.9961 33.7031C95.571 34.8177 95.0751 36.1413 94.5083 37.6739C93.9415 39.0671 93.3038 40.739 92.5953 42.6896C92.0285 44.5008 91.32 46.3817 90.4698 48.3323C90.7532 48.193 91.0366 48.0537 91.32 47.9143C91.6034 47.6357 91.8868 47.4267 92.1702 47.2874C97.1298 44.0829 102.444 43.1076 108.112 44.3615C113.78 45.4761 118.173 48.4717 121.29 53.3481C124.691 58.0852 125.754 63.3099 124.478 69.0223C123.345 74.7347 120.298 79.1931 115.338 82.3976C111.938 84.6269 108.678 86.8561 105.561 89.0853C102.585 91.1752 99.5387 93.4044 96.4212 95.773C92.8787 98.4202 89.5487 100.858 86.4312 103.088C83.4555 105.317 80.4089 107.267 77.2915 108.939C75.0242 110.193 72.8987 111.169 70.9149 111.865C68.931 112.701 66.9472 113.398 64.9634 113.955C61.8459 114.652 59.0119 115 56.4612 115Z" fill="#DEF2FF"/>
</g>
<defs>
<clipPath id="clip0_2054_34079">
<rect width="125" height="69" fill="white"/>
</clipPath>
</defs>
</svg>
