<svg width="363" height="338" viewBox="0 0 363 338" fill="none" xmlns="http://www.w3.org/2000/svg">
<path d="M163.942 338C156.536 338 148.719 336.976 140.49 334.929C121.974 330.424 108.808 319.982 100.99 303.602C95.6415 292.955 93.1728 283.332 93.5843 274.733C94.4072 265.724 95.0243 259.172 95.4358 255.077C95.8472 253.029 96.2587 250.982 96.6702 248.934C97.4931 246.477 98.1102 244.02 98.5216 241.563C95.6415 243.201 92.9671 244.634 90.4984 245.863C88.0297 246.682 85.3553 247.501 82.4751 248.32C75.8919 250.777 68.8973 252.005 61.4912 252.005C48.7362 252.005 37.0099 248.525 26.3122 241.563C15.6145 234.192 8.0027 224.159 3.47675 211.465C-1.8721 195.904 -1.0492 180.343 5.94545 164.782C12.9401 149.221 24.4607 138.574 40.5072 132.841C42.153 132.432 45.8561 130.794 51.6164 127.927C57.3767 124.651 66.0171 118.714 77.5377 110.114C89.4698 101.515 104.899 89.025 123.826 72.645C140.284 58.3126 154.273 45.8229 165.794 35.1759C177.314 24.1194 183.28 18.3865 183.692 17.977C191.509 10.1965 200.561 4.87304 210.847 2.00655C221.545 -0.859937 232.243 -0.655208 242.941 2.62077C260.633 7.12526 273.388 17.3627 281.205 33.3332C283.674 37.4281 285.731 43.7754 287.377 52.3748C289.434 60.5648 288.817 69.9833 285.526 80.6303C285.526 81.0397 285.32 81.4492 284.908 81.8587C284.497 82.2682 284.291 82.8825 284.291 83.7015C283.88 84.5205 283.468 85.5442 283.057 86.7727C283.057 88.0012 282.851 89.0249 282.44 89.8439C281.617 92.7104 280.383 95.7817 278.737 99.0577C277.502 102.334 276.062 106.224 274.416 110.728C272.771 114.823 270.919 119.737 268.862 125.47C267.216 130.794 265.159 136.322 262.69 142.055C263.513 141.645 264.336 141.236 265.159 140.827C265.982 140.008 266.805 139.393 267.628 138.984C282.028 129.565 297.458 126.699 313.916 130.384C330.374 133.66 343.129 142.465 352.181 156.797C362.055 170.72 365.141 186.076 361.438 202.866C358.147 219.655 349.3 232.759 334.9 242.177C325.025 248.729 315.561 255.281 306.51 261.833C297.869 267.976 289.023 274.528 279.971 281.489C269.685 289.27 260.016 296.436 250.964 302.988C242.323 309.54 233.477 315.273 224.425 320.187C217.842 323.872 211.67 326.739 205.91 328.786C200.15 331.243 194.389 333.291 188.629 334.929C179.577 336.976 171.348 338 163.942 338Z" fill="#DEF2FF"/>
</svg>
