<svg width="64" height="64" viewBox="0 0 64 64" fill="none" xmlns="http://www.w3.org/2000/svg">
<circle cx="32" cy="32" r="32" fill="#00AEFF"/>
<path d="M29.971 51C29.114 51 28.2093 50.8849 27.2571 50.6547C25.1146 50.1483 23.591 48.9743 22.6863 47.1328C22.0674 45.9358 21.7817 44.8539 21.8293 43.8871C21.9246 42.8742 21.996 42.1376 22.0436 41.6772C22.0912 41.4471 22.1388 41.2169 22.1864 40.9867C22.2816 40.7104 22.3531 40.4342 22.4007 40.158C22.0674 40.3421 21.7579 40.5033 21.4722 40.6414C21.1866 40.7335 20.8771 40.8255 20.5438 40.9176C19.782 41.1938 18.9726 41.332 18.1156 41.332C16.6396 41.332 15.2827 40.9406 14.0448 40.158C12.8069 39.3293 11.9261 38.2014 11.4023 36.7742C10.7834 35.0247 10.8786 33.2753 11.688 31.5258C12.4974 29.7764 13.8305 28.5794 15.6874 27.9348C15.8778 27.8888 16.3063 27.7046 16.9729 27.3824C17.6395 27.0141 18.6393 26.3465 19.9725 25.3797C21.3532 24.4129 23.1387 23.0087 25.3288 21.1672C27.2333 19.5559 28.8521 18.1517 30.1852 16.9547C31.5184 15.7117 32.2087 15.0671 32.2563 15.0211C33.161 14.1464 34.2084 13.5479 35.3987 13.2256C36.6366 12.9033 37.8746 12.9263 39.1125 13.2946C41.1598 13.8011 42.6357 14.952 43.5404 16.7475C43.826 17.2079 44.0641 17.9215 44.2546 18.8883C44.4926 19.8091 44.4212 20.8679 44.0403 22.0649C44.0403 22.111 44.0165 22.157 43.9689 22.2031C43.9213 22.2491 43.8975 22.3181 43.8975 22.4102C43.8499 22.5023 43.8022 22.6174 43.7546 22.7555C43.7546 22.8936 43.7308 23.0087 43.6832 23.1008C43.588 23.4231 43.4451 23.7684 43.2547 24.1367C43.1119 24.505 42.9452 24.9423 42.7548 25.4488C42.5643 25.9091 42.3501 26.4616 42.112 27.1061C41.9216 27.7046 41.6835 28.3261 41.3978 28.9707C41.4931 28.9246 41.5883 28.8786 41.6835 28.8326C41.7787 28.7405 41.874 28.6714 41.9692 28.6254C43.6356 27.5665 45.421 27.2442 47.3255 27.6586C49.23 28.0269 50.706 29.0167 51.7534 30.6281C52.8961 32.1934 53.2532 33.9198 52.8247 35.8074C52.4438 37.6949 51.4202 39.1682 49.7537 40.227C48.611 40.9637 47.516 41.7003 46.4685 42.4369C45.4687 43.1275 44.445 43.8641 43.3975 44.6467C42.2072 45.5215 41.0884 46.3271 40.0409 47.0637C39.041 47.8003 38.0174 48.4449 36.9699 48.9973C36.2081 49.4117 35.494 49.7339 34.8274 49.9641C34.1608 50.2404 33.4943 50.4706 32.8277 50.6547C31.7802 50.8849 30.828 51 29.971 51Z" fill="white"/>
</svg>
