<svg width="64" height="64" viewBox="0 0 64 64" fill="none" xmlns="http://www.w3.org/2000/svg">
<g clip-path="url(#clip0_1065_49896)">
<rect width="64" height="64" rx="32" fill="#FFF1F1"/>
<g clip-path="url(#clip1_1065_49896)">
<rect width="70" height="70" transform="translate(-4 -1)" fill="#FFF1F1"/>
<path d="M44.0337 17.6051C44.7398 22.1357 42.4203 26.2591 38.8531 26.8153C35.286 27.3714 31.8219 24.1482 31.1158 19.6176C30.4098 15.0855 32.7292 10.962 36.2965 10.4059C39.8637 9.84974 43.3278 13.0729 44.0337 17.6051Z" fill="#603813"/>
<path d="M26.2881 38.2684L39.362 38.7984L35.6257 46.5368L27.5248 46.2142L26.2881 38.2684Z" fill="black"/>
<path d="M7.98875 117.231C12.1118 120.342 57.2082 119.942 57.1774 117.73C57.1026 112.336 56.2707 106.509 55.4973 100.806C55.0593 97.5811 54.6402 94.3978 54.3884 91.3544C53.7929 84.1859 51.7807 61.599 51.4972 57.6046C51.3144 54.999 50.8575 49.0903 50.8036 48.3867C50.4725 48.1532 50.1344 47.9304 49.7907 47.7169L49.759 47.6984C49.5062 47.5494 49.2158 47.3789 48.9025 47.1991L48.8953 47.1945C47.5515 46.411 45.7872 45.4154 44.6205 44.8624C41.7032 43.4766 38.7048 42.6301 35.5509 42.1754C30.3016 41.4195 25.0981 42.3321 21.2767 43.3983C17.8471 44.3554 15.5285 45.437 15.285 45.5537C15.2707 45.5599 15.2637 45.5629 15.2637 45.5629C15.2637 45.5629 17.4492 46.5001 18.0352 50.0997C20.5282 65.4106 13.0048 77.5982 13.0048 77.5982C13.0048 77.5982 11.1012 90.9273 9.99933 97.7255C9.29923 102.041 7.41248 116.796 7.98875 117.231Z" fill="#FFA0A0"/>
<path d="M26.0693 31.0416C26.2125 31.8343 26.3526 32.6286 26.4943 33.4198C26.5037 33.4674 26.5113 33.5166 26.5192 33.5626C26.5232 33.5857 26.5275 33.6057 26.5315 33.6272C26.7195 34.678 26.906 35.7273 27.0346 36.7828C27.0882 37.2053 27.1306 37.6323 27.1606 38.0594C27.195 38.5357 27.2137 39.0166 27.2185 39.4944C27.2322 40.4116 27.2071 41.3287 27.179 42.2428C27.1632 42.7606 27.1557 43.2768 27.152 43.7945C27.1477 44.3921 26.8934 45.0389 27.1371 45.6197C27.4454 46.354 28.1504 46.735 28.7716 47.1667C29.448 47.6368 30.1845 48.0209 30.9559 48.3097C32.469 48.8767 34.1763 49.0871 35.7418 48.6063C38.735 47.6875 37.9417 44.3968 37.9314 42.0139L37.9285 41.3548L37.9237 39.6096L37.9143 37.1269C37.0586 36.9164 36.2573 36.5277 35.4634 36.1421C32.8299 34.8532 30.2132 33.5335 27.6482 32.1124C27.5791 32.074 27.5132 32.0371 27.4485 32.0018C26.9329 31.7145 26.5109 31.4702 26.0693 31.0416Z" fill="#FFCFCA"/>
<path d="M37.9321 42.0139C34.9682 41.2488 32.1165 40.0627 29.5264 38.4419C28.7027 37.9273 27.8483 37.3757 27.0353 36.7827C26.9075 35.7272 26.7197 34.6795 26.5326 33.6286C26.3785 32.7668 26.2249 31.9034 26.0708 31.0415C26.5669 31.5239 27.0405 31.7758 27.6492 32.1123C30.2135 33.5319 32.8304 34.8546 35.4645 36.1421C36.2581 36.5292 37.059 36.9163 37.916 37.1268L37.9321 42.0139Z" fill="#F9BFBB"/>
<path d="M27.6435 31.6898C26.2917 32.6331 24.4289 32.7974 22.9402 32.0846C21.6825 31.4839 20.7404 30.2748 20.435 28.9167C20.3801 28.6709 20.346 28.4205 20.3336 28.1654C20.313 27.7214 20.3618 27.2698 20.5132 26.8519C20.8925 25.821 21.9407 25.0928 23.0358 25.0206C24.1332 24.9499 25.233 25.5061 25.8914 26.3849L26.5649 28.4251L27.6435 31.6898Z" fill="#FFCFCA"/>
<path d="M28.0546 125.017C26.6412 127.137 12.0515 120.836 7.20708 118.833C3.53758 117.315 4.86972 115.135 5.26364 112.296C6.42263 103.931 7.82729 96.7268 9.2089 89.0253C9.73524 86.0878 10.26 83.0766 10.767 79.9042C10.7882 79.7736 10.8077 79.6445 10.8289 79.5139C10.2106 81.5542 9.08691 85.7483 8.62049 87.2078C5.9705 95.5116 1.73026 115.123 -2.68665 115.829C-3.44804 115.951 -11.8506 112.995 -12.227 111.942C-14.877 104.522 -6.66171 77.3216 -5.33668 73.9571C-3.03989 68.1268 4.21602 53.1185 6.14702 50.6358C9.85722 45.8655 21.894 43.0648 22.4894 42.8974C24.2244 42.4057 25.975 41.9617 27.7366 41.57C29.4803 45.7073 29.9097 49.7785 30.3549 54.2446C32.7276 78.079 29.166 123.348 28.0546 125.017Z" fill="#FF6B6B"/>
<path d="M31.9416 46.749L31.8127 47.4234L31.6838 48.1086L31.4681 49.2378L31.341 49.9123L30.9858 51.7743L30.8622 52.4257L30.4099 54.8039L23.1079 42.6854L23.615 41.9818L23.963 41.4979L24.5743 40.6483L24.9206 40.1689L25.4419 39.4453L25.7828 38.9706L26.2881 38.2685L31.9416 46.749Z" fill="#363740"/>
<path d="M31.8127 47.4232L31.6838 48.1084C30.5371 46.6535 29.417 45.1802 28.3216 43.6899C27.3128 42.3165 26.244 40.9538 25.4419 39.4451L25.7828 38.9704C26.1856 39.7585 26.6733 40.4975 27.1875 41.2211C28.6821 43.3243 30.2244 45.3906 31.8127 47.4232Z" fill="white"/>
<path d="M31.468 49.2376L31.3409 49.912C30.0387 48.3742 28.7598 46.8164 27.5441 45.2125C26.447 43.7653 25.417 42.2581 24.5742 40.6481L24.9205 40.1687C25.3127 40.9384 25.7492 41.6866 26.2173 42.4133C27.4964 44.4028 28.9947 46.2418 30.4946 48.0654C30.8161 48.4572 31.1412 48.8489 31.468 49.2376Z" fill="white"/>
<path d="M30.986 51.7743L30.8623 52.4257C29.3483 50.7772 27.9526 49.0196 26.6893 47.1715C25.9455 46.0837 25.2477 44.9638 24.5992 43.8146C24.2706 43.2354 23.9561 42.6485 23.6541 42.0571C23.6418 42.0325 23.6275 42.0063 23.6152 41.9818L23.9632 41.4978C24.0534 41.6714 24.1417 41.8481 24.2318 42.0233C24.5728 42.6823 24.9279 43.3307 25.2989 43.9728C26.6098 46.2358 28.1116 48.3882 29.7865 50.3946C30.1768 50.8632 30.578 51.3241 30.986 51.7743Z" fill="white"/>
<path d="M91.8343 73.6037C88.6101 78.1174 64.8405 103.815 57.5597 88.7979C57.4537 88.5782 57.323 88.2463 57.1746 87.8331C56.3885 85.6515 55.127 81.2285 54.6076 79.5139C54.6286 79.6445 54.6481 79.7736 54.6693 79.9042C54.71 80.1623 54.7524 80.4188 54.793 80.6738C55.2613 83.5667 55.7435 86.326 56.2276 89.0253C57.6092 96.7268 59.0137 103.931 60.1727 112.296C60.5666 115.135 61.8988 117.315 58.2293 118.833C53.385 120.836 38.7952 127.137 37.3819 125.017C36.6769 123.96 37.2512 105.144 36.7122 85.6177C36.4013 74.3319 34.2123 62.9739 35.0816 54.2446C35.5267 49.7785 35.9561 45.7073 37.6998 41.57C39.4613 41.9617 41.2121 42.4057 42.9471 42.8974C43.5424 43.0648 55.5791 45.8655 59.2893 50.6358C61.2203 53.1185 69.5734 73.7804 69.5734 73.7804C69.5734 73.7804 76.7234 68.4448 85.2975 64.7699C86.5342 64.2399 92.7177 72.367 91.8343 73.6037Z" fill="#FF6B6B"/>
<path d="M33.4946 46.749L33.6235 47.4234L33.7526 48.1086L33.9681 49.2378L34.0953 49.9123L34.4504 51.7743L34.574 52.4257L35.0263 54.8039L42.3283 42.6854L41.8213 41.9818L41.4732 41.4979L40.8619 40.6483L40.5156 40.1689L39.9943 39.4453L39.6534 38.9706L39.1481 38.2685L33.4946 46.749Z" fill="#363740"/>
<path d="M33.6235 47.4232L33.7526 48.1084C34.8991 46.6535 36.0193 45.1802 37.1147 43.6899C38.1234 42.3165 39.1924 40.9538 39.9943 39.4451L39.6534 38.9704C39.2506 39.7585 38.763 40.4975 38.2489 41.2211C36.7542 43.3243 35.2119 45.3906 33.6235 47.4232Z" fill="white"/>
<path d="M33.9683 49.2376L34.0955 49.912C35.3975 48.3742 36.6766 46.8164 37.8922 45.2125C38.9894 43.7653 40.0194 42.2581 40.862 40.6481L40.5157 40.1687C40.1235 40.9384 39.687 41.6866 39.2189 42.4133C37.9398 44.4028 36.4416 46.2418 34.9417 48.0654C34.6201 48.4572 34.295 48.8489 33.9683 49.2376Z" fill="white"/>
<path d="M34.4507 51.7743L34.5744 52.4257C36.0886 50.7772 37.4843 49.0196 38.7475 47.1715C39.4912 46.0837 40.1891 44.9638 40.8375 43.8146C41.1661 43.2354 41.4806 42.6485 41.7828 42.0571C41.795 42.0325 41.8092 42.0063 41.8216 41.9818L41.4735 41.4978C41.3835 41.6714 41.295 41.8481 41.2049 42.0233C40.864 42.6823 40.5088 43.3307 40.1378 43.9728C38.8269 46.2358 37.3251 48.3882 35.6504 50.3946C35.2599 50.8632 34.8589 51.3241 34.4507 51.7743Z" fill="white"/>
<path d="M43.0099 34.0866C42.3568 35.6813 41.4513 37.1316 39.9677 38.0656C38.6517 38.8922 37.0677 39.2978 35.5167 39.2302C33.8001 39.1549 32.1494 38.5557 30.6892 37.637C29.9624 37.1776 29.2818 36.6415 28.6655 36.0469C27.5877 35.0114 26.6818 33.8116 25.9012 32.5395C24.6335 30.4701 23.6102 28.1134 23.1037 25.6783C22.5259 22.9268 22.6058 20.0738 23.7273 17.4344C24.1814 16.3575 24.8173 15.3589 25.6 14.4893C28.8979 10.8175 34.5675 10.1846 38.5984 13.036C40.6979 14.5247 42.2643 16.7585 43.1005 19.1782C43.3662 19.9448 43.5948 20.7314 43.7805 21.5303C44.7464 25.6676 44.6173 30.1582 43.0099 34.0866Z" fill="#FFCFCA"/>
<path d="M34.6678 26.7093C34.4516 26.72 34.1536 26.3774 34.0712 25.8658C34.0279 25.597 34.054 25.3281 34.1433 25.1284C34.1742 25.0593 34.2602 24.8949 34.3925 24.8749L34.4129 24.8719C34.6291 24.8611 34.9271 25.2052 35.0093 25.7153C35.0528 25.9841 35.0265 26.253 34.9373 26.4543C34.9065 26.5234 34.8204 26.6862 34.6881 26.7078L34.6678 26.7093Z" fill="#1F3C49"/>
<path d="M41.1453 26.0808C40.9627 26.09 40.6566 25.7858 40.5732 25.2665C40.5309 25.0054 40.5565 24.7457 40.6428 24.5522C40.7049 24.4124 40.791 24.3232 40.8788 24.3094L40.8977 24.3079C41.0802 24.2987 41.3862 24.6029 41.4698 25.1221C41.5117 25.3833 41.4865 25.6429 41.4002 25.8365C41.3378 25.9763 41.2519 26.0654 41.1642 26.0793L41.1453 26.0808Z" fill="#1F3C49"/>
<path d="M37.8945 27.2577C38.064 27.0718 38.3502 26.9919 38.6204 27.0411C38.8954 27.0872 39.1489 27.2823 39.2761 27.5343C39.4101 27.7831 39.4262 28.1027 39.3063 28.3546C39.1924 28.6051 38.9629 28.794 38.7132 28.8263C38.8876 28.6512 38.9855 28.4545 39.0227 28.2579C39.0598 28.0643 39.0246 27.8784 38.9385 27.7109C38.8507 27.5435 38.718 27.4083 38.5373 27.3284C38.3559 27.247 38.1377 27.2147 37.8945 27.2577Z" fill="#1F3C49"/>
<path d="M34.867 22.0464C34.5623 21.8974 34.2168 21.8083 33.8682 21.7883C33.5033 21.7699 33.1355 21.8267 32.8046 21.9543C32.5454 22.0541 32.4158 22.346 32.5156 22.6041C32.566 22.7347 32.6696 22.8392 32.7988 22.8914C32.8499 22.9114 32.9037 22.9237 32.9585 22.9267C33.0297 22.9314 33.0997 22.9191 33.1667 22.8929C33.3678 22.8161 33.5923 22.7808 33.8158 22.7931C34.0287 22.8054 34.2383 22.8591 34.4227 22.9498C34.484 22.9805 34.5496 22.9974 34.6178 23.002C34.8193 23.0128 35.0072 22.9022 35.0968 22.7209C35.2194 22.472 35.1166 22.1693 34.867 22.0464Z" fill="#1F3C49"/>
<path d="M41.0507 20.9987C40.9338 20.9726 40.8131 20.9572 40.6915 20.951C40.1569 20.9219 39.6235 21.0693 39.1898 21.3659C38.961 21.5226 38.9022 21.8375 39.0592 22.0664C39.1277 22.1663 39.23 22.2385 39.347 22.2692C39.3797 22.2784 39.4136 22.283 39.4476 22.2846C39.5576 22.2907 39.6682 22.26 39.7591 22.197C40.0073 22.028 40.3267 21.9404 40.6353 21.9558C40.7052 21.9604 40.7745 21.9696 40.8412 21.9835C40.8673 21.9896 40.8931 21.9927 40.9189 21.9942C41.1683 22.008 41.3867 21.8406 41.4386 21.5948C41.4956 21.3274 41.3234 21.0601 41.0507 20.9987Z" fill="#1F3C49"/>
<path d="M34.5429 25.2081C34.2271 25.142 34.1251 25.6321 34.4412 25.6982C34.7571 25.7643 34.8591 25.2726 34.5429 25.2081Z" fill="white"/>
<path d="M41.1224 24.5734C40.8067 24.5073 40.7047 24.999 41.0208 25.0635C41.3367 25.1296 41.4387 24.6379 41.1224 24.5734Z" fill="white"/>
<path d="M41.825 29.7448C41.9137 30.6205 41.7562 31.4532 41.4154 32.163C40.8702 33.3014 39.8529 34.111 38.6215 34.2355C37.3602 34.3645 36.1754 33.7423 35.4166 32.693C34.9683 32.08 34.6678 31.3196 34.5825 30.4792C34.5795 30.4485 34.5804 30.4177 34.5771 30.3855L41.8115 29.6526C41.8149 29.6849 41.822 29.7156 41.825 29.7448Z" fill="#D55454"/>
<path d="M41.5176 29.6835C40.7939 30.6237 39.6598 31.2859 38.3359 31.4195C37.0122 31.5532 35.7684 31.1338 34.8706 30.3564L41.5176 29.6835Z" fill="white"/>
<path d="M41.4154 32.163C40.8701 33.3014 39.8528 34.111 38.6214 34.2355C37.3601 34.3645 36.1753 33.7423 35.4165 32.693C36.6242 32.2966 37.8901 32.0723 39.1607 32.0355C39.9145 32.014 40.669 32.057 41.4154 32.163Z" fill="#F37C7C"/>
<path d="M34.2628 28.7002C34.3066 29.5222 33.436 30.2381 32.3182 30.298C31.2004 30.3564 30.2586 29.7373 30.215 28.9153C30.1712 28.0919 31.042 27.3759 32.1596 27.316C33.2775 27.2576 34.2191 27.8768 34.2628 28.7002Z" fill="#F9BFBB"/>
<path d="M43.6894 27.3604C43.7189 27.9166 43.1309 28.4005 42.376 28.4405C41.6212 28.4804 40.9853 28.0625 40.9557 27.5064C40.9262 26.9503 41.5143 26.4663 42.269 26.4264C43.024 26.3864 43.6599 26.8043 43.6894 27.3604Z" fill="#F9BFBB"/>
<path d="M57.174 87.8331C56.3878 85.6515 55.1264 81.2284 54.6069 79.5139C54.628 79.6445 54.6475 79.7736 54.6687 79.9041C54.7094 80.1622 54.7518 80.4188 54.7924 80.6738L54.5556 79.434L53.2729 60.2455C53.2729 60.2455 57.3135 78.354 57.37 84.5069C57.3754 85.1322 57.2817 86.4857 57.174 87.8331Z" fill="#AF4646"/>
<path d="M22.4417 15.2743C22.1121 13.993 22.5302 12.5719 23.3591 11.5979C24.1879 10.6223 25.3784 10.0631 26.5933 9.86337C27.8083 9.66211 29.0528 9.79576 30.2633 10.0416C31.429 10.2766 32.5968 10.6162 33.7793 10.5455C35.231 10.4579 36.6361 9.72049 37.5924 8.54521C38.4981 7.43138 40.4458 7.59577 41.624 8.37314C42.8024 9.15052 43.9635 10.5148 44.2063 11.9804C44.4392 13.3861 44.3072 15.7275 42.1084 17.0149C39.5167 18.5328 31.3668 17.9951 30.2661 17.969C29.1654 17.9413 27.9828 18.2286 27.2564 19.1166C25.814 20.8788 25.5325 23.5335 25.4303 25.8871C24.5791 25.4047 23.7676 25.205 22.8086 25.2112C22.3863 25.2127 21.926 25.2465 21.4104 25.6198C20.5009 23.8592 19.9654 21.968 19.5489 20.0061C19.3424 19.0321 19.1992 18.0273 19.3215 17.0395C19.368 16.6646 19.4568 16.2852 19.6579 15.9748C19.9612 15.5063 20.49 15.2543 21.0176 15.1975C21.545 15.1422 21.9295 15.1222 22.4417 15.2743Z" fill="#603813"/>
</g>
</g>
<defs>
<clipPath id="clip0_1065_49896">
<rect width="64" height="64" rx="32" fill="white"/>
</clipPath>
<clipPath id="clip1_1065_49896">
<rect width="70" height="70" fill="white" transform="translate(-4 -1)"/>
</clipPath>
</defs>
</svg>
