<svg width="64" height="64" viewBox="0 0 64 64" fill="none" xmlns="http://www.w3.org/2000/svg">
<g clip-path="url(#clip0_1065_49890)">
<rect width="64" height="64" rx="32" fill="#FFF1F1"/>
<g clip-path="url(#clip1_1065_49890)">
<rect width="74" height="74" transform="translate(-5)" fill="#FFF1F1"/>
<path d="M45.7294 48.9168C45.7278 49.0435 45.7261 49.1701 45.7213 49.2968C45.6969 50.3752 45.6401 51.4618 45.5556 52.5515C45.3786 54.8594 45.0798 57.1867 44.7013 59.5157C43.8682 64.6381 42.6452 69.7557 41.4677 74.6345C40.7629 75.1087 39.6 75.8542 38.7961 76.1254C31.8482 78.4658 27.2795 78.0126 20.0604 76.7328C19.0193 72.5378 18.4753 68.242 18.1959 63.9284C17.8922 59.2428 17.5918 54.5476 17.6356 49.8539C17.7802 49.3878 17.9328 48.9216 18.0936 48.4588C18.1228 48.3743 18.1521 48.2882 18.1829 48.2038C18.2447 48.0398 18.3064 47.8757 18.3713 47.7133C18.5419 47.2764 18.7222 46.8428 18.9106 46.414C19.1639 45.8375 19.4368 45.269 19.7242 44.7103C20.827 43.4354 22.0142 42.2336 23.2761 41.1162C24.6388 39.9079 26.1297 38.7742 27.8707 38.235C29.0677 37.8631 30.3426 37.79 31.5964 37.8534C32.3776 37.894 33.1556 37.9882 33.9221 38.1343C36.7789 38.68 39.4977 39.9468 41.7601 41.7756C42.4731 42.3489 43.1389 42.979 43.7496 43.6595C43.8584 43.7814 43.9656 43.9048 44.0712 44.0298C44.703 44.7737 45.2828 45.5955 45.5426 46.5375C45.7554 47.3073 45.744 48.1193 45.7294 48.9168Z" fill="#FFCFCA"/>
<path d="M41.7246 12.3563C41.3543 11.83 40.9597 11.3201 40.539 10.8312C39.6718 9.82103 38.6372 8.93426 37.5068 8.21641C33.2614 5.52202 27.5299 5.96053 23.8984 9.48809C22.2045 11.1317 21.1082 13.2934 20.4034 15.5281C19.1284 19.5787 18.7955 23.8549 18.6997 28.0679C18.6753 29.1235 18.6737 30.1792 18.6493 31.2332C18.6428 31.5386 18.4934 34.0803 18.7013 34.1631C19.4322 34.4522 20.1744 34.7056 20.9198 34.9427C24.9703 36.2355 29.193 37.067 33.4173 36.8997C37.6384 36.7325 41.8741 35.5225 45.3123 33.01C45.4536 31.8455 45.5234 30.7151 45.5299 29.5815C45.5478 26.1595 45.6761 22.6645 44.8705 19.3107C44.2728 16.8274 43.2009 14.453 41.7246 12.3563Z" fill="#3A374C"/>
<path d="M36.4727 26.6533L36.5215 30.4895L36.6319 39.1752L26.6924 39.7842L26.9409 34.7219L27.1618 30.2377L36.4727 26.6533Z" fill="#FFCFCA"/>
<path d="M36.4728 26.6533L36.5215 30.4895C35.4691 31.5273 34.3371 32.4757 33.0687 33.2277C31.2269 34.3159 29.0539 34.9622 26.9409 34.7219L27.1618 30.2377L36.4728 26.6533Z" fill="#FCB9B4"/>
<path d="M40.5131 20.7093L40.5147 20.711C40.0665 22.9214 39.1878 25.0489 38.0039 26.8484C36.089 29.7605 32.9107 32.3672 29.3181 32.6579C27.4829 32.8057 25.6314 32.2047 24.2996 30.9152C23.9764 30.6018 23.6792 30.2526 23.4145 29.8693C21.0206 26.4051 20.6714 21.8088 21.7352 17.6804C22.1964 15.8906 22.9208 14.1918 23.8611 12.709C24.8843 11.093 26.3785 9.68165 28.0854 8.7283C30.9162 7.14967 34.3366 6.8281 37.1869 8.91507C38.4748 9.85705 39.4185 11.2245 39.9999 12.7139C40.0226 12.7691 40.0437 12.8243 40.0632 12.8795C40.9678 15.3287 41.0474 18.0767 40.5131 20.7093Z" fill="#FFCFCA"/>
<path d="M28.9382 10.3405C28.8635 11.2289 28.4185 12.0426 27.9085 12.7767C27.7965 12.9374 27.6812 13.0982 27.561 13.2541C26.0879 15.1868 24.0854 16.7151 21.8279 17.6214C21.7954 17.6344 21.758 17.6506 21.7158 17.6685C22.1771 15.8754 22.903 14.1718 23.845 12.6873C24.8715 11.0681 26.3673 9.6535 28.0791 8.69853C28.274 8.77161 28.4493 8.88205 28.589 9.03634C28.7644 9.2296 28.8651 9.47323 28.9138 9.73146C28.9512 9.93122 28.9561 10.1391 28.9382 10.3405Z" fill="#FCB9B4"/>
<path d="M40.5136 20.7087L40.5152 20.7103C39.7551 21.2739 38.9999 21.8586 38.0985 22.1184C37.647 22.25 37.1744 22.2938 36.7034 22.2938C35.271 22.2954 33.8401 21.9008 32.6107 21.1634C30.8664 20.1159 29.5768 18.4203 28.7177 16.5753C28.2239 15.5164 27.8618 14.4055 27.5694 13.2735C27.3502 12.4355 27.1715 11.5828 27.0059 10.7302C27.4525 10.0822 28.1509 9.89052 28.9191 9.75897C28.9678 9.74922 29.0149 9.7411 29.0652 9.73298C31.9204 9.26361 34.8974 9.85641 37.483 11.1557C38.3665 11.6007 39.2062 12.1237 40.0004 12.7132C40.0231 12.7684 40.0442 12.8237 40.0637 12.8789C40.9683 15.328 41.0479 18.076 40.5136 20.7087Z" fill="#FCB9B4"/>
<path d="M70.2102 64.1082C66.1532 64.2121 56.8065 58.6983 52.9443 56.725C52.2184 56.3514 50.8427 55.5914 49.256 54.6884C48.0801 54.0192 46.789 53.2754 45.5563 52.551C43.4157 51.2924 41.4538 50.0986 40.593 49.4977C39.9125 49.0202 39.2206 48.481 38.5499 47.8866C36.2079 45.8159 34.1421 43.0841 33.8189 40.0406C33.8026 39.8814 33.801 38.7413 33.9228 38.1339C33.9683 37.9032 34.0316 37.7506 34.1193 37.7571C41.0445 38.2719 47.5279 41.2944 53.5907 44.6822C55.5348 45.7688 56.5953 46.5289 58.1804 47.5667C58.5199 47.7908 58.8837 48.0263 59.2848 48.2796L59.3092 48.2943C59.2913 48.252 59.2735 48.2098 59.2556 48.1676C59.0088 47.5618 58.7846 46.9349 58.5848 46.3486C58.3802 45.7477 58.2032 45.1873 58.0489 44.7261C57.6656 43.5762 57.2092 41.9976 57.2092 41.9976C57.2092 41.9976 55.7589 38.1355 55.5721 38.0575C55.0881 37.8561 54.6237 37.6125 54.1868 37.3234C53.6508 36.9677 53.2708 36.4984 52.7787 36.094C51.9276 35.3972 50.9288 34.8662 50.0291 34.2295C49.7514 34.0314 49.4639 33.8186 49.3015 33.5149L49.2852 33.4824C49.1407 33.1836 49.1455 32.7873 49.3924 32.5632C49.5808 32.391 49.8634 32.3585 50.1151 32.4073C50.5569 32.495 50.9905 32.7386 51.3787 32.9578C51.6272 33.0991 51.8838 33.2745 52.1583 33.3622C52.574 33.5003 52.397 33.1495 52.2606 32.8896C52.1079 32.6054 51.9276 32.339 51.7327 32.0841C51.3478 31.579 50.9077 31.1193 50.5033 30.6305L47.7586 27.3124C47.489 26.986 47.6822 26.4176 48.0785 26.2974C48.6307 26.1268 49.0156 26.8171 49.3339 27.1435C49.865 27.6876 50.401 28.2301 50.9353 28.7709C51.3202 29.1574 51.7068 29.5456 52.0949 29.9289C52.3191 30.153 52.4701 30.4697 52.6991 30.7052C52.7819 30.7913 53.0012 31.0463 53.1522 30.965C53.3098 30.8806 53.1376 30.6191 53.0938 30.5054C52.9833 30.2326 52.8647 29.9662 52.7397 29.6982C52.4993 29.1834 52.2379 28.6783 51.9715 28.1748C51.4339 27.1484 50.8785 26.1252 50.4659 25.0403C50.4481 24.9948 50.4351 24.951 50.427 24.9071C50.2743 24.5807 50.4595 24.1519 50.8038 24.0382C51.4534 23.8239 51.7977 24.7431 52.0543 25.1654C52.4668 25.8491 52.855 26.5459 53.2675 27.2296C53.5729 27.7396 53.8798 28.2495 54.1884 28.7595C54.294 28.9398 54.6026 29.8736 54.9193 29.7697C55.1954 29.682 54.8429 28.9674 54.8088 28.8001C54.7243 28.4006 54.635 28.0027 54.5441 27.6064C54.3606 26.8106 54.1592 26.0213 53.9351 25.2352C53.9139 25.1621 53.9058 25.0907 53.909 25.0224C53.8376 24.8032 53.7661 24.5823 53.6914 24.3631C53.5599 23.9684 53.8896 23.5478 54.3037 23.5608C54.9014 23.5754 54.9907 24.3338 55.1336 24.7707C55.3594 25.4675 55.5786 26.1642 55.7898 26.8658C55.9408 27.3595 56.0854 27.8565 56.2283 28.3535C56.3046 28.6182 56.545 29.8022 57.0225 29.4546C57.115 29.3864 57.1085 29.1412 57.1134 29.0437C57.1362 28.7303 57.0858 28.4184 57.0679 28.1066C57.0192 27.2702 56.9803 26.4322 56.9559 25.5958C56.9413 25.1361 57.4545 24.8097 57.8702 25.0176C58.476 25.3213 58.2584 26.4906 58.2681 27.0298C58.2844 27.889 58.3315 28.7465 58.4111 29.6024C58.4273 29.7486 58.4403 29.8948 58.489 30.0344C58.5507 30.2131 58.6628 30.369 58.7668 30.5298L58.77 30.533C59.3563 31.4409 59.7006 32.4933 59.8387 33.5604C59.9085 34.0963 59.9247 34.6404 59.889 35.1796C59.8517 35.7253 59.6227 36.7517 59.6227 36.7517C59.6227 36.7517 60.0238 37.3916 60.2073 37.6352C60.4185 37.913 60.6134 38.2037 60.8131 38.4879C61.2305 39.0791 61.6479 39.6686 62.0637 40.2598C63.5092 42.3062 64.9936 44.3282 66.3627 46.4282C69.9081 51.8624 71.3552 54.6429 72.9143 58.3881C73.7719 60.4458 73.1287 64.0335 70.2102 64.1082Z" fill="#FFCFCA"/>
<path d="M49.2561 54.6888C48.0802 54.0197 46.7891 53.2759 45.5564 52.5515C45.3793 54.8594 45.0805 57.1867 44.7021 59.5157C43.0374 59.4735 41.3759 59.3858 39.7209 59.2104C38.6685 59.0983 37.5235 58.9018 36.8268 58.1043C36.3298 57.5343 36.1577 56.7515 36.1041 55.9979C35.9368 53.6429 36.7651 51.3237 37.8354 49.2189C38.0644 48.7706 38.3031 48.3272 38.55 47.8871C39.4562 46.2646 40.4356 44.6795 41.181 42.979C41.3564 42.5779 41.5351 42.1524 41.7608 41.7756C42.0142 41.3517 42.326 40.9863 42.7645 40.7703L43.091 40.8742C43.2907 41.8048 43.5067 42.7371 43.7503 43.6595C44.2441 45.5386 44.8499 47.3869 45.6554 49.1539C45.6782 49.201 45.6993 49.2481 45.722 49.2968C46.6283 51.2539 47.7944 53.1102 49.2561 54.6888Z" fill="#FCB9B4"/>
<path d="M58.7825 33.8918C58.6931 33.2698 58.5356 32.6364 58.1491 32.1427C57.7625 31.6489 57.0999 31.3274 56.4957 31.5011C56.1953 31.5872 55.9386 31.7837 55.6528 31.9153C54.9398 32.2417 54.0368 32.1605 53.4521 32.6835C53.3709 32.7549 53.2978 32.841 53.2735 32.945C53.2296 33.1447 53.3774 33.3315 53.5155 33.4825C53.7104 33.6969 53.9264 33.9227 54.2106 33.9811C54.4412 34.0266 54.6767 33.9535 54.9106 33.9243C55.4904 33.8545 56.0653 34.064 56.5899 34.3206C56.866 34.4538 57.1356 34.6032 57.3841 34.7835C57.8876 35.1473 58.2936 35.6312 58.6931 36.1087C58.7451 36.1721 58.7776 36.2321 58.7825 36.3134C58.9075 35.5078 58.8994 34.6974 58.7825 33.8918Z" fill="#F9BFBB"/>
<path d="M38.3078 9.51885C37.0475 8.5314 35.5907 7.81842 33.9991 7.44162C33.1432 7.23699 32.2662 7.11517 31.3875 7.08756C30.2653 7.05021 29.627 7.46598 29.091 8.43882C28.6753 9.19403 28.4722 10.0532 28.4316 10.9107C28.4203 11.1771 28.4219 11.445 28.4381 11.7163C28.6006 14.3652 30.0395 17.2171 31.6425 18.7113C32.9385 19.9213 34.5935 20.7528 36.3118 21.1669C38.0252 21.5811 40.1658 21.6477 41.759 20.7739C43.2646 19.9472 43.4676 18.2176 43.047 16.6909C42.5256 14.7956 41.392 12.8645 40.1593 11.3443C39.6055 10.6622 38.9851 10.0516 38.3078 9.51885Z" fill="#3A374C"/>
<path d="M31.6165 8.35587C31.5711 8.16909 31.5159 7.9807 31.4087 7.81991C31.1634 7.44961 30.6908 7.29695 30.2474 7.25472C28.6818 7.11018 27.2298 8.02617 25.9728 8.97303C25.1932 9.56095 24.4266 10.183 23.8224 10.9496C23.4099 11.4758 23.0802 12.0621 22.7814 12.6581C21.8687 14.4852 21.2271 16.4455 20.8828 18.4578L21.0777 19.6077C21.258 17.5207 21.9807 15.3882 23.5334 13.9818C25.5261 12.1774 28.4154 11.9078 31.0302 11.2858C31.2024 11.2451 31.3843 11.1948 31.5012 11.0616C31.5906 10.9577 31.6263 10.818 31.6539 10.6832C31.8082 9.91663 31.7952 9.11757 31.6165 8.35587Z" fill="#3A374C"/>
<path d="M41.9032 22.5733C41.58 21.7905 40.7906 21.2399 39.7821 21.2172C38.6322 21.1928 37.7325 22.1527 36.9967 23.0345L35.5886 28.3811C35.5513 28.5273 36.9643 28.4867 37.1332 28.4493C37.7016 28.3226 38.2781 28.0254 38.78 27.7363C39.8162 27.1354 40.7143 26.2958 41.3688 25.2921C41.8853 24.5027 42.2881 23.4974 41.9032 22.5733Z" fill="#FFCFCA"/>
<path d="M29.0503 7.5423C29.0714 7.76318 29.0779 7.98568 29.073 8.20656C29.0714 8.28289 29.0698 8.35922 29.0633 8.43556C29.0129 9.28496 28.7855 10.1198 28.425 10.8863C28.308 11.1348 28.1765 11.3768 28.0336 11.6091C27.9995 11.6659 27.9638 11.7228 27.9248 11.778C27.1387 12.9863 26.0327 13.9478 24.8227 14.7014C24.1958 15.0911 23.5299 15.4306 22.8137 15.5881C22.6627 15.6206 22.5116 15.6433 22.3589 15.658C22.3411 15.6612 22.3249 15.6628 22.307 15.6628C22.1462 15.6758 21.9838 15.6791 21.8214 15.6693C21.4413 15.6498 21.0678 15.5638 20.7202 15.3965C20.9427 14.7046 21.1993 14.0241 21.4982 13.3615C22.9128 10.2237 25.258 8.03116 28.105 7.01772C28.4185 7.05994 28.7271 7.13627 29.0097 7.22397C29.0259 7.32954 29.0405 7.43673 29.0503 7.5423Z" fill="#3A374C"/>
<path d="M30.0166 25.8963C30.0653 26.4631 29.989 27.0056 29.812 27.4847C29.7746 27.5886 29.7324 27.6877 29.687 27.7851C29.2793 28.6345 28.5419 29.229 27.6584 29.3053C26.9552 29.3654 26.2877 29.086 25.7696 28.5826C25.729 28.5436 25.6884 28.503 25.651 28.4608C25.1606 27.9313 24.826 27.1891 24.7529 26.3494C24.7448 26.2487 24.7399 26.1497 24.7383 26.0506L29.9793 25.5991C29.9955 25.6965 30.0085 25.7956 30.0166 25.8963Z" fill="#D55454"/>
<path d="M29.6869 27.7851C29.2792 28.6345 28.5419 29.229 27.6584 29.3053C26.9551 29.3654 26.2876 29.086 25.7695 28.5826C25.8605 28.4283 25.9709 28.2837 26.0992 28.1489C26.5296 27.7023 27.1549 27.3953 27.8711 27.3336C28.4087 27.2865 28.9203 27.3856 29.354 27.5935C29.4709 27.6503 29.5813 27.7137 29.6869 27.7851Z" fill="#F37C7C"/>
<path d="M29.2939 25.6574C29.1949 25.7906 29.0779 25.914 28.9464 26.0277C28.5225 26.3932 27.9427 26.6416 27.2898 26.6985C26.593 26.7586 25.9418 26.5864 25.4481 26.2616C25.3344 26.1869 25.2304 26.1057 25.1362 26.0164L29.2939 25.6574Z" fill="white"/>
<path d="M18.3738 22.3443C17.8281 20.2524 19.0835 18.107 21.1737 17.5613C23.2639 17.014 25.411 18.2694 25.9567 20.3612C26.504 22.4515 25.247 24.5969 23.1568 25.1442C21.0665 25.6899 18.9211 24.4345 18.3738 22.3443ZM24.5616 17.9771L28.9386 17.6084C28.2646 18.1882 27.7806 18.9596 27.5548 19.8155L26.0574 19.9374C25.7635 19.1237 25.2307 18.4513 24.5616 17.9771ZM26.2231 20.5383C26.2068 20.4603 26.1938 20.3824 26.1744 20.3044C26.1597 20.2541 26.1419 20.207 26.1272 20.1566L27.5029 20.0445C27.4769 20.1696 27.4558 20.2947 27.4412 20.423L26.2231 20.5383ZM27.766 21.9707C27.1894 19.7603 28.5163 17.4914 30.7267 16.9149C32.9371 16.3367 35.2044 17.6636 35.7826 19.874C36.3607 22.0844 35.0339 24.3517 32.8234 24.9299C30.613 25.508 28.3442 24.1811 27.766 21.9707ZM18.1578 22.3995C18.736 24.6099 21.0032 25.9384 23.2136 25.3602C25.2713 24.8227 26.5625 22.8169 26.2637 20.7592L27.42 20.6503C27.3908 21.1018 27.4298 21.5647 27.55 22.0276C28.159 24.3565 30.5497 25.7565 32.8803 25.1475C35.2093 24.5384 36.6092 22.1478 36.0002 19.8172C35.3912 17.4882 32.9989 16.0882 30.6699 16.6973C30.1486 16.8337 29.6775 17.0627 29.2618 17.3567L24.2563 17.7773C23.3403 17.243 22.2213 17.0546 21.1169 17.3437C18.9081 17.9218 17.5796 20.1907 18.1578 22.3995Z" fill="#999999"/>
<path d="M27.4795 24.1261C27.3463 23.9718 27.1368 23.8743 26.9159 23.8711C26.6934 23.863 26.4612 23.9718 26.3183 24.1488C26.1737 24.3242 26.1088 24.5857 26.1965 24.8033C26.2744 25.0161 26.4742 25.1817 26.6837 25.1801C26.5018 25.0875 26.3978 24.9202 26.3637 24.753C26.3312 24.5873 26.3832 24.42 26.492 24.2917C26.5976 24.1585 26.7503 24.0708 26.9257 24.0449C27.1011 24.0189 27.2927 24.0481 27.4795 24.1261Z" fill="#B53434"/>
<path d="M30.8451 18.76C30.8955 18.747 30.9312 18.6999 30.9279 18.6447C30.9247 18.5829 30.8727 18.5358 30.811 18.5391L29.1577 18.6268C29.0959 18.63 29.0472 18.6836 29.0521 18.7453C29.0553 18.8071 29.1073 18.8542 29.169 18.8509L30.8224 18.7632L30.8451 18.76Z" fill="#24404C"/>
<path d="M24.8149 19.3236C24.8669 19.3106 24.9026 19.2619 24.8977 19.2067C24.8945 19.145 24.8409 19.0995 24.7792 19.1044L23.2184 19.2164C23.1583 19.2213 23.1112 19.2749 23.1161 19.3366C23.1193 19.3983 23.1729 19.4438 23.2346 19.4406L24.7954 19.3269L24.8149 19.3236Z" fill="#24404C"/>
<path d="M29.0765 21.7078C29.0554 21.7078 29.0326 21.7029 29.0115 21.6931C28.9319 21.6574 28.8979 21.5632 28.9336 21.4853C29.1252 21.0646 29.5215 20.7723 29.9909 20.7024C30.366 20.6472 30.8598 20.8421 31.1911 21.1783C31.2528 21.24 31.2528 21.3391 31.1911 21.4008C31.1294 21.4609 31.0287 21.4609 30.9686 21.3992C30.7103 21.1393 30.3108 20.9737 30.038 21.0143C29.6726 21.0679 29.3672 21.292 29.2194 21.6152C29.1934 21.6737 29.1366 21.7078 29.0765 21.7078Z" fill="#FCB9B4"/>
<path d="M23.3272 21.9011C23.2947 21.9011 23.2623 21.8913 23.233 21.8702C23.1632 21.8182 23.1486 21.7192 23.2006 21.6493C23.4815 21.2725 23.9395 21.0094 24.3179 21.0094H24.3228C24.7987 21.0127 25.2307 21.2465 25.4808 21.6347C25.5263 21.7094 25.5052 21.8052 25.4321 21.8523C25.359 21.8994 25.2616 21.8783 25.2145 21.8052C25.0244 21.5064 24.6899 21.3261 24.3212 21.3245C24.0402 21.3245 23.6716 21.5438 23.4539 21.8377C23.4231 21.8783 23.376 21.9011 23.3272 21.9011Z" fill="#FCB9B4"/>
<path d="M28.9708 21.5C28.9497 21.5 28.9269 21.4951 28.9058 21.4854C28.8278 21.4497 28.7921 21.3571 28.8279 21.2775C29.0195 20.8569 29.4158 20.5645 29.8868 20.4947C30.2619 20.4395 30.7557 20.636 31.087 20.9705C31.1471 21.0323 31.1471 21.1313 31.0854 21.193C31.0237 21.2531 30.9246 21.2531 30.8628 21.1914C30.6062 20.9316 30.2067 20.7659 29.9323 20.8065C29.5668 20.8601 29.2615 21.0842 29.1153 21.4074C29.0877 21.4659 29.0309 21.5 28.9708 21.5Z" fill="#24404C"/>
<path d="M23.2233 21.6933C23.1892 21.6933 23.1567 21.6835 23.129 21.6624C23.0592 21.6105 23.0446 21.513 23.0966 21.4432C23.3759 21.0648 23.8355 20.8033 24.214 20.8033H24.2172C24.6931 20.8049 25.1267 21.0388 25.3752 21.4286C25.4223 21.5016 25.4012 21.5991 25.3281 21.6462C25.2534 21.6917 25.1559 21.6706 25.1105 21.5975C24.9188 21.2986 24.5843 21.12 24.2156 21.1184C23.9346 21.1184 23.5659 21.336 23.3483 21.63C23.3174 21.6722 23.2704 21.6933 23.2233 21.6933Z" fill="#24404C"/>
<path d="M30.1841 43.2486C30.1127 43.3298 30.0396 43.4094 29.9649 43.489C28.625 44.8906 26.6436 45.9511 25.2257 46.9418C23.4051 48.2103 22.2682 49.4917 21.2434 51.4163C21.0388 51.8012 20.8423 52.1942 20.6522 52.5921C20.5174 52.8731 20.3875 53.1573 20.2608 53.4431C19.5852 54.9568 18.9973 56.5468 18.45 58.1563C17.4414 61.0992 16.5595 64.1103 15.4957 66.8647C14.2062 70.2007 12.7428 73.3904 10.9677 76.4957C9.22827 79.5441 7.37844 82.5292 5.42301 85.4461C4.4453 86.9046 3.43997 88.3468 2.41192 89.7695C2.05948 90.2567 1.06227 91.7071 0.449984 92.5435C0.315183 92.727 0.19989 92.8813 0.112188 92.9885L0.102418 93.0161V93.0193C0.146269 93.6657 0.104061 94.5005 -0.105448 95.9151C-0.215887 96.6736 -0.329581 97.4337 -0.526098 98.1759C-0.833054 99.342 -1.58014 100.325 -2.09336 101.409C-2.19893 101.638 -2.30448 101.871 -2.46202 102.069C-3.19287 102.99 -4.05528 101.973 -4.02605 101.129C-4.02442 101.049 -4.01468 100.971 -4.00168 100.895C-3.92535 100.438 -3.67524 100.022 -3.47223 99.61C-3.35367 99.368 -3.24324 99.1211 -3.1864 98.8564C-3.1393 98.6355 -3.03858 98.3448 -3.23185 98.1596C-3.40888 97.9907 -3.76133 97.955 -3.99033 97.9875C-4.26643 98.0281 -4.50353 98.1678 -4.71791 98.3448C-4.87545 98.4747 -5.01838 98.6274 -5.15318 98.7784C-5.51048 99.1731 -5.83856 99.5824 -6.18287 99.9835C-6.66361 100.539 -7.04365 101.119 -7.2223 101.832C-7.4042 102.558 -7.42042 103.31 -7.47889 104.052C-7.5406 104.849 -7.58284 105.936 -8.2877 106.464C-8.6109 106.706 -9.07539 106.482 -9.19882 106.132C-9.26703 105.937 -9.25728 105.726 -9.24916 105.52C-9.18907 104.206 -9.15171 102.889 -8.9016 101.593C-8.66448 100.372 -8.08956 99.2186 -7.54223 98.1044C-6.72856 96.4608 -3.10354 90.8495 -3.10354 90.8495C-3.07431 90.7927 -1.54441 87.2635 -0.517978 85.0434C0.255097 83.3705 0.909624 82.0859 1.63885 80.3968C3.06806 77.0836 4.93903 72.8886 6.15386 69.4909C6.25456 69.21 6.35038 68.9339 6.43808 68.6626C6.54365 68.3459 6.63783 68.0357 6.72715 67.7271C7.49048 65.1253 7.82991 62.7655 8.45844 59.9201C9.1227 56.9171 9.83895 53.932 10.5178 50.9323C11.5946 46.1639 13.5452 43.3363 15.1871 42.3261C17.4625 40.9294 19.7557 39.8104 22.1513 38.9724C22.3527 38.9009 22.5541 38.8327 22.7555 38.7661C23.6666 38.4656 24.594 38.2058 25.5392 37.9849C25.7065 37.9475 25.8754 37.9086 26.0443 37.8728C27.1243 37.639 28.2303 37.4554 29.3721 37.3206C29.7862 37.2735 30.1874 37.4993 30.5171 37.8452C30.9101 38.2529 31.2073 38.8262 31.3145 39.3037C31.675 40.8953 31.1277 42.1718 30.1841 43.2486Z" fill="#FFCFCA"/>
<path d="M36.5428 54.4402C34.3064 56.6116 31.2806 57.8898 28.1835 58.2471C27.2675 58.3526 26.3336 58.3819 25.4306 58.1983C23.113 57.7257 21.2372 55.8531 20.3455 53.6606C20.3163 53.5891 20.2887 53.516 20.2611 53.443C20.201 53.2838 20.1458 53.123 20.0954 52.9606C19.4572 50.9532 19.488 48.7574 19.8616 46.6737C20.037 45.6895 20.2855 44.7231 20.5713 43.7649C20.9595 42.4543 21.4158 41.1615 21.8446 39.8654C21.9437 39.5682 22.0428 39.2694 22.1516 38.9722C22.353 38.9007 22.5543 38.8325 22.7557 38.7659C23.6668 38.4655 24.5942 38.2056 25.5394 37.9847C25.5882 38.3972 25.6759 38.8 25.7993 39.1931C25.9309 39.6105 26.1046 40.0132 26.3174 40.3981C27.0612 41.738 28.2647 42.8408 29.6988 43.393C29.7865 43.4271 29.8742 43.4596 29.9651 43.4888C30.0837 43.5278 30.2055 43.5651 30.3289 43.596C31.4463 43.8883 32.6206 43.8754 33.772 43.8023C35.9467 43.6675 38.2237 43.2809 39.903 41.8972C39.6562 43.2679 39.9972 44.6695 40.0508 46.063C40.171 49.1797 38.7824 52.2687 36.5428 54.4402Z" fill="#FCB9B4"/>
<path d="M43.645 39.4899C43.8903 41.991 43.8952 44.5393 44.1631 47.0323C44.5578 50.7157 45.3585 54.3424 45.9123 58.0063C46.2274 60.0803 46.3963 62.2258 46.3752 64.3615C46.3589 66.0002 46.2306 67.6308 45.9724 69.2175C38.659 72.789 30.1309 73.8024 22.1858 72.0467C21.3688 71.8665 20.5551 71.657 19.7675 71.3695C18.5575 70.9277 17.51 70.2943 16.2805 69.9078C16.235 66.4013 16.1896 62.8835 16.3877 59.3852C16.5046 57.3275 16.7044 55.2762 17.039 53.2412C17.9127 47.9271 19.6002 44.0472 20.3635 38.7185C20.8458 38.6194 21.6287 38.2507 22.1338 38.1549C23.0676 37.9779 24.0031 37.6985 24.9938 37.6124C24.9565 39.0595 25.205 40.5261 25.8968 41.7913C26.6699 43.201 28.0471 44.3265 29.6404 44.5555C30.3859 44.6627 31.1459 44.575 31.8849 44.4337C33.2491 44.1722 34.615 43.7028 35.6496 42.7755C36.6046 41.9196 37.2038 40.7421 37.6732 39.5484C37.9899 38.7461 38.1312 38.3514 38.3472 37.5166C38.8783 37.6595 40.7038 38.2848 40.9896 38.4359C41.1894 38.5414 43.4485 39.3827 43.645 39.4899Z" fill="#FF6B6B"/>
<path d="M46.3752 64.3615C46.3589 66.0002 46.2306 67.6308 45.9724 69.2175C38.659 72.789 30.1309 73.8024 22.1858 72.0467C21.3688 71.8665 20.5551 71.657 19.7675 71.3695C18.5575 70.9277 17.51 70.2943 16.2805 69.9078C16.235 66.4013 16.1896 62.8835 16.3877 59.3852C17.0195 60.2752 17.7666 61.0548 18.7199 61.5826C20.1832 62.3898 21.934 62.4775 23.602 62.3622C25.2683 62.2453 26.9314 61.9416 28.5993 62.0406C31.6299 62.2176 34.4201 63.6972 37.3793 64.3793C38.7045 64.6847 40.0671 64.8308 41.4281 64.8503C43.088 64.8747 44.7495 64.709 46.3752 64.3615Z" fill="#DD5050"/>
<path d="M61.3168 52.6923C60.7127 52.0719 60.0386 51.1819 59.618 50.4235C59.0999 49.4912 58.6208 48.5379 58.1807 47.5666C58.5201 47.7908 58.8839 48.0263 59.2851 48.2796C59.7008 49.8713 60.3066 51.4077 61.3168 52.6923Z" fill="#FCB9B4"/>
</g>
</g>
<defs>
<clipPath id="clip0_1065_49890">
<rect width="64" height="64" rx="32" fill="white"/>
</clipPath>
<clipPath id="clip1_1065_49890">
<rect width="74" height="74" fill="white" transform="translate(-5)"/>
</clipPath>
</defs>
</svg>
