<svg width="64" height="64" viewBox="0 0 64 64" fill="none" xmlns="http://www.w3.org/2000/svg">
<g clip-path="url(#clip0_1065_49901)">
<rect width="64" height="64" rx="32" fill="#FFF1F1"/>
<g clip-path="url(#clip1_1065_49901)">
<rect width="68" height="68" transform="translate(-2)" fill="#FFF1F1"/>
<path d="M45.169 41.6947C44.0661 47.5525 42.8828 53.3685 42.1314 59.2799C41.4195 64.878 40.7337 70.4836 39.8428 76.0563C35.2543 76.1592 30.6799 75.9667 26.1041 75.6115C21.5485 75.2563 17.0442 74.6235 12.7656 72.9565C10.4962 72.073 8.29714 70.9895 6.2085 69.7254C8.2567 66.7525 9.51152 63.3244 10.8793 60.0068C12.3447 56.4533 13.6025 52.8133 14.6477 49.1136C16.9274 41.0396 17.8343 32.9536 18.3769 24.617C18.6859 19.8741 20.0438 14.8879 23.2351 11.2464C26.4416 7.58395 31.8131 5.49457 36.5318 7.27652C39.4462 8.37942 41.8207 10.6613 43.4065 13.3447C44.1602 14.6207 44.7467 15.9848 45.1989 17.3966C45.3213 17.7712 45.4317 18.1518 45.5347 18.5324C45.8571 19.7293 46.0958 20.9516 46.2705 22.1769C46.5391 24.0812 46.6615 25.993 46.6689 27.9048C46.6839 32.5298 46.0242 37.1563 45.169 41.6947Z" fill="#345668"/>
<path d="M41.3353 42.6496C40.7032 43.1436 39.8932 43.3302 39.111 43.5033C38.1683 43.7123 37.2231 43.9227 36.2607 43.9928C34.3843 44.1286 32.6142 43.657 30.7747 43.2645C30.683 42.184 30.5889 41.102 30.4972 40.0215C30.3822 38.6709 30.2647 37.3157 30.0149 35.983C29.9376 35.5741 29.8503 35.1681 29.7507 34.7637C29.5099 33.7578 29.2121 32.7668 28.9147 31.7744C28.6701 30.9595 28.4256 30.1417 28.1812 29.3268C28.7136 29.7372 29.1991 29.9282 29.8244 30.1849C32.4589 31.2714 35.1331 32.2579 37.82 33.2086C38.6294 33.4936 39.4461 33.7787 40.2971 33.8861L40.856 38.6052L41.3353 42.6496Z" fill="#FFCFCA"/>
<path d="M40.856 38.6052C37.9084 38.1948 35.0224 37.3665 32.341 36.089C31.4882 35.6846 30.6019 35.2473 29.7507 34.7637C29.5099 33.7578 29.2121 32.7669 28.9147 31.7744C28.6701 30.9595 28.4256 30.1417 28.1812 29.3268C28.7136 29.7373 29.1991 29.9283 29.8244 30.185C32.4589 31.2715 35.1331 32.258 37.82 33.2086C38.6294 33.4937 39.4461 33.7787 40.2971 33.8862L40.856 38.6052Z" fill="#F9BFBB"/>
<path d="M45.3701 31.01C44.9149 32.6218 44.1986 34.1217 42.8673 35.1858C41.6868 36.129 40.2011 36.6932 38.6954 36.7976C37.0291 36.9126 35.3691 36.5156 33.8579 35.7873C33.1059 35.4231 32.3895 34.9799 31.7293 34.4739C30.5749 33.5904 29.5682 32.5308 28.6752 31.3876C27.2242 29.5281 25.9779 27.3626 25.222 25.0672C24.3628 22.4719 24.1279 19.7079 24.9222 17.0335C25.243 15.944 25.7481 14.9113 26.4089 13.9845C29.1929 10.0773 34.5999 8.84459 38.8057 11.1593C40.9966 12.3667 42.7542 14.3531 43.827 16.5977C44.1673 17.3096 44.4747 18.0454 44.7403 18.7961C46.1268 22.6883 46.4939 27.0387 45.3701 31.01Z" fill="#FFCFCA"/>
<path d="M45.1992 17.3963C43.8799 15.4412 42.5565 13.404 40.8162 11.8579C39.2567 10.4744 37.3183 9.52972 35.2285 9.33869C31.2692 8.97603 26.653 10.4789 24.1378 13.6757C22.8685 15.289 22.2911 17.3127 22.2068 19.3215C22.1225 21.3288 22.5354 23.1048 23.0391 25.0673C26.8636 24.7032 30.1971 22.2795 32.1732 19.2275C33.6443 16.9575 34.4452 14.3726 34.8604 11.728C36.0438 13.2593 37.3558 14.692 38.8955 15.8665C40.8144 17.3291 43.1226 18.3768 45.535 18.532C45.432 18.1499 45.3216 17.7709 45.1992 17.3963Z" fill="#345668"/>
<path d="M59.9948 86.2194C58.7636 84.4583 56.0668 81.0422 56.0668 81.0422C56.0668 81.0422 57.7398 58.7215 53.1446 49.1879C50.2239 46.1672 47.3824 43.451 43.2021 42.6735C40.1428 47.8029 39.2108 52.428 38.7072 58.3797C38.0397 66.2702 37.847 74.5964 41.4088 81.669C42.3953 83.627 43.6483 85.4388 44.9214 87.2238C48.2823 91.9368 52.0551 96.4842 56.2578 100.544C57.389 101.635 59.0919 101.881 60.4799 101.141L64.5258 98.9825C65.8496 98.2766 66.3451 96.626 65.6287 95.3082C63.8527 92.0458 62.0663 89.1803 59.9948 86.2194Z" fill="#FF6B6B"/>
<path d="M47.812 45.3972C47.5882 44.8002 45.7779 43.5123 45.7779 43.5123C45.7779 43.5123 34.9496 41.3274 29.8101 41.981C27.2402 42.3079 24.7013 42.8825 22.2428 43.7003C19.5453 44.5973 17.1877 45.6643 14.9626 47.4597C12.6921 49.2924 10.6822 51.4296 8.77671 53.6324C7.85633 54.6965 6.96043 55.78 6.06975 56.8694C3.5107 59.9976 0.828069 63.1346 -1.31236 66.5821C-4.40003 71.5564 -6.64001 77.9111 -3.65353 83.4674C-1.86769 86.7895 1.0685 89.3639 3.95588 91.7145C7.39144 94.5113 11.1591 97.0245 15.197 98.896C16.3318 99.4228 17.6883 99.0229 18.3345 97.9528C19.194 96.529 19.9145 95.0321 20.5707 93.5009C20.968 92.5741 20.8962 91.5145 20.3958 90.6385C17.6605 85.8478 14.2636 81.3571 10.0653 76.9828C13.1508 74.0442 16.2199 70.9355 18.7032 67.5119C18.9373 70.4699 19.0332 73.4308 18.8822 76.3993C18.8389 77.2529 18.7861 78.1588 19.1953 78.908C19.7133 79.8587 20.8217 80.2975 21.8531 80.6258C29.3641 83.0092 37.517 83.2957 45.1973 81.5302C46.7479 81.1735 48.3702 80.6706 49.3403 79.3214C50.2208 78.0976 50.4342 76.5216 50.6805 75.0725C51.0969 72.601 51.3491 70.0998 51.4371 67.5955C51.6998 60.0528 50.4745 52.4578 47.812 45.3972Z" fill="#FF6B6B"/>
<path d="M43.4288 41.5961C43.3691 41.3648 43.299 41.1334 43.2557 40.914C43.0814 40.0081 43.2482 38.8515 42.2489 38.2262C41.7581 37.9187 41.1521 37.9725 40.5849 37.9635C39.9157 37.9546 39.2475 37.9665 38.5783 37.9531C37.1754 37.9232 35.7708 37.7799 34.388 37.5277C33.6827 37.3994 32.9829 37.2412 32.2922 37.0561C31.6696 36.889 31.0402 36.6084 30.3943 36.5442C29.93 36.498 29.4239 36.6129 29.157 36.9308C28.9838 37.1382 28.9304 37.4009 28.8819 37.6546C28.6373 38.9396 28.4119 40.2499 28.6188 41.5543C28.6825 41.9572 28.8001 42.3781 29.1252 42.6796C29.8585 43.3616 31.4621 43.575 32.451 43.7854C35.7179 44.4809 39.2154 44.5735 42.2835 43.4467C42.6537 43.3109 43.0257 43.1527 43.2826 42.887C43.6512 42.5065 43.5452 42.0528 43.4288 41.5961Z" fill="#D75252"/>
<path d="M30.1255 42.9034C30.0729 42.8959 30.0288 42.8601 30.0201 42.8123C29.6704 40.8976 29.6421 38.9619 29.9359 37.062C29.9446 37.0053 30.0037 36.968 30.0688 36.977H30.0712C30.1371 36.9874 30.1835 37.0412 30.1747 37.0964C29.884 38.9783 29.9119 40.8931 30.2579 42.7885C30.2683 42.8452 30.2235 42.8974 30.1577 42.9034H30.1255Z" fill="#FF6B6B"/>
<path d="M31.1493 43.266H31.1472C31.0812 43.2556 31.0348 43.2019 31.0433 43.1451C31.1762 42.2765 31.1556 41.3766 31.1359 40.5065L31.0696 37.6068C31.0677 37.5232 31.053 37.4963 31.0412 37.4889C30.9859 37.456 30.9712 37.3904 31.0081 37.3441C31.0453 37.2978 31.1196 37.2874 31.1753 37.3217C31.3057 37.4023 31.309 37.5426 31.3105 37.6112L31.3766 40.511C31.3966 41.3886 31.4173 42.2959 31.2821 43.1809C31.2738 43.2362 31.2144 43.2735 31.1493 43.266Z" fill="#FF6B6B"/>
<path d="M32.4088 43.5241C32.3488 43.5166 32.3022 43.4719 32.3019 43.4181C32.2918 41.5407 32.3482 39.6408 32.4697 37.7708C32.4734 37.7141 32.5303 37.6723 32.5967 37.6783C32.6616 37.6843 32.714 37.7335 32.7101 37.7902C32.5891 39.6572 32.5327 41.5526 32.5428 43.4256C32.5431 43.4823 32.4895 43.5271 32.423 43.5256L32.4088 43.5241Z" fill="#FF6B6B"/>
<path d="M33.435 43.7348C33.3713 43.7273 33.3239 43.6765 33.3284 43.6213C33.4748 41.7722 33.5035 39.8888 33.4136 38.0262C33.4109 37.9695 33.4626 37.9233 33.529 37.9233C33.5962 37.9248 33.6515 37.9695 33.6542 38.0262C33.7444 39.8963 33.7157 41.7871 33.5687 43.6437C33.5642 43.7004 33.5068 43.7422 33.4403 43.7362L33.435 43.7348Z" fill="#FF6B6B"/>
<path d="M34.5733 44.0543H34.5732C34.5071 44.0453 34.4596 43.9931 34.4671 43.9364C34.5784 43.0931 34.6036 42.1783 34.5492 40.9724L34.5439 40.8575C34.5245 40.4456 34.5047 40.0188 34.565 39.6009C34.5859 39.4576 34.6162 39.3143 34.6465 39.1726C34.7045 38.8994 34.7593 38.6412 34.7497 38.3756C34.7476 38.3189 34.7999 38.2726 34.8664 38.2726C34.9321 38.2726 34.9882 38.3204 34.9905 38.3771C35.0008 38.6651 34.9411 38.9457 34.8835 39.2173C34.8541 39.3561 34.8244 39.4949 34.8041 39.6352C34.7462 40.0352 34.7657 40.4531 34.7845 40.8575L34.7897 40.9724C34.8448 42.1902 34.8191 43.114 34.7063 43.9677C34.6989 44.0244 34.6393 44.0632 34.5733 44.0543Z" fill="#FF6B6B"/>
<path d="M35.5602 43.9659H35.556C35.4902 43.9554 35.4448 43.9002 35.4544 43.845C35.7578 42.0884 35.8568 40.293 35.7484 38.5051C35.7448 38.4484 35.796 38.4021 35.8623 38.4007C35.9302 38.4007 35.9854 38.4469 35.9888 38.5036C36.0981 40.3035 35.9984 42.1138 35.6927 43.8838C35.6832 43.9375 35.6244 43.9749 35.5602 43.9659Z" fill="#FF6B6B"/>
<path d="M36.8832 43.924H36.8779C36.8122 43.912 36.7673 43.8583 36.7776 43.8016C36.8518 43.3986 36.81 42.9733 36.7698 42.5614C36.751 42.3674 36.7315 42.1674 36.7236 41.9704C36.7064 41.5331 36.7464 41.0899 36.7849 40.663C36.8491 39.9497 36.9155 39.2139 36.7107 38.5125C36.6945 38.4572 36.7334 38.402 36.7979 38.3901C36.8625 38.3781 36.9279 38.414 36.9441 38.4692C37.1586 39.2035 37.0908 39.9571 37.025 40.6869C36.987 41.1093 36.9476 41.5465 36.9643 41.9719C36.9719 42.1644 36.9912 42.3614 37.0098 42.5524C37.0513 42.9763 37.0941 43.4136 37.0155 43.8419C37.0056 43.8971 36.947 43.9329 36.8832 43.924Z" fill="#FF6B6B"/>
<path d="M37.9237 43.8468C37.8595 43.8378 37.8122 43.7871 37.8173 43.7318C37.9768 42.0021 38.0268 40.2411 37.9656 38.4964C37.9637 38.4397 38.0159 38.3935 38.0823 38.395C38.1489 38.395 38.2044 38.4427 38.2065 38.4994C38.2677 40.25 38.2175 42.0185 38.0572 43.7557C38.052 43.8124 37.9941 43.8527 37.9279 43.8468H37.9237Z" fill="#FF6B6B"/>
<path d="M39.0988 43.5852C39.0338 43.5762 38.9862 43.524 38.9922 43.4688C39.1597 41.8928 39.3326 40.263 39.0186 38.6617C39.0074 38.605 39.0516 38.5527 39.1171 38.5453C39.1832 38.5378 39.2449 38.5781 39.2561 38.6348C39.5753 40.263 39.4008 41.9062 39.2322 43.4956C39.2261 43.5523 39.1676 43.5926 39.1013 43.5852H39.0988Z" fill="#FF6B6B"/>
<path d="M40.1179 43.7602C40.0578 43.7513 40.0109 43.7065 40.0112 43.6528L40.0317 38.6606C40.032 38.6039 40.086 38.5591 40.1526 38.5621C40.217 38.5636 40.2728 38.6129 40.2726 38.6696L40.252 43.6617C40.2517 43.7199 40.1976 43.7632 40.1311 43.7602H40.1179Z" fill="#FF6B6B"/>
<path d="M41.3295 43.4421C41.2676 43.4346 41.2204 43.3869 41.2226 43.3317C41.2864 41.784 41.2449 40.211 41.0995 38.6589C41.0941 38.6007 41.1435 38.5529 41.2098 38.5499C41.2756 38.5469 41.3341 38.5932 41.3396 38.6499C41.4858 40.211 41.5274 41.7915 41.4634 43.3481C41.4608 43.4048 41.4052 43.4481 41.3388 43.4436L41.3295 43.4421Z" fill="#FF6B6B"/>
<path d="M42.5015 42.9915L42.4766 42.9855C42.4135 42.9646 42.3794 42.9049 42.4006 42.8512C42.5481 42.4796 42.4818 42.0766 42.4117 41.6498C42.3793 41.4528 42.3459 41.2498 42.3353 41.0499C42.3268 40.8902 42.3329 40.7305 42.3387 40.5753C42.3447 40.4201 42.3508 40.2589 42.3415 40.1037C42.3115 39.5918 42.1169 39.0858 41.9286 38.5963C41.9075 38.5411 41.9416 38.4844 42.0046 38.468C42.0678 38.4516 42.1359 38.4829 42.1571 38.5381C42.3505 39.0411 42.5505 39.5604 42.5823 40.1007C42.5918 40.2663 42.5855 40.4305 42.5794 40.5902C42.5736 40.7409 42.5678 40.8976 42.5757 41.0484C42.586 41.2394 42.6185 41.4364 42.65 41.6289C42.7211 42.0602 42.7946 42.5065 42.629 42.9258C42.6106 42.9721 42.5566 42.9975 42.5015 42.9915Z" fill="#FF6B6B"/>
<path d="M29.7822 30.6239C28.5798 31.6835 26.7984 32.0476 25.2824 31.5208C24.0016 31.0776 22.9592 30.012 22.5158 28.736C22.4358 28.5031 22.3756 28.2658 22.3355 28.0211C22.267 27.5928 22.2649 27.1525 22.3653 26.7316C22.6189 25.6944 23.5518 24.8766 24.6017 24.687C25.654 24.499 26.7772 24.9139 27.5093 25.6929L28.3832 27.5898L29.7822 30.6239Z" fill="#FFCFCA"/>
<path d="M47.082 80.9871C47.676 80.6438 48.2864 80.3453 48.8461 80.0021C49.4057 79.6603 49.9042 79.2469 50.2161 78.7007C50.3728 78.4306 50.4892 78.1336 50.5668 77.8217C50.6474 77.5097 50.6818 77.2113 50.6474 76.8919C50.6176 76.5725 50.5564 76.2367 50.5101 75.8994C50.4609 75.5621 50.4221 75.2234 50.3863 74.8846C50.3206 74.2055 50.2833 73.5265 50.2609 72.8474C50.2355 72.1684 50.237 71.4878 50.2519 70.8103C50.2773 69.4537 50.3519 68.103 50.428 66.7524C50.5803 64.0511 50.7892 61.3558 50.7295 58.6545C50.6832 55.9532 50.4639 53.2534 50.0639 50.579C50.5086 53.2474 50.7728 55.9457 50.8638 58.65C50.9698 61.3587 50.8056 64.066 50.6982 66.7658C50.6444 68.1164 50.5922 69.4656 50.5892 70.8147C50.5847 71.4893 50.5952 72.1594 50.6325 72.8325C50.6638 73.5041 50.7116 74.1757 50.7892 74.8413C50.8295 75.1741 50.8728 75.5054 50.9265 75.8367C50.9787 76.1681 51.0444 76.4979 51.0832 76.8501C51.1295 77.2038 51.0937 77.5888 51.0086 77.9306C50.928 78.2768 50.8012 78.6171 50.625 78.935C50.4474 79.2514 50.2176 79.5394 49.9564 79.7857C49.6938 80.0319 49.4072 80.2409 49.1132 80.4274C48.5267 80.8005 47.9238 81.105 47.3522 81.4482L47.082 80.9871Z" fill="#D75252"/>
<path d="M18.6489 46.6403C19.3059 47.1179 19.8643 47.7402 20.3007 48.4387C20.7423 49.1342 21.0644 49.9027 21.3084 50.6877C21.5548 51.4743 21.707 52.2861 21.8136 53.098C21.9193 53.9114 21.9649 54.7307 21.9821 55.5486C21.99 56.3664 21.9555 57.1843 21.8858 57.9976C21.8091 58.811 21.702 59.6214 21.546 60.4228C21.2422 62.0272 20.7483 63.6062 19.9866 65.0419C20.5431 63.5166 20.911 61.9451 21.134 60.3557C21.2387 59.5587 21.3347 58.7603 21.3807 57.9588C21.4338 57.1574 21.4636 56.356 21.4472 55.5545C21.4406 54.7531 21.3977 53.9532 21.3117 53.1577C21.2742 52.7577 21.2184 52.3637 21.1541 51.9697C21.0828 51.5772 21.0058 51.1862 20.908 50.8012C20.8077 50.4161 20.6938 50.0341 20.5546 49.661C20.4915 49.4714 20.4086 49.2908 20.3351 49.1058C20.2488 48.9267 20.1712 48.7416 20.0742 48.5685C19.7129 47.8566 19.2293 47.2074 18.6489 46.6403Z" fill="#D75252"/>
<path d="M28.483 43.7332C28.4279 43.7332 28.3763 43.6988 28.3569 43.6451C28.3321 43.575 28.3687 43.4989 28.4382 43.4735C28.6066 43.4138 28.7749 43.3556 28.9434 43.2959C29.0132 43.2705 29.0895 43.3078 29.114 43.378C29.1385 43.4466 29.1017 43.5242 29.0321 43.5481C28.8637 43.6078 28.6957 43.666 28.5276 43.7257C28.5128 43.7317 28.4978 43.7332 28.483 43.7332Z" fill="#D75252"/>
<path d="M26.4567 44.463C26.4022 44.463 26.3509 44.4287 26.3312 44.375C26.3058 44.3048 26.3415 44.2287 26.4109 44.2033C26.748 44.0795 27.0855 43.9571 27.4234 43.8362C27.4928 43.8108 27.5696 43.8467 27.5945 43.9168C27.6195 43.9869 27.5835 44.0631 27.5139 44.0884C27.1766 44.2093 26.8395 44.3317 26.5027 44.4541C26.4876 44.46 26.4721 44.463 26.4567 44.463ZM24.4387 45.2122C24.3846 45.2122 24.3336 45.1794 24.3134 45.1257C24.2873 45.0555 24.3222 44.9794 24.3915 44.9525C24.7274 44.8257 25.0637 44.7003 25.4002 44.5749C25.4695 44.5496 25.5466 44.5854 25.5723 44.654C25.598 44.7242 25.5626 44.8003 25.4933 44.8257C25.1573 44.951 24.8215 45.0764 24.4858 45.2033C24.4703 45.2092 24.4543 45.2122 24.4387 45.2122ZM22.4287 45.9823C22.3754 45.9823 22.3249 45.951 22.3042 45.8972C22.277 45.8286 22.3109 45.751 22.3796 45.7241C22.6122 45.6316 22.8455 45.542 23.0783 45.4525L23.3847 45.3346C23.4537 45.3092 23.5311 45.3435 23.5575 45.4122C23.5838 45.4808 23.5493 45.5585 23.4804 45.5853L23.1743 45.7032C22.9421 45.7913 22.7097 45.8823 22.4778 45.9734C22.4617 45.9793 22.4451 45.9823 22.4287 45.9823ZM20.4512 46.8315C20.4015 46.8315 20.3536 46.8046 20.3306 46.7554C20.2985 46.6897 20.3266 46.6091 20.3931 46.5778C20.6989 46.43 21.0216 46.2853 21.3796 46.1315C21.4477 46.1032 21.5263 46.1345 21.5553 46.2032C21.5841 46.2703 21.5526 46.3494 21.4846 46.3778C21.1304 46.5285 20.8113 46.6733 20.5093 46.8181C20.4905 46.827 20.4708 46.8315 20.4512 46.8315ZM18.581 47.8941C18.5382 47.8941 18.4963 47.8732 18.4703 47.8359C18.4287 47.7747 18.4446 47.6911 18.5057 47.6493C18.7933 47.4538 19.1044 47.2613 19.4305 47.0777C19.4949 47.0419 19.5765 47.0643 19.6128 47.1285C19.649 47.1926 19.6264 47.2747 19.5619 47.3106C19.2424 47.4911 18.9376 47.6792 18.6563 47.8702C18.6331 47.8866 18.607 47.8941 18.581 47.8941ZM16.9222 49.2612C16.8873 49.2612 16.8524 49.2477 16.8263 49.2209C16.7748 49.1671 16.776 49.0835 16.829 49.0313C17.0988 48.7686 17.3704 48.5239 17.6361 48.3045C17.6931 48.2568 17.7772 48.2642 17.8245 48.3209C17.8716 48.3791 17.8638 48.4627 17.8069 48.5105C17.5465 48.7254 17.2804 48.9657 17.0153 49.2238C16.9894 49.2492 16.9558 49.2612 16.9222 49.2612ZM15.4623 50.8416C15.4316 50.8416 15.4009 50.8312 15.3756 50.8103C15.3194 50.7625 15.3125 50.6775 15.3604 50.6222C15.6173 50.3193 15.851 50.0551 16.075 49.8104C16.1248 49.7551 16.2096 49.7522 16.2641 49.8014C16.3185 49.8522 16.3223 49.9372 16.2723 49.991C16.0505 50.2327 15.819 50.4954 15.5643 50.7954C15.5377 50.8267 15.5002 50.8416 15.4623 50.8416ZM14.0901 52.5012C14.0602 52.5012 14.0302 52.4908 14.0053 52.4699C13.9481 52.4236 13.9398 52.3385 13.9868 52.2818L14.6696 51.4505C14.7166 51.3923 14.801 51.3849 14.8579 51.4311C14.9151 51.4789 14.9233 51.5625 14.8763 51.6207L14.1936 52.4519C14.1672 52.4833 14.1287 52.5012 14.0901 52.5012ZM12.7266 54.1667C12.6969 54.1667 12.667 54.1563 12.6421 54.1369C12.5849 54.0891 12.5763 54.0056 12.623 53.9488C12.85 53.6698 13.077 53.3922 13.3043 53.1146C13.3512 53.0579 13.4355 53.0489 13.4926 53.0952C13.5498 53.1429 13.5582 53.2265 13.5114 53.2847C13.2841 53.5623 13.0572 53.8399 12.8305 54.1175C12.8039 54.1503 12.7655 54.1667 12.7266 54.1667ZM11.3698 55.8383C11.3401 55.8383 11.3106 55.8278 11.2858 55.8084C11.2283 55.7621 11.2192 55.6771 11.2656 55.6204C11.4912 55.3413 11.717 55.0622 11.9432 54.7831C11.9899 54.7264 12.0741 54.7174 12.1314 54.7637C12.1889 54.81 12.1975 54.895 12.151 54.9518C11.9249 55.2308 11.6992 55.5084 11.474 55.7875C11.4474 55.8203 11.4088 55.8383 11.3698 55.8383ZM10.0244 57.5187C9.9953 57.5187 9.9659 57.5083 9.94128 57.4889C9.88337 57.4426 9.87367 57.359 9.91963 57.3008C10.1426 57.0203 10.3665 56.7397 10.5909 56.4591C10.6372 56.4009 10.7212 56.3919 10.779 56.4382C10.8367 56.4845 10.846 56.568 10.7999 56.6263C10.5757 56.9068 10.3521 57.1874 10.1293 57.468C10.1028 57.5008 10.0638 57.5187 10.0244 57.5187ZM8.69555 59.2126C8.6669 59.2126 8.6381 59.2022 8.61362 59.1843C8.55527 59.138 8.54452 59.0544 8.58989 58.9962C8.80972 58.7127 9.0306 58.4291 9.25237 58.147C9.29789 58.0888 9.38207 58.0784 9.44012 58.1246C9.49833 58.1694 9.50847 58.2545 9.46281 58.3112C9.24148 58.5948 9.0209 58.8768 8.80137 59.1604C8.77495 59.1947 8.73555 59.2126 8.69555 59.2126ZM7.38834 60.9229C7.36043 60.9229 7.33208 60.914 7.30805 60.8961C7.2491 60.8513 7.23731 60.7677 7.28163 60.708C7.49759 60.4215 7.71458 60.1349 7.93278 59.8499C7.97755 59.7917 8.06127 59.7797 8.12037 59.8245C8.17902 59.8693 8.19021 59.9529 8.14529 60.0126C7.9277 60.2976 7.711 60.5827 7.4955 60.8692C7.46923 60.9035 7.42908 60.9229 7.38834 60.9229ZM6.10844 62.6526C6.08112 62.6526 6.05367 62.6452 6.02994 62.6273C5.97009 62.584 5.95681 62.5004 6.00024 62.4407C6.21126 62.1497 6.42364 61.8602 6.63736 61.5721C6.68123 61.5124 6.7651 61.5005 6.82435 61.5438C6.88375 61.5871 6.89629 61.6721 6.85241 61.7303C6.63929 62.0184 6.42737 62.3079 6.21679 62.5974C6.19067 62.6347 6.14978 62.6526 6.10844 62.6526ZM4.86108 64.4077C4.83466 64.4077 4.80809 64.4003 4.78481 64.3839C4.72407 64.3421 4.70915 64.2585 4.75138 64.1973C4.95644 63.9033 5.16314 63.6093 5.37133 63.3153C5.41417 63.2556 5.49759 63.2421 5.55803 63.2839C5.61818 63.3272 5.6322 63.4108 5.58952 63.4705C5.38178 63.763 5.17552 64.0555 4.97106 64.3495C4.94494 64.3883 4.90331 64.4077 4.86108 64.4077ZM3.65192 66.1882C3.62654 66.1882 3.60088 66.1807 3.57819 66.1658C3.51655 66.1255 3.49969 66.0419 3.54043 65.9807C3.73877 65.6808 3.93891 65.3823 4.14083 65.0853C4.18232 65.0241 4.26545 65.0092 4.32649 65.0495C4.38768 65.0913 4.40364 65.1748 4.362 65.236C4.16083 65.5315 3.96129 65.83 3.76369 66.1285C3.73788 66.1673 3.69535 66.1882 3.65192 66.1882ZM2.48708 67.9985C2.46275 67.9985 2.43828 67.9925 2.41634 67.9776C2.35366 67.9388 2.33455 67.8567 2.37365 67.794C2.56423 67.4896 2.75676 67.1851 2.95122 66.8837C2.99137 66.821 3.07405 66.8031 3.13613 66.8434C3.19837 66.8837 3.21613 66.9657 3.17628 67.0284C2.98241 67.3299 2.79049 67.6314 2.60066 67.9358C2.57528 67.9761 2.5317 67.9985 2.48708 67.9985ZM1.3803 69.8446C1.35807 69.8446 1.33553 69.8387 1.31478 69.8267C1.25031 69.7909 1.22778 69.7088 1.26404 69.6446C1.43209 69.3476 1.61043 69.0417 1.80922 68.7119C1.84713 68.6492 1.92951 68.6283 1.99279 68.6671C2.05606 68.7044 2.07651 68.7865 2.03831 68.8507C1.84101 69.179 1.66386 69.4805 1.49701 69.776C1.47238 69.8207 1.42702 69.8446 1.3803 69.8446ZM0.395749 71.7579C0.377243 71.7579 0.358286 71.7549 0.340227 71.746C0.273068 71.7161 0.243374 71.6355 0.274118 71.5684C0.418136 71.2535 0.577823 70.9266 0.749004 70.5953C0.782732 70.5296 0.863623 70.5043 0.929289 70.5386C0.994807 70.5714 1.02062 70.6535 0.986596 70.7192C0.817505 71.046 0.65976 71.3699 0.517533 71.6803C0.494997 71.7296 0.446491 71.7579 0.395749 71.7579ZM-0.375086 73.7667L-0.414036 73.7607C-0.484926 73.7398 -0.524777 73.6652 -0.503136 73.5936C-0.401503 73.2608 -0.282112 72.9145 -0.147943 72.5683C-0.121378 72.4982 -0.0439164 72.4638 0.0250335 72.4907C0.0939834 72.5176 0.128307 72.5952 0.101593 72.6638C-0.0301878 73.0056 -0.147494 73.3444 -0.247188 73.6712C-0.264649 73.7294 -0.317777 73.7667 -0.375086 73.7667ZM-0.812071 75.871H-0.826244C-0.899671 75.8621 -0.952951 75.7964 -0.945339 75.7233C-0.908626 75.3726 -0.851322 75.0099 -0.775059 74.6472C-0.759836 74.5756 -0.688795 74.5293 -0.616562 74.5443C-0.544329 74.5592 -0.497916 74.6293 -0.513288 74.7025C-0.58761 75.0562 -0.643421 75.4084 -0.679239 75.7516C-0.686403 75.8203 -0.744464 75.871 -0.812071 75.871ZM-0.780874 78.0186C-0.846541 78.0186 -0.904001 77.9694 -0.913254 77.9022C-0.91982 77.8559 -0.925943 77.8097 -0.931763 77.7634C-0.970417 77.4515 -0.992051 77.1321 -0.99608 76.8127C-0.997125 76.7396 -0.938027 76.6784 -0.864152 76.6784C-0.788188 76.6829 -0.729389 76.7366 -0.728494 76.8098C-0.724464 77.1187 -0.703418 77.4291 -0.666108 77.7306C-0.660437 77.7754 -0.654471 77.8201 -0.648203 77.8664C-0.638055 77.9395 -0.68909 78.0067 -0.762219 78.0171L-0.780874 78.0186ZM-0.241066 80.0961C-0.295092 80.0961 -0.345833 80.0632 -0.36613 80.0095C-0.496716 79.6648 -0.608499 79.317 -0.698492 78.9723C-0.717297 78.9006 -0.674466 78.8275 -0.602979 78.8096C-0.531492 78.7902 -0.458218 78.8335 -0.439563 78.9051C-0.351958 79.2394 -0.243158 79.5797 -0.116003 79.914C-0.0897366 79.9841 -0.124513 80.0617 -0.193612 80.0871C-0.209283 80.0931 -0.225247 80.0961 -0.241066 80.0961ZM0.700952 82.0288C0.655284 82.0288 0.610806 82.0049 0.585734 81.9631C0.396793 81.6452 0.222326 81.3228 0.0675616 81.0079C0.0350269 80.9408 0.0624927 80.8617 0.128905 80.8289C0.195467 80.796 0.275457 80.8229 0.307843 80.89C0.459473 81.199 0.630509 81.5139 0.815718 81.8258C0.853476 81.89 0.83273 81.972 0.769153 82.0094C0.747662 82.0228 0.724084 82.0288 0.700952 82.0288ZM1.91966 83.8003C1.87981 83.8003 1.84041 83.7823 1.81399 83.748C1.5867 83.457 1.37074 83.163 1.17255 82.8765C1.13061 82.8153 1.14584 82.7317 1.20658 82.6899C1.26732 82.6481 1.35075 82.663 1.39268 82.7242C1.58819 83.0063 1.80087 83.2958 2.02518 83.5839C2.07055 83.6421 2.06025 83.7271 2.00189 83.7719C1.97742 83.7913 1.94846 83.8003 1.91966 83.8003ZM3.31836 85.436C3.28254 85.436 3.24657 85.421 3.2203 85.3927C2.96749 85.1196 2.72497 84.8494 2.49976 84.5868C2.45156 84.5301 2.45813 84.4465 2.51424 84.3972C2.57021 84.3495 2.65468 84.3554 2.70273 84.4122C2.92585 84.6718 3.16598 84.9405 3.41656 85.2106C3.46671 85.2643 3.46357 85.3494 3.4094 85.4001C3.38358 85.424 3.35104 85.436 3.31836 85.436ZM4.83078 86.9687C4.7972 86.9687 4.76392 86.9567 4.73795 86.9314C4.46782 86.6717 4.20904 86.4165 3.96846 86.1732C3.91652 86.121 3.91712 86.0359 3.96965 85.9837C4.02219 85.9314 4.10695 85.9329 4.15889 85.9852C4.39782 86.2269 4.65497 86.4807 4.92361 86.7388C4.97674 86.7911 4.97838 86.8747 4.92704 86.9284C4.90077 86.9552 4.86585 86.9687 4.83078 86.9687ZM6.40737 88.4357C6.37529 88.4357 6.34305 88.4253 6.31753 88.4014C6.05382 88.1626 5.78832 87.9193 5.52251 87.6731C5.46834 87.6223 5.4652 87.5373 5.5155 87.4836C5.56579 87.4298 5.65057 87.4268 5.70459 87.4761C5.9695 87.7223 6.2344 87.9641 6.49722 88.2029C6.55199 88.2522 6.55617 88.3372 6.50647 88.3924C6.48006 88.4208 6.44379 88.4357 6.40737 88.4357ZM8.01949 89.8625C7.98889 89.8625 7.95814 89.852 7.93292 89.8311C7.65518 89.5953 7.38118 89.3566 7.11836 89.1222C7.06329 89.073 7.05837 88.9894 7.10747 88.9342C7.15672 88.879 7.24119 88.873 7.29656 88.9223C7.55773 89.1551 7.8301 89.3924 8.10604 89.6267C8.16246 89.6744 8.16932 89.7595 8.12157 89.8162C8.095 89.8461 8.05739 89.8625 8.01949 89.8625ZM9.691 91.2191C9.66219 91.2191 9.63339 91.2101 9.60892 91.1907C9.32341 90.9684 9.03896 90.743 8.76376 90.5206C8.70645 90.4729 8.69764 90.3893 8.74405 90.3311C8.79062 90.2744 8.87494 90.2654 8.9324 90.3117C9.20611 90.5341 9.48892 90.7594 9.77308 90.9788C9.83144 91.0251 9.84203 91.1087 9.79666 91.1669C9.77025 91.2012 9.73085 91.2191 9.691 91.2191ZM11.4137 92.51C11.3865 92.51 11.3591 92.5011 11.3355 92.4832C11.044 92.2727 10.7543 92.0608 10.4666 91.8444C10.4075 91.8011 10.3954 91.7161 10.4397 91.6579C10.4839 91.5982 10.5678 91.5862 10.627 91.631C10.9136 91.8459 11.2021 92.0578 11.4922 92.2668C11.5522 92.31 11.5656 92.3936 11.5222 92.4533C11.4961 92.4906 11.4552 92.51 11.4137 92.51ZM13.1752 93.7472C13.1491 93.7472 13.123 93.7383 13.0997 93.7234C12.8031 93.5204 12.5076 93.3159 12.2136 93.11C12.1532 93.0667 12.1384 92.9831 12.181 92.9234C12.2233 92.8622 12.3069 92.8473 12.3674 92.8906C12.6605 93.0966 12.9551 93.2995 13.2509 93.5025C13.3119 93.5443 13.3274 93.6279 13.2856 93.6876C13.2598 93.7264 13.2179 93.7472 13.1752 93.7472ZM14.964 94.9442C14.9388 94.9442 14.9133 94.9367 14.8906 94.9218C14.5905 94.7248 14.2911 94.5263 13.9926 94.3263C13.9311 94.286 13.9147 94.2024 13.9557 94.1413C13.9968 94.0801 14.0799 94.0636 14.1414 94.1039C14.4391 94.3039 14.7381 94.5024 15.0376 94.6979C15.0992 94.7397 15.1165 94.8218 15.0758 94.8845C15.0501 94.9233 15.0074 94.9442 14.964 94.9442ZM16.7695 96.1157C16.7448 96.1157 16.7197 96.1097 16.6973 96.0948C16.3954 95.9008 16.0938 95.7068 15.7926 95.5113C15.7307 95.471 15.7129 95.3874 15.7532 95.3262C15.7934 95.2635 15.8762 95.2456 15.9381 95.2859C16.2391 95.4814 16.5405 95.6755 16.8421 95.8695C16.9043 95.9098 16.9222 95.9933 16.8822 96.0545C16.8567 96.0948 16.8136 96.1157 16.7695 96.1157Z" fill="#D75252"/>
<path d="M36.3589 24.5763C36.2331 23.8241 35.733 23.2823 35.2417 23.3644C34.7504 23.4465 34.454 24.1226 34.5796 24.8733C34.7053 25.6254 35.2056 26.1672 35.6969 26.0851C36.1882 26.003 36.4846 25.327 36.3589 24.5763Z" fill="#1F3C49"/>
<path d="M43.1605 23.9109C43.0381 23.1781 42.5501 22.6483 42.0709 22.7289C41.5917 22.8095 41.3026 23.4676 41.4251 24.2019C41.5478 24.9347 42.0358 25.463 42.515 25.3839C42.9942 25.3033 43.2829 24.6437 43.1605 23.9109Z" fill="#1F3C49"/>
<path d="M33.6429 21.6707C33.5642 21.6707 33.4863 21.6363 33.4335 21.5707C33.3412 21.4557 33.3602 21.2871 33.4758 21.1946C34.2 20.617 35.2562 20.4812 36.1033 20.8558C36.2385 20.9155 36.2995 21.0737 36.2397 21.208C36.1798 21.3438 36.0218 21.405 35.8866 21.3453C35.2166 21.0483 34.382 21.1558 33.8094 21.6125C33.7602 21.6528 33.7012 21.6707 33.6429 21.6707Z" fill="#1F3C49"/>
<path d="M40.6442 21.0454C40.5624 21.0454 40.4815 21.0081 40.4291 20.9365C40.3411 20.8186 40.366 20.6499 40.4847 20.5633C41.17 20.0544 42.1478 19.9604 42.9178 20.3261C43.0512 20.3902 43.1077 20.5499 43.0442 20.6827C42.9806 20.8171 42.8209 20.8738 42.6875 20.8096C42.0911 20.526 41.334 20.5992 40.8034 20.9932C40.7555 21.0275 40.6997 21.0454 40.6442 21.0454Z" fill="#1F3C49"/>
<path d="M39.019 26.3824C39.1962 26.1854 39.4974 26.1003 39.7823 26.1496C40.0724 26.1973 40.3406 26.4018 40.4762 26.666C40.6189 26.9271 40.6379 27.2644 40.5131 27.5301C40.3946 27.7942 40.1542 27.9957 39.8912 28.03C40.0739 27.845 40.1758 27.636 40.2137 27.4301C40.2516 27.2256 40.2136 27.0301 40.1215 26.854C40.0281 26.6779 39.8875 26.5361 39.6966 26.4525C39.505 26.369 39.275 26.3361 39.019 26.3824Z" fill="#1F3C49"/>
<path d="M43.0297 29.0058L43.0328 29.0237C43.1705 29.852 42.9828 30.6609 42.5616 31.325C42.0609 32.113 41.2316 32.6966 40.226 32.8637C39.1423 33.0443 38.0951 32.7025 37.354 32.025C36.8249 31.5444 36.4506 30.8922 36.3254 30.1416L36.3223 30.1236L43.0297 29.0058Z" fill="#EA5353"/>
<path d="M42.5621 31.325C42.0614 32.113 41.2321 32.6966 40.2265 32.8637C39.1429 33.0443 38.0956 32.7025 37.3545 32.025C37.6116 31.8742 37.8798 31.7414 38.1517 31.622C39.1911 31.1683 40.3402 30.9012 41.4658 31.0549C41.8406 31.1057 42.2052 31.2012 42.5621 31.325Z" fill="#FF948F"/>
<path d="M42.4053 29.1103C42.3269 29.1939 42.2453 29.273 42.1608 29.3521C40.9138 30.5147 38.4511 31.2265 37.04 30.0042L42.4053 29.1103Z" fill="white"/>
<path d="M35.6694 24.1631C35.2538 24.1631 35.253 24.8093 35.6694 24.8093C36.0852 24.8093 36.086 24.1631 35.6694 24.1631Z" fill="white"/>
<path d="M42.5035 23.445C42.0877 23.445 42.0871 24.0912 42.5035 24.0912C42.9191 24.0912 42.9199 23.445 42.5035 23.445Z" fill="white"/>
</g>
</g>
<defs>
<clipPath id="clip0_1065_49901">
<rect width="64" height="64" rx="32" fill="white"/>
</clipPath>
<clipPath id="clip1_1065_49901">
<rect width="68" height="68" fill="white" transform="translate(-2)"/>
</clipPath>
</defs>
</svg>
