<svg width="64" height="64" viewBox="0 0 64 64" fill="none" xmlns="http://www.w3.org/2000/svg">
<g clip-path="url(#clip0_1065_49889)">
<rect width="64" height="64" rx="32" fill="#FFF1F1"/>
<g clip-path="url(#clip1_1065_49889)">
<rect width="72" height="72" transform="translate(-4)" fill="#FFF1F1"/>
<path d="M58.6363 48.7884C58.6363 43.7318 54.5373 39.6327 49.4822 39.6327C48.8311 39.6327 48.1975 39.7022 47.5859 39.8302C46.8496 36.1404 47.4864 31.64 47.6681 28.9125C48.0869 22.5917 47.883 14.3699 42.3586 9.8394C39.1571 7.21467 34.2158 6.4925 30.2605 7.92101C25.7458 9.55179 23.0168 13.7141 21.7305 17.8906C20.9057 20.5674 20.6181 23.3297 19.9117 25.986C19.4124 25.7537 18.8577 25.6225 18.2714 25.6225C16.4321 25.6225 14.8945 26.8994 14.4916 28.6155C14.0934 28.5649 13.6888 28.5365 13.2764 28.5365C7.99059 28.5365 3.70506 32.8204 3.70506 38.1062C3.70506 39.2345 3.9026 40.3153 4.25972 41.3204C1.68398 42.8737 -0.0400391 45.6991 -0.0400391 48.9275C-0.0400391 53.3947 3.26261 57.0909 7.5592 57.7119C8.52155 61.8189 12.205 64.8797 16.6059 64.8797C16.7987 64.8797 16.9883 64.8718 17.1779 64.8592C18.6633 68.6074 22.3168 71.259 26.5944 71.259C30.5181 71.259 33.9203 69.0246 35.6 65.7599C37.2229 66.866 39.184 67.5139 41.2967 67.5139C46.7737 67.5139 51.2315 63.1668 51.4148 57.7372C55.5423 56.8491 58.6363 53.1814 58.6363 48.7884Z" fill="#602826"/>
<path d="M85.7061 128.655C84.7911 126.364 83.8762 124.074 82.9597 121.781C82.0827 119.583 81.3163 117.689 80.1611 115.617C79.6855 114.767 79.0392 113.654 78.5035 112.809C75.9309 108.081 73.3599 103.351 70.7889 98.6234C69.1613 95.6305 67.5352 92.6392 65.9092 89.6478C64.8394 87.682 63.768 85.7115 62.9542 83.6272C61.946 81.0452 61.3456 78.3256 60.7988 75.6076C59.68 70.0295 58.7651 64.3787 56.8736 59.0123C55.4324 54.9258 53.375 50.9627 50.2256 47.984C45.5577 43.5704 38.9872 41.8796 32.6821 42.3079C31.5933 42.3806 30.5077 42.5212 29.4348 42.7266C26.4861 43.2939 23.6354 44.3637 21.0312 45.8617C18.3354 47.4135 16.1326 49.3145 14.3864 51.9013C13.8381 52.712 13.3435 53.5574 12.8916 54.4249C11.1754 57.7181 10.0582 61.2846 8.66134 64.7247C6.18199 70.837 2.62176 76.6206 1.46663 83.1152C0.267246 89.8596 3.19697 106.202 3.17801 115.764C2.9868 119.398 1.64678 124.027 1.326 126.035C1.0779 127.617 0.812419 129.259 0.984662 130.861C1.16639 132.562 1.61834 134.205 2.04026 135.855C2.10662 136.112 2.17456 136.378 2.331 136.594C2.61228 136.983 3.26333 137.089 3.56673 136.667C4.22726 135.752 3.86856 134.39 3.64417 133.38C3.43558 132.438 3.17168 131.5 3.11954 130.534C3.06897 129.584 3.3139 128.725 3.68999 127.859C3.9602 127.236 4.20514 126.604 4.48958 125.985C4.56859 125.814 4.65234 125.639 4.74715 125.473C4.78192 125.408 4.81984 125.348 4.85934 125.286C5.05213 124.986 5.29232 124.725 5.60994 124.575C5.87858 124.449 6.32262 124.362 6.60074 124.507C6.90414 124.665 6.8915 125.06 6.91678 125.353C6.94996 125.7 6.90572 126.05 6.85357 126.392C6.78088 126.852 6.67501 127.328 6.67027 127.797C6.66869 127.925 6.675 128.053 6.69239 128.18C6.70345 128.279 6.724 128.38 6.74928 128.48C7.03372 129.537 8.46696 130.477 9.01213 129.063C9.12749 128.76 9.167 128.433 9.21282 128.112C9.42931 126.576 9.96816 125.081 9.90495 123.524C9.86387 122.532 9.71533 121.548 9.56521 120.566C9.31711 118.932 8.58707 116.549 8.41641 115.764C9.43564 106.012 9.94762 97.7306 10.5086 88.0155C10.5686 86.9883 10.6303 85.9486 10.9226 84.9609C11.2987 83.6983 12.0351 82.578 12.7557 81.4766C17.1929 74.6896 21.4105 67.7603 25.4021 60.7015C26.799 58.2332 28.207 55.5958 28.1422 52.7594C31.8683 55.4678 37.0072 56.1015 41.2816 54.3807C46.6006 66.3049 49.0847 79.4491 55.4624 90.8409C60.5776 99.9745 68.1594 107.169 74.3396 115.617C74.564 115.924 74.4645 116.842 74.485 117.232C74.553 118.496 74.4471 119.757 74.602 121.018C74.76 122.292 75.0539 123.548 75.4821 124.757C75.6765 125.305 76.2043 125.808 76.7637 125.316C76.8142 125.286 76.8616 125.248 76.9075 125.198C77.4605 124.61 77.4637 123.804 77.4289 123.047C77.3894 122.186 77.4337 121.367 77.8098 120.576C77.9125 120.362 78.0847 120.162 78.317 120.116C78.4577 120.087 78.6046 120.122 78.7421 120.168C79.2035 120.324 79.5512 120.61 79.8325 120.964C79.981 121.149 80.1122 121.353 80.2291 121.567C80.3429 121.769 80.444 121.979 80.5419 122.189C80.6652 122.451 80.7806 122.714 80.9007 122.963C80.926 123.016 80.9496 123.066 80.9749 123.114C80.9971 123.159 81.0208 123.205 81.0445 123.251C81.1914 123.543 81.3384 123.836 81.4869 124.13C81.7556 124.662 82.0242 125.195 82.2928 125.729C82.5267 126.193 82.7622 126.66 82.996 127.124C83.4069 127.936 83.8462 128.848 84.581 129.423C85.1309 129.855 86.0079 129.412 85.7061 128.655Z" fill="#FFCFCA"/>
<path d="M41.0616 45.2706C40.3173 45.7273 39.4182 45.83 38.5523 45.9201C37.5077 46.0323 36.4616 46.1429 35.4124 46.1003C33.3676 46.0181 31.5124 45.2896 29.5735 44.6401C29.6067 43.4613 29.6367 42.2809 29.6715 41.1021C29.7126 39.6277 29.7521 38.1502 29.6446 36.6775C29.6114 36.2271 29.5672 35.7767 29.5087 35.3295C29.3728 34.2123 29.1721 33.1046 28.973 31.9937C28.8087 31.0835 28.6443 30.1701 28.48 29.2599C29.0046 29.7688 29.5071 30.0342 30.1503 30.3898C32.8635 31.8863 35.6336 33.28 38.4195 34.6374C39.2602 35.0451 40.1072 35.4544 41.0142 35.674L41.0395 40.8429L41.0616 45.2706Z" fill="#FFCFCA"/>
<path d="M41.0395 40.8429C37.9044 40.037 34.8862 38.787 32.1461 37.0788C31.2738 36.5352 30.3699 35.9553 29.5087 35.3295C29.3728 34.2123 29.1721 33.1046 28.973 31.9937C28.8087 31.0835 28.6443 30.1701 28.48 29.2599C29.0046 29.7688 29.5071 30.0343 30.1503 30.3898C32.8635 31.8863 35.6336 33.28 38.4195 34.6374C39.2602 35.0451 40.1072 35.4544 41.0142 35.674L41.0395 40.8429Z" fill="#F9BFBB"/>
<path d="M46.3993 21.1094C46.2397 20.3667 46.039 19.6335 45.8036 18.9193C45.0609 16.6627 43.6197 14.5626 41.6555 13.142C37.8851 10.4177 32.4792 10.8839 29.2619 14.2102C28.4987 14.9987 27.8729 15.909 27.4162 16.895C26.2927 19.3143 26.1536 21.9501 26.6435 24.5085C27.0717 26.7713 27.9946 28.9741 29.1545 30.9146C29.8687 32.1077 30.7046 33.2375 31.7065 34.2189C32.2801 34.7814 32.9154 35.2934 33.5964 35.7327C34.9665 36.6145 36.523 37.2023 38.1538 37.3082C39.6265 37.403 41.1419 37.0632 42.4124 36.3253C43.8441 35.4941 44.7369 34.1714 45.3927 32.7098C47.0061 29.11 47.2273 24.9588 46.3993 21.1094Z" fill="#FFCFCA"/>
<path d="M29.8569 30.1575C28.4331 30.8148 26.6601 30.6568 25.3864 29.7387C24.3103 28.9644 23.6308 27.6734 23.5724 26.3523C23.5629 26.1121 23.5724 25.872 23.604 25.6318C23.6593 25.2114 23.7794 24.7974 23.9927 24.4308C24.5205 23.5301 25.6235 23.0228 26.6617 23.1398C27.7014 23.2583 28.6369 23.9631 29.1063 24.897L29.3954 26.9196L29.8569 30.1575Z" fill="#FFCFCA"/>
<path d="M42.2186 11.8332C40.9955 15.3033 38.4435 18.2378 35.3178 20.183C32.1937 22.1283 28.5261 23.1175 24.8505 23.3087C24.5898 23.3229 25.3483 18.4701 25.4873 18.0039C26.2332 15.5277 27.8545 13.3265 29.9941 11.8727C30.3149 11.6546 30.6467 11.4539 30.988 11.2722C33.1039 10.1455 35.5865 9.73941 37.9552 10.0839C38.9302 10.2245 39.8831 10.4758 40.7537 10.934C40.9228 11.0225 42.2929 11.623 42.2186 11.8332Z" fill="#602826"/>
<path d="M47.6074 82.9696C48.2964 77.4815 48.8179 72.0045 49.9288 66.5796C50.9148 61.7663 52.0431 56.6717 50.2116 51.9247C49.4405 51.1093 48.5097 50.4377 47.549 49.8452C39.3319 44.7774 29.0163 45.2957 19.9079 48.4941C19.4212 56.0301 20.401 63.6009 21.033 71.1464C21.2227 72.2289 21.3586 73.3208 21.485 74.4127C22.2814 81.2408 22.7096 88.1005 23.1711 94.957C23.3875 94.927 23.6088 94.908 23.8347 94.9001C25.3755 94.848 26.9083 95.1024 28.4284 95.3584C32.341 96.0126 36.2521 96.6668 40.1631 97.321C41.6785 97.5754 43.2018 97.8314 44.6935 98.1933C45.569 94.2586 46.5013 90.3349 47.4305 86.4128C47.4052 85.2767 47.4605 84.1326 47.6074 82.9696Z" fill="#FFCFCA"/>
<path d="M60.4573 67.7695C59.2058 69.3403 57.7141 70.3816 56.0028 71.0864C55.5239 71.2823 55.0909 71.4467 54.6817 71.5857C52.975 72.1657 51.7125 72.3063 49.5997 72.5418L47.9042 89.5227C45.7377 90.1722 43.4764 90.4456 41.2215 90.5246C37.7244 90.6447 34.1863 90.4313 30.702 90.1453C27.4894 89.883 24.22 89.3631 21.3187 87.884C21.3945 83.7739 21.3076 79.6622 21.0674 75.5568C20.9695 73.8423 20.8446 72.1293 20.6929 70.418C20.6898 70.3974 20.6882 70.3769 20.6866 70.3563C20.2647 70.9616 19.8333 71.423 19.4825 72.0709C15.3218 69.3166 11.6273 66.0424 8.35938 62.2909C8.43048 62.1218 8.50001 61.9512 8.56954 61.7774C8.97249 60.7787 9.46237 59.8495 10.0044 58.9172C11.1611 56.9182 12.3399 54.9192 13.5899 52.9756C13.8222 52.6121 14.0608 52.255 14.3073 51.901C15.9586 49.5197 17.9307 47.35 20.3153 45.6876C21.5905 44.798 22.9574 44.0616 24.4048 43.4943C25.1539 43.2004 29.3288 42.0548 29.3714 42.1259C29.8803 42.9665 30.3954 43.2968 31.3325 43.586C33.5874 44.2828 36.0036 44.3445 38.3439 44.0363C39.6444 43.8641 41.4506 42.709 41.4506 42.709C41.4506 42.709 45.5259 43.872 47.6087 45.1298C48.5157 45.675 49.3659 46.3134 50.1781 46.9913C52.6495 49.0519 54.5237 51.6024 55.8779 54.5131C57.2685 57.4997 58.1534 60.6807 59.1869 63.8C59.623 65.1179 60.0528 66.4406 60.4573 67.7695Z" fill="#FF6B6B"/>
<path d="M50.5148 64.4164C50.5574 63.6532 50.5906 62.8852 50.5353 62.122C50.4721 61.2181 50.2841 60.3316 50.0723 59.4593C49.5998 57.5172 49.0073 55.6131 48.2993 53.769C48.4558 54.0708 48.6296 54.3663 48.8034 54.657C50.0502 56.7729 51.2338 59.02 51.6114 61.531C51.9006 63.443 51.7094 65.4388 52.1598 67.3098C52.5548 68.9406 53.4319 70.4007 54.5728 71.4847C54.6091 71.5179 54.6454 71.5527 54.6818 71.5858C52.9752 72.1658 51.7126 72.3064 49.5998 72.5419C50.0344 69.6754 50.3504 67.3177 50.5148 64.4164Z" fill="#EF5D30"/>
<path d="M35.9119 20.5356C36.1142 20.5151 36.3196 20.5308 36.5219 20.5466C36.8821 20.5767 37.2424 20.6051 37.6011 20.6351C37.7212 20.6446 37.8698 20.6383 37.9219 20.5308C37.9472 20.4771 37.9393 20.4123 37.9172 20.3586C37.8287 20.1516 37.5743 20.0805 37.3515 20.052C36.7968 19.9825 36.2121 20.0204 35.6938 20.2401C35.5927 20.2828 35.0128 20.5467 35.0538 20.6826C35.0902 20.8027 35.795 20.5467 35.9119 20.5356Z" fill="#211A17"/>
<path d="M43.7581 20.2906C43.5543 20.2858 43.352 20.3159 43.1497 20.3475C42.7942 20.4028 42.4371 20.4596 42.0799 20.515C41.9614 20.5323 41.8129 20.5371 41.7528 20.4344C41.7228 20.3822 41.726 20.3174 41.7449 20.2621C41.8176 20.0488 42.0673 19.9587 42.2869 19.9145C42.8353 19.8039 43.4215 19.8007 43.9541 19.9793C44.0584 20.0156 44.6557 20.2368 44.6257 20.3743C44.5972 20.4976 43.8751 20.2937 43.7581 20.2906Z" fill="#211A17"/>
<path d="M43.1192 29.7512C42.7147 30.8021 41.9735 31.5242 41.0728 31.6001C40.2069 31.6712 39.3852 31.1229 38.8163 30.2158C38.426 29.5932 38.1542 28.8 38.0688 27.9214L38.2379 27.9071L43.2488 27.4931L43.4352 27.4773C43.4921 28.3101 43.3704 29.0955 43.1192 29.7512Z" fill="#CE7872"/>
<path d="M43.2491 27.4932C42.6913 28.337 41.8412 28.9027 40.8488 28.9865C39.858 29.0687 38.9257 28.6468 38.2383 27.9072L43.2491 27.4932Z" fill="white"/>
<path d="M43.1188 29.7512C42.7143 30.8021 41.9732 31.5242 41.0725 31.6001C40.2065 31.6712 39.3848 31.1229 38.8159 30.2158C39.0593 30.0546 39.3153 29.9124 39.5823 29.7939C40.355 29.451 41.2226 29.3009 42.0554 29.4336C42.4267 29.4921 42.7791 29.6043 43.1188 29.7512Z" fill="#EA8C8B"/>
<path d="M37.8967 23.7797C37.9173 24.4624 37.5428 25.0281 37.0608 25.0423C36.5788 25.0566 36.1727 24.5145 36.1522 23.8319C36.1316 23.1492 36.5046 22.5835 36.9865 22.5693C37.4685 22.5551 37.8762 23.0971 37.8967 23.7797Z" fill="#211A17"/>
<path d="M37.2644 23.3832C36.9847 23.3911 36.9974 23.8288 37.2786 23.8194C37.5583 23.8115 37.5457 23.3753 37.2644 23.3832Z" fill="white"/>
<path d="M42.5521 23.6389C42.5726 24.3215 42.9803 24.8636 43.4623 24.8493C43.9443 24.8351 44.3172 24.2694 44.2966 23.5867C44.2761 22.9041 43.87 22.3621 43.388 22.3763C42.906 22.3905 42.5315 22.9562 42.5521 23.6389Z" fill="#211A17"/>
<path d="M43.6833 23.0609C43.402 23.0688 43.4146 23.5049 43.6959 23.497C43.9772 23.4891 43.9645 23.053 43.6833 23.0609Z" fill="white"/>
<path d="M41.0605 25.175C40.776 24.9537 40.3336 24.96 40.0649 25.2018L40.844 26.5466C41.0605 26.5323 41.2375 26.3522 41.318 26.1499C41.4508 25.8149 41.3449 25.3962 41.0605 25.175Z" fill="#CE7872"/>
<path d="M36.6417 27.2674C36.7144 28.3087 35.7331 29.2268 34.4499 29.3153C33.1684 29.4038 32.0686 28.6311 31.9974 27.5897C31.9248 26.5468 32.9061 25.6302 34.1892 25.5402C35.4708 25.4517 36.5706 26.2244 36.6417 27.2674Z" fill="#F9BFBB"/>
<path d="M46.5371 26.1739C46.5782 26.7586 46.0283 27.2737 45.3077 27.3227C44.5871 27.3733 43.9709 26.9387 43.9314 26.354C43.8903 25.7694 44.4402 25.2542 45.1608 25.2052C45.8813 25.1547 46.4976 25.5892 46.5371 26.1739Z" fill="#F9BFBB"/>
</g>
</g>
<defs>
<clipPath id="clip0_1065_49889">
<rect width="64" height="64" rx="32" fill="white"/>
</clipPath>
<clipPath id="clip1_1065_49889">
<rect width="72" height="72" fill="white" transform="translate(-4)"/>
</clipPath>
</defs>
</svg>
