<svg width="64" height="64" viewBox="0 0 64 64" fill="none" xmlns="http://www.w3.org/2000/svg">
<g clip-path="url(#clip0_1065_49898)">
<rect width="64" height="64" rx="32" fill="#FFF1F1"/>
<g clip-path="url(#clip1_1065_49898)">
<rect width="75" height="75" transform="translate(-5)" fill="#FFF1F1"/>
<path d="M58.1372 51.4012L58.1306 51.3848C56.9751 48.333 54.9208 45.5199 52.6344 43.2203C50.1291 40.7002 48.0337 38.5126 47.2156 34.9094C46.6082 32.2296 46.6247 29.4544 46.5802 26.7088C46.5095 22.2677 46.0947 17.4909 43.5729 13.7033C41.3623 10.3783 37.7804 8.12483 33.7443 8.06393C28.5592 7.98656 23.631 11.1141 21.0138 15.5222C18.2484 20.1772 17.9653 25.6586 15.962 30.6033C14.8443 33.3638 12.9728 35.8279 11.3991 38.3562C9.08972 42.0599 6.3145 45.7092 5.24621 49.9971C2.79853 59.8833 8.15478 70.5037 17.6097 74.2616C18.5002 74.6155 19.4171 74.9036 20.3487 75.1241C20.7751 75.2245 21.2047 75.3118 21.6376 75.3842C28.1675 76.4838 34.8093 75.6394 41.1532 73.888C44.893 72.8559 48.5901 71.4732 51.7488 69.2165C57.3421 65.2248 60.6853 58.1517 58.1372 51.4012Z" fill="#603813"/>
<path d="M102.446 79.3894C101.384 79.1524 100.314 78.9499 99.244 78.7507C98.0128 78.5219 96.7782 78.3211 95.5536 78.0611C95.4696 78.0429 95.2671 77.9787 95.2737 77.8652C95.2754 77.8207 95.3149 77.7862 95.3577 77.773C95.4795 77.7368 95.6375 77.7944 95.7544 77.8257C96.6136 78.0578 97.458 78.2075 98.3354 78.3458C99.0992 78.4676 99.858 78.6059 100.615 78.759C101.148 78.8676 101.702 79.0487 102.241 79.0915C102.622 79.1211 103.032 79.0191 103.167 78.6158C103.562 77.4339 101.191 77.1244 100.492 76.9747C98.3584 76.5171 96.2432 75.9673 94.105 75.5377C93.9141 75.4998 93.7166 75.4866 93.5437 75.3879C93.5108 75.3681 93.4746 75.3418 93.4647 75.3039C93.4516 75.2512 93.4911 75.2019 93.5306 75.164C93.8203 74.8908 94.2367 74.7706 94.5956 74.6142C95.0943 74.3953 95.6507 74.15 96.0622 73.7813C96.3651 73.5048 96.5824 73.0406 96.3387 72.6603C96.1363 72.3427 95.7429 72.1715 95.3758 72.155C94.91 72.132 94.4589 72.3064 94.0211 72.4727C93.045 72.8447 92.0606 73.1937 91.0664 73.5179C90.1496 73.8175 89.1669 73.8389 88.2566 74.1632C87.6542 74.3788 87.0764 74.6554 86.5233 74.9813C86.2912 74.8973 72.3014 68.1123 65.9757 66.8564L55.031 51.9118C54.5553 52.4468 54.0681 52.9719 53.5825 53.4986C52.2492 54.9406 50.9554 56.4187 49.6155 57.8541C49.1941 58.3051 48.7678 58.7512 48.3398 59.1956C48.1752 59.4178 48.0123 59.6384 47.8477 59.8606C51.7472 64.6819 58.2935 72.7739 60.2638 75.1722C60.3889 75.485 60.5766 75.7236 60.84 75.8619C67.6036 79.3976 84.576 79.8322 84.8345 79.9524C85.0188 80.0396 85.1571 80.303 85.2937 80.4577C85.4616 80.6503 85.641 80.833 85.827 81.0091C86.2007 81.3614 86.6007 81.684 87.0237 81.977C87.8253 82.5301 88.7043 82.9646 89.6311 83.2675C90.194 83.4519 90.78 83.5095 91.3643 83.5819C92.6022 83.735 93.8334 83.9276 95.0713 84.0691C96.3075 84.2107 97.5502 84.1942 98.7897 84.1465C99.2424 84.1284 99.8399 84.1087 100.1 83.6659C100.266 83.3794 100.197 83.0387 99.8959 82.8823C99.5979 82.726 99.216 82.7539 98.8885 82.7293C98.5165 82.6996 98.1445 82.6716 97.7708 82.6453C97.1371 82.5992 96.5017 82.5581 95.868 82.5186C95.5651 82.4988 95.2178 82.5432 94.933 82.4247C94.7618 82.3556 94.9462 82.1976 95.0449 82.1729C95.2458 82.1235 95.4877 82.1943 95.6902 82.2173C95.9404 82.2453 96.1922 82.2717 96.4424 82.2963C96.9445 82.3441 97.4482 82.3869 97.9519 82.4231C98.9329 82.4972 99.9156 82.5498 100.898 82.5976C101.165 82.6107 101.433 82.6223 101.695 82.5679C102.176 82.4692 102.778 81.9161 102.383 81.3976C102.182 81.1342 101.805 81.103 101.474 81.0914C100.377 81.0717 99.2819 80.9943 98.1905 80.8774C97.6441 80.8198 97.0992 80.7507 96.5544 80.675C96.2828 80.6371 96.0128 80.5976 95.7412 80.5565C95.6359 80.54 95.2096 80.5417 95.1766 80.4116C95.1305 80.2289 95.4861 80.2569 95.575 80.2668C96.3338 80.3606 97.0943 80.4528 97.8531 80.5449C99.1189 80.6997 100.385 80.8528 101.651 81.0075C102.258 81.0816 103.486 81.3927 103.754 80.596C104.032 79.768 103.043 79.5228 102.446 79.3894Z" fill="#FFCFCA"/>
<path d="M61.4392 59.1408C58.5619 62.4642 56.1586 64.8395 53.2204 68.1069C52.8731 67.7266 52.5258 67.3349 52.1933 66.9513C50.9785 65.5506 49.9728 64.2732 49.9349 64.2238L49.9332 64.2222C49.9332 64.2222 49.0361 84.8439 48.8864 85.5913C48.6213 86.918 51.4279 97.2469 50.8303 97.8445C43.2009 105.472 20.7932 103.374 16.6089 95.1548C16.125 94.2034 23.6162 83.4991 23.6162 83.4991C23.6162 83.4991 20.5364 73.636 19.0089 67.911C18.3899 65.595 17.9554 63.9555 17.9537 63.9226C17.7908 64.4148 17.506 65.7152 17.0583 67.2098C15.5637 66.7621 5.69229 64.6995 4.65527 64.2222C8.14161 53.1689 12.5893 47.5938 14.6271 45.9625C16.0674 44.8103 25.5964 41.2219 36.2151 42.0202C42.1902 42.468 49.3012 45.1576 50.5094 46.2522C53.5365 48.9896 58.2919 55.0422 61.4392 59.1408Z" fill="#FF6B6B"/>
<path d="M38.8275 45.14C38.1987 47.1547 36.0786 47.6271 34.2054 47.6074C32.1396 47.5843 29.4072 47.107 28.6714 44.8453C28.1644 43.2849 28.5298 41.494 28.5364 39.8858C28.543 38.8175 28.5084 37.7475 28.4212 36.6809C28.3685 36.0274 28.2977 35.3739 28.2039 34.7237C28.1265 34.2003 28.041 33.6752 27.9438 33.1534C27.878 32.8028 27.8072 32.4522 27.7315 32.1049C27.6788 31.8612 27.3858 31.2045 27.6689 31.0366C27.9307 30.8802 28.4673 31.3427 28.6846 31.4744C31.8927 33.397 35.2441 35.0859 38.6991 36.5179C38.8358 36.5739 38.9773 36.6364 39.058 36.7599C39.1353 36.8751 39.137 37.0233 39.137 37.1648C39.1387 38.2858 39.1386 39.41 39.1403 40.5327C39.1419 40.9689 39.1534 41.4067 39.16 41.8429C39.1814 42.954 39.165 44.0618 38.8275 45.14Z" fill="#FFCFCA"/>
<path d="M39.16 41.8427C36.1593 41.0164 33.2754 39.7851 30.6417 38.1391C29.9109 37.6815 29.1553 37.1975 28.4212 36.6807C28.3685 36.0272 28.2977 35.3737 28.2039 34.7235C28.1265 34.2001 28.041 33.675 27.9438 33.1532C27.878 32.8026 27.8072 32.452 27.7315 32.1047C27.6788 31.861 27.3858 31.2043 27.6689 31.0364C27.9307 30.88 28.4673 31.3425 28.6846 31.4742C31.8927 33.3968 35.2441 35.0857 38.6991 36.5177C38.8358 36.5737 38.9773 36.6362 39.058 36.7597C39.1353 36.8749 39.137 37.0231 39.137 37.1646C39.1387 38.2856 39.1386 39.4098 39.1403 40.5324C39.1419 40.9686 39.1534 41.4065 39.16 41.8427Z" fill="#F9BFBB"/>
<path d="M44.1459 32.954C43.504 34.5244 42.6118 35.9515 41.1517 36.87C39.8546 37.6848 38.2959 38.0848 36.7683 38.0173C35.0778 37.9432 33.4531 37.3556 32.0161 36.4486C31.3001 35.9976 30.6302 35.4692 30.0228 34.8848C28.9611 33.8643 28.0689 32.6824 27.3019 31.4314C26.0542 29.3953 25.0468 27.0743 24.548 24.6776C24.4888 24.4011 24.4377 24.1229 24.3933 23.8448C24.0048 21.3954 24.1694 18.8934 25.162 16.5593C25.6081 15.4993 26.2352 14.5166 27.0056 13.6606C30.2516 10.0459 35.835 9.42039 39.802 12.2286C41.8694 13.6935 43.4118 15.8943 44.2348 18.2745C44.4965 19.03 44.7204 19.8053 44.9047 20.5922C44.936 20.7271 44.9673 20.8654 44.9953 21.002C45.8446 24.9608 45.6767 29.2175 44.1459 32.954Z" fill="#FFCFCA"/>
<path d="M35.9319 25.6915C35.7196 25.7014 35.4266 25.3639 35.3443 24.8602C35.3015 24.5952 35.3278 24.3319 35.4167 24.1343C35.4463 24.0652 35.5319 23.9055 35.662 23.8841L35.6817 23.8825C35.8941 23.871 36.1871 24.2084 36.2694 24.7121C36.3122 24.9771 36.2858 25.2421 36.1986 25.438C36.1673 25.5071 36.0834 25.6668 35.9517 25.6882L35.9319 25.6915Z" fill="#1F3C49"/>
<path d="M42.3111 25.0726C42.13 25.0809 41.8288 24.7813 41.7465 24.2694C41.7053 24.0142 41.73 23.7575 41.8156 23.5665C41.8765 23.4282 41.9621 23.341 42.0477 23.3278L42.0658 23.3262C42.2469 23.3163 42.5481 23.6175 42.6304 24.1278C42.6716 24.3846 42.6469 24.6414 42.5613 24.8323C42.5004 24.969 42.4148 25.0562 42.3292 25.071L42.3111 25.0726Z" fill="#1F3C49"/>
<path d="M39.1094 26.2298C39.2773 26.0471 39.5588 25.9681 39.8238 26.0175C40.0954 26.0619 40.3439 26.2561 40.4707 26.5031C40.6024 26.7467 40.6172 27.0627 40.5003 27.3113C40.3867 27.5565 40.1612 27.7425 39.9159 27.7755C40.0871 27.6026 40.1842 27.4084 40.2205 27.2158C40.2567 27.0249 40.2221 26.8421 40.1382 26.6759C40.0509 26.5129 39.9209 26.3796 39.7431 26.2989C39.5637 26.2199 39.3497 26.187 39.1094 26.2298Z" fill="#1F3C49"/>
<path d="M35.9324 22.0045C35.9126 22.0078 35.8929 22.0061 35.8731 21.9995C35.6361 21.9271 35.376 21.904 35.1209 21.932C35.0863 21.937 35.0518 21.9419 35.0172 21.9468C34.7867 21.9864 34.5629 22.067 34.3686 22.1806C34.3522 22.1905 34.3357 22.197 34.3176 22.1987C34.2929 22.202 34.2765 22.202 34.2616 22.1971C34.2221 22.1888 34.1859 22.1641 34.1645 22.1279C34.1234 22.0588 34.1481 21.9666 34.2172 21.9255C34.4411 21.7938 34.6995 21.7016 34.9662 21.6571C35.0057 21.6505 35.0468 21.644 35.0863 21.6407C35.381 21.6078 35.6838 21.6341 35.9587 21.7164C36.0377 21.7394 36.0822 21.8218 36.0575 21.9008C36.041 21.9551 35.9966 21.9946 35.9406 22.0045H35.9324Z" fill="#1F3C49"/>
<path d="M40.9596 21.1138L40.9316 21.104C40.8987 21.0891 40.874 21.0612 40.8592 21.0299C40.8279 20.9542 40.8625 20.8669 40.9365 20.834C41.3052 20.676 41.7316 20.6332 42.1349 20.7122C42.1711 20.7188 42.2073 20.727 42.2435 20.7369C42.3423 20.7616 42.4394 20.7945 42.5299 20.834C42.604 20.8669 42.6402 20.9542 42.6073 21.0282C42.5793 21.0941 42.5134 21.1286 42.4443 21.1155C42.4278 21.1122 42.4213 21.1089 42.4131 21.1056C42.3357 21.0727 42.2534 21.0447 42.1694 21.0233C42.1398 21.0151 42.1085 21.0085 42.0789 21.0036C41.7332 20.9344 41.3694 20.9706 41.0534 21.1072C41.0271 21.1188 40.9958 21.1221 40.9662 21.1155L40.9596 21.1138Z" fill="#1F3C49"/>
<path d="M35.8085 24.2117C35.499 24.1475 35.3986 24.6314 35.7097 24.6956C36.0208 24.7598 36.1212 24.2759 35.8085 24.2117Z" fill="white"/>
<path d="M42.2876 23.588C41.9764 23.5238 41.876 24.0061 42.1871 24.072C42.4983 24.1362 42.5987 23.6522 42.2876 23.588Z" fill="white"/>
<path d="M42.9794 28.6792C43.0666 29.5417 42.9119 30.3615 42.5761 31.0594C42.0395 32.1804 41.0371 32.9787 39.8256 33.1005C38.5828 33.2272 37.4174 32.6149 36.6701 31.5828C36.2289 30.9787 35.9326 30.2298 35.8487 29.4018C35.8454 29.3722 35.847 29.3426 35.8438 29.3113L42.9662 28.5887C42.9695 28.6199 42.9761 28.6496 42.9794 28.6792Z" fill="#D55454"/>
<path d="M42.6768 28.6184C41.9641 29.5452 40.8481 30.197 39.5444 30.3287C38.2424 30.4604 37.0177 30.0456 36.1338 29.2818L42.6768 28.6184Z" fill="white"/>
<path d="M42.5759 31.0594C42.0393 32.1804 41.0369 32.9787 39.8254 33.1005C38.5826 33.2272 37.4172 32.6149 36.6699 31.5828C37.8584 31.1911 39.1044 30.9705 40.3554 30.9343C41.0978 30.9129 41.8418 30.9557 42.5759 31.0594Z" fill="#F37C7C"/>
<path d="M35.5335 27.6505C35.5763 28.4603 34.7187 29.1648 33.6191 29.2241C32.5179 29.2817 31.5912 28.6726 31.5484 27.8628C31.5056 27.0513 32.3632 26.3468 33.4628 26.2892C34.564 26.2299 35.4907 26.8389 35.5335 27.6505Z" fill="#F9BFBB"/>
<path d="M44.8145 26.3319C44.8441 26.88 44.2647 27.3558 43.5207 27.3953C42.7783 27.4348 42.1528 27.0233 42.1232 26.4751C42.0935 25.927 42.6729 25.4513 43.4153 25.4118C44.1593 25.3723 44.7848 25.7838 44.8145 26.3319Z" fill="#F9BFBB"/>
<path d="M45.1286 20.9641C43.1747 20.3945 41.2011 19.1271 39.606 17.2538C39.3954 17.0086 39.1995 16.7567 39.0135 16.5032C37.8003 19.0612 35.323 21.4151 32.026 22.8109C29.366 23.9368 26.6285 24.243 24.2632 23.843C23.8698 21.3624 24.0377 18.8291 25.0418 16.4654C25.4944 15.3905 26.1282 14.3963 26.9084 13.5288C30.1956 9.86801 35.8497 9.23593 39.8677 12.0787C41.9615 13.5618 43.5236 15.7922 44.3582 18.202C44.6232 18.9657 44.8503 19.7526 45.0364 20.5476C45.0676 20.6859 45.0989 20.8241 45.1286 20.9641Z" fill="#603813"/>
<path d="M29.0177 30.4439C27.686 31.3739 25.8523 31.5368 24.3873 30.834C23.1479 30.2414 22.2212 29.0513 21.9199 27.7147C21.8656 27.4727 21.8327 27.2275 21.8212 26.9756C21.7998 26.5378 21.8491 26.0933 21.9973 25.6818C22.3709 24.6678 23.403 23.9502 24.4812 23.8794C25.561 23.8102 26.6441 24.3567 27.2926 25.2226L27.956 27.2308L29.0177 30.4439Z" fill="#FFCFCA"/>
<path d="M39.1283 42.0202C38.9654 43.4293 38.7563 44.9206 37.6403 45.9296C36.6609 46.8152 35.2914 47.1954 33.9861 47.1855C32.6116 47.174 31.2437 46.7312 30.1343 45.9313C28.8783 45.0276 28.4981 43.5083 28.4553 42.035C28.4372 41.3453 27.3492 41.3421 27.3689 42.035C27.4167 43.7404 27.8759 45.5346 29.2783 46.6292C30.6084 47.6678 32.2906 48.2423 33.9861 48.2588C35.5778 48.2736 37.2255 47.7666 38.409 46.6884C39.7456 45.472 40.0205 43.7173 40.2164 42.0202C40.2937 41.3338 39.2057 41.3404 39.1283 42.0202Z" fill="#F15A24"/>
<path d="M21.5392 54.8167C21.5128 55.0834 20.889 61.2347 20.3458 63.6248C20.0067 65.1177 19.4816 66.6667 19.0092 67.9111C18.3903 65.5951 17.9557 63.9556 17.9541 63.9227C17.9541 63.9227 19.5985 60.6355 20.4956 58.0957C21.3351 55.7138 21.5194 54.9073 21.5392 54.8167Z" fill="#DD5050"/>
<path d="M52.1937 66.9516C50.9789 65.5508 49.9732 64.2735 49.9353 64.2241L49.9336 64.2224C49.9336 64.2224 50.0834 59.2909 49.9336 57.2267C49.8365 55.877 48.7715 51.3651 48.7402 51.2236C48.816 51.3618 51.2587 55.7831 51.876 58.6933C52.4867 61.5674 52.3846 64.7755 52.1937 66.9516Z" fill="#DD5050"/>
</g>
</g>
<defs>
<clipPath id="clip0_1065_49898">
<rect width="64" height="64" rx="32" fill="white"/>
</clipPath>
<clipPath id="clip1_1065_49898">
<rect width="75" height="75" fill="white" transform="translate(-5)"/>
</clipPath>
</defs>
</svg>
