<svg width="64" height="64" viewBox="0 0 64 64" fill="none" xmlns="http://www.w3.org/2000/svg">
<g clip-path="url(#clip0_1065_49897)">
<rect width="64" height="64" rx="32" fill="#FFF1F1"/>
<g clip-path="url(#clip1_1065_49897)">
<rect width="71" height="71" transform="translate(-4)" fill="#FFF1F1"/>
<path d="M32.9162 35.5687C33.9945 35.5437 34.9699 36.1514 35.9127 36.6766C36.8554 37.2002 37.9493 37.6754 38.9825 37.3653C40.067 37.0412 40.723 35.9722 41.6159 35.2773C42.5898 34.5215 43.8365 34.2207 44.9085 33.6115C45.9183 33.0365 46.7753 32.1638 47.2304 31.0933C47.6838 30.0244 47.7056 28.7559 47.1883 27.7166C47.0511 27.4407 46.8719 27.1587 46.8984 26.8517C46.9218 26.5759 47.1073 26.3422 47.2989 26.1443C47.81 25.616 48.4427 25.1797 48.7886 24.5315C49.0582 24.0281 49.1267 23.4376 49.0893 22.8672C48.9803 21.2295 47.9658 19.6806 46.5089 18.9264C45.0519 18.1722 43.2022 18.2376 41.8029 19.0931C40.4799 19.9019 38.8142 19.6946 37.4834 20.4893C35.2582 21.8185 33.2854 23.5685 31.6991 25.6191C30.9823 26.5463 30.3356 27.5483 29.985 28.6655C29.6329 29.7828 29.597 31.031 30.0739 32.1C30.3232 32.6609 30.7019 33.1533 31.0774 33.6395C31.5854 34.3002 32.2492 35.07 32.9162 35.5687Z" fill="#323A40"/>
<path d="M26.7966 43.5236C26.2824 45.3576 30.3541 47.9038 31.5696 47.6561C33.4177 47.2774 35.9981 45.3093 37.4333 43.9941C37.4925 42.9065 37.5549 41.8204 37.6156 40.7343C37.6904 39.3755 37.7683 38.0151 37.9787 36.6703C38.0441 36.2589 38.119 35.8475 38.2078 35.4408C38.4197 34.4264 38.6877 33.4229 38.9573 32.4178C39.1786 31.5935 39.3983 30.7676 39.6196 29.9433C39.0975 30.3702 38.616 30.5759 37.9974 30.8533C35.3889 32.0204 32.7367 33.0879 30.0705 34.121C29.268 34.4311 28.4577 34.7412 27.6085 34.8752L27.1877 39.6217L26.7966 43.5236Z" fill="#FFCFCA"/>
<path d="M27.188 39.6216C30.1315 39.1229 33.0003 38.2067 35.6509 36.8463C36.4924 36.4147 37.3681 35.9503 38.208 35.4408C38.42 34.4263 38.688 33.4228 38.9576 32.4177C39.1788 31.5934 39.3986 30.7675 39.6198 29.9432C39.0978 30.3702 38.6163 30.5759 37.9977 30.8532C35.3891 32.0204 32.737 33.0878 30.0708 34.1209C29.2683 34.431 28.458 34.7411 27.6087 34.8751L27.188 39.6216Z" fill="#F9BFBB"/>
<path d="M22.1591 31.5529C22.5736 33.1797 23.253 34.7037 24.5588 35.8054C25.7182 36.7809 27.1939 37.3855 28.7007 37.5304C30.368 37.6909 32.0432 37.3356 33.5765 36.6437C34.34 36.2994 35.0709 35.8724 35.7456 35.3831C36.9268 34.5276 37.963 33.4914 38.8886 32.3694C40.3923 30.5416 41.6982 28.4036 42.5163 26.1208C43.4465 23.5418 43.7551 20.7759 43.0289 18.0755C42.7344 16.9738 42.256 15.9251 41.6171 14.9792C38.9291 10.9885 33.5391 9.60942 29.2617 11.8206C27.0334 12.9737 25.218 14.92 24.0836 17.1421C23.7252 17.8464 23.3979 18.5757 23.1096 19.3221C21.6184 23.1881 21.1369 27.5419 22.1591 31.5529Z" fill="#FFCFCA"/>
<path d="M37.7993 31.5748C38.9774 32.6687 40.7538 33.0785 42.2871 32.5908C43.5836 32.181 44.6573 31.14 45.1341 29.8701C45.2213 29.6394 45.2884 29.4041 45.3351 29.1579C45.4146 28.7325 45.427 28.29 45.3382 27.8661C45.1107 26.819 44.1976 25.9744 43.1488 25.7562C42.0986 25.5412 40.9626 25.9277 40.2084 26.6881L39.2812 28.5673L37.7993 31.5748Z" fill="#FFCFCA"/>
<path d="M31.0471 25.4381C31.2575 25.4568 31.5598 25.1327 31.658 24.6372C31.7109 24.377 31.6954 24.1136 31.6143 23.9157C31.5879 23.8471 31.5099 23.6851 31.3822 23.6602L31.3619 23.657C31.1515 23.6383 30.8492 23.9625 30.7495 24.4564C30.6981 24.7167 30.7137 24.98 30.7931 25.1779C30.8212 25.2465 30.8991 25.4101 31.0269 25.435L31.0471 25.4381Z" fill="#1F3C49"/>
<path d="M24.7581 24.5906C24.9357 24.6062 25.2443 24.3195 25.3455 23.8177C25.3954 23.5653 25.3798 23.3098 25.3035 23.1181C25.2474 22.9794 25.1663 22.8906 25.0822 22.8734L25.0635 22.8703C24.8859 22.8547 24.5773 23.1414 24.476 23.6432C24.4262 23.8972 24.4418 24.1512 24.5181 24.3429C24.5742 24.4816 24.6552 24.5704 24.7394 24.5875L24.7581 24.5906Z" fill="#1F3C49"/>
<path d="M27.8828 25.8542C27.7255 25.6672 27.4481 25.5784 27.1832 25.6174C26.9136 25.6516 26.6596 25.834 26.5271 26.0739C26.3869 26.3108 26.3604 26.6224 26.4679 26.8733C26.5692 27.1195 26.7858 27.3128 27.0289 27.3533C26.8653 27.1772 26.7765 26.9808 26.7469 26.7892C26.7188 26.5991 26.7593 26.4183 26.8497 26.2578C26.9416 26.0989 27.0756 25.9711 27.2548 25.8994C27.434 25.8262 27.6475 25.8028 27.8828 25.8542Z" fill="#1F3C49"/>
<path d="M32.799 21.736C32.838 21.7345 32.8785 21.7189 32.9065 21.6877C32.961 21.6269 32.9564 21.535 32.8972 21.4805C32.4577 21.08 31.8422 20.8743 31.2516 20.9242C31.1706 20.9319 31.1114 21.0021 31.1176 21.0831C31.1254 21.1641 31.1955 21.2234 31.2766 21.2171C31.7892 21.1704 32.3191 21.3511 32.6993 21.6971C32.7273 21.7236 32.7632 21.736 32.799 21.736Z" fill="#1F3C49"/>
<path d="M26.4663 20.7041C26.499 20.6932 26.5286 20.6714 26.5473 20.6403C26.5894 20.5717 26.5676 20.4813 26.499 20.4392C26.0393 20.1588 25.4566 20.0746 24.9377 20.2133C24.8613 20.2351 24.813 20.3146 24.8332 20.3925C24.8535 20.472 24.9345 20.5172 25.0124 20.4969C25.4565 20.3785 25.9536 20.4502 26.3463 20.6886C26.3837 20.7119 26.4274 20.7166 26.4663 20.7041Z" fill="#1F3C49"/>
<path d="M31.2238 23.9798C31.5339 23.9268 31.6149 24.4083 31.3049 24.4613C30.9948 24.5127 30.9137 24.0312 31.2238 23.9798Z" fill="white"/>
<path d="M24.8346 23.1228C25.1447 23.0698 25.2273 23.5513 24.9157 23.6043C24.6071 23.6557 24.5245 23.1742 24.8346 23.1228Z" fill="white"/>
<path d="M24.481 28.2445C24.4592 28.8819 24.6135 29.4771 24.894 29.9726C25.3428 30.7705 26.1172 31.3081 27.0132 31.3408C27.9326 31.372 28.76 30.8655 29.2587 30.0708C29.5532 29.6065 29.734 29.0424 29.7558 28.43C29.7573 28.4066 29.7542 28.3848 29.7558 28.3614L24.4873 28.1775C24.4857 28.2009 24.4826 28.2227 24.481 28.2445Z" fill="#D55454"/>
<path d="M24.7007 28.1842C25.2694 28.8308 26.1218 29.2562 27.0848 29.289C28.0494 29.3232 28.9298 28.9602 29.5422 28.354L24.7007 28.1842Z" fill="white"/>
<path d="M24.8936 29.9726C25.3423 30.7705 26.1168 31.3081 27.0128 31.3408C27.9322 31.372 28.7596 30.8655 29.2582 30.0708C28.3654 29.8418 27.4382 29.7405 26.5188 29.7732C25.9719 29.7935 25.428 29.862 24.8936 29.9726Z" fill="#F37C7C"/>
<path d="M30.6826 27.576C30.6109 28.3754 31.4321 29.1047 32.5198 29.2028C33.6074 29.301 34.5471 28.7322 34.6187 27.9313C34.692 27.1319 33.8692 26.4027 32.7831 26.3045C31.6955 26.2063 30.7558 26.7751 30.6826 27.576Z" fill="#F9BFBB"/>
<path d="M22.2341 25.7451C22.1842 26.2858 22.7405 26.7767 23.4744 26.8437C24.2084 26.9107 24.8426 26.5258 24.8909 25.9851C24.9408 25.4444 24.386 24.952 23.6505 24.8865C22.9166 24.8195 22.2824 25.2044 22.2341 25.7451Z" fill="#F9BFBB"/>
<path d="M41.9549 43.5871C40.2205 43.09 38.3148 42.1535 37.6214 41.9681C35.005 45.7141 29.3236 46.2798 26.8132 41.6253C24.239 42.1099 20.8498 42.7394 17.8595 43.4983C17.8314 47.3441 15.8322 51.8054 15.3647 55.5655C14.6136 61.6053 13.6054 65.8516 12.5411 71.8509C11.4238 78.1541 11.4254 83.4413 10.2583 91.8201C9.45887 97.5513 8.99448 104.225 8.58154 112.984C19.6343 117.53 33.1335 117.276 53.5047 113.383C53.391 103.565 50.1763 81.9999 49.1245 72.2078C46.8697 62.6338 44.9608 52.9632 41.9549 43.5871Z" fill="#DD5050"/>
<path d="M43.6022 25.8544C41.3022 25.845 39.183 28.491 38.4755 21.7811C38.3633 20.7246 38.2028 19.6774 38.0158 18.6318C37.8304 17.5878 37.3925 16.5079 36.5152 15.9734C34.4755 14.7331 32.0056 17.2014 29.676 16.8227C28.6133 16.6497 27.5054 15.2831 26.48 15.6197C26.0125 15.774 25.2147 16.4035 24.8734 16.7697C23.806 17.9088 23.3572 19.5091 22.5594 20.8695C22.3288 19.3969 21.6556 17.2824 22.2976 15.9501C22.6701 15.1787 23.2342 14.2952 23.6206 13.5301C24.7332 11.3298 24.5322 9.80896 26.3974 8.26472C27.4368 7.403 29.9456 6.53661 31.2047 6.97448C31.8295 7.19263 32.4076 7.57129 33.059 7.68037C33.941 7.8284 34.8167 7.46221 35.6628 7.16302C36.9204 6.72047 38.2636 6.41038 39.571 6.65191C40.8784 6.89189 42.1421 7.78165 42.5504 9.10618C42.8589 10.105 42.6875 11.2971 43.3124 12.1183C43.8889 12.8741 44.9189 13.0174 45.7027 13.5285C47.3685 14.6178 47.5711 17.0892 47.1878 19.1056C46.7156 21.5879 45.1714 23.9284 43.6022 25.8544Z" fill="#323A40"/>
<path d="M26.941 41.2078C26.941 41.2078 27.008 44.5113 26.9067 46.9173C26.6542 52.9322 25.551 55.5454 25.3235 61.565C25.2331 63.9725 25.2658 66.38 25.3095 68.7875C25.336 70.2881 25.3671 71.7872 25.3749 73.2862C25.3812 74.6139 25.3703 75.9415 25.3188 77.2707C25.3157 77.3829 25.311 77.4967 25.3064 77.6088C25.1583 81.1632 24.8108 84.7083 24.3465 88.2378C24.2436 89.0325 24.1314 89.8256 24.0146 90.6172C23.8852 91.5117 23.7465 92.4014 23.6063 93.2928C23.5985 93.3411 23.5907 93.3878 23.5829 93.4361C23.5705 93.5203 23.5564 93.606 23.5424 93.6917C23.3134 95.1269 23.0781 96.5792 22.8412 98.047C21.3998 106.931 19.8509 116.338 18.8863 125.058C18.8255 125.61 6.63212 120.95 2.41858 117.217C1.95889 116.809 5.09879 104.835 6.77237 98.2262C7.06376 97.0794 7.30843 96.0945 7.48451 95.359C7.50165 95.2889 7.51724 95.2235 7.53126 95.1596L7.53905 95.13C7.61229 94.8199 7.66995 94.5628 7.71046 94.368C7.71981 94.3165 7.72914 94.2698 7.73849 94.2277C7.74473 94.1966 7.75096 94.167 7.75408 94.1389C6.77081 94.0345 4.63598 93.6512 3.66519 93.366C1.18287 92.6383 -1.19657 91.2857 -2.42604 88.4403C-2.93715 87.2545 -3.25038 85.81 -3.28622 84.0429C-3.30648 82.7433 -3.24571 81.4204 -3.11326 80.0834C-3.10079 79.9696 -3.08987 79.8559 -3.07741 79.7421C-2.70031 76.2734 -1.84638 72.719 -0.685474 69.2566C3.27719 57.4309 10.8114 46.6758 15.0873 44.0345C20.1734 40.8946 26.941 41.2078 26.941 41.2078Z" fill="#FF6B6B"/>
<path d="M53.0609 94.9758C53.0671 95.0085 53.0703 95.0397 53.0749 95.0724C53.2884 96.5231 53.5346 98.2403 53.7964 100.092C55.0555 109.016 56.6574 121.053 56.3707 121.289C54.4478 122.83 45.949 126.009 37.8429 126.323C37.5889 126.213 36.6945 111.878 35.8437 97.1153C35.7283 95.1254 35.6146 93.1261 35.5024 91.1534C35.1954 85.7259 34.9071 80.4964 34.6734 76.1675C34.6282 75.3276 34.5846 74.522 34.5441 73.7553C34.2652 68.5866 34.0906 65.1958 34.0984 65.1506C35.4666 57.8439 37.6139 41.4401 37.6139 41.4401C37.6139 41.4401 45.3008 42.6353 52.9066 47.2882C57.1903 49.9077 63.6524 63.7513 65.6361 79.0269C65.6984 79.51 65.7561 79.9962 65.8091 80.4824C65.968 81.9378 66.0818 83.4041 66.1441 84.8798C66.4355 91.7845 58.9698 94.0408 53.0609 94.9758Z" fill="#FF6B6B"/>
<path d="M49.5767 55.5779C49.5222 57.2702 49.3461 59.0201 49.2916 60.7108C49.2698 61.4027 49.2464 62.0945 49.2246 62.7864C49.1233 65.9777 49.0204 69.1722 48.7446 72.3526L51.0509 72.2513C49.9009 66.7865 50.2639 61.1206 49.5767 55.5779Z" fill="#EF5858"/>
<path d="M14.8912 56.3231C14.8538 58.0139 14.9348 59.7716 14.8974 61.4623C14.8818 62.1557 14.8662 62.8476 14.8507 63.5395C14.779 66.7324 14.7073 69.9252 14.8086 73.1181L12.5117 72.8906C13.9578 67.4959 13.9032 61.8191 14.8912 56.3231Z" fill="#EF5858"/>
<path d="M18.3368 79.5115C18.5658 79.5317 18.8931 79.4819 19.0925 79.5909C19.3699 79.7421 19.6379 80.1192 19.8686 80.342C20.5121 80.9653 21.1728 81.5731 21.8117 82.201C21.9878 82.3756 22.1608 82.5516 22.3337 82.7277C23.7455 81.0619 25.1339 79.3759 26.5099 77.6789C24.9469 76.5414 23.7533 75.6859 23.2173 75.3244C22.9571 75.1515 22.6968 74.9769 22.4382 74.8024C22.3665 74.0934 22.234 73.3922 22.0299 72.7097C21.7774 71.8713 21.3162 71.1888 20.9843 70.3878C20.4124 69.0057 20.1163 67.4926 19.6426 66.0683C19.4946 65.6273 19.3278 65.1692 18.999 64.8389L18.9617 64.803C18.6298 64.4976 18.1108 64.348 17.7213 64.5786C17.4221 64.7578 17.2694 65.1147 17.2336 65.4606C17.1728 66.0714 17.3193 66.7321 17.4517 67.3243C17.5374 67.7029 17.6636 68.1081 17.6714 68.4992C17.6839 69.0976 17.299 68.7267 17.0138 68.4462C16.7037 68.1361 16.4295 67.7949 16.1739 67.4412C15.6675 66.7399 15.2405 65.9842 14.7637 65.2627L11.5272 60.376C11.2093 59.8945 10.3912 59.9241 10.0764 60.3931C9.637 61.0445 10.3834 61.8189 10.6826 62.3612C11.1828 63.2697 11.6768 64.1797 12.1707 65.0929C12.5229 65.7473 12.8751 66.4034 13.221 67.061C13.4252 67.4412 13.7789 67.7637 13.9939 68.1533C14.0718 68.2966 14.3212 68.6831 14.1544 68.8483C13.9815 69.0197 13.7072 68.6924 13.5794 68.5896C13.2678 68.3387 12.9655 68.0769 12.6663 67.8105C12.0913 67.2931 11.535 66.7524 10.9849 66.2055C9.8614 65.1006 8.74879 63.9725 7.49751 63.0063C7.44453 62.9643 7.39156 62.9315 7.33858 62.9035C6.97394 62.5747 6.34127 62.6479 6.05767 63.05C5.52162 63.8104 6.58436 64.6238 7.03158 65.1256C7.75773 65.9343 8.5135 66.7135 9.24121 67.5206C9.78504 68.1221 10.3289 68.7236 10.8711 69.3251C11.0628 69.5355 12.1583 70.3068 11.898 70.6777C11.6737 71.0034 10.8805 70.2616 10.6779 70.1494C10.1917 69.8814 9.70868 69.6087 9.22718 69.3329C8.26261 68.7797 7.31365 68.2047 6.37869 67.6032C6.29143 67.5456 6.20103 67.5082 6.1122 67.4848C5.85353 67.3056 5.59487 67.1248 5.33931 66.9394C4.87651 66.6122 4.19868 66.8755 4.05064 67.4209C3.8356 68.2063 4.78769 68.6208 5.30036 68.9807C6.11689 69.551 6.93965 70.1105 7.7702 70.6636C8.35611 71.0548 8.94359 71.4412 9.53573 71.823C9.8505 72.0271 11.2981 72.8078 10.6561 73.2924C10.5299 73.3875 10.2151 73.28 10.0842 73.2488C9.66817 73.1553 9.28173 72.9668 8.88126 72.8187C7.81229 72.4245 6.73553 72.0443 5.6541 71.6812C5.06196 71.4802 4.43241 72.0193 4.54149 72.6442C4.69576 73.5511 6.30545 73.7303 7.00355 73.9578C8.11771 74.3178 9.21628 74.7183 10.2993 75.1608C10.4847 75.2387 10.6701 75.3151 10.8322 75.4335C11.0394 75.5831 11.1984 75.7935 11.3667 75.9914C12.8876 77.788 15.1922 78.977 17.4922 79.3962C17.7711 79.4476 18.0547 79.4865 18.3368 79.5115Z" fill="#FFCFCA"/>
</g>
</g>
<defs>
<clipPath id="clip0_1065_49897">
<rect width="64" height="64" rx="32" fill="white"/>
</clipPath>
<clipPath id="clip1_1065_49897">
<rect width="71" height="71" fill="white" transform="translate(-4)"/>
</clipPath>
</defs>
</svg>
