<svg width="64" height="64" viewBox="0 0 64 64" fill="none" xmlns="http://www.w3.org/2000/svg">
<g clip-path="url(#clip0_1065_49885)">
<rect width="64" height="64" rx="32" fill="#FFF1F1"/>
<g clip-path="url(#clip1_1065_49885)">
<rect width="72" height="72" transform="translate(-4)" fill="#FFF1F1"/>
<path d="M95.3356 75.5453C94.3357 75.3209 93.3287 75.1313 92.3215 74.9432C91.1628 74.7283 90.0003 74.5387 88.8473 74.2938C88.7689 74.2764 88.5783 74.2163 88.5842 74.1089C88.5864 74.0678 88.623 74.0346 88.6629 74.0235C88.7776 73.9888 88.9275 74.0425 89.0372 74.0725C89.8458 74.2906 90.6413 74.4312 91.4671 74.5624C92.1848 74.6762 92.9002 74.8057 93.6124 74.9511C94.1152 75.0538 94.6345 75.2229 95.1441 75.264C95.5015 75.2925 95.8877 75.1961 96.0146 74.8168C96.3863 73.7043 94.1541 73.412 93.497 73.2714C91.4886 72.8415 89.4972 72.3232 87.4847 71.9187C87.3055 71.8839 87.1184 71.8697 86.9569 71.7781C86.9246 71.7591 86.8911 71.7354 86.882 71.6991C86.8696 71.6501 86.9069 71.6027 86.9437 71.5679C87.2165 71.3087 87.609 71.1965 87.9465 71.0496C88.4163 70.8442 88.9396 70.6134 89.3267 70.2658C89.6124 70.0051 89.8159 69.5673 89.5878 69.2102C89.3967 68.9116 89.0265 68.7504 88.681 68.7346C88.2416 68.7125 87.8171 68.8768 87.406 69.0332C86.4871 69.384 85.5595 69.7127 84.6245 70.0177C83.7618 70.299 82.8357 70.3195 81.98 70.6245C81.4125 70.8268 80.8675 71.0875 80.3479 71.3941C80.0994 71.3056 63.1865 63.098 59.044 63.5799C56.7819 63.8422 54.1539 71.1681 56.1718 72.2237C62.5379 75.5532 78.5151 75.9609 78.7576 76.0747C78.9322 76.1568 79.062 76.4033 79.1903 76.5503C79.3488 76.7304 79.5175 76.9043 79.6928 77.0686C80.0439 77.4005 80.4211 77.7054 80.8187 77.9788C81.5736 78.5003 82.4008 78.9096 83.2723 79.194C83.8026 79.3678 84.3543 79.4215 84.9048 79.4911C86.0691 79.6349 87.229 79.8166 88.3945 79.9493C89.5568 80.0821 90.7276 80.0679 91.8946 80.022C92.3207 80.0046 92.8836 79.9873 93.1273 79.5685C93.2836 79.3014 93.2192 78.9791 92.9356 78.8321C92.6554 78.6852 92.2961 78.712 91.9868 78.6883C91.6365 78.6599 91.286 78.6346 90.9354 78.6093C90.3382 78.5666 89.7407 78.5256 89.1431 78.4892C88.8591 78.4718 88.5319 78.5129 88.2631 78.4023C88.1028 78.3359 88.2768 78.1874 88.3696 78.1653C88.5589 78.1179 88.786 78.1842 88.9761 78.2064C89.2123 78.2316 89.4485 78.2569 89.6851 78.2806C90.1579 78.3265 90.6313 78.366 91.1051 78.4007C92.029 78.4687 92.9542 78.5192 93.8798 78.5635C94.1298 78.5761 94.3829 78.5872 94.6283 78.5366C95.0815 78.4434 95.6485 77.9219 95.277 77.4352C95.088 77.1871 94.7328 77.1571 94.4213 77.146C93.3883 77.1271 92.3569 77.0544 91.3298 76.9454C90.8154 76.89 90.3023 76.8268 89.79 76.7541C89.5347 76.7194 89.2795 76.6815 89.0246 76.642C88.9263 76.6277 88.5238 76.6293 88.493 76.5076C88.4495 76.3354 88.7849 76.3607 88.868 76.3702C89.5827 76.4571 90.2977 76.5456 91.0126 76.6325C92.2041 76.7779 93.3958 76.9217 94.5872 77.067C95.1593 77.1366 96.3153 77.4305 96.5674 76.6799C96.8299 75.9008 95.898 75.6701 95.3356 75.5453Z" fill="#FFCFCA"/>
<path d="M52.7582 38.7408C52.7898 38.3126 52.7765 37.8812 52.7108 37.4608C52.5431 36.3894 52.0533 35.3923 51.2143 34.7049C50.4892 34.1124 49.5929 33.8105 48.8551 33.2353C48.0149 32.5811 47.4244 31.603 47.0309 30.5648C46.5297 29.2406 46.2583 27.771 45.9797 26.3788C45.6752 24.8571 45.4445 23.3179 45.2291 21.7788C44.8365 18.9708 44.4566 16.0822 43.3579 13.478C42.2132 10.7647 40.2218 8.75629 37.64 7.74337C35.0695 6.73362 32.2193 6.55505 29.567 7.28511C26.1734 8.21902 23.4206 10.8216 21.8852 14.2159C20.8653 16.4709 20.3117 18.9423 19.9402 21.4217C19.6705 23.2231 19.4899 25.053 18.9512 26.7818C18.5496 28.0696 17.9278 29.3164 17.0132 30.2598C16.0016 31.3043 14.5792 31.6409 13.3988 32.4152C12.1087 33.2622 11.2412 34.7492 10.9272 36.3468C7.20942 37.8322 4.58105 41.4635 4.58105 45.7111C4.58105 51.2782 9.09445 55.7913 14.6622 55.7913C16.1337 55.7913 17.5303 55.4736 18.7906 54.9064C19.1459 55.1165 19.5147 55.3061 19.8957 55.4736C20.6725 60.5035 25.02 64.3544 30.2671 64.3544C32.6876 64.3544 34.9149 63.5327 36.6903 62.1564C37.1612 62.237 37.6444 62.2828 38.1386 62.2828C42.5507 62.2828 46.1683 58.8901 46.5303 54.5714C46.9904 54.6456 47.4621 54.6867 47.9435 54.6867C52.7484 54.6867 56.6435 50.7915 56.6435 45.9876C56.6435 42.9631 55.0999 40.3005 52.7582 38.7408Z" fill="#F7931E"/>
<path d="M68.3098 75.9536C67.8403 76.5793 57.9692 75.0118 54.6797 72.1927C53.4672 71.1545 52.1471 69.293 51.0188 67.471C49.4914 65.0059 48.3135 62.615 48.2252 62.4317L48.2196 62.4206C48.2196 62.4206 48.0815 74.435 47.9434 75.1255C47.6975 76.3518 51.6719 88.521 51.1196 89.0741C44.0697 96.1234 19.2193 93.4923 15.3525 85.8978C14.9051 85.0192 20.8764 73.4679 20.8764 73.4679C20.8764 73.4679 17.9142 61.5847 17.475 58.7119C17.4475 58.5286 17.4295 58.3832 17.424 58.2773C17.2251 58.8731 16.5912 60.3126 15.8152 62.0019C14.1402 65.6474 12.6334 70.8116 12.5906 70.8448C12.3338 71.036 10.4557 79.3321 9.82872 79.9594C8.91725 80.8712 0.337339 77.962 0.0238249 77.3347C-0.32556 76.6346 0.794335 69.4352 2.5095 64.9063C5.96194 55.7917 10.1049 45.988 14.6621 42.48C16.8343 40.8081 25.2445 36.886 35.0576 37.6224C40.5787 38.0364 48.2154 41.6883 49.6654 43.052C54.8358 47.908 59.4772 59.8654 60.0061 61.0696C62.3289 61.9845 70.7749 65.9366 70.8163 66.3949C70.9737 68.1189 69.5059 74.3576 68.3098 75.9536Z" fill="#FF6B6B"/>
<path d="M37.6116 40.7809C37.0302 42.644 35.0706 43.0801 33.3403 43.0611C31.4303 43.0406 28.9059 42.5997 28.2251 40.5091C27.7569 39.0663 28.0938 37.4119 28.1008 35.9249C28.1063 34.9373 28.0745 33.9496 27.9944 32.9652C27.9461 32.3599 27.8799 31.7563 27.7929 31.1558C27.7225 30.6707 27.6424 30.1856 27.5526 29.7036C27.4918 29.3797 27.427 29.0557 27.3565 28.7349C27.3081 28.509 27.0375 27.9037 27.2985 27.7473C27.5401 27.6035 28.036 28.0302 28.2375 28.1518C31.2024 29.9296 34.2985 31.4892 37.4928 32.8135C37.6184 32.8656 37.7495 32.9225 37.8241 33.0363C37.8946 33.1437 37.8973 33.2812 37.8973 33.4108C37.8987 34.4474 37.8987 35.4856 37.9001 36.5238C37.9016 36.9267 37.9126 37.3313 37.9181 37.7342C37.9374 38.7598 37.9223 39.7853 37.6116 40.7809Z" fill="#FFCFCA"/>
<path d="M37.9182 37.7341C35.145 36.9709 32.4799 35.8331 30.0466 34.3114C29.37 33.8879 28.6725 33.4407 27.9944 32.965C27.9461 32.3598 27.8799 31.7562 27.7929 31.1557C27.7225 30.6706 27.6424 30.1855 27.5526 29.7035C27.4918 29.3796 27.427 29.0556 27.3565 28.7348C27.3081 28.5089 27.0375 27.9036 27.2985 27.7472C27.5401 27.6034 28.036 28.03 28.2375 28.1517C31.2024 29.9295 34.2985 31.4891 37.4928 32.8133C37.6184 32.8655 37.7495 32.9224 37.8241 33.0362C37.8946 33.1436 37.8973 33.2811 37.8973 33.4107C37.8987 34.4473 37.8987 35.4855 37.9001 36.5237C37.9016 36.9266 37.9126 37.3312 37.9182 37.7341Z" fill="#F9BFBB"/>
<path d="M28.5441 28.0047C27.3142 28.8628 25.6193 29.0129 24.2649 28.365C23.1205 27.8167 22.2634 26.7168 21.9856 25.4827C21.9355 25.2583 21.9047 25.0308 21.8933 24.7985C21.8743 24.3939 21.9191 23.9831 22.0567 23.6038C22.4017 22.6652 23.3555 22.0031 24.3518 21.9383C25.3503 21.8735 26.3509 22.3776 26.9498 23.1788L27.5626 25.0339L28.5441 28.0047Z" fill="#FFCFCA"/>
<path d="M42.5245 30.1853C41.9305 31.636 41.1065 32.9554 39.7566 33.8056C38.5592 34.5578 37.1181 34.926 35.707 34.8643C34.1451 34.7964 32.6433 34.2528 31.3148 33.4153C30.6535 32.9981 30.0343 32.5098 29.4735 31.9694C28.493 31.026 27.6686 29.9341 26.9584 28.7774C25.805 26.8953 24.8741 24.751 24.413 22.5355C23.8875 20.0325 23.9602 17.4362 24.9805 15.0343C25.3937 14.0545 25.9722 13.1475 26.6844 12.3558C29.6851 9.01524 34.8434 8.43846 38.5107 11.0332C40.4209 12.3874 41.8461 14.4196 42.607 16.6208C42.8487 17.3177 43.0567 18.0335 43.2256 18.7604C44.1045 22.526 43.9869 26.6109 42.5245 30.1853Z" fill="#FFCFCA"/>
<path d="M34.9348 23.4727C34.7383 23.4838 34.4671 23.1709 34.3922 22.7063C34.3527 22.4614 34.3765 22.2165 34.4578 22.0347C34.4857 21.9715 34.5641 21.823 34.6844 21.804L34.703 21.8025C34.8998 21.7914 35.1708 22.1043 35.2457 22.5689C35.2852 22.8138 35.2613 23.0587 35.1801 23.2404C35.1521 23.3037 35.0737 23.4522 34.9533 23.4712L34.9348 23.4727Z" fill="#1F3C49"/>
<path d="M40.8287 22.9022C40.6626 22.9101 40.3842 22.632 40.3082 22.1611C40.2698 21.9241 40.293 21.6871 40.3715 21.5101C40.4281 21.3837 40.5065 21.3031 40.5861 21.2904L40.6034 21.2873C40.7696 21.2794 41.0479 21.5575 41.124 22.0284C41.1621 22.267 41.1391 22.504 41.0607 22.6794C41.0039 22.8074 40.9257 22.8864 40.8459 22.9007L40.8287 22.9022Z" fill="#1F3C49"/>
<path d="M37.8711 23.9723C38.0252 23.8032 38.2856 23.7305 38.5315 23.7748C38.7818 23.8174 39.0123 23.996 39.1282 24.2236C39.25 24.4495 39.2647 24.7419 39.1556 24.971C39.0518 25.1985 38.8432 25.3708 38.616 25.3992C38.7747 25.2396 38.8638 25.0611 38.8974 24.8825C38.9314 24.7071 38.8993 24.538 38.821 24.3847C38.7412 24.233 38.6204 24.1098 38.4559 24.0355C38.291 23.9628 38.0923 23.9328 37.8711 23.9723Z" fill="#1F3C49"/>
<path d="M34.9345 19.6532C34.916 19.6548 34.898 19.6532 34.8798 19.6485C34.6606 19.5805 34.4196 19.56 34.1836 19.5868C34.1516 19.59 34.1197 19.5948 34.0878 19.5995C33.8754 19.6343 33.6681 19.7101 33.4884 19.816C33.4737 19.8239 33.4584 19.8302 33.4418 19.8318C33.4194 19.8349 33.4044 19.8349 33.3895 19.8302C33.3532 19.8239 33.3201 19.7986 33.301 19.767C33.2629 19.7022 33.2846 19.6185 33.3495 19.5789C33.5562 19.4573 33.7955 19.3719 34.0413 19.3309C34.078 19.3245 34.115 19.3198 34.1519 19.3151C34.4252 19.285 34.7041 19.3103 34.9588 19.3862C35.0309 19.4083 35.072 19.4841 35.0503 19.5568C35.0351 19.6058 34.9936 19.6437 34.9421 19.6516L34.9345 19.6532Z" fill="#1F3C49"/>
<path d="M39.5791 18.8301L39.5533 18.8206C39.5234 18.8064 39.5002 18.7811 39.4871 18.7511C39.4575 18.6815 39.4895 18.601 39.5587 18.5709C39.8997 18.4256 40.2928 18.3845 40.6659 18.4587C40.6996 18.4651 40.7331 18.473 40.7663 18.4809C40.8574 18.5046 40.9466 18.5346 41.0311 18.5709C41.0987 18.601 41.1326 18.6815 41.1032 18.7495C41.0771 18.8111 41.0163 18.8443 40.9518 18.8301C40.9369 18.8269 40.9301 18.8253 40.9235 18.8222C40.8518 18.7922 40.7757 18.7653 40.6975 18.7463C40.6699 18.7384 40.6422 18.7321 40.6143 18.7274C40.2943 18.6642 39.9578 18.6973 39.6668 18.8222C39.6416 18.8332 39.613 18.8364 39.5857 18.8317L39.5791 18.8301Z" fill="#1F3C49"/>
<path d="M34.821 22.1074C34.5338 22.0474 34.4408 22.4946 34.7288 22.553C35.0159 22.6131 35.1088 22.1675 34.821 22.1074Z" fill="white"/>
<path d="M40.8073 21.5305C40.5201 21.4705 40.4273 21.9177 40.7149 21.9762C41.0023 22.0362 41.0951 21.589 40.8073 21.5305Z" fill="white"/>
<path d="M41.4469 26.2349C41.5275 27.0313 41.3842 27.7898 41.0743 28.4346C40.5783 29.4712 39.6524 30.2076 38.5322 30.3213C37.3847 30.4383 36.3065 29.8726 35.6163 28.9181C35.2084 28.3603 34.9349 27.6682 34.8574 26.9033C34.8546 26.8749 34.8555 26.848 34.8525 26.818L41.4348 26.1512C41.4376 26.1812 41.4441 26.208 41.4469 26.2349Z" fill="#D55454"/>
<path d="M41.1673 26.178C40.5088 27.0344 39.4769 27.6365 38.2725 27.7598C37.0682 27.8814 35.9364 27.499 35.1196 26.7911L41.1673 26.178Z" fill="white"/>
<path d="M41.0743 28.4346C40.5782 29.4712 39.6524 30.2076 38.5322 30.3213C37.3846 30.4383 36.3064 29.8726 35.6162 28.9181C36.7151 28.5562 37.8667 28.3524 39.0228 28.3192C39.7088 28.3002 40.3951 28.3398 41.0743 28.4346Z" fill="#F37C7C"/>
<path d="M34.5663 25.2839C34.6061 26.0329 33.8139 26.684 32.7969 26.7377C31.7799 26.793 30.9231 26.2289 30.8833 25.4799C30.8435 24.7308 31.6356 24.0798 32.6526 24.0261C33.6697 23.9723 34.5264 24.5349 34.5663 25.2839Z" fill="#F9BFBB"/>
<path d="M43.1429 24.0652C43.1699 24.5709 42.6348 25.0117 41.9481 25.0481C41.2611 25.0844 40.6826 24.7036 40.6558 24.1979C40.6287 23.6923 41.1638 23.253 41.8506 23.2166C42.5375 23.1803 43.116 23.5595 43.1429 24.0652Z" fill="#F9BFBB"/>
<path d="M42.5785 15.7833C42.2265 15.2381 41.7404 14.6218 41.0938 14.685C40.8569 14.7072 40.6402 14.8241 40.4114 14.8889C39.9348 15.0232 39.3979 14.9252 39.0009 14.6281C38.67 14.3816 38.4377 14.0119 38.0811 13.8033C37.6598 13.5583 37.093 13.5915 36.7027 13.8839C36.3672 14.1351 36.1817 14.5333 35.9225 14.862C35.3337 15.611 34.3635 15.984 33.4127 16.0393C32.4619 16.0946 31.5183 15.867 30.6039 15.6015C30.1693 15.4751 29.6791 15.344 29.2842 15.5652C29.0102 15.7185 28.8459 16.0124 28.7318 16.3047C28.4409 17.0538 28.3928 17.8755 28.4516 18.6766C28.5226 19.6422 28.7275 20.6867 28.2403 21.5226C27.8982 22.1104 27.2254 22.4897 26.5457 22.477C25.9087 22.466 25.3241 22.1436 24.7094 21.9777C24.0945 21.8102 23.3233 21.8544 22.9687 22.3838C22.6917 19.7528 22.642 17 23.7173 14.5839C24.6977 12.3811 26.564 10.6097 28.7713 9.63784C30.9785 8.66759 33.5035 8.48428 35.8563 9.01207C36.7476 9.21118 37.622 9.513 38.4104 9.97442C40.4263 11.1533 41.8248 13.5726 42.5785 15.7833Z" fill="#F7931E"/>
<path d="M17.4748 58.7118C17.4473 58.5285 17.4293 58.3831 17.4238 58.2772C17.2248 58.873 16.591 60.3125 15.8149 62.0018C16.4971 56.885 16.8576 50.8818 16.8576 50.8818C16.8576 50.8818 17.2043 55.6462 17.4748 58.7118Z" fill="#AD4242"/>
<path d="M51.0187 67.4707C49.4913 65.0056 48.3134 62.6147 48.2251 62.4314C47.9558 58.0037 47.529 48.8558 47.3716 47.4004C49.3103 53.6486 49.6171 60.197 50.8488 66.6221C50.9027 66.905 50.9593 67.1894 51.0187 67.4707Z" fill="#AD4242"/>
</g>
</g>
<defs>
<clipPath id="clip0_1065_49885">
<rect width="64" height="64" rx="32" fill="white"/>
</clipPath>
<clipPath id="clip1_1065_49885">
<rect width="72" height="72" fill="white" transform="translate(-4)"/>
</clipPath>
</defs>
</svg>
