<svg width="64" height="64" viewBox="0 0 64 64" fill="none" xmlns="http://www.w3.org/2000/svg">
<g clip-path="url(#clip0_1065_49895)">
<rect width="64" height="64" rx="32" fill="#FFF1F1"/>
<g clip-path="url(#clip1_1065_49895)">
<rect width="71" height="71" transform="translate(-3)" fill="#FFF1F1"/>
<path d="M25.6337 42.1939C25.5708 41.3182 24.8091 40.6232 23.9019 40.8741C18.4575 42.3778 12.8302 44.9131 10.296 50.2891C9.30514 52.3912 8.95298 54.7317 8.46914 56.9896C7.92764 59.5171 7.42448 62.0524 6.95996 64.594C6.37218 67.8118 5.89208 71.0467 5.43691 74.2848C5.02319 77.2268 5.10033 80.842 3.74308 83.4879C1.21168 88.4229 -1.42911 93.4499 -4.01661 98.413C-5.34363 100.958 -6.66644 103.505 -7.97585 106.059C-8.61504 107.306 -9.2505 108.556 -9.88331 109.807C-10.1912 110.415 -10.7293 111.138 -10.4017 111.836C-9.75896 113.202 -7.91055 113.957 -6.70072 114.753C-6.34434 114.988 -5.98079 115.227 -5.56926 115.342C-3.69466 115.867 -2.1121 112.827 -1.21859 111.647C0.309133 109.629 1.81161 107.591 3.28822 105.536C6.54203 101.006 9.88793 96.381 12.747 91.5332C13.8765 89.6181 15.0801 87.6703 15.9853 85.6445C18.1302 80.8404 18.9313 75.5423 20.6742 70.5855C22.5139 65.3528 24.7692 60.0625 25.3881 54.5026C25.8428 50.4184 25.929 46.2922 25.6337 42.1939Z" fill="#E36161"/>
<path d="M69.1588 117.722C67.3901 118.172 61.57 117.575 61.3596 117.447C60.4122 116.874 60.3468 85.9237 58.896 83.3791C58.0966 81.9766 54.9786 76.8422 51.781 71.4225C48.7642 66.3021 45.6726 60.9245 44.3995 58.1975C42.0154 53.0973 43.0209 41.0582 43.3823 39.7181C46.687 40.5611 48.9263 41.535 49.1616 41.6379L49.1818 41.6488C51.4008 42.6663 54.0826 44.5783 55.203 45.6161C62.7278 52.594 69.8086 74.3162 71.0069 80.1831C72.442 87.2093 70.4085 117.402 69.1588 117.722Z" fill="#E36161"/>
<path d="M57.1179 108.006C53.202 110.944 9.91406 111.154 9.91406 109.102C9.91406 101.271 11.6819 92.4314 12.2401 84.6105C12.7163 77.9551 14.3472 56.9856 14.5661 53.2785C14.7166 50.7042 15.1134 44.6581 15.1134 44.6581C15.1134 44.6581 18.9827 42.3317 20.9967 41.3749C23.7782 40.0535 26.6447 39.2292 29.6657 38.7663C34.6939 37.9997 39.7001 38.7788 43.3821 39.7185C46.6869 40.5615 48.9261 41.5354 49.1614 41.6382L49.1817 41.6491C49.1817 41.6491 47.0967 42.5451 46.5825 45.8907C44.3931 60.1192 51.7762 71.3231 51.7762 71.3231C51.7762 71.3231 53.7801 83.6584 54.9286 89.946C55.6578 93.9398 57.6649 107.596 57.1179 108.006Z" fill="#FF6B6B"/>
<path d="M22.1998 15.0912C22.5006 13.9739 22.9867 12.9407 23.6255 12.118C25.3338 9.91927 28.2272 8.30179 31.0718 8.71317C33.6559 9.0856 35.9675 10.1421 37.3243 12.4764C38.7442 14.9166 38.6971 18.2046 37.0032 20.503C35.9904 21.8774 34.6037 22.9869 33.0525 23.6959C32.587 23.9078 32.1049 24.0839 31.6113 24.2179C28.9931 24.9316 25.5649 24.6277 23.5737 22.5989C21.6868 20.6775 21.5346 17.5594 22.1998 15.0912Z" fill="#32334C"/>
<path d="M38.2452 25.9946C38.118 26.6989 37.9935 27.4032 37.8678 28.1076C37.8594 28.1496 37.8525 28.1933 37.8457 28.2353C37.8421 28.254 37.8383 28.2727 37.8348 28.2914C37.6677 29.2248 37.5021 30.1567 37.3878 31.0932C37.3402 31.4703 37.3026 31.849 37.276 32.2276C37.2454 32.6515 37.2289 33.0784 37.2245 33.5023C37.2124 34.3157 37.2347 35.1307 37.2596 35.9441C37.2894 36.9351 37.3177 37.9262 37.3473 38.9157C36.7638 39.5483 35.9469 40.343 35.0735 41.0474C33.3733 41.5195 31.394 41.8328 29.6763 41.8951C28.5138 41.2172 27.4831 40.2231 27.6563 39.3115L27.7099 35.7399L27.7124 35.154L27.7168 33.6051L27.7251 31.3986C28.4852 31.2132 29.1968 30.8672 29.9019 30.5244C32.2409 29.3807 34.5647 28.2073 36.8429 26.9451C36.9043 26.9124 36.9629 26.8797 37.0202 26.8469C37.4782 26.5929 37.853 26.3748 38.2452 25.9946Z" fill="#FFCFCA"/>
<path d="M27.7104 35.7401C30.3428 35.0607 32.8755 34.0073 35.1758 32.5675C35.9075 32.1109 36.6664 31.6216 37.3885 31.0949C37.502 30.1569 37.6685 29.225 37.8348 28.2932C37.9716 27.5281 38.1081 26.7598 38.2449 25.9947C37.8044 26.4232 37.3837 26.6461 36.8433 26.9468C34.5657 28.2075 32.2414 29.3808 29.9021 30.5246C29.1972 30.869 28.4858 31.2134 27.7248 31.3988L27.7104 35.7401Z" fill="#F9BFBB"/>
<path d="M22.522 28.8054C23.0247 30.2499 23.7582 31.5807 25.0294 32.4798C26.1568 33.276 27.5421 33.7108 28.9209 33.7248C30.4469 33.7404 31.9394 33.2901 33.2785 32.5437C33.945 32.1712 34.5742 31.7287 35.1494 31.2316C36.1548 30.3637 37.0159 29.343 37.769 28.2538C38.9924 26.4789 40.0127 24.4376 40.5788 22.3028C41.223 19.889 41.2888 17.3553 40.4208 14.9602C40.0698 13.9832 39.5535 13.0685 38.9011 12.2597C36.1521 8.84559 31.1546 8.01192 27.4432 10.3478C25.5098 11.5663 24.0136 13.4736 23.1561 15.5788C22.8837 16.2458 22.6432 16.933 22.4404 17.6326C21.3854 21.2556 21.2847 25.2448 22.522 28.8054Z" fill="#FFCFCA"/>
<path d="M36.7188 27.6167C37.8723 28.519 39.5165 28.7527 40.8709 28.1917C42.0151 27.7196 42.9086 26.6911 43.2445 25.5037C43.3049 25.2871 43.347 25.0674 43.3704 24.8415C43.4101 24.4472 43.3881 24.0452 43.274 23.6681C42.987 22.7347 42.0923 22.0381 41.1246 21.9228C40.1547 21.8075 39.1528 22.2469 38.5268 22.9965L37.8317 24.7729L36.7188 27.6167Z" fill="#FFCFCA"/>
<path d="M30.2739 22.6627C30.4649 22.683 30.7459 22.3916 30.8433 21.9428C30.8947 21.7059 30.8843 21.466 30.8148 21.2852C30.7908 21.2213 30.7222 21.0733 30.606 21.0483L30.5879 21.0452C30.3968 21.025 30.116 21.3148 30.0186 21.7636C29.9672 22.0004 29.9775 22.2404 30.047 22.4227C30.0712 22.4851 30.1396 22.6347 30.256 22.6596L30.2739 22.6627Z" fill="#1F3C49"/>
<path d="M24.5592 21.7948C24.7208 21.8119 25.0068 21.5548 25.1057 21.0998C25.1556 20.8707 25.1454 20.6386 25.0783 20.4625C25.0296 20.3347 24.9577 20.2521 24.8805 20.2365L24.8639 20.2334C24.7024 20.2163 24.4163 20.4718 24.3174 20.9284C24.2677 21.1575 24.2776 21.3896 24.3448 21.5657C24.3934 21.6935 24.4656 21.7745 24.5425 21.7917L24.5592 21.7948Z" fill="#1F3C49"/>
<path d="M27.3862 22.9933C27.2448 22.8203 26.9947 22.7361 26.7527 22.7673C26.5067 22.7938 26.2725 22.9559 26.1475 23.1725C26.0168 23.3859 25.9873 23.6695 26.0814 23.8986C26.1706 24.1261 26.365 24.3053 26.5849 24.3458C26.4386 24.1822 26.3613 24.003 26.3378 23.8269C26.3141 23.654 26.3541 23.4903 26.4386 23.3454C26.5244 23.2021 26.6486 23.0883 26.8127 23.026C26.9774 22.9621 27.1725 22.9434 27.3862 22.9933Z" fill="#1F3C49"/>
<path d="M32.013 19.0679C32.0472 19.057 32.0765 19.0321 32.0924 18.9962C32.1224 18.9292 32.0924 18.8497 32.025 18.8201C31.5317 18.5989 30.9403 18.5942 30.4429 18.8061C30.3752 18.8357 30.3435 18.9136 30.3727 18.9822C30.4016 19.0492 30.4799 19.0804 30.548 19.0523C30.9784 18.8669 31.4893 18.8731 31.9158 19.0632C31.9478 19.0788 31.9823 19.0788 32.013 19.0679Z" fill="#1F3C49"/>
<path d="M26.274 18.1921C26.3045 18.1859 26.3327 18.1703 26.3531 18.1438C26.398 18.0846 26.387 18.0004 26.3284 17.9553C25.9399 17.6576 25.4191 17.5252 24.9354 17.6015C24.8647 17.614 24.813 17.681 24.8243 17.7542C24.8357 17.8275 24.9041 17.8773 24.977 17.8649C25.3898 17.801 25.8342 17.9132 26.1658 18.1672C26.1979 18.1921 26.2374 18.1999 26.274 18.1921Z" fill="#1F3C49"/>
<path d="M30.4566 21.3365C30.7397 21.2929 30.8069 21.7339 30.5231 21.776C30.24 21.8196 30.173 21.3786 30.4566 21.3365Z" fill="white"/>
<path d="M24.6519 20.4594C24.9352 20.4158 25.0022 20.8552 24.7184 20.8988C24.4353 20.9425 24.3683 20.5015 24.6519 20.4594Z" fill="white"/>
<path d="M24.2523 25.1186C24.2222 25.6983 24.3531 26.2421 24.6009 26.6987C24.9973 27.4326 25.6948 27.9344 26.5108 27.9765C27.347 28.0201 28.1082 27.5713 28.5746 26.8545C28.8504 26.4353 29.024 25.9242 29.0528 25.3664C29.0539 25.3477 29.0522 25.3274 29.0533 25.3056L24.2582 25.0563C24.2571 25.0781 24.2534 25.0983 24.2523 25.1186Z" fill="#D55454"/>
<path d="M24.4526 25.0675C24.9605 25.6643 25.7301 26.0648 26.6074 26.1099C27.4849 26.1551 28.2916 25.8372 28.8585 25.295L24.4526 25.0675Z" fill="white"/>
<path d="M24.6011 26.6987C24.9975 27.4326 25.695 27.9344 26.511 27.9765C27.3472 28.0201 28.1084 27.5713 28.5748 26.8545C27.7655 26.6317 26.9232 26.5257 26.0841 26.5413C25.5861 26.5522 25.0899 26.6052 24.6011 26.6987Z" fill="#F37C7C"/>
<path d="M29.91 24.6032C29.8318 25.3325 30.5696 26.0088 31.5582 26.1147C32.5466 26.2207 33.4114 25.7158 33.4896 24.9881C33.5678 24.2604 32.83 23.5841 31.8415 23.4781C30.853 23.3722 29.9882 23.8755 29.91 24.6032Z" fill="#F9BFBB"/>
<path d="M22.2426 22.8075C22.1897 23.2984 22.688 23.755 23.3555 23.8267C24.0231 23.8999 24.6071 23.5586 24.66 23.0678C24.7128 22.5754 24.2145 22.1188 23.5469 22.0471C22.8795 21.9754 22.2955 22.3151 22.2426 22.8075Z" fill="#F9BFBB"/>
<path d="M22.2256 12.0337C22.0486 10.2012 24.8799 8.20352 30.1517 7.28258C34.2261 6.57046 39.6506 7.96511 42.4536 10.971C44.1041 12.7427 45.1014 15.1518 44.891 17.5749C44.7196 19.557 43.8485 21.5049 43.046 23.3124C42.4639 22.178 40.8395 21.7355 39.5977 22.1375C38.8725 22.3712 38.279 22.8387 37.8078 23.4153C37.7892 21.1044 37.2046 18.8698 37.2055 16.5558C37.1977 16.6026 33.3779 16.0883 33.1071 16.054C30.8972 15.7689 28.7036 15.4884 26.5582 14.8682C25.6437 14.6033 24.7428 14.2948 23.8602 13.9426C23.2132 13.6839 22.2783 12.5791 22.2256 12.0337Z" fill="#32334C"/>
<path d="M32.5809 23.6803C32.2039 24.0185 31.7185 24.2444 31.1752 24.2974C30.7897 24.3348 30.416 24.2803 30.0751 24.1509C29.2236 23.8315 28.5804 23.0492 28.487 22.0831C28.3564 20.7305 29.3506 19.5244 30.7016 19.3951C32.054 19.2642 33.2592 20.2568 33.3898 21.6094C33.4679 22.4181 33.1437 23.1754 32.5809 23.6803ZM28.2834 21.198L27.3459 21.0562C27.3489 21.0297 27.3546 21.0048 27.3577 20.9799L28.3055 21.1139C28.2972 21.1419 28.2902 21.17 28.2834 21.198ZM24.8757 23.1193C24.7994 23.1256 24.7241 23.1287 24.6486 23.1303C24.4605 23.1318 24.2756 23.11 24.0971 23.0679C23.5434 22.9448 23.054 22.6301 22.7079 22.1922C22.423 21.8338 22.2348 21.3928 22.1876 20.9035C22.1667 20.6885 22.174 20.4796 22.208 20.2755L22.2078 20.274C22.3828 19.1956 23.2664 18.3261 24.4022 18.2155C25.7546 18.0846 26.9598 19.0788 27.0904 20.4298C27.2209 21.7824 26.228 22.9885 24.8757 23.1193ZM41.0669 21.7808L40.7104 21.7746L37.7074 21.7231L35.9657 21.6935L33.6665 21.6561C33.6642 21.6312 33.6645 21.6078 33.6622 21.5829C33.5171 20.0807 32.1776 18.9775 30.6753 19.1224C29.6171 19.2237 28.758 19.9218 28.3928 20.8505L27.3754 20.7056C27.3766 20.6043 27.3725 20.5046 27.3627 20.4049C27.2177 18.9027 25.878 17.7979 24.3759 17.9428C23.4839 18.0301 22.7333 18.5412 22.3004 19.2549L22.2465 18.8933C22.2381 18.8357 22.1955 18.7952 22.1421 18.7811C22.1252 18.778 22.1073 18.7765 22.0896 18.778C22.0151 18.7905 21.964 18.8591 21.9755 18.9354L22.0294 19.2938L22.0889 19.6834C22.0802 19.7068 22.0717 19.7317 22.0629 19.7551C21.9333 20.1213 21.8755 20.5186 21.9152 20.93C21.9672 21.4676 22.1722 21.9538 22.4826 22.3511C22.9672 22.9682 23.7081 23.3687 24.5278 23.4014L24.5664 23.403C24.6766 23.4061 24.7889 23.4014 24.9021 23.3905C26.0868 23.2767 27.0212 22.4181 27.292 21.3242L28.231 21.466C28.2017 21.6764 28.1934 21.8899 28.2146 22.108C28.3173 23.1723 29.0193 24.0372 29.9547 24.3987C30.0434 24.4345 30.1343 24.4641 30.2273 24.4891C30.5364 24.5717 30.8651 24.6013 31.2015 24.5701C31.8389 24.5078 32.4031 24.2304 32.8321 23.819C32.8486 23.805 32.8648 23.7878 32.881 23.7707C33.3557 23.2908 33.65 22.6378 33.6723 21.9288L35.6798 21.9631L37.7325 21.9974L39.9713 22.0364H40.0194L40.6446 22.0473L41.0617 22.0535H41.0781C41.0931 22.0519 41.1079 22.0473 41.1209 22.041C41.1632 22.0223 41.1934 21.9818 41.1998 21.932L41.2012 21.9179C41.2023 21.8447 41.1426 21.7808 41.0669 21.7808Z" fill="black"/>
<path d="M38.6414 39.4595C38.5548 40.4085 36.7455 41.1767 34.4681 41.6395C32.7394 41.9917 30.7431 42.1662 29.0253 42.1101C27.4388 42.0587 26.0921 41.8109 25.4152 41.3216C24.7492 40.8401 24.9717 35.0387 27.3043 35.2491C27.3565 35.2537 27.433 35.2537 27.5329 35.2491C28.1469 35.2288 29.604 35.0543 31.2629 34.8579C33.3217 34.6117 35.6902 34.3312 37.1365 34.2611C37.8664 34.2253 38.3624 34.2424 38.4677 34.3453C39.2071 35.0652 38.7837 37.8872 38.6414 39.4595Z" fill="#FF6B6B"/>
</g>
</g>
<defs>
<clipPath id="clip0_1065_49895">
<rect width="64" height="64" rx="32" fill="white"/>
</clipPath>
<clipPath id="clip1_1065_49895">
<rect width="71" height="71" fill="white" transform="translate(-3)"/>
</clipPath>
</defs>
</svg>
