<svg width="64" height="64" viewBox="0 0 64 64" fill="none" xmlns="http://www.w3.org/2000/svg">
<g clip-path="url(#clip0_1065_49893)">
<rect width="64" height="64" rx="32" fill="#FFF1F1"/>
<g clip-path="url(#clip1_1065_49893)">
<rect width="75" height="75" transform="translate(-5)" fill="#FFF1F1"/>
<path d="M-48.2412 98.3741C-46.4223 96.8548 -44.6034 95.3355 -42.7845 93.8162C-41.0413 92.3578 -39.5286 91.1084 -37.6076 89.8838C-36.8192 89.3817 -35.7657 88.7365 -34.9262 88.2673C-30.5971 85.4427 -26.268 82.6197 -21.9372 79.7967C-19.1982 78.0108 -16.4592 76.2232 -13.7201 74.4372C-11.921 73.2636 -10.1169 72.0866 -8.4791 70.6974C-6.44787 68.9756 5.18478 51.6196 6.43908 50.1118C7.19132 51.0879 12.0027 55.0878 13.0611 63.0169C8.92297 66.839 -0.686684 77.1943 -5.43719 80.2099C-13.9242 85.5958 -23.6129 88.218 -32.6892 92.5388C-33.0168 92.6952 -33.3526 93.5166 -33.5485 93.8359C-34.1822 94.8729 -34.6678 95.989 -35.374 96.9832C-36.0867 97.9873 -36.9097 98.914 -37.8233 99.742C-38.2365 100.116 -38.9113 100.3 -39.1615 99.63C-39.1895 99.5807 -39.2126 99.5263 -39.2274 99.4638C-39.4265 98.7148 -39.0628 98.0317 -38.6875 97.4095C-38.2611 96.6984 -37.9253 95.9873 -37.8825 95.1462C-37.871 94.919 -37.9253 94.6705 -38.1015 94.5256C-38.2068 94.4367 -38.3467 94.4005 -38.4834 94.3758C-38.9459 94.2985 -39.3706 94.3824 -39.7689 94.552C-39.9796 94.6408 -40.1821 94.7544 -40.378 94.8812C-40.5673 94.9997 -40.7483 95.1297 -40.9277 95.2631C-41.1516 95.4293 -41.3672 95.5989 -41.5845 95.7552C-41.6273 95.7865 -41.6718 95.8178 -41.7145 95.8474C-41.7541 95.8754 -41.7952 95.9034 -41.8347 95.9314C-42.0932 96.1124 -42.3516 96.2918 -42.61 96.4713C-43.0808 96.8005 -43.5499 97.128 -44.0207 97.4556C-44.4305 97.742 -44.8421 98.0284 -45.2519 98.3148C-45.9696 98.8136 -46.7564 99.3831 -47.6403 99.5346C-48.3021 99.6481 -48.8387 98.8745 -48.2412 98.3741Z" fill="#FFCFCA"/>
<path d="M24.575 23.0292C24.2129 22.2671 23.9314 21.4523 23.7421 20.5931C22.3874 14.4516 26.2671 8.37441 32.4086 7.01971C38.55 5.66501 44.6272 9.5464 45.9819 15.6878C46.0214 15.8656 46.056 16.0434 46.0873 16.2211C48.1103 17.2203 49.6789 19.0952 50.2024 21.4704C50.3538 22.1535 50.4065 22.8366 50.3752 23.5033C52.6632 24.4185 54.4739 26.4135 55.0434 29.0011C55.9619 33.1574 53.3348 37.2709 49.1785 38.1877C48.4872 38.3392 47.7975 38.3918 47.1226 38.3573C46.1449 39.2758 44.9153 39.9523 43.5112 40.2618C41.7927 40.6403 40.0841 40.4132 38.6026 39.7235C37.7154 40.4296 36.657 40.9498 35.4751 41.2099C32.3279 41.9045 29.207 40.5663 27.4786 38.0709C23.6911 38.3885 20.1603 35.8651 19.3191 32.0529C18.4484 28.104 20.7759 24.1963 24.575 23.0292Z" fill="#AC1B35"/>
<path d="M38.0918 38.8447C37.0482 38.2916 36.1297 37.5328 35.0762 37.0011C34.9857 36.9846 34.8951 36.9698 34.7997 36.9616C33.1289 36.825 31.4648 36.578 29.7874 36.4842C29.2673 36.4562 28.7389 36.4595 28.2204 36.5254C26.5167 37.5393 24.767 38.471 22.8691 38.9401C22.0954 39.1311 21.1391 39.3401 20.1481 39.4422C19.4239 39.7664 19.0469 40.3113 19.4288 41.3055C19.7959 42.2635 20.4988 43.1277 21.1983 43.8849C21.4123 44.117 21.6362 44.3392 21.8683 44.5532C25.0567 47.465 30.7092 48.9893 34.8293 47.0963C36.9527 46.1219 38.7436 44.4676 40.067 42.6437C40.4818 42.0726 40.7781 41.4355 41.0925 40.8117C41.1172 40.7623 41.1699 40.6438 41.239 40.494C40.1855 39.9541 39.137 39.401 38.0918 38.8447Z" fill="#FFCFCA"/>
<path d="M27.1724 39.9125C27.7567 40.3652 28.504 40.5347 29.225 40.6894C30.0941 40.8787 30.9649 41.0664 31.8521 41.1273C33.5804 41.2441 35.2067 40.803 36.8989 40.4326C36.9779 39.4368 37.0602 38.4426 37.1409 37.4467C37.2396 36.2023 37.3417 34.9546 37.5672 33.725C37.6363 33.3497 37.7137 32.9744 37.8042 32.6024C38.0215 31.6756 38.2914 30.7621 38.5614 29.8452C38.782 29.0946 39.0042 28.3407 39.2264 27.5885C38.7375 27.9687 38.2914 28.1465 37.717 28.3868C35.2956 29.3991 32.8381 30.3176 30.3673 31.2049C29.625 31.4715 28.8727 31.7382 28.0909 31.8402L27.597 36.1875L27.1724 39.9125Z" fill="#FFCFCA"/>
<path d="M27.5972 36.1879C30.3082 35.7978 32.9616 35.0225 35.4258 33.8341C36.2093 33.4571 37.0225 33.0505 37.8043 32.6028C38.0216 31.6761 38.2916 30.7625 38.5615 29.8457C38.7821 29.0951 39.0043 28.3412 39.2265 27.5889C38.7377 27.9692 38.2916 28.147 37.7171 28.3873C35.2958 29.3996 32.8382 30.3181 30.3675 31.2053C29.6251 31.472 28.8729 31.7386 28.091 31.8407L27.5972 36.1879Z" fill="#F9BFBB"/>
<path d="M23.1661 28.6685C23.5101 30.1713 24.0978 31.5853 25.2714 32.6256C26.3134 33.5474 27.6533 34.1367 29.0326 34.3029C30.5585 34.4873 32.1042 34.2009 33.528 33.6017C34.2358 33.3021 34.9156 32.9268 35.5477 32.4939C36.6506 31.7351 37.625 30.8084 38.5007 29.7993C39.9213 28.1566 41.169 26.2241 41.9723 24.1484C42.8842 21.8028 43.2298 19.2728 42.6241 16.7774C42.3805 15.7601 41.964 14.7857 41.4011 13.9034C39.0242 10.18 34.1091 8.79241 30.1338 10.7232C28.0631 11.7306 26.3529 13.4754 25.2615 15.4886C24.9159 16.1272 24.5982 16.7889 24.3183 17.4671C22.8616 20.9798 22.32 24.9649 23.1661 28.6685Z" fill="#FFCFCA"/>
<path d="M37.5176 29.0455C38.5743 30.0759 40.1941 30.4924 41.613 30.0809C42.8113 29.7336 43.8203 28.8019 44.2878 27.6497C44.3734 27.439 44.4392 27.2233 44.487 26.9995C44.5709 26.611 44.5923 26.2044 44.5199 25.8143C44.3355 24.8481 43.5174 24.0514 42.5594 23.8292C41.6014 23.6053 40.5496 23.9362 39.8402 24.616L38.9463 26.3197L37.5176 29.0455Z" fill="#FFCFCA"/>
<path d="M25.9855 12.4962C26.3773 12.1834 26.7723 11.874 27.1773 11.576C27.2267 11.5382 27.281 11.5036 27.332 11.4674C27.3501 11.4542 27.3699 11.4411 27.3896 11.4262L27.3962 11.4213C27.5904 11.2946 27.783 11.1662 27.9805 11.046C28.3838 10.7991 28.8003 10.5719 29.2332 10.381C29.3073 10.3481 29.4093 10.3217 29.49 10.2822C29.6464 10.2378 29.8027 10.1966 29.9607 10.1604C30.5451 9.08885 31.5706 8.26583 32.8562 7.98106C33.9853 7.7325 35.108 7.94485 36.0281 8.49133C36.4116 8.2362 36.8462 8.04361 37.3235 7.93826C39.3712 7.48724 41.3959 8.78104 41.8469 10.8271C41.8765 10.9571 41.8979 11.0855 41.9127 11.2139C43.0551 11.7834 43.9407 12.8435 44.2386 14.1883C44.4674 15.2286 44.3044 16.2623 43.8501 17.1397C44.9793 17.5183 45.888 18.4631 46.1628 19.7108C46.5809 21.6038 45.3843 23.4754 43.493 23.8934C41.6 24.3099 39.7284 23.1149 39.312 21.2236C39.177 20.6178 39.2099 20.0154 39.3762 19.4606C37.6478 19.2236 36.1647 17.9578 35.7269 16.1735C35.4191 16.3233 35.0898 16.4418 34.7392 16.5191C33.0833 16.8829 31.4422 16.2574 30.4299 15.0344C29.9393 15.492 29.3237 15.8278 28.6209 15.9842C26.8267 16.3792 25.0506 15.4657 24.2852 13.8805C24.8481 13.4147 25.4127 12.9505 25.9855 12.4962Z" fill="#AC1B35"/>
<path d="M22.287 42.4644L22.3149 42.4594C22.175 42.4989 22.0351 42.5351 21.8936 42.5681C21.9857 42.5384 22.1783 42.4841 22.287 42.4644Z" fill="#FFCFCA"/>
<path d="M31.4619 23.2594C31.6545 23.2825 31.9393 22.9911 32.0414 22.5401C32.0957 22.3014 32.0874 22.0594 32.0183 21.8767C31.9936 21.8125 31.9261 21.6627 31.8093 21.6364L31.7912 21.6331C31.5986 21.6101 31.3138 21.9014 31.2117 22.3524C31.1574 22.5911 31.1673 22.8331 31.2348 23.0158C31.2595 23.08 31.327 23.2298 31.4438 23.2561L31.4619 23.2594Z" fill="#1F3C49"/>
<path d="M25.7109 22.3391C25.8722 22.3572 26.1636 22.1005 26.2673 21.6429C26.3183 21.4124 26.3101 21.177 26.2442 20.9992C26.1965 20.8725 26.1241 20.7886 26.0467 20.7704L26.0303 20.7671C25.8673 20.749 25.5776 21.0042 25.4739 21.4634C25.4212 21.6939 25.4294 21.9293 25.4953 22.107C25.5447 22.2338 25.6154 22.3177 25.6928 22.3358L25.7109 22.3391Z" fill="#1F3C49"/>
<path d="M28.5481 23.5706C28.4066 23.3945 28.1564 23.3072 27.9128 23.3369C27.6642 23.3615 27.4272 23.5229 27.2988 23.7401C27.1655 23.9558 27.1325 24.2405 27.2264 24.4726C27.3136 24.7014 27.5078 24.8841 27.7301 24.9269C27.5836 24.7607 27.5078 24.578 27.4848 24.4019C27.4618 24.2257 27.5045 24.0628 27.5901 23.9179C27.679 23.7731 27.8041 23.6595 27.9704 23.5969C28.1366 23.5344 28.3342 23.5179 28.5481 23.5706Z" fill="#1F3C49"/>
<path d="M33.1538 19.9013C33.19 19.903 33.2262 19.8881 33.2526 19.8602C33.3053 19.8075 33.302 19.7219 33.2493 19.6709C32.8559 19.2939 32.2946 19.0898 31.7514 19.1227C31.6773 19.1277 31.6213 19.1902 31.6263 19.2643C31.6296 19.34 31.6938 19.396 31.7678 19.391C32.2386 19.3614 32.7225 19.5392 33.0633 19.8651C33.088 19.8898 33.1209 19.9013 33.1538 19.9013Z" fill="#1F3C49"/>
<path d="M27.3669 18.8118C27.3965 18.802 27.4245 18.7838 27.4426 18.7542C27.4821 18.6917 27.464 18.6094 27.4014 18.5682C26.9883 18.3016 26.4533 18.211 25.9743 18.3262C25.9035 18.3444 25.8574 18.4168 25.8755 18.4892C25.892 18.5616 25.9644 18.6061 26.0369 18.588C26.4467 18.4892 26.9027 18.5666 27.2566 18.7954C27.2895 18.8168 27.3307 18.8217 27.3669 18.8118Z" fill="#1F3C49"/>
<path d="M31.6564 21.9244C31.9428 21.8849 32.007 22.3277 31.7206 22.3688C31.4342 22.41 31.3716 21.9656 31.6564 21.9244Z" fill="white"/>
<path d="M25.8143 20.9928C26.1007 20.9516 26.1633 21.396 25.8785 21.4372C25.5921 21.4783 25.5279 21.0339 25.8143 20.9928Z" fill="white"/>
<path d="M25.3733 25.6857C25.3387 26.27 25.4655 26.8198 25.7107 27.2823C26.1058 28.0231 26.8037 28.535 27.6251 28.5844C28.4679 28.6354 29.2382 28.1893 29.7139 27.47C29.9954 27.0502 30.1748 26.5367 30.2094 25.9754C30.2094 25.9556 30.2078 25.9342 30.2094 25.9145L25.3799 25.6231C25.3782 25.6445 25.3749 25.6659 25.3733 25.6857Z" fill="#D55454"/>
<path d="M25.5757 25.6362C26.0827 26.242 26.8547 26.6502 27.7386 26.7029C28.6225 26.7572 29.4373 26.4428 30.0134 25.9012L25.5757 25.6362Z" fill="white"/>
<path d="M25.7109 27.2823C26.106 28.0231 26.8039 28.535 27.6253 28.5844C28.4681 28.6354 29.2384 28.1893 29.7141 27.47C28.901 27.2395 28.0533 27.126 27.2072 27.1358C26.7052 27.1424 26.2048 27.1918 25.7109 27.2823Z" fill="#F37C7C"/>
<path d="M31.0783 25.2131C30.9943 25.9455 31.7318 26.6336 32.7276 26.7488C33.7219 26.864 34.5976 26.3636 34.6831 25.6295C34.7687 24.897 34.0297 24.209 33.0338 24.0937C32.0396 23.9785 31.1639 24.4806 31.0783 25.2131Z" fill="#F9BFBB"/>
<path d="M23.3668 23.3398C23.3092 23.8353 23.808 24.2995 24.4796 24.3768C25.1528 24.4542 25.7437 24.1168 25.8013 23.6213C25.8573 23.1275 25.3602 22.6616 24.687 22.5843C24.0154 22.5069 23.4244 22.8444 23.3668 23.3398Z" fill="#F9BFBB"/>
<path d="M53.3657 117.682C53.3262 115.88 52.7106 111.656 52.9822 108.443C54.1179 100.048 58.6643 86.06 58.4257 79.9959C58.1969 74.1574 55.7706 68.6497 54.3319 62.9873C53.5221 59.7972 52.9723 56.5347 51.8629 53.4369C51.5715 52.6204 51.239 51.8188 50.8571 51.0402C49.6374 48.5596 47.9321 46.6255 45.7543 44.9383C43.9437 43.5358 41.9339 42.3918 39.8039 41.5556L38.6187 50.1645C38.6401 50.153 38.6599 50.1448 38.6796 50.1332C38.2813 52.6138 39.1981 55.0994 40.1248 57.4351C42.7766 64.1115 45.6408 70.7023 48.7156 77.1943C49.216 78.2495 49.7263 79.3194 49.9041 80.4733C50.0423 81.3753 49.9699 82.2955 49.8975 83.2057C49.2176 91.7981 48.6679 99.1296 48.3847 107.811C48.1395 108.479 47.2111 110.482 46.7947 111.887C46.5445 112.731 46.2959 113.575 46.1395 114.441C45.8976 115.801 46.1889 117.177 46.1938 118.551C46.1955 118.839 46.1905 119.131 46.2564 119.411C46.5626 120.718 47.9337 120.066 48.3107 119.172C48.3452 119.088 48.3765 119.001 48.3979 118.915C48.4292 118.807 48.4489 118.695 48.4638 118.583C48.5164 118.171 48.4802 117.74 48.472 117.328C48.467 117.021 48.472 116.709 48.5411 116.408C48.6004 116.155 48.6366 115.806 48.9214 115.704C49.1831 115.61 49.5633 115.74 49.7822 115.883C50.044 116.054 50.2234 116.311 50.3551 116.598C50.383 116.657 50.4077 116.714 50.4308 116.775C50.495 116.932 50.5477 117.096 50.5954 117.256C50.7715 117.834 50.9098 118.418 51.0711 118.998C51.2966 119.802 51.4069 120.586 51.2489 121.414C51.0859 122.255 50.7419 123.047 50.444 123.848C50.1263 124.708 49.6456 125.86 50.1147 126.742C50.332 127.149 50.9147 127.134 51.2094 126.828C51.3723 126.657 51.4645 126.431 51.5534 126.214C52.1229 124.816 52.7188 123.429 53.0842 121.959C53.4282 120.573 53.3937 119.101 53.3657 117.682Z" fill="#FFCFCA"/>
<path d="M55.6704 62.1703C50.4887 66.083 47.7677 68.208 44.1053 69.7817L44.097 69.8031C43.7596 70.8286 43.4156 71.8919 43.0666 72.9783C42.9728 73.2746 42.8757 73.5758 42.7802 73.8754C42.3802 75.133 41.9769 76.4185 41.5786 77.7173C36.6404 79.2267 17.719 82.2604 15.2368 82.5912C14.9849 81.2234 14.7397 79.9065 14.4944 78.4383C13.9529 75.1955 13.408 71.222 12.7858 64.3678C12.7743 64.3925 12.7611 64.4188 12.748 64.4485C12.5175 64.9209 12.0566 65.9134 11.2698 67.5167C11.1661 67.729 11.0558 67.9513 10.9406 68.185C8.69209 66.1636 0.644531 57.0099 0.644531 57.0099C0.644531 57.0099 6.08804 47.532 10.4204 44.3172C15.8327 40.3009 23.5477 38.4079 23.5477 38.4079C23.5477 38.4079 25.4357 40.3864 26.0069 40.8177C27.6727 42.0786 29.4258 42.7469 31.5113 42.8769C34.5796 43.0695 37.8124 41.644 39.6181 39.0367C46.6418 41.8975 51.6722 45.2686 55.6704 62.1703Z" fill="#FF6B6B"/>
<path d="M11.2695 67.5173C12.0563 65.914 12.5172 64.9214 12.7476 64.449C12.6209 63.0038 12.6834 61.5405 12.9369 60.1067C12.0513 61.5141 11.3995 63.0647 11.1789 64.6778C11.0489 65.621 11.0719 66.5873 11.2695 67.5173Z" fill="#F98080"/>
<path d="M44.0972 69.8037C43.7597 70.8292 43.4157 71.8925 43.0668 72.9789C41.1771 69.8646 40.4808 66.0573 41.0783 62.4475C41.5754 65.0697 42.6092 67.5881 44.0972 69.8037Z" fill="#F98080"/>
</g>
</g>
<defs>
<clipPath id="clip0_1065_49893">
<rect width="64" height="64" rx="32" fill="white"/>
</clipPath>
<clipPath id="clip1_1065_49893">
<rect width="75" height="75" fill="white" transform="translate(-5)"/>
</clipPath>
</defs>
</svg>
