<svg width="64" height="64" viewBox="0 0 64 64" fill="none" xmlns="http://www.w3.org/2000/svg">
<g clip-path="url(#clip0_1065_49892)">
<rect width="64" height="64" rx="32" fill="#FFF1F1"/>
<g clip-path="url(#clip1_1065_49892)">
<rect width="72" height="72" transform="translate(-4)" fill="#FFF1F1"/>
<path d="M82.9739 118.751C82.0953 116.55 81.2151 114.349 80.3365 112.146C79.4927 110.035 78.7563 108.214 77.647 106.225C77.1903 105.408 76.5693 104.338 76.0525 103.526C73.5827 98.9828 71.1128 94.4397 68.6414 89.8966C67.0785 87.0222 65.5157 84.1478 63.9529 81.2734C62.9257 79.385 61.897 77.4904 61.1148 75.4898C60.1461 73.0089 59.5678 70.3952 59.0447 67.7831C58.6576 65.8632 58.2973 63.9322 57.9102 62.009C56.7835 62.51 55.6583 63.0156 54.5395 63.5371C52.1408 64.6559 49.7547 65.8221 47.3433 66.9235C49.17 72.2567 51.1658 77.5077 53.9169 82.419C58.8298 91.1955 66.1146 98.1074 72.053 106.225C72.2679 106.519 72.1731 107.401 72.1937 107.775C72.2584 108.99 72.1573 110.202 72.3059 111.413C72.456 112.637 72.7404 113.845 73.1513 115.006C73.3378 115.532 73.845 116.016 74.3822 115.543C74.4312 115.513 74.4771 115.477 74.5197 115.428C75.0523 114.864 75.0554 114.091 75.0207 113.364C74.9827 112.535 75.0254 111.749 75.3873 110.989C75.4853 110.784 75.6512 110.589 75.874 110.547C76.0099 110.518 76.1505 110.553 76.2833 110.596C76.7257 110.747 77.0607 111.022 77.3309 111.362C77.4732 111.539 77.5996 111.735 77.7118 111.941C77.8208 112.135 77.9188 112.336 78.0136 112.538C78.1305 112.791 78.2411 113.044 78.3581 113.282C78.3802 113.333 78.4039 113.38 78.4292 113.428C78.4497 113.47 78.4734 113.514 78.494 113.559C78.6362 113.84 78.7784 114.12 78.9206 114.403C79.1782 114.915 79.4358 115.426 79.6949 115.94C79.9193 116.386 80.1453 116.833 80.3697 117.28C80.7647 118.061 81.1866 118.936 81.893 119.489C82.4208 119.903 83.2631 119.478 82.9739 118.751Z" fill="#FFCFCA"/>
<path d="M17.0616 48.4147C9.17954 48.4131 1.63086 73.3046 1.43807 73.627C1.27373 73.9035 -14.4067 96.9904 -14.4525 97.0457C-14.4525 97.0457 -19.7747 102.401 -21.0752 104.011C-21.9522 105.103 -22.8687 106.231 -23.4297 107.521C-24.0239 108.886 -24.3873 110.326 -24.7761 111.759C-24.8377 111.983 -24.8993 112.214 -24.8724 112.445C-24.8219 112.86 -24.3652 113.222 -23.948 113.033C-23.0426 112.627 -22.7312 111.44 -22.4658 110.577C-22.2193 109.773 -22.017 108.949 -21.6377 108.196C-21.2664 107.453 -20.7054 106.908 -20.0401 106.415C-19.5613 106.058 -19.0999 105.686 -18.6101 105.34C-18.4252 105.207 -18.2292 105.075 -18.0238 104.97C-17.7457 104.827 -17.4486 104.732 -17.1357 104.756C-16.875 104.776 -16.4957 104.901 -16.3424 105.132C-16.1749 105.381 -16.3582 105.677 -16.4625 105.909C-16.5905 106.186 -16.7739 106.431 -16.9635 106.669C-17.2874 107.072 -17.6651 107.47 -17.861 107.952C-17.8958 108.034 -17.9242 108.118 -17.9464 108.205C-18.185 109.128 -17.4865 110.46 -16.4546 109.624C-16.2318 109.446 -16.0596 109.215 -15.8858 108.991C-15.0546 107.921 -13.9911 107.022 -13.3669 105.813C-12.9671 105.043 -12.6558 104.234 -12.3477 103.427C-11.7693 101.919 -11.5197 101.01 -11.409 100.288L-11.4075 100.285L-11.3901 100.257C-11.2668 100.16 3.01039 87.3606 11.4234 75.8914C13.3955 73.2035 18.2278 62.6303 20.5665 54.9568C21.0485 53.375 18.5328 49.9412 17.0616 48.4147Z" fill="#FFCFCA"/>
<path d="M28.4268 30.6688C30.8098 31.8855 33.237 33.0122 35.68 34.1073C36.4148 34.436 37.1575 34.7662 37.946 34.9306L38.1088 39.3899L38.2494 43.2109C38.1056 43.3057 37.9524 43.3847 37.7943 43.4511C37.0722 45.2841 35.2881 46.5815 33.1975 46.5815C30.9489 46.5815 29.0526 45.0787 28.4553 43.0229C28.4095 43.0086 28.3652 42.9944 28.3194 42.9818C28.3194 42.789 28.3178 42.5962 28.3178 42.4034C28.2783 42.1553 28.2578 41.9009 28.2578 41.6417C28.2578 41.3984 28.2767 41.1598 28.3115 40.9243C28.3099 40.5925 28.3083 40.2591 28.3068 39.9256C28.302 38.652 28.2957 37.3768 28.163 36.1094C28.1219 35.7207 28.0713 35.3335 28.0081 34.948C27.8595 33.9888 27.6573 33.0375 27.455 32.0862C27.2875 31.304 27.1216 30.5202 26.9541 29.7396C27.4218 30.1647 27.8611 30.3796 28.4268 30.6688Z" fill="#FFCFCA"/>
<path d="M42.8685 22.9941C42.6156 26.0929 41.263 29.1048 39.0507 31.2886C38.0378 32.2873 36.8463 33.1169 35.522 33.6321C34.0667 34.1978 32.4801 34.3748 30.9221 34.2942C30.0008 34.2452 29.0732 34.1061 28.2294 33.7395C27.2165 33.2987 26.3695 32.5528 25.5809 31.7801C24.233 30.4574 22.991 29.01 22.0681 27.3618C21.1469 25.7152 20.5543 23.8569 20.5606 21.9685C20.5622 21.3286 20.6349 20.6775 20.883 20.0865C21.2132 19.2996 21.828 18.6706 22.4585 18.097C24.5428 16.1976 26.9873 14.6427 29.7037 13.8889C32.5133 13.1099 35.481 13.2142 38.3933 13.3264C39.1312 13.3532 39.8044 13.4986 40.397 13.9616C40.8805 14.3393 41.146 14.9793 41.4115 15.5181C42.1415 17.0035 42.6219 18.6138 42.8163 20.2588C42.9238 21.1658 42.9427 22.0839 42.8685 22.9941Z" fill="#534741"/>
<path d="M38.1088 39.3906C35.3829 38.7822 32.744 37.7867 30.3326 36.3867C29.5646 35.9426 28.7682 35.4654 28.0081 34.9487C27.8596 33.9895 27.6573 33.0382 27.455 32.0869C27.2875 31.3047 27.1216 30.5209 26.9541 29.7403C27.4218 30.1654 27.8611 30.3803 28.4268 30.6694C30.8098 31.8862 33.237 33.0129 35.68 34.108C36.4148 34.4367 37.1575 34.7669 37.946 34.9313L38.1088 39.3906Z" fill="#F9BFBB"/>
<path d="M42.5429 21.5351C42.3722 20.8462 42.1636 20.1667 41.9219 19.5061C41.1618 17.4218 39.7522 15.5035 37.8765 14.2345C34.2721 11.801 29.2375 12.3968 26.3315 15.5998C25.6425 16.3584 25.0832 17.2275 24.6881 18.1614C23.7099 20.4543 23.6578 22.921 24.1919 25.296C24.6596 27.3977 25.5857 29.4267 26.7266 31.206C27.4298 32.2979 28.2436 33.3282 29.2091 34.2163C29.7606 34.7236 30.3705 35.1834 31.02 35.5721C32.3237 36.3559 33.7949 36.86 35.3213 36.9106C36.7009 36.9548 38.1057 36.5914 39.2703 35.8661C40.5834 35.0459 41.3767 33.7849 41.9472 32.4007C43.3472 28.989 43.431 25.1048 42.5429 21.5351Z" fill="#FFCFCA"/>
<path d="M27.3595 30.4777C26.0479 31.1335 24.3887 31.0387 23.1704 30.2185C22.1416 29.528 21.4701 28.3428 21.3752 27.1103C21.3594 26.8859 21.361 26.6615 21.3831 26.4355C21.4226 26.0421 21.5238 25.6517 21.7102 25.3041C22.178 24.446 23.1941 23.9404 24.1659 24.0178C25.1409 24.0984 26.0368 24.7273 26.5014 25.5869L26.8317 27.4674L27.3595 30.4777Z" fill="#FFCFCA"/>
<path d="M31.4703 18.936C33.6715 18.522 35.8775 18.0306 37.9618 17.2499C39.6558 16.6179 41.5299 15.3995 41.9834 13.568C42.5507 11.2752 40.6244 9.51796 38.706 8.61882C34.9625 6.86479 30.3341 7.17451 26.9161 9.53851C24.8413 10.9718 23.28 13.1066 22.5626 15.488C22.1518 16.8549 21.9811 18.9218 23.5898 19.5555C25.4591 20.2934 27.771 19.6013 29.6688 19.2647C30.2661 19.1573 30.8682 19.0498 31.4703 18.936Z" fill="#534741"/>
<path d="M18.8306 19.4162C19.0218 17.9987 19.6476 16.6887 20.8027 15.9539C22.4793 14.8873 25.0171 15.1875 26.0364 17.0127C26.7016 18.2041 26.7127 19.7227 26.531 21.0422C26.4472 21.6585 26.2845 22.2748 25.9542 22.8089C25.733 23.1676 24.984 24.0936 24.4846 24.0209C24.3171 23.9956 24.1433 23.9735 23.9995 23.9624C23.9711 23.9593 23.9426 23.9577 23.9142 23.9577C23.4022 23.9593 22.925 24.0889 22.4825 24.3448C22.1522 24.5234 21.8867 24.7668 21.6876 25.0749C21.0587 25.7623 20.1122 24.5756 19.7787 24.0746C18.9728 22.861 18.6062 21.0659 18.8306 19.4162Z" fill="#534741"/>
<path d="M51.5801 70.9262C51.5595 70.9341 51.5406 70.9452 51.52 70.9531C52.1237 81.0364 52.4761 101.145 53.2472 109.633C41.4794 108.908 24.0591 109.569 13.7119 108.311C13.4322 103.137 13.7088 90.9032 15.1341 74.714C15.2732 73.1243 15.4343 71.4919 15.6192 69.8232C15.6255 69.7711 15.6303 69.7205 15.6366 69.6668L15.6145 69.6526C14.0817 68.6049 12.3719 67.6631 10.6574 66.7371C8.26967 65.4476 5.87407 64.1914 3.92409 62.7297C3.75343 62.6001 6.18853 58.4204 6.29441 58.2008C9.61601 51.2826 15.3522 43.9504 23.2485 42.258C23.7131 42.1585 28.2546 41.6418 28.2625 41.4363C28.2609 41.5043 28.2593 41.5722 28.2593 41.6418C28.2593 44.3708 30.47 46.5815 33.1991 46.5815C35.9265 46.5815 38.1372 44.3708 38.1372 41.6418C38.1372 41.5754 38.1356 41.509 38.1325 41.4442C42.2742 42.2865 46.2263 44.1559 49.4326 46.8833C52.3465 49.3611 54.6646 52.512 56.1943 56.0138C56.4787 56.6617 56.7411 57.319 56.9892 57.9827C58.0147 60.7418 58.8127 63.5782 59.6724 66.3894C58.6389 67.1527 57.4995 67.8875 56.297 68.5812C54.7974 69.4456 53.1966 70.242 51.5801 70.9262Z" fill="#FF6B6B"/>
<path d="M51.4508 61.6585C51.6325 64.7447 51.4128 67.8419 51.5804 70.9265C53.1969 70.2406 54.7961 69.4458 56.2973 68.5814C55.572 67.8229 54.9431 66.9696 54.4342 66.0468C53.2175 63.8408 52.715 61.3267 52.0434 58.8995C51.3702 56.4707 50.4995 54.1573 48.6807 52.4111C50.5706 55.0706 51.258 58.4049 51.4508 61.6585Z" fill="#DD5050"/>
<path d="M32.7555 21.0233C32.9514 21.0028 33.1473 21.0186 33.3433 21.0344C33.6878 21.0629 34.0338 21.0913 34.3799 21.1197C34.4937 21.1292 34.6375 21.1229 34.688 21.0186C34.7117 20.968 34.7039 20.9064 34.6817 20.8543C34.598 20.6536 34.3531 20.5872 34.1381 20.5588C33.6072 20.4924 33.0446 20.5287 32.5469 20.7389C32.4489 20.78 31.8927 21.0344 31.9322 21.1656C31.9669 21.2809 32.6448 21.0344 32.7555 21.0233Z" fill="#211A17"/>
<path d="M40.2941 20.7894C40.0982 20.7831 39.9038 20.8131 39.7095 20.8431C39.3666 20.8968 39.0237 20.9506 38.6823 21.0043C38.5686 21.0217 38.4247 21.0264 38.3679 20.9269C38.3394 20.8763 38.3426 20.8147 38.36 20.7609C38.4295 20.5555 38.6697 20.4702 38.8814 20.4275C39.4061 20.3216 39.9702 20.3169 40.4822 20.4907C40.5817 20.5239 41.1569 20.7372 41.1269 20.87C41.1 20.9885 40.4063 20.7926 40.2941 20.7894Z" fill="#211A17"/>
<path d="M39.6794 29.8787C39.2922 30.8869 38.5796 31.5822 37.7152 31.6533C36.8824 31.7228 36.0923 31.1966 35.5455 30.3243C35.171 29.7254 34.9103 28.9653 34.8281 28.1199L34.9909 28.1057L39.8042 27.7091L39.9828 27.6949C40.0381 28.4944 39.9227 29.2482 39.6794 29.8787Z" fill="#CE7872"/>
<path d="M39.804 27.709C39.2699 28.5181 38.4514 29.0632 37.4985 29.1423C36.5456 29.2213 35.6513 28.8167 34.9907 28.1056L39.804 27.709Z" fill="white"/>
<path d="M39.6792 29.8787C39.2921 30.8869 38.5794 31.5822 37.7151 31.6533C36.8823 31.7228 36.0922 31.1966 35.5454 30.3243C35.7809 30.1695 36.0258 30.0336 36.2834 29.9198C37.0245 29.5895 37.8573 29.4457 38.6584 29.5737C39.0156 29.6306 39.3537 29.7365 39.6792 29.8787Z" fill="#EA8C8B"/>
<path d="M34.6622 24.1408C34.6827 24.7966 34.3225 25.3402 33.8595 25.3528C33.3964 25.367 33.0061 24.8471 32.9856 24.1913C32.9666 23.534 33.3253 22.992 33.7883 22.9777C34.2513 22.9635 34.6432 23.485 34.6622 24.1408Z" fill="#211A17"/>
<path d="M34.0553 23.76C33.7851 23.7679 33.7978 24.1866 34.068 24.1787C34.3382 24.1708 34.3255 23.7521 34.0553 23.76Z" fill="white"/>
<path d="M39.1356 24.0068C39.1546 24.6626 39.5465 25.1825 40.0095 25.1682C40.4725 25.154 40.8312 24.612 40.8122 23.9562C40.7917 23.2988 40.4014 22.779 39.9384 22.7932C39.4754 22.8074 39.1151 23.3494 39.1356 24.0068Z" fill="#211A17"/>
<path d="M40.2212 23.4503C39.9526 23.4582 39.9637 23.8769 40.2339 23.869C40.5041 23.8611 40.4915 23.4408 40.2212 23.4503Z" fill="white"/>
<path d="M37.7026 25.4812C37.4292 25.2678 37.0042 25.2742 36.7466 25.5065L37.494 26.7991C37.7026 26.7864 37.8733 26.6126 37.9491 26.4182C38.0771 26.0959 37.976 25.6945 37.7026 25.4812Z" fill="#CE7872"/>
<path d="M31.1002 25.5536C29.8677 25.639 28.9243 26.5191 28.9938 27.521C29.0634 28.5228 30.1189 29.2655 31.3515 29.1802C32.5841 29.0949 33.5275 28.2131 33.4579 27.2113C33.3884 26.2094 32.3328 25.4683 31.1002 25.5536Z" fill="#F9BFBB"/>
<path d="M42.9642 26.1603C42.9263 25.5993 42.3337 25.1821 41.6416 25.2295C40.9495 25.2785 40.4201 25.7731 40.4596 26.3341C40.4991 26.8966 41.0917 27.3138 41.7822 27.2648C42.4744 27.2174 43.0037 26.7228 42.9642 26.1603Z" fill="#F9BFBB"/>
<path d="M17.5106 57.5361C16.5735 61.5182 15.9399 65.5746 15.6143 69.6531C14.0815 68.6055 12.3718 67.6637 10.6572 66.7376C11.1661 66.3837 11.6607 66.0092 12.1395 65.6125C13.8524 64.1888 15.3457 62.4474 16.2196 60.3978C16.6446 59.3928 16.8358 58.3926 17.5106 57.5361Z" fill="#DD5050"/>
</g>
</g>
<defs>
<clipPath id="clip0_1065_49892">
<rect width="64" height="64" rx="32" fill="white"/>
</clipPath>
<clipPath id="clip1_1065_49892">
<rect width="72" height="72" fill="white" transform="translate(-4)"/>
</clipPath>
</defs>
</svg>
