<svg width="200" height="200" viewBox="0 0 200 200" fill="none" xmlns="http://www.w3.org/2000/svg">
<g clip-path="url(#clip0_1065_49919)">
<rect width="200" height="200" fill="#EFF9FF"/>
<path d="M134.739 44.6574C136.756 57.6019 130.129 69.3833 119.937 70.9723C109.745 72.5613 99.8476 63.3522 97.8302 50.4076C95.8133 37.4586 102.44 25.6773 112.632 24.0883C122.824 22.4993 132.722 31.7084 134.739 44.6574Z" fill="#603813"/>
<path d="M84.0371 103.695L121.391 105.21L110.716 127.32L87.5706 126.398L84.0371 103.695Z" fill="black"/>
<path d="M31.7536 329.302C43.5336 338.19 172.38 337.049 172.293 330.728C172.079 315.317 169.702 298.667 167.492 282.374C166.241 273.16 165.044 264.065 164.324 255.37C162.623 234.888 156.873 170.354 156.063 158.942C155.541 151.497 154.236 134.615 154.082 132.605C153.136 131.938 152.17 131.301 151.188 130.691L151.097 130.638C150.375 130.213 149.545 129.725 148.65 129.212L148.629 129.199C144.79 126.96 139.749 124.116 136.416 122.535C128.081 118.576 119.514 116.157 110.503 114.858C95.5046 112.699 80.6374 115.306 69.719 118.352C59.9204 121.087 53.2958 124.177 52.6001 124.511C52.5592 124.528 52.5391 124.537 52.5391 124.537C52.5391 124.537 58.7835 127.215 60.4577 137.499C67.5805 181.245 46.0852 216.066 46.0852 216.066C46.0852 216.066 40.6462 254.149 37.4981 273.573C35.4978 285.903 30.1071 328.059 31.7536 329.302Z" fill="#DEF2FF"/>
<path d="M83.4121 83.0473C83.8212 85.3123 84.2215 87.5816 84.6262 89.8422C84.653 89.9783 84.675 90.1187 84.6973 90.2504C84.7088 90.3163 84.7211 90.3733 84.7325 90.4348C85.2697 93.4372 85.8026 96.4352 86.17 99.4508C86.3232 100.658 86.4444 101.878 86.53 103.098C86.6283 104.459 86.6818 105.833 86.6954 107.198C86.7345 109.819 86.663 112.439 86.5826 115.051C86.5374 116.53 86.5159 118.005 86.5054 119.484C86.4931 121.192 85.7666 123.04 86.4628 124.699C87.3438 126.797 89.3581 127.886 91.1328 129.119C93.0654 130.462 95.1698 131.56 97.3737 132.385C101.697 134.005 106.575 134.606 111.048 133.232C119.6 130.607 117.333 121.205 117.304 114.397L117.295 112.514L117.282 107.527L117.255 100.434C114.81 99.8326 112.52 98.7221 110.252 97.6204C102.728 93.9376 95.2518 90.167 87.9232 86.1068C87.7256 85.9971 87.5373 85.8917 87.3525 85.7907C85.8794 84.9699 84.6736 84.272 83.4121 83.0473Z" fill="#FFCFCA"/>
<path d="M117.305 114.397C108.837 112.211 100.689 108.822 93.2893 104.191C90.9356 102.721 88.4946 101.145 86.1717 99.4505C85.8065 96.4349 85.2701 93.4413 84.7355 90.4389C84.2952 87.9764 83.8563 85.5095 83.416 83.047C84.8334 84.4253 86.1867 85.1452 87.9258 86.1065C95.2522 90.1624 102.729 93.9417 110.255 97.6201C112.523 98.7262 114.811 99.8324 117.259 100.434L117.305 114.397Z" fill="#F9BFBB"/>
<path d="M87.9101 84.8994C84.0478 87.5945 78.7255 88.0642 74.4721 86.0275C70.8785 84.3112 68.1868 80.8567 67.3142 76.9764C67.1575 76.274 67.0601 75.5585 67.0245 74.8299C66.9657 73.5613 67.1053 72.2708 67.5376 71.0769C68.6214 68.1315 71.6163 66.0509 74.7451 65.8446C77.8805 65.6427 81.023 67.2317 82.9039 69.7425L84.8282 75.5717L87.9101 84.8994Z" fill="#FFCFCA"/>
<path d="M89.0845 351.547C85.0462 357.605 43.3615 339.604 29.5202 333.88C19.036 329.543 22.8421 323.314 23.9675 315.202C27.2789 291.302 31.2923 270.72 35.2397 248.715C36.7435 240.322 38.243 231.719 39.6915 222.655C39.7521 222.282 39.8078 221.913 39.8684 221.54C38.1016 227.369 34.8912 239.352 33.5585 243.522C25.9871 267.247 13.8722 323.279 1.25244 325.298C-0.922987 325.645 -24.9303 317.2 -26.0056 314.193C-33.5773 292.992 -10.1049 215.276 -6.3191 205.663C0.243168 189.005 20.9743 146.124 26.4915 139.031C37.0921 125.402 71.4827 117.4 73.1841 116.921C78.1411 115.516 83.1429 114.248 88.1759 113.129C93.158 124.949 94.3848 136.582 95.6569 149.342C102.436 217.44 92.2599 346.78 89.0845 351.547Z" fill="#00AEFF"/>
<path d="M100.19 127.926L99.8219 129.853L99.4537 131.81L98.8374 135.037L98.4744 136.964L97.4595 142.284L97.1062 144.145L95.8139 150.94L74.9512 116.315L76.4001 114.305L77.3944 112.922L79.1409 110.495L80.1303 109.125L81.6197 107.058L82.5937 105.702L84.0374 103.696L100.19 127.926Z" fill="#363740"/>
<path d="M99.8214 129.852L99.4531 131.81C96.1768 127.653 92.9765 123.443 89.8468 119.186C86.9646 115.261 83.9109 111.368 81.6191 107.057L82.5932 105.701C83.7441 107.953 85.1373 110.064 86.6065 112.132C90.877 118.141 95.2836 124.045 99.8214 129.852Z" fill="white"/>
<path d="M98.8371 135.036L98.4741 136.963C94.7536 132.569 91.0993 128.118 87.6259 123.536C84.4914 119.401 81.5487 115.095 79.1406 110.495L80.13 109.125C81.2506 111.324 82.4977 113.462 83.8352 115.538C87.4899 121.222 91.7705 126.477 96.0559 131.687C96.9746 132.806 97.9034 133.926 98.8371 135.036Z" fill="white"/>
<path d="M97.4598 142.284L97.1064 144.145C92.7806 139.435 88.7928 134.413 85.1833 129.133C83.0583 126.025 81.0646 122.825 79.2119 119.542C78.2729 117.887 77.3744 116.21 76.5114 114.52C76.4763 114.45 76.4355 114.375 76.4004 114.305L77.3946 112.922C77.6523 113.418 77.9047 113.923 78.1619 114.424C79.1364 116.307 80.1508 118.159 81.2108 119.994C84.9564 126.46 89.2471 132.609 94.0325 138.342C95.1478 139.681 96.2939 140.997 97.4598 142.284Z" fill="white"/>
<path d="M43.152 232.922C40.956 238.294 38.3565 243.715 35.2422 248.715C36.746 240.322 38.2455 231.719 39.694 222.655C40.618 220.57 49.598 199.865 52.2378 178.404C53.2474 204.653 47.6951 221.816 43.152 232.922Z" fill="#0081BC"/>
<path d="M271.312 204.654C262.1 217.55 194.187 290.973 173.384 248.065C173.082 247.438 172.708 246.49 172.284 245.309C170.038 239.076 166.434 226.438 164.95 221.54C165.01 221.913 165.065 222.282 165.126 222.655C165.242 223.392 165.364 224.125 165.479 224.854C166.817 233.119 168.195 241.003 169.578 248.715C173.526 270.72 177.539 291.302 180.85 315.202C181.975 323.314 185.782 329.543 175.297 333.88C161.456 339.604 119.771 357.605 115.733 351.547C113.719 348.527 115.36 294.769 113.82 238.979C112.932 206.734 106.678 174.283 109.161 149.342C110.433 136.582 111.66 124.949 116.642 113.129C121.675 114.248 126.677 115.516 131.634 116.921C133.335 117.4 167.726 125.402 178.326 139.031C183.843 146.124 207.709 205.158 207.709 205.158C207.709 205.158 228.138 189.914 252.635 179.414C256.169 177.9 273.836 201.12 271.312 204.654Z" fill="#00AEFF"/>
<path d="M104.627 127.926L104.995 129.853L105.364 131.81L105.98 135.037L106.343 136.964L107.358 142.284L107.711 144.145L109.003 150.94L129.866 116.315L128.417 114.305L127.423 112.922L125.676 110.495L124.687 109.125L123.198 107.058L122.223 105.702L120.78 103.696L104.627 127.926Z" fill="#363740"/>
<path d="M104.996 129.852L105.365 131.81C108.641 127.653 111.841 123.443 114.971 119.186C117.853 115.261 120.907 111.368 123.198 107.057L122.224 105.701C121.073 107.953 119.68 110.064 118.211 112.132C113.941 118.141 109.534 124.045 104.996 129.852Z" fill="white"/>
<path d="M105.98 135.036L106.344 136.963C110.064 132.569 113.719 128.118 117.192 123.536C120.327 119.401 123.269 115.095 125.677 110.495L124.688 109.125C123.567 111.324 122.32 113.462 120.982 115.538C117.328 121.222 113.047 126.477 108.762 131.687C107.843 132.806 106.914 133.926 105.98 135.036Z" fill="white"/>
<path d="M107.359 142.284L107.713 144.145C112.039 139.435 116.027 134.413 119.636 129.133C121.761 126.025 123.755 122.825 125.607 119.542C126.546 117.887 127.445 116.21 128.308 114.52C128.343 114.45 128.384 114.375 128.419 114.305L127.425 112.922C127.167 113.418 126.914 113.923 126.657 114.424C125.683 116.307 124.668 118.159 123.608 119.994C119.863 126.46 115.572 132.609 110.787 138.342C109.671 139.681 108.526 140.997 107.359 142.284Z" fill="white"/>
<path d="M131.814 91.7473C129.948 96.3036 127.361 100.447 123.122 103.116C119.362 105.478 114.836 106.636 110.404 106.443C105.5 106.228 100.784 104.516 96.6118 101.891C94.5352 100.579 92.5906 99.047 90.8296 97.3483C87.7504 94.3898 85.1619 90.9616 82.9316 87.3271C79.3099 81.4145 76.386 74.6811 74.9388 67.7238C73.2879 59.8622 73.5162 51.7109 76.7205 44.1698C78.018 41.0928 79.8348 38.2396 82.0713 35.7552C91.4937 25.2643 107.693 23.4559 119.209 31.6028C125.208 35.8562 129.683 42.2384 132.073 49.1519C132.832 51.3422 133.485 53.5897 134.015 55.8722C136.775 67.693 136.406 80.5235 131.814 91.7473Z" fill="#FFCFCA"/>
<path d="M107.98 70.6694C107.362 70.7001 106.511 69.7213 106.275 68.2596C106.151 67.4914 106.226 66.7232 106.481 66.1526C106.569 65.9551 106.815 65.4854 107.193 65.4284L107.251 65.4196C107.869 65.3889 108.721 66.3721 108.955 67.8294C109.08 68.5976 109.005 69.3657 108.75 69.9408C108.662 70.1383 108.416 70.6036 108.038 70.665L107.98 70.6694Z" fill="#1F3C49"/>
<path d="M126.487 68.8736C125.965 68.9 125.09 68.0308 124.852 66.5472C124.731 65.801 124.804 65.0592 125.051 64.5061C125.228 64.1067 125.474 63.8521 125.725 63.8126L125.779 63.8082C126.301 63.7819 127.175 64.651 127.414 66.1346C127.534 66.8808 127.462 67.6227 127.215 68.1757C127.037 68.5752 126.791 68.8297 126.541 68.8693L126.487 68.8736Z" fill="#1F3C49"/>
<path d="M117.199 72.2363C117.683 71.7052 118.501 71.4769 119.273 71.6174C120.059 71.7491 120.783 72.3066 121.147 73.0264C121.529 73.7375 121.576 74.6505 121.233 75.3704C120.907 76.0859 120.252 76.6258 119.538 76.718C120.037 76.2176 120.316 75.6557 120.422 75.0939C120.529 74.5408 120.428 74.0097 120.182 73.5312C119.931 73.0528 119.552 72.6665 119.036 72.4382C118.517 72.2056 117.894 72.1134 117.199 72.2363Z" fill="#1F3C49"/>
<path d="M108.549 57.347C107.678 56.9212 106.691 56.6666 105.695 56.6095C104.653 56.5569 103.602 56.7193 102.656 57.0836C101.916 57.3689 101.545 58.2029 101.831 58.9403C101.975 59.3134 102.27 59.6119 102.64 59.7612C102.786 59.8182 102.939 59.8533 103.096 59.8621C103.299 59.8753 103.5 59.8402 103.691 59.7656C104.265 59.5461 104.907 59.4451 105.545 59.4802C106.154 59.5154 106.753 59.669 107.279 59.928C107.454 60.0158 107.642 60.0641 107.837 60.0772C108.413 60.108 108.95 59.7919 109.205 59.274C109.556 58.5629 109.262 57.6981 108.549 57.347Z" fill="#1F3C49"/>
<path d="M126.217 54.3533C125.883 54.2787 125.538 54.2348 125.191 54.2172C123.663 54.1338 122.139 54.5552 120.9 55.4024C120.246 55.8501 120.078 56.7499 120.527 57.404C120.723 57.6893 121.015 57.8956 121.349 57.9834C121.442 58.0097 121.539 58.0229 121.636 58.0273C121.951 58.0449 122.267 57.9571 122.527 57.7771C123.236 57.2942 124.148 57.044 125.03 57.0879C125.23 57.1011 125.428 57.1275 125.618 57.167C125.693 57.1845 125.767 57.1933 125.84 57.1977C126.553 57.2372 127.177 56.7587 127.325 56.0564C127.488 55.2926 126.996 54.5289 126.217 54.3533Z" fill="#1F3C49"/>
<path d="M107.623 66.3804C106.721 66.1916 106.429 67.5919 107.332 67.7806C108.235 67.9694 108.526 66.5647 107.623 66.3804Z" fill="white"/>
<path d="M126.421 64.5669C125.519 64.3782 125.228 65.7828 126.131 65.9672C127.034 66.1559 127.325 64.7513 126.421 64.5669Z" fill="white"/>
<path d="M128.429 79.3423C128.682 81.8443 128.232 84.2234 127.259 86.2514C125.701 89.504 122.794 91.8172 119.276 92.1728C115.672 92.5415 112.287 90.7637 110.119 87.7657C108.838 86.0143 107.98 83.8416 107.736 81.4405C107.727 81.3527 107.73 81.2649 107.721 81.1727L128.39 79.0789C128.4 79.1711 128.42 79.2589 128.429 79.3423Z" fill="#D55454"/>
<path d="M127.55 79.1671C125.482 81.8535 122.242 83.7453 118.459 84.1272C114.678 84.5091 111.124 83.3108 108.559 81.0897L127.55 79.1671Z" fill="white"/>
<path d="M127.259 86.2514C125.701 89.504 122.794 91.8172 119.276 92.1728C115.672 92.5415 112.287 90.7637 110.119 87.7657C113.57 86.6332 117.187 85.9924 120.817 85.887C122.971 85.8256 125.126 85.9485 127.259 86.2514Z" fill="#F37C7C"/>
<path d="M106.822 76.3578C106.947 78.7062 104.459 80.7517 101.266 80.9229C98.0719 81.0897 95.3811 79.3207 95.2565 76.9724C95.1314 74.6196 97.6193 72.5741 100.813 72.4029C104.006 72.2361 106.697 74.0051 106.822 76.3578Z" fill="#F9BFBB"/>
<path d="M133.755 72.5299C133.839 74.1189 132.16 75.5016 130.003 75.6157C127.846 75.7298 126.029 74.5359 125.944 72.9469C125.86 71.3579 127.54 69.9752 129.697 69.8611C131.854 69.7469 133.671 70.9409 133.755 72.5299Z" fill="#F9BFBB"/>
<path d="M172.282 245.309C170.036 239.076 166.432 226.438 164.948 221.54C165.008 221.913 165.064 222.282 165.125 222.655C165.241 223.392 165.362 224.125 165.478 224.854L164.802 221.312L161.137 166.487C161.137 166.487 172.681 218.226 172.843 235.806C172.858 237.592 172.59 241.459 172.282 245.309Z" fill="#0081BC"/>
<path d="M73.0478 37.998C72.1059 34.3372 73.3007 30.2769 75.6688 27.494C78.0369 24.7067 81.4383 23.1089 84.9095 22.5383C88.3807 21.9632 91.9366 22.3451 95.3951 23.0474C98.7258 23.719 102.062 24.6891 105.441 24.4872C109.588 24.237 113.603 22.1301 116.336 18.7721C118.923 15.5897 124.488 16.0594 127.854 18.2805C131.221 20.5016 134.539 24.3994 135.232 28.587C135.898 32.6033 135.521 39.2929 129.238 42.9713C121.833 47.3081 98.5481 45.7717 95.403 45.6971C92.2584 45.6181 88.8794 46.439 86.804 48.9761C82.6827 54.0108 81.8786 61.5958 81.5867 68.3205C79.1545 66.9422 76.836 66.3716 74.096 66.3891C72.8894 66.3935 71.5743 66.4901 70.1012 67.5567C67.5026 62.5264 65.9724 57.123 64.7825 51.5176C64.1925 48.7347 63.7834 45.8639 64.1328 43.0415C64.2658 41.9705 64.5195 40.8863 65.0941 39.9996C65.9606 38.6608 67.4714 37.9409 68.9788 37.7785C70.4857 37.6205 71.5844 37.5635 73.0478 37.998Z" fill="#603813"/>
</g>
<defs>
<clipPath id="clip0_1065_49919">
<rect width="200" height="200" fill="white"/>
</clipPath>
</defs>
</svg>
