<svg width="200" height="200" viewBox="0 0 200 200" fill="none" xmlns="http://www.w3.org/2000/svg">
<g clip-path="url(#clip0_1065_49929)">
<rect width="200" height="200" fill="#EFF9FF"/>
<path d="M140.107 129.708C140.102 130.05 140.098 130.392 140.085 130.735C140.019 133.649 139.865 136.586 139.637 139.531C139.159 145.769 138.351 152.059 137.328 158.353C135.076 172.198 131.771 186.029 128.589 199.215C126.684 200.497 123.541 202.511 121.368 203.244C102.59 209.57 90.2422 208.345 70.731 204.886C67.9174 193.548 66.4469 181.938 65.692 170.28C64.8711 157.616 64.0591 144.926 64.1776 132.24C64.5682 130.981 64.9808 129.721 65.4154 128.47C65.4944 128.242 65.5734 128.009 65.6568 127.781C65.8236 127.337 65.9904 126.894 66.166 126.455C66.6269 125.274 67.1141 124.102 67.6233 122.943C68.3081 121.385 69.0455 119.849 69.8224 118.339C72.8029 114.893 76.0116 111.645 79.4222 108.625C83.105 105.359 87.1345 102.295 91.84 100.838C95.0751 99.8328 98.5208 99.6353 101.909 99.8065C104.021 99.9162 106.123 100.171 108.195 100.566C115.916 102.041 123.264 105.465 129.379 110.407C131.306 111.957 133.105 113.66 134.756 115.499C135.05 115.828 135.34 116.162 135.625 116.5C137.333 118.51 138.9 120.731 139.602 123.277C140.177 125.358 140.146 127.552 140.107 129.708Z" fill="#FFCFCA"/>
<path d="M129.282 30.8954C128.281 29.4732 127.215 28.0949 126.078 26.7737C123.734 24.0434 120.938 21.6468 117.883 19.7066C106.409 12.4245 90.9182 13.6096 81.1034 23.1436C76.5252 27.5857 73.5622 33.4281 71.6572 39.468C68.2114 50.4154 67.3117 61.9729 67.0527 73.3592C66.9868 76.2123 66.9824 79.0655 66.9165 81.9143C66.899 82.7395 66.4952 89.609 67.0571 89.8329C69.0323 90.6142 71.0383 91.299 73.0531 91.9398C84.0004 95.4338 95.4131 97.6812 106.83 97.2291C118.238 96.777 129.686 93.5069 138.979 86.7163C139.36 83.5691 139.549 80.514 139.567 77.4502C139.615 68.2015 139.962 58.7554 137.785 49.6911C136.169 42.9796 133.272 36.5622 129.282 30.8954Z" fill="#3A374C"/>
<path d="M115.088 69.5362L115.219 79.9041L115.518 103.379L88.6543 105.025L89.3258 91.3431L89.9229 79.2237L115.088 69.5362Z" fill="#FFCFCA"/>
<path d="M115.088 69.5361L115.22 79.904C112.375 82.7089 109.316 85.2723 105.888 87.3047C100.91 90.2456 95.0369 91.9926 89.3262 91.343L89.9232 79.2236L115.088 69.5361Z" fill="#FCB9B4"/>
<path d="M126.008 53.4713L126.013 53.4757C124.801 59.4497 122.426 65.1999 119.226 70.0635C114.051 77.9338 105.461 84.9789 95.7516 85.7646C90.7914 86.1641 85.7874 84.54 82.1881 81.0547C81.3146 80.2076 80.5113 79.2638 79.7958 78.2279C73.3257 68.8652 72.382 56.4429 75.2571 45.2849C76.5037 40.4477 78.4614 35.8563 81.0029 31.8487C83.7683 27.4812 87.8066 23.6667 92.4199 21.0901C100.071 16.8235 109.315 15.9544 117.019 21.5949C120.499 24.1408 123.05 27.8367 124.621 31.8619C124.683 32.0111 124.74 32.1604 124.792 32.3096C127.237 38.9289 127.452 46.3559 126.008 53.4713Z" fill="#FFCFCA"/>
<path d="M94.725 25.4473C94.5231 27.8484 93.3205 30.0475 91.9422 32.0315C91.6393 32.4661 91.3276 32.9007 91.0028 33.322C87.0216 38.5455 81.6093 42.676 75.508 45.1253C75.4202 45.1604 75.3192 45.2043 75.2051 45.2526C76.4517 40.4066 78.4138 35.8021 80.9597 31.7901C83.7338 27.4138 87.7766 23.5906 92.4031 21.0096C92.9298 21.2071 93.4038 21.5056 93.7813 21.9226C94.2554 22.4449 94.5275 23.1033 94.6592 23.8013C94.7602 24.3412 94.7733 24.903 94.725 25.4473Z" fill="#FCB9B4"/>
<path d="M126.009 53.4695L126.014 53.4738C123.959 54.997 121.918 56.5772 119.482 57.2795C118.262 57.6351 116.985 57.7536 115.712 57.7536C111.84 57.758 107.973 56.6913 104.65 54.6985C99.9358 51.8673 96.4505 47.2847 94.1285 42.2982C92.7941 39.4363 91.8153 36.4339 91.0252 33.3744C90.4326 31.1095 89.9497 28.805 89.502 26.5005C90.7091 24.7491 92.5966 24.2312 94.6728 23.8756C94.8045 23.8493 94.9318 23.8273 95.0678 23.8054C102.785 22.5368 110.83 24.139 117.819 27.6506C120.206 28.8533 122.476 30.2667 124.622 31.8601C124.684 32.0093 124.741 32.1586 124.793 32.3078C127.238 38.9271 127.453 46.3541 126.009 53.4695Z" fill="#FCB9B4"/>
<path d="M206.271 170.765C195.306 171.046 170.044 156.144 159.606 150.811C157.644 149.801 153.926 147.747 149.638 145.306C146.46 143.498 142.97 141.488 139.638 139.53C133.853 136.128 128.551 132.902 126.224 131.278C124.385 129.987 122.515 128.53 120.702 126.923C114.373 121.327 108.789 113.944 107.916 105.718C107.872 105.288 107.867 102.206 108.197 100.564C108.32 99.9411 108.491 99.5285 108.728 99.5461C127.444 100.938 144.967 109.106 161.353 118.263C166.607 121.199 169.474 123.254 173.758 126.059C174.675 126.664 175.658 127.301 176.743 127.986L176.808 128.025C176.76 127.911 176.712 127.797 176.664 127.683C175.996 126.045 175.391 124.351 174.851 122.766C174.298 121.142 173.819 119.628 173.402 118.381C172.366 115.274 171.133 111.007 171.133 111.007C171.133 111.007 167.213 100.569 166.708 100.358C165.4 99.8138 164.145 99.1554 162.964 98.3741C161.516 97.4128 160.488 96.1442 159.158 95.0513C156.858 93.1682 154.159 91.7328 151.727 90.0122C150.976 89.4766 150.2 88.9016 149.761 88.0808L149.717 87.993C149.326 87.1853 149.339 86.1143 150.006 85.5086C150.516 85.0433 151.279 84.9555 151.96 85.0872C153.154 85.3242 154.326 85.9826 155.375 86.5752C156.046 86.9571 156.74 87.4312 157.482 87.6682C158.605 88.0413 158.127 87.0932 157.758 86.3908C157.346 85.6227 156.858 84.9028 156.332 84.2137C155.291 82.8485 154.102 81.6063 153.009 80.2851L145.591 71.3174C144.862 70.4351 145.384 68.8988 146.455 68.574C147.948 68.1131 148.988 69.9786 149.848 70.8609C151.284 72.3313 152.732 73.7974 154.176 75.2591C155.217 76.3038 156.261 77.3529 157.31 78.3888C157.916 78.9946 158.324 79.8505 158.943 80.487C159.167 80.7196 159.76 81.4088 160.168 81.1893C160.594 80.9611 160.129 80.2543 160.01 79.9471C159.712 79.2096 159.391 78.4898 159.053 77.7655C158.403 76.3741 157.697 75.0089 156.977 73.6482C155.524 70.874 154.023 68.1087 152.908 65.1765C152.859 65.0536 152.824 64.9351 152.803 64.8166C152.39 63.9343 152.89 62.7755 153.821 62.4682C155.577 61.8888 156.507 64.3732 157.201 65.5145C158.316 67.3625 159.365 69.2456 160.48 71.0935C161.305 72.4718 162.135 73.8501 162.969 75.2284C163.254 75.7156 164.088 78.2396 164.944 77.9586C165.69 77.7216 164.737 75.7902 164.645 75.3381C164.417 74.2583 164.176 73.1829 163.93 72.1119C163.434 69.961 162.89 67.8277 162.284 65.7032C162.227 65.5057 162.205 65.3126 162.213 65.1282C162.02 64.5356 161.827 63.9387 161.625 63.3461C161.27 62.2795 162.161 61.1426 163.28 61.1777C164.895 61.2172 165.137 63.2671 165.523 64.4479C166.133 66.3309 166.726 68.214 167.297 70.1103C167.705 71.4447 168.095 72.7878 168.482 74.131C168.688 74.8465 169.338 78.0464 170.628 77.1071C170.878 76.9227 170.861 76.2599 170.874 75.9966C170.935 75.1494 170.799 74.3066 170.751 73.4638C170.619 71.2033 170.514 68.9383 170.448 66.6777C170.409 65.4355 171.796 64.5532 172.919 65.115C174.557 65.9359 173.968 69.0963 173.995 70.5536C174.039 72.8756 174.166 75.1933 174.381 77.5065C174.425 77.9016 174.46 78.2966 174.592 78.6741C174.759 79.157 175.062 79.5784 175.342 80.0129L175.351 80.0217C176.936 82.4754 177.866 85.3198 178.24 88.2037C178.428 89.6522 178.472 91.1227 178.376 92.58C178.275 94.0549 177.656 96.829 177.656 96.829C177.656 96.829 178.74 98.5585 179.236 99.2169C179.807 99.9675 180.333 100.753 180.873 101.521C182.001 103.119 183.129 104.713 184.253 106.31C188.16 111.841 192.172 117.306 195.872 122.982C205.454 137.669 209.365 145.183 213.579 155.306C215.897 160.867 214.159 170.563 206.271 170.765Z" fill="#FFCFCA"/>
<path d="M149.637 145.308C146.459 143.499 142.97 141.489 139.638 139.531C139.16 145.769 138.352 152.059 137.329 158.353C132.83 158.239 128.34 158.002 123.867 157.528C121.022 157.225 117.928 156.694 116.045 154.539C114.702 152.998 114.236 150.882 114.091 148.846C113.639 142.481 115.878 136.213 118.771 130.524C119.39 129.312 120.035 128.114 120.702 126.925C123.151 122.539 125.798 118.255 127.813 113.66C128.287 112.575 128.77 111.425 129.38 110.407C130.065 109.261 130.908 108.274 132.093 107.69L132.975 107.971C133.515 110.486 134.099 113.006 134.757 115.499C136.091 120.577 137.729 125.573 139.906 130.348C139.967 130.476 140.024 130.603 140.086 130.735C142.535 136.024 145.687 141.041 149.637 145.308Z" fill="#FCB9B4"/>
<path d="M175.385 89.0995C175.144 87.4184 174.718 85.7065 173.673 84.3721C172.628 83.0377 170.837 82.1686 169.205 82.6382C168.393 82.8709 167.699 83.402 166.926 83.7575C164.999 84.6398 162.559 84.4203 160.979 85.8338C160.759 86.0269 160.562 86.2595 160.496 86.5405C160.377 87.0804 160.777 87.5852 161.15 87.9934C161.677 88.5728 162.26 89.1829 163.029 89.3409C163.652 89.4638 164.288 89.2663 164.92 89.1873C166.488 88.9986 168.041 89.5648 169.459 90.2584C170.205 90.6183 170.934 91.0221 171.606 91.5094C172.966 92.4926 174.064 93.8007 175.144 95.0912C175.284 95.2623 175.372 95.4248 175.385 95.6442C175.723 93.4671 175.701 91.2767 175.385 89.0995Z" fill="#F9BFBB"/>
<path d="M120.048 23.2267C116.642 20.5579 112.705 18.6309 108.403 17.6126C106.09 17.0595 103.719 16.7303 101.345 16.6557C98.3115 16.5547 96.5864 17.6784 95.1379 20.3077C94.0141 22.3488 93.4655 24.6708 93.3557 26.9885C93.325 27.7084 93.3294 28.4326 93.3733 29.1657C93.8123 36.3249 97.7013 44.0328 102.034 48.0711C105.536 51.3413 110.009 53.5887 114.653 54.708C119.284 55.8273 125.07 56.0073 129.376 53.6458C133.445 51.4115 133.994 46.7367 132.857 42.6106C131.448 37.4881 128.384 32.269 125.052 28.1605C123.555 26.3169 121.879 24.6665 120.048 23.2267Z" fill="#3A374C"/>
<path d="M101.963 20.0836C101.84 19.5788 101.691 19.0696 101.401 18.635C100.739 17.6342 99.4612 17.2216 98.2629 17.1075C94.0315 16.7168 90.1072 19.1925 86.7098 21.7516C84.6028 23.3406 82.531 25.0217 80.8981 27.0936C79.7831 28.5157 78.8921 30.1003 78.0844 31.7113C75.6176 36.6494 73.8837 41.9475 72.9531 47.3861L73.4799 50.4938C73.9671 44.8534 75.9205 39.09 80.1168 35.2887C85.5027 30.412 93.3115 29.6833 100.379 28.0022C100.844 27.8924 101.336 27.7564 101.652 27.3964C101.893 27.1155 101.99 26.738 102.064 26.3737C102.481 24.3018 102.446 22.1422 101.963 20.0836Z" fill="#3A374C"/>
<path d="M129.766 58.509C128.892 56.3933 126.759 54.9053 124.033 54.8438C120.925 54.778 118.493 57.3721 116.505 59.7556L112.699 74.2058C112.598 74.6008 116.417 74.4911 116.874 74.3901C118.41 74.0478 119.968 73.2445 121.325 72.4631C124.125 70.839 126.552 68.5697 128.321 65.857C129.717 63.7237 130.806 61.0066 129.766 58.509Z" fill="#FFCFCA"/>
<path d="M95.0273 17.8847C95.0844 18.4817 95.1019 19.083 95.0888 19.68C95.0844 19.8863 95.08 20.0926 95.0625 20.2989C94.9264 22.5946 94.3118 24.8508 93.3374 26.9226C93.0213 27.5942 92.6658 28.2482 92.2795 28.8759C92.1873 29.0296 92.0908 29.1832 91.9854 29.3324C89.8609 32.5982 86.8717 35.1968 83.6016 37.2335C81.9072 38.287 80.1075 39.2044 78.1717 39.6301C77.7635 39.7179 77.3553 39.7794 76.9427 39.8189C76.8944 39.8277 76.8505 39.8321 76.8022 39.8321C76.3677 39.8672 75.9287 39.876 75.4898 39.8496C74.4626 39.7969 73.453 39.5643 72.5137 39.1122C73.115 37.2423 73.8086 35.4031 74.6162 33.6122C78.4395 25.1317 84.7779 19.2059 92.4727 16.4669C93.3198 16.581 94.1538 16.7873 94.9176 17.0243C94.9615 17.3097 95.001 17.5994 95.0273 17.8847Z" fill="#3A374C"/>
<path d="M97.6388 67.49C97.7705 69.0219 97.5642 70.488 97.0858 71.7829C96.9848 72.0638 96.8707 72.3316 96.7478 72.5949C95.6461 74.8906 93.6532 76.4972 91.2654 76.7035C89.3647 76.8659 87.5606 76.1109 86.1604 74.7502C86.0506 74.6448 85.9409 74.5351 85.84 74.421C84.5144 72.99 83.6101 70.984 83.4126 68.7147C83.3906 68.4425 83.3774 68.1748 83.373 67.907L97.5379 66.6867C97.5818 66.9501 97.6169 67.2178 97.6388 67.49Z" fill="#D55454"/>
<path d="M96.7476 72.5949C95.6459 74.8906 93.653 76.4972 91.2652 76.7035C89.3645 76.8659 87.5604 76.1109 86.1602 74.7502C86.406 74.3332 86.7045 73.9425 87.0513 73.5782C88.2145 72.3711 89.9044 71.5415 91.8402 71.3747C93.2931 71.2474 94.6758 71.5151 95.8478 72.077C96.1638 72.2306 96.4623 72.4018 96.7476 72.5949Z" fill="#F37C7C"/>
<path d="M95.6863 66.8445C95.4185 67.2044 95.1025 67.538 94.7469 67.8453C93.6013 68.8329 92.0342 69.5045 90.2696 69.6581C88.3866 69.8205 86.6264 69.3553 85.292 68.4774C84.9848 68.2754 84.7038 68.056 84.4492 67.8145L95.6863 66.8445Z" fill="white"/>
<path d="M66.1721 57.89C64.6972 52.2363 68.0903 46.4378 73.7396 44.963C79.3888 43.4837 85.1917 46.8768 86.6666 52.5304C88.1458 58.1797 84.7484 63.9782 79.0991 65.4574C73.4499 66.9323 67.6514 63.5392 66.1721 57.89ZM82.896 46.0867L94.7256 45.0903C92.904 46.6573 91.596 48.7423 90.9858 51.0556L86.9388 51.3848C86.1443 49.1857 84.7045 47.3684 82.896 46.0867ZM87.3865 53.0089C87.3426 52.7982 87.3075 52.5875 87.2548 52.3768C87.2153 52.2407 87.167 52.1134 87.1275 51.9774L90.8454 51.6745C90.7752 52.0125 90.7181 52.3505 90.6786 52.6972L87.3865 53.0089ZM91.5565 56.8804C89.9982 50.9063 93.5845 44.7742 99.5585 43.216C105.533 41.6533 111.66 45.2395 113.223 51.2136C114.786 57.1877 111.199 63.3154 105.225 64.878C99.2512 66.4407 93.1191 62.8545 91.5565 56.8804ZM65.5884 58.0392C67.151 64.0133 73.2787 67.6039 79.2527 66.0412C84.8142 64.5883 88.3039 59.1673 87.4962 53.6059L90.6215 53.3118C90.5425 54.532 90.6478 55.783 90.9726 57.034C92.6187 63.3285 99.0801 67.1123 105.379 65.4662C111.673 63.8202 115.457 57.3589 113.811 51.06C112.165 44.7655 105.699 40.9817 99.4049 42.6278C97.9959 42.9965 96.7229 43.6154 95.5992 44.4099L82.0708 45.5468C79.5952 44.1026 76.5708 43.5935 73.586 44.3748C67.6163 45.9374 64.0257 52.0695 65.5884 58.0392Z" fill="#999999"/>
<path d="M90.7821 62.7056C90.4221 62.2886 89.8559 62.0252 89.2589 62.0164C88.6575 61.9945 88.0299 62.2886 87.6436 62.767C87.2529 63.2411 87.0774 63.9478 87.3144 64.536C87.5251 65.111 88.065 65.5587 88.6312 65.5544C88.1396 65.3042 87.8586 64.852 87.7665 64.3999C87.6787 63.9522 87.8192 63.5001 88.1132 63.1533C88.3986 62.7934 88.8112 62.5563 89.2853 62.4861C89.7594 62.4159 90.2773 62.4949 90.7821 62.7056Z" fill="#B53434"/>
<path d="M99.8782 48.2027C100.014 48.1676 100.111 48.0403 100.102 47.891C100.093 47.7242 99.9528 47.5969 99.786 47.6057L95.3175 47.8427C95.1507 47.8515 95.019 47.9964 95.0322 48.1632C95.0409 48.33 95.1815 48.4573 95.3483 48.4485L99.8167 48.2114L99.8782 48.2027Z" fill="#24404C"/>
<path d="M83.5807 49.7262C83.7211 49.6911 83.8177 49.5594 83.8045 49.4101C83.7957 49.2433 83.6509 49.1204 83.4841 49.1336L79.2658 49.4365C79.1034 49.4496 78.976 49.5945 78.9892 49.7613C78.998 49.9281 79.1429 50.051 79.3097 50.0422L83.528 49.735L83.5807 49.7262Z" fill="#24404C"/>
<path d="M95.0983 56.1696C95.0412 56.1696 94.9798 56.1565 94.9227 56.1301C94.7076 56.0335 94.6155 55.7789 94.7121 55.5683C95.23 54.4314 96.301 53.6413 97.5696 53.4525C98.5836 53.3033 99.918 53.83 100.813 54.7386C100.98 54.9054 100.98 55.1732 100.813 55.34C100.647 55.5024 100.374 55.5024 100.212 55.3356C99.5141 54.6333 98.4344 54.1856 97.6969 54.2953C96.7093 54.4402 95.884 55.0459 95.4846 55.9194C95.4144 56.0774 95.2607 56.1696 95.0983 56.1696Z" fill="#FCB9B4"/>
<path d="M79.5593 56.6921C79.4715 56.6921 79.3838 56.6657 79.3047 56.6087C79.116 56.4682 79.0765 56.2005 79.217 56.0117C79.9763 54.9934 81.2141 54.2823 82.2369 54.2823H82.2501C83.5362 54.291 84.7038 54.9231 85.3798 55.9722C85.5027 56.1741 85.4456 56.4331 85.2481 56.5604C85.0506 56.6877 84.7872 56.6306 84.6599 56.4331C84.1463 55.6254 83.2421 55.1382 82.2457 55.1338C81.4863 55.1338 80.4899 55.7264 79.9017 56.5209C79.8183 56.6306 79.691 56.6921 79.5593 56.6921Z" fill="#FCB9B4"/>
<path d="M94.8125 55.6081C94.7554 55.6081 94.6939 55.5949 94.6369 55.5686C94.4262 55.472 94.3297 55.2218 94.4262 55.0067C94.9442 53.8699 96.0152 53.0798 97.2881 52.891C98.3021 52.7418 99.6365 53.2729 100.532 54.1771C100.694 54.3439 100.694 54.6117 100.528 54.7785C100.361 54.9409 100.093 54.9409 99.9262 54.7741C99.2327 54.0718 98.1529 53.6241 97.4111 53.7338C96.4234 53.8787 95.5982 54.4844 95.2031 55.3579C95.1285 55.5159 94.9749 55.6081 94.8125 55.6081Z" fill="#24404C"/>
<path d="M79.2781 56.1306C79.1859 56.1306 79.0981 56.1042 79.0235 56.0471C78.8348 55.9067 78.7952 55.6433 78.9357 55.4546C79.6907 54.4318 80.933 53.7251 81.9557 53.7251H81.9644C83.2506 53.7295 84.4226 54.3616 85.0942 55.4151C85.2215 55.6126 85.1644 55.8759 84.9669 56.0032C84.7649 56.1261 84.5016 56.0691 84.3787 55.8716C83.8607 55.0639 82.9565 54.5811 81.9601 54.5767C81.2007 54.5767 80.2043 55.1649 79.6161 55.9593C79.5327 56.0735 79.4054 56.1306 79.2781 56.1306Z" fill="#24404C"/>
<path d="M98.0919 114.388C97.8988 114.608 97.7012 114.823 97.4993 115.038C93.878 118.826 88.5228 121.692 84.6908 124.37C79.7702 127.798 76.6976 131.261 73.9278 136.463C73.3748 137.503 72.8436 138.565 72.3301 139.641C71.9657 140.4 71.6146 141.168 71.2722 141.941C69.4462 146.032 67.8572 150.329 66.378 154.679C63.6521 162.633 61.2686 170.771 58.3935 178.216C54.9082 187.232 50.9533 195.852 46.1556 204.245C41.4545 212.484 36.4549 220.552 31.17 228.436C28.5275 232.377 25.8104 236.275 23.0319 240.12C22.0794 241.437 19.3842 245.357 17.7294 247.618C17.365 248.114 17.0534 248.531 16.8164 248.82L16.79 248.895V248.904C16.9085 250.651 16.7944 252.907 16.2282 256.73C15.9297 258.78 15.6224 260.834 15.0913 262.84C14.2617 265.992 12.2425 268.648 10.8555 271.58C10.5702 272.199 10.2849 272.826 9.85909 273.362C7.88383 275.851 5.55298 273.103 5.63199 270.82C5.63638 270.605 5.66272 270.395 5.69784 270.188C5.90414 268.955 6.5801 267.831 7.12879 266.716C7.44922 266.062 7.74769 265.395 7.90132 264.679C8.02861 264.082 8.30081 263.297 7.77847 262.796C7.30001 262.34 6.34744 262.243 5.72853 262.331C4.98232 262.441 4.34151 262.818 3.76209 263.297C3.33632 263.648 2.95001 264.061 2.58568 264.469C1.62 265.535 0.733306 266.642 -0.197263 267.726C-1.49655 269.227 -2.52368 270.794 -3.00653 272.721C-3.49815 274.683 -3.54199 276.715 -3.70001 278.721C-3.86681 280.877 -3.98097 283.813 -5.88601 285.24C-6.75951 285.894 -8.01488 285.288 -8.34848 284.344C-8.53284 283.818 -8.50649 283.247 -8.48454 282.689C-8.32213 279.138 -8.22115 275.578 -7.54518 272.076C-6.90431 268.775 -5.35047 265.658 -3.87122 262.647C-1.67209 258.205 8.12525 243.039 8.12525 243.039C8.20426 242.886 12.3391 233.347 15.1133 227.347C17.2026 222.826 18.9716 219.354 20.9425 214.789C24.8053 205.834 29.8619 194.496 33.1453 185.313C33.4174 184.554 33.6764 183.808 33.9134 183.075C34.1987 182.219 34.4533 181.38 34.6947 180.546C36.7577 173.514 37.6751 167.137 39.3739 159.446C41.1691 151.33 43.1049 143.262 44.9397 135.155C47.85 122.267 53.1217 114.625 57.5595 111.895C63.7091 108.12 69.9071 105.096 76.3816 102.831C76.9259 102.638 77.4701 102.453 78.0144 102.273C80.4769 101.461 82.9833 100.759 85.538 100.162C85.9901 100.061 86.4466 99.9556 86.9031 99.859C89.8221 99.227 92.8114 98.7309 95.8972 98.3666C97.0165 98.2393 98.1007 98.8495 98.9918 99.7844C100.054 100.886 100.857 102.436 101.147 103.726C102.121 108.028 100.642 111.478 98.0919 114.388Z" fill="#FFCFCA"/>
<path d="M115.277 144.636C109.233 150.504 101.055 153.959 92.6842 154.925C90.2085 155.21 87.6846 155.289 85.244 154.793C78.9802 153.516 73.9104 148.454 71.5006 142.529C71.4216 142.336 71.347 142.138 71.2724 141.94C71.11 141.51 70.9607 141.076 70.8246 140.637C69.0995 135.211 69.183 129.277 70.1926 123.645C70.6666 120.985 71.3382 118.373 72.1107 115.784C73.1598 112.241 74.3933 108.747 75.5521 105.244C75.8199 104.441 76.0876 103.634 76.3817 102.83C76.926 102.637 77.4703 102.453 78.0146 102.273C80.4771 101.461 82.9835 100.758 85.5382 100.161C85.6698 101.276 85.9069 102.365 86.2405 103.427C86.596 104.555 87.0657 105.644 87.6407 106.684C89.6511 110.306 92.9037 113.286 96.7796 114.778C97.0166 114.871 97.2537 114.958 97.4995 115.037C97.8199 115.143 98.1491 115.244 98.4827 115.327C101.503 116.117 104.676 116.082 107.788 115.885C113.666 115.52 119.82 114.476 124.359 110.736C123.691 114.44 124.613 118.229 124.758 121.995C125.083 130.418 121.33 138.767 115.277 144.636Z" fill="#FCB9B4"/>
<path d="M134.473 104.23C135.135 110.989 135.149 117.876 135.873 124.614C136.94 134.57 139.104 144.371 140.6 154.274C141.452 159.879 141.908 165.678 141.851 171.45C141.807 175.879 141.461 180.286 140.763 184.574C120.997 194.227 97.9478 196.966 76.4745 192.221C74.2666 191.734 72.0675 191.167 69.9386 190.391C66.6684 189.197 63.8372 187.485 60.5144 186.44C60.3915 176.963 60.2686 167.456 60.8041 158.001C61.1201 152.439 61.66 146.895 62.5643 141.395C64.9258 127.033 69.4864 116.546 71.5495 102.145C72.8532 101.877 74.9689 100.88 76.334 100.621C78.858 100.143 81.3864 99.3879 84.0639 99.1553C83.963 103.066 84.6346 107.03 86.5045 110.449C88.5939 114.259 92.3161 117.301 96.6222 117.92C98.637 118.21 100.691 117.973 102.688 117.591C106.376 116.884 110.067 115.616 112.863 113.109C115.444 110.796 117.064 107.614 118.333 104.388C119.188 102.219 119.57 101.153 120.154 98.8963C121.59 99.2826 126.523 100.973 127.296 101.381C127.836 101.666 133.941 103.94 134.473 104.23Z" fill="#00AEFF"/>
<path d="M141.851 171.45C141.807 175.879 141.461 180.286 140.763 184.574C120.997 194.227 97.9478 196.966 76.4745 192.221C74.2666 191.734 72.0675 191.167 69.9386 190.391C66.6684 189.197 63.8372 187.485 60.5144 186.44C60.3915 176.963 60.2686 167.456 60.8041 158.001C62.5116 160.406 64.5307 162.513 67.1074 163.94C71.0623 166.121 75.7941 166.358 80.3021 166.047C84.8057 165.73 89.3006 164.91 93.8086 165.177C101.999 165.656 109.54 169.655 117.538 171.498C121.12 172.323 124.803 172.719 128.481 172.771C132.967 172.837 137.458 172.389 141.851 171.45Z" fill="#0081BC"/>
<path d="M39.8598 185.629C38.1787 184.246 36.0849 183.359 33.9121 183.074C34.193 182.218 34.452 181.38 34.6934 180.546C35.4659 180.875 36.1946 181.283 36.9583 181.814C38.3761 182.797 39.2936 184.013 39.8598 185.629Z" fill="#FCB9B4"/>
<path d="M182.234 139.912C180.601 138.235 178.779 135.83 177.642 133.78C176.242 131.26 174.947 128.684 173.758 126.059C174.675 126.664 175.658 127.301 176.743 127.986C177.866 132.287 179.504 136.44 182.234 139.912Z" fill="#FCB9B4"/>
</g>
<defs>
<clipPath id="clip0_1065_49929">
<rect width="200" height="200" fill="white"/>
</clipPath>
</defs>
</svg>
