<svg width="200" height="200" viewBox="0 0 200 200" fill="none" xmlns="http://www.w3.org/2000/svg">
<g clip-path="url(#clip0_1065_49916)">
<rect width="200" height="200" fill="#EFF9FF"/>
<path d="M143.232 119.632C139.989 136.86 136.508 153.966 134.298 171.353C132.204 187.818 130.187 204.305 127.567 220.695C114.071 220.998 100.617 220.432 87.1591 219.387C73.7602 218.342 60.5124 216.481 47.9282 211.578C41.2535 208.979 34.7856 205.793 28.6426 202.075C34.6667 193.331 38.3574 183.248 42.3803 173.49C46.6903 163.039 50.3898 152.333 53.4637 141.452C60.1687 117.705 62.8361 93.9225 64.4321 69.4029C65.3408 55.4531 69.3348 40.7879 78.7208 30.0775C88.1516 19.3058 103.95 13.1605 117.829 18.4015C126.401 21.6454 133.384 28.3569 138.048 36.2492C140.265 40.0022 141.99 44.0141 143.32 48.1666C143.68 49.2683 144.005 50.3876 144.308 51.507C145.256 55.0273 145.958 58.6223 146.472 62.2261C147.262 67.827 147.622 73.45 147.644 79.0729C147.688 92.6758 145.748 106.283 143.232 119.632Z" fill="#345668"/>
<path d="M131.956 122.44C130.097 123.893 127.715 124.442 125.414 124.951C122.641 125.566 119.862 126.184 117.031 126.391C111.512 126.79 106.306 125.403 100.896 124.249C100.626 121.071 100.349 117.888 100.08 114.71C99.7412 110.738 99.3957 106.752 98.6609 102.832C98.4336 101.63 98.1768 100.436 97.884 99.2462C97.1755 96.2877 96.2998 93.3731 95.425 90.4541C94.7055 88.0574 93.9866 85.652 93.2676 83.2553C94.8337 84.4624 96.2616 85.0243 98.1008 85.7793C105.849 88.9748 113.715 91.8763 121.617 94.6724C123.998 95.5108 126.4 96.3491 128.903 96.6652L130.546 110.545L131.956 122.44Z" fill="#FFCFCA"/>
<path d="M130.546 110.545C121.877 109.338 113.389 106.902 105.502 103.144C102.994 101.955 100.387 100.668 97.884 99.2463C97.1755 96.2878 96.2998 93.3732 95.425 90.4542C94.7055 88.0575 93.9866 85.6521 93.2676 83.2554C94.8337 84.4625 96.2616 85.0244 98.1008 85.7794C105.849 88.9749 113.715 91.8764 121.617 94.6725C123.998 95.5109 126.4 96.3492 128.903 96.6653L130.546 110.545Z" fill="#F9BFBB"/>
<path d="M143.825 88.2059C142.486 92.9466 140.379 97.358 136.464 100.488C132.992 103.262 128.622 104.921 124.193 105.228C119.292 105.566 114.41 104.399 109.965 102.257C107.753 101.186 105.646 99.882 103.705 98.3939C100.309 95.7954 97.3486 92.6788 94.722 89.3165C90.4545 83.8472 86.7888 77.4781 84.5656 70.7271C82.0385 63.0938 81.3476 54.9644 83.6837 47.0985C84.6275 43.8942 86.1129 40.8567 88.0565 38.1308C96.2446 26.6392 112.148 23.0135 124.518 29.8215C130.961 33.3726 136.131 39.215 139.286 45.8168C140.287 47.9106 141.191 50.0746 141.972 52.2825C146.05 63.7302 147.13 76.5255 143.825 88.2059Z" fill="#FFCFCA"/>
<path d="M143.321 48.1655C139.441 42.4153 135.549 36.4237 130.43 31.8762C125.843 27.8071 120.142 25.0286 113.995 24.4667C102.351 23.4001 88.7735 27.8203 81.3759 37.2225C77.6427 41.9676 75.9444 47.9197 75.6964 53.828C75.4484 59.7318 76.6629 64.9553 78.1444 70.7274C89.3928 69.6564 99.1972 62.5279 105.009 53.5514C109.336 46.875 111.692 39.2724 112.913 31.4943C116.393 35.9979 120.252 40.2118 124.781 43.6663C130.425 47.968 137.214 51.0494 144.309 51.5059C144.006 50.3822 143.681 49.2673 143.321 48.1655Z" fill="#345668"/>
<path d="M186.837 250.586C183.216 245.407 175.284 235.359 175.284 235.359C175.284 235.359 180.205 169.71 166.69 141.67C158.099 132.786 149.742 124.797 137.447 122.51C128.449 137.597 125.708 151.2 124.227 168.705C122.263 191.912 121.697 216.401 132.173 237.203C135.074 242.962 138.759 248.291 142.504 253.54C152.389 267.402 163.485 280.777 175.846 292.717C179.173 295.925 184.182 296.65 188.264 294.472L200.164 288.125C204.057 286.049 205.515 281.194 203.408 277.318C198.184 267.723 192.93 259.295 186.837 250.586Z" fill="#00AEFF"/>
<path d="M151.006 130.521C150.348 128.765 145.023 124.977 145.023 124.977C145.023 124.977 113.175 118.551 98.0594 120.474C90.5007 121.435 83.0334 123.125 75.8026 125.53C67.8686 128.168 60.9346 131.307 54.3903 136.587C47.7121 141.978 41.8008 148.263 36.1964 154.742C33.4894 157.872 30.8544 161.059 28.2347 164.263C20.7081 173.463 12.818 182.69 6.52264 192.83C-2.55875 207.46 -9.14692 226.15 -0.363139 242.492C4.88931 252.263 13.5252 259.835 22.0175 266.748C32.1221 274.974 43.2033 282.366 55.0794 287.871C58.4172 289.42 62.4068 288.244 64.3074 285.096C66.8353 280.909 68.9546 276.506 70.8846 272.003C72.0531 269.277 71.842 266.16 70.3702 263.584C62.3252 249.493 52.3343 236.286 39.9862 223.42C49.0615 214.777 58.088 205.634 65.3921 195.564C66.0803 204.264 66.3626 212.973 65.9184 221.704C65.7911 224.215 65.6357 226.879 66.8393 229.082C68.3629 231.879 71.6229 233.169 74.6565 234.135C96.7474 241.145 120.727 241.987 143.316 236.795C147.876 235.746 152.648 234.266 155.501 230.298C158.091 226.699 158.718 222.064 159.443 217.801C160.667 210.533 161.409 203.176 161.668 195.81C162.441 173.626 158.837 151.288 151.006 130.521Z" fill="#00AEFF"/>
<path d="M138.114 119.341C137.939 118.661 137.732 117.981 137.605 117.335C137.092 114.671 137.583 111.269 134.644 109.43C133.2 108.526 131.418 108.684 129.75 108.657C127.781 108.631 125.816 108.666 123.848 108.627C119.722 108.539 115.59 108.118 111.524 107.376C109.449 106.998 107.391 106.533 105.359 105.989C103.528 105.497 101.677 104.672 99.7774 104.483C98.4118 104.347 96.9233 104.685 96.138 105.62C95.6289 106.23 95.4717 107.003 95.3291 107.749C94.6096 111.528 93.9468 115.382 94.5552 119.218C94.7426 120.404 95.0885 121.642 96.0446 122.528C98.2015 124.534 102.918 125.162 105.826 125.781C115.435 127.826 125.722 128.098 134.746 124.784C135.834 124.385 136.929 123.92 137.684 123.138C138.768 122.019 138.457 120.685 138.114 119.341Z" fill="#0081BC"/>
<path d="M98.9868 123.186C98.8323 123.164 98.7024 123.059 98.6769 122.919C97.6484 117.287 97.565 111.594 98.4293 106.006C98.4548 105.839 98.6286 105.729 98.82 105.756H98.827C99.021 105.787 99.1575 105.945 99.1316 106.107C98.2765 111.642 98.3586 117.274 99.3761 122.848C99.4068 123.015 99.2752 123.169 99.0816 123.186H98.9868Z" fill="#00AEFF"/>
<path d="M101.998 124.253H101.992C101.798 124.222 101.662 124.064 101.687 123.897C102.077 121.343 102.017 118.696 101.959 116.137L101.764 107.608C101.758 107.362 101.715 107.283 101.681 107.261C101.518 107.165 101.475 106.972 101.583 106.836C101.692 106.699 101.911 106.669 102.075 106.77C102.458 107.007 102.468 107.419 102.473 107.621L102.667 116.15C102.726 118.731 102.787 121.4 102.389 124.003C102.365 124.165 102.19 124.275 101.998 124.253Z" fill="#00AEFF"/>
<path d="M105.702 125.012C105.526 124.99 105.389 124.858 105.388 124.7C105.358 119.178 105.524 113.591 105.882 108.091C105.893 107.924 106.06 107.801 106.255 107.818C106.446 107.836 106.6 107.981 106.589 108.148C106.233 113.639 106.067 119.213 106.097 124.722C106.098 124.889 105.94 125.021 105.744 125.016L105.702 125.012Z" fill="#00AEFF"/>
<path d="M108.721 125.632C108.533 125.61 108.394 125.46 108.407 125.298C108.838 119.859 108.922 114.32 108.658 108.842C108.65 108.675 108.802 108.539 108.997 108.539C109.195 108.543 109.357 108.675 109.365 108.842C109.63 114.342 109.546 119.903 109.114 125.364C109.101 125.531 108.932 125.653 108.736 125.636L108.721 125.632Z" fill="#00AEFF"/>
<path d="M112.069 126.571H112.068C111.874 126.545 111.734 126.391 111.756 126.225C112.084 123.745 112.158 121.054 111.998 117.507L111.982 117.169C111.925 115.958 111.867 114.702 112.044 113.473C112.106 113.052 112.195 112.63 112.284 112.213C112.455 111.41 112.616 110.651 112.588 109.869C112.581 109.703 112.735 109.567 112.931 109.567C113.124 109.567 113.289 109.707 113.296 109.874C113.326 110.721 113.15 111.546 112.981 112.345C112.894 112.753 112.807 113.161 112.747 113.574C112.577 114.75 112.634 115.98 112.69 117.169L112.705 117.507C112.867 121.089 112.792 123.806 112.46 126.317C112.438 126.484 112.263 126.598 112.069 126.571Z" fill="#00AEFF"/>
<path d="M114.971 126.311H114.959C114.765 126.281 114.632 126.118 114.66 125.956C115.552 120.789 115.843 115.509 115.525 110.25C115.514 110.084 115.665 109.947 115.86 109.943C116.059 109.943 116.222 110.079 116.232 110.246C116.553 115.54 116.26 120.864 115.361 126.07C115.333 126.228 115.16 126.338 114.971 126.311Z" fill="#00AEFF"/>
<path d="M118.862 126.188H118.846C118.653 126.153 118.521 125.995 118.551 125.828C118.769 124.643 118.647 123.392 118.528 122.181C118.473 121.61 118.416 121.022 118.392 120.442C118.342 119.156 118.46 117.853 118.573 116.597C118.762 114.499 118.957 112.335 118.355 110.272C118.307 110.11 118.421 109.947 118.611 109.912C118.801 109.877 118.993 109.982 119.041 110.145C119.672 112.304 119.473 114.521 119.279 116.667C119.167 117.91 119.051 119.196 119.1 120.447C119.123 121.013 119.179 121.592 119.234 122.154C119.356 123.401 119.482 124.687 119.251 125.947C119.222 126.109 119.049 126.215 118.862 126.188Z" fill="#00AEFF"/>
<path d="M121.923 125.961C121.735 125.935 121.596 125.785 121.61 125.623C122.08 120.536 122.227 115.356 122.047 110.225C122.041 110.058 122.195 109.922 122.39 109.926C122.586 109.926 122.749 110.067 122.755 110.234C122.935 115.382 122.788 120.584 122.316 125.693C122.301 125.86 122.131 125.979 121.936 125.961H121.923Z" fill="#00AEFF"/>
<path d="M125.379 125.192C125.188 125.165 125.048 125.012 125.066 124.849C125.558 120.214 126.067 115.421 125.144 110.711C125.111 110.544 125.241 110.39 125.433 110.368C125.628 110.346 125.809 110.465 125.842 110.632C126.781 115.421 126.268 120.253 125.772 124.928C125.754 125.095 125.582 125.214 125.387 125.192H125.379Z" fill="#00AEFF"/>
<path d="M128.376 125.706C128.199 125.68 128.062 125.548 128.063 125.39L128.123 110.708C128.124 110.541 128.282 110.409 128.478 110.418C128.668 110.422 128.832 110.567 128.831 110.734L128.771 125.417C128.77 125.588 128.611 125.715 128.415 125.706H128.376Z" fill="#00AEFF"/>
<path d="M131.939 124.771C131.757 124.749 131.618 124.609 131.625 124.446C131.812 119.894 131.69 115.268 131.263 110.703C131.247 110.531 131.392 110.391 131.587 110.382C131.781 110.373 131.953 110.51 131.969 110.676C132.399 115.268 132.521 119.916 132.333 124.494C132.326 124.661 132.162 124.788 131.967 124.775L131.939 124.771Z" fill="#00AEFF"/>
<path d="M135.387 123.446L135.314 123.428C135.128 123.367 135.028 123.191 135.09 123.033C135.524 121.94 135.329 120.755 135.123 119.499C135.027 118.92 134.929 118.323 134.898 117.735C134.873 117.265 134.891 116.796 134.908 116.339C134.926 115.883 134.944 115.408 134.916 114.952C134.828 113.446 134.256 111.958 133.702 110.519C133.64 110.356 133.74 110.189 133.925 110.141C134.111 110.093 134.312 110.185 134.374 110.347C134.943 111.827 135.531 113.354 135.624 114.943C135.653 115.43 135.634 115.913 135.616 116.383C135.599 116.826 135.582 117.287 135.605 117.73C135.635 118.292 135.731 118.872 135.824 119.438C136.033 120.707 136.249 122.019 135.762 123.252C135.708 123.389 135.549 123.463 135.387 123.446Z" fill="#00AEFF"/>
<path d="M97.9775 87.0702C94.4409 90.1867 89.2016 91.2577 84.7428 89.7082C80.9758 88.4046 77.9097 85.2705 76.6056 81.5175C76.3703 80.8327 76.1934 80.1348 76.0753 79.4149C75.8739 78.1551 75.8677 76.8603 76.1631 75.6224C76.9089 72.5718 79.6527 70.1663 82.7407 69.6089C85.8358 69.0558 89.1393 70.276 91.2923 72.5673L93.8628 78.1464L97.9775 87.0702Z" fill="#FFCFCA"/>
<path d="M148.859 235.197C150.606 234.188 152.402 233.31 154.048 232.3C155.694 231.295 157.16 230.079 158.077 228.473C158.538 227.678 158.881 226.805 159.109 225.887C159.346 224.97 159.447 224.092 159.346 223.153C159.258 222.213 159.078 221.226 158.942 220.234C158.797 219.242 158.683 218.245 158.578 217.249C158.385 215.251 158.275 213.254 158.209 211.257C158.134 209.26 158.139 207.258 158.183 205.265C158.257 201.275 158.477 197.303 158.701 193.33C159.148 185.385 159.763 177.458 159.587 169.513C159.451 161.568 158.806 153.628 157.63 145.762C158.938 153.61 159.715 161.546 159.982 169.5C160.294 177.467 159.811 185.429 159.495 193.37C159.337 197.342 159.183 201.311 159.175 205.279C159.161 207.263 159.192 209.234 159.302 211.213C159.394 213.188 159.535 215.164 159.763 217.121C159.881 218.1 160.009 219.075 160.167 220.049C160.32 221.024 160.513 221.994 160.628 223.03C160.764 224.07 160.658 225.202 160.408 226.208C160.171 227.226 159.798 228.227 159.28 229.162C158.758 230.092 158.082 230.939 157.313 231.664C156.541 232.388 155.698 233.003 154.833 233.551C153.108 234.649 151.335 235.544 149.654 236.554L148.859 235.197Z" fill="#0081BC"/>
<path d="M65.2324 134.177C67.1647 135.582 68.8072 137.413 70.0907 139.467C71.3895 141.512 72.3368 143.773 73.0545 146.082C73.7792 148.395 74.2269 150.783 74.5403 153.171C74.8511 155.563 74.9854 157.973 75.0359 160.378C75.0591 162.784 74.9577 165.189 74.7527 167.581C74.5271 169.974 74.212 172.357 73.7533 174.714C72.8596 179.433 71.4071 184.077 69.1667 188.3C70.8035 183.814 71.8855 179.192 72.5413 174.517C72.8495 172.173 73.1317 169.824 73.2669 167.467C73.4232 165.11 73.511 162.753 73.4627 160.396C73.4434 158.039 73.317 155.686 73.0641 153.346C72.9539 152.17 72.7898 151.011 72.6006 149.852C72.3908 148.698 72.1643 147.548 71.8768 146.415C71.5818 145.283 71.2469 144.159 70.8373 143.062C70.6516 142.504 70.408 141.973 70.1916 141.429C69.9379 140.902 69.7097 140.358 69.4244 139.849C68.3617 137.755 66.9395 135.845 65.2324 134.177Z" fill="#0081BC"/>
<path d="M94.1554 125.627C93.9935 125.627 93.8416 125.526 93.7845 125.368C93.7117 125.162 93.8192 124.938 94.0238 124.863C94.5189 124.688 95.014 124.516 95.5096 124.341C95.715 124.266 95.9393 124.376 96.0113 124.582C96.0833 124.784 95.9753 125.012 95.7703 125.083C95.2752 125.258 94.781 125.429 94.2867 125.605C94.2432 125.622 94.1989 125.627 94.1554 125.627Z" fill="#0081BC"/>
<path d="M88.1967 127.774C88.0364 127.774 87.8854 127.673 87.8275 127.515C87.7529 127.308 87.8578 127.084 88.0619 127.01C89.0535 126.645 90.046 126.285 91.0397 125.93C91.2439 125.855 91.4699 125.961 91.5432 126.167C91.6165 126.373 91.5107 126.597 91.3062 126.672C90.3141 127.027 89.3226 127.387 88.3319 127.747C88.2875 127.765 88.2419 127.774 88.1967 127.774ZM82.2612 129.977C82.1023 129.977 81.9522 129.88 81.893 129.722C81.8161 129.516 81.9188 129.292 82.1225 129.213C83.1106 128.84 84.0995 128.471 85.0893 128.103C85.293 128.028 85.52 128.133 85.5955 128.335C85.671 128.542 85.5669 128.766 85.3633 128.84C84.3747 129.209 83.3871 129.578 82.3999 129.951C82.3543 129.968 82.3073 129.977 82.2612 129.977ZM76.3495 132.242C76.1928 132.242 76.0444 132.15 75.9834 131.992C75.9035 131.79 76.0032 131.562 76.2051 131.483C76.8894 131.21 77.5754 130.947 78.2602 130.684L79.1614 130.337C79.3642 130.262 79.592 130.363 79.6697 130.565C79.7469 130.767 79.6455 130.995 79.4427 131.074L78.5425 131.421C77.8595 131.68 77.176 131.948 76.4939 132.216C76.4465 132.233 76.3978 132.242 76.3495 132.242ZM70.5334 134.74C70.3873 134.74 70.2464 134.661 70.1788 134.516C70.0844 134.323 70.1669 134.086 70.3627 133.993C71.2621 133.559 72.2111 133.133 73.2641 132.681C73.4643 132.598 73.6956 132.69 73.7807 132.892C73.8655 133.089 73.7728 133.322 73.5727 133.405C72.5311 133.849 71.5926 134.274 70.7042 134.7C70.6489 134.726 70.5909 134.74 70.5334 134.74ZM65.033 137.865C64.907 137.865 64.7836 137.803 64.7073 137.694C64.5848 137.514 64.6318 137.268 64.8113 137.145C65.6572 136.57 66.5723 136.004 67.5314 135.464C67.7206 135.359 67.9607 135.424 68.0674 135.613C68.1741 135.802 68.1074 136.043 67.9178 136.149C66.978 136.68 66.0816 137.233 65.2542 137.795C65.1861 137.843 65.1093 137.865 65.033 137.865ZM60.1541 141.886C60.0514 141.886 59.9486 141.846 59.8718 141.767C59.7204 141.609 59.7239 141.363 59.8797 141.21C60.6734 140.437 61.4722 139.717 62.2536 139.072C62.4212 138.932 62.6688 138.954 62.808 139.12C62.9462 139.291 62.9234 139.537 62.7561 139.678C61.9902 140.31 61.2075 141.017 60.428 141.776C60.3516 141.851 60.2528 141.886 60.1541 141.886ZM55.8603 146.534C55.7699 146.534 55.6794 146.503 55.6053 146.442C55.4398 146.301 55.4196 146.051 55.5605 145.889C56.3159 144.998 57.0033 144.221 57.6622 143.501C57.8088 143.339 58.0581 143.33 58.2183 143.475C58.3785 143.624 58.3895 143.874 58.2424 144.032C57.5902 144.743 56.9094 145.516 56.1601 146.398C56.082 146.49 55.9718 146.534 55.8603 146.534ZM51.8242 151.415C51.7364 151.415 51.6482 151.384 51.5748 151.323C51.4067 151.187 51.3821 150.937 51.5204 150.77L53.5286 148.325C53.6669 148.154 53.9153 148.132 54.0825 148.268C54.2507 148.408 54.2748 148.654 54.1365 148.825L52.1288 151.27C52.0511 151.363 51.9378 151.415 51.8242 151.415ZM47.8139 156.314C47.7266 156.314 47.6388 156.283 47.5655 156.226C47.3974 156.086 47.3719 155.84 47.5093 155.673C48.1769 154.852 48.8446 154.036 49.5131 153.219C49.6509 153.053 49.8989 153.026 50.0671 153.162C50.2352 153.303 50.2597 153.548 50.1224 153.72C49.4538 154.536 48.7862 155.353 48.1194 156.169C48.0413 156.266 47.9285 156.314 47.8139 156.314ZM43.8235 161.23C43.7361 161.23 43.6492 161.199 43.5763 161.142C43.4073 161.006 43.3806 160.756 43.5171 160.589C44.1803 159.768 44.8445 158.948 45.5099 158.127C45.6473 157.96 45.8949 157.934 46.0634 158.07C46.2324 158.206 46.2579 158.456 46.1209 158.623C45.4559 159.444 44.7922 160.26 44.1298 161.081C44.0517 161.177 43.938 161.23 43.8235 161.23ZM39.8664 166.173C39.7808 166.173 39.6943 166.142 39.6219 166.085C39.4516 165.949 39.423 165.703 39.5582 165.532C40.214 164.707 40.8724 163.881 41.5326 163.056C41.6687 162.885 41.9158 162.859 42.0857 162.995C42.2555 163.131 42.2828 163.377 42.1471 163.548C41.4878 164.373 40.8303 165.198 40.1749 166.023C40.0968 166.12 39.9822 166.173 39.8664 166.173ZM35.958 171.155C35.8737 171.155 35.789 171.124 35.717 171.071C35.5454 170.935 35.5137 170.689 35.6472 170.518C36.2938 169.684 36.9434 168.85 37.5957 168.021C37.7296 167.849 37.9771 167.819 38.1479 167.955C38.3191 168.086 38.3489 168.337 38.2146 168.503C37.5636 169.337 36.9149 170.167 36.2692 171.001C36.1915 171.102 36.0756 171.155 35.958 171.155ZM32.1132 176.185C32.0311 176.185 31.9477 176.159 31.8771 176.106C31.7037 175.974 31.669 175.729 31.7994 175.553C32.4345 174.71 33.0728 173.867 33.7145 173.029C33.8462 172.858 34.0924 172.823 34.2663 172.954C34.4388 173.086 34.4717 173.332 34.3396 173.507C33.6996 174.346 33.0622 175.184 32.4284 176.027C32.3511 176.128 32.2331 176.185 32.1132 176.185ZM28.3488 181.272C28.2685 181.272 28.1877 181.25 28.1179 181.198C27.9419 181.07 27.9028 180.825 28.0306 180.649C28.6512 179.793 29.2759 178.942 29.9045 178.094C30.0335 177.919 30.2802 177.884 30.4544 178.011C30.6291 178.138 30.666 178.389 30.537 178.56C29.9101 179.407 29.2868 180.258 28.6675 181.11C28.5907 181.22 28.4704 181.272 28.3488 181.272ZM24.6801 186.434C24.6024 186.434 24.5243 186.412 24.4558 186.364C24.2771 186.241 24.2332 185.995 24.3575 185.816C24.9606 184.951 25.5685 184.086 26.1809 183.221C26.3068 183.046 26.5522 183.006 26.73 183.129C26.9069 183.256 26.9481 183.502 26.8226 183.678C26.2116 184.538 25.6049 185.399 25.0036 186.263C24.9268 186.377 24.8043 186.434 24.6801 186.434ZM21.1237 191.671C21.0491 191.671 20.9736 191.649 20.9069 191.605C20.7256 191.487 20.676 191.241 20.7958 191.061C21.3792 190.179 21.9678 189.301 22.5617 188.427C22.6838 188.247 22.9282 188.203 23.1078 188.322C23.2877 188.445 23.3347 188.691 23.2122 188.871C22.6205 189.74 22.0337 190.618 21.4525 191.496C21.3766 191.61 21.2515 191.671 21.1237 191.671ZM17.6977 196.996C17.6262 196.996 17.5542 196.978 17.4897 196.934C17.3053 196.82 17.2491 196.579 17.3641 196.394C17.9247 195.499 18.4909 194.603 19.0629 193.717C19.181 193.532 19.4241 193.48 19.6067 193.598C19.7898 193.717 19.842 193.958 19.7248 194.142C19.1546 195.029 18.5901 195.916 18.0318 196.811C17.9572 196.93 17.829 196.996 17.6977 196.996ZM14.4425 202.425C14.3771 202.425 14.3108 202.408 14.2498 202.373C14.0602 202.267 13.9939 202.026 14.1006 201.837C14.5948 200.964 15.1194 200.064 15.704 199.094C15.8155 198.909 16.0578 198.848 16.2439 198.962C16.4301 199.072 16.4902 199.313 16.3778 199.502C15.7975 200.468 15.2765 201.354 14.7858 202.223C14.7133 202.355 14.5799 202.425 14.4425 202.425ZM11.5468 208.053C11.4923 208.053 11.4366 208.044 11.3835 208.017C11.186 207.93 11.0986 207.693 11.189 207.495C11.6126 206.569 12.0823 205.608 12.5858 204.633C12.685 204.44 12.9229 204.365 13.116 204.466C13.3087 204.563 13.3846 204.804 13.2846 204.998C12.7872 205.959 12.3233 206.911 11.905 207.824C11.8387 207.969 11.696 208.053 11.5468 208.053ZM9.27962 213.961L9.16506 213.943C8.95656 213.882 8.83935 213.662 8.903 213.452C9.20192 212.473 9.55307 211.454 9.94769 210.436C10.0258 210.23 10.2536 210.129 10.4564 210.208C10.6592 210.287 10.7602 210.515 10.6816 210.717C10.294 211.722 9.94901 212.719 9.65579 213.68C9.60443 213.851 9.44818 213.961 9.27962 213.961ZM7.99437 220.15H7.95268C7.73672 220.124 7.58002 219.931 7.6024 219.715C7.71038 218.684 7.87893 217.617 8.10323 216.551C8.148 216.34 8.35694 216.204 8.56939 216.248C8.78185 216.292 8.91835 216.498 8.87314 216.713C8.65455 217.753 8.4904 218.789 8.38505 219.799C8.36398 220.001 8.19321 220.15 7.99437 220.15ZM8.08612 226.466C7.89299 226.466 7.72399 226.322 7.69677 226.124C7.67746 225.988 7.65945 225.852 7.64233 225.716C7.52865 224.798 7.46502 223.859 7.45317 222.92C7.45009 222.705 7.62391 222.525 7.84119 222.525C8.06461 222.538 8.23755 222.696 8.24018 222.911C8.25204 223.82 8.31394 224.733 8.42367 225.619C8.44035 225.751 8.4579 225.883 8.47633 226.019C8.50618 226.234 8.35608 226.431 8.14099 226.462L8.08612 226.466ZM9.67379 232.577C9.51489 232.577 9.36566 232.48 9.30596 232.322C8.92188 231.308 8.59311 230.285 8.32842 229.271C8.27312 229.061 8.39909 228.846 8.60935 228.793C8.8196 228.736 9.03511 228.863 9.08998 229.074C9.34764 230.057 9.66764 231.058 10.0416 232.041C10.1189 232.247 10.0166 232.476 9.81337 232.55C9.76728 232.568 9.72032 232.577 9.67379 232.577ZM12.4444 238.261C12.3101 238.261 12.1793 238.191 12.1056 238.068C11.5499 237.133 11.0367 236.185 10.5815 235.259C10.4858 235.061 10.5666 234.828 10.7619 234.732C10.9577 234.635 11.193 234.714 11.2882 234.912C11.7342 235.82 12.2372 236.747 12.782 237.664C12.893 237.853 12.832 238.094 12.645 238.204C12.5818 238.243 12.5125 238.261 12.4444 238.261ZM16.0289 243.471C15.9117 243.471 15.7958 243.419 15.7181 243.318C15.0496 242.462 14.4144 241.597 13.8315 240.754C13.7081 240.574 13.7529 240.328 13.9316 240.206C14.1102 240.083 14.3556 240.127 14.4789 240.306C15.054 241.136 15.6795 241.988 16.3392 242.835C16.4727 243.006 16.4424 243.256 16.2707 243.388C16.1987 243.445 16.1136 243.471 16.0289 243.471ZM20.1427 248.282C20.0373 248.282 19.9315 248.238 19.8543 248.155C19.1107 247.352 18.3974 246.557 17.7351 245.785C17.5933 245.618 17.6126 245.372 17.7776 245.227C17.9423 245.087 18.1907 245.104 18.332 245.271C18.9883 246.035 19.6945 246.825 20.4315 247.619C20.579 247.777 20.5698 248.028 20.4105 248.177C20.3345 248.247 20.2388 248.282 20.1427 248.282ZM24.591 252.79C24.4922 252.79 24.3943 252.755 24.318 252.68C23.5235 251.917 22.7623 251.166 22.0547 250.451C21.902 250.297 21.9038 250.047 22.0583 249.893C22.2128 249.739 22.4621 249.744 22.6148 249.897C23.3176 250.609 24.0739 251.355 24.864 252.114C25.0203 252.268 25.0251 252.514 24.8741 252.672C24.7969 252.751 24.6941 252.79 24.591 252.79ZM29.228 257.105C29.1337 257.105 29.0388 257.074 28.9638 257.004C28.1882 256.302 27.4073 255.586 26.6255 254.862C26.4662 254.713 26.4569 254.463 26.6049 254.304C26.7528 254.146 27.0021 254.138 27.161 254.283C27.9402 255.007 28.7193 255.718 29.4923 256.42C29.6534 256.565 29.6657 256.815 29.5195 256.978C29.4418 257.061 29.3351 257.105 29.228 257.105ZM33.9695 261.301C33.8796 261.301 33.7891 261.271 33.7149 261.209C32.8981 260.516 32.0922 259.813 31.3192 259.124C31.1572 258.979 31.1427 258.733 31.2871 258.571C31.432 258.409 31.6804 258.391 31.8433 258.536C32.6114 259.221 33.4125 259.919 34.2241 260.608C34.39 260.748 34.4102 260.998 34.2698 261.165C34.1916 261.253 34.081 261.301 33.9695 261.301ZM38.8857 265.291C38.801 265.291 38.7163 265.265 38.6443 265.208C37.8046 264.554 36.968 263.891 36.1586 263.237C35.99 263.097 35.9641 262.851 36.1006 262.68C36.2376 262.513 36.4856 262.486 36.6546 262.623C37.4596 263.277 38.2914 263.939 39.1272 264.585C39.2988 264.721 39.33 264.967 39.1965 265.138C39.1188 265.239 39.0029 265.291 38.8857 265.291ZM43.9525 269.088C43.8726 269.088 43.7919 269.062 43.7225 269.009C42.8652 268.39 42.0132 267.767 41.1669 267.131C40.9931 267.003 40.9576 266.753 41.0879 266.582C41.2179 266.406 41.4646 266.371 41.6388 266.503C42.4816 267.135 43.3301 267.758 44.1834 268.373C44.3599 268.5 44.3994 268.746 44.2716 268.921C44.1948 269.031 44.0745 269.088 43.9525 269.088ZM49.1334 272.727C49.0566 272.727 48.9798 272.701 48.9113 272.657C48.0391 272.06 47.17 271.459 46.3053 270.853C46.1275 270.726 46.084 270.48 46.2091 270.304C46.3338 270.124 46.5796 270.08 46.7574 270.208C47.6195 270.813 48.486 271.41 49.356 272.007C49.5355 272.13 49.5811 272.376 49.4582 272.552C49.3823 272.666 49.259 272.727 49.1334 272.727ZM54.3946 276.247C54.3204 276.247 54.2454 276.226 54.1787 276.182C53.2959 275.602 52.4154 275.018 51.5375 274.43C51.3567 274.312 51.3084 274.066 51.4291 273.886C51.5498 273.706 51.7943 273.658 51.9752 273.776C52.8508 274.364 53.7301 274.948 54.611 275.523C54.7923 275.646 54.8432 275.888 54.7234 276.072C54.6479 276.186 54.5224 276.247 54.3946 276.247ZM59.705 279.693C59.6322 279.693 59.5584 279.676 59.4926 279.632C58.6046 279.061 57.7175 278.491 56.8317 277.915C56.6495 277.797 56.5973 277.551 56.7158 277.371C56.8339 277.187 57.0775 277.134 57.2596 277.253C58.145 277.828 59.0312 278.398 59.9184 278.969C60.1014 279.087 60.1541 279.333 60.0364 279.513C59.9614 279.632 59.8345 279.693 59.705 279.693Z" fill="#0081BC"/>
<path d="M117.32 69.2831C116.95 67.0708 115.479 65.4774 114.034 65.7188C112.589 65.9602 111.717 67.9487 112.087 70.1566C112.456 72.3689 113.928 73.9622 115.373 73.7208C116.818 73.4794 117.69 71.491 117.32 69.2831Z" fill="#1F3C49"/>
<path d="M137.326 67.3261C136.966 65.1709 135.53 63.6126 134.121 63.8496C132.711 64.0867 131.861 66.0224 132.221 68.182C132.582 70.3373 134.018 71.8911 135.427 71.6585C136.837 71.4214 137.685 69.4813 137.326 67.3261Z" fill="#1F3C49"/>
<path d="M109.333 60.7372C109.101 60.7372 108.872 60.6362 108.717 60.4431C108.446 60.1051 108.501 59.6091 108.842 59.337C110.971 57.6383 114.078 57.2388 116.569 58.3406C116.967 58.5161 117.146 58.9814 116.97 59.3765C116.794 59.7759 116.33 59.9559 115.932 59.7803C113.961 58.9068 111.507 59.2229 109.823 60.566C109.678 60.6845 109.504 60.7372 109.333 60.7372Z" fill="#1F3C49"/>
<path d="M129.924 58.8983C129.684 58.8983 129.446 58.7886 129.292 58.5779C129.033 58.2311 129.106 57.7351 129.455 57.4805C131.471 55.9837 134.347 55.7072 136.611 56.7826C137.004 56.9713 137.17 57.441 136.983 57.8317C136.796 58.2267 136.326 58.3935 135.934 58.2048C134.18 57.3708 131.953 57.5859 130.393 58.7447C130.252 58.8457 130.087 58.8983 129.924 58.8983Z" fill="#1F3C49"/>
<path d="M125.145 74.5953C125.666 74.0159 126.551 73.7657 127.389 73.9106C128.243 74.051 129.031 74.6524 129.43 75.4293C129.85 76.1975 129.906 77.1895 129.539 77.9708C129.19 78.7478 128.483 79.3403 127.71 79.4413C128.247 78.897 128.547 78.2825 128.658 77.6767C128.77 77.0754 128.658 76.5003 128.387 75.9824C128.112 75.4644 127.699 75.0474 127.137 74.8016C126.574 74.5558 125.897 74.4592 125.145 74.5953Z" fill="#1F3C49"/>
<path d="M136.94 82.3112L136.95 82.3639C137.355 84.8001 136.803 87.1792 135.564 89.1325C134.091 91.4501 131.652 93.1664 128.694 93.658C125.507 94.1891 122.427 93.1839 120.247 91.1911C118.691 89.7777 117.59 87.8595 117.222 85.6516L117.213 85.599L136.94 82.3112Z" fill="#EA5353"/>
<path d="M135.565 89.1325C134.092 91.4501 131.653 93.1664 128.695 93.658C125.508 94.1891 122.428 93.1839 120.248 91.1911C121.004 90.7478 121.793 90.3571 122.593 90.006C125.65 88.6716 129.03 87.8859 132.34 88.338C133.442 88.4872 134.515 88.7682 135.565 89.1325Z" fill="#FF948F"/>
<path d="M135.104 82.6185C134.874 82.8643 134.634 83.097 134.385 83.3296C130.718 86.749 123.474 88.8428 119.324 85.2478L135.104 82.6185Z" fill="white"/>
<path d="M115.293 68.068C114.07 68.068 114.068 69.9686 115.293 69.9686C116.516 69.9686 116.518 68.068 115.293 68.068Z" fill="white"/>
<path d="M135.392 65.9557C134.17 65.9557 134.168 67.8563 135.392 67.8563C136.615 67.8563 136.617 65.9557 135.392 65.9557Z" fill="white"/>
</g>
<defs>
<clipPath id="clip0_1065_49916">
<rect width="200" height="200" fill="white"/>
</clipPath>
</defs>
</svg>
