<svg width="200" height="200" viewBox="0 0 200 200" fill="none" xmlns="http://www.w3.org/2000/svg">
<g clip-path="url(#clip0_1065_49914)">
<rect width="200" height="200" fill="#EFF9FF"/>
<path d="M170.49 132.023C170.49 117.977 159.104 106.591 145.062 106.591C143.253 106.591 141.493 106.784 139.794 107.139C137.749 96.89 139.518 84.3888 140.023 76.8126C141.186 59.2547 140.62 36.4162 125.274 23.8316C116.381 16.5407 102.655 14.5347 91.6682 18.5027C79.1274 23.0327 71.5468 34.5946 67.9738 46.196C65.6825 53.6317 64.8836 61.3045 62.9215 68.6832C61.5345 68.038 59.9937 67.6737 58.3652 67.6737C53.2559 67.6737 48.985 71.2204 47.8656 75.9873C46.7595 75.8469 45.6358 75.7679 44.4901 75.7679C29.8073 75.7679 17.9031 87.6677 17.9031 102.351C17.9031 105.485 18.4518 108.487 19.4438 111.279C12.2889 115.594 7.5 123.442 7.5 132.41C7.5 144.819 16.674 155.086 28.609 156.811C31.2822 168.219 41.5141 176.721 53.7387 176.721C54.2743 176.721 54.801 176.699 55.3277 176.664C59.4538 187.076 69.6023 194.442 81.4846 194.442C92.3837 194.442 101.834 188.235 106.5 179.166C111.008 182.239 116.456 184.039 122.324 184.039C137.538 184.039 149.921 171.963 150.43 156.881C161.895 154.414 170.49 144.226 170.49 132.023Z" fill="#602826"/>
<path d="M245.683 353.876C243.142 347.511 240.6 341.151 238.054 334.782C235.618 328.676 233.489 323.413 230.281 317.658C228.959 315.297 227.164 312.207 225.676 309.858C218.53 296.725 211.388 283.587 204.247 270.454C199.726 262.14 195.209 253.831 190.692 245.522C187.72 240.061 184.744 234.587 182.484 228.798C179.683 221.625 178.015 214.071 176.497 206.521C173.389 191.026 170.847 175.33 165.593 160.423C161.59 149.072 155.875 138.063 147.127 129.789C134.16 117.529 115.909 112.832 98.3946 114.022C95.3702 114.224 92.3546 114.614 89.3742 115.185C81.1834 116.761 73.2648 119.732 66.031 123.894C58.5425 128.204 52.4236 133.485 47.5732 140.67C46.0501 142.922 44.6761 145.27 43.4208 147.68C38.6538 156.828 35.5505 166.735 31.6702 176.291C24.7831 193.269 14.8936 209.335 11.6849 227.376C8.35325 246.11 16.4914 291.506 16.4387 318.067C15.9076 328.162 12.1853 341.019 11.2942 346.598C10.6051 350.992 9.86761 355.553 10.3461 360.004C10.8509 364.727 12.1063 369.292 13.2783 373.874C13.4626 374.59 13.6513 375.327 14.0859 375.929C14.8672 377.008 16.6757 377.302 17.5185 376.13C19.3533 373.589 18.3569 369.805 17.7336 367C17.1542 364.384 16.4211 361.777 16.2763 359.095C16.1358 356.457 16.8162 354.069 17.8609 351.664C18.6115 349.934 19.2919 348.178 20.082 346.458C20.3014 345.984 20.5341 345.496 20.7974 345.035C20.894 344.855 20.9993 344.689 21.1091 344.517C21.6446 343.683 22.3118 342.959 23.1941 342.542C23.9403 342.191 25.1737 341.95 25.9463 342.353C26.7891 342.792 26.7539 343.89 26.8242 344.702C26.9163 345.668 26.7934 346.638 26.6486 347.59C26.4467 348.867 26.1526 350.189 26.1394 351.492C26.135 351.848 26.1526 352.203 26.2009 352.555C26.2316 352.831 26.2887 353.112 26.3589 353.389C27.149 356.325 31.1302 358.937 32.6446 355.008C32.965 354.166 33.0748 353.257 33.2021 352.366C33.8034 348.099 35.3002 343.947 35.1247 339.623C35.0105 336.867 34.5979 334.132 34.1809 331.406C33.4918 326.867 31.4639 320.248 30.9898 318.067C33.821 290.979 35.2432 267.974 36.8014 240.987C36.9682 238.134 37.1394 235.246 37.9515 232.503C38.9962 228.995 41.0417 225.883 43.0433 222.824C55.3689 203.971 67.0844 184.723 78.1722 165.115C82.0525 158.259 85.9636 150.933 85.7836 143.054C96.134 150.577 110.409 152.338 122.282 147.557C137.057 180.68 143.957 217.192 161.673 248.836C175.882 274.207 196.943 294.192 214.11 317.658C214.733 318.51 214.457 321.06 214.514 322.144C214.702 325.656 214.408 329.159 214.839 332.662C215.278 336.199 216.094 339.689 217.283 343.047C217.823 344.57 219.289 345.966 220.843 344.601C220.984 344.518 221.115 344.412 221.243 344.272C222.779 342.639 222.788 340.4 222.691 338.298C222.582 335.905 222.705 333.632 223.749 331.432C224.035 330.84 224.513 330.282 225.158 330.155C225.549 330.076 225.957 330.173 226.339 330.3C227.621 330.735 228.586 331.529 229.368 332.512C229.78 333.026 230.145 333.592 230.469 334.185C230.786 334.747 231.066 335.33 231.339 335.914C231.681 336.643 232.001 337.371 232.335 338.065C232.405 338.21 232.471 338.35 232.541 338.482C232.603 338.609 232.669 338.737 232.734 338.864C233.143 339.676 233.551 340.488 233.963 341.304C234.71 342.784 235.456 344.263 236.202 345.747C236.852 347.037 237.506 348.332 238.155 349.622C239.297 351.879 240.517 354.411 242.558 356.009C244.086 357.207 246.522 355.978 245.683 353.876Z" fill="#FFCFCA"/>
<path d="M121.672 122.252C119.604 123.52 117.107 123.806 114.701 124.056C111.8 124.368 108.894 124.675 105.979 124.556C100.299 124.328 95.1461 122.304 89.7602 120.5C89.8524 117.226 89.9358 113.947 90.0323 110.672C90.1465 106.577 90.2562 102.473 89.9577 98.3819C89.8655 97.1309 89.7426 95.8798 89.5802 94.6376C89.2027 91.5342 88.6453 88.4572 88.0922 85.3714C87.6357 82.8431 87.1792 80.306 86.7227 77.7776C88.18 79.1911 89.5758 79.9285 91.3623 80.9161C98.8991 85.073 106.594 88.9445 114.332 92.715C116.668 93.8475 119.02 94.9844 121.54 95.5945L121.61 109.953L121.672 122.252Z" fill="#FFCFCA"/>
<path d="M121.61 109.952C112.902 107.714 104.518 104.242 96.9062 99.4967C94.4832 97.9867 91.9725 96.3758 89.5802 94.6375C89.2027 91.5342 88.6453 88.4572 88.0922 85.3714C87.6357 82.843 87.1792 80.3059 86.7227 77.7776C88.18 79.191 89.5758 79.9284 91.3623 80.916C98.8991 85.0729 106.594 88.9444 114.332 92.7149C116.668 93.8474 119.02 94.9843 121.54 95.5945L121.61 109.952Z" fill="#F9BFBB"/>
<path d="M136.499 55.1373C136.055 53.0743 135.498 51.0375 134.844 49.0535C132.781 42.7853 128.778 36.9517 123.321 33.0056C112.848 25.4381 97.8318 26.733 88.8948 35.9728C86.7747 38.1632 85.0364 40.6915 83.7679 43.4306C80.647 50.1509 80.2607 57.4725 81.6215 64.5791C82.811 70.8648 85.3744 76.9837 88.5963 82.374C90.5804 85.6881 92.9024 88.8265 95.6853 91.5524C97.2787 93.115 99.0433 94.5372 100.935 95.7575C104.741 98.2068 109.064 99.8397 113.594 100.134C117.685 100.397 121.895 99.4534 125.424 97.4035C129.401 95.0947 131.881 91.4207 133.703 87.3604C138.184 77.3612 138.799 65.8301 136.499 55.1373Z" fill="#FFCFCA"/>
<path d="M90.5468 80.2707C86.5919 82.0967 81.6668 81.6577 78.1289 79.1074C75.1397 76.9566 73.2522 73.3704 73.0898 69.7008C73.0635 69.0336 73.0898 68.3664 73.1776 67.6992C73.3312 66.5316 73.6648 65.3816 74.2574 64.3632C75.7235 61.8612 78.7874 60.4522 81.6712 60.777C84.5595 61.1062 87.1581 63.0639 88.4618 65.6581L89.265 71.2767L90.5468 80.2707Z" fill="#FFCFCA"/>
<path d="M124.885 29.3699C121.488 39.0092 114.399 47.1604 105.716 52.5639C97.0385 57.9673 86.8505 60.7152 76.6406 61.2463C75.9163 61.2858 78.0233 47.8057 78.4095 46.5108C80.4814 39.6325 84.985 33.518 90.9283 29.4796C91.8194 28.8739 92.7412 28.3164 93.6893 27.8116C99.5668 24.6819 106.463 23.5538 113.042 24.5107C115.751 24.9014 118.398 25.5993 120.816 26.8723C121.286 27.1181 125.092 28.7861 124.885 29.3699Z" fill="#602826"/>
<path d="M139.854 226.971C141.768 211.726 143.216 196.512 146.302 181.443C149.041 168.073 152.175 153.921 147.088 140.735C144.946 138.47 142.36 136.605 139.692 134.959C116.866 120.882 88.2119 122.321 62.9109 131.206C61.559 152.139 64.2805 173.169 66.0363 194.129C66.563 197.136 66.9405 200.169 67.2917 203.202C69.504 222.169 70.6935 241.223 71.9752 260.269C72.5766 260.186 73.1911 260.133 73.8188 260.111C78.0985 259.967 82.3563 260.673 86.579 261.384C97.4473 263.202 108.311 265.019 119.175 266.836C123.385 267.543 127.616 268.254 131.76 269.259C134.192 258.329 136.781 247.43 139.362 236.536C139.292 233.379 139.446 230.202 139.854 226.971Z" fill="#FFCFCA"/>
<path d="M175.549 184.749C172.072 189.112 167.929 192.005 163.175 193.962C161.845 194.507 160.642 194.963 159.505 195.349C154.764 196.96 151.257 197.351 145.389 198.005L140.679 245.174C134.661 246.978 128.379 247.738 122.116 247.957C112.402 248.291 102.574 247.698 92.8948 246.904C83.971 246.175 74.8892 244.731 66.8301 240.622C67.0408 229.205 66.7994 217.784 66.1322 206.38C65.8601 201.617 65.5133 196.859 65.0919 192.105C65.0831 192.048 65.0787 191.991 65.0744 191.934C63.9024 193.615 62.704 194.897 61.7296 196.697C50.1721 189.046 39.9095 179.951 30.832 169.53C31.0296 169.061 31.2227 168.587 31.4158 168.104C32.5351 165.33 33.8959 162.749 35.4015 160.159C38.6146 154.606 41.8891 149.054 45.3612 143.654C46.0064 142.645 46.6693 141.653 47.354 140.67C51.941 134.055 57.4191 128.028 64.0428 123.41C67.5851 120.939 71.382 118.893 75.4028 117.318C77.4834 116.501 89.0804 113.319 89.1989 113.516C90.6123 115.852 92.0433 116.769 94.6462 117.572C100.91 119.508 107.622 119.679 114.122 118.823C117.735 118.345 122.752 115.136 122.752 115.136C122.752 115.136 134.072 118.367 139.858 121.861C142.377 123.375 144.739 125.148 146.995 127.031C153.86 132.755 159.066 139.84 162.828 147.925C166.691 156.222 169.149 165.058 172.02 173.722C173.231 177.383 174.425 181.057 175.549 184.749Z" fill="#00AEFF"/>
<path d="M147.929 175.434C148.048 173.314 148.14 171.181 147.986 169.061C147.811 166.55 147.289 164.088 146.7 161.665C145.388 156.27 143.742 150.981 141.775 145.858C142.21 146.697 142.693 147.517 143.176 148.325C146.639 154.203 149.927 160.444 150.976 167.419C151.779 172.731 151.248 178.274 152.499 183.472C153.596 188.002 156.032 192.057 159.202 195.069C159.303 195.161 159.403 195.257 159.504 195.35C154.764 196.96 151.257 197.351 145.388 198.005C146.595 190.043 147.473 183.494 147.929 175.434Z" fill="#0081BC"/>
<path d="M74.2351 179.271C72.4266 188.555 70.5128 198.093 66.1321 206.38C65.86 201.618 65.5132 196.859 65.0918 192.106C68.9063 188.392 72.8699 184.415 74.2351 179.271Z" fill="#0081BC"/>
<path d="M107.366 53.5433C107.928 53.4862 108.498 53.5301 109.06 53.5739C110.061 53.6573 111.062 53.7364 112.058 53.8198C112.392 53.8461 112.804 53.8285 112.949 53.5301C113.019 53.3808 112.998 53.2009 112.936 53.0516C112.69 52.4766 111.984 52.2791 111.365 52.2001C109.824 52.0069 108.2 52.1123 106.76 52.7224C106.479 52.8409 104.868 53.574 104.982 53.9515C105.083 54.2851 107.041 53.574 107.366 53.5433Z" fill="#211A17"/>
<path d="M129.162 52.8628C128.595 52.8496 128.034 52.933 127.472 53.0208C126.484 53.1744 125.492 53.3324 124.5 53.486C124.171 53.5343 123.758 53.5475 123.591 53.2622C123.508 53.1173 123.517 52.9373 123.569 52.7837C123.771 52.1911 124.465 51.9409 125.075 51.818C126.598 51.5108 128.227 51.502 129.706 51.998C129.996 52.099 131.655 52.7135 131.571 53.0954C131.492 53.4378 129.487 52.8715 129.162 52.8628Z" fill="#211A17"/>
<path d="M127.386 79.1424C126.262 82.0614 124.204 84.0674 121.702 84.2781C119.296 84.4756 117.014 82.9524 115.434 80.4329C114.349 78.7034 113.594 76.4999 113.357 74.0594L113.827 74.0199L127.746 72.8698L128.264 72.8259C128.422 75.1392 128.084 77.3207 127.386 79.1424Z" fill="#CE7872"/>
<path d="M127.747 72.8699C126.198 75.2139 123.836 76.7853 121.08 77.018C118.327 77.2462 115.738 76.0743 113.828 74.02L127.747 72.8699Z" fill="white"/>
<path d="M127.386 79.1424C126.262 82.0614 124.204 84.0674 121.702 84.2781C119.296 84.4756 117.014 82.9524 115.434 80.4329C116.11 79.9852 116.821 79.5901 117.562 79.2609C119.709 78.3084 122.119 77.8914 124.432 78.2601C125.464 78.4225 126.442 78.7341 127.386 79.1424Z" fill="#EA8C8B"/>
<path d="M112.879 62.5549C112.937 64.4511 111.896 66.0225 110.557 66.062C109.219 66.1015 108.091 64.5959 108.033 62.6997C107.976 60.8034 109.012 59.232 110.351 59.1925C111.69 59.153 112.822 60.6586 112.879 62.5549Z" fill="#211A17"/>
<path d="M111.124 61.4534C110.347 61.4753 110.382 62.6912 111.163 62.6649C111.94 62.6429 111.905 61.4314 111.124 61.4534Z" fill="white"/>
<path d="M125.811 62.1635C125.868 64.0598 127 65.5654 128.339 65.5259C129.678 65.4864 130.714 63.9149 130.657 62.0187C130.6 60.1224 129.472 58.6168 128.133 58.6564C126.794 58.6959 125.754 60.2673 125.811 62.1635Z" fill="#211A17"/>
<path d="M128.954 60.558C128.172 60.58 128.207 61.7915 128.989 61.7695C129.77 61.7476 129.735 60.5361 128.954 60.558Z" fill="white"/>
<path d="M121.668 66.4305C120.878 65.8159 119.649 65.8335 118.902 66.5051L121.066 70.2405C121.668 70.201 122.159 69.7006 122.383 69.1388C122.752 68.2082 122.458 67.045 121.668 66.4305Z" fill="#CE7872"/>
<path d="M109.394 72.2426C109.596 75.1352 106.87 77.6855 103.305 77.9313C99.7456 78.1771 96.6905 76.0306 96.493 73.138C96.291 70.2409 99.0169 67.695 102.581 67.4448C106.141 67.199 109.196 69.3455 109.394 72.2426Z" fill="#F9BFBB"/>
<path d="M136.881 69.2052C136.995 70.8293 135.468 72.2603 133.466 72.3964C131.464 72.5368 129.752 71.3297 129.643 69.7056C129.529 68.0815 131.056 66.6506 133.058 66.5145C135.059 66.374 136.771 67.5811 136.881 69.2052Z" fill="#F9BFBB"/>
</g>
<defs>
<clipPath id="clip0_1065_49914">
<rect width="200" height="200" fill="white"/>
</clipPath>
</defs>
</svg>
