<svg width="200" height="200" viewBox="0 0 200 200" fill="none" xmlns="http://www.w3.org/2000/svg">
<g clip-path="url(#clip0_1065_49913)">
<rect width="200" height="200" fill="#EFF9FF"/>
<path d="M167.866 132.07L167.849 132.026C164.767 123.888 159.289 116.386 153.192 110.254C146.512 103.534 140.924 97.7003 138.742 88.0917C137.123 80.9456 137.166 73.545 137.048 66.2233C136.859 54.3805 135.753 41.6423 129.028 31.5421C123.133 22.6754 113.582 16.6662 102.819 16.5038C88.9919 16.2974 75.8499 24.6375 68.8707 36.3925C61.4963 48.8059 60.7413 63.4228 55.3994 76.6088C52.4189 83.97 47.428 90.541 43.2317 97.2832C37.0732 107.16 29.6726 116.891 26.8239 128.326C20.2967 154.689 34.5801 183.01 59.7932 193.031C62.1679 193.975 64.6129 194.743 67.0973 195.331C68.2342 195.599 69.3798 195.831 70.5342 196.024C87.9473 198.957 105.659 196.705 122.576 192.034C132.549 189.282 142.407 185.595 150.831 179.577C165.746 168.933 174.661 150.071 167.866 132.07Z" fill="#603813"/>
<path d="M286.022 206.705C283.191 206.073 280.338 205.533 277.485 205.002C274.201 204.392 270.909 203.856 267.643 203.163C267.42 203.114 266.88 202.943 266.897 202.64C266.902 202.522 267.007 202.43 267.121 202.395C267.446 202.298 267.867 202.452 268.179 202.535C270.47 203.154 272.722 203.553 275.062 203.922C277.098 204.247 279.122 204.616 281.141 205.024C282.563 205.314 284.038 205.796 285.478 205.911C286.492 205.99 287.585 205.717 287.945 204.642C288.998 201.49 282.677 200.665 280.812 200.266C275.123 199.045 269.483 197.579 263.781 196.434C263.272 196.333 262.745 196.298 262.284 196.034C262.196 195.982 262.1 195.911 262.073 195.81C262.038 195.67 262.144 195.538 262.249 195.437C263.021 194.709 264.132 194.388 265.089 193.971C266.419 193.387 267.902 192.733 269 191.75C269.807 191.013 270.387 189.775 269.737 188.761C269.197 187.914 268.148 187.457 267.169 187.413C265.927 187.352 264.724 187.817 263.557 188.26C260.954 189.253 258.329 190.183 255.678 191.048C253.233 191.847 250.612 191.904 248.185 192.768C246.578 193.343 245.038 194.081 243.563 194.95C242.944 194.726 205.638 176.633 188.769 173.284L159.583 133.432C158.315 134.858 157.016 136.258 155.721 137.663C152.165 141.508 148.715 145.45 145.142 149.278C144.018 150.48 142.881 151.67 141.74 152.855C141.301 153.448 140.867 154.036 140.428 154.628C150.826 167.485 168.283 189.064 173.538 195.459C173.871 196.293 174.372 196.93 175.074 197.298C193.11 206.727 238.37 207.886 239.059 208.206C239.551 208.439 239.92 209.141 240.284 209.554C240.732 210.067 241.21 210.555 241.706 211.024C242.703 211.964 243.769 212.824 244.897 213.605C247.035 215.08 249.379 216.239 251.85 217.047C253.351 217.538 254.914 217.692 256.472 217.885C259.773 218.293 263.057 218.807 266.357 219.184C269.654 219.562 272.968 219.518 276.273 219.391C277.48 219.342 279.074 219.29 279.767 218.109C280.211 217.345 280.026 216.436 279.223 216.019C278.428 215.602 277.41 215.677 276.537 215.611C275.545 215.532 274.553 215.458 273.556 215.387C271.866 215.265 270.172 215.155 268.482 215.049C267.674 214.997 266.748 215.115 265.989 214.799C265.532 214.615 266.024 214.193 266.287 214.128C266.823 213.996 267.468 214.185 268.008 214.246C268.675 214.321 269.347 214.391 270.014 214.457C271.353 214.584 272.696 214.698 274.039 214.795C276.655 214.992 279.276 215.133 281.896 215.26C282.607 215.295 283.323 215.326 284.021 215.181C285.302 214.918 286.909 213.443 285.855 212.06C285.32 211.358 284.315 211.274 283.432 211.244C280.505 211.191 277.586 210.985 274.675 210.673C273.218 210.519 271.765 210.335 270.312 210.133C269.588 210.032 268.868 209.927 268.144 209.817C267.863 209.773 266.726 209.778 266.638 209.431C266.515 208.944 267.464 209.018 267.701 209.045C269.724 209.295 271.752 209.541 273.776 209.786C277.151 210.199 280.527 210.607 283.902 211.02C285.522 211.217 288.796 212.047 289.512 209.923C290.254 207.715 287.616 207.061 286.022 206.705Z" fill="#FFCFCA"/>
<path d="M176.672 152.709C168.999 161.571 162.59 167.905 154.755 176.618C153.829 175.604 152.903 174.56 152.016 173.537C148.777 169.801 146.095 166.395 145.994 166.263L145.989 166.259C145.989 166.259 143.597 221.25 143.198 223.243C142.491 226.781 149.975 254.325 148.382 255.919C128.036 276.259 68.2824 270.663 57.1244 248.746C55.8339 246.209 75.8104 217.664 75.8104 217.664C75.8104 217.664 67.5977 191.363 63.5243 176.096C61.8738 169.92 60.715 165.548 60.7106 165.46C60.2761 166.773 59.5167 170.24 58.3227 174.226C54.3371 173.032 28.0134 167.532 25.248 166.259C34.545 136.784 46.4053 121.917 51.8395 117.567C55.6803 114.494 81.091 104.925 109.407 107.054C125.341 108.248 144.304 115.42 147.526 118.339C155.598 125.639 168.279 141.779 176.672 152.709Z" fill="#00AEFF"/>
<path d="M116.373 115.373C114.697 120.746 109.043 122.006 104.048 121.953C98.539 121.892 91.2525 120.619 89.2904 114.587C87.9384 110.426 88.9129 105.65 88.9305 101.362C88.948 98.5132 88.8558 95.66 88.6232 92.8156C88.4827 91.073 88.2939 89.3304 88.0437 87.5966C87.8374 86.2007 87.6092 84.8005 87.3503 83.409C87.1747 82.474 86.9859 81.5391 86.784 80.6129C86.6435 79.9633 85.8622 78.2119 86.6172 77.7642C87.3151 77.3472 88.7461 78.5806 89.3255 78.9317C97.8806 84.0586 106.818 88.5623 116.031 92.3811C116.395 92.5303 116.773 92.6971 116.988 93.0263C117.194 93.3336 117.199 93.7287 117.199 94.1062C117.203 97.0954 117.203 100.093 117.207 103.087C117.212 104.25 117.243 105.418 117.26 106.581C117.317 109.544 117.273 112.498 116.373 115.373Z" fill="#FFCFCA"/>
<path d="M117.26 106.581C109.258 104.377 101.568 101.094 94.5445 96.7042C92.5956 95.4839 90.5809 94.1934 88.6232 92.8151C88.4827 91.0725 88.2939 89.3299 88.0437 87.596C87.8374 86.2002 87.6092 84.7999 87.3503 83.4085C87.1747 82.4735 86.9859 81.5385 86.784 80.6123C86.6435 79.9627 85.8622 78.2113 86.6172 77.7636C87.3151 77.3466 88.7461 78.58 89.3255 78.9312C97.8806 84.0581 106.818 88.5617 116.031 92.3806C116.395 92.5298 116.773 92.6966 116.988 93.0258C117.194 93.333 117.199 93.7281 117.199 94.1056C117.203 97.0948 117.203 100.093 117.207 103.086C117.212 104.25 117.243 105.417 117.26 106.581Z" fill="#F9BFBB"/>
<path d="M130.556 82.8773C128.845 87.0649 126.465 90.8705 122.572 93.3199C119.113 95.4926 114.956 96.5593 110.883 96.3793C106.375 96.1818 102.042 94.6148 98.2104 92.1962C96.3009 90.9934 94.5144 89.5844 92.8947 88.0262C90.0635 85.3047 87.6845 82.1531 85.639 78.8171C82.3118 73.3873 79.6254 67.1981 78.2954 60.807C78.1373 60.0696 78.0012 59.3278 77.8827 58.5859C76.8468 52.0544 77.2858 45.3824 79.9327 39.1581C81.1222 36.3313 82.7946 33.7108 84.8489 31.4283C93.5049 21.789 108.394 20.121 118.973 27.6094C124.486 31.516 128.599 37.3848 130.793 43.7319C131.491 45.7467 132.088 47.8142 132.58 49.9124C132.663 50.2723 132.747 50.641 132.821 51.0053C135.086 61.562 134.639 72.9132 130.556 82.8773Z" fill="#FFCFCA"/>
<path d="M108.652 63.5106C108.086 63.5369 107.304 62.6371 107.085 61.2939C106.971 60.5872 107.041 59.8849 107.278 59.3581C107.357 59.1738 107.585 58.748 107.932 58.691L107.985 58.6866C108.551 58.6558 109.332 59.5557 109.552 60.8989C109.666 61.6056 109.596 62.3123 109.363 62.8346C109.28 63.019 109.056 63.4448 108.704 63.5018L108.652 63.5106Z" fill="#1F3C49"/>
<path d="M125.663 61.8603C125.18 61.8823 124.377 61.0834 124.157 59.7183C124.048 59.0379 124.113 58.3531 124.342 57.844C124.504 57.4753 124.732 57.2426 124.961 57.2075L125.009 57.2031C125.492 57.1768 126.295 57.9801 126.514 59.3408C126.624 60.0256 126.558 60.7103 126.33 61.2195C126.168 61.5838 125.939 61.8165 125.711 61.856L125.663 61.8603Z" fill="#1F3C49"/>
<path d="M117.125 64.9461C117.573 64.4589 118.323 64.2482 119.03 64.3799C119.754 64.4984 120.417 65.0163 120.755 65.6748C121.106 66.3244 121.146 67.1672 120.834 67.83C120.531 68.484 119.93 68.98 119.276 69.0678C119.732 68.6069 119.991 68.089 120.088 67.5754C120.184 67.0662 120.092 66.579 119.868 66.1356C119.636 65.7011 119.289 65.3455 118.815 65.1304C118.336 64.9197 117.766 64.832 117.125 64.9461Z" fill="#1F3C49"/>
<path d="M108.652 53.6785C108.6 53.6873 108.547 53.6829 108.494 53.6653C107.862 53.4722 107.169 53.4107 106.488 53.4853C106.396 53.4985 106.304 53.5117 106.212 53.5249C105.597 53.6302 105 53.8453 104.482 54.1482C104.438 54.1745 104.395 54.1921 104.346 54.1965C104.28 54.2052 104.237 54.2052 104.197 54.1921C104.092 54.1701 103.995 54.1043 103.938 54.0077C103.828 53.8234 103.894 53.5776 104.079 53.4678C104.676 53.1167 105.365 52.8708 106.076 52.7523C106.181 52.7347 106.291 52.7172 106.396 52.7084C107.182 52.6206 107.99 52.6909 108.723 52.9103C108.933 52.9718 109.052 53.1913 108.986 53.402C108.942 53.5468 108.824 53.6522 108.674 53.6785H108.652Z" fill="#1F3C49"/>
<path d="M122.058 51.3035L121.984 51.2771C121.896 51.2376 121.83 51.163 121.79 51.0796C121.707 50.8777 121.799 50.645 121.997 50.5573C122.98 50.1359 124.117 50.0218 125.192 50.2325C125.289 50.25 125.385 50.272 125.482 50.2983C125.745 50.3641 126.004 50.4519 126.246 50.5573C126.443 50.645 126.54 50.8777 126.452 51.0753C126.377 51.2508 126.202 51.343 126.018 51.3079C125.974 51.2991 125.956 51.2903 125.934 51.2815C125.728 51.1937 125.508 51.1191 125.285 51.062C125.205 51.0401 125.122 51.0226 125.043 51.0094C124.121 50.8251 123.151 50.9216 122.308 51.2859C122.238 51.3167 122.155 51.3254 122.076 51.3079L122.058 51.3035Z" fill="#1F3C49"/>
<path d="M108.323 59.5644C107.497 59.3932 107.23 60.6838 108.059 60.8549C108.889 61.0261 109.157 59.7356 108.323 59.5644Z" fill="white"/>
<path d="M125.6 57.9014C124.771 57.7302 124.503 59.0163 125.332 59.1919C126.162 59.363 126.43 58.0726 125.6 57.9014Z" fill="white"/>
<path d="M127.444 71.4778C127.677 73.7779 127.264 75.9638 126.369 77.825C124.938 80.8142 122.265 82.9431 119.034 83.2679C115.72 83.6059 112.612 81.973 110.62 79.2208C109.443 77.6099 108.653 75.6127 108.429 73.4048C108.42 73.3258 108.425 73.2467 108.416 73.1633L127.409 71.2364C127.418 71.3198 127.436 71.3988 127.444 71.4778Z" fill="#D55454"/>
<path d="M126.638 71.3158C124.737 73.787 121.761 75.5253 118.284 75.8764C114.812 76.2276 111.547 75.1214 109.189 73.0847L126.638 71.3158Z" fill="white"/>
<path d="M126.369 77.825C124.938 80.8142 122.264 82.9431 119.034 83.2679C115.72 83.6059 112.612 81.973 110.619 79.2208C113.788 78.1761 117.111 77.588 120.447 77.4914C122.427 77.4343 124.411 77.5484 126.369 77.825Z" fill="#F37C7C"/>
<path d="M107.59 68.7345C107.704 70.8941 105.417 72.7728 102.485 72.9308C99.5484 73.0844 97.0772 71.4603 96.9631 69.3007C96.849 67.1367 99.1358 65.258 102.068 65.1044C105.005 64.9464 107.476 66.5705 107.59 68.7345Z" fill="#F9BFBB"/>
<path d="M132.338 65.2184C132.417 66.6801 130.872 67.9486 128.888 68.054C126.908 68.1593 125.24 67.0619 125.161 65.6002C125.082 64.1386 126.627 62.87 128.607 62.7647C130.591 62.6593 132.259 63.7567 132.338 65.2184Z" fill="#F9BFBB"/>
<path d="M133.176 50.9041C127.966 49.3853 122.703 46.0054 118.449 41.0102C117.888 40.3562 117.365 39.6846 116.869 39.0086C113.634 45.8298 107.028 52.1068 98.2359 55.8291C91.1425 58.8315 83.8428 59.6479 77.5351 58.5813C76.486 51.9664 76.9338 45.2109 79.6114 38.9077C80.8185 36.0413 82.5084 33.3901 84.589 31.0768C93.3548 21.3146 108.433 19.6291 119.147 27.2097C124.731 31.1646 128.896 37.1124 131.122 43.5386C131.829 45.5753 132.434 47.6734 132.93 49.7936C133.014 50.1623 133.097 50.531 133.176 50.9041Z" fill="#603813"/>
<path d="M90.2132 76.1835C86.6621 78.6636 81.7722 79.0981 77.8656 77.2238C74.5603 75.6436 72.0891 72.47 71.2858 68.9058C71.141 68.2605 71.0532 67.6065 71.0225 66.9349C70.9654 65.7673 71.097 64.5821 71.4921 63.4848C72.4885 60.7808 75.2407 58.867 78.1158 58.6783C80.9953 58.4939 83.8836 59.9513 85.613 62.2601L87.382 67.6153L90.2132 76.1835Z" fill="#FFCFCA"/>
<path d="M117.176 107.054C116.741 110.811 116.183 114.788 113.207 117.479C110.596 119.84 106.944 120.854 103.463 120.828C99.7976 120.797 96.1499 119.617 93.1914 117.483C89.8423 115.073 88.8283 111.022 88.7142 107.093C88.6659 105.254 85.7644 105.245 85.8171 107.093C85.9444 111.641 87.1691 116.425 90.9089 119.344C94.4556 122.114 98.9416 123.646 103.463 123.69C107.707 123.73 112.101 122.378 115.257 119.502C118.822 116.259 119.555 111.579 120.077 107.054C120.283 105.223 117.382 105.241 117.176 107.054Z" fill="#0081BC"/>
<path d="M53.191 297.628C53.3534 298.409 53.5378 299.195 53.5246 299.989C53.45 303.698 49.3679 302.737 47.8228 300.533C47.6823 300.327 47.5549 300.116 47.4408 299.893C47.3969 299.814 47.3575 299.73 47.3223 299.642C47.1292 299.23 46.9843 298.795 46.8658 298.352C46.6244 297.461 46.4927 296.53 46.3171 295.644C46.1547 294.81 45.9615 293.971 45.6016 293.199C45.527 293.032 45.4481 292.856 45.3647 292.676C45.2374 292.408 45.0969 292.136 44.9038 291.921C44.8379 291.851 44.772 291.785 44.6974 291.733C44.6184 291.675 44.5394 291.627 44.4516 291.592C44.4077 291.57 44.3638 291.557 44.3155 291.544C44.2673 291.526 44.219 291.517 44.1663 291.513C43.9293 291.482 43.6747 291.517 43.4245 291.592C43.3323 291.618 43.2358 291.649 43.148 291.689C43.0075 291.75 42.867 291.82 42.731 291.899C42.6432 291.948 42.5597 292 42.4763 292.057C42.27 292.198 42.0857 292.351 41.9409 292.501C41.559 292.883 41.2912 293.339 41.0893 293.835C40.9708 294.134 40.8786 294.445 40.8083 294.761C40.6591 295.389 40.5933 296.047 40.5406 296.684C40.4001 298.347 40.365 300.002 40.2597 301.666C40.2509 301.868 40.2421 302.07 40.2333 302.272C40.1675 304.019 40.2992 305.695 40.8259 307.341L40.8303 307.346C40.9356 307.666 41.0497 307.982 41.1858 308.298C42.1164 310.484 43.5035 312.424 44.7764 314.417C45.9309 316.243 47.5374 318.583 47.511 320.874C47.5066 321.269 47.454 321.66 47.3443 322.046C47.1731 322.656 46.6946 323.034 46.1416 323.183C45.5753 323.337 44.9257 323.249 44.434 322.915C43.8941 322.551 43.5167 321.998 43.148 321.458C40.7952 318.008 38.381 314.602 36.5418 310.844C34.808 307.298 32.6044 298.282 31.8538 294.432C30.7608 288.735 26.3889 257.6 25.1642 244.822C22.6578 218.665 24.5936 201.204 27.2405 186.978C28.0043 182.865 29.7073 175.284 31.3973 167.962C38.7541 169.753 50.5179 172.299 55.9301 173.607L49.5521 199.334C49.5521 199.334 47.0151 233.225 45.966 245.16C45.0222 255.941 42.3841 268.385 42.1296 271.589C43.6264 273.187 45.211 275.412 47.6954 279.964C48.8587 282.093 50.0262 284.235 50.948 286.487C52.4009 290.021 52.4053 293.914 53.191 297.628Z" fill="#FFCFCA"/>
<path d="M70.2712 141.178C70.2009 141.889 68.5373 158.292 67.0888 164.666C66.1846 168.647 64.7844 172.778 63.5246 176.096C61.8741 169.92 60.7153 165.548 60.7109 165.46C60.7109 165.46 65.096 156.695 67.4883 149.922C69.7269 143.57 70.2185 141.419 70.2712 141.178Z" fill="#0081BC"/>
<path d="M152.016 173.538C148.776 169.802 146.094 166.396 145.993 166.264L145.989 166.26C145.989 166.26 146.388 153.109 145.989 147.605C145.73 144.005 142.89 131.974 142.807 131.596C143.009 131.965 149.523 143.755 151.169 151.516C152.797 159.18 152.525 167.735 152.016 173.538Z" fill="#0081BC"/>
</g>
<defs>
<clipPath id="clip0_1065_49913">
<rect width="200" height="200" fill="white"/>
</clipPath>
</defs>
</svg>
