<svg width="200" height="200" viewBox="0 0 200 200" fill="none" xmlns="http://www.w3.org/2000/svg">
<g clip-path="url(#clip0_1065_49911)">
<rect width="200" height="200" fill="#EFF9FF"/>
<path d="M103.489 98.1934C106.526 98.1232 109.274 99.8351 111.93 101.314C114.585 102.789 117.667 104.128 120.577 103.254C123.632 102.341 125.48 99.3303 127.995 97.3726C130.738 95.2437 134.25 94.3965 137.27 92.6802C140.114 91.0605 142.529 88.6024 143.81 85.5868C145.088 82.5756 145.149 79.0026 143.692 76.0748C143.305 75.2979 142.801 74.5034 142.875 73.6387C142.941 72.8617 143.464 72.2033 144.003 71.6458C145.443 70.1578 147.225 68.9287 148.2 67.1027C148.959 65.6849 149.152 64.0213 149.047 62.4148C148.74 57.8014 145.882 53.4383 141.778 51.3138C137.674 49.1893 132.463 49.3736 128.522 51.7835C124.795 54.0616 120.103 53.4778 116.354 55.7164C110.086 59.4607 104.529 64.3901 100.06 70.1666C98.0412 72.7784 96.2196 75.6008 95.2319 78.748C94.2399 81.8953 94.139 85.4112 95.4822 88.4224C96.1845 90.0026 97.2512 91.3897 98.309 92.7592C99.74 94.6203 101.61 96.7888 103.489 98.1934Z" fill="#323A40"/>
<path d="M86.2508 120.602C84.8023 125.768 96.272 132.94 99.6958 132.242C104.902 131.176 112.171 125.632 116.213 121.927C116.38 118.863 116.556 115.804 116.727 112.744C116.938 108.917 117.157 105.085 117.75 101.297C117.934 100.138 118.145 98.9789 118.395 97.8333C118.992 94.9757 119.747 92.1489 120.506 89.3177C121.13 86.9957 121.748 84.6693 122.372 82.3472C120.901 83.5499 119.545 84.1293 117.802 84.9107C110.454 88.1984 102.983 91.2052 95.4731 94.1154C93.2125 94.9889 90.93 95.8624 88.5377 96.2399L87.3525 109.61L86.2508 120.602Z" fill="#FFCFCA"/>
<path d="M87.3535 109.61C95.6452 108.205 103.726 105.624 111.193 101.792C113.563 100.576 116.03 99.2684 118.396 97.833C118.993 94.9755 119.748 92.1487 120.507 89.3175C121.131 86.9954 121.749 84.669 122.373 82.347C120.902 83.5497 119.546 84.1291 117.803 84.9104C110.455 88.1981 102.984 91.2049 95.474 94.1151C93.2135 94.9886 90.9309 95.8622 88.5387 96.2397L87.3535 109.61Z" fill="#F9BFBB"/>
<path d="M73.1881 86.8813C74.3557 91.4639 76.2695 95.7568 79.9478 98.8601C83.2136 101.608 87.3705 103.311 91.6151 103.719C96.3118 104.171 101.03 103.171 105.35 101.222C107.501 100.252 109.559 99.0489 111.46 97.6706C114.787 95.2608 117.706 92.3418 120.313 89.1813C124.549 84.0325 128.228 78.0101 130.532 71.5795C133.153 64.315 134.022 56.5236 131.976 48.9167C131.147 45.8133 129.799 42.8592 127.999 40.1948C120.428 28.9533 105.244 25.0687 93.1953 31.2974C86.9184 34.5456 81.8046 40.028 78.6091 46.2874C77.5995 48.2715 76.6777 50.3257 75.8656 52.4283C71.6649 63.3186 70.3086 75.5828 73.1881 86.8813Z" fill="#FFCFCA"/>
<path d="M117.244 86.943C120.563 90.0244 125.567 91.1788 129.886 89.8049C133.538 88.6505 136.562 85.7184 137.905 82.1409C138.151 81.4913 138.34 80.8285 138.472 80.1349C138.696 78.9366 138.731 77.69 138.48 76.496C137.84 73.5463 135.267 71.1672 132.313 70.5527C129.355 69.947 126.155 71.0356 124.03 73.1776L121.419 78.4713L117.244 86.943Z" fill="#FFCFCA"/>
<path d="M98.225 69.6566C98.8176 69.7093 99.6691 68.7963 99.9456 67.4005C100.095 66.6674 100.051 65.9256 99.8228 65.3681C99.7482 65.175 99.5287 64.7185 99.1687 64.6483L99.1116 64.6395C98.5191 64.5868 97.6676 65.4998 97.3866 66.8913C97.2418 67.6243 97.2856 68.3661 97.5095 68.9236C97.5885 69.1167 97.808 69.5776 98.1679 69.6479L98.225 69.6566Z" fill="#1F3C49"/>
<path d="M80.5084 67.2694C81.0088 67.3133 81.8778 66.5056 82.1632 65.0922C82.3036 64.3811 82.2598 63.6613 82.0447 63.1214C81.8867 62.7307 81.6584 62.4805 81.4213 62.4322L81.3687 62.4234C80.8683 62.3795 79.9991 63.1872 79.7138 64.6006C79.5733 65.3161 79.6173 66.0316 79.8324 66.5715C79.9904 66.9621 80.2186 67.2123 80.4556 67.2606L80.5084 67.2694Z" fill="#1F3C49"/>
<path d="M89.3105 70.8287C88.8671 70.302 88.0858 70.0518 87.3396 70.1615C86.5802 70.2581 85.8647 70.7716 85.4916 71.4476C85.0966 72.1148 85.0219 72.9927 85.3248 73.6994C85.6101 74.393 86.2202 74.9373 86.905 75.0514C86.4441 74.5554 86.1939 74.0023 86.1105 73.4624C86.0315 72.9269 86.1456 72.4177 86.4002 71.9656C86.6592 71.5179 87.0367 71.1579 87.5415 70.956C88.0462 70.7497 88.6476 70.6839 89.3105 70.8287Z" fill="#1F3C49"/>
<path d="M103.159 59.2281C103.269 59.2238 103.383 59.1798 103.462 59.092C103.616 58.9209 103.603 58.6619 103.436 58.5083C102.198 57.3802 100.464 56.8007 98.8006 56.9412C98.5724 56.9632 98.4056 57.1607 98.4231 57.3889C98.4451 57.6172 98.6426 57.784 98.8708 57.7665C100.315 57.6348 101.807 58.1439 102.878 59.1184C102.957 59.193 103.058 59.2281 103.159 59.2281Z" fill="#1F3C49"/>
<path d="M85.3203 56.3215C85.4124 56.2908 85.4958 56.2293 85.5485 56.1416C85.667 55.9484 85.6056 55.6938 85.4124 55.5753C84.1175 54.7852 82.4759 54.5482 81.0142 54.9388C80.7991 55.0003 80.663 55.2241 80.7201 55.4436C80.7771 55.6675 81.0054 55.7948 81.2249 55.7377C82.4759 55.4041 83.8761 55.606 84.9822 56.2776C85.0876 56.3435 85.2105 56.3566 85.3203 56.3215Z" fill="#1F3C49"/>
<path d="M98.722 65.5485C99.5955 65.3993 99.8238 66.7556 98.9503 66.9048C98.0768 67.0497 97.8485 65.6934 98.722 65.5485Z" fill="white"/>
<path d="M80.7245 63.1345C81.598 62.9852 81.8307 64.3415 80.9528 64.4908C80.0836 64.6356 79.851 63.2793 80.7245 63.1345Z" fill="white"/>
<path d="M79.7284 77.562C79.6669 79.3573 80.1015 81.0341 80.8916 82.4299C82.1558 84.6773 84.3373 86.1917 86.8613 86.2839C89.4511 86.3717 91.7819 84.9451 93.1865 82.7065C94.0161 81.3984 94.5253 79.8094 94.5868 78.0844C94.5912 78.0185 94.5824 77.9571 94.5868 77.8912L79.746 77.3733C79.7416 77.4391 79.7328 77.5006 79.7284 77.562Z" fill="#D55454"/>
<path d="M80.3477 77.3919C81.9498 79.2136 84.3509 80.4119 87.0636 80.5041C89.7806 80.6007 92.2607 79.5779 93.9858 77.8704L80.3477 77.3919Z" fill="white"/>
<path d="M80.8906 82.4299C82.1548 84.6773 84.3364 86.1917 86.8603 86.2839C89.4501 86.3717 91.7809 84.9451 93.1855 82.7065C90.6704 82.0612 88.0587 81.7759 85.4689 81.8681C83.9282 81.9252 82.3962 82.1183 80.8906 82.4299Z" fill="#F37C7C"/>
<path d="M97.1978 75.6789C96.9959 77.9307 99.3092 79.985 102.373 80.2616C105.437 80.5381 108.084 78.9359 108.286 76.6797C108.492 74.4279 106.174 72.3737 103.115 72.0971C100.051 71.8206 97.4041 73.4227 97.1978 75.6789Z" fill="#F9BFBB"/>
<path d="M73.3994 70.5214C73.2589 72.0446 74.8259 73.4272 76.8934 73.616C78.9608 73.8047 80.7474 72.7206 80.8834 71.1974C81.0239 69.6743 79.4612 68.2872 77.3893 68.1028C75.3219 67.9141 73.5355 68.9983 73.3994 70.5214Z" fill="#F9BFBB"/>
<path d="M128.951 120.781C124.065 119.38 118.697 116.742 116.744 116.22C109.374 126.772 93.3697 128.366 86.2983 115.254C79.0469 116.619 69.4998 118.393 61.0764 120.53C60.9973 131.364 55.3657 143.931 54.0488 154.523C51.9331 171.536 49.0931 183.497 46.0951 200.397C42.9479 218.152 42.9523 233.046 39.6645 256.648C37.4127 272.793 36.1046 291.593 34.9414 316.266C66.076 329.07 104.102 328.355 161.486 317.39C161.165 289.732 152.11 228.986 149.147 201.402C142.795 174.433 137.418 147.192 128.951 120.781Z" fill="#0081BC"/>
<path d="M133.591 70.8292C127.112 70.8028 121.142 78.2561 119.149 59.3551C118.833 56.379 118.381 53.4293 117.854 50.484C117.332 47.543 116.099 44.5011 113.627 42.9955C107.882 39.5015 100.924 46.4544 94.3619 45.3878C91.3683 44.9006 88.2474 41.051 85.3591 41.9991C84.0423 42.4337 81.7948 44.207 80.8335 45.2385C77.8267 48.4472 76.5626 52.9552 74.3152 56.7872C73.6655 52.6392 71.7693 46.6827 73.5778 42.9297C74.6269 40.7569 76.2159 38.268 77.3045 36.1128C80.4385 29.9149 79.8723 25.6308 85.1265 21.2808C88.0542 18.8534 95.1213 16.4129 98.668 17.6463C100.428 18.2608 102.057 19.3275 103.891 19.6347C106.376 20.0517 108.843 19.0202 111.226 18.1774C114.769 16.9308 118.552 16.0573 122.235 16.7377C125.918 17.4137 129.478 19.9201 130.628 23.6511C131.497 26.4648 131.014 29.8227 132.774 32.1359C134.398 34.2648 137.3 34.6687 139.508 36.1084C144.2 39.1767 144.771 46.1384 143.691 51.8184C142.361 58.8108 138.011 65.4038 133.591 70.8292Z" fill="#323A40"/>
<path d="M86.6578 114.078C86.6578 114.078 86.8465 123.384 86.5612 130.161C85.8501 147.105 82.7424 154.466 82.1015 171.422C81.8469 178.204 81.9391 184.986 82.062 191.768C82.1366 195.995 82.2245 200.217 82.2464 204.44C82.264 208.18 82.2332 211.92 82.0884 215.664C82.0796 215.98 82.0664 216.3 82.0532 216.616C81.6362 226.629 80.6574 236.615 79.3493 246.557C79.0596 248.796 78.7436 251.03 78.4144 253.26C78.05 255.779 77.6594 258.286 77.2643 260.796C77.2424 260.933 77.2205 261.064 77.1985 261.2C77.1634 261.437 77.1239 261.679 77.0844 261.92C76.4391 265.963 75.7763 270.054 75.1091 274.189C71.0489 299.213 66.6857 325.712 63.9686 350.276C63.7974 351.83 29.4497 338.705 17.5806 328.188C16.2857 327.038 25.1305 293.309 29.8448 274.694C30.6656 271.463 31.3548 268.689 31.8509 266.617C31.8991 266.419 31.943 266.235 31.9825 266.055L32.0045 265.972C32.2108 265.098 32.3732 264.374 32.4873 263.825C32.5137 263.68 32.5399 263.549 32.5663 263.43C32.5838 263.342 32.6014 263.259 32.6102 263.18C29.8404 262.886 23.8268 261.806 21.0922 261.003C14.0997 258.953 7.39709 255.143 3.93379 247.128C2.49405 243.787 1.61171 239.718 1.51075 234.741C1.45369 231.08 1.62486 227.353 1.99797 223.587C2.03308 223.266 2.06384 222.946 2.09896 222.626C3.16121 212.855 5.56664 202.842 8.8368 193.089C19.9992 159.777 41.2223 129.481 53.267 122.041C67.5943 113.196 86.6578 114.078 86.6578 114.078Z" fill="#00AEFF"/>
<path d="M160.235 265.537C160.252 265.63 160.261 265.717 160.274 265.81C160.875 269.896 161.569 274.733 162.306 279.948C165.853 305.087 170.366 338.995 169.558 339.658C164.141 343.999 140.201 352.954 117.367 353.84C116.652 353.529 114.132 313.15 111.735 271.564C111.41 265.959 111.09 260.327 110.774 254.77C109.909 239.481 109.097 224.75 108.439 212.556C108.312 210.19 108.189 207.921 108.075 205.762C107.289 191.202 106.797 181.65 106.819 181.523C110.673 160.941 116.722 114.733 116.722 114.733C116.722 114.733 138.375 118.099 159.8 131.206C171.867 138.585 190.07 177.581 195.658 220.611C195.833 221.972 195.996 223.341 196.145 224.711C196.593 228.811 196.913 232.941 197.089 237.098C197.909 256.548 176.879 262.904 160.235 265.537Z" fill="#00AEFF"/>
<path d="M150.42 154.557C150.267 159.324 149.77 164.254 149.617 169.016C149.555 170.965 149.49 172.914 149.428 174.863C149.143 183.853 148.853 192.851 148.076 201.81L154.573 201.525C151.333 186.131 152.356 170.171 150.42 154.557Z" fill="#0081BC"/>
<path d="M52.7144 156.657C52.6091 161.419 52.8373 166.371 52.732 171.133C52.6881 173.087 52.6442 175.035 52.6003 176.984C52.3984 185.978 52.1965 194.972 52.4818 203.966L46.0117 203.326C50.0852 188.129 49.9315 172.138 52.7144 156.657Z" fill="#0081BC"/>
<path d="M62.4201 221.976C63.0654 222.033 63.9872 221.892 64.549 222.2C65.3304 222.626 66.0854 223.688 66.735 224.315C68.5479 226.071 70.409 227.783 72.2087 229.552C72.7047 230.044 73.1919 230.54 73.6791 231.036C77.656 226.343 81.567 221.594 85.4429 216.814C81.0403 213.61 77.678 211.2 76.168 210.181C75.435 209.694 74.7019 209.203 73.9733 208.711C73.7714 206.714 73.3982 204.738 72.8232 202.816C72.1121 200.454 70.8128 198.532 69.8779 196.276C68.2669 192.382 67.4329 188.12 66.0985 184.108C65.6815 182.866 65.2118 181.575 64.2857 180.645L64.1804 180.544C63.2454 179.683 61.7837 179.262 60.6863 179.912C59.8435 180.416 59.4134 181.422 59.3124 182.396C59.1412 184.117 59.5539 185.978 59.927 187.646C60.1684 188.712 60.5239 189.854 60.5459 190.955C60.581 192.641 59.4968 191.596 58.6935 190.806C57.82 189.933 57.0475 188.971 56.3276 187.975C54.901 186 53.6983 183.871 52.3551 181.839L43.2381 168.073C42.3427 166.717 40.0382 166.8 39.1515 168.121C37.9137 169.956 40.0163 172.138 40.8591 173.665C42.2681 176.224 43.6595 178.788 45.051 181.36C46.043 183.204 47.0351 185.052 48.0095 186.904C48.5846 187.975 49.5809 188.884 50.1867 189.981C50.4062 190.385 51.1085 191.473 50.6388 191.939C50.1516 192.422 49.3791 191.5 49.0191 191.21C48.1412 190.503 47.2897 189.766 46.4469 189.015C44.8272 187.558 43.2601 186.035 41.7106 184.494C38.5458 181.382 35.4117 178.204 31.887 175.483C31.7377 175.364 31.5885 175.272 31.4393 175.193C30.4121 174.267 28.63 174.473 27.8311 175.605C26.3211 177.748 29.3147 180.039 30.5745 181.452C32.62 183.73 34.7489 185.925 36.7988 188.199C38.3307 189.893 39.8626 191.588 41.3902 193.282C41.9301 193.874 45.0159 196.047 44.2829 197.092C43.6508 198.009 41.4165 195.92 40.8459 195.604C39.4763 194.849 38.1156 194.081 36.7593 193.304C34.0422 191.746 31.3691 190.126 28.7354 188.432C28.4896 188.269 28.2349 188.164 27.9847 188.098C27.256 187.593 26.5274 187.084 25.8075 186.562C24.5039 185.64 22.5945 186.382 22.1775 187.918C21.5717 190.13 24.2537 191.298 25.6978 192.312C27.9979 193.918 30.3155 195.494 32.6551 197.052C34.3056 198.154 35.9604 199.243 37.6284 200.318C38.5151 200.893 42.5929 203.092 40.7845 204.457C40.4289 204.725 39.5422 204.422 39.1735 204.335C38.0015 204.071 36.9129 203.54 35.7848 203.123C32.7737 202.013 29.7406 200.942 26.6943 199.919C25.0263 199.353 23.2529 200.871 23.5602 202.631C23.9947 205.186 28.529 205.691 30.4955 206.332C33.634 207.346 36.7286 208.474 39.7793 209.72C40.3016 209.94 40.8239 210.155 41.2804 210.489C41.8642 210.91 42.312 211.503 42.7861 212.06C47.0702 217.121 53.5622 220.47 60.0411 221.651C60.8268 221.796 61.6256 221.906 62.4201 221.976Z" fill="#FFCFCA"/>
</g>
<defs>
<clipPath id="clip0_1065_49911">
<rect width="200" height="200" fill="white"/>
</clipPath>
</defs>
</svg>
