<svg width="200" height="200" viewBox="0 0 200 200" fill="none" xmlns="http://www.w3.org/2000/svg">
<g clip-path="url(#clip0_1065_49931)">
<rect width="200" height="200" fill="#EFF9FF"/>
<path d="M282.433 205.848C279.655 205.225 276.858 204.698 274.06 204.176C270.841 203.579 267.613 203.052 264.41 202.372C264.192 202.323 263.662 202.156 263.679 201.858C263.685 201.744 263.787 201.652 263.897 201.621C264.216 201.524 264.633 201.674 264.937 201.757C267.183 202.363 269.393 202.753 271.687 203.118C273.681 203.434 275.668 203.794 277.646 204.198C279.043 204.483 280.485 204.953 281.901 205.067C282.894 205.146 283.966 204.878 284.319 203.824C285.351 200.734 279.151 199.922 277.326 199.532C271.747 198.338 266.215 196.898 260.624 195.774C260.127 195.678 259.607 195.638 259.158 195.383C259.069 195.331 258.976 195.265 258.95 195.164C258.916 195.028 259.02 194.896 259.122 194.8C259.88 194.08 260.97 193.768 261.908 193.36C263.213 192.789 264.666 192.148 265.741 191.183C266.535 190.458 267.1 189.243 266.466 188.251C265.936 187.421 264.907 186.973 263.948 186.929C262.727 186.868 261.548 187.324 260.406 187.759C257.853 188.733 255.277 189.646 252.68 190.494C250.283 191.275 247.711 191.332 245.334 192.179C243.757 192.741 242.244 193.465 240.8 194.317C240.11 194.071 193.13 171.272 181.623 172.611C175.339 173.34 168.039 193.689 173.644 196.621C191.328 205.87 235.709 207.002 236.383 207.318C236.868 207.547 237.228 208.231 237.585 208.64C238.025 209.14 238.494 209.623 238.98 210.079C239.956 211.001 241.004 211.848 242.108 212.608C244.205 214.056 246.503 215.193 248.923 215.983C250.397 216.466 251.929 216.615 253.458 216.808C256.692 217.208 259.914 217.713 263.152 218.081C266.38 218.45 269.633 218.411 272.874 218.283C274.058 218.235 275.622 218.187 276.298 217.024C276.733 216.282 276.554 215.386 275.766 214.978C274.988 214.57 273.99 214.644 273.131 214.579C272.157 214.5 271.184 214.429 270.21 214.359C268.551 214.241 266.891 214.127 265.231 214.026C264.442 213.977 263.533 214.091 262.787 213.784C262.342 213.6 262.825 213.187 263.083 213.126C263.608 212.994 264.239 213.178 264.767 213.24C265.423 213.31 266.08 213.38 266.737 213.446C268.05 213.573 269.365 213.683 270.681 213.78C273.248 213.969 275.818 214.109 278.389 214.232C279.083 214.267 279.786 214.298 280.468 214.157C281.727 213.898 283.302 212.45 282.27 211.098C281.745 210.409 280.758 210.325 279.893 210.295C277.024 210.242 274.159 210.04 271.305 209.737C269.877 209.583 268.451 209.408 267.028 209.206C266.319 209.109 265.61 209.004 264.902 208.894C264.629 208.855 263.511 208.859 263.425 208.521C263.305 208.043 264.236 208.113 264.467 208.139C266.452 208.381 268.439 208.627 270.424 208.868C273.734 209.272 277.044 209.671 280.354 210.075C281.943 210.268 285.154 211.085 285.854 209C286.583 206.836 283.995 206.195 282.433 205.848Z" fill="#FFCFCA"/>
<path d="M164.161 103.613C164.249 102.424 164.212 101.225 164.03 100.058C163.564 97.0817 162.203 94.312 159.873 92.4025C157.859 90.7565 155.369 89.9181 153.319 88.3203C150.985 86.5031 149.345 83.786 148.252 80.9021C146.86 77.2237 146.106 73.1415 145.332 69.2744C144.486 65.0473 143.846 60.772 143.247 56.4966C142.157 48.6965 141.101 40.6726 138.049 33.4387C134.87 25.902 129.338 20.323 122.166 17.5093C115.026 14.7044 107.109 14.2084 99.7414 16.2364C90.3146 18.8306 82.6681 26.06 78.4029 35.4886C75.5699 41.7524 74.0323 48.6175 73.0003 55.5046C72.251 60.5086 71.7493 65.5916 70.2529 70.3937C69.1376 73.9711 67.4103 77.4344 64.8697 80.055C62.0596 82.9564 58.1086 83.8914 54.8297 86.0422C51.2461 88.395 48.8363 92.5254 47.9641 96.9632C37.6369 101.089 30.3359 111.176 30.3359 122.975C30.3359 138.439 42.8732 150.976 58.339 150.976C62.4265 150.976 66.3059 150.093 69.807 148.518C70.7937 149.101 71.8182 149.628 72.8765 150.093C75.0344 164.065 87.1107 174.762 101.686 174.762C108.41 174.762 114.597 172.48 119.528 168.657C120.836 168.88 122.179 169.008 123.551 169.008C135.807 169.008 145.856 159.583 146.862 147.587C148.14 147.793 149.45 147.907 150.787 147.907C164.134 147.907 174.954 137.087 174.954 123.743C174.954 115.342 170.666 107.946 164.161 103.613Z" fill="#F7931E"/>
<path d="M207.361 206.982C206.057 208.72 178.637 204.366 169.499 196.535C166.131 193.651 162.464 188.48 159.33 183.419C155.087 176.572 151.815 169.93 151.57 169.421L151.555 169.391C151.555 169.391 151.171 202.764 150.787 204.682C150.104 208.088 161.144 241.892 159.61 243.428C140.027 263.009 70.9981 255.701 60.2571 234.605C59.0144 232.164 75.6013 200.077 75.6013 200.077C75.6013 200.077 67.3728 167.069 66.153 159.088C66.0766 158.579 66.0266 158.175 66.0112 157.881C65.4586 159.536 63.698 163.535 61.5423 168.227C56.8895 178.354 52.7041 192.699 52.5851 192.791C51.8718 193.322 46.655 216.367 44.9132 218.109C42.3814 220.642 18.5483 212.561 17.6774 210.818C16.7069 208.874 19.8177 188.875 24.582 176.295C34.1722 150.977 45.6805 123.744 58.3393 114C64.3731 109.356 87.7347 98.4611 114.993 100.507C130.33 101.657 151.543 111.801 155.571 115.589C169.933 129.078 182.826 162.293 184.295 165.638C190.747 168.179 214.208 179.157 214.323 180.43C214.76 185.219 210.683 202.549 207.361 206.982Z" fill="#00AEFF"/>
<path d="M122.087 109.28C120.473 114.455 115.029 115.667 110.223 115.614C104.917 115.557 97.9049 114.332 96.0139 108.525C94.7133 104.518 95.6492 99.9218 95.6685 95.7913C95.6839 93.0479 95.5956 90.3044 95.3731 87.5698C95.2388 85.8886 95.0548 84.2118 94.8134 82.5438C94.6177 81.1963 94.3951 79.8487 94.1458 78.5099C93.9768 77.6101 93.7968 76.7103 93.6011 75.8192C93.4667 75.1915 92.7148 73.5103 93.44 73.0758C94.1111 72.6763 95.4885 73.8615 96.0482 74.1995C104.284 79.1376 112.884 83.47 121.757 87.1484C122.106 87.2933 122.471 87.4513 122.678 87.7673C122.874 88.0658 122.881 88.4477 122.881 88.8076C122.885 91.6871 122.885 94.571 122.889 97.4549C122.893 98.5742 122.924 99.6979 122.939 100.817C122.993 103.666 122.95 106.515 122.087 109.28Z" fill="#FFCFCA"/>
<path d="M122.939 100.817C115.236 98.6968 107.833 95.5364 101.074 91.3093C99.1941 90.1329 97.2566 88.8907 95.3731 87.5695C95.2388 85.8883 95.0548 84.2115 94.8134 82.5435C94.6177 81.196 94.3951 79.8484 94.1458 78.5096C93.9768 77.6098 93.7968 76.7099 93.6011 75.8189C93.4667 75.1912 92.7148 73.51 93.44 73.0754C94.1111 72.676 95.4885 73.8611 96.0482 74.1991C104.284 79.1373 112.884 83.4697 121.757 87.1481C122.106 87.2929 122.471 87.451 122.678 87.767C122.874 88.0655 122.881 88.4474 122.881 88.8073C122.885 91.6868 122.885 94.5707 122.889 97.4546C122.893 98.5739 122.924 99.6976 122.939 100.817Z" fill="#F9BFBB"/>
<path d="M96.9 73.7908C93.4837 76.1743 88.7755 76.5913 85.0133 74.7916C81.8344 73.2685 79.4536 70.2134 78.6819 66.7852C78.5428 66.1619 78.4572 65.5299 78.4256 64.8846C78.3729 63.7609 78.4971 62.6196 78.8794 61.5662C79.8377 58.9588 82.4871 57.1196 85.2547 56.9397C88.0284 56.7597 90.8078 58.1599 92.4714 60.3854L94.1737 65.5386L96.9 73.7908Z" fill="#FFCFCA"/>
<path d="M135.735 79.8481C134.085 83.8777 131.796 87.5429 128.046 89.9044C124.721 91.9938 120.717 93.0165 116.798 92.8454C112.459 92.6566 108.287 91.1466 104.597 88.8202C102.76 87.6614 101.04 86.305 99.4824 84.8038C96.7587 82.1833 94.4687 79.1502 92.4961 75.9371C89.2922 70.7092 86.7064 64.7527 85.4256 58.5987C83.9656 51.6457 84.1675 44.4338 87.0018 37.7618C88.1497 35.0404 89.7566 32.5208 91.735 30.3217C100.07 21.0423 114.399 19.4402 124.586 26.6477C129.892 30.4095 133.851 36.0543 135.964 42.1689C136.636 44.1046 137.213 46.0931 137.683 48.1122C140.124 58.5723 139.798 69.9191 135.735 79.8481Z" fill="#FFCFCA"/>
<path d="M114.653 61.2019C114.107 61.2326 113.354 60.3635 113.146 59.073C113.036 58.3926 113.102 57.7123 113.328 57.2075C113.405 57.0319 113.623 56.6193 113.957 56.5666L114.009 56.5622C114.555 56.5315 115.308 57.4006 115.516 58.6911C115.626 59.3715 115.56 60.0518 115.334 60.5566C115.256 60.7322 115.039 61.1448 114.704 61.1975L114.653 61.2019Z" fill="#1F3C49"/>
<path d="M131.024 59.6173C130.562 59.6392 129.789 58.8667 129.578 57.5586C129.471 56.9002 129.536 56.2418 129.754 55.7501C129.911 55.399 130.129 55.1751 130.35 55.14L130.398 55.1312C130.859 55.1093 131.632 55.8818 131.844 57.1899C131.95 57.8527 131.886 58.5111 131.668 58.9983C131.51 59.3539 131.293 59.5734 131.071 59.6129L131.024 59.6173Z" fill="#1F3C49"/>
<path d="M122.809 62.5896C123.237 62.1199 123.96 61.918 124.643 62.0409C125.338 62.1594 125.979 62.6554 126.3 63.2875C126.639 63.9152 126.68 64.7272 126.377 65.3637C126.088 65.9958 125.509 66.4743 124.878 66.5533C125.318 66.1099 125.566 65.6139 125.66 65.1179C125.754 64.6307 125.665 64.161 125.447 63.7352C125.225 63.3138 124.89 62.9714 124.433 62.7651C123.975 62.5632 123.423 62.4798 122.809 62.5896Z" fill="#1F3C49"/>
<path d="M114.652 50.5922C114.601 50.5965 114.551 50.5922 114.5 50.579C113.891 50.3903 113.222 50.3332 112.566 50.4078C112.478 50.4166 112.389 50.4298 112.3 50.4429C111.71 50.5395 111.134 50.7502 110.635 51.0443C110.594 51.0662 110.552 51.0838 110.506 51.0882C110.443 51.0969 110.402 51.097 110.36 51.0838C110.26 51.0662 110.168 50.996 110.115 50.9082C110.009 50.7282 110.069 50.4956 110.249 50.3858C110.824 50.0479 111.488 49.8108 112.171 49.6967C112.273 49.6792 112.376 49.666 112.478 49.6528C113.237 49.5694 114.012 49.6396 114.72 49.8503C114.92 49.9118 115.034 50.1225 114.974 50.3244C114.932 50.4605 114.816 50.5658 114.673 50.5878L114.652 50.5922Z" fill="#1F3C49"/>
<path d="M127.554 48.3056L127.482 48.2793C127.399 48.2398 127.335 48.1696 127.298 48.0862C127.216 47.893 127.305 47.6692 127.497 47.5858C128.444 47.1819 129.536 47.0678 130.573 47.2741C130.666 47.2917 130.759 47.3136 130.851 47.3356C131.105 47.4014 131.352 47.4848 131.587 47.5858C131.775 47.6692 131.869 47.893 131.787 48.0818C131.715 48.253 131.546 48.3452 131.367 48.3056C131.326 48.2969 131.307 48.2925 131.288 48.2837C131.089 48.2003 130.878 48.1257 130.661 48.073C130.584 48.0511 130.507 48.0335 130.429 48.0203C129.54 47.8448 128.606 47.9369 127.797 48.2837C127.727 48.3144 127.648 48.3232 127.572 48.31L127.554 48.3056Z" fill="#1F3C49"/>
<path d="M114.336 57.4094C113.538 57.2426 113.28 58.4848 114.08 58.6472C114.878 58.814 115.136 57.5762 114.336 57.4094Z" fill="white"/>
<path d="M130.965 55.8069C130.167 55.6401 129.909 56.8823 130.708 57.0447C131.507 57.2115 131.764 55.9693 130.965 55.8069Z" fill="white"/>
<path d="M132.742 68.8747C132.965 71.087 132.567 73.1939 131.707 74.9848C130.329 77.8643 127.757 79.9098 124.645 80.2259C121.458 80.5507 118.463 78.9792 116.545 76.328C115.412 74.7785 114.653 72.8559 114.437 70.7314C114.43 70.6524 114.432 70.5778 114.424 70.4944L132.708 68.642C132.716 68.7254 132.734 68.8 132.742 68.8747Z" fill="#D55454"/>
<path d="M131.965 68.7165C130.136 71.0955 127.27 72.7679 123.924 73.1103C120.579 73.4483 117.435 72.3861 115.166 70.4196L131.965 68.7165Z" fill="white"/>
<path d="M131.706 74.9848C130.328 77.8643 127.757 79.9098 124.645 80.2259C121.457 80.5507 118.462 78.9792 116.545 76.328C119.597 75.3228 122.796 74.7566 126.008 74.6644C127.913 74.6117 129.82 74.7215 131.706 74.9848Z" fill="#F37C7C"/>
<path d="M113.629 66.2331C113.74 68.3137 111.539 70.1221 108.714 70.2714C105.889 70.425 103.509 68.858 103.399 66.7774C103.288 64.6968 105.488 62.8883 108.313 62.7391C111.138 62.5898 113.518 64.1525 113.629 66.2331Z" fill="#F9BFBB"/>
<path d="M137.452 62.8476C137.527 64.2522 136.041 65.4769 134.133 65.5779C132.225 65.6788 130.618 64.621 130.544 63.2163C130.469 61.8117 131.955 60.5914 133.863 60.4905C135.771 60.3895 137.378 61.443 137.452 62.8476Z" fill="#F9BFBB"/>
<path d="M135.884 39.8424C134.906 38.328 133.556 36.6161 131.76 36.7917C131.102 36.8532 130.5 37.178 129.865 37.3579C128.541 37.731 127.049 37.4589 125.947 36.6337C125.027 35.9489 124.382 34.9218 123.391 34.3424C122.221 33.662 120.647 33.7542 119.562 34.5662C118.631 35.2642 118.115 36.3703 117.395 37.2833C115.76 39.3639 113.065 40.3998 110.424 40.5535C107.782 40.7071 105.161 40.075 102.621 39.3376C101.414 38.9864 100.053 38.6221 98.9556 39.2366C98.1945 39.6624 97.738 40.4789 97.4211 41.2909C96.613 43.3715 96.4795 45.6541 96.6428 47.8795C96.8399 50.5615 97.4092 53.4629 96.0559 55.7849C95.1056 57.4178 93.2366 58.4713 91.3487 58.4362C89.5793 58.4055 87.9552 57.51 86.2477 57.0491C84.5397 56.5838 82.3976 56.7067 81.4126 58.1772C80.6432 50.8687 80.5049 43.2223 83.4919 36.5108C86.2152 30.3919 91.3996 25.4712 97.5308 22.7717C103.662 20.0766 110.676 19.5674 117.211 21.0335C119.687 21.5866 122.116 22.4249 124.306 23.7067C129.906 26.9812 133.791 33.7015 135.884 39.8424Z" fill="#F7931E"/>
<path d="M66.1517 159.088C66.0753 158.579 66.0253 158.175 66.0099 157.881C65.4573 159.536 63.6967 163.535 61.541 168.227C63.436 154.014 64.4372 137.338 64.4372 137.338C64.4372 137.338 65.4002 150.573 66.1517 159.088Z" fill="#0081BC"/>
<path d="M159.33 183.419C155.087 176.571 151.815 169.93 151.57 169.42C150.822 157.121 149.636 131.71 149.199 127.668C154.585 145.024 155.437 163.214 158.858 181.061C159.008 181.847 159.165 182.637 159.33 183.419Z" fill="#0081BC"/>
</g>
<defs>
<clipPath id="clip0_1065_49931">
<rect width="200" height="200" fill="white"/>
</clipPath>
</defs>
</svg>
