<svg width="200" height="200" viewBox="0 0 200 200" fill="none" xmlns="http://www.w3.org/2000/svg">
<g clip-path="url(#clip0_1065_49927)">
<rect width="200" height="200" fill="#EFF9FF"/>
<path d="M84.7961 113.857C84.6188 111.39 82.4733 109.433 79.9177 110.139C64.5813 114.375 48.73 121.517 41.5914 136.66C38.8001 142.582 37.8081 149.175 36.4452 155.535C34.9199 162.655 33.5025 169.797 32.194 176.956C30.5383 186.02 29.1859 195.133 27.9037 204.254C26.7383 212.541 26.9556 222.725 23.1324 230.178C16.0017 244.08 8.56281 258.24 1.27408 272.221C-2.464 279.389 -6.19022 286.565 -9.8787 293.76C-11.6793 297.271 -13.4693 300.792 -15.2518 304.316C-16.1192 306.028 -17.6349 308.065 -16.7122 310.032C-14.9016 313.881 -9.69478 316.006 -6.28679 318.249C-5.28292 318.911 -4.25884 319.583 -3.09958 319.908C2.18096 321.387 6.6389 312.823 9.15582 309.5C13.4593 303.816 17.6916 298.075 21.8511 292.285C31.0167 279.525 40.4418 266.497 48.4956 252.841C51.6771 247.446 55.0676 241.96 57.6174 236.253C63.6595 222.721 65.9161 207.796 70.8257 193.833C76.008 179.094 82.3609 164.191 84.1044 148.53C85.3852 137.025 85.628 125.401 84.7961 113.857Z" fill="#0081BC"/>
<path d="M207.401 326.611C202.419 327.88 186.025 326.199 185.432 325.839C182.763 324.223 182.579 237.04 178.492 229.872C176.241 225.921 167.457 211.458 158.45 196.191C149.952 181.767 141.243 166.619 137.657 158.938C130.941 144.571 133.774 110.658 134.792 106.883C144.101 109.258 150.409 112.001 151.071 112.291L151.128 112.322C157.379 115.188 164.933 120.574 168.089 123.497C189.286 143.153 209.232 204.343 212.607 220.869C216.65 240.661 210.922 325.712 207.401 326.611Z" fill="#0081BC"/>
<path d="M173.484 299.244C162.453 307.518 40.5156 308.111 40.5156 302.33C40.5156 280.273 45.4955 255.371 47.0678 233.34C48.4092 214.593 53.0032 155.524 53.62 145.081C54.044 137.83 55.1616 120.799 55.1616 120.799C55.1616 120.799 66.061 114.245 71.7344 111.55C79.5696 107.828 87.6441 105.506 96.154 104.202C110.318 102.042 124.42 104.237 134.792 106.884C144.101 109.259 150.409 112.002 151.072 112.292L151.129 112.323C151.129 112.323 145.256 114.847 143.807 124.271C137.64 164.351 158.437 195.911 158.437 195.911C158.437 195.911 164.082 230.658 167.317 248.37C169.371 259.62 175.025 298.09 173.484 299.244Z" fill="#00AEFF"/>
<path d="M75.1226 37.5114C75.9697 34.3641 77.3393 31.4539 79.1385 29.1363C83.9507 22.9427 92.1011 18.3864 100.114 19.5453C107.393 20.5943 113.905 23.5704 117.727 30.1458C121.727 37.0198 121.594 46.2816 116.822 52.756C113.969 56.6275 110.063 59.7528 105.693 61.7501C104.382 62.347 103.024 62.843 101.634 63.2205C94.2585 65.2309 84.6016 64.375 78.9928 58.6599C73.6775 53.2476 73.2487 44.4643 75.1226 37.5114Z" fill="#32334C"/>
<path d="M120.321 68.2252C119.963 70.2092 119.612 72.1933 119.258 74.1773C119.234 74.2958 119.215 74.4187 119.196 74.5372C119.186 74.5899 119.175 74.6426 119.165 74.6953C118.694 77.3246 118.228 79.9495 117.906 82.5875C117.772 83.6498 117.666 84.7164 117.591 85.7831C117.505 86.977 117.458 88.1797 117.446 89.3737C117.412 91.665 117.475 93.9607 117.545 96.252C117.629 99.0437 117.709 101.835 117.792 104.623C116.148 106.405 113.847 108.643 111.387 110.627C106.597 111.958 101.022 112.84 96.1834 113.015C92.9088 111.106 90.0052 108.305 90.4933 105.738L90.6443 95.677L90.6513 94.0265L90.6636 89.6634L90.6869 83.4479C92.8281 82.9255 94.8328 81.9511 96.819 80.9854C103.408 77.7635 109.954 74.4582 116.371 70.9027C116.544 70.8106 116.709 70.7184 116.871 70.6262C118.161 69.9107 119.216 69.2962 120.321 68.2252Z" fill="#FFCFCA"/>
<path d="M90.6465 95.6775C98.0616 93.7637 105.196 90.7964 111.676 86.7405C113.737 85.4544 115.875 84.0761 117.909 82.5925C118.228 79.95 118.697 77.3251 119.166 74.7002C119.551 72.5449 119.936 70.3809 120.321 68.2257C119.08 69.4328 117.895 70.0605 116.373 70.9077C109.957 74.4588 103.41 77.764 96.8203 80.9859C94.8345 81.956 92.8307 82.9261 90.6869 83.4484L90.6465 95.6775Z" fill="#F9BFBB"/>
<path d="M76.0305 76.143C77.4466 80.2121 79.5127 83.9607 83.0936 86.4934C86.2694 88.7364 90.1717 89.9611 94.0555 90.0006C98.3541 90.0445 102.558 88.776 106.331 86.6734C108.208 85.6243 109.98 84.3777 111.601 82.9774C114.433 80.5325 116.858 77.6574 118.98 74.5892C122.426 69.5895 125.3 63.8393 126.895 57.8258C128.709 51.0265 128.895 43.8892 126.45 37.1426C125.461 34.3904 124.007 31.8137 122.169 29.5356C114.425 19.9183 100.348 17.5699 89.8929 24.1497C84.4469 27.5823 80.2321 32.955 77.8166 38.8852C77.0493 40.7639 76.372 42.6996 75.8005 44.6705C72.8289 54.876 72.5453 66.1131 76.0305 76.143Z" fill="#FFCFCA"/>
<path d="M116.021 72.7947C119.271 75.3362 123.902 75.9946 127.718 74.4144C130.941 73.0844 133.458 70.1874 134.404 66.8426C134.574 66.2324 134.693 65.6135 134.758 64.977C134.87 63.8665 134.808 62.734 134.487 61.6718C133.679 59.0425 131.158 57.0804 128.432 56.7556C125.7 56.4307 122.878 57.6686 121.115 59.7799L119.156 64.7839L116.021 72.7947Z" fill="#FFCFCA"/>
<path d="M97.8667 58.8397C98.4048 58.8968 99.1962 58.076 99.4706 56.8118C99.6154 56.1446 99.586 55.4686 99.3903 54.9594C99.3227 54.7795 99.1295 54.3625 98.8021 54.2922L98.7512 54.2835C98.213 54.2264 97.422 55.0428 97.1477 56.307C97.0028 56.9742 97.0318 57.6502 97.2276 58.1638C97.2956 58.3393 97.4883 58.7607 97.8162 58.8309L97.8667 58.8397Z" fill="#1F3C49"/>
<path d="M81.7692 56.3949C82.2244 56.4432 83.0299 55.719 83.3086 54.4373C83.4491 53.792 83.4205 53.138 83.2314 52.6419C83.0944 52.282 82.8916 52.0494 82.6744 52.0055L82.6274 51.9967C82.1726 51.9484 81.3667 52.6683 81.088 53.9544C80.9479 54.5997 80.9761 55.2537 81.1653 55.7497C81.3022 56.1096 81.5054 56.3379 81.7223 56.3862L81.7692 56.3949Z" fill="#1F3C49"/>
<path d="M89.7327 59.7708C89.3346 59.2835 88.6301 59.0465 87.9484 59.1343C87.2553 59.2089 86.5956 59.6654 86.2436 60.2755C85.8753 60.8769 85.7923 61.6758 86.0575 62.321C86.3085 62.9619 86.8563 63.4667 87.4757 63.5808C87.0635 63.1199 86.8458 62.6151 86.7795 62.1191C86.7128 61.6319 86.8256 61.171 87.0635 60.7628C87.3054 60.3589 87.6552 60.0385 88.1174 59.8629C88.5814 59.6829 89.1309 59.6303 89.7327 59.7708Z" fill="#1F3C49"/>
<path d="M102.767 48.7135C102.863 48.6828 102.945 48.6125 102.99 48.5116C103.075 48.3228 102.99 48.099 102.8 48.0156C101.411 47.3923 99.7449 47.3791 98.3437 47.9761C98.1528 48.0595 98.0637 48.2789 98.1458 48.4721C98.2274 48.6608 98.4478 48.7486 98.6396 48.6696C99.852 48.1472 101.291 48.1648 102.493 48.7003C102.583 48.7442 102.68 48.7442 102.767 48.7135Z" fill="#1F3C49"/>
<path d="M86.5997 46.2465C86.6857 46.2289 86.7652 46.185 86.8227 46.1104C86.9491 45.9436 86.9179 45.7066 86.7529 45.5793C85.6586 44.7409 84.1916 44.3678 82.8291 44.5829C82.6298 44.618 82.4841 44.8067 82.5161 45.013C82.5482 45.2193 82.7409 45.3598 82.9463 45.3247C84.1091 45.1447 85.361 45.4608 86.295 46.1762C86.3855 46.2465 86.4965 46.2684 86.5997 46.2465Z" fill="#1F3C49"/>
<path d="M98.3823 55.104C99.1799 54.9811 99.3691 56.2233 98.5697 56.3418C97.7722 56.4647 97.5835 55.2225 98.3823 55.104Z" fill="white"/>
<path d="M82.0308 52.6333C82.8288 52.5104 83.0175 53.7482 82.2182 53.8711C81.4206 53.994 81.2319 52.7518 82.0308 52.6333Z" fill="white"/>
<path d="M80.9046 65.7576C80.8198 67.3905 81.1885 68.9224 81.8864 70.2086C83.0031 72.276 84.9679 73.6894 87.2666 73.8079C89.622 73.9308 91.7663 72.6667 93.0801 70.6475C93.857 69.4667 94.346 68.027 94.4272 66.4556C94.4303 66.4029 94.4254 66.3458 94.4285 66.2844L80.9212 65.5821C80.9182 65.6435 80.9076 65.7006 80.9046 65.7576Z" fill="#D55454"/>
<path d="M81.4688 65.6137C82.8993 67.2949 85.0673 68.423 87.5385 68.5503C90.0102 68.6776 92.2827 67.7821 93.8796 66.2546L81.4688 65.6137Z" fill="white"/>
<path d="M81.8867 70.2086C83.0034 72.276 84.9681 73.6894 87.2669 73.8079C89.6223 73.9308 91.7666 72.6667 93.0804 70.6475C90.8005 70.0198 88.428 69.7213 86.0642 69.7652C84.6613 69.796 83.2637 69.9452 81.8867 70.2086Z" fill="#F37C7C"/>
<path d="M96.8422 64.3059C96.6218 66.3602 98.7002 68.2652 101.485 68.5637C104.269 68.8622 106.705 67.44 106.926 65.3901C107.146 63.3402 105.068 61.4352 102.283 61.1367C99.4987 60.8382 97.0625 62.256 96.8422 64.3059Z" fill="#F9BFBB"/>
<path d="M75.2433 59.2476C75.0941 60.6303 76.4978 61.9164 78.3783 62.1184C80.2587 62.3247 81.9039 61.3634 82.0527 59.9807C82.2015 58.5936 80.7978 57.3075 78.9173 57.1056C77.0373 56.9037 75.3921 57.8606 75.2433 59.2476Z" fill="#F9BFBB"/>
<path d="M75.1959 28.899C74.6972 23.737 82.6729 18.1097 97.5229 15.5155C109 13.5095 124.28 17.4381 132.176 25.9054C136.825 30.8962 139.635 37.6823 139.042 44.508C138.559 50.0914 136.106 55.5782 133.845 60.67C132.205 57.4745 127.629 56.2279 124.131 57.3603C122.089 58.0188 120.417 59.3356 119.089 60.9597C119.037 54.4501 117.39 48.1556 117.393 41.6373C117.371 41.7689 106.611 40.3204 105.848 40.2238C99.6228 39.4206 93.4438 38.6305 87.4004 36.8834C84.8242 36.1372 82.2866 35.2681 79.8004 34.2761C77.9779 33.5474 75.3442 30.4353 75.1959 28.899Z" fill="#32334C"/>
<path d="M104.366 61.7063C103.304 62.6588 101.937 63.2953 100.406 63.4445C99.3204 63.5499 98.2679 63.3962 97.3074 63.0319C94.909 62.1321 93.0971 59.9285 92.8341 57.2071C92.4663 53.397 95.2668 49.9996 99.0724 49.6352C102.882 49.2665 106.277 52.0626 106.645 55.8727C106.865 58.1508 105.952 60.2841 104.366 61.7063ZM92.2604 54.7139L89.6197 54.3144C89.628 54.2398 89.6443 54.1696 89.653 54.0993L92.3227 54.4768C92.2995 54.5558 92.2797 54.6348 92.2604 54.7139ZM82.6615 60.1261C82.4464 60.1436 82.2344 60.1524 82.0215 60.1568C81.4917 60.1612 80.9711 60.0997 80.4681 59.9812C78.9085 59.6345 77.5298 58.7478 76.5549 57.5143C75.7525 56.5048 75.2222 55.2625 75.0892 53.8843C75.0304 53.2785 75.051 52.6903 75.1467 52.1153L75.1463 52.1109C75.6392 49.0734 78.128 46.6241 81.3275 46.3124C85.1372 45.9437 88.532 48.7442 88.8998 52.5499C89.2677 56.3599 86.4707 59.7574 82.6615 60.1261ZM128.27 56.3555L127.266 56.338L118.807 56.1931L113.901 56.1097L107.424 56.0044C107.418 55.9341 107.419 55.8683 107.412 55.7981C107.003 51.5666 103.23 48.4588 98.9982 48.8671C96.0174 49.1524 93.5975 51.1189 92.5686 53.735L89.7027 53.3268C89.7062 53.0415 89.6948 52.7605 89.6671 52.4796C89.2584 48.2482 85.4848 45.136 81.2534 45.5442C78.7408 45.7901 76.6264 47.2298 75.407 49.2402L75.2551 48.2218C75.2314 48.0594 75.1116 47.9453 74.961 47.9058C74.9136 47.897 74.8632 47.8926 74.8131 47.897C74.6033 47.9321 74.4593 48.1252 74.4918 48.3403L74.6437 49.3499L74.8114 50.4473C74.7868 50.5131 74.7627 50.5834 74.7381 50.6492C74.3729 51.6807 74.21 52.8 74.3219 53.9589C74.4685 55.4732 75.0458 56.8428 75.9202 57.9621C77.2853 59.7003 79.3725 60.8284 81.6813 60.9206L81.7902 60.925C82.1005 60.9337 82.417 60.9206 82.7357 60.8899C86.073 60.5694 88.7049 58.1508 89.4678 55.0694L92.1129 55.4689C92.0304 56.0614 92.0071 56.6628 92.0668 57.2773C92.3561 60.2753 94.3335 62.7115 96.9685 63.7298C97.2183 63.8308 97.4742 63.9142 97.7363 63.9844C98.6071 64.2171 99.5329 64.3005 100.481 64.2127C102.276 64.0371 103.865 63.2558 105.074 62.097C105.12 62.0575 105.166 62.0092 105.212 61.9609C106.549 60.6089 107.378 58.7697 107.441 56.7725L113.095 56.8691L118.878 56.9656L125.184 57.0754H125.32L127.081 57.1061L128.256 57.1237H128.302C128.344 57.1193 128.386 57.1061 128.423 57.0886C128.542 57.0359 128.627 56.9218 128.645 56.7813L128.649 56.7418C128.652 56.5355 128.484 56.3555 128.27 56.3555Z" fill="black"/>
<path d="M121.437 106.155C121.193 108.828 116.097 110.992 109.682 112.295C104.812 113.287 99.1885 113.779 94.3496 113.621C89.8806 113.476 86.0872 112.778 84.1804 111.4C82.3044 110.044 82.9312 93.7016 89.5018 94.2942C89.6488 94.3074 89.8644 94.3074 90.1457 94.2942C91.8752 94.2371 95.9798 93.7455 100.653 93.1924C106.452 92.4989 113.124 91.7088 117.198 91.5113C119.254 91.4103 120.651 91.4586 120.948 91.7483C123.031 93.7762 121.838 101.726 121.437 106.155Z" fill="#00AEFF"/>
</g>
<defs>
<clipPath id="clip0_1065_49927">
<rect width="200" height="200" fill="white"/>
</clipPath>
</defs>
</svg>
