<svg width="200" height="200" viewBox="0 0 200 200" fill="none" xmlns="http://www.w3.org/2000/svg">
<g clip-path="url(#clip0_1065_49909)">
<rect width="200" height="200" fill="#EFF9FF"/>
<path d="M-108.31 259.331C-103.459 255.279 -98.609 251.228 -93.7586 247.176C-89.1102 243.287 -85.0762 239.956 -79.9537 236.69C-77.8512 235.351 -75.0419 233.631 -72.8033 232.38C-61.259 224.847 -49.7146 217.319 -38.1659 209.791C-30.8618 205.029 -23.5578 200.262 -16.2537 195.499C-11.456 192.369 -6.64511 189.231 -2.27758 185.526C3.13903 180.935 34.1594 134.652 37.5042 130.631C39.5102 133.234 52.3406 143.901 55.1631 165.045C44.1279 175.237 18.5022 202.852 5.83416 210.893C-16.798 225.255 -42.6344 232.248 -66.838 243.77C-67.7115 244.187 -68.6069 246.378 -69.1293 247.229C-70.8192 249.994 -72.1142 252.971 -73.9972 255.622C-75.8979 258.299 -78.0926 260.771 -80.5288 262.979C-81.6305 263.975 -83.4302 264.467 -84.0974 262.68C-84.172 262.548 -84.2335 262.404 -84.273 262.237C-84.8041 260.24 -83.834 258.418 -82.8332 256.759C-81.6964 254.862 -80.8009 252.966 -80.6868 250.723C-80.656 250.117 -80.8009 249.455 -81.2706 249.068C-81.5515 248.831 -81.9246 248.735 -82.2889 248.669C-83.5224 248.463 -84.6549 248.686 -85.7171 249.139C-86.279 249.376 -86.8189 249.678 -87.3412 250.016C-87.846 250.332 -88.3288 250.679 -88.8073 251.035C-89.4043 251.478 -89.9793 251.93 -90.5587 252.347C-90.6728 252.431 -90.7913 252.514 -90.9055 252.593C-91.0108 252.668 -91.1206 252.742 -91.2259 252.817C-91.9151 253.3 -92.6042 253.778 -93.2934 254.257C-94.5487 255.135 -95.7998 256.008 -97.0551 256.882C-98.1481 257.645 -99.2455 258.409 -100.338 259.173C-102.252 260.503 -104.35 262.022 -106.708 262.425C-108.472 262.728 -109.903 260.665 -108.31 259.331Z" fill="#FFCFCA"/>
<path d="M85.8673 58.4112C84.9016 56.3789 84.151 54.2061 83.6462 51.9148C80.0337 35.5377 90.3797 19.3317 106.757 15.7192C123.134 12.1066 139.34 22.457 142.952 38.8341C143.058 39.3082 143.15 39.7823 143.233 40.2564C148.628 42.9208 152.811 47.9204 154.207 54.2544C154.611 56.076 154.751 57.8976 154.668 59.6754C160.769 62.1159 165.598 67.436 167.116 74.3362C169.566 85.4197 162.56 96.389 151.477 98.8339C149.633 99.2377 147.794 99.3782 145.994 99.286C143.387 101.735 140.108 103.539 136.364 104.365C131.781 105.374 127.225 104.768 123.274 102.929C120.908 104.812 118.086 106.199 114.934 106.893C106.542 108.745 98.2193 105.177 93.6103 98.5222C83.5101 99.3694 74.0947 92.6403 71.8517 82.4743C69.5297 71.944 75.7364 61.5233 85.8673 58.4112Z" fill="#AC1B35"/>
<path d="M121.912 100.586C119.129 99.1109 116.68 97.0873 113.87 95.6695C113.629 95.6256 113.388 95.5861 113.133 95.5642C108.678 95.1999 104.24 94.5414 99.7671 94.2912C98.38 94.2166 96.971 94.2254 95.5883 94.401C91.0452 97.1049 86.3792 99.5893 81.3182 100.84C79.2551 101.349 76.7048 101.907 74.0624 102.179C72.131 103.044 71.1258 104.497 72.1442 107.148C73.123 109.703 74.9973 112.007 76.8629 114.026C77.4335 114.645 78.0305 115.238 78.6494 115.808C87.1518 123.573 102.225 127.638 113.212 122.59C118.875 119.992 123.65 115.58 127.179 110.717C128.286 109.193 129.076 107.495 129.914 105.831C129.98 105.699 130.12 105.383 130.305 104.984C127.495 103.544 124.699 102.069 121.912 100.586Z" fill="#FFCFCA"/>
<path d="M92.793 103.433C94.3512 104.64 96.344 105.092 98.2666 105.505C100.584 106.01 102.906 106.51 105.272 106.673C109.881 106.984 114.218 105.808 118.73 104.82C118.941 102.165 119.161 99.5135 119.376 96.8578C119.639 93.5394 119.911 90.2122 120.513 86.9332C120.697 85.9324 120.903 84.9316 121.145 83.9396C121.724 81.4683 122.444 79.0322 123.164 76.5872C123.752 74.5856 124.345 72.5752 124.937 70.5693C123.633 71.5832 122.444 72.0573 120.912 72.6982C114.455 75.3977 107.902 77.847 101.313 80.2129C99.3333 80.924 97.3273 81.6351 95.2423 81.9073L93.9254 93.4999L92.793 103.433Z" fill="#FFCFCA"/>
<path d="M93.9258 93.5011C101.155 92.4608 108.231 90.3934 114.802 87.2242C116.891 86.219 119.06 85.1348 121.145 83.9408C121.724 81.4695 122.444 79.0334 123.164 76.5884C123.752 74.5868 124.345 72.5765 124.937 70.5705C123.634 71.5844 122.444 72.0585 120.912 72.6994C114.455 75.3989 107.902 77.8482 101.313 80.2142C99.3336 80.9253 97.3276 81.6364 95.2426 81.9085L93.9258 93.5011Z" fill="#F9BFBB"/>
<path d="M82.1096 73.4493C83.027 77.4569 84.5941 81.2274 87.7238 84.0016C90.5023 86.4597 94.0753 88.0311 97.7537 88.4745C101.823 88.9661 105.944 88.2023 109.741 86.6046C111.629 85.8057 113.442 84.8049 115.127 83.6504C118.068 81.6269 120.667 79.1556 123.002 76.4649C126.79 72.0842 130.117 66.9309 132.259 61.3958C134.691 55.1408 135.613 48.3942 133.998 41.7397C133.348 39.027 132.237 36.4285 130.736 34.0757C124.398 24.1467 111.291 20.4464 100.69 25.5952C95.1683 28.2816 90.6076 32.9344 87.6974 38.3028C86.7756 40.0059 85.9285 41.7704 85.1822 43.5789C81.2976 52.9461 79.8534 63.573 82.1096 73.4493Z" fill="#FFCFCA"/>
<path d="M120.381 74.4547C123.199 77.2025 127.518 78.313 131.302 77.2157C134.497 76.2895 137.188 73.805 138.435 70.7324C138.663 70.1705 138.839 69.5955 138.966 68.9985C139.19 67.9626 139.247 66.8784 139.054 65.8381C138.562 63.2615 136.38 61.137 133.826 60.5444C131.271 59.9474 128.466 60.8297 126.574 62.6426L124.191 67.1857L120.381 74.4547Z" fill="#FFCFCA"/>
<path d="M89.6281 30.3231C90.6728 29.4891 91.7263 28.6639 92.8061 27.8694C92.9378 27.7684 93.0826 27.6763 93.2187 27.5797C93.2669 27.5446 93.3196 27.5095 93.3723 27.47L93.3899 27.4568C93.9078 27.1188 94.4214 26.7764 94.9481 26.456C96.0235 25.7976 97.1341 25.1918 98.2885 24.6826C98.486 24.5948 98.7582 24.5246 98.9733 24.4193C99.3903 24.3008 99.8073 24.191 100.229 24.0944C101.787 21.2369 104.522 19.0422 107.95 18.2828C110.961 17.62 113.955 18.1862 116.408 19.6435C117.431 18.9632 118.59 18.4496 119.863 18.1687C125.323 16.9659 130.722 20.4161 131.925 25.8722C132.004 26.219 132.061 26.5613 132.101 26.9037C135.147 28.4225 137.508 31.2493 138.303 34.8355C138.913 37.6096 138.479 40.3662 137.267 42.7058C140.278 43.7154 142.701 46.235 143.434 49.5622C144.549 54.6101 141.358 59.6009 136.315 60.7158C131.267 61.8264 126.276 58.6396 125.165 53.5961C124.805 51.9808 124.893 50.3742 125.336 48.895C120.727 48.2629 116.773 44.8874 115.605 40.1292C114.784 40.5286 113.906 40.8447 112.971 41.051C108.555 42.0211 104.179 40.3531 101.48 37.0917C100.172 38.312 98.53 39.2074 96.6556 39.6244C91.8711 40.6779 87.1349 38.2417 85.0938 34.0147C86.595 32.7724 88.1005 31.5346 89.6281 30.3231Z" fill="#AC1B35"/>
<path d="M79.7659 110.238L79.8405 110.225C79.4674 110.33 79.0943 110.427 78.7168 110.515C78.9626 110.436 79.4762 110.291 79.7659 110.238Z" fill="#FFCFCA"/>
<path d="M104.231 59.0251C104.745 59.0865 105.504 58.3096 105.776 57.1069C105.921 56.4704 105.899 55.8251 105.715 55.3379C105.649 55.1667 105.469 54.7673 105.157 54.697L105.109 54.6883C104.596 54.6268 103.836 55.4038 103.564 56.6065C103.419 57.2429 103.445 57.8882 103.625 58.3754C103.691 58.5466 103.871 58.9461 104.183 59.0163L104.231 59.0251Z" fill="#1F3C49"/>
<path d="M88.8958 56.571C89.3259 56.6193 90.1029 55.9345 90.3794 54.7142C90.5155 54.0997 90.4936 53.472 90.318 52.998C90.1907 52.66 89.9975 52.4361 89.7912 52.3878L89.7473 52.379C89.3128 52.3308 88.5402 53.0111 88.2637 54.2358C88.1232 54.8503 88.1452 55.478 88.3208 55.9521C88.4525 56.2901 88.6412 56.5139 88.8475 56.5622L88.8958 56.571Z" fill="#1F3C49"/>
<path d="M96.4624 59.8549C96.0849 59.3852 95.4177 59.1526 94.768 59.2316C94.1052 59.2974 93.4731 59.7276 93.1307 60.307C92.7752 60.882 92.6874 61.6414 92.9376 62.2603C93.1703 62.8704 93.6882 63.3577 94.2808 63.4718C93.8901 63.0285 93.6882 62.5412 93.6268 62.0716C93.5653 61.6019 93.6794 61.1673 93.9077 60.781C94.1447 60.3948 94.4783 60.0919 94.9217 59.9251C95.365 59.7583 95.8917 59.7144 96.4624 59.8549Z" fill="#1F3C49"/>
<path d="M108.744 50.0701C108.841 50.0745 108.937 50.035 109.008 49.9604C109.148 49.8199 109.139 49.5917 108.999 49.4556C107.95 48.4504 106.453 47.9061 105.004 47.9939C104.807 48.0071 104.658 48.1739 104.671 48.3714C104.68 48.5733 104.851 48.7225 105.048 48.7094C106.304 48.6304 107.594 49.1044 108.503 49.9736C108.569 50.0394 108.656 50.0701 108.744 50.0701Z" fill="#1F3C49"/>
<path d="M93.3116 47.1649C93.3906 47.1385 93.4653 47.0902 93.5135 47.0112C93.6189 46.8444 93.5706 46.6249 93.4038 46.5152C92.302 45.8041 90.8755 45.5627 89.5981 45.87C89.4094 45.9182 89.2865 46.1114 89.3347 46.3045C89.3786 46.4976 89.5718 46.6162 89.765 46.5679C90.8579 46.3045 92.0738 46.5108 93.0175 47.121C93.1053 47.178 93.2151 47.1912 93.3116 47.1649Z" fill="#1F3C49"/>
<path d="M104.75 55.465C105.514 55.3597 105.685 56.5404 104.922 56.6502C104.158 56.7599 103.991 55.5748 104.75 55.465Z" fill="white"/>
<path d="M89.1721 52.9807C89.9359 52.8709 90.1027 54.0561 89.3433 54.1658C88.5795 54.2756 88.4083 53.0904 89.1721 52.9807Z" fill="white"/>
<path d="M87.9954 65.4951C87.9032 67.0533 88.2412 68.5194 88.8953 69.7529C89.9487 71.7281 91.8099 73.0932 94.0003 73.2249C96.2477 73.361 98.3019 72.1715 99.5705 70.2533C100.321 69.1339 100.8 67.7644 100.892 66.2676C100.892 66.2149 100.887 66.1579 100.892 66.1052L88.013 65.3283C88.0086 65.3853 87.9998 65.4424 87.9954 65.4951Z" fill="#D55454"/>
<path d="M88.5352 65.3632C89.8871 66.9786 91.9458 68.0671 94.3029 68.2076C96.66 68.3525 98.8328 67.5141 100.369 66.0699L88.5352 65.3632Z" fill="white"/>
<path d="M88.8965 69.7529C89.95 71.7281 91.8111 73.0932 94.0015 73.2249C96.2489 73.361 98.3031 72.1715 99.5717 70.2533C97.4033 69.6387 95.1427 69.3358 92.8865 69.3622C91.5477 69.3797 90.2133 69.5114 88.8965 69.7529Z" fill="#F37C7C"/>
<path d="M103.209 64.2348C102.985 66.1881 104.951 68.0229 107.607 68.3301C110.258 68.6374 112.593 67.303 112.822 65.3453C113.05 63.392 111.079 61.5572 108.423 61.2499C105.772 60.9427 103.437 62.2815 103.209 64.2348Z" fill="#F9BFBB"/>
<path d="M82.6449 59.2395C82.4913 60.5607 83.8213 61.7986 85.6122 62.0049C87.4075 62.2112 88.9833 61.3113 89.1369 59.9901C89.2861 58.6732 87.9606 57.431 86.1653 57.2247C84.3744 57.0184 82.7985 57.9183 82.6449 59.2395Z" fill="#F9BFBB"/>
<path d="M162.642 310.819C162.537 306.013 160.896 294.75 161.62 286.181C164.649 263.795 176.772 226.493 176.136 210.322C175.526 194.753 169.056 180.066 165.219 164.966C163.06 156.459 161.593 147.759 158.635 139.498C157.858 137.321 156.971 135.183 155.953 133.107C152.7 126.492 148.153 121.335 142.346 116.835C137.517 113.096 132.158 110.045 126.478 107.815L123.317 130.772C123.374 130.741 123.427 130.719 123.48 130.689C122.417 137.304 124.862 143.932 127.334 150.16C134.405 167.964 142.043 185.539 150.242 202.852C151.577 205.665 152.937 208.518 153.411 211.595C153.78 214.001 153.587 216.455 153.394 218.882C151.581 241.795 150.115 261.346 149.36 284.496C148.706 286.278 146.23 291.62 145.12 295.364C144.453 297.616 143.79 299.868 143.373 302.177C142.727 305.802 143.504 309.472 143.518 313.137C143.522 313.905 143.509 314.682 143.684 315.428C144.501 318.914 148.157 317.175 149.162 314.792C149.255 314.568 149.338 314.335 149.395 314.107C149.478 313.817 149.531 313.519 149.571 313.221C149.711 312.123 149.615 310.973 149.593 309.876C149.579 309.055 149.593 308.225 149.777 307.422C149.935 306.746 150.032 305.815 150.791 305.543C151.489 305.293 152.503 305.64 153.087 306.022C153.785 306.478 154.263 307.163 154.614 307.927C154.689 308.085 154.755 308.238 154.816 308.401C154.987 308.818 155.128 309.257 155.255 309.683C155.725 311.223 156.093 312.782 156.524 314.327C157.125 316.473 157.419 318.563 156.998 320.77C156.563 323.013 155.646 325.125 154.851 327.262C154.004 329.554 152.722 332.626 153.973 334.979C154.553 336.063 156.107 336.024 156.892 335.207C157.327 334.751 157.573 334.149 157.81 333.57C159.328 329.843 160.917 326.143 161.892 322.223C162.809 318.527 162.717 314.603 162.642 310.819Z" fill="#FFCFCA"/>
<path d="M168.788 162.787C154.97 173.221 147.715 178.888 137.948 183.084L137.926 183.141C137.026 185.876 136.109 188.712 135.178 191.609C134.928 192.399 134.669 193.202 134.415 194.001C133.348 197.355 132.272 200.783 131.21 204.246C118.042 208.271 67.5848 216.361 60.9654 217.243C60.2938 213.596 59.6398 210.084 58.9858 206.169C57.5417 197.521 56.0887 186.925 54.4295 168.647C54.3988 168.713 54.3637 168.783 54.3285 168.862C53.714 170.122 52.485 172.769 50.3868 177.044C50.1103 177.611 49.8162 178.203 49.5089 178.827C43.5129 173.436 22.0527 149.026 22.0527 149.026C22.0527 149.026 36.5687 123.752 48.1218 115.179C62.5544 104.469 83.1279 99.421 83.1279 99.421C83.1279 99.421 88.1626 104.697 89.6858 105.847C94.1279 109.21 98.8027 110.992 104.364 111.338C112.546 111.852 121.167 108.051 125.982 101.098C144.712 108.727 158.126 117.716 168.788 162.787Z" fill="#00AEFF"/>
<path d="M50.3859 177.046C52.4841 172.771 53.7131 170.124 54.3276 168.864C53.9896 165.01 54.1564 161.108 54.8324 157.285C52.4709 161.038 50.7327 165.172 50.1445 169.474C49.7977 171.989 49.8592 174.566 50.3859 177.046Z" fill="#0081BC"/>
<path d="M137.926 183.143C137.026 185.878 136.109 188.713 135.178 191.61C130.139 183.306 128.282 173.153 129.876 163.527C131.201 170.519 133.958 177.235 137.926 183.143Z" fill="#0081BC"/>
</g>
<defs>
<clipPath id="clip0_1065_49909">
<rect width="200" height="200" fill="white"/>
</clipPath>
</defs>
</svg>
