<svg width="200" height="200" viewBox="0 0 200 200" fill="none" xmlns="http://www.w3.org/2000/svg">
<g clip-path="url(#clip0_1065_49915)">
<rect width="200" height="200" fill="#EFF9FF"/>
<path d="M242.591 324.031C240.151 317.917 237.706 311.802 235.265 305.683C232.921 299.819 230.876 294.762 227.794 289.236C226.526 286.967 224.801 283.995 223.365 281.739C216.504 269.119 209.644 256.499 202.779 243.88C198.437 235.895 194.096 227.911 189.755 219.926C186.902 214.681 184.044 209.418 181.871 203.861C179.181 196.969 177.574 189.709 176.121 182.453C175.046 177.12 174.045 171.756 172.97 166.414C169.84 167.806 166.715 169.21 163.607 170.659C156.944 173.766 150.316 177.006 143.617 180.065C148.691 194.88 154.235 209.466 161.877 223.109C175.524 247.488 195.76 266.687 212.255 289.236C212.852 290.052 212.589 292.502 212.646 293.542C212.826 296.918 212.545 300.284 212.958 303.647C213.375 307.048 214.165 310.402 215.306 313.628C215.824 315.09 217.233 316.433 218.725 315.121C218.862 315.037 218.989 314.936 219.107 314.8C220.587 313.233 220.595 311.087 220.499 309.068C220.393 306.763 220.512 304.582 221.517 302.47C221.789 301.9 222.25 301.36 222.869 301.241C223.247 301.162 223.637 301.259 224.006 301.377C225.235 301.799 226.166 302.562 226.916 303.506C227.311 303.998 227.662 304.542 227.974 305.113C228.277 305.653 228.549 306.21 228.813 306.772C229.137 307.474 229.445 308.177 229.769 308.839C229.831 308.98 229.897 309.112 229.967 309.243C230.024 309.362 230.09 309.485 230.147 309.608C230.542 310.389 230.937 311.166 231.332 311.951C232.048 313.374 232.763 314.796 233.483 316.222C234.106 317.46 234.734 318.703 235.357 319.945C236.455 322.113 237.627 324.545 239.589 326.081C241.055 327.231 243.394 326.05 242.591 324.031Z" fill="#FFCFCA"/>
<path d="M59.5015 128.652C37.6068 128.647 16.6382 197.791 16.1027 198.686C15.6462 199.454 -27.9105 263.584 -28.0378 263.738C-28.0378 263.738 -42.8216 278.614 -46.4341 283.087C-48.8703 286.12 -51.4161 289.254 -52.9744 292.836C-54.6249 296.628 -55.6345 300.627 -56.7143 304.608C-56.8855 305.232 -57.0567 305.873 -56.982 306.513C-56.8416 307.668 -55.573 308.673 -54.4142 308.146C-51.899 307.018 -51.0343 303.722 -50.2968 301.325C-49.6121 299.091 -49.0502 296.804 -47.9967 294.71C-46.9652 292.647 -45.407 291.133 -43.559 289.763C-42.229 288.771 -40.9472 287.74 -39.5865 286.778C-39.0729 286.41 -38.5287 286.041 -37.958 285.751C-37.1855 285.352 -36.3603 285.088 -35.4912 285.154C-34.7669 285.211 -33.7134 285.558 -33.2876 286.199C-32.8223 286.892 -33.3315 287.713 -33.6212 288.359C-33.9767 289.127 -34.486 289.807 -35.0127 290.47C-35.9126 291.589 -36.9616 292.695 -37.5059 294.034C-37.6025 294.262 -37.6815 294.495 -37.7429 294.736C-38.4057 297.3 -36.4656 301 -33.5993 298.678C-32.9803 298.182 -32.5019 297.541 -32.019 296.918C-29.7102 293.946 -26.7561 291.449 -25.0223 288.091C-23.9118 285.953 -23.047 283.706 -22.1911 281.463C-20.5845 277.275 -19.891 274.751 -19.5837 272.745L-19.5793 272.736L-19.531 272.657C-19.1886 272.39 20.4703 236.835 43.8398 204.976C49.3179 197.51 62.7409 168.14 69.2373 146.824C70.5761 142.43 63.5881 132.892 59.5015 128.652Z" fill="#FFCFCA"/>
<path d="M91.0714 79.3577C97.6908 82.7376 104.433 85.8673 111.219 88.9092C113.26 89.8222 115.323 90.7396 117.514 91.1961L117.966 103.583L118.356 114.197C117.957 114.46 117.531 114.68 117.092 114.864C115.086 119.956 110.131 123.56 104.323 123.56C98.077 123.56 92.8097 119.385 91.1505 113.675C91.0232 113.635 90.9002 113.596 90.7729 113.56C90.7729 113.025 90.7685 112.489 90.7685 111.954C90.6588 111.265 90.6018 110.558 90.6018 109.838C90.6018 109.162 90.6544 108.499 90.751 107.845C90.7466 106.924 90.7422 105.997 90.7378 105.071C90.7247 101.533 90.7071 97.991 90.3384 94.4706C90.2243 93.3908 90.0838 92.3154 89.9082 91.2444C89.4956 88.58 88.9338 85.9375 88.3719 83.295C87.9066 81.1222 87.4458 78.9451 86.9805 76.7767C88.2798 77.9574 89.5 78.5544 91.0714 79.3577Z" fill="#FFCFCA"/>
<path d="M131.187 58.0393C130.485 66.647 126.727 75.0134 120.582 81.0796C117.769 83.8538 114.459 86.1582 110.78 87.5892C106.738 89.1606 102.331 89.6522 98.0027 89.4284C95.4436 89.2923 92.867 88.9061 90.523 87.8877C87.7093 86.663 85.3566 84.5912 83.1663 82.4447C79.422 78.7708 75.9719 74.75 73.4084 70.1718C70.8494 65.5979 69.2033 60.4359 69.2208 55.1905C69.2252 53.4127 69.4272 51.6043 70.1163 49.9626C71.0337 47.7767 72.7413 46.0296 74.4927 44.4363C80.2824 39.1601 87.0729 34.8409 94.6184 32.7471C102.423 30.5831 110.666 30.8728 118.756 31.1844C120.806 31.2591 122.676 31.6629 124.322 32.949C125.665 33.9981 126.403 35.7758 127.14 37.2727C129.168 41.3988 130.502 45.8716 131.042 50.4411C131.341 52.9606 131.393 55.5109 131.187 58.0393Z" fill="#534741"/>
<path d="M117.966 103.585C110.394 101.895 103.063 99.1298 96.3651 95.2407C94.2318 94.0073 92.0196 92.6816 89.9082 91.2463C89.4956 88.5819 88.9338 85.9394 88.3719 83.2969C87.9066 81.1241 87.4458 78.947 86.9805 76.7786C88.2798 77.9593 89.5 78.5563 91.0714 79.3596C97.6908 82.7395 104.433 85.8692 111.219 88.9111C113.26 89.8241 115.323 90.7415 117.514 91.198L117.966 103.585Z" fill="#F9BFBB"/>
<path d="M130.283 53.9865C129.809 52.0727 129.229 50.1853 128.558 48.3505C126.446 42.5607 122.531 37.2319 117.321 33.7072C107.308 26.9474 93.3234 28.6022 85.2511 37.4997C83.3373 39.6066 81.7834 42.0208 80.6861 44.615C77.969 50.9841 77.8241 57.8361 79.3078 64.4335C80.607 70.2715 83.1793 75.9076 86.3485 80.8501C88.3018 83.8833 90.5624 86.7452 93.2443 89.2121C94.7763 90.6211 96.4706 91.8985 98.2747 92.9783C101.896 95.1554 105.983 96.5557 110.223 96.6961C114.055 96.819 117.957 95.8095 121.192 93.7947C124.84 91.5166 127.043 88.0138 128.628 84.1686C132.517 74.6917 132.75 63.9024 130.283 53.9865Z" fill="#FFCFCA"/>
<path d="M88.1071 78.8269C84.4639 80.6485 79.8549 80.3852 76.4707 78.107C73.6131 76.1888 71.7476 72.8967 71.4842 69.4729C71.4403 68.8496 71.4447 68.2263 71.5062 67.5986C71.6159 66.5056 71.8968 65.4214 72.4148 64.4558C73.714 62.0723 76.5365 60.6676 79.236 60.8827C81.9443 61.1066 84.4331 62.8536 85.7236 65.2415L86.641 70.4649L88.1071 78.8269Z" fill="#FFCFCA"/>
<path d="M99.5248 46.7667C105.639 45.6167 111.767 44.2516 117.557 42.0832C122.262 40.3274 127.468 36.9431 128.728 31.8557C130.304 25.4866 124.953 20.6055 119.624 18.1078C109.226 13.2355 96.3689 14.0959 86.8744 20.6625C81.111 24.6438 76.7742 30.574 74.7814 37.1889C73.6401 40.9858 73.1661 46.7272 77.6346 48.4874C82.8273 50.5373 89.2491 48.6147 94.5208 47.6797C96.1801 47.3813 97.8525 47.0828 99.5248 46.7667Z" fill="#534741"/>
<path d="M64.4149 48.1005C64.946 44.1631 66.6843 40.5243 69.893 38.4832C74.5502 35.5203 81.5997 36.3543 84.4309 41.4241C86.2788 44.7338 86.3096 48.9521 85.8048 52.6173C85.5722 54.3292 85.12 56.0411 84.2026 57.5247C83.5881 58.5211 81.5075 61.0933 80.1204 60.8914C79.6552 60.8212 79.1723 60.7597 78.7729 60.729C78.6939 60.7202 78.6149 60.7159 78.5359 60.7159C77.1137 60.7202 75.7881 61.0802 74.559 61.7913C73.6416 62.2873 72.9041 62.9633 72.3511 63.8192C70.6041 65.7286 67.9747 62.4321 67.0485 61.0407C64.8099 57.6696 63.7916 52.6831 64.4149 48.1005Z" fill="#534741"/>
<path d="M155.386 191.184C155.329 191.206 155.276 191.237 155.219 191.259C156.896 219.268 157.875 275.124 160.017 298.704C127.328 296.689 78.9389 298.524 50.1966 295.03C49.4197 280.659 50.1878 246.676 54.1471 201.706C54.5334 197.29 54.9811 192.755 55.4947 188.12C55.5122 187.975 55.5254 187.835 55.5429 187.686L55.4814 187.646C51.2237 184.736 46.4743 182.12 41.7117 179.548C35.0792 175.966 28.4248 172.476 23.0082 168.416C22.5341 168.056 29.2983 156.446 29.5924 155.836C38.8191 136.618 54.7529 116.251 76.6871 111.55C77.9776 111.274 90.5929 109.838 90.6148 109.268C90.6104 109.456 90.6061 109.645 90.6061 109.838C90.6061 117.419 96.7469 123.56 104.328 123.56C111.904 123.56 118.045 117.419 118.045 109.838C118.045 109.654 118.04 109.47 118.031 109.29C129.536 111.629 140.514 116.822 149.421 124.398C157.515 131.281 163.954 140.033 168.203 149.761C168.993 151.56 169.722 153.386 170.411 155.23C173.26 162.894 175.477 170.773 177.864 178.582C174.994 180.702 171.829 182.743 168.488 184.67C164.323 187.071 159.876 189.283 155.386 191.184Z" fill="#00AEFF"/>
<path d="M155.027 165.44C155.532 174.013 154.921 182.616 155.387 191.185C159.877 189.28 164.319 187.072 168.489 184.671C166.475 182.564 164.728 180.193 163.314 177.63C159.934 171.502 158.538 164.519 156.673 157.776C154.803 151.03 152.384 144.604 147.332 139.753C152.582 147.141 154.491 156.402 155.027 165.44Z" fill="#0081BC"/>
<path d="M103.095 52.5648C103.639 52.5077 104.184 52.5516 104.728 52.5955C105.685 52.6746 106.646 52.7536 107.608 52.8326C107.924 52.8589 108.323 52.8414 108.463 52.5516C108.529 52.4112 108.507 52.24 108.446 52.0951C108.213 51.5377 107.533 51.3533 106.936 51.2743C105.461 51.0899 103.898 51.1909 102.516 51.7747C102.244 51.8888 100.699 52.5955 100.808 52.9599C100.905 53.2803 102.788 52.5955 103.095 52.5648Z" fill="#211A17"/>
<path d="M124.037 51.915C123.492 51.8974 122.952 51.9808 122.412 52.0642C121.46 52.2135 120.507 52.3627 119.559 52.5119C119.243 52.5602 118.844 52.5734 118.686 52.2969C118.607 52.1564 118.616 51.9852 118.664 51.836C118.857 51.2653 119.524 51.0283 120.112 50.9098C121.57 50.6157 123.137 50.6025 124.559 51.0854C124.835 51.1775 126.433 51.7701 126.35 52.1388C126.275 52.468 124.348 51.9238 124.037 51.915Z" fill="#211A17"/>
<path d="M122.329 77.163C121.254 79.9635 119.274 81.8949 116.873 82.0924C114.56 82.2856 112.365 80.8239 110.846 78.4009C109.806 76.7373 109.082 74.6259 108.854 72.2776L109.306 72.2381L122.676 71.1363L123.172 71.0968C123.326 73.3179 123.005 75.4116 122.329 77.163Z" fill="#CE7872"/>
<path d="M122.675 71.1362C121.191 73.3836 118.918 74.898 116.271 75.1175C113.624 75.3369 111.139 74.2132 109.305 72.238L122.675 71.1362Z" fill="white"/>
<path d="M122.329 77.163C121.253 79.9635 119.274 81.8949 116.872 82.0924C114.559 82.2856 112.364 80.8239 110.846 78.4009C111.5 77.9707 112.18 77.5932 112.896 77.2772C114.954 76.3598 117.268 75.9603 119.493 76.3159C120.485 76.4739 121.424 76.768 122.329 77.163Z" fill="#EA8C8B"/>
<path d="M108.392 61.2244C108.449 63.046 107.448 64.556 106.162 64.5911C104.876 64.6306 103.791 63.1865 103.734 61.3648C103.682 59.5388 104.678 58.0332 105.964 57.9937C107.25 57.9542 108.339 59.4027 108.392 61.2244Z" fill="#211A17"/>
<path d="M106.706 60.1667C105.955 60.1886 105.99 61.3518 106.741 61.3299C107.492 61.3079 107.456 60.1447 106.706 60.1667Z" fill="white"/>
<path d="M120.819 60.8521C120.871 62.6738 121.96 64.1179 123.246 64.0784C124.532 64.0389 125.529 62.5333 125.476 60.7117C125.419 58.8857 124.335 57.4415 123.049 57.481C121.763 57.5205 120.762 59.0261 120.819 60.8521Z" fill="#211A17"/>
<path d="M123.833 59.3063C123.087 59.3283 123.118 60.4915 123.868 60.4695C124.619 60.4476 124.584 59.28 123.833 59.3063Z" fill="white"/>
<path d="M116.837 64.9477C116.078 64.3551 114.897 64.3727 114.182 65.0179L116.258 68.6085C116.837 68.5734 117.311 68.0905 117.522 67.5506C117.878 66.6552 117.597 65.5403 116.837 64.9477Z" fill="#CE7872"/>
<path d="M98.4979 65.1489C95.0741 65.386 92.4536 67.8309 92.6467 70.6138C92.8399 73.3967 95.772 75.4598 99.1958 75.2228C102.62 74.9857 105.24 72.5364 105.047 69.7535C104.854 66.9706 101.922 64.9119 98.4979 65.1489Z" fill="#F9BFBB"/>
<path d="M131.453 66.8341C131.348 65.2758 129.702 64.117 127.779 64.2487C125.857 64.3848 124.386 65.7587 124.496 67.3169C124.606 68.8796 126.252 70.0384 128.17 69.9023C130.093 69.7706 131.563 68.3967 131.453 66.8341Z" fill="#F9BFBB"/>
<path d="M60.7481 153.989C58.1451 165.051 56.3849 176.318 55.4807 187.648C51.2229 184.737 46.4735 182.121 41.7109 179.549C43.1243 178.566 44.4983 177.525 45.8283 176.424C50.5865 172.469 54.7345 167.632 57.1619 161.938C58.3427 159.147 58.8738 156.368 60.7481 153.989Z" fill="#0081BC"/>
</g>
<defs>
<clipPath id="clip0_1065_49915">
<rect width="200" height="200" fill="white"/>
</clipPath>
</defs>
</svg>
