<svg width="64" height="64" viewBox="0 0 64 64" fill="none" xmlns="http://www.w3.org/2000/svg">
<g clip-path="url(#clip0_1065_49877)">
<rect width="64" height="64" rx="32" fill="#EFF9FF"/>
<g clip-path="url(#clip1_1065_49877)">
<rect width="70" height="70" transform="translate(-3)" fill="#EFF9FF"/>
<path d="M44.1587 16.1551C44.8648 20.6857 42.5453 24.8091 38.9781 25.3653C35.411 25.9214 31.9469 22.6982 31.2408 18.1676C30.5348 13.6355 32.8542 9.51202 36.4215 8.95587C39.9887 8.39972 43.4528 11.6229 44.1587 16.1551Z" fill="#603813"/>
<path d="M26.4131 36.8184L39.487 37.3484L35.7507 45.0868L27.6498 44.7642L26.4131 36.8184Z" fill="black"/>
<path d="M8.11375 115.781C12.2368 118.892 57.3332 118.492 57.3024 116.28C57.2276 110.886 56.3957 105.059 55.6223 99.3558C55.1843 96.1311 54.7652 92.9478 54.5134 89.9044C53.9179 82.7359 51.9057 60.149 51.6222 56.1546C51.4394 53.549 50.9825 47.6403 50.9286 46.9367C50.5975 46.7032 50.2594 46.4804 49.9157 46.2668L49.884 46.2484C49.6312 46.0994 49.3408 45.9288 49.0275 45.7491L49.0203 45.7445C47.6765 44.961 45.9122 43.9654 44.7455 43.4124C41.8282 42.0266 38.8298 41.1801 35.6759 40.7253C30.4266 39.9695 25.2231 40.882 21.4017 41.9482C17.9721 42.9054 15.6535 43.9869 15.41 44.1037C15.3957 44.1098 15.3887 44.1129 15.3887 44.1129C15.3887 44.1129 17.5742 45.0501 18.1602 48.6497C20.6532 63.9606 13.1298 76.1482 13.1298 76.1482C13.1298 76.1482 11.2262 89.4773 10.1243 96.2755C9.42423 100.591 7.53748 115.346 8.11375 115.781Z" fill="#DEF2FF"/>
<path d="M26.1943 29.5915C26.3375 30.3843 26.4776 31.1786 26.6193 31.9698C26.6287 32.0174 26.6363 32.0665 26.6442 32.1126C26.6482 32.1357 26.6525 32.1557 26.6565 32.1772C26.8445 33.228 27.031 34.2773 27.1596 35.3328C27.2132 35.7552 27.2556 36.1823 27.2856 36.6094C27.32 37.0857 27.3387 37.5666 27.3435 38.0444C27.3572 38.9615 27.3321 39.8787 27.304 40.7928C27.2882 41.3106 27.2807 41.8268 27.277 42.3445C27.2727 42.9421 27.0184 43.5889 27.2621 44.1697C27.5704 44.904 28.2754 45.285 28.8966 45.7167C29.573 46.1868 30.3095 46.5709 31.0809 46.8597C32.594 47.4266 34.3013 47.6371 35.8668 47.1562C38.86 46.2375 38.0667 42.9467 38.0564 40.5639L38.0535 39.9048L38.0487 38.1596L38.0393 35.6769C37.1836 35.4664 36.3823 35.0777 35.5884 34.6921C32.9549 33.4031 30.3382 32.0835 27.7732 30.6624C27.7041 30.624 27.6382 30.5871 27.5735 30.5517C27.0579 30.2645 26.6359 30.0202 26.1943 29.5915Z" fill="#FFCFCA"/>
<path d="M38.0571 40.5638C35.0932 39.7987 32.2415 38.6127 29.6514 36.9919C28.8277 36.4772 27.9733 35.9257 27.1603 35.3327C27.0325 34.2772 26.8447 33.2294 26.6576 32.1786C26.5035 31.3167 26.3499 30.4533 26.1958 29.5914C26.6919 30.0738 27.1655 30.3258 27.7742 30.6623C30.3385 32.0818 32.9554 33.4046 35.5895 34.692C36.3831 35.0792 37.184 35.4663 38.041 35.6768L38.0571 40.5638Z" fill="#F9BFBB"/>
<path d="M27.7685 30.2397C26.4167 31.183 24.5539 31.3474 23.0652 30.6346C21.8075 30.0339 20.8654 28.8248 20.56 27.4667C20.5051 27.2209 20.471 26.9705 20.4586 26.7154C20.438 26.2714 20.4868 25.8198 20.6382 25.4019C21.0175 24.371 22.0657 23.6428 23.1608 23.5706C24.2582 23.4999 25.358 24.0561 26.0164 24.9349L26.6899 26.9751L27.7685 30.2397Z" fill="#FFCFCA"/>
<path d="M28.1796 123.567C26.7662 125.687 12.1765 119.386 7.33208 117.383C3.66258 115.865 4.99472 113.685 5.38864 110.846C6.54763 102.481 7.95229 95.2768 9.3339 87.5753C9.86024 84.6378 10.385 81.6266 10.892 78.4541C10.9132 78.3236 10.9327 78.1945 10.9539 78.0639C10.3356 80.1041 9.21191 84.2983 8.74549 85.7578C6.0955 94.0616 1.85526 113.673 -2.56165 114.379C-3.32304 114.501 -11.7256 111.545 -12.102 110.492C-14.752 103.072 -6.53671 75.8716 -5.21168 72.5071C-2.91489 66.6767 4.34102 51.6685 6.27202 49.1858C9.98222 44.4155 22.019 41.6148 22.6144 41.4473C24.3494 40.9557 26.1 40.5117 27.8616 40.12C29.6053 44.2573 30.0347 48.3285 30.4799 52.7946C32.8526 76.629 29.291 121.898 28.1796 123.567Z" fill="#00AEFF"/>
<path d="M32.0666 45.2989L31.9377 45.9734L31.8088 46.6586L31.5931 47.7878L31.466 48.4622L31.1108 50.3242L30.9872 50.9756L30.5349 53.3539L23.2329 41.2354L23.74 40.5317L24.088 40.0478L24.6993 39.1982L25.0456 38.7189L25.5669 37.9953L25.9078 37.5206L26.4131 36.8185L32.0666 45.2989Z" fill="#363740"/>
<path d="M31.9377 45.9732L31.8088 46.6584C30.6621 45.2035 29.542 43.7302 28.4466 42.2399C27.4378 40.8665 26.369 39.5038 25.5669 37.9951L25.9078 37.5204C26.3106 38.3085 26.7983 39.0475 27.3125 39.7711C28.8071 41.8743 30.3494 43.9406 31.9377 45.9732Z" fill="white"/>
<path d="M31.593 47.7876L31.4659 48.4621C30.1637 46.9242 28.8848 45.3664 27.6691 43.7625C26.572 42.3153 25.542 40.8081 24.6992 39.1981L25.0455 38.7187C25.4377 39.4884 25.8742 40.2366 26.3423 40.9633C27.6214 42.9528 29.1197 44.7918 30.6196 46.6154C30.9411 47.0072 31.2662 47.3989 31.593 47.7876Z" fill="white"/>
<path d="M31.111 50.3242L30.9873 50.9756C29.4733 49.3272 28.0776 47.5696 26.8143 45.7214C26.0705 44.6337 25.3727 43.5138 24.7242 42.3646C24.3956 41.7854 24.0811 41.1985 23.7791 40.607C23.7668 40.5825 23.7525 40.5563 23.7402 40.5318L24.0882 40.0478C24.1784 40.2214 24.2667 40.3981 24.3568 40.5732C24.6978 41.2323 25.0529 41.8807 25.4239 42.5228C26.7348 44.7858 28.2366 46.9382 29.9115 48.9446C30.3018 49.4132 30.703 49.8741 31.111 50.3242Z" fill="white"/>
<path d="M12.1034 82.0476C11.3348 83.928 10.425 85.8254 9.33496 87.5753C9.8613 84.6378 10.3861 81.6266 10.8931 78.4541C11.2165 77.7244 14.3595 70.4776 15.2834 62.9665C15.6368 72.1537 13.6935 78.1607 12.1034 82.0476Z" fill="#0081BC"/>
<path d="M91.9593 72.1537C88.7351 76.6674 64.9655 102.365 57.6847 87.3479C57.5787 87.1282 57.448 86.7963 57.2996 86.3831C56.5135 84.2015 55.252 79.7784 54.7326 78.0639C54.7536 78.1945 54.7731 78.3236 54.7943 78.4541C54.835 78.7122 54.8774 78.9688 54.918 79.2238C55.3863 82.1167 55.8685 84.8759 56.3526 87.5753C57.7342 95.2768 59.1387 102.481 60.2977 110.846C60.6916 113.685 62.0238 115.865 58.3543 117.383C53.51 119.386 38.9202 125.687 37.5069 123.567C36.8019 122.51 37.3762 103.694 36.8372 84.1677C36.5263 72.8819 34.3373 61.5239 35.2066 52.7946C35.6517 48.3285 36.0811 44.2573 37.8248 40.12C39.5863 40.5117 41.3371 40.9557 43.0721 41.4473C43.6674 41.6148 55.7041 44.4155 59.4143 49.1858C61.3453 51.6685 69.6984 72.3304 69.6984 72.3304C69.6984 72.3304 76.8484 66.9948 85.4225 63.3199C86.6592 62.7899 92.8427 70.917 91.9593 72.1537Z" fill="#00AEFF"/>
<path d="M33.6196 45.2989L33.7485 45.9734L33.8776 46.6586L34.0931 47.7878L34.2203 48.4622L34.5754 50.3242L34.699 50.9756L35.1513 53.3539L42.4533 41.2354L41.9463 40.5317L41.5982 40.0478L40.9869 39.1982L40.6406 38.7189L40.1193 37.9953L39.7784 37.5206L39.2731 36.8185L33.6196 45.2989Z" fill="#363740"/>
<path d="M33.7485 45.9732L33.8776 46.6584C35.0241 45.2035 36.1443 43.7302 37.2397 42.2399C38.2484 40.8665 39.3174 39.5038 40.1193 37.9951L39.7784 37.5204C39.3756 38.3085 38.888 39.0475 38.3739 39.7711C36.8792 41.8743 35.3369 43.9406 33.7485 45.9732Z" fill="white"/>
<path d="M34.0933 47.7876L34.2205 48.4621C35.5225 46.9242 36.8016 45.3664 38.0172 43.7625C39.1144 42.3153 40.1444 40.8081 40.987 39.1981L40.6407 38.7187C40.2485 39.4884 39.812 40.2366 39.3439 40.9633C38.0648 42.9528 36.5666 44.7918 35.0667 46.6154C34.7451 47.0072 34.42 47.3989 34.0933 47.7876Z" fill="white"/>
<path d="M34.5757 50.3242L34.6994 50.9756C36.2136 49.3272 37.6093 47.5696 38.8725 45.7214C39.6162 44.6337 40.3141 43.5138 40.9625 42.3646C41.2911 41.7854 41.6056 41.1985 41.9078 40.607C41.92 40.5825 41.9342 40.5563 41.9466 40.5318L41.5985 40.0478C41.5085 40.2214 41.42 40.3981 41.3299 40.5732C40.989 41.2323 40.6338 41.8807 40.2628 42.5228C38.9519 44.7858 37.4501 46.9382 35.7754 48.9446C35.3849 49.4132 34.9839 49.8741 34.5757 50.3242Z" fill="white"/>
<path d="M43.1349 32.6366C42.4818 34.2313 41.5763 35.6815 40.0927 36.6156C38.7767 37.4422 37.1927 37.8478 35.6417 37.7802C33.9251 37.7049 32.2744 37.1057 30.8142 36.187C30.0874 35.7276 29.4068 35.1915 28.7905 34.5969C27.7127 33.5614 26.8068 32.3616 26.0262 31.0895C24.7585 29.0201 23.7352 26.6634 23.2287 24.2283C22.6509 21.4768 22.7308 18.6238 23.8523 15.9844C24.3064 14.9075 24.9423 13.9089 25.725 13.0393C29.0229 9.36751 34.6925 8.73456 38.7234 11.586C40.8229 13.0747 42.3893 15.3085 43.2255 17.7282C43.4912 18.4948 43.7198 19.2814 43.9055 20.0803C44.8714 24.2176 44.7423 28.7082 43.1349 32.6366Z" fill="#FFCFCA"/>
<path d="M34.7928 25.2593C34.5766 25.27 34.2786 24.9274 34.1962 24.4158C34.1529 24.147 34.179 23.8781 34.2683 23.6784C34.2992 23.6093 34.3852 23.4449 34.5175 23.4249L34.5379 23.4218C34.7541 23.4111 35.0521 23.7552 35.1343 24.2653C35.1778 24.5341 35.1515 24.803 35.0623 25.0043C35.0315 25.0734 34.9454 25.2362 34.8131 25.2577L34.7928 25.2593Z" fill="#1F3C49"/>
<path d="M41.2703 24.6307C41.0877 24.64 40.7816 24.3358 40.6982 23.8165C40.6559 23.5553 40.6815 23.2957 40.7678 23.1021C40.8299 22.9623 40.916 22.8732 41.0038 22.8594L41.0227 22.8578C41.2052 22.8486 41.5112 23.1528 41.5948 23.6721C41.6367 23.9333 41.6115 24.1929 41.5252 24.3865C41.4628 24.5263 41.3769 24.6154 41.2892 24.6292L41.2703 24.6307Z" fill="#1F3C49"/>
<path d="M38.0195 25.8077C38.189 25.6218 38.4752 25.5419 38.7454 25.5911C39.0204 25.6372 39.2739 25.8323 39.4011 26.0842C39.5351 26.3331 39.5512 26.6527 39.4313 26.9046C39.3174 27.155 39.0879 27.344 38.8382 27.3763C39.0126 27.2011 39.1105 27.0045 39.1477 26.8078C39.1848 26.6143 39.1496 26.4284 39.0635 26.2609C38.9757 26.0935 38.843 25.9583 38.6623 25.8784C38.4809 25.7969 38.2627 25.7647 38.0195 25.8077Z" fill="#1F3C49"/>
<path d="M34.992 20.5964C34.6873 20.4474 34.3418 20.3583 33.9932 20.3383C33.6283 20.3199 33.2605 20.3767 32.9296 20.5042C32.6704 20.6041 32.5408 20.896 32.6406 21.1541C32.691 21.2847 32.7946 21.3892 32.9238 21.4414C32.9749 21.4614 33.0287 21.4737 33.0835 21.4767C33.1547 21.4813 33.2247 21.469 33.2917 21.4429C33.4928 21.3661 33.7173 21.3308 33.9408 21.3431C34.1537 21.3554 34.3633 21.4091 34.5477 21.4998C34.609 21.5305 34.6746 21.5474 34.7428 21.552C34.9443 21.5628 35.1322 21.4522 35.2218 21.2709C35.3444 21.022 35.2416 20.7193 34.992 20.5964Z" fill="#1F3C49"/>
<path d="M41.1757 19.5486C41.0588 19.5225 40.9381 19.5072 40.8165 19.501C40.2819 19.4718 39.7485 19.6193 39.3148 19.9158C39.086 20.0725 39.0272 20.3875 39.1842 20.6164C39.2527 20.7162 39.355 20.7884 39.472 20.8192C39.5047 20.8284 39.5386 20.833 39.5726 20.8345C39.6826 20.8407 39.7932 20.8099 39.8841 20.747C40.1323 20.578 40.4517 20.4904 40.7603 20.5057C40.8302 20.5104 40.8995 20.5196 40.9662 20.5334C40.9923 20.5396 41.0181 20.5426 41.0439 20.5442C41.2933 20.558 41.5117 20.3905 41.5636 20.1447C41.6206 19.8774 41.4484 19.6101 41.1757 19.5486Z" fill="#1F3C49"/>
<path d="M34.6679 23.7581C34.3521 23.6921 34.2501 24.1821 34.5662 24.2482C34.8821 24.3143 34.9841 23.8226 34.6679 23.7581Z" fill="white"/>
<path d="M41.2474 23.1234C40.9317 23.0573 40.8297 23.549 41.1458 23.6135C41.4617 23.6795 41.5637 23.1879 41.2474 23.1234Z" fill="white"/>
<path d="M41.95 28.2948C42.0387 29.1705 41.8812 30.0032 41.5404 30.713C40.9952 31.8514 39.9779 32.661 38.7465 32.7855C37.4852 32.9145 36.3004 32.2923 35.5416 31.243C35.0933 30.63 34.7928 29.8695 34.7075 29.0292C34.7045 28.9985 34.7054 28.9677 34.7021 28.9355L41.9365 28.2026C41.9399 28.2349 41.947 28.2656 41.95 28.2948Z" fill="#D55454"/>
<path d="M41.6426 28.2335C40.9189 29.1737 39.7848 29.8358 38.4609 29.9695C37.1372 30.1032 35.8934 29.6838 34.9956 28.9064L41.6426 28.2335Z" fill="white"/>
<path d="M41.5404 30.713C40.9951 31.8514 39.9778 32.661 38.7464 32.7855C37.4851 32.9145 36.3003 32.2923 35.5415 31.243C36.7492 30.8466 38.0151 30.6223 39.2857 30.5855C40.0395 30.564 40.794 30.607 41.5404 30.713Z" fill="#F37C7C"/>
<path d="M34.3878 27.2502C34.4316 28.0722 33.561 28.7881 32.4432 28.848C31.3254 28.9064 30.3836 28.2872 30.34 27.4653C30.2962 26.6418 31.167 25.9259 32.2846 25.866C33.4025 25.8076 34.3441 26.4268 34.3878 27.2502Z" fill="#F9BFBB"/>
<path d="M43.8144 25.9104C43.8439 26.4666 43.2559 26.9505 42.501 26.9905C41.7462 27.0304 41.1103 26.6125 41.0807 26.0564C41.0512 25.5002 41.6393 25.0163 42.394 24.9763C43.149 24.9364 43.7849 25.3543 43.8144 25.9104Z" fill="#F9BFBB"/>
<path d="M57.299 86.3831C56.5128 84.2015 55.2514 79.7784 54.7319 78.0639C54.753 78.1945 54.7725 78.3235 54.7937 78.4541C54.8344 78.7122 54.8768 78.9688 54.9174 79.2238L54.6806 77.984L53.3979 58.7954C53.3979 58.7954 57.4385 76.904 57.495 83.0569C57.5004 83.6822 57.4067 85.0357 57.299 86.3831Z" fill="#0081BC"/>
<path d="M22.5667 13.8243C22.2371 12.543 22.6552 11.1219 23.4841 10.1479C24.3129 9.17233 25.5034 8.61311 26.7183 8.41339C27.9333 8.21213 29.1778 8.34578 30.3883 8.59159C31.554 8.82665 32.7218 9.16619 33.9043 9.09552C35.356 9.00795 36.7611 8.27051 37.7174 7.09523C38.6231 5.9814 40.5708 6.14578 41.749 6.92316C42.9274 7.70054 44.0885 9.06478 44.3313 10.5304C44.5642 11.9362 44.4322 14.2775 42.2334 15.5649C39.6417 17.0828 31.4918 16.5451 30.3911 16.519C29.2904 16.4913 28.1078 16.7786 27.3814 17.6666C25.939 19.4288 25.6575 22.0835 25.5553 24.4372C24.7041 23.9548 23.8926 23.755 22.9336 23.7612C22.5113 23.7627 22.051 23.7965 21.5354 24.1698C20.6259 22.4092 20.0904 20.518 19.6739 18.5561C19.4674 17.5821 19.3242 16.5774 19.4465 15.5895C19.493 15.2147 19.5818 14.8352 19.7829 14.5248C20.0862 14.0563 20.615 13.8043 21.1426 13.7475C21.67 13.6922 22.0545 13.6722 22.5667 13.8243Z" fill="#603813"/>
</g>
</g>
<defs>
<clipPath id="clip0_1065_49877">
<rect width="64" height="64" rx="32" fill="white"/>
</clipPath>
<clipPath id="clip1_1065_49877">
<rect width="70" height="70" fill="white" transform="translate(-3)"/>
</clipPath>
</defs>
</svg>
