<svg width="64" height="64" viewBox="0 0 64 64" fill="none" xmlns="http://www.w3.org/2000/svg">
<g clip-path="url(#clip0_1065_49872)">
<rect width="64" height="64" rx="32" fill="#EFF9FF"/>
<g clip-path="url(#clip1_1065_49872)">
<rect width="74" height="74" transform="translate(-5)" fill="#EFF9FF"/>
<path d="M46.6542 49.8418C46.6526 49.9685 46.6509 50.0952 46.6461 50.2218C46.6217 51.3003 46.5649 52.3868 46.4804 53.4766C46.3034 55.7844 46.0046 58.1118 45.6262 60.4407C44.793 65.5632 43.57 70.6807 42.3925 75.5595C41.6877 76.0338 40.5248 76.7792 39.7209 77.0504C32.773 79.3908 28.2044 78.9377 20.9852 77.6579C19.9442 73.4628 19.4001 69.167 19.1207 64.8534C18.817 60.1679 18.5166 55.4726 18.5604 50.7789C18.705 50.3128 18.8576 49.8467 19.0184 49.3838C19.0477 49.2994 19.0769 49.2133 19.1077 49.1288C19.1695 48.9648 19.2312 48.8008 19.2961 48.6383C19.4667 48.2015 19.647 47.7678 19.8354 47.3391C20.0887 46.7625 20.3616 46.1941 20.649 45.6354C21.7518 44.3605 22.939 43.1586 24.2009 42.0412C25.5636 40.8329 27.0545 39.6993 28.7955 39.1601C29.9925 38.7882 31.2674 38.7151 32.5212 38.7784C33.3024 38.819 34.0804 38.9132 34.8469 39.0594C37.7037 39.6051 40.4225 40.8719 42.6849 42.7006C43.3979 43.2739 44.0637 43.9041 44.6744 44.5846C44.7832 44.7064 44.8904 44.8298 44.996 44.9549C45.6278 45.6987 46.2076 46.5205 46.4674 47.4625C46.6802 48.2323 46.6688 49.0444 46.6542 49.8418Z" fill="#FFCFCA"/>
<path d="M42.6494 13.2813C42.2791 12.7551 41.8845 12.2451 41.4638 11.7562C40.5966 10.746 39.562 9.85928 38.4316 9.14143C34.1862 6.44704 28.4548 6.88555 24.8233 10.4131C23.1293 12.0567 22.033 14.2184 21.3282 16.4532C20.0532 20.5037 19.7203 24.7799 19.6245 28.9929C19.6001 30.0485 19.5985 31.1042 19.5741 32.1583C19.5676 32.4636 19.4182 35.0053 19.6261 35.0881C20.357 35.3772 21.0992 35.6306 21.8446 35.8677C25.8952 37.1605 30.1178 37.992 34.3421 37.8248C38.5632 37.6575 42.7989 36.4475 46.2371 33.935C46.3784 32.7705 46.4482 31.6402 46.4547 30.5065C46.4726 27.0845 46.6009 23.5895 45.7953 20.2357C45.1976 17.7524 44.1257 15.378 42.6494 13.2813Z" fill="#3A374C"/>
<path d="M37.3975 27.5784L37.4463 31.4145L37.5567 40.1002L27.6172 40.7093L27.8657 35.6469L28.0866 31.1628L37.3975 27.5784Z" fill="#FFCFCA"/>
<path d="M37.3976 27.5783L37.4463 31.4145C36.3939 32.4523 35.2619 33.4008 33.9935 34.1527C32.1518 35.2409 29.9787 35.8873 27.8657 35.6469L28.0866 31.1627L37.3976 27.5783Z" fill="#FCB9B4"/>
<path d="M41.4379 21.6343L41.4395 21.636C40.9913 23.8464 40.1126 25.974 38.9287 27.7735C37.0138 30.6855 33.8355 33.2922 30.2429 33.5829C28.4077 33.7307 26.5562 33.1298 25.2245 31.8402C24.9013 31.5268 24.604 31.1776 24.3393 30.7943C21.9454 27.3301 21.5962 22.7339 22.66 18.6054C23.1212 16.8156 23.8456 15.1168 24.7859 13.634C25.8091 12.018 27.3033 10.6067 29.0102 9.65332C31.8411 8.07469 35.2614 7.75311 38.1117 9.84009C39.3996 10.7821 40.3433 12.1496 40.9247 13.6389C40.9474 13.6941 40.9685 13.7493 40.988 13.8045C41.8926 16.2537 41.9722 19.0017 41.4379 21.6343Z" fill="#FFCFCA"/>
<path d="M29.863 11.2655C29.7883 12.1539 29.3433 12.9676 28.8334 13.7017C28.7213 13.8625 28.606 14.0232 28.4858 14.1792C27.0127 16.1118 25.0102 17.6401 22.7527 18.5464C22.7202 18.5594 22.6829 18.5756 22.6406 18.5935C23.1019 16.8005 23.8278 15.0968 24.7698 13.6123C25.7963 11.9931 27.2921 10.5785 29.0039 9.62354C29.1988 9.69663 29.3742 9.80707 29.5138 9.96135C29.6892 10.1546 29.7899 10.3982 29.8386 10.6565C29.876 10.8562 29.8809 11.0641 29.863 11.2655Z" fill="#FCB9B4"/>
<path d="M41.4384 21.6337L41.44 21.6353C40.6799 22.1989 39.9247 22.7835 39.0233 23.0434C38.5718 23.175 38.0992 23.2188 37.6282 23.2188C36.1958 23.2204 34.7649 22.8258 33.5355 22.0884C31.7912 21.0409 30.5016 19.3453 29.6425 17.5003C29.1487 16.4414 28.7866 15.3305 28.4942 14.1985C28.275 13.3605 28.0963 12.5078 27.9307 11.6552C28.3773 11.0072 29.0757 10.8155 29.8439 10.684C29.8926 10.6742 29.9397 10.6661 29.99 10.658C32.8452 10.1886 35.8222 10.7814 38.4078 12.0807C39.2913 12.5257 40.131 13.0486 40.9252 13.6382C40.9479 13.6934 40.969 13.7486 40.9885 13.8039C41.8931 16.253 41.9727 19.001 41.4384 21.6337Z" fill="#FCB9B4"/>
<path d="M71.135 65.0332C67.078 65.1371 57.7313 59.6233 53.8692 57.65C53.1432 57.2764 51.7675 56.5163 50.1808 55.6133C49.0049 54.9442 47.7138 54.2004 46.4811 53.476C44.3405 52.2173 42.3786 51.0236 41.5178 50.4227C40.8373 49.9452 40.1454 49.406 39.4747 48.8116C37.1327 46.7409 35.0669 44.0091 34.7437 40.9655C34.7274 40.8064 34.7258 39.6663 34.8476 39.0588C34.8931 38.8282 34.9564 38.6755 35.0441 38.682C41.9693 39.1969 48.4527 42.2194 54.5155 45.6072C56.4596 46.6938 57.5201 47.4538 59.1052 48.4916C59.4447 48.7158 59.8085 48.9513 60.2096 49.2046L60.234 49.2192C60.2161 49.177 60.1983 49.1348 60.1804 49.0926C59.9336 48.4868 59.7094 47.8599 59.5097 47.2736C59.305 46.6726 59.128 46.1123 58.9737 45.6511C58.5904 44.5012 58.134 42.9226 58.134 42.9226C58.134 42.9226 56.6837 39.0605 56.4969 38.9825C56.013 38.7811 55.5485 38.5375 55.1116 38.2484C54.5756 37.8927 54.1956 37.4234 53.7035 37.019C52.8524 36.3222 51.8536 35.7911 50.9539 35.1545C50.6762 34.9563 50.3887 34.7436 50.2263 34.4399L50.21 34.4074C50.0655 34.1086 50.0703 33.7123 50.3172 33.4882C50.5056 33.316 50.7882 33.2835 51.0399 33.3322C51.4817 33.4199 51.9153 33.6636 52.3035 33.8828C52.552 34.0241 52.8086 34.1995 53.0831 34.2872C53.4988 34.4253 53.3218 34.0745 53.1854 33.8146C53.0327 33.5304 52.8524 33.264 52.6575 33.009C52.2726 32.5039 51.8325 32.0443 51.4281 31.5555L48.6834 28.2374C48.4138 27.911 48.607 27.3425 49.0033 27.2224C49.5555 27.0518 49.9404 27.7421 50.2588 28.0685C50.7898 28.6126 51.3258 29.155 51.8601 29.6959C52.245 30.0824 52.6316 30.4706 53.0197 30.8539C53.2439 31.078 53.3949 31.3947 53.6239 31.6302C53.7067 31.7163 53.926 31.9712 54.077 31.89C54.2346 31.8056 54.0624 31.5441 54.0186 31.4304C53.9081 31.1576 53.7895 30.8912 53.6645 30.6232C53.4241 30.1084 53.1627 29.6033 52.8963 29.0998C52.3587 28.0734 51.8033 27.0502 51.3907 25.9653C51.3729 25.9198 51.3599 25.876 51.3518 25.8321C51.1991 25.5057 51.3843 25.0769 51.7286 24.9632C52.3782 24.7488 52.7225 25.6681 52.9791 26.0904C53.3917 26.7741 53.7798 27.4708 54.1923 28.1546C54.4977 28.6646 54.8046 29.1745 55.1132 29.6845C55.2188 29.8648 55.5274 30.7986 55.8441 30.6947C56.1202 30.607 55.7677 29.8924 55.7336 29.7251C55.6492 29.3256 55.5598 28.9277 55.4689 28.5314C55.2854 27.7356 55.084 26.9463 54.8599 26.1602C54.8387 26.0871 54.8306 26.0156 54.8338 25.9474C54.7624 25.7282 54.691 25.5073 54.6162 25.288C54.4847 24.8934 54.8144 24.4727 55.2285 24.4857C55.8262 24.5004 55.9155 25.2588 56.0584 25.6957C56.2842 26.3924 56.5034 27.0892 56.7146 27.7908C56.8656 28.2845 57.0102 28.7815 57.1531 29.2785C57.2294 29.5432 57.4698 30.7272 57.9473 30.3796C58.0399 30.3114 58.0333 30.0662 58.0382 29.9687C58.061 29.6553 58.0106 29.3434 57.9927 29.0316C57.944 28.1952 57.9051 27.3572 57.8807 26.5207C57.8661 26.0611 58.3793 25.7347 58.795 25.9426C59.4008 26.2463 59.1832 27.4156 59.193 27.9548C59.2092 28.814 59.2563 29.6715 59.3359 30.5274C59.3521 30.6736 59.3651 30.8197 59.4138 30.9594C59.4755 31.1381 59.5876 31.294 59.6916 31.4548L59.6948 31.458C60.2811 32.3659 60.6254 33.4183 60.7635 34.4854C60.8333 35.0213 60.8496 35.5654 60.8138 36.1046C60.7765 36.6503 60.5475 37.6767 60.5475 37.6767C60.5475 37.6767 60.9486 38.3166 61.1321 38.5602C61.3433 38.838 61.5382 39.1287 61.7379 39.4129C62.1553 40.0041 62.5727 40.5936 62.9885 41.1848C64.434 43.2312 65.9184 45.2532 67.2875 47.3531C70.8329 52.7874 72.28 55.5679 73.8391 59.3131C74.6967 61.3708 74.0535 64.9584 71.135 65.0332Z" fill="#FFCFCA"/>
<path d="M50.1809 55.6138C49.005 54.9447 47.7139 54.2009 46.4812 53.4765C46.3041 55.7844 46.0053 58.1117 45.6269 60.4407C43.9622 60.3984 42.3007 60.3107 40.6457 60.1353C39.5933 60.0233 38.4483 59.8268 37.7516 59.0293C37.2546 58.4593 37.0825 57.6764 37.0289 56.9229C36.8616 54.5679 37.6899 52.2487 38.7602 50.1438C38.9892 49.6956 39.2279 49.2522 39.4748 48.8121C40.381 47.1896 41.3604 45.6045 42.1058 43.904C42.2812 43.5029 42.4599 43.0774 42.6856 42.7006C42.939 42.2767 43.2508 41.9112 43.6893 41.6952L44.0158 41.7992C44.2155 42.7298 44.4315 43.662 44.6751 44.5845C45.1689 46.4636 45.7747 48.3119 46.5802 50.0789C46.603 50.126 46.6241 50.1731 46.6468 50.2218C47.5531 52.1788 48.7192 54.0352 50.1809 55.6138Z" fill="#FCB9B4"/>
<path d="M59.7073 34.8168C59.6179 34.1948 59.4604 33.5614 59.0739 33.0676C58.6873 32.5739 58.0247 32.2523 57.4205 32.4261C57.1201 32.5122 56.8634 32.7087 56.5776 32.8403C55.8646 33.1667 54.9616 33.0855 54.3769 33.6085C54.2957 33.6799 54.2226 33.766 54.1983 33.8699C54.1544 34.0697 54.3022 34.2565 54.4403 34.4075C54.6352 34.6219 54.8512 34.8477 55.1354 34.9061C55.366 34.9516 55.6015 34.8785 55.8354 34.8493C56.4152 34.7794 56.9901 34.989 57.5147 35.2456C57.7908 35.3787 58.0604 35.5282 58.3089 35.7084C58.8124 36.0722 59.2184 36.5562 59.6179 37.0337C59.6699 37.097 59.7024 37.1571 59.7073 37.2383C59.8323 36.4328 59.8242 35.6224 59.7073 34.8168Z" fill="#F9BFBB"/>
<path d="M39.2326 10.4439C37.9723 9.45642 36.5155 8.74343 34.9239 8.36664C34.068 8.162 33.191 8.04019 32.3123 8.01258C31.1901 7.97523 30.5518 8.391 30.0158 9.36384C29.6001 10.1191 29.3971 10.9782 29.3564 11.8357C29.3451 12.1021 29.3467 12.3701 29.363 12.6413C29.5254 15.2902 30.9643 18.1421 32.5673 19.6363C33.8633 20.8463 35.5183 21.6778 37.2366 22.092C38.95 22.5061 41.0906 22.5727 42.6839 21.6989C44.1894 20.8723 44.3924 19.1426 43.9718 17.6159C43.4504 15.7206 42.3168 13.7895 41.0841 12.2694C40.5303 11.5872 39.9099 10.9766 39.2326 10.4439Z" fill="#3A374C"/>
<path d="M32.5413 9.28091C32.4959 9.09414 32.4407 8.90575 32.3335 8.74496C32.0882 8.37466 31.6156 8.222 31.1722 8.17977C29.6066 8.03523 28.1546 8.95122 26.8976 9.89807C26.118 10.486 25.3514 11.108 24.7472 11.8746C24.3347 12.4008 24.005 12.9871 23.7062 13.5832C22.7935 15.4103 22.1519 17.3706 21.8076 19.3829L22.0025 20.5327C22.1828 18.4457 22.9055 16.3133 24.4582 14.9068C26.451 13.1024 29.3402 12.8328 31.955 12.2108C32.1272 12.1702 32.3091 12.1199 32.426 11.9867C32.5154 11.8827 32.5511 11.7431 32.5787 11.6083C32.733 10.8417 32.72 10.0426 32.5413 9.28091Z" fill="#3A374C"/>
<path d="M42.828 23.4983C42.5048 22.7155 41.7155 22.1649 40.7069 22.1422C39.557 22.1178 38.6573 23.0777 37.9215 23.9596L36.5134 29.3061C36.4761 29.4523 37.8891 29.4117 38.058 29.3743C38.6264 29.2477 39.2029 28.9504 39.7048 28.6614C40.741 28.0604 41.6391 27.2208 42.2936 26.2171C42.8101 25.4278 43.2129 24.4224 42.828 23.4983Z" fill="#FFCFCA"/>
<path d="M29.9751 8.46732C29.9962 8.68819 30.0027 8.9107 29.9978 9.13157C29.9962 9.20791 29.9946 9.28424 29.9881 9.36057C29.9377 10.21 29.7103 11.0448 29.3498 11.8113C29.2328 12.0598 29.1013 12.3018 28.9584 12.5341C28.9243 12.5909 28.8886 12.6478 28.8496 12.703C28.0635 13.9113 26.9575 14.8728 25.7475 15.6264C25.1206 16.0162 24.4547 16.3556 23.7385 16.5131C23.5875 16.5456 23.4364 16.5684 23.2837 16.583C23.2659 16.5862 23.2497 16.5878 23.2318 16.5878C23.071 16.6008 22.9086 16.6041 22.7462 16.5943C22.3661 16.5749 21.9926 16.4888 21.645 16.3215C21.8675 15.6296 22.1241 14.9491 22.423 14.2865C23.8376 11.1487 26.1828 8.95618 29.0298 7.94273C29.3433 7.98496 29.6519 8.06129 29.9345 8.14899C29.9507 8.25456 29.9653 8.36175 29.9751 8.46732Z" fill="#3A374C"/>
<path d="M30.9414 26.8213C30.9902 27.3881 30.9138 27.9305 30.7368 28.4097C30.6994 28.5136 30.6572 28.6127 30.6118 28.7101C30.2041 29.5595 29.4668 30.1539 28.5832 30.2303C27.88 30.2904 27.2125 30.011 26.6944 29.5076C26.6538 29.4686 26.6132 29.428 26.5759 29.3857C26.0854 28.8563 25.7508 28.1141 25.6777 27.2744C25.6696 27.1737 25.6647 27.0746 25.6631 26.9756L30.9041 26.5241C30.9203 26.6215 30.9333 26.7206 30.9414 26.8213Z" fill="#D55454"/>
<path d="M30.6117 28.7101C30.204 29.5595 29.4667 30.1539 28.5832 30.2303C27.8799 30.2904 27.2124 30.011 26.6943 29.5076C26.7853 29.3533 26.8957 29.2087 27.024 29.0739C27.4544 28.6273 28.0797 28.3203 28.7959 28.2586C29.3335 28.2115 29.8451 28.3106 30.2788 28.5185C30.3957 28.5753 30.5061 28.6387 30.6117 28.7101Z" fill="#F37C7C"/>
<path d="M30.2187 26.5825C30.1197 26.7156 30.0027 26.8391 29.8712 26.9528C29.4473 27.3182 28.8675 27.5667 28.2146 27.6235C27.5179 27.6836 26.8666 27.5114 26.3729 27.1866C26.2592 27.1119 26.1552 27.0307 26.061 26.9414L30.2187 26.5825Z" fill="white"/>
<path d="M19.2986 23.2693C18.7529 21.1774 20.0083 19.032 22.0985 18.4863C24.1888 17.939 26.3358 19.1944 26.8815 21.2863C27.4288 23.3765 26.1718 25.5219 24.0816 26.0693C21.9913 26.615 19.8459 25.3595 19.2986 23.2693ZM25.4864 18.9021L29.8634 18.5334C29.1894 19.1132 28.7054 19.8847 28.4796 20.7406L26.9822 20.8624C26.6883 20.0487 26.1555 19.3763 25.4864 18.9021ZM27.1479 21.4633C27.1316 21.3853 27.1186 21.3074 27.0992 21.2294C27.0845 21.1791 27.0667 21.132 27.0521 21.0816L28.4277 20.9696C28.4017 21.0946 28.3806 21.2197 28.366 21.348L27.1479 21.4633ZM28.6908 22.8957C28.1142 20.6853 29.4411 18.4165 31.6515 17.8399C33.8619 17.2617 36.1292 18.5886 36.7074 20.799C37.2855 23.0094 35.9587 25.2767 33.7483 25.8549C31.5378 26.4331 29.269 25.1062 28.6908 22.8957ZM19.0826 23.3245C19.6608 25.5349 21.928 26.8634 24.1384 26.2853C26.1961 25.7477 27.4873 23.7419 27.1885 21.6842L28.3448 21.5754C28.3156 22.0269 28.3546 22.4897 28.4748 22.9526C29.0838 25.2816 31.4745 26.6815 33.8051 26.0725C36.1341 25.4635 37.534 23.0728 36.925 20.7422C36.316 18.4132 33.9237 17.0132 31.5947 17.6223C31.0734 17.7587 30.6023 17.9877 30.1866 18.2817L25.1811 18.7023C24.2651 18.168 23.1461 17.9796 22.0417 18.2687C19.8329 18.8469 18.5044 21.1157 19.0826 23.3245Z" fill="#999999"/>
<path d="M28.4043 25.051C28.2711 24.8968 28.0616 24.7993 27.8407 24.7961C27.6182 24.7879 27.386 24.8968 27.2431 25.0738C27.0985 25.2492 27.0336 25.5107 27.1213 25.7283C27.1992 25.9411 27.399 26.1067 27.6085 26.1051C27.4266 26.0125 27.3226 25.8452 27.2885 25.678C27.2561 25.5123 27.308 25.345 27.4168 25.2167C27.5224 25.0835 27.6751 24.9958 27.8505 24.9698C28.0259 24.9439 28.2175 24.9731 28.4043 25.051Z" fill="#B53434"/>
<path d="M31.7699 19.685C31.8203 19.672 31.856 19.6249 31.8527 19.5697C31.8495 19.508 31.7975 19.4609 31.7358 19.4641L30.0825 19.5518C30.0207 19.5551 29.972 19.6087 29.9769 19.6704C29.9801 19.7321 30.0321 19.7792 30.0939 19.7759L31.7472 19.6882L31.7699 19.685Z" fill="#24404C"/>
<path d="M25.7397 20.2487C25.7917 20.2357 25.8274 20.187 25.8225 20.1318C25.8193 20.07 25.7657 20.0246 25.704 20.0294L24.1432 20.1415C24.0831 20.1464 24.036 20.2 24.0409 20.2617C24.0441 20.3234 24.0977 20.3689 24.1594 20.3656L25.7202 20.2519L25.7397 20.2487Z" fill="#24404C"/>
<path d="M30.0013 22.6328C29.9802 22.6328 29.9574 22.6279 29.9363 22.6181C29.8567 22.5824 29.8227 22.4882 29.8584 22.4102C30.05 21.9896 30.4463 21.6973 30.9157 21.6274C31.2908 21.5722 31.7846 21.7671 32.1159 22.1033C32.1776 22.165 32.1776 22.2641 32.1159 22.3258C32.0542 22.3859 31.9535 22.3859 31.8934 22.3242C31.6351 22.0643 31.2356 21.8987 30.9628 21.9393C30.5974 21.9929 30.292 22.217 30.1442 22.5402C30.1182 22.5986 30.0614 22.6328 30.0013 22.6328Z" fill="#FCB9B4"/>
<path d="M24.252 22.826C24.2196 22.826 24.1871 22.8163 24.1579 22.7952C24.088 22.7432 24.0734 22.6441 24.1254 22.5743C24.4063 22.1975 24.8643 21.9344 25.2427 21.9344H25.2476C25.7235 21.9377 26.1555 22.1715 26.4056 22.5597C26.4511 22.6344 26.43 22.7302 26.3569 22.7773C26.2838 22.8244 26.1864 22.8033 26.1393 22.7302C25.9492 22.4314 25.6147 22.2511 25.246 22.2495C24.965 22.2495 24.5964 22.4687 24.3787 22.7627C24.3479 22.8033 24.3008 22.826 24.252 22.826Z" fill="#FCB9B4"/>
<path d="M29.8956 22.425C29.8745 22.425 29.8517 22.4201 29.8306 22.4104C29.7526 22.3746 29.7169 22.2821 29.7527 22.2025C29.9443 21.7818 30.3406 21.4895 30.8116 21.4197C31.1867 21.3644 31.6805 21.561 32.0118 21.8955C32.0719 21.9573 32.0719 22.0563 32.0102 22.118C31.9485 22.1781 31.8494 22.1781 31.7877 22.1164C31.531 21.8566 31.1315 21.6909 30.8571 21.7315C30.4916 21.7851 30.1863 22.0092 30.0401 22.3324C30.0125 22.3909 29.9557 22.425 29.8956 22.425Z" fill="#24404C"/>
<path d="M24.1481 22.6183C24.114 22.6183 24.0815 22.6085 24.0539 22.5874C23.984 22.5355 23.9694 22.438 24.0214 22.3682C24.3007 21.9898 24.7603 21.7283 25.1388 21.7283H25.142C25.6179 21.7299 26.0515 21.9638 26.3 22.3536C26.3471 22.4266 26.326 22.5241 26.2529 22.5712C26.1782 22.6167 26.0807 22.5955 26.0353 22.5225C25.8436 22.2236 25.5091 22.045 25.1404 22.0433C24.8594 22.0433 24.4907 22.261 24.2731 22.5549C24.2422 22.5972 24.1952 22.6183 24.1481 22.6183Z" fill="#24404C"/>
<path d="M31.1089 44.1736C31.0375 44.2548 30.9644 44.3344 30.8897 44.414C29.5498 45.8156 27.5684 46.8761 26.1505 47.8668C24.3299 49.1353 23.193 50.4167 22.1682 52.3412C21.9636 52.7262 21.7671 53.1192 21.577 53.5171C21.4422 53.7981 21.3123 54.0823 21.1856 54.3681C20.51 55.8818 19.9221 57.4718 19.3748 59.0813C18.3662 62.0242 17.4843 65.0353 16.4205 67.7897C15.131 71.1257 13.6676 74.3154 11.8925 77.4207C10.1531 80.4691 8.30324 83.4542 6.34782 86.3711C5.37011 87.8296 4.36478 89.2718 3.33672 90.6945C2.98429 91.1817 1.98708 92.6321 1.37479 93.4685C1.23999 93.652 1.12469 93.8063 1.03699 93.9135L1.02722 93.9411V93.9443C1.07107 94.5907 1.02887 95.4255 0.819357 96.8401C0.708918 97.5986 0.595223 98.3587 0.398706 99.1009C0.0917511 100.267 -0.655337 101.25 -1.16855 102.334C-1.27412 102.563 -1.37968 102.796 -1.53721 102.994C-2.26806 103.915 -3.13047 102.898 -3.10124 102.053C-3.09962 101.974 -3.08987 101.896 -3.07688 101.82C-3.00055 101.363 -2.75044 100.947 -2.54743 100.535C-2.42887 100.293 -2.31843 100.046 -2.26159 99.7814C-2.21449 99.5605 -2.11378 99.2698 -2.30705 99.0846C-2.48407 98.9157 -2.83652 98.88 -3.06552 98.9125C-3.34162 98.9531 -3.57872 99.0927 -3.7931 99.2698C-3.95064 99.3997 -4.09358 99.5524 -4.22838 99.7034C-4.58568 100.098 -4.91375 100.507 -5.25807 100.908C-5.7388 101.464 -6.11884 102.044 -6.29749 102.757C-6.47939 103.483 -6.49562 104.235 -6.55408 104.977C-6.6158 105.774 -6.65804 106.861 -7.3629 107.389C-7.6861 107.631 -8.15059 107.407 -8.27402 107.057C-8.34223 106.862 -8.33248 106.651 -8.32436 106.445C-8.26427 105.131 -8.22691 103.814 -7.97679 102.518C-7.73967 101.297 -7.16475 100.144 -6.61743 99.0294C-5.80375 97.3858 -2.17874 91.7745 -2.17874 91.7745C-2.1495 91.7177 -0.619607 88.1885 0.406827 85.9684C1.1799 84.2955 1.83443 83.0109 2.56365 81.3218C3.99287 78.0086 5.86384 73.8135 7.07867 70.4159C7.17936 70.1349 7.27518 69.8589 7.36288 69.5876C7.46845 69.2709 7.56263 68.9607 7.65196 68.6521C8.41529 66.0503 8.75472 63.6905 9.38325 60.8451C10.0475 57.8421 10.7638 54.857 11.4426 51.8573C12.5194 47.0889 14.47 44.2613 16.1119 43.2511C18.3873 41.8544 20.6806 40.7354 23.0761 39.8974C23.2775 39.8259 23.4789 39.7577 23.6803 39.6911C24.5914 39.3906 25.5188 39.1308 26.464 38.9099C26.6313 38.8725 26.8002 38.8336 26.9691 38.7978C28.0491 38.564 29.1551 38.3804 30.2969 38.2456C30.711 38.1985 31.1122 38.4243 31.4419 38.7702C31.8349 39.1779 32.1321 39.7512 32.2393 40.2287C32.5999 41.8203 32.0525 43.0968 31.1089 44.1736Z" fill="#FFCFCA"/>
<path d="M37.4676 55.3652C35.2312 57.5366 32.2055 58.8148 29.1083 59.1721C28.1923 59.2777 27.2584 59.3069 26.3554 59.1234C24.0378 58.6507 22.162 56.7782 21.2704 54.5856C21.2411 54.5142 21.2135 54.4411 21.1859 54.368C21.1258 54.2088 21.0706 54.048 21.0202 53.8856C20.382 51.8782 20.4128 49.6824 20.7864 47.5987C20.9618 46.6145 21.2103 45.6482 21.4961 44.6899C21.8843 43.3793 22.3407 42.0865 22.7694 40.7905C22.8685 40.4932 22.9676 40.1944 23.0764 39.8972C23.2778 39.8257 23.4791 39.7575 23.6805 39.6909C24.5917 39.3905 25.519 39.1306 26.4643 38.9097C26.513 39.3223 26.6007 39.725 26.7241 40.1181C26.8557 40.5355 27.0294 40.9382 27.2422 41.3232C27.986 42.663 29.1895 43.7658 30.6236 44.318C30.7113 44.3521 30.799 44.3846 30.8899 44.4138C31.0085 44.4528 31.1303 44.4902 31.2537 44.521C32.3711 44.8134 33.5454 44.8004 34.6969 44.7273C36.8715 44.5925 39.1485 44.206 40.8279 42.8222C40.581 44.193 40.922 45.5946 40.9756 46.988C41.0958 50.1047 39.7072 53.1938 37.4676 55.3652Z" fill="#FCB9B4"/>
<path d="M44.5698 40.4149C44.8151 42.9161 44.82 45.4643 45.0879 47.9573C45.4826 51.6407 46.2833 55.2674 46.8371 58.9314C47.1522 61.0053 47.3211 63.1508 47.3 65.2865C47.2838 66.9252 47.1554 68.5558 46.8972 70.1426C39.5839 73.714 31.0557 74.7274 23.1106 72.9718C22.2936 72.7915 21.4799 72.582 20.6923 72.2945C19.4823 71.8527 18.4348 71.2193 17.2053 70.8328C17.1598 67.3264 17.1144 63.8086 17.3125 60.3102C17.4294 58.2525 17.6292 56.2012 17.9638 54.1662C18.8375 48.8522 20.525 44.9722 21.2883 39.6435C21.7706 39.5444 22.5535 39.1757 23.0586 39.0799C23.9924 38.9029 24.9279 38.6235 25.9186 38.5375C25.8813 39.9845 26.1298 41.4511 26.8216 42.7163C27.5947 44.126 28.972 45.2515 30.5652 45.4805C31.3107 45.5877 32.0707 45.5 32.8097 45.3587C34.174 45.0972 35.5398 44.6279 36.5744 43.7005C37.5294 42.8446 38.1287 41.6671 38.598 40.4734C38.9147 39.6711 39.056 39.2764 39.272 38.4416C39.8031 38.5846 41.6286 39.2099 41.9144 39.3609C42.1142 39.4665 44.3733 40.3077 44.5698 40.4149Z" fill="#00AEFF"/>
<path d="M47.3 65.2865C47.2837 66.9252 47.1554 68.5558 46.8972 70.1426C39.5839 73.714 31.0557 74.7274 23.1106 72.9718C22.2936 72.7915 21.4799 72.582 20.6923 72.2945C19.4823 71.8527 18.4348 71.2193 17.2053 70.8328C17.1598 67.3264 17.1144 63.8086 17.3125 60.3102C17.9443 61.2002 18.6914 61.9798 19.6447 62.5076C21.108 63.3148 22.8588 63.4025 24.5268 63.2872C26.1931 63.1703 27.8562 62.8666 29.5242 62.9656C32.5547 63.1427 35.3449 64.6222 38.3041 65.3044C39.6293 65.6097 40.9919 65.7559 42.3529 65.7753C44.0128 65.7997 45.6743 65.634 47.3 65.2865Z" fill="#0081BC"/>
<path d="M62.2416 53.6174C61.6375 52.997 60.9634 52.107 60.5428 51.3485C60.0247 50.4163 59.5456 49.4629 59.1055 48.4917C59.4449 48.7158 59.8087 48.9513 60.2099 49.2047C60.6256 50.7963 61.2314 52.3327 62.2416 53.6174Z" fill="#FCB9B4"/>
</g>
</g>
<defs>
<clipPath id="clip0_1065_49872">
<rect width="64" height="64" rx="32" fill="white"/>
</clipPath>
<clipPath id="clip1_1065_49872">
<rect width="74" height="74" fill="white" transform="translate(-5)"/>
</clipPath>
</defs>
</svg>
