<svg width="64" height="64" viewBox="0 0 64 64" fill="none" xmlns="http://www.w3.org/2000/svg">
<g clip-path="url(#clip0_1065_49882)">
<rect width="64" height="64" rx="32" fill="#EFF9FF"/>
<g clip-path="url(#clip1_1065_49882)">
<rect width="68" height="68" transform="translate(-2)" fill="#EFF9FF"/>
<path d="M46.6993 42.2048C45.5964 48.0625 44.4131 53.8785 43.6616 59.79C42.9498 65.388 42.264 70.9936 41.373 76.5663C36.7846 76.6692 32.2101 76.4767 27.6344 76.1215C23.0788 75.7663 18.5745 75.1335 14.2959 73.4665C12.0265 72.583 9.82741 71.4995 7.73877 70.2354C9.78697 67.2625 11.0418 63.8344 12.4096 60.5168C13.875 56.9633 15.1328 53.3233 16.178 49.6236C18.4576 41.5496 19.3646 33.4636 19.9072 25.127C20.2162 20.3841 21.5741 15.3979 24.7654 11.7564C27.9718 8.09396 33.3433 6.00458 38.0621 7.78653C40.9765 8.88943 43.3509 11.1713 44.9368 13.8547C45.6904 15.1307 46.277 16.4948 46.7292 17.9066C46.8515 18.2812 46.962 18.6618 47.065 19.0424C47.3873 20.2393 47.6261 21.4616 47.8007 22.6869C48.0694 24.5912 48.1917 26.503 48.1992 28.4148C48.2141 33.0398 47.5545 37.6663 46.6993 42.2048Z" fill="#345668"/>
<path d="M42.8656 43.1597C42.2334 43.6537 41.4235 43.8402 40.6413 44.0134C39.6986 44.2223 38.7534 44.4327 37.7909 44.5029C35.9145 44.6387 34.1445 44.1671 32.3049 43.7746C32.2133 42.6941 32.1191 41.6121 32.0275 40.5315C31.9124 39.1809 31.795 37.8258 31.5452 36.493C31.4679 36.0841 31.3805 35.6782 31.281 35.2737C31.0401 34.2678 30.7424 33.2769 30.4449 32.2844C30.2003 31.4695 29.9559 30.6517 29.7114 29.8368C30.2439 30.2473 30.7294 30.4383 31.3547 30.695C33.9891 31.7815 36.6634 32.768 39.3502 33.7186C40.1597 34.0037 40.9764 34.2887 41.8274 34.3962L42.3863 39.1152L42.8656 43.1597Z" fill="#FFCFCA"/>
<path d="M42.3863 39.1152C39.4387 38.7048 36.5527 37.8765 33.8712 36.599C33.0185 36.1946 32.1321 35.7573 31.281 35.2737C31.0401 34.2678 30.7424 33.2769 30.4449 32.2844C30.2003 31.4696 29.9559 30.6517 29.7114 29.8368C30.2439 30.2473 30.7294 30.4383 31.3547 30.695C33.9891 31.7815 36.6634 32.768 39.3502 33.7186C40.1597 34.0037 40.9764 34.2887 41.8274 34.3962L42.3863 39.1152Z" fill="#F9BFBB"/>
<path d="M46.9004 31.52C46.4452 33.1319 45.7289 34.6317 44.3976 35.6958C43.2171 36.6391 41.7314 37.2032 40.2257 37.3077C38.5594 37.4226 36.8994 37.0256 35.3882 36.2973C34.6361 35.9331 33.9198 35.4899 33.2595 34.984C32.1051 34.1004 31.0985 33.0408 30.2054 31.8976C28.7545 30.0381 27.5082 27.8726 26.7523 25.5772C25.8931 22.9819 25.6582 20.2179 26.4524 17.5435C26.7733 16.454 27.2784 15.4213 27.9392 14.4945C30.7232 10.5873 36.1302 9.3546 40.336 11.6693C42.5269 12.8767 44.2845 14.8631 45.3573 17.1077C45.6975 17.8196 46.005 18.5554 46.2706 19.3061C47.6571 23.1983 48.0242 27.5487 46.9004 31.52Z" fill="#FFCFCA"/>
<path d="M46.7294 17.9063C45.4101 15.9512 44.0868 13.914 42.3465 12.3679C40.7869 10.9844 38.8486 10.0397 36.7587 9.8487C32.7995 9.48604 28.1833 10.9889 25.6681 14.1857C24.3988 15.799 23.8214 17.8227 23.7371 19.8315C23.6527 21.8388 24.0657 23.6148 24.5694 25.5773C28.3939 25.2132 31.7273 22.7895 33.7034 19.7375C35.1745 17.4675 35.9755 14.8826 36.3907 12.2381C37.574 13.7693 38.886 15.202 40.4258 16.3766C42.3447 17.8391 44.6529 18.8868 47.0652 19.042C46.9623 18.66 46.8518 18.2809 46.7294 17.9063Z" fill="#345668"/>
<path d="M61.5251 86.7294C60.2938 84.9683 57.597 81.5522 57.597 81.5522C57.597 81.5522 59.27 59.2315 54.6749 49.6979C51.7542 46.6773 48.9126 43.961 44.7324 43.1835C41.6731 48.3129 40.741 52.938 40.2375 58.8897C39.5699 66.7802 39.3773 75.1064 42.9391 82.179C43.9256 84.137 45.1786 85.9488 46.4516 87.7338C49.8126 92.4468 53.5854 96.9943 57.7881 101.054C58.9193 102.145 60.6222 102.391 62.0101 101.651L66.0561 99.4926C67.3799 98.7866 67.8753 97.136 67.159 95.8182C65.383 92.5558 63.5966 89.6903 61.5251 86.7294Z" fill="#00AEFF"/>
<path d="M49.3423 45.9072C49.1185 45.3102 47.3081 44.0223 47.3081 44.0223C47.3081 44.0223 36.4799 41.8374 31.3404 42.4911C28.7705 42.8179 26.2316 43.3925 23.7731 44.2103C21.0755 45.1073 18.718 46.1743 16.4929 47.9697C14.2223 49.8024 12.2125 51.9396 10.307 54.1424C9.3866 55.2065 8.4907 56.29 7.60003 57.3794C5.04097 60.5076 2.35834 63.6446 0.217911 67.0921C-2.86976 72.0664 -5.10974 78.4211 -2.12325 83.9774C-0.337421 87.2995 2.59877 89.8739 5.48616 92.2245C8.92171 95.0213 12.6893 97.5345 16.7272 99.406C17.8621 99.9329 19.2185 99.5329 19.8647 98.4628C20.7242 97.039 21.4448 95.5422 22.101 94.0109C22.4983 93.0841 22.4265 92.0245 21.9261 91.1485C19.1908 86.3578 15.7939 81.8671 11.5955 77.4928C14.6811 74.5542 17.7501 71.4455 20.2335 68.0219C20.4675 70.9799 20.5635 73.9409 20.4125 76.9093C20.3692 77.7629 20.3163 78.6688 20.7256 79.418C21.2436 80.3687 22.352 80.8075 23.3834 81.1358C30.8943 83.5192 39.0473 83.8058 46.7276 82.0402C48.2782 81.6835 49.9005 81.1806 50.8705 79.8314C51.7511 78.6077 51.9645 77.0317 52.2107 75.5825C52.6271 73.1111 52.8793 70.6098 52.9674 68.1055C53.2301 60.5628 52.0048 52.9678 49.3423 45.9072Z" fill="#00AEFF"/>
<path d="M44.9591 42.1061C44.8994 41.8748 44.8293 41.6434 44.786 41.424C44.6117 40.5181 44.7785 39.3615 43.7792 38.7362C43.2883 38.4288 42.6824 38.4825 42.1151 38.4735C41.4459 38.4646 40.7778 38.4765 40.1086 38.4631C38.7057 38.4332 37.301 38.29 35.9183 38.0377C35.213 37.9094 34.5132 37.7512 33.8225 37.5661C33.1999 37.399 32.5705 37.1184 31.9246 37.0542C31.4603 37.008 30.9542 37.1229 30.6872 37.4408C30.5141 37.6482 30.4607 37.9109 30.4122 38.1646C30.1676 39.4496 29.9422 40.7599 30.1491 42.0643C30.2128 42.4672 30.3304 42.8881 30.6554 43.1896C31.3888 43.8716 32.9924 44.085 33.9813 44.2955C37.2482 44.9909 40.7457 45.0835 43.8138 43.9567C44.1839 43.8209 44.556 43.6627 44.8128 43.397C45.1815 43.0165 45.0755 42.5628 44.9591 42.1061Z" fill="#0081BC"/>
<path d="M31.6558 43.4134C31.6032 43.4059 31.5591 43.3701 31.5504 43.3224C31.2007 41.4076 31.1724 39.4719 31.4662 37.572C31.4749 37.5153 31.534 37.478 31.599 37.487H31.6014C31.6674 37.4974 31.7138 37.5512 31.705 37.6064C31.4143 39.4883 31.4422 41.4031 31.7881 43.2985C31.7986 43.3552 31.7538 43.4074 31.688 43.4134H31.6558Z" fill="#00AEFF"/>
<path d="M32.6796 43.776H32.6775C32.6115 43.7656 32.5651 43.7119 32.5736 43.6551C32.7064 42.7866 32.6858 41.8866 32.6661 41.0166L32.5999 38.1168C32.5979 38.0332 32.5833 38.0063 32.5715 37.9989C32.5162 37.966 32.5015 37.9004 32.5384 37.8541C32.5755 37.8078 32.6499 37.7974 32.7055 37.8317C32.836 37.9123 32.8393 38.0526 32.8408 38.1213L32.9069 41.021C32.9269 41.8986 32.9476 42.806 32.8124 43.691C32.804 43.7462 32.7446 43.7835 32.6796 43.776Z" fill="#00AEFF"/>
<path d="M33.9391 44.0341C33.8791 44.0266 33.8325 43.9818 33.8322 43.9281C33.8221 42.0507 33.8785 40.1508 34 38.2808C34.0037 38.2241 34.0606 38.1823 34.127 38.1883C34.1919 38.1942 34.2443 38.2435 34.2404 38.3002C34.1194 40.1672 34.0629 42.0626 34.0731 43.9356C34.0734 43.9923 34.0198 44.0371 33.9533 44.0356L33.9391 44.0341Z" fill="#00AEFF"/>
<path d="M34.9653 44.2447C34.9015 44.2373 34.8542 44.1865 34.8587 44.1313C35.0051 42.2822 35.0338 40.3988 34.9439 38.5362C34.9412 38.4795 34.9929 38.4332 35.0593 38.4332C35.1264 38.4347 35.1818 38.4795 35.1845 38.5362C35.2746 40.4062 35.246 42.2971 35.099 44.1537C35.0945 44.2104 35.037 44.2522 34.9706 44.2462L34.9653 44.2447Z" fill="#00AEFF"/>
<path d="M36.1036 44.5643H36.1035C36.0373 44.5553 35.9899 44.5031 35.9974 44.4464C36.1087 43.6032 36.1339 42.6883 36.0794 41.4824L36.0742 41.3675C36.0548 40.9556 36.035 40.5288 36.0953 40.1109C36.1161 39.9676 36.1464 39.8243 36.1767 39.6826C36.2348 39.4094 36.2896 39.1513 36.28 38.8856C36.2779 38.8289 36.3302 38.7826 36.3967 38.7826C36.4624 38.7826 36.5185 38.8304 36.5207 38.8871C36.531 39.1751 36.4713 39.4557 36.4137 39.7273C36.3843 39.8661 36.3546 40.0049 36.3343 40.1452C36.2764 40.5452 36.296 40.9631 36.3148 41.3675L36.32 41.4824C36.3751 42.7002 36.3494 43.624 36.2366 44.4777C36.2291 44.5344 36.1696 44.5732 36.1036 44.5643Z" fill="#00AEFF"/>
<path d="M37.0905 44.4759H37.0863C37.0205 44.4655 36.9751 44.4102 36.9847 44.355C37.2881 42.5984 37.387 40.8031 37.2787 39.0151C37.2751 38.9584 37.3263 38.9122 37.3925 38.9107C37.4605 38.9107 37.5157 38.9569 37.5191 39.0136C37.6284 40.8135 37.5287 42.6238 37.223 44.3938C37.2135 44.4475 37.1547 44.4849 37.0905 44.4759Z" fill="#00AEFF"/>
<path d="M38.4135 44.434H38.4082C38.3425 44.4221 38.2976 44.3684 38.3079 44.3116C38.382 43.9087 38.3402 43.4833 38.3001 43.0714C38.2813 42.8774 38.2617 42.6774 38.2538 42.4804C38.2367 42.0432 38.2767 41.5999 38.3152 41.1731C38.3793 40.4597 38.4458 39.7239 38.241 39.0225C38.2247 38.9673 38.2637 38.9121 38.3282 38.9001C38.3928 38.8882 38.4581 38.924 38.4744 38.9792C38.6889 39.7135 38.6211 40.4672 38.5553 41.197C38.5172 41.6193 38.4778 42.0566 38.4946 42.4819C38.5022 42.6744 38.5214 42.8715 38.5401 43.0625C38.5816 43.4863 38.6244 43.9236 38.5458 44.3519C38.5359 44.4072 38.4772 44.443 38.4135 44.434Z" fill="#00AEFF"/>
<path d="M39.4539 44.3568C39.3898 44.3478 39.3425 44.2971 39.3475 44.2419C39.5071 42.5121 39.5571 40.7511 39.4959 39.0064C39.494 38.9497 39.5462 38.9035 39.6126 38.905C39.6792 38.905 39.7347 38.9527 39.7368 39.0094C39.798 40.76 39.7478 42.5285 39.5875 44.2657C39.5823 44.3224 39.5244 44.3627 39.4581 44.3568H39.4539Z" fill="#00AEFF"/>
<path d="M40.629 44.0951C40.5641 44.0862 40.5165 44.034 40.5225 43.9787C40.6899 42.4027 40.8629 40.773 40.5489 39.1716C40.5377 39.1149 40.5819 39.0627 40.6474 39.0552C40.7135 39.0478 40.7751 39.0881 40.7863 39.1448C41.1056 40.773 40.9311 42.4162 40.7625 44.0056C40.7563 44.0623 40.6978 44.1026 40.6316 44.0951H40.629Z" fill="#00AEFF"/>
<path d="M41.6482 44.2702C41.5881 44.2613 41.5412 44.2165 41.5415 44.1628L41.562 39.1706C41.5623 39.1139 41.6163 39.0691 41.6828 39.0721C41.7473 39.0736 41.8031 39.1228 41.8028 39.1796L41.7822 44.1717C41.7819 44.2299 41.7279 44.2732 41.6614 44.2702H41.6482Z" fill="#00AEFF"/>
<path d="M42.8598 43.9521C42.7978 43.9447 42.7507 43.8969 42.7529 43.8417C42.8166 42.2941 42.7752 40.721 42.6298 39.1689C42.6244 39.1107 42.6738 39.063 42.7401 39.06C42.8059 39.057 42.8644 39.1033 42.8699 39.16C43.016 40.721 43.0577 42.3015 42.9936 43.8581C42.9911 43.9148 42.9354 43.9581 42.869 43.9536L42.8598 43.9521Z" fill="#00AEFF"/>
<path d="M44.0318 43.5015L44.0069 43.4955C43.9437 43.4746 43.9097 43.415 43.9309 43.3612C44.0784 42.9896 44.0121 42.5867 43.9419 42.1598C43.9096 41.9628 43.8761 41.7599 43.8655 41.5599C43.857 41.4002 43.8632 41.2405 43.869 41.0853C43.8749 40.9301 43.8811 40.7689 43.8718 40.6137C43.8418 40.1018 43.6472 39.5959 43.4589 39.1063C43.4378 39.0511 43.4718 38.9944 43.5348 38.978C43.5981 38.9616 43.6662 38.9929 43.6873 39.0481C43.8808 39.5511 44.0808 40.0704 44.1125 40.6107C44.1221 40.7764 44.1158 40.9405 44.1097 41.1002C44.1039 41.2509 44.0981 41.4076 44.106 41.5584C44.1163 41.7494 44.1488 41.9464 44.1803 42.1389C44.2513 42.5702 44.3249 43.0165 44.1593 43.4358C44.1409 43.4821 44.0869 43.5075 44.0318 43.5015Z" fill="#00AEFF"/>
<path d="M31.3125 31.1339C30.11 32.1935 28.3287 32.5577 26.8127 32.0308C25.5319 31.5876 24.4894 30.522 24.046 29.246C23.966 29.0132 23.9059 28.7759 23.8658 28.5311C23.7973 28.1028 23.7952 27.6625 23.8956 27.2417C24.1492 26.2044 25.0821 25.3866 26.132 25.197C27.1843 25.009 28.3075 25.4239 29.0395 26.2029L29.9135 28.0998L31.3125 31.1339Z" fill="#FFCFCA"/>
<path d="M48.6123 81.4971C49.2063 81.1538 49.8167 80.8553 50.3763 80.5121C50.936 80.1703 51.4345 79.7569 51.7464 79.2107C51.9031 78.9406 52.0195 78.6436 52.0971 78.3317C52.1777 78.0198 52.212 77.7213 52.1777 77.4019C52.1479 77.0825 52.0867 76.7467 52.0404 76.4094C51.9911 76.0721 51.9523 75.7334 51.9165 75.3946C51.8509 74.7155 51.8135 74.0365 51.7912 73.3574C51.7658 72.6784 51.7673 71.9978 51.7822 71.3203C51.8076 69.9637 51.8822 68.613 51.9583 67.2624C52.1105 64.5611 52.3195 61.8658 52.2598 59.1645C52.2135 56.4632 51.9941 53.7634 51.5942 51.089C52.0389 53.7575 52.3031 56.4557 52.3941 59.16C52.5001 61.8688 52.3359 64.576 52.2284 67.2758C52.1747 68.6265 52.1225 69.9756 52.1195 71.3247C52.115 71.9993 52.1255 72.6694 52.1628 73.3425C52.1941 74.0141 52.2419 74.6857 52.3195 75.3513C52.3598 75.6841 52.403 76.0154 52.4568 76.3467C52.509 76.6781 52.5747 77.0079 52.6135 77.3601C52.6597 77.7138 52.6239 78.0988 52.5389 78.4406C52.4583 78.7869 52.3314 79.1271 52.1553 79.445C51.9777 79.7614 51.7479 80.0494 51.4867 80.2957C51.224 80.5419 50.9375 80.7509 50.6435 80.9374C50.057 81.3105 49.454 81.615 48.8824 81.9583L48.6123 81.4971Z" fill="#0081BC"/>
<path d="M20.1792 47.1504C20.8362 47.6279 21.3946 48.2503 21.831 48.9487C22.2726 49.6442 22.5947 50.4128 22.8387 51.1978C23.0851 51.9843 23.2373 52.7962 23.3439 53.6081C23.4495 54.4214 23.4952 55.2408 23.5124 56.0586C23.5203 56.8765 23.4858 57.6943 23.4161 58.5077C23.3394 59.3211 23.2322 60.1314 23.0763 60.9329C22.7724 62.5372 22.2786 64.1162 21.5169 65.5519C22.0734 64.0267 22.4413 62.4551 22.6642 60.8657C22.769 60.0688 22.865 59.2703 22.9109 58.4689C22.9641 57.6674 22.9939 56.866 22.9775 56.0646C22.9709 55.2632 22.9279 54.4632 22.842 53.6677C22.8045 53.2678 22.7487 52.8738 22.6844 52.4798C22.613 52.0873 22.536 51.6963 22.4383 51.3112C22.338 50.9262 22.2241 50.5441 22.0849 50.171C22.0217 49.9815 21.9389 49.8009 21.8653 49.6158C21.7791 49.4367 21.7015 49.2517 21.6045 49.0786C21.2431 48.3667 20.7596 47.7175 20.1792 47.1504Z" fill="#0081BC"/>
<path d="M30.0133 44.2431C29.9582 44.2431 29.9066 44.2088 29.8872 44.1551C29.8624 44.0849 29.8989 44.0088 29.9685 43.9835C30.1368 43.9238 30.3052 43.8656 30.4737 43.8059C30.5435 43.7805 30.6198 43.8178 30.6443 43.8879C30.6687 43.9566 30.632 44.0342 30.5623 44.0581C30.394 44.1178 30.2259 44.176 30.0579 44.2357C30.0431 44.2416 30.028 44.2431 30.0133 44.2431Z" fill="#0081BC"/>
<path d="M27.987 44.973C27.9325 44.973 27.8812 44.9387 27.8615 44.885C27.8361 44.8148 27.8718 44.7387 27.9412 44.7133C28.2783 44.5895 28.6157 44.4671 28.9536 44.3462C29.023 44.3208 29.0999 44.3567 29.1248 44.4268C29.1497 44.497 29.1138 44.5731 29.0442 44.5984C28.7069 44.7193 28.3698 44.8417 28.0329 44.9641C28.0179 44.97 28.0023 44.973 27.987 44.973ZM25.9689 45.7222C25.9149 45.7222 25.8639 45.6894 25.8437 45.6357C25.8176 45.5655 25.8525 45.4894 25.9218 45.4625C26.2577 45.3357 26.594 45.2103 26.9305 45.085C26.9997 45.0596 27.0769 45.0954 27.1026 45.1641C27.1282 45.2342 27.0929 45.3103 27.0236 45.3357C26.6875 45.461 26.3517 45.5864 26.0161 45.7133C26.0006 45.7192 25.9846 45.7222 25.9689 45.7222ZM23.9589 46.4923C23.9057 46.4923 23.8552 46.461 23.8345 46.4072C23.8073 46.3386 23.8412 46.261 23.9098 46.2341C24.1425 46.1416 24.3758 46.052 24.6086 45.9625L24.915 45.8446C24.9839 45.8192 25.0614 45.8535 25.0878 45.9222C25.1141 45.9909 25.0796 46.0685 25.0106 46.0953L24.7046 46.2132C24.4723 46.3013 24.24 46.3923 24.008 46.4834C23.9919 46.4893 23.9754 46.4923 23.9589 46.4923ZM21.9815 47.3415C21.9318 47.3415 21.8839 47.3146 21.8609 47.2654C21.8288 47.1997 21.8569 47.1191 21.9234 47.0878C22.2292 46.94 22.5519 46.7953 22.9099 46.6416C22.978 46.6132 23.0566 46.6445 23.0856 46.7132C23.1144 46.7803 23.0829 46.8594 23.0148 46.8878C22.6607 47.0385 22.3416 47.1833 22.0395 47.3281C22.0207 47.337 22.001 47.3415 21.9815 47.3415ZM20.1113 48.4041C20.0685 48.4041 20.0266 48.3832 20.0006 48.3459C19.9589 48.2847 19.9749 48.2011 20.036 48.1593C20.3235 47.9638 20.6347 47.7713 20.9608 47.5878C21.0251 47.5519 21.1068 47.5743 21.143 47.6385C21.1793 47.7027 21.1566 47.7847 21.0922 47.8206C20.7726 48.0011 20.4679 48.1892 20.1865 48.3802C20.1634 48.3966 20.1373 48.4041 20.1113 48.4041ZM18.4525 49.7712C18.4176 49.7712 18.3826 49.7577 18.3565 49.7309C18.305 49.6771 18.3062 49.5936 18.3592 49.5413C18.6291 49.2787 18.9007 49.0339 19.1663 48.8145C19.2233 48.7668 19.3075 48.7742 19.3548 48.8309C19.4018 48.8891 19.3941 48.9727 19.3372 49.0205C19.0768 49.2354 18.8107 49.4757 18.5456 49.7339C18.5197 49.7592 18.4861 49.7712 18.4525 49.7712ZM16.9926 51.3516C16.9619 51.3516 16.9311 51.3412 16.9059 51.3203C16.8496 51.2725 16.8428 51.1875 16.8907 51.1323C17.1475 50.8293 17.3812 50.5651 17.6052 50.3204C17.6551 50.2652 17.7399 50.2622 17.7943 50.3114C17.8488 50.3622 17.8525 50.4472 17.8025 50.501C17.5808 50.7427 17.3493 51.0054 17.0945 51.3054C17.068 51.3367 17.0305 51.3516 16.9926 51.3516ZM15.6203 53.0112C15.5905 53.0112 15.5605 53.0008 15.5356 52.9799C15.4784 52.9336 15.47 52.8485 15.5171 52.7918L16.1998 51.9605C16.2468 51.9023 16.3313 51.8949 16.3882 51.9411C16.4453 51.9889 16.4536 52.0725 16.4065 52.1307L15.7239 52.962C15.6975 52.9933 15.659 53.0112 15.6203 53.0112ZM14.2569 54.6768C14.2272 54.6768 14.1973 54.6663 14.1724 54.6469C14.1152 54.5991 14.1066 54.5156 14.1533 54.4589C14.3803 54.1798 14.6073 53.9022 14.8346 53.6246C14.8814 53.5679 14.9658 53.5589 15.0229 53.6052C15.0801 53.653 15.0884 53.7365 15.0417 53.7947C14.8144 54.0723 14.5874 54.3499 14.3607 54.6275C14.3342 54.6603 14.2958 54.6768 14.2569 54.6768ZM12.9001 56.3483C12.8704 56.3483 12.8408 56.3378 12.8161 56.3184C12.7586 56.2722 12.7495 56.1871 12.7959 56.1304C13.0214 55.8513 13.2472 55.5722 13.4735 55.2931C13.5202 55.2364 13.6044 55.2275 13.6617 55.2737C13.7191 55.32 13.7278 55.405 13.6812 55.4618C13.4551 55.7408 13.2295 56.0184 13.0043 56.2975C12.9777 56.3304 12.939 56.3483 12.9001 56.3483ZM11.5547 58.0287C11.5256 58.0287 11.4962 58.0183 11.4716 57.9989C11.4136 57.9526 11.4039 57.869 11.4499 57.8108C11.6729 57.5303 11.8967 57.2497 12.1212 56.9691C12.1675 56.9109 12.2515 56.902 12.3092 56.9482C12.367 56.9945 12.3763 57.0781 12.3301 57.1363C12.106 57.4168 11.8824 57.6974 11.6596 57.978C11.633 58.0108 11.5941 58.0287 11.5547 58.0287ZM10.2258 59.7226C10.1972 59.7226 10.1684 59.7122 10.1439 59.6943C10.0855 59.648 10.0748 59.5644 10.1202 59.5062C10.34 59.2227 10.5609 58.9391 10.7826 58.657C10.8282 58.5988 10.9123 58.5884 10.9704 58.6347C11.0286 58.6794 11.0387 58.7645 10.9931 58.8212C10.7718 59.1048 10.5512 59.3868 10.3316 59.6704C10.3052 59.7047 10.2658 59.7226 10.2258 59.7226ZM8.91861 61.4329C8.89071 61.4329 8.86235 61.424 8.83832 61.4061C8.77937 61.3613 8.76758 61.2777 8.81191 61.218C9.02786 60.9315 9.24486 60.6449 9.46305 60.3599C9.50782 60.3017 9.59154 60.2897 9.65064 60.3345C9.7093 60.3793 9.72049 60.4629 9.67557 60.5226C9.45797 60.8076 9.24128 61.0927 9.02577 61.3792C8.99951 61.4135 8.95936 61.4329 8.91861 61.4329ZM7.63871 63.1627C7.6114 63.1627 7.58394 63.1552 7.56021 63.1373C7.50037 63.094 7.48708 63.0104 7.53051 62.9507C7.74154 62.6597 7.95392 62.3702 8.16763 62.0822C8.21151 62.0225 8.29538 62.0105 8.35463 62.0538C8.41403 62.0971 8.42656 62.1821 8.38268 62.2403C8.16957 62.5284 7.95764 62.8179 7.74706 63.1074C7.72095 63.1447 7.68005 63.1627 7.63871 63.1627ZM6.39135 64.9178C6.36493 64.9178 6.33836 64.9103 6.31508 64.8939C6.25434 64.8521 6.23942 64.7685 6.28166 64.7073C6.48671 64.4133 6.69342 64.1193 6.90161 63.8253C6.94444 63.7656 7.02786 63.7522 7.08831 63.7939C7.14845 63.8372 7.16248 63.9208 7.11979 63.9805C6.91205 64.273 6.7058 64.5655 6.50134 64.8595C6.47522 64.8983 6.43359 64.9178 6.39135 64.9178ZM5.18219 66.6982C5.15682 66.6982 5.13115 66.6907 5.10847 66.6758C5.04683 66.6355 5.02996 66.5519 5.0707 66.4908C5.26905 66.1908 5.46918 65.8923 5.6711 65.5953C5.71259 65.5341 5.79572 65.5192 5.85676 65.5595C5.91795 65.6013 5.93392 65.6849 5.89228 65.746C5.6911 66.0415 5.49156 66.34 5.29397 66.6385C5.26815 66.6773 5.22562 66.6982 5.18219 66.6982ZM4.01735 68.5085C3.99302 68.5085 3.96855 68.5025 3.94661 68.4876C3.88393 68.4488 3.86482 68.3667 3.90392 68.304C4.09451 67.9996 4.28703 67.6951 4.48149 67.3937C4.52164 67.331 4.60432 67.3131 4.66641 67.3534C4.72864 67.3937 4.7464 67.4758 4.70655 67.5384C4.51269 67.8399 4.32077 68.1414 4.13093 68.4458C4.10556 68.4861 4.06197 68.5085 4.01735 68.5085ZM2.91058 70.3546C2.88834 70.3546 2.8658 70.3487 2.84506 70.3367C2.78058 70.3009 2.75805 70.2188 2.79432 70.1547C2.96236 69.8577 3.1407 69.5517 3.33949 69.2219C3.3774 69.1592 3.45978 69.1383 3.52306 69.1771C3.58634 69.2144 3.60679 69.2965 3.56858 69.3607C3.37128 69.689 3.19413 69.9905 3.02728 70.286C3.00266 70.3308 2.95729 70.3546 2.91058 70.3546ZM1.92602 72.2679C1.90752 72.2679 1.88856 72.2649 1.8705 72.256C1.80334 72.2261 1.77365 72.1455 1.80439 72.0784C1.94841 71.7635 2.1081 71.4366 2.27928 71.1053C2.31301 71.0397 2.3939 71.0143 2.45956 71.0486C2.52508 71.0814 2.5509 71.1635 2.51687 71.2292C2.34778 71.556 2.19003 71.8799 2.04781 72.1903C2.02527 72.2396 1.97676 72.2679 1.92602 72.2679ZM1.15519 74.2767L1.11624 74.2707C1.04535 74.2499 1.0055 74.1752 1.02714 74.1036C1.12877 73.7708 1.24816 73.4246 1.38233 73.0783C1.4089 73.0082 1.48636 72.9738 1.55531 73.0007C1.62426 73.0276 1.65858 73.1052 1.63187 73.1738C1.50009 73.5156 1.38278 73.8544 1.28309 74.1812C1.26562 74.2394 1.2125 74.2767 1.15519 74.2767ZM0.718203 76.381H0.704029C0.630602 76.3721 0.577323 76.3064 0.584934 76.2333C0.621648 75.8826 0.678952 75.5199 0.755215 75.1572C0.770437 75.0856 0.841478 75.0393 0.913711 75.0543C0.985945 75.0692 1.03236 75.1393 1.01699 75.2125C0.942663 75.5662 0.886852 75.9184 0.851034 76.2616C0.84387 76.3303 0.785809 76.381 0.718203 76.381ZM0.749399 78.5286C0.683733 78.5286 0.626273 78.4794 0.61702 78.4122C0.610453 78.3659 0.604331 78.3197 0.59851 78.2734C0.559857 77.9615 0.538223 77.6421 0.534193 77.3227C0.533149 77.2496 0.592246 77.1884 0.666121 77.1884C0.742085 77.1929 0.800884 77.2466 0.80178 77.3198C0.805809 77.6287 0.826855 77.9391 0.864166 78.2406C0.869837 78.2854 0.875802 78.3301 0.88207 78.3764C0.892219 78.4495 0.841183 78.5167 0.768055 78.5271L0.749399 78.5286ZM1.28921 80.6061C1.23518 80.6061 1.18444 80.5732 1.16414 80.5195C1.03356 80.1748 0.921774 79.827 0.831781 79.4823C0.812977 79.4106 0.855808 79.3375 0.927295 79.3196C0.998782 79.3002 1.07206 79.3435 1.09071 79.4151C1.17832 79.7494 1.28712 80.0897 1.41427 80.424C1.44054 80.4942 1.40576 80.5718 1.33666 80.5971C1.32099 80.6031 1.30503 80.6061 1.28921 80.6061ZM2.23123 82.5388C2.18556 82.5388 2.14108 82.5149 2.11601 82.4731C1.92707 82.1552 1.7526 81.8329 1.59784 81.518C1.5653 81.4508 1.59277 81.3717 1.65918 81.3389C1.72574 81.306 1.80573 81.3329 1.83812 81.4C1.98975 81.709 2.16078 82.0239 2.34599 82.3358C2.38375 82.4 2.363 82.4821 2.29943 82.5194C2.27794 82.5328 2.25436 82.5388 2.23123 82.5388ZM3.44993 84.3103C3.41008 84.3103 3.37068 84.2924 3.34427 84.258C3.11697 83.967 2.90102 83.673 2.70282 83.3865C2.66089 83.3253 2.67611 83.2417 2.73686 83.1999C2.7976 83.1581 2.88102 83.173 2.92296 83.2342C3.11846 83.5163 3.33114 83.8058 3.55545 84.0939C3.60082 84.1521 3.59052 84.2371 3.53217 84.2819C3.50769 84.3013 3.47874 84.3103 3.44993 84.3103ZM4.84863 85.946C4.81281 85.946 4.77684 85.931 4.75058 85.9027C4.49776 85.6296 4.25524 85.3594 4.03004 85.0968C3.98183 85.0401 3.9884 84.9565 4.04452 84.9072C4.10048 84.8595 4.18495 84.8654 4.23301 84.9222C4.45613 85.1818 4.69626 85.4505 4.94683 85.7206C4.99698 85.7743 4.99385 85.8594 4.93967 85.9101C4.91385 85.934 4.88132 85.946 4.84863 85.946ZM6.36105 87.4787C6.32747 87.4787 6.29419 87.4667 6.26823 87.4414C5.9981 87.1817 5.73931 86.9265 5.49873 86.6832C5.4468 86.631 5.44739 86.5459 5.49993 86.4937C5.55246 86.4414 5.63723 86.4429 5.68916 86.4952C5.9281 86.737 6.18525 86.9907 6.45388 87.2489C6.50701 87.3011 6.50865 87.3847 6.45731 87.4384C6.43105 87.4653 6.39612 87.4787 6.36105 87.4787ZM7.93765 88.9457C7.90556 88.9457 7.87332 88.9353 7.8478 88.9114C7.58409 88.6726 7.31859 88.4294 7.05279 88.1831C6.99861 88.1324 6.99548 88.0473 7.04577 87.9936C7.09607 87.9398 7.18084 87.9368 7.23487 87.9861C7.49977 88.2323 7.76467 88.4741 8.02749 88.7129C8.08226 88.7622 8.08644 88.8472 8.03674 88.9025C8.01033 88.9308 7.97406 88.9457 7.93765 88.9457ZM9.54976 90.3725C9.51917 90.3725 9.48842 90.362 9.46319 90.3412C9.18546 90.1053 8.91145 89.8666 8.64864 89.6323C8.59357 89.583 8.58864 89.4994 8.63774 89.4442C8.68699 89.389 8.77146 89.383 8.82683 89.4323C9.08801 89.6651 9.36037 89.9024 9.63632 90.1367C9.69273 90.1844 9.6996 90.2695 9.65184 90.3262C9.62527 90.3561 9.58767 90.3725 9.54976 90.3725ZM11.2213 91.7291C11.1925 91.7291 11.1637 91.7201 11.1392 91.7007C10.8537 91.4784 10.5692 91.253 10.294 91.0306C10.2367 90.9829 10.2279 90.8993 10.2743 90.8411C10.3209 90.7844 10.4052 90.7754 10.4627 90.8217C10.7364 91.0441 11.0192 91.2694 11.3034 91.4888C11.3617 91.5351 11.3723 91.6187 11.3269 91.6769C11.3005 91.7112 11.2611 91.7291 11.2213 91.7291ZM12.944 93.02C12.9168 93.02 12.8893 93.0111 12.8658 92.9932C12.5743 92.7827 12.2846 92.5708 11.9969 92.3544C11.9378 92.3111 11.9257 92.2261 11.97 92.1679C12.0142 92.1082 12.0981 92.0962 12.1573 92.141C12.4439 92.3559 12.7323 92.5678 13.0225 92.7768C13.0825 92.8201 13.0959 92.9036 13.0525 92.9633C13.0264 93.0006 12.9855 93.02 12.944 93.02ZM14.7055 94.2573C14.6794 94.2573 14.6532 94.2483 14.63 94.2334C14.3334 94.0304 14.0379 93.8259 13.7439 93.62C13.6835 93.5767 13.6687 93.4931 13.7112 93.4334C13.7536 93.3722 13.8372 93.3573 13.8976 93.4006C14.1907 93.6066 14.4853 93.8095 14.7811 94.0125C14.8422 94.0543 14.8577 94.1379 14.8159 94.1976C14.7901 94.2364 14.7482 94.2573 14.7055 94.2573ZM16.4943 95.4542C16.4691 95.4542 16.4436 95.4467 16.4209 95.4318C16.1207 95.2348 15.8214 95.0363 15.5229 94.8363C15.4614 94.796 15.445 94.7125 15.486 94.6513C15.5271 94.5901 15.6102 94.5737 15.6717 94.614C15.9694 94.8139 16.2683 95.0124 16.5679 95.2079C16.6295 95.2497 16.6468 95.3318 16.6061 95.3945C16.5804 95.4333 16.5377 95.4542 16.4943 95.4542ZM18.2998 96.6257C18.275 96.6257 18.25 96.6198 18.2276 96.6048C17.9257 96.4108 17.6241 96.2168 17.3229 96.0213C17.2609 95.981 17.2432 95.8974 17.2835 95.8362C17.3236 95.7736 17.4065 95.7557 17.4684 95.796C17.7694 95.9915 18.0707 96.1855 18.3724 96.3795C18.4346 96.4198 18.4525 96.5034 18.4125 96.5645C18.387 96.6048 18.3438 96.6257 18.2998 96.6257Z" fill="#0081BC"/>
<path d="M37.8892 25.0862C37.7634 24.3341 37.2633 23.7923 36.772 23.8744C36.2807 23.9565 35.9843 24.6326 36.1099 25.3832C36.2356 26.1354 36.7358 26.6772 37.2271 26.5951C37.7185 26.513 38.0149 25.8369 37.8892 25.0862Z" fill="#1F3C49"/>
<path d="M44.6908 24.4209C44.5684 23.6881 44.0804 23.1583 43.6012 23.2389C43.1219 23.3195 42.8329 23.9776 42.9554 24.7119C43.0781 25.4447 43.5661 25.973 44.0453 25.8939C44.5245 25.8133 44.8131 25.1537 44.6908 24.4209Z" fill="#1F3C49"/>
<path d="M35.1731 22.1807C35.0945 22.1807 35.0166 22.1463 34.9637 22.0807C34.8715 21.9658 34.8905 21.7971 35.0061 21.7046C35.7302 21.127 36.7864 20.9912 37.6335 21.3658C37.7687 21.4255 37.8298 21.5837 37.7699 21.718C37.7101 21.8538 37.552 21.915 37.4168 21.8553C36.7469 21.5583 35.9123 21.6658 35.3397 22.1225C35.2904 22.1628 35.2315 22.1807 35.1731 22.1807Z" fill="#1F3C49"/>
<path d="M42.1745 21.5555C42.0927 21.5555 42.0118 21.5181 41.9594 21.4465C41.8714 21.3286 41.8963 21.1599 42.0149 21.0734C42.7002 20.5645 43.6781 20.4705 44.448 20.8361C44.5814 20.9003 44.638 21.06 44.5744 21.1928C44.5109 21.3271 44.3512 21.3838 44.2177 21.3196C43.6214 21.0361 42.8643 21.1092 42.3337 21.5032C42.2858 21.5375 42.23 21.5555 42.1745 21.5555Z" fill="#1F3C49"/>
<path d="M40.5493 26.8924C40.7265 26.6954 41.0276 26.6103 41.3125 26.6596C41.6027 26.7073 41.8709 26.9118 42.0065 27.176C42.1492 27.4371 42.1681 27.7744 42.0434 28.0401C41.9249 28.3042 41.6844 28.5057 41.4215 28.54C41.6042 28.355 41.7061 28.146 41.744 27.9401C41.7819 27.7356 41.7438 27.5401 41.6518 27.364C41.5583 27.1879 41.4177 27.0461 41.2269 26.9625C41.0352 26.879 40.8053 26.8461 40.5493 26.8924Z" fill="#1F3C49"/>
<path d="M44.5599 29.5158L44.5631 29.5337C44.7008 30.362 44.5131 31.1709 44.0919 31.8351C43.5912 32.6231 42.7618 33.2066 41.7563 33.3737C40.6726 33.5543 39.6254 33.2126 38.8842 32.535C38.3552 32.0544 37.9809 31.4023 37.8557 30.6516L37.8525 30.6337L44.5599 29.5158Z" fill="#EA5353"/>
<path d="M44.0924 31.8351C43.5917 32.6231 42.7624 33.2066 41.7568 33.3737C40.6731 33.5543 39.6259 33.2126 38.8848 32.535C39.1419 32.3843 39.4101 32.2514 39.682 32.132C40.7213 31.6783 41.8705 31.4112 42.9961 31.5649C43.3708 31.6157 43.7354 31.7112 44.0924 31.8351Z" fill="#FF948F"/>
<path d="M43.9356 29.6203C43.8572 29.7039 43.7756 29.783 43.6911 29.8621C42.444 31.0247 39.9814 31.7365 38.5703 30.5143L43.9356 29.6203Z" fill="white"/>
<path d="M37.1997 24.6731C36.7841 24.6731 36.7833 25.3193 37.1997 25.3193C37.6155 25.3193 37.6162 24.6731 37.1997 24.6731Z" fill="white"/>
<path d="M44.0337 23.955C43.618 23.955 43.6174 24.6012 44.0337 24.6012C44.4494 24.6012 44.4501 23.955 44.0337 23.955Z" fill="white"/>
</g>
</g>
<defs>
<clipPath id="clip0_1065_49882">
<rect width="64" height="64" rx="32" fill="white"/>
</clipPath>
<clipPath id="clip1_1065_49882">
<rect width="68" height="68" fill="white" transform="translate(-2)"/>
</clipPath>
</defs>
</svg>
