<svg width="64" height="64" viewBox="0 0 64 64" fill="none" xmlns="http://www.w3.org/2000/svg">
<g clip-path="url(#clip0_1065_49879)">
<rect width="64" height="64" rx="32" fill="#EFF9FF"/>
<g clip-path="url(#clip1_1065_49879)">
<rect width="72" height="72" transform="translate(-4)" fill="#EFF9FF"/>
<path d="M57.3766 48.7884C57.3766 43.7318 53.2775 39.6327 48.2224 39.6327C47.5714 39.6327 46.9377 39.7022 46.3262 39.8302C45.5898 36.1404 46.2266 31.64 46.4083 28.9125C46.8271 22.5917 46.6233 14.3699 41.0988 9.8394C37.8973 7.21467 32.956 6.4925 29.0007 7.92101C24.4861 9.55179 21.7571 13.7141 20.4708 17.8906C19.6459 20.5674 19.3583 23.3297 18.6519 25.986C18.1526 25.7537 17.5979 25.6225 17.0117 25.6225C15.1723 25.6225 13.6348 26.8994 13.2318 28.6155C12.8336 28.5649 12.4291 28.5365 12.0166 28.5365C6.73083 28.5365 2.44529 32.8204 2.44529 38.1062C2.44529 39.2345 2.64283 40.3153 2.99996 41.3204C0.424214 42.8737 -1.2998 45.6991 -1.2998 48.9275C-1.2998 53.3947 2.00284 57.0909 6.29944 57.7119C7.26178 61.8189 10.9453 64.8797 15.3461 64.8797C15.5389 64.8797 15.7286 64.8718 15.9182 64.8592C17.4036 68.6074 21.057 71.259 25.3346 71.259C29.2583 71.259 32.6605 69.0246 34.3403 65.7599C35.9632 66.866 37.9242 67.5139 40.0369 67.5139C45.5139 67.5139 49.9717 63.1668 50.155 57.7372C54.2825 56.8491 57.3766 53.1814 57.3766 48.7884Z" fill="#602826"/>
<path d="M84.4463 128.655C83.5314 126.364 82.6164 124.074 81.6999 121.781C80.8229 119.583 80.0565 117.689 78.9014 115.617C78.4257 114.767 77.7794 113.654 77.2437 112.809C74.6711 108.081 72.1001 103.351 69.5291 98.6234C67.9015 95.6305 66.2755 92.6392 64.6494 89.6478C63.5796 87.682 62.5082 85.7115 61.6944 83.6272C60.6863 81.0452 60.0858 78.3256 59.5391 75.6076C58.4203 70.0295 57.5053 64.3787 55.6138 59.0123C54.1727 54.9258 52.1152 50.9627 48.9659 47.984C44.2979 43.5704 37.7274 41.8796 31.4223 42.3079C30.3336 42.3806 29.248 42.5212 28.175 42.7266C25.2263 43.2939 22.3756 44.3637 19.7715 45.8617C17.0756 47.4135 14.8728 49.3145 13.1267 51.9013C12.5783 52.712 12.0837 53.5574 11.6318 54.4249C9.91568 57.7181 8.79848 61.2846 7.40157 64.7247C4.92222 70.837 1.36199 76.6206 0.206861 83.1152C-0.992519 89.8596 1.9372 106.202 1.91824 115.764C1.72704 119.398 0.387014 124.027 0.0662313 126.035C-0.181862 127.617 -0.447346 129.259 -0.275104 130.861C-0.0933793 132.562 0.358573 134.205 0.78049 135.855C0.846859 136.112 0.914798 136.378 1.07124 136.594C1.35252 136.983 2.00357 137.089 2.30697 136.667C2.9675 135.752 2.60879 134.39 2.3844 133.38C2.17582 132.438 1.91192 131.5 1.85977 130.534C1.8092 129.584 2.05413 128.725 2.43022 127.859C2.70044 127.236 2.94538 126.604 3.22982 125.985C3.30883 125.814 3.39258 125.639 3.48739 125.473C3.52215 125.408 3.56007 125.348 3.59958 125.286C3.79236 124.986 4.03255 124.725 4.35018 124.575C4.61881 124.449 5.06285 124.362 5.34097 124.507C5.64437 124.665 5.63173 125.06 5.65701 125.353C5.6902 125.7 5.64595 126.05 5.59381 126.392C5.52112 126.852 5.41525 127.328 5.41051 127.797C5.40893 127.925 5.41524 128.053 5.43262 128.18C5.44368 128.279 5.46423 128.38 5.48952 128.48C5.77396 129.537 7.20719 130.477 7.75237 129.063C7.86772 128.76 7.90723 128.433 7.95306 128.112C8.16955 126.576 8.7084 125.081 8.64519 123.524C8.6041 122.532 8.45556 121.548 8.30544 120.566C8.05735 118.932 7.3273 116.549 7.15664 115.764C8.17588 106.012 8.68785 97.7306 9.24883 88.0155C9.30888 86.9883 9.37051 85.9486 9.66285 84.9609C10.0389 83.6983 10.7753 82.578 11.4959 81.4766C15.9331 74.6896 20.1507 67.7603 24.1423 60.7015C25.5392 58.2332 26.9472 55.5958 26.8824 52.7594C30.6085 55.4678 35.7474 56.1015 40.0219 54.3807C45.3409 66.3049 47.8249 79.4491 54.2027 90.8409C59.3178 99.9745 66.8997 107.169 73.0799 115.617C73.3042 115.924 73.2047 116.842 73.2253 117.232C73.2932 118.496 73.1873 119.757 73.3422 121.018C73.5002 122.292 73.7941 123.548 74.2224 124.757C74.4167 125.305 74.9445 125.808 75.5039 125.316C75.5545 125.286 75.6019 125.248 75.6477 125.198C76.2008 124.61 76.2039 123.804 76.1692 123.047C76.1297 122.186 76.1739 121.367 76.55 120.576C76.6527 120.362 76.825 120.162 77.0573 120.116C77.1979 120.087 77.3449 120.122 77.4823 120.168C77.9438 120.324 78.2914 120.61 78.5727 120.964C78.7212 121.149 78.8524 121.353 78.9693 121.567C79.0831 121.769 79.1842 121.979 79.2822 122.189C79.4054 122.451 79.5208 122.714 79.6409 122.963C79.6662 123.016 79.6899 123.066 79.7152 123.114C79.7373 123.159 79.761 123.205 79.7847 123.251C79.9317 123.543 80.0786 123.836 80.2272 124.13C80.4958 124.662 80.7644 125.195 81.0331 125.729C81.2669 126.193 81.5024 126.66 81.7363 127.124C82.1471 127.936 82.5864 128.848 83.3212 129.423C83.8711 129.855 84.7481 129.412 84.4463 128.655Z" fill="#FFCFCA"/>
<path d="M39.8019 45.2707C39.0576 45.7274 38.1584 45.8301 37.2925 45.9201C36.248 46.0323 35.2019 46.143 34.1526 46.1003C32.1078 46.0181 30.2526 45.2896 28.3137 44.6402C28.3469 43.4613 28.3769 42.2809 28.4117 41.1021C28.4528 39.6277 28.4923 38.1502 28.3848 36.6775C28.3516 36.2271 28.3074 35.7768 28.2489 35.3296C28.113 34.2123 27.9124 33.1046 27.7132 31.9937C27.5489 31.0835 27.3846 30.1702 27.2202 29.26C27.7448 29.7688 28.2474 30.0343 28.8905 30.3898C31.6037 31.8863 34.3738 33.28 37.1597 34.6374C38.0004 35.0451 38.8474 35.4544 39.7545 35.6741L39.7797 40.8429L39.8019 45.2707Z" fill="#FFCFCA"/>
<path d="M39.7797 40.8429C36.6446 40.037 33.6264 38.787 30.8863 37.0788C30.014 36.5352 29.1102 35.9553 28.2489 35.3295C28.113 34.2123 27.9124 33.1046 27.7132 31.9937C27.5489 31.0835 27.3846 30.1701 27.2202 29.2599C27.7448 29.7688 28.2474 30.0343 28.8905 30.3898C31.6037 31.8863 34.3738 33.28 37.1597 34.6374C38.0004 35.0451 38.8474 35.4544 39.7545 35.674L39.7797 40.8429Z" fill="#F9BFBB"/>
<path d="M45.1395 21.1094C44.9799 20.3667 44.7793 19.6335 44.5438 18.9193C43.8011 16.6627 42.36 14.5626 40.3957 13.142C36.6254 10.4177 31.2195 10.8839 28.0021 14.2102C27.2389 14.9987 26.6131 15.909 26.1565 16.895C25.0329 19.3143 24.8939 21.9501 25.3837 24.5085C25.812 26.7713 26.7348 28.9741 27.8947 30.9146C28.6089 32.1077 29.4449 33.2375 30.4467 34.2189C31.0203 34.7814 31.6556 35.2934 32.3367 35.7327C33.7067 36.6145 35.2632 37.2023 36.894 37.3082C38.3667 37.403 39.8822 37.0632 41.1527 36.3253C42.5843 35.4941 43.4772 34.1714 44.1329 32.7098C45.7463 29.11 45.9676 24.9588 45.1395 21.1094Z" fill="#FFCFCA"/>
<path d="M28.5971 30.1574C27.1733 30.8148 25.4003 30.6568 24.1267 29.7387C23.0505 28.9644 22.3711 27.6734 22.3126 26.3523C22.3031 26.1121 22.3126 25.8719 22.3442 25.6317C22.3995 25.2114 22.5196 24.7974 22.7329 24.4308C23.2607 23.5301 24.3637 23.0228 25.4019 23.1397C26.4417 23.2583 27.3772 23.963 27.8465 24.8969L28.1357 26.9196L28.5971 30.1574Z" fill="#FFCFCA"/>
<path d="M40.9588 11.8332C39.7358 15.3033 37.1837 18.2378 34.0581 20.183C30.934 22.1283 27.2663 23.1175 23.5907 23.3087C23.33 23.3229 24.0885 18.4701 24.2276 18.0039C24.9734 15.5277 26.5947 13.3265 28.7343 11.8727C29.0551 11.6546 29.387 11.4539 29.7283 11.2722C31.8442 10.1455 34.3267 9.73941 36.6954 10.0839C37.6704 10.2245 38.6233 10.4758 39.494 10.934C39.6631 11.0225 41.0331 11.623 40.9588 11.8332Z" fill="#602826"/>
<path d="M46.3477 82.9695C47.0366 77.4815 47.5581 72.0044 48.669 66.5796C49.6551 61.7663 50.7833 56.6716 48.9519 51.9247C48.1807 51.1093 47.25 50.4377 46.2892 49.8451C38.0721 44.7774 27.7565 45.2957 18.6482 48.4941C18.1615 56.0301 19.1412 63.6009 19.7733 71.1464C19.9629 72.2288 20.0988 73.3208 20.2252 74.4127C21.0216 81.2408 21.4499 88.1005 21.9113 94.957C22.1278 94.927 22.349 94.908 22.575 94.9001C24.1157 94.848 25.6485 95.1024 27.1687 95.3584C31.0813 96.0126 34.9923 96.6668 38.9033 97.321C40.4187 97.5754 41.942 97.8314 43.4338 98.1933C44.3092 94.2585 45.2415 90.3349 46.1707 86.4128C46.1454 85.2766 46.2007 84.1326 46.3477 82.9695Z" fill="#FFCFCA"/>
<path d="M59.1976 67.7696C57.946 69.3403 56.4544 70.3816 54.743 71.0864C54.2642 71.2824 53.8312 71.4467 53.4219 71.5858C51.7153 72.1657 50.4527 72.3063 48.34 72.5418L46.6444 89.5227C44.4779 90.1722 42.2166 90.4456 39.9617 90.5246C36.4647 90.6447 32.9266 90.4314 29.4422 90.1453C26.2296 89.883 22.9602 89.3631 20.0589 87.8841C20.1348 83.7739 20.0479 79.6622 19.8077 75.5568C19.7097 73.8423 19.5849 72.1294 19.4332 70.418C19.43 70.3974 19.4284 70.3769 19.4268 70.3564C19.0049 70.9616 18.5735 71.423 18.2227 72.0709C14.062 69.3166 10.3675 66.0424 7.09961 62.291C7.17072 62.1219 7.24025 61.9512 7.30977 61.7774C7.71273 60.7787 8.20261 59.8495 8.74462 58.9172C9.90133 56.9182 11.0802 54.9193 12.3301 52.9756C12.5624 52.6122 12.801 52.255 13.0475 51.9011C14.6989 49.5197 16.671 47.3501 19.0555 45.6877C20.3307 44.798 21.6976 44.0616 23.1451 43.4944C23.8941 43.2004 28.069 42.0548 28.1117 42.1259C28.6205 42.9666 29.1356 43.2968 30.0727 43.586C32.3277 44.2829 34.7438 44.3445 37.0841 44.0364C38.3846 43.8641 40.1908 42.709 40.1908 42.709C40.1908 42.709 44.2662 43.872 46.3489 45.1299C47.2559 45.675 48.1061 46.3134 48.9183 46.9914C51.3898 49.0519 53.2639 51.6024 54.6181 54.5132C56.0087 57.4998 56.8937 60.6807 57.9271 63.8001C58.3632 65.118 58.793 66.4406 59.1976 67.7696Z" fill="#00AEFF"/>
<path d="M49.255 64.4164C49.2977 63.6532 49.3309 62.8852 49.2755 62.122C49.2123 61.2181 49.0243 60.3316 48.8126 59.4593C48.3401 57.5172 47.7475 55.6131 47.0396 53.769C47.196 54.0708 47.3698 54.3663 47.5436 54.657C48.7904 56.7729 49.974 59.02 50.3517 61.531C50.6409 63.443 50.4496 65.4388 50.9 67.3098C51.2951 68.9406 52.1721 70.4007 53.313 71.4847C53.3493 71.5179 53.3857 71.5527 53.422 71.5858C51.7154 72.1658 50.4528 72.3064 48.3401 72.5419C48.7746 69.6754 49.0907 67.3177 49.255 64.4164Z" fill="#0081BC"/>
<path d="M34.6521 20.5356C34.8544 20.5151 35.0598 20.5308 35.2621 20.5466C35.6224 20.5767 35.9827 20.6051 36.3414 20.6351C36.4615 20.6446 36.61 20.6383 36.6622 20.5308C36.6874 20.4771 36.6795 20.4123 36.6574 20.3586C36.5689 20.1516 36.3145 20.0805 36.0917 20.052C35.5371 19.9825 34.9524 20.0204 34.4341 20.2401C34.3329 20.2828 33.753 20.5467 33.7941 20.6826C33.8304 20.8027 34.5352 20.5467 34.6521 20.5356Z" fill="#211A17"/>
<path d="M42.4984 20.2906C42.2945 20.2859 42.0922 20.3159 41.89 20.3475C41.5344 20.4028 41.1773 20.4597 40.8202 20.515C40.7017 20.5324 40.5531 20.5371 40.4931 20.4344C40.463 20.3823 40.4662 20.3175 40.4852 20.2622C40.5579 20.0488 40.8075 19.9588 41.0272 19.9145C41.5755 19.8039 42.1618 19.8007 42.6943 19.9793C42.7986 20.0157 43.3959 20.2369 43.3659 20.3744C43.3374 20.4976 42.6153 20.2938 42.4984 20.2906Z" fill="#211A17"/>
<path d="M41.8594 29.7513C41.4549 30.8021 40.7138 31.5243 39.8131 31.6001C38.9471 31.6712 38.1254 31.1229 37.5565 30.2159C37.1662 29.5933 36.8944 28.8 36.8091 27.9214L36.9782 27.9072L41.989 27.4932L42.1755 27.4774C42.2324 28.3101 42.1107 29.0955 41.8594 29.7513Z" fill="#CE7872"/>
<path d="M41.9894 27.4932C41.4316 28.337 40.5814 28.9027 39.589 28.9865C38.5982 29.0687 37.6659 28.6468 36.9785 27.9072L41.9894 27.4932Z" fill="white"/>
<path d="M41.8591 29.7513C41.4545 30.8021 40.7134 31.5243 39.8127 31.6001C38.9467 31.6712 38.125 31.1229 37.5562 30.2159C37.7995 30.0547 38.0555 29.9125 38.3226 29.7939C39.0953 29.451 39.9628 29.3009 40.7956 29.4337C41.1669 29.4921 41.5193 29.6043 41.8591 29.7513Z" fill="#EA8C8B"/>
<path d="M36.637 23.7797C36.6575 24.4624 36.283 25.0281 35.801 25.0423C35.3191 25.0566 34.913 24.5145 34.8924 23.8319C34.8719 23.1492 35.2448 22.5835 35.7268 22.5693C36.2087 22.5551 36.6164 23.0971 36.637 23.7797Z" fill="#211A17"/>
<path d="M36.0046 23.3832C35.7249 23.3911 35.7376 23.8288 36.0189 23.8194C36.2986 23.8115 36.2859 23.3753 36.0046 23.3832Z" fill="white"/>
<path d="M41.2923 23.6389C41.3129 24.3215 41.7206 24.8636 42.2025 24.8493C42.6845 24.8351 43.0574 24.2694 43.0369 23.5867C43.0163 22.9041 42.6102 22.3621 42.1282 22.3763C41.6463 22.3905 41.2718 22.9562 41.2923 23.6389Z" fill="#211A17"/>
<path d="M42.4235 23.0609C42.1422 23.0688 42.1549 23.5049 42.4361 23.497C42.7174 23.4891 42.7048 23.053 42.4235 23.0609Z" fill="white"/>
<path d="M39.8007 25.175C39.5163 24.9538 39.0738 24.9601 38.8052 25.2018L39.5842 26.5466C39.8007 26.5324 39.9777 26.3522 40.0583 26.15C40.191 25.815 40.0851 25.3962 39.8007 25.175Z" fill="#CE7872"/>
<path d="M35.3819 27.2673C35.4546 28.3087 34.4733 29.2268 33.1902 29.3153C31.9086 29.4038 30.8088 28.631 30.7377 27.5897C30.665 26.5467 31.6463 25.6302 32.9294 25.5401C34.211 25.4516 35.3108 26.2244 35.3819 27.2673Z" fill="#F9BFBB"/>
<path d="M45.2774 26.1739C45.3184 26.7586 44.7685 27.2737 44.048 27.3227C43.3274 27.3733 42.7111 26.9387 42.6716 26.354C42.6305 25.7694 43.1804 25.2542 43.901 25.2052C44.6216 25.1547 45.2378 25.5892 45.2774 26.1739Z" fill="#F9BFBB"/>
</g>
</g>
<defs>
<clipPath id="clip0_1065_49879">
<rect width="64" height="64" rx="32" fill="white"/>
</clipPath>
<clipPath id="clip1_1065_49879">
<rect width="72" height="72" fill="white" transform="translate(-4)"/>
</clipPath>
</defs>
</svg>
