<svg width="64" height="64" viewBox="0 0 64 64" fill="none" xmlns="http://www.w3.org/2000/svg">
<g clip-path="url(#clip0_1065_49876)">
<rect width="64" height="64" rx="32" fill="#EFF9FF"/>
<g clip-path="url(#clip1_1065_49876)">
<rect width="75" height="75" transform="translate(-5)" fill="#EFF9FF"/>
<path d="M58.7622 49.9012L58.7556 49.8847C57.6001 46.8329 55.5458 44.0198 53.2594 41.7203C50.7541 39.2002 48.6587 37.0126 47.8406 33.4094C47.2332 30.7296 47.2497 27.9544 47.2052 25.2087C47.1345 20.7677 46.7197 15.9909 44.1979 12.2033C41.9873 8.87826 38.4054 6.6248 34.3693 6.5639C29.1842 6.48653 24.256 9.61404 21.6388 14.0222C18.8734 18.6772 18.5903 24.1586 16.587 29.1033C15.4693 31.8637 13.5978 34.3279 12.0241 36.8562C9.71472 40.5598 6.9395 44.2091 5.87121 48.4971C3.42353 58.3833 8.77978 69.0036 18.2347 72.7616C19.1252 73.1155 20.0421 73.4035 20.9737 73.6241C21.4001 73.7245 21.8297 73.8117 22.2626 73.8842C28.7925 74.9837 35.4343 74.1393 41.7782 72.3879C45.518 71.3558 49.2151 69.9732 52.3738 67.7164C57.9671 63.7247 61.3103 56.6516 58.7622 49.9012Z" fill="#603813"/>
<path d="M103.071 77.8894C102.009 77.6524 100.939 77.4499 99.869 77.2507C98.6378 77.0219 97.4032 76.8211 96.1786 76.561C96.0946 76.5429 95.8921 76.4787 95.8987 76.3651C95.9004 76.3207 95.9399 76.2861 95.9827 76.273C96.1045 76.2367 96.2625 76.2944 96.3794 76.3256C97.2386 76.5577 98.083 76.7075 98.9604 76.8458C99.7242 76.9676 100.483 77.1059 101.24 77.2589C101.773 77.3676 102.327 77.5486 102.866 77.5914C103.247 77.6211 103.657 77.519 103.792 77.1157C104.187 75.9339 101.816 75.6244 101.117 75.4746C98.9834 75.017 96.8682 74.4672 94.73 74.0376C94.5391 73.9998 94.3416 73.9866 94.1687 73.8878C94.1358 73.8681 94.0996 73.8417 94.0897 73.8039C94.0766 73.7512 94.1161 73.7018 94.1556 73.664C94.4453 73.3907 94.8617 73.2706 95.2206 73.1142C95.7193 72.8953 96.2757 72.65 96.6872 72.2813C96.9901 72.0047 97.2074 71.5406 96.9637 71.1603C96.7613 70.8426 96.3679 70.6714 96.0008 70.655C95.535 70.6319 95.0839 70.8064 94.6461 70.9727C93.67 71.3447 92.6856 71.6936 91.6914 72.0179C90.7746 72.3175 89.7919 72.3389 88.8816 72.6632C88.2792 72.8788 87.7014 73.1553 87.1483 73.4812C86.9162 73.3973 72.9264 66.6123 66.6007 65.3563L55.656 50.4118C55.1803 50.9468 54.6931 51.4719 54.2075 51.9986C52.8742 53.4406 51.5804 54.9187 50.2405 56.3541C49.8191 56.8051 49.3928 57.2512 48.9648 57.6956C48.8002 57.9178 48.6373 58.1384 48.4727 58.3606C52.3722 63.1819 58.9185 71.2739 60.8888 73.6722C61.0139 73.9849 61.2016 74.2236 61.465 74.3619C68.2286 77.8976 85.201 78.3322 85.4595 78.4523C85.6438 78.5396 85.7821 78.8029 85.9187 78.9577C86.0866 79.1503 86.266 79.333 86.452 79.5091C86.8257 79.8614 87.2257 80.184 87.6487 80.477C88.4503 81.03 89.3293 81.4646 90.2561 81.7675C90.819 81.9518 91.405 82.0094 91.9893 82.0819C93.2272 82.235 94.4584 82.4276 95.6963 82.5691C96.9325 82.7107 98.1752 82.6942 99.4147 82.6465C99.8674 82.6284 100.465 82.6086 100.725 82.1658C100.891 81.8794 100.822 81.5387 100.521 81.3823C100.223 81.2259 99.841 81.2539 99.5135 81.2292C99.1415 81.1996 98.7695 81.1716 98.3958 81.1453C97.7621 81.0992 97.1267 81.058 96.493 81.0185C96.1901 80.9988 95.8428 81.0432 95.558 80.9247C95.3868 80.8556 95.5712 80.6975 95.6699 80.6729C95.8708 80.6235 96.1127 80.6943 96.3152 80.7173C96.5654 80.7453 96.8172 80.7716 97.0674 80.7963C97.5695 80.844 98.0732 80.8868 98.5769 80.9231C99.5579 80.9971 100.541 81.0498 101.523 81.0975C101.79 81.1107 102.058 81.1222 102.32 81.0679C102.801 80.9691 103.403 80.4161 103.008 79.8976C102.807 79.6342 102.43 79.6029 102.099 79.5914C101.002 79.5716 99.9069 79.4943 98.8155 79.3774C98.2691 79.3198 97.7242 79.2507 97.1794 79.175C96.9078 79.1371 96.6378 79.0976 96.3662 79.0564C96.2609 79.04 95.8346 79.0416 95.8016 78.9116C95.7555 78.7289 96.1111 78.7569 96.2 78.7667C96.9588 78.8606 97.7193 78.9527 98.4781 79.0449C99.7439 79.1996 101.01 79.3527 102.276 79.5075C102.883 79.5815 104.111 79.8926 104.379 79.0959C104.657 78.268 103.668 78.0227 103.071 77.8894Z" fill="#FFCFCA"/>
<path d="M62.0642 57.6408C59.1869 60.9642 56.7836 63.3394 53.8454 66.6068C53.4981 66.2266 53.1508 65.8348 52.8183 65.4513C51.6035 64.0505 50.5978 62.7732 50.5599 62.7238L50.5582 62.7222C50.5582 62.7222 49.6611 83.3439 49.5114 84.0912C49.2463 85.4179 52.0529 95.7469 51.4553 96.3444C43.8259 103.972 21.4182 101.874 17.2339 93.6548C16.75 92.7034 24.2412 81.9991 24.2412 81.9991C24.2412 81.9991 21.1614 72.1359 19.6339 66.411C19.0149 64.095 18.5804 62.4555 18.5787 62.4226C18.4158 62.9147 18.131 64.2151 17.6833 65.7097C16.1887 65.262 6.31729 63.1995 5.28027 62.7222C8.76661 51.6689 13.2143 46.0937 15.2521 44.4625C16.6924 43.3103 26.2214 39.7219 36.8401 40.5202C42.8152 40.9679 49.9262 43.6576 51.1344 44.7522C54.1615 47.4896 58.9169 53.5421 62.0642 57.6408Z" fill="#00AEFF"/>
<path d="M39.4525 43.6399C38.8237 45.6547 36.7036 46.1271 34.8304 46.1074C32.7646 46.0843 30.0322 45.607 29.2964 43.3453C28.7894 41.7848 29.1548 39.9939 29.1614 38.3857C29.168 37.3174 29.1334 36.2475 29.0462 35.1809C28.9935 34.5274 28.9227 33.8739 28.8289 33.2237C28.7515 32.7003 28.666 32.1752 28.5688 31.6534C28.503 31.3028 28.4322 30.9521 28.3565 30.6048C28.3038 30.3612 28.0108 29.7044 28.2939 29.5366C28.5557 29.3802 29.0923 29.8427 29.3096 29.9744C32.5177 31.897 35.8691 33.5858 39.3241 35.0179C39.4608 35.0739 39.6023 35.1364 39.683 35.2599C39.7603 35.3751 39.762 35.5232 39.762 35.6648C39.7637 36.7858 39.7636 37.91 39.7653 39.0326C39.7669 39.4688 39.7784 39.9067 39.785 40.3429C39.8064 41.454 39.79 42.5618 39.4525 43.6399Z" fill="#FFCFCA"/>
<path d="M39.785 40.3427C36.7843 39.5164 33.9004 38.2851 31.2667 36.6391C30.5359 36.1815 29.7803 35.6975 29.0462 35.1806C28.9935 34.5272 28.9227 33.8737 28.8289 33.2235C28.7515 32.7001 28.666 32.175 28.5688 31.6532C28.503 31.3026 28.4322 30.9519 28.3565 30.6046C28.3038 30.361 28.0108 29.7042 28.2939 29.5363C28.5557 29.38 29.0923 29.8425 29.3096 29.9742C32.5177 31.8968 35.8691 33.5856 39.3241 35.0177C39.4608 35.0737 39.6023 35.1362 39.683 35.2597C39.7603 35.3749 39.762 35.523 39.762 35.6646C39.7637 36.7856 39.7636 37.9098 39.7653 39.0324C39.7669 39.4686 39.7784 39.9065 39.785 40.3427Z" fill="#F9BFBB"/>
<path d="M44.7709 31.454C44.129 33.0243 43.2368 34.4514 41.7767 35.3699C40.4796 36.1847 38.9209 36.5847 37.3933 36.5172C35.7028 36.4432 34.0781 35.8555 32.6411 34.9486C31.9251 34.4975 31.2552 33.9692 30.6478 33.3848C29.5861 32.3643 28.6939 31.1824 27.9269 29.9314C26.6792 27.8952 25.6718 25.5743 25.173 23.1776C25.1138 22.9011 25.0627 22.6229 25.0183 22.3447C24.6298 19.8954 24.7944 17.3934 25.787 15.0593C26.2331 13.9992 26.8602 13.0165 27.6306 12.1606C30.8766 8.54586 36.46 7.92035 40.427 10.7285C42.4944 12.1935 44.0368 14.3943 44.8598 16.7745C45.1215 17.53 45.3454 18.3053 45.5297 19.0921C45.561 19.2271 45.5923 19.3654 45.6203 19.502C46.4696 23.4607 46.3017 27.7174 44.7709 31.454Z" fill="#FFCFCA"/>
<path d="M36.5569 24.1915C36.3446 24.2013 36.0516 23.8639 35.9693 23.3602C35.9265 23.0952 35.9528 22.8318 36.0417 22.6343C36.0713 22.5652 36.1569 22.4055 36.287 22.3841L36.3067 22.3825C36.5191 22.3709 36.8121 22.7084 36.8944 23.2121C36.9372 23.4771 36.9108 23.7421 36.8236 23.938C36.7923 24.0071 36.7084 24.1668 36.5767 24.1882L36.5569 24.1915Z" fill="#1F3C49"/>
<path d="M42.9361 23.5726C42.755 23.5808 42.4538 23.2813 42.3715 22.7693C42.3303 22.5142 42.355 22.2574 42.4406 22.0665C42.5015 21.9282 42.5871 21.841 42.6727 21.8278L42.6908 21.8262C42.8719 21.8163 43.1731 22.1175 43.2554 22.6278C43.2966 22.8846 43.2719 23.1414 43.1863 23.3323C43.1254 23.4689 43.0398 23.5562 42.9542 23.571L42.9361 23.5726Z" fill="#1F3C49"/>
<path d="M39.7344 24.7298C39.9023 24.5471 40.1838 24.4681 40.4488 24.5174C40.7204 24.5619 40.9689 24.7561 41.0957 25.003C41.2274 25.2466 41.2422 25.5627 41.1253 25.8112C41.0117 26.0565 40.7862 26.2425 40.5409 26.2754C40.7121 26.1026 40.8092 25.9084 40.8455 25.7158C40.8817 25.5248 40.8471 25.3421 40.7632 25.1759C40.6759 25.0129 40.5459 24.8796 40.3681 24.7989C40.1887 24.7199 39.9747 24.687 39.7344 24.7298Z" fill="#1F3C49"/>
<path d="M36.5574 20.5044C36.5376 20.5077 36.5179 20.5061 36.4981 20.4995C36.2611 20.4271 36.001 20.404 35.7459 20.432C35.7113 20.4369 35.6768 20.4419 35.6422 20.4468C35.4117 20.4863 35.1879 20.567 34.9936 20.6806C34.9772 20.6904 34.9607 20.697 34.9426 20.6987C34.9179 20.702 34.9015 20.702 34.8866 20.697C34.8471 20.6888 34.8109 20.6641 34.7895 20.6279C34.7484 20.5587 34.7731 20.4666 34.8422 20.4254C35.0661 20.2937 35.3245 20.2015 35.5912 20.1571C35.6307 20.1505 35.6718 20.1439 35.7113 20.1406C36.006 20.1077 36.3088 20.1341 36.5837 20.2164C36.6627 20.2394 36.7072 20.3217 36.6825 20.4007C36.666 20.4551 36.6216 20.4946 36.5656 20.5044H36.5574Z" fill="#1F3C49"/>
<path d="M41.5846 19.6138L41.5566 19.6039C41.5237 19.5891 41.499 19.5611 41.4842 19.5299C41.4529 19.4541 41.4875 19.3669 41.5615 19.334C41.9302 19.1759 42.3566 19.1332 42.7599 19.2122C42.7961 19.2188 42.8323 19.227 42.8685 19.2369C42.9673 19.2615 43.0644 19.2945 43.1549 19.334C43.229 19.3669 43.2652 19.4541 43.2323 19.5282C43.2043 19.5941 43.1384 19.6286 43.0693 19.6154C43.0529 19.6122 43.0463 19.6089 43.0381 19.6056C42.9607 19.5726 42.8784 19.5447 42.7944 19.5233C42.7648 19.515 42.7335 19.5085 42.7039 19.5035C42.3582 19.4344 41.9944 19.4706 41.6784 19.6072C41.6521 19.6187 41.6208 19.622 41.5912 19.6154L41.5846 19.6138Z" fill="#1F3C49"/>
<path d="M36.4335 22.7117C36.124 22.6475 36.0236 23.1314 36.3347 23.1956C36.6458 23.2598 36.7462 22.7758 36.4335 22.7117Z" fill="white"/>
<path d="M42.9126 22.088C42.6014 22.0238 42.501 22.5061 42.8121 22.5719C43.1233 22.6361 43.2237 22.1522 42.9126 22.088Z" fill="white"/>
<path d="M43.6044 27.1792C43.6916 28.0417 43.5369 28.8614 43.2011 29.5594C42.6645 30.6803 41.6621 31.4787 40.4506 31.6005C39.2078 31.7272 38.0424 31.1149 37.2951 30.0828C36.8539 29.4787 36.5576 28.7297 36.4737 27.9018C36.4704 27.8722 36.472 27.8425 36.4688 27.8112L43.5912 27.0886C43.5945 27.1199 43.6011 27.1495 43.6044 27.1792Z" fill="#D55454"/>
<path d="M43.3018 27.1184C42.5891 28.0451 41.4731 28.697 40.1694 28.8287C38.8674 28.9603 37.6427 28.5455 36.7588 27.7818L43.3018 27.1184Z" fill="white"/>
<path d="M43.2009 29.5594C42.6643 30.6803 41.6619 31.4787 40.4504 31.6005C39.2076 31.7272 38.0422 31.1149 37.2949 30.0828C38.4834 29.691 39.7294 29.4705 40.9804 29.4343C41.7228 29.4129 42.4668 29.4557 43.2009 29.5594Z" fill="#F37C7C"/>
<path d="M36.1585 26.1504C36.2013 26.9603 35.3437 27.6648 34.2441 27.724C33.1429 27.7817 32.2162 27.1726 32.1734 26.3628C32.1306 25.5512 32.9882 24.8467 34.0878 24.7891C35.189 24.7299 36.1157 25.3389 36.1585 26.1504Z" fill="#F9BFBB"/>
<path d="M45.4395 24.8319C45.4691 25.38 44.8897 25.8557 44.1457 25.8952C43.4033 25.9347 42.7778 25.5232 42.7482 24.9751C42.7185 24.4269 43.2979 23.9512 44.0403 23.9117C44.7843 23.8722 45.4098 24.2837 45.4395 24.8319Z" fill="#F9BFBB"/>
<path d="M45.7536 19.464C43.7997 18.8945 41.8261 17.627 40.231 15.7538C40.0204 15.5086 39.8245 15.2567 39.6385 15.0032C38.4253 17.5612 35.948 19.915 32.651 21.3109C29.991 22.4368 27.2535 22.743 24.8882 22.343C24.4948 19.8624 24.6627 17.3291 25.6668 14.9654C26.1194 13.8905 26.7532 12.8963 27.5334 12.0288C30.8206 8.36798 36.4747 7.7359 40.4927 10.5786C42.5865 12.0617 44.1486 14.2921 44.9832 16.7019C45.2482 17.4657 45.4753 18.2525 45.6614 19.0476C45.6926 19.1858 45.7239 19.3241 45.7536 19.464Z" fill="#603813"/>
<path d="M29.6427 28.9438C28.311 29.8738 26.4773 30.0368 25.0123 29.3339C23.7729 28.7413 22.8462 27.5512 22.5449 26.2147C22.4906 25.9727 22.4577 25.7274 22.4462 25.4756C22.4248 25.0377 22.4741 24.5933 22.6223 24.1818C22.9959 23.1678 24.028 22.4501 25.1062 22.3794C26.186 22.3102 27.2691 22.8567 27.9176 23.7225L28.581 25.7307L29.6427 28.9438Z" fill="#FFCFCA"/>
<path d="M39.7533 40.5202C39.5904 41.9292 39.3813 43.4206 38.2653 44.4296C37.2859 45.3152 35.9164 45.6954 34.6111 45.6855C33.2366 45.674 31.8687 45.2312 30.7593 44.4312C29.5033 43.5275 29.1231 42.0082 29.0803 40.535C29.0622 39.8453 27.9742 39.842 27.9939 40.535C28.0417 42.2403 28.5009 44.0345 29.9033 45.1292C31.2334 46.1678 32.9156 46.7423 34.6111 46.7587C36.2028 46.7736 37.8505 46.2666 39.034 45.1884C40.3706 43.972 40.6455 42.2173 40.8414 40.5202C40.9187 39.8338 39.8307 39.8404 39.7533 40.5202Z" fill="#0081BC"/>
<path d="M15.7591 111.985C15.82 112.278 15.8892 112.573 15.8842 112.871C15.8562 114.262 14.3254 113.901 13.746 113.075C13.6934 112.998 13.6456 112.919 13.6028 112.835C13.5863 112.805 13.5715 112.774 13.5584 112.741C13.486 112.586 13.4316 112.423 13.3872 112.257C13.2966 111.923 13.2473 111.574 13.1814 111.241C13.1205 110.929 13.0481 110.614 12.9131 110.324C12.8851 110.262 12.8555 110.196 12.8242 110.129C12.7765 110.028 12.7238 109.926 12.6514 109.845C12.6267 109.819 12.602 109.794 12.574 109.775C12.5444 109.753 12.5148 109.735 12.4819 109.722C12.4654 109.714 12.4489 109.709 12.4308 109.704C12.4127 109.697 12.3946 109.694 12.3749 109.692C12.286 109.681 12.1905 109.694 12.0967 109.722C12.0621 109.732 12.0259 109.743 11.993 109.758C11.9403 109.781 11.8876 109.808 11.8366 109.837C11.8037 109.855 11.7724 109.875 11.7411 109.896C11.6638 109.949 11.5946 110.007 11.5403 110.063C11.3971 110.206 11.2967 110.377 11.221 110.563C11.1765 110.675 11.142 110.792 11.1156 110.91C11.0597 111.146 11.035 111.393 11.0152 111.631C10.9626 112.255 10.9494 112.876 10.9099 113.5C10.9066 113.575 10.9033 113.651 10.9 113.727C10.8753 114.382 10.9247 115.011 11.1222 115.628L11.1239 115.63C11.1634 115.75 11.2062 115.868 11.2572 115.987C11.6061 116.807 12.1263 117.534 12.6037 118.281C13.0366 118.966 13.639 119.844 13.6291 120.703C13.6275 120.851 13.6078 120.997 13.5666 121.142C13.5024 121.371 13.323 121.513 13.1156 121.569C12.9032 121.626 12.6596 121.593 12.4753 121.468C12.2728 121.332 12.1313 121.124 11.993 120.922C11.1107 119.628 10.2054 118.351 9.51568 116.942C8.86549 115.612 8.03915 112.231 7.75768 110.787C7.34781 108.65 5.70834 96.975 5.24909 92.1833C4.30919 82.3745 5.03511 75.8265 6.02768 70.4916C6.3141 68.9493 6.95275 66.1065 7.58648 63.3609C10.3453 64.0325 14.7567 64.9872 16.7863 65.4778L14.3946 75.1253C14.3946 75.1253 13.4431 87.8344 13.0497 92.3101C12.6958 96.3528 11.7066 101.019 11.6111 102.221C12.1724 102.82 12.7666 103.655 13.6983 105.362C14.1345 106.16 14.5723 106.963 14.918 107.808C15.4629 109.133 15.4645 110.593 15.7591 111.985Z" fill="#FFCFCA"/>
<path d="M22.1642 53.3167C22.1378 53.5833 21.514 59.7347 20.9708 62.1247C20.6317 63.6177 20.1066 65.1666 19.6342 66.411C19.0153 64.095 18.5807 62.4556 18.5791 62.4227C18.5791 62.4227 20.2235 59.1355 21.1206 56.5956C21.9601 54.2138 22.1444 53.4072 22.1642 53.3167Z" fill="#0081BC"/>
<path d="M52.8187 65.4516C51.6039 64.0508 50.5982 62.7734 50.5603 62.7241L50.5586 62.7224C50.5586 62.7224 50.7084 57.7908 50.5586 55.7267C50.4615 54.3769 49.3965 49.8651 49.3652 49.7235C49.441 49.8618 51.8837 54.2831 52.501 57.1933C53.1117 60.0673 53.0096 63.2755 52.8187 65.4516Z" fill="#0081BC"/>
</g>
</g>
<defs>
<clipPath id="clip0_1065_49876">
<rect width="64" height="64" rx="32" fill="white"/>
</clipPath>
<clipPath id="clip1_1065_49876">
<rect width="75" height="75" fill="white" transform="translate(-5)"/>
</clipPath>
</defs>
</svg>
