<svg width="64" height="64" viewBox="0 0 64 64" fill="none" xmlns="http://www.w3.org/2000/svg">
<g clip-path="url(#clip0_1065_49875)">
<rect width="64" height="64" rx="32" fill="#EFF9FF"/>
<g clip-path="url(#clip1_1065_49875)">
<rect width="71" height="71" transform="translate(-3)" fill="#EFF9FF"/>
<path d="M32.9171 34.8586C33.9954 34.8336 34.9709 35.4414 35.9137 35.9665C36.8564 36.4901 37.9503 36.9653 38.9834 36.6552C40.068 36.3311 40.724 35.2622 41.6169 34.5672C42.5908 33.8114 43.8374 33.5107 44.9095 32.9014C45.9193 32.3264 46.7763 31.4538 47.2313 30.3832C47.6848 29.3143 47.7066 28.0458 47.1892 27.0065C47.0521 26.7307 46.8729 26.4486 46.8994 26.1416C46.9228 25.8658 47.1082 25.6321 47.2999 25.4342C47.811 24.9059 48.4437 24.4696 48.7896 23.8214C49.0592 23.3181 49.1277 22.7275 49.0903 22.1572C48.9812 20.5194 47.9668 18.9705 46.5098 18.2163C45.0529 17.4621 43.2032 17.5276 41.8039 18.383C40.4809 19.1918 38.8152 18.9845 37.4844 19.7793C35.2592 21.1085 33.2864 22.8584 31.7001 24.9091C30.9833 25.8362 30.3366 26.8382 29.986 27.9555C29.6338 29.0727 29.598 30.3209 30.0749 31.3899C30.3242 31.9508 30.7028 32.4433 31.0784 32.9294C31.5864 33.5901 32.2502 34.3599 32.9171 34.8586Z" fill="#323A40"/>
<path d="M26.7976 42.8135C26.2834 44.6475 30.3551 47.1937 31.5706 46.946C33.4187 46.5673 35.9991 44.5992 37.4343 43.2841C37.4935 42.1964 37.5558 41.1103 37.6166 40.0242C37.6914 38.6654 37.7693 37.305 37.9797 35.9602C38.0451 35.5488 38.1199 35.1375 38.2088 34.7308C38.4207 33.7163 38.6887 32.7128 38.9583 31.7077C39.1796 30.8834 39.3993 30.0575 39.6205 29.2332C39.0985 29.6602 38.617 29.8658 37.9984 30.1432C35.3899 31.3104 32.7377 32.3778 30.0715 33.4109C29.269 33.721 28.4587 34.0311 27.6094 34.1651L27.1887 38.9116L26.7976 42.8135Z" fill="#FFCFCA"/>
<path d="M27.189 38.9115C30.1325 38.4128 33.0013 37.4966 35.6519 36.1362C36.4934 35.7046 37.3691 35.2402 38.209 34.7307C38.4209 33.7162 38.689 32.7127 38.9585 31.7076C39.1798 30.8833 39.3995 30.0574 39.6208 29.2331C39.0988 29.6601 38.6173 29.8657 37.9987 30.1431C35.3901 31.3103 32.7379 32.3777 30.0718 33.4108C29.2692 33.7209 28.4589 34.031 27.6097 34.165L27.189 38.9115Z" fill="#F9BFBB"/>
<path d="M22.1601 30.8428C22.5746 32.4696 23.254 33.9936 24.5598 35.0953C25.7192 36.0707 27.1948 36.6753 28.7017 36.8203C30.369 36.9808 32.0441 36.6255 33.5775 35.9336C34.341 35.5892 35.0719 35.1623 35.7466 34.673C36.9277 33.8175 37.964 32.7812 38.8896 31.6593C40.3933 29.8315 41.6992 27.6935 42.5172 25.4107C43.4475 22.8317 43.7561 20.0658 43.0299 17.3653C42.7354 16.2637 42.257 15.2149 41.6181 14.2691C38.9301 10.2784 33.5401 8.89931 29.2627 11.1105C27.0343 12.2636 25.219 14.2099 24.0845 16.432C23.7261 17.1363 23.3989 17.8655 23.1106 18.612C21.6194 22.478 21.1379 26.8318 22.1601 30.8428Z" fill="#FFCFCA"/>
<path d="M37.8003 30.8647C38.9783 31.9586 40.7548 32.3684 42.2881 31.8807C43.5846 31.4708 44.6582 30.4299 45.1351 29.16C45.2223 28.9293 45.2893 28.694 45.3361 28.4478C45.4156 28.0224 45.428 27.5799 45.3392 27.156C45.1117 26.1089 44.1985 25.2643 43.1498 25.0461C42.0996 24.8311 40.9636 25.2175 40.2094 25.978L39.2822 27.8572L37.8003 30.8647Z" fill="#FFCFCA"/>
<path d="M31.0481 24.728C31.2585 24.7467 31.5608 24.4226 31.6589 23.9271C31.7119 23.6669 31.6964 23.4035 31.6153 23.2056C31.5888 23.137 31.5109 22.975 31.3831 22.95L31.3629 22.9469C31.1525 22.9282 30.8502 23.2523 30.7505 23.7463C30.6991 24.0065 30.7146 24.2699 30.7941 24.4678C30.8221 24.5364 30.9001 24.7 31.0278 24.7249L31.0481 24.728Z" fill="#1F3C49"/>
<path d="M24.7591 23.8806C24.9367 23.8961 25.2452 23.6094 25.3465 23.1077C25.3964 22.8552 25.3808 22.5997 25.3045 22.408C25.2484 22.2693 25.1673 22.1805 25.0832 22.1634L25.0645 22.1602C24.8868 22.1446 24.5783 22.4314 24.477 22.9331C24.4271 23.1871 24.4427 23.4411 24.5191 23.6328C24.5752 23.7715 24.6562 23.8603 24.7403 23.8774L24.7591 23.8806Z" fill="#1F3C49"/>
<path d="M27.8838 25.1441C27.7264 24.9571 27.4491 24.8683 27.1841 24.9072C26.9146 24.9415 26.6606 25.1238 26.5281 25.3638C26.3879 25.6007 26.3614 25.9123 26.4689 26.1632C26.5702 26.4094 26.7868 26.6026 27.0299 26.6432C26.8663 26.4671 26.7774 26.2707 26.7478 26.0791C26.7198 25.889 26.7603 25.7082 26.8507 25.5477C26.9426 25.3888 27.0766 25.261 27.2558 25.1893C27.435 25.1161 27.6485 25.0927 27.8838 25.1441Z" fill="#1F3C49"/>
<path d="M32.8 21.0259C32.8389 21.0244 32.8794 21.0088 32.9075 20.9776C32.962 20.9168 32.9574 20.8249 32.8981 20.7703C32.4587 20.3699 31.8432 20.1642 31.2526 20.214C31.1716 20.2218 31.1124 20.292 31.1186 20.373C31.1264 20.454 31.1965 20.5132 31.2775 20.507C31.7902 20.4603 32.32 20.641 32.7003 20.987C32.7283 21.0134 32.7641 21.0259 32.8 21.0259Z" fill="#1F3C49"/>
<path d="M26.4673 19.9941C26.5 19.9832 26.5296 19.9613 26.5483 19.9302C26.5904 19.8616 26.5686 19.7712 26.5 19.7292C26.0403 19.4487 25.4575 19.3645 24.9386 19.5032C24.8623 19.525 24.814 19.6045 24.8342 19.6824C24.8545 19.7619 24.9355 19.8071 25.0134 19.7868C25.4575 19.6684 25.9546 19.7401 26.3473 19.9785C26.3847 20.0019 26.4283 20.0065 26.4673 19.9941Z" fill="#1F3C49"/>
<path d="M31.2248 23.2696C31.5349 23.2167 31.6159 23.6982 31.3058 23.7511C30.9957 23.8026 30.9147 23.3211 31.2248 23.2696Z" fill="white"/>
<path d="M24.8356 22.4126C25.1457 22.3597 25.2283 22.8412 24.9167 22.8941C24.6081 22.9456 24.5255 22.4641 24.8356 22.4126Z" fill="white"/>
<path d="M24.482 27.5344C24.4602 28.1718 24.6145 28.767 24.895 29.2625C25.3437 30.0604 26.1182 30.598 27.0142 30.6307C27.9336 30.6619 28.761 30.1554 29.2597 29.3607C29.5542 28.8963 29.7349 28.3323 29.7567 27.7199C29.7583 27.6965 29.7552 27.6747 29.7567 27.6513L24.4883 27.4674C24.4867 27.4908 24.4836 27.5126 24.482 27.5344Z" fill="#D55454"/>
<path d="M24.7017 27.4741C25.2704 28.1207 26.1228 28.5462 27.0858 28.5789C28.0504 28.6132 28.9308 28.2501 29.5432 27.6439L24.7017 27.4741Z" fill="white"/>
<path d="M24.8945 29.2625C25.3433 30.0604 26.1178 30.598 27.0138 30.6307C27.9331 30.6619 28.7606 30.1554 29.2592 29.3607C28.3663 29.1316 27.4392 29.0304 26.5198 29.0631C25.9729 29.0833 25.429 29.1519 24.8945 29.2625Z" fill="#F37C7C"/>
<path d="M30.6836 26.8659C30.6119 27.6653 31.4331 28.3946 32.5208 28.4928C33.6084 28.5909 34.548 28.0222 34.6197 27.2212C34.693 26.4218 33.8702 25.6926 32.7841 25.5944C31.6964 25.4962 30.7568 26.065 30.6836 26.8659Z" fill="#F9BFBB"/>
<path d="M22.235 25.035C22.1852 25.5757 22.7415 26.0666 23.4754 26.1336C24.2094 26.2006 24.8436 25.8157 24.8919 25.275C24.9417 24.7343 24.387 24.2419 23.6515 24.1764C22.9175 24.1094 22.2833 24.4943 22.235 25.035Z" fill="#F9BFBB"/>
<path d="M41.9559 42.8771C40.2215 42.38 38.3158 41.4435 37.6223 41.258C35.006 45.0041 29.3246 45.5697 26.8142 40.9152C24.24 41.3998 20.8507 42.0294 17.8604 42.7882C17.8324 46.634 15.8331 51.0954 15.3657 54.8554C14.6146 60.8953 13.6064 65.1415 12.5421 71.1409C11.4248 77.444 11.4264 82.7312 10.2592 91.11C9.45985 96.8413 8.99546 103.515 8.58252 112.274C19.6353 116.82 33.1345 116.566 53.5057 112.673C53.392 102.855 50.1773 81.2898 49.1254 71.4977C46.8706 61.9237 44.9618 52.2531 41.9559 42.8771Z" fill="#0081BC"/>
<path d="M43.6032 25.1443C41.3032 25.1349 39.1839 27.7809 38.4765 21.071C38.3643 20.0145 38.2038 18.9673 38.0168 17.9217C37.8314 16.8777 37.3935 15.7978 36.5162 15.2633C34.4764 14.023 32.0066 16.4912 29.677 16.1126C28.6142 15.9396 27.5063 14.573 26.481 14.9096C26.0135 15.0639 25.2157 15.6934 24.8744 16.0596C23.807 17.1987 23.3582 18.799 22.5604 20.1594C22.3298 18.6868 21.6566 16.5723 22.2986 15.24C22.671 14.4686 23.2351 13.5851 23.6216 12.82C24.7342 10.6197 24.5332 9.09884 26.3984 7.5546C27.4378 6.69288 29.9466 5.82649 31.2056 6.26436C31.8305 6.48252 32.4086 6.86118 33.06 6.97025C33.9419 7.11829 34.8177 6.75209 35.6638 6.45291C36.9213 6.01036 38.2646 5.70027 39.572 5.9418C40.8793 6.18177 42.1431 7.07154 42.5513 8.39607C42.8599 9.39491 42.6885 10.587 43.3133 11.4082C43.8899 12.1639 44.9199 12.3073 45.7037 12.8184C47.3695 13.9076 47.5721 16.3791 47.1887 18.3954C46.7166 20.8778 45.1723 23.2183 43.6032 25.1443Z" fill="#323A40"/>
<path d="M26.942 40.4977C26.942 40.4977 27.009 43.8012 26.9077 46.2072C26.6552 52.2221 25.552 54.8353 25.3245 60.8549C25.2341 63.2624 25.2668 65.6699 25.3104 68.0774C25.3369 69.578 25.3681 71.0771 25.3759 72.5762C25.3821 73.9038 25.3712 75.2314 25.3198 76.5606C25.3167 76.6728 25.312 76.7866 25.3073 76.8988C25.1593 80.4532 24.8118 83.9982 24.3475 87.5277C24.2446 88.3224 24.1324 89.1155 24.0155 89.9071C23.8862 90.8016 23.7475 91.6914 23.6073 92.5827C23.5995 92.631 23.5917 92.6777 23.5839 92.726C23.5714 92.8102 23.5574 92.8959 23.5434 92.9816C23.3143 94.4168 23.079 95.8691 22.8422 97.337C21.4008 106.221 19.8519 115.628 18.8873 124.348C18.8265 124.9 6.6331 120.24 2.41955 116.507C1.95986 116.098 5.09977 104.125 6.77335 97.5162C7.06474 96.3693 7.30941 95.3845 7.48549 94.649C7.50263 94.5788 7.51821 94.5134 7.53224 94.4495L7.54003 94.4199C7.61327 94.1098 7.67092 93.8527 7.71144 93.6579C7.72079 93.6065 7.73012 93.5597 7.73947 93.5176C7.7457 93.4865 7.75194 93.4569 7.75505 93.4288C6.77179 93.3244 4.63696 92.9411 3.66616 92.6559C1.18385 91.9282 -1.1956 90.5757 -2.42507 87.7303C-2.93618 86.5444 -3.24941 85.0999 -3.28525 83.3328C-3.3055 82.0332 -3.24474 80.7103 -3.11228 79.3733C-3.09982 79.2595 -3.0889 79.1458 -3.07643 79.032C-2.69933 75.5633 -1.8454 72.0089 -0.684498 68.5465C3.27817 56.7208 10.8124 45.9657 15.0882 43.3244C20.1744 40.1845 26.942 40.4977 26.942 40.4977Z" fill="#00AEFF"/>
<path d="M53.0619 94.2657C53.0681 94.2984 53.0712 94.3296 53.0759 94.3623C53.2894 95.813 53.5356 97.5302 53.7974 99.3815C55.0565 108.306 56.6584 120.343 56.3716 120.579C54.4487 122.12 45.95 125.299 37.8439 125.613C37.5899 125.503 36.6954 111.168 35.8446 96.4052C35.7293 94.4153 35.6156 92.416 35.5034 90.4433C35.1964 85.0158 34.9081 79.7863 34.6744 75.4574C34.6292 74.6175 34.5856 73.8119 34.5451 73.0453C34.2661 67.8765 34.0916 64.4857 34.0994 64.4405C35.4675 57.1338 37.6148 40.73 37.6148 40.73C37.6148 40.73 45.3017 41.9252 52.9076 46.5781C57.1913 49.1976 63.6534 63.0412 65.6371 78.3169C65.6994 78.7999 65.7571 79.2861 65.81 79.7723C65.969 81.2277 66.0827 82.694 66.1451 84.1697C66.4365 91.0744 58.9708 93.3307 53.0619 94.2657Z" fill="#00AEFF"/>
<path d="M49.5777 54.8678C49.5232 56.5601 49.3471 58.31 49.2925 60.0007C49.2707 60.6926 49.2474 61.3845 49.2256 62.0763C49.1243 65.2677 49.0214 68.4621 48.7456 71.6425L51.0518 71.5412C49.9018 66.0764 50.2649 60.4106 49.5777 54.8678Z" fill="#0081BC"/>
<path d="M14.8922 55.6131C14.8548 57.3038 14.9358 59.0615 14.8984 60.7522C14.8828 61.4456 14.8672 62.1375 14.8516 62.8294C14.78 66.0223 14.7083 69.2151 14.8096 72.408L12.5127 72.1805C13.9588 66.7858 13.9042 61.1091 14.8922 55.6131Z" fill="#0081BC"/>
<path d="M18.3378 78.8014C18.5668 78.8216 18.8941 78.7717 19.0935 78.8808C19.3709 79.032 19.6389 79.4091 19.8695 79.6319C20.5131 80.2552 21.1738 80.8629 21.8127 81.4909C21.9888 81.6654 22.1617 81.8415 22.3347 82.0176C23.7465 80.3518 25.1349 78.6658 26.5109 76.9688C24.9479 75.8313 23.7543 74.9758 23.2183 74.6143C22.958 74.4413 22.6978 74.2668 22.4391 74.0923C22.3674 73.3833 22.235 72.6821 22.0308 71.9995C21.7784 71.1612 21.3172 70.4787 20.9853 69.6777C20.4134 68.2955 20.1173 66.7825 19.6436 65.3582C19.4956 64.9172 19.3288 64.4591 19 64.1287L18.9626 64.0929C18.6307 63.7875 18.1118 63.6379 17.7222 63.8685C17.4231 64.0477 17.2704 64.4046 17.2345 64.7505C17.1738 65.3613 17.3202 66.022 17.4527 66.6142C17.5384 66.9928 17.6646 67.398 17.6724 67.7891C17.6849 68.3875 17.3 68.0166 17.0148 67.7361C16.7047 67.426 16.4305 67.0848 16.1749 66.731C15.6685 66.0298 15.2415 65.2741 14.7647 64.5526L11.5281 59.6659C11.2103 59.1844 10.3922 59.214 10.0774 59.683C9.63798 60.3344 10.3844 61.1088 10.6836 61.6511C11.1838 62.5596 11.6778 63.4696 12.1717 64.3827C12.5239 65.0372 12.8761 65.6932 13.222 66.3508C13.4261 66.7311 13.7799 67.0536 13.9949 67.4432C14.0728 67.5865 14.3221 67.973 14.1554 68.1382C13.9824 68.3096 13.7082 67.9823 13.5804 67.8795C13.2687 67.6286 12.9664 67.3668 12.6673 67.1004C12.0923 66.583 11.536 66.0423 10.9859 65.4953C9.86238 64.3905 8.74977 63.2624 7.49848 62.2962C7.4455 62.2542 7.39253 62.2214 7.33955 62.1934C6.97492 61.8646 6.34225 61.9378 6.05864 62.3399C5.5226 63.1003 6.58534 63.9137 7.03256 64.4155C7.75871 65.2242 8.51448 66.0033 9.24219 66.8105C9.78602 67.412 10.3298 68.0135 10.8721 68.615C11.0638 68.8254 12.1593 69.5967 11.899 69.9676C11.6746 70.2932 10.8815 69.5515 10.6789 69.4393C10.1927 69.1713 9.70966 68.8986 9.22816 68.6228C8.26359 68.0696 7.31463 67.4946 6.37967 66.8931C6.29241 66.8355 6.202 66.798 6.11318 66.7747C5.85451 66.5955 5.59584 66.4147 5.34029 66.2293C4.87748 65.902 4.19965 66.1654 4.05162 66.7108C3.83658 67.4962 4.78866 67.9106 5.30133 68.2706C6.11786 68.8409 6.94063 69.4003 7.77118 69.9535C8.35709 70.3447 8.94456 70.7311 9.5367 71.1129C9.85147 71.317 11.2991 72.0977 10.6571 72.5823C10.5309 72.6774 10.2161 72.5699 10.0852 72.5387C9.66914 72.4452 9.28271 72.2567 8.88223 72.1086C7.81326 71.7144 6.73651 71.3342 5.65508 70.9711C5.06294 70.7701 4.43339 71.3092 4.54247 71.9341C4.69674 72.841 6.30642 73.0202 7.00453 73.2477C8.11868 73.6077 9.21726 74.0081 10.3003 74.4507C10.4857 74.5286 10.6711 74.605 10.8332 74.7234C11.0404 74.873 11.1994 75.0833 11.3677 75.2812C12.8885 77.0779 15.1932 78.2669 17.4932 78.686C17.7721 78.7375 18.0557 78.7764 18.3378 78.8014Z" fill="#FFCFCA"/>
</g>
</g>
<defs>
<clipPath id="clip0_1065_49875">
<rect width="64" height="64" rx="32" fill="white"/>
</clipPath>
<clipPath id="clip1_1065_49875">
<rect width="71" height="71" fill="white" transform="translate(-3)"/>
</clipPath>
</defs>
</svg>
