<svg width="64" height="64" viewBox="0 0 64 64" fill="none" xmlns="http://www.w3.org/2000/svg">
<g clip-path="url(#clip0_1065_49874)">
<rect width="64" height="64" rx="32" fill="#EFF9FF"/>
<g clip-path="url(#clip1_1065_49874)">
<rect width="72" height="72" transform="translate(-4)" fill="#EFF9FF"/>
<path d="M97.6755 75.9053C96.6755 75.6809 95.6686 75.4913 94.6614 75.3032C93.5026 75.0883 92.3402 74.8987 91.1871 74.6538C91.1087 74.6364 90.9182 74.5763 90.924 74.4689C90.9262 74.4278 90.9629 74.3946 91.0027 74.3835C91.1174 74.3488 91.2674 74.4025 91.3771 74.4325C92.1856 74.6506 92.9811 74.7912 93.8069 74.9224C94.5247 75.0362 95.24 75.1657 95.9522 75.3111C96.4551 75.4138 96.9743 75.5829 97.4839 75.624C97.8414 75.6525 98.2276 75.5561 98.3545 75.1768C98.7261 74.0643 96.4939 73.772 95.8369 73.6314C93.8284 73.2015 91.8371 72.6832 89.8245 72.2787C89.6453 72.2439 89.4582 72.2297 89.2967 72.1381C89.2645 72.1191 89.231 72.0954 89.2218 72.0591C89.2095 72.0101 89.2468 71.9627 89.2836 71.9279C89.5563 71.6687 89.9489 71.5565 90.2864 71.4096C90.7562 71.2042 91.2794 70.9734 91.6666 70.6258C91.9523 70.3651 92.1558 69.9274 91.9276 69.5702C91.7365 69.2716 91.3663 69.1104 91.0209 69.0946C90.5814 69.0725 90.157 69.2368 89.7458 69.3932C88.8269 69.744 87.8993 70.0727 86.9643 70.3777C86.1017 70.659 85.1755 70.6795 84.3198 70.9845C83.7524 71.1868 83.2074 71.4475 82.6878 71.7541C82.4392 71.6656 65.5264 63.458 61.3839 63.9399C59.1218 64.2022 56.4937 71.5281 58.5117 72.5837C64.8777 75.9132 80.8549 76.3209 81.0975 76.4347C81.2721 76.5168 81.4018 76.7633 81.5301 76.9103C81.6886 77.0904 81.8574 77.2643 82.0326 77.4286C82.3838 77.7605 82.761 78.0654 83.1585 78.3388C83.9134 78.8603 84.7406 79.2696 85.6121 79.554C86.1425 79.7278 86.6941 79.7815 87.2446 79.8511C88.4089 79.9949 89.5688 80.1766 90.7344 80.3093C91.8966 80.4421 93.0674 80.4279 94.2344 80.382C94.6606 80.3646 95.2234 80.3473 95.4671 79.9285C95.6234 79.6614 95.5591 79.3391 95.2754 79.1921C94.9953 79.0452 94.6359 79.072 94.3267 79.0483C93.9763 79.0199 93.6259 78.9946 93.2752 78.9693C92.678 78.9266 92.0806 78.8856 91.4829 78.8492C91.199 78.8318 90.8717 78.8729 90.6029 78.7623C90.4427 78.6959 90.6167 78.5474 90.7094 78.5253C90.8987 78.4779 91.1258 78.5442 91.3159 78.5664C91.5521 78.5916 91.7884 78.6169 92.0249 78.6406C92.4977 78.6865 92.9712 78.726 93.4449 78.7607C94.3689 78.8287 95.2941 78.8792 96.2196 78.9235C96.4696 78.9361 96.7228 78.9472 96.9682 78.8966C97.4214 78.8034 97.9883 78.2819 97.6168 77.7952C97.4278 77.5471 97.0726 77.5171 96.7612 77.506C95.7282 77.4871 94.6968 77.4144 93.6696 77.3054C93.1553 77.25 92.6422 77.1868 92.1299 77.1141C91.8745 77.0794 91.6193 77.0415 91.3644 77.002C91.2661 76.9877 90.8636 76.9893 90.8328 76.8676C90.7894 76.6954 91.1247 76.7207 91.2078 76.7302C91.9225 76.8171 92.6376 76.9056 93.3525 76.9925C94.544 77.1379 95.7356 77.2817 96.9271 77.427C97.4991 77.4966 98.6552 77.7905 98.9072 77.0399C99.1697 76.2608 98.2379 76.0301 97.6755 75.9053Z" fill="#FFCFCA"/>
<path d="M55.0981 39.1008C55.1297 38.6725 55.1164 38.2411 55.0507 37.8208C54.883 36.7494 54.3931 35.7523 53.5542 35.0649C52.829 34.4723 51.9327 34.1705 51.1949 33.5953C50.3547 32.9411 49.7642 31.963 49.3707 30.9248C48.8695 29.6006 48.5982 28.131 48.3196 26.7388C48.0151 25.217 47.7844 23.6779 47.569 22.1388C47.1763 19.3308 46.7964 16.4421 45.6977 13.838C44.553 11.1247 42.5616 9.11628 39.9799 8.10336C37.4093 7.09361 34.5591 6.91504 31.9069 7.6451C28.5132 8.579 25.7605 11.1816 24.225 14.5759C23.2051 16.8309 22.6516 19.3023 22.2801 21.7817C22.0103 23.5831 21.8297 25.413 21.291 27.1417C20.8895 28.4296 20.2677 29.6764 19.3531 30.6198C18.3414 31.6643 16.9191 32.0009 15.7386 32.7752C14.4486 33.6222 13.581 35.1092 13.267 36.7068C9.54926 38.1922 6.9209 41.8235 6.9209 46.0711C6.9209 51.6382 11.4343 56.1513 17.002 56.1513C18.4735 56.1513 19.8701 55.8336 21.1305 55.2663C21.4857 55.4765 21.8545 55.6661 22.2355 55.8336C23.0123 60.8634 27.3598 64.7144 32.6069 64.7144C35.0275 64.7144 37.2548 63.8927 39.0302 62.5163C39.5011 62.5969 39.9843 62.6428 40.4784 62.6428C44.8905 62.6428 48.5081 59.2501 48.8701 54.9313C49.3303 55.0056 49.802 55.0467 50.2833 55.0467C55.0883 55.0467 58.9833 51.1515 58.9833 46.3476C58.9833 43.3231 57.4398 40.6604 55.0981 39.1008Z" fill="#F7931E"/>
<path d="M70.6496 76.3135C70.1802 76.9393 60.3091 75.3717 57.0195 72.5526C55.807 71.5144 54.4869 69.653 53.3587 67.831C51.8312 65.3658 50.6533 62.975 50.565 62.7917L50.5595 62.7806C50.5595 62.7806 50.4214 74.795 50.2832 75.4855C50.0374 76.7118 54.0118 88.881 53.4595 89.434C46.4095 96.4834 21.5591 93.8523 17.6923 86.2578C17.245 85.3792 23.2163 73.8279 23.2163 73.8279C23.2163 73.8279 20.254 61.9447 19.8149 59.0719C19.7874 58.8886 19.7694 58.7432 19.7638 58.6373C19.5649 59.233 18.9311 60.6726 18.155 62.3619C16.48 66.0074 14.9733 71.1715 14.9305 71.2047C14.6737 71.3959 12.7956 79.692 12.1686 80.3194C11.2571 81.2312 2.67718 78.322 2.36367 77.6946C2.01428 76.9946 3.13418 69.7952 4.84934 65.2663C8.30178 56.1516 12.4448 46.348 17.002 42.8399C19.1741 41.1681 27.5843 37.246 37.3974 37.9824C42.9185 38.3964 50.5552 42.0482 52.0052 43.412C57.1757 48.268 61.8171 60.2254 62.3459 61.4295C64.6687 62.3445 73.1148 66.2966 73.1562 66.7548C73.3136 68.4789 71.8457 74.7175 70.6496 76.3135Z" fill="#00AEFF"/>
<path d="M39.9514 41.1409C39.3701 43.0039 37.4105 43.4401 35.6801 43.4211C33.7701 43.4006 31.2457 42.9597 30.565 40.8691C30.0968 39.4263 30.4337 37.7719 30.4406 36.2849C30.4461 35.2973 30.4144 34.3096 30.3343 33.3251C30.2859 32.7199 30.2197 32.1163 30.1328 31.5158C30.0623 31.0307 29.9822 30.5456 29.8924 30.0636C29.8316 29.7396 29.7668 29.4157 29.6963 29.0949C29.648 28.869 29.3773 28.2637 29.6383 28.1073C29.88 27.9635 30.3758 28.3901 30.5773 28.5118C33.5423 30.2896 36.6384 31.8492 39.8326 33.1734C39.9582 33.2256 40.0894 33.2825 40.164 33.3963C40.2344 33.5037 40.2371 33.6412 40.2371 33.7708C40.2386 34.8074 40.2386 35.8456 40.24 36.8838C40.2414 37.2867 40.2525 37.6913 40.258 38.0942C40.2773 39.1198 40.2621 40.1453 39.9514 41.1409Z" fill="#FFCFCA"/>
<path d="M40.258 38.0941C37.4849 37.3309 34.8197 36.1931 32.3865 34.6714C31.7098 34.2479 31.0123 33.8007 30.3343 33.325C30.2859 32.7198 30.2197 32.1162 30.1328 31.5157C30.0623 31.0306 29.9822 30.5454 29.8924 30.0635C29.8316 29.7395 29.7668 29.4156 29.6963 29.0948C29.648 28.8688 29.3773 28.2636 29.6383 28.1072C29.88 27.9634 30.3758 28.39 30.5773 28.5117C33.5423 30.2894 36.6384 31.8491 39.8326 33.1733C39.9582 33.2255 40.0894 33.2824 40.164 33.3961C40.2345 33.5036 40.2371 33.6411 40.2371 33.7707C40.2386 34.8073 40.2386 35.8455 40.24 36.8837C40.2414 37.2866 40.2525 37.6912 40.258 38.0941Z" fill="#F9BFBB"/>
<path d="M30.8839 28.3647C29.6541 29.2228 27.9591 29.3729 26.6047 28.725C25.4603 28.1767 24.6032 27.0769 24.3254 25.8427C24.2753 25.6183 24.2445 25.3908 24.2331 25.1585C24.2142 24.7539 24.2589 24.3431 24.3965 23.9638C24.7415 23.0252 25.6953 22.3631 26.6916 22.2983C27.6902 22.2335 28.6908 22.7376 29.2897 23.5388L29.9025 25.3939L30.8839 28.3647Z" fill="#FFCFCA"/>
<path d="M44.8643 30.5453C44.2703 31.996 43.4464 33.3154 42.0964 34.1656C40.8991 34.9178 39.4579 35.286 38.0468 35.2243C36.4849 35.1564 34.9831 34.6128 33.6546 33.7753C32.9933 33.3581 32.3742 32.8698 31.8134 32.3294C30.8328 31.386 30.0084 30.2941 29.2983 29.1374C28.1449 27.2553 27.214 25.111 26.7529 22.8955C26.2273 20.3925 26.3 17.7962 27.3203 15.3943C27.7336 14.4145 28.3121 13.5075 29.0243 12.7158C32.0249 9.37526 37.1832 8.79848 40.8506 11.3932C42.7607 12.7474 44.1859 14.7796 44.9468 16.9808C45.1886 17.6777 45.3965 18.3935 45.5655 19.1204C46.4444 22.8861 46.3268 26.9709 44.8643 30.5453Z" fill="#FFCFCA"/>
<path d="M37.2747 23.8327C37.0781 23.8438 36.8069 23.5309 36.732 23.0663C36.6925 22.8214 36.7164 22.5764 36.7976 22.3947C36.8256 22.3315 36.904 22.183 37.0242 22.164L37.0429 22.1624C37.2396 22.1513 37.5106 22.4642 37.5855 22.9288C37.625 23.1737 37.6012 23.4187 37.5199 23.6004C37.492 23.6636 37.4136 23.8121 37.2932 23.8311L37.2747 23.8327Z" fill="#1F3C49"/>
<path d="M43.1685 23.2622C43.0025 23.2701 42.724 22.992 42.648 22.5211C42.6096 22.2841 42.6329 22.047 42.7114 21.8701C42.768 21.7436 42.8463 21.6631 42.926 21.6504L42.9432 21.6472C43.1094 21.6393 43.3877 21.9175 43.4639 22.3884C43.502 22.627 43.4789 22.864 43.4005 23.0394C43.3438 23.1674 43.2656 23.2464 43.1858 23.2606L43.1685 23.2622Z" fill="#1F3C49"/>
<path d="M40.2109 24.3323C40.365 24.1632 40.6254 24.0905 40.8713 24.1347C41.1216 24.1774 41.3522 24.356 41.468 24.5835C41.5898 24.8095 41.6045 25.1018 41.4955 25.3309C41.3917 25.5585 41.1831 25.7307 40.9558 25.7592C41.1145 25.5996 41.2036 25.421 41.2373 25.2425C41.2713 25.0671 41.2392 24.898 41.1608 24.7447C41.081 24.593 40.9603 24.4697 40.7958 24.3955C40.6308 24.3228 40.4322 24.2927 40.2109 24.3323Z" fill="#1F3C49"/>
<path d="M37.2743 20.0132C37.2558 20.0148 37.2378 20.0132 37.2196 20.0085C37.0005 19.9405 36.7595 19.92 36.5234 19.9468C36.4915 19.95 36.4596 19.9547 36.4276 19.9595C36.2153 19.9942 36.0079 20.0701 35.8283 20.176C35.8136 20.1839 35.7982 20.1902 35.7816 20.1918C35.7592 20.1949 35.7442 20.1949 35.7293 20.1902C35.693 20.1839 35.66 20.1586 35.6409 20.127C35.6028 20.0622 35.6244 19.9784 35.6894 19.9389C35.8961 19.8173 36.1353 19.7319 36.3812 19.6908C36.4178 19.6845 36.4548 19.6798 36.4918 19.675C36.765 19.645 37.0439 19.6703 37.2987 19.7461C37.3707 19.7683 37.4118 19.8441 37.3901 19.9168C37.375 19.9658 37.3334 20.0037 37.2819 20.0116L37.2743 20.0132Z" fill="#1F3C49"/>
<path d="M41.9189 19.19L41.8931 19.1806C41.8633 19.1663 41.84 19.1411 41.8269 19.111C41.7974 19.0415 41.8293 18.9609 41.8985 18.9309C42.2395 18.7855 42.6327 18.7444 43.0058 18.8187C43.0394 18.825 43.0729 18.8329 43.1061 18.8408C43.1973 18.8645 43.2864 18.8945 43.371 18.9309C43.4386 18.9609 43.4724 19.0415 43.443 19.1094C43.4169 19.1711 43.3561 19.2043 43.2916 19.19C43.2768 19.1869 43.27 19.1853 43.2633 19.1821C43.1916 19.1521 43.1156 19.1253 43.0374 19.1063C43.0097 19.0984 42.9821 19.0921 42.9541 19.0873C42.6341 19.0241 42.2977 19.0573 42.0066 19.1821C41.9815 19.1932 41.9529 19.1964 41.9255 19.1916L41.9189 19.19Z" fill="#1F3C49"/>
<path d="M37.1609 22.4674C36.8736 22.4074 36.7807 22.8546 37.0686 22.913C37.3557 22.9731 37.4486 22.5275 37.1609 22.4674Z" fill="white"/>
<path d="M43.1472 21.8905C42.8599 21.8304 42.7671 22.2776 43.0547 22.3361C43.3422 22.3962 43.4349 21.949 43.1472 21.8905Z" fill="white"/>
<path d="M43.7868 26.5949C43.8674 27.3913 43.724 28.1498 43.4141 28.7946C42.9181 29.8312 41.9923 30.5675 40.8721 30.6813C39.7245 30.7983 38.6463 30.2325 37.9561 29.2781C37.5482 28.7203 37.2747 28.0281 37.1973 27.2633C37.1944 27.2349 37.1954 27.208 37.1924 27.178L43.7746 26.5111C43.7774 26.5412 43.7839 26.568 43.7868 26.5949Z" fill="#D55454"/>
<path d="M43.5071 26.5379C42.8486 27.3944 41.8167 27.9965 40.6123 28.1197C39.408 28.2414 38.2763 27.859 37.4595 27.1511L43.5071 26.5379Z" fill="white"/>
<path d="M43.4141 28.7946C42.9181 29.8312 41.9922 30.5675 40.872 30.6813C39.7245 30.7983 38.6463 30.2325 37.9561 29.2781C39.0549 28.9162 40.2066 28.7124 41.3627 28.6792C42.0486 28.6602 42.7349 28.6997 43.4141 28.7946Z" fill="#F37C7C"/>
<path d="M36.9061 25.6439C36.9459 26.3929 36.1538 27.044 35.1368 27.0977C34.1197 27.153 33.2629 26.5889 33.2231 25.8399C33.1833 25.0908 33.9755 24.4398 34.9925 24.3861C36.0095 24.3323 36.8663 24.8949 36.9061 25.6439Z" fill="#F9BFBB"/>
<path d="M45.4827 24.4251C45.5097 24.9308 44.9747 25.3717 44.2879 25.408C43.601 25.4444 43.0225 25.0635 42.9956 24.5579C42.9686 24.0522 43.5036 23.6129 44.1904 23.5766C44.8773 23.5402 45.4558 23.9195 45.4827 24.4251Z" fill="#F9BFBB"/>
<path d="M44.9184 16.1433C44.5663 15.5981 44.0802 14.9818 43.4336 15.045C43.1967 15.0671 42.9801 15.1841 42.7513 15.2489C42.2747 15.3832 41.7377 15.2852 41.3408 14.9881C41.0099 14.7416 40.7776 14.3718 40.4209 14.1633C39.9997 13.9183 39.4328 13.9515 39.0425 14.2438C38.707 14.4951 38.5215 14.8933 38.2624 15.222C37.6736 15.971 36.7033 16.3439 35.7525 16.3992C34.8017 16.4546 33.8582 16.227 32.9437 15.9615C32.5091 15.8351 32.019 15.704 31.6241 15.9252C31.3501 16.0785 31.1857 16.3724 31.0716 16.6647C30.7807 17.4137 30.7327 18.2355 30.7914 19.0366C30.8624 20.0021 31.0674 21.0466 30.5802 21.8826C30.2381 22.4704 29.5652 22.8497 28.8856 22.837C28.2486 22.826 27.6639 22.5036 27.0492 22.3377C26.4343 22.1702 25.6632 22.2144 25.3086 22.7438C25.0316 20.1127 24.9818 17.36 26.0571 14.9439C27.0375 12.7411 28.9039 10.9697 31.1111 9.99782C33.3184 9.02757 35.8434 8.84426 38.1962 9.37206C39.0874 9.57116 39.9619 9.87298 40.7503 10.3344C42.7661 11.5132 44.1646 13.9325 44.9184 16.1433Z" fill="#F7931E"/>
<path d="M19.8146 59.0718C19.7871 58.8885 19.7691 58.7431 19.7636 58.6372C19.5647 59.2329 18.9308 60.6725 18.1548 62.3618C18.837 57.245 19.1974 51.2418 19.1974 51.2418C19.1974 51.2418 19.5441 56.0062 19.8146 59.0718Z" fill="#0081BC"/>
<path d="M53.3585 67.8307C51.8311 65.3655 50.6532 62.9747 50.5649 62.7914C50.2956 58.3636 49.8688 49.2158 49.7114 47.7604C51.6502 54.0086 51.9569 60.557 53.1887 66.9821C53.2426 67.265 53.2991 67.5494 53.3585 67.8307Z" fill="#0081BC"/>
</g>
</g>
<defs>
<clipPath id="clip0_1065_49874">
<rect width="64" height="64" rx="32" fill="white"/>
</clipPath>
<clipPath id="clip1_1065_49874">
<rect width="72" height="72" fill="white" transform="translate(-4)"/>
</clipPath>
</defs>
</svg>
