<svg width="64" height="64" viewBox="0 0 64 64" fill="none" xmlns="http://www.w3.org/2000/svg">
<g clip-path="url(#clip0_1065_49887)">
<rect width="64" height="64" rx="32" fill="#EFF9FF"/>
<g clip-path="url(#clip1_1065_49887)">
<rect width="71" height="71" transform="translate(-3)" fill="#EFF9FF"/>
<path d="M25.6337 40.9517C25.5708 40.076 24.8091 39.381 23.9019 39.6319C18.4575 41.1356 12.8302 43.6709 10.296 49.0469C9.30514 51.149 8.95298 53.4895 8.46914 55.7474C7.92764 58.2749 7.42448 60.8102 6.95996 63.3517C6.37218 66.5696 5.89208 69.8045 5.43691 73.0426C5.02319 75.9846 5.10033 79.5998 3.74308 82.2457C1.21168 87.1807 -1.42911 92.2077 -4.01661 97.1707C-5.34363 99.7154 -6.66644 102.263 -7.97585 104.817C-8.61504 106.064 -9.2505 107.313 -9.88331 108.565C-10.1912 109.172 -10.7293 109.896 -10.4017 110.594C-9.75896 111.96 -7.91055 112.714 -6.70072 113.511C-6.34434 113.746 -5.98079 113.984 -5.56926 114.1C-3.69466 114.625 -2.1121 111.585 -1.21859 110.405C0.309133 108.387 1.81161 106.349 3.28822 104.294C6.54203 99.7637 9.88793 95.1388 12.747 90.291C13.8765 88.3759 15.0801 86.4281 15.9853 84.4023C18.1302 79.5982 18.9313 74.3001 20.6742 69.3433C22.5139 64.1106 24.7692 58.8203 25.3881 53.2604C25.8428 49.1762 25.929 45.0499 25.6337 40.9517Z" fill="#0081BC"/>
<path d="M69.1588 116.479C67.3901 116.93 61.57 116.333 61.3596 116.205C60.4122 115.632 60.3468 84.6815 58.896 82.1369C58.0966 80.7344 54.9786 75.6 51.781 70.1803C48.7642 65.0599 45.6726 59.6823 44.3995 56.9553C42.0154 51.8551 43.0209 39.816 43.3823 38.4759C46.687 39.3189 48.9263 40.2928 49.1616 40.3957L49.1818 40.4066C51.4008 41.4241 54.0826 43.3361 55.203 44.3739C62.7278 51.3518 69.8086 73.074 71.0069 78.9409C72.442 85.9671 70.4085 116.16 69.1588 116.479Z" fill="#0081BC"/>
<path d="M57.1179 106.764C53.202 109.701 9.91406 109.912 9.91406 107.86C9.91406 100.029 11.6819 91.1892 12.2401 83.3683C12.7163 76.7129 14.3472 55.7434 14.5661 52.0363C14.7166 49.462 15.1134 43.416 15.1134 43.416C15.1134 43.416 18.9827 41.0895 20.9967 40.1327C23.7782 38.8113 26.6447 37.987 29.6657 37.5242C34.6939 36.7575 39.7001 37.5366 43.3821 38.4763C46.6869 39.3193 48.9261 40.2932 49.1614 40.396L49.1817 40.407C49.1817 40.407 47.0967 41.303 46.5825 44.6485C44.3931 58.877 51.7762 70.081 51.7762 70.081C51.7762 70.081 53.7801 82.4162 54.9286 88.7038C55.6578 92.6976 57.6649 106.354 57.1179 106.764Z" fill="#00AEFF"/>
<path d="M22.1998 13.849C22.5006 12.7317 22.9867 11.6986 23.6255 10.8758C25.3338 8.67708 28.2272 7.0596 31.0718 7.47099C33.6559 7.84341 35.9675 8.89991 37.3243 11.2342C38.7442 13.6744 38.6971 16.9624 37.0032 19.2608C35.9904 20.6352 34.6037 21.7447 33.0525 22.4537C32.587 22.6656 32.1049 22.8417 31.6113 22.9757C28.9931 23.6894 25.5649 23.3855 23.5737 21.3567C21.6868 19.4353 21.5346 16.3173 22.1998 13.849Z" fill="#32334C"/>
<path d="M38.2452 24.7524C38.118 25.4567 37.9935 26.161 37.8678 26.8654C37.8594 26.9074 37.8525 26.9511 37.8457 26.9932C37.8421 27.0119 37.8383 27.0306 37.8348 27.0493C37.6677 27.9827 37.5021 28.9145 37.3878 29.851C37.3402 30.2281 37.3026 30.6068 37.276 30.9854C37.2454 31.4093 37.2289 31.8362 37.2245 32.2601C37.2124 33.0735 37.2347 33.8885 37.2596 34.7019C37.2894 35.6929 37.3177 36.684 37.3473 37.6735C36.7638 38.3061 35.9469 39.1009 35.0735 39.8052C33.3733 40.2773 31.394 40.5906 29.6763 40.6529C28.5138 39.975 27.4831 38.9809 27.6563 38.0693L27.7099 34.4978L27.7124 33.9118L27.7168 32.3629L27.7251 30.1564C28.4852 29.971 29.1968 29.6251 29.9019 29.2822C32.2409 28.1385 34.5647 26.9651 36.8429 25.7029C36.9043 25.6702 36.9629 25.6375 37.0202 25.6047C37.4782 25.3507 37.853 25.1326 38.2452 24.7524Z" fill="#FFCFCA"/>
<path d="M27.7104 34.4979C30.3428 33.8185 32.8755 32.7651 35.1758 31.3253C35.9075 30.8687 36.6664 30.3794 37.3885 29.8527C37.502 28.9147 37.6685 27.9828 37.8348 27.051C37.9716 26.2859 38.1081 25.5176 38.2449 24.7525C37.8044 25.1811 37.3837 25.4039 36.8433 25.7046C34.5657 26.9653 32.2414 28.1386 29.9021 29.2824C29.1972 29.6268 28.4858 29.9712 27.7248 30.1566L27.7104 34.4979Z" fill="#F9BFBB"/>
<path d="M22.522 27.5632C23.0247 29.0077 23.7582 30.3385 25.0294 31.2376C26.1568 32.0339 27.5421 32.4686 28.9209 32.4826C30.4469 32.4982 31.9394 32.0479 33.2785 31.3015C33.945 30.9291 34.5742 30.4865 35.1494 29.9894C36.1548 29.1215 37.0159 28.1008 37.769 27.0116C38.9924 25.2367 40.0127 23.1954 40.5788 21.0606C41.223 18.6468 41.2888 16.1131 40.4208 13.718C40.0698 12.741 39.5535 11.8263 38.9011 11.0176C36.1521 7.6034 31.1546 6.76974 27.4432 9.10557C25.5098 10.3241 24.0136 12.2314 23.1561 14.3367C22.8837 15.0036 22.6432 15.6908 22.4404 16.3905C21.3854 20.0134 21.2847 24.0026 22.522 27.5632Z" fill="#FFCFCA"/>
<path d="M36.7188 26.3745C37.8723 27.2768 39.5165 27.5105 40.8709 26.9495C42.0151 26.4774 42.9086 25.4489 43.2445 24.2615C43.3049 24.0449 43.347 23.8252 43.3704 23.5993C43.4101 23.205 43.3881 22.803 43.274 22.4259C42.987 21.4925 42.0923 20.796 41.1246 20.6806C40.1547 20.5653 39.1528 21.0048 38.5268 21.7543L37.8317 23.5307L36.7188 26.3745Z" fill="#FFCFCA"/>
<path d="M30.2739 21.4205C30.4649 21.4408 30.7459 21.1494 30.8433 20.7006C30.8947 20.4637 30.8843 20.2238 30.8148 20.043C30.7908 19.9791 30.7222 19.8311 30.606 19.8062L30.5879 19.803C30.3968 19.7828 30.116 20.0726 30.0186 20.5214C29.9672 20.7583 29.9775 20.9982 30.047 21.1805C30.0712 21.2429 30.1396 21.3925 30.256 21.4174L30.2739 21.4205Z" fill="#1F3C49"/>
<path d="M24.5592 20.5526C24.7208 20.5698 25.0068 20.3127 25.1057 19.8577C25.1556 19.6286 25.1454 19.3964 25.0783 19.2203C25.0296 19.0925 24.9577 19.0099 24.8805 18.9944L24.8639 18.9913C24.7024 18.9741 24.4163 19.2297 24.3174 19.6862C24.2677 19.9153 24.2776 20.1475 24.3448 20.3236C24.3934 20.4513 24.4656 20.5324 24.5425 20.5495L24.5592 20.5526Z" fill="#1F3C49"/>
<path d="M27.3862 21.751C27.2448 21.5781 26.9947 21.4939 26.7527 21.5251C26.5067 21.5516 26.2725 21.7136 26.1475 21.9302C26.0168 22.1437 25.9873 22.4273 26.0814 22.6564C26.1706 22.8839 26.365 23.0631 26.5849 23.1036C26.4386 22.94 26.3613 22.7608 26.3378 22.5847C26.3141 22.4117 26.3541 22.2481 26.4386 22.1032C26.5244 21.9598 26.6486 21.8461 26.8127 21.7838C26.9774 21.7199 27.1725 21.7012 27.3862 21.751Z" fill="#1F3C49"/>
<path d="M32.013 17.8257C32.0472 17.8148 32.0765 17.7899 32.0924 17.754C32.1224 17.687 32.0924 17.6075 32.025 17.5779C31.5317 17.3567 30.9403 17.352 30.4429 17.5639C30.3752 17.5935 30.3435 17.6714 30.3727 17.74C30.4016 17.807 30.4799 17.8382 30.548 17.8101C30.9784 17.6247 31.4893 17.6309 31.9158 17.821C31.9478 17.8366 31.9823 17.8366 32.013 17.8257Z" fill="#1F3C49"/>
<path d="M26.274 16.9499C26.3045 16.9437 26.3327 16.9281 26.3531 16.9016C26.398 16.8424 26.387 16.7583 26.3284 16.7131C25.9399 16.4154 25.4191 16.283 24.9354 16.3593C24.8647 16.3718 24.813 16.4388 24.8243 16.512C24.8357 16.5853 24.9041 16.6352 24.977 16.6227C25.3898 16.5588 25.8342 16.671 26.1658 16.925C26.1979 16.9499 26.2374 16.9577 26.274 16.9499Z" fill="#1F3C49"/>
<path d="M30.4566 20.0943C30.7397 20.0507 30.8069 20.4917 30.5231 20.5338C30.24 20.5774 30.173 20.1364 30.4566 20.0943Z" fill="white"/>
<path d="M24.6519 19.2172C24.9352 19.1736 25.0022 19.613 24.7184 19.6567C24.4353 19.7003 24.3683 19.2593 24.6519 19.2172Z" fill="white"/>
<path d="M24.2523 23.8764C24.2222 24.4561 24.3531 24.9999 24.6009 25.4565C24.9973 26.1904 25.6948 26.6922 26.5108 26.7342C27.347 26.7779 28.1082 26.3291 28.5746 25.6123C28.8504 25.1931 29.024 24.682 29.0528 24.1241C29.0539 24.1054 29.0522 24.0852 29.0533 24.0634L24.2582 23.814C24.2571 23.8359 24.2534 23.8561 24.2523 23.8764Z" fill="#D55454"/>
<path d="M24.4526 23.8253C24.9605 24.4221 25.7301 24.8226 26.6074 24.8678C27.4849 24.9129 28.2916 24.5951 28.8585 24.0528L24.4526 23.8253Z" fill="white"/>
<path d="M24.6011 25.4565C24.9975 26.1904 25.695 26.6922 26.511 26.7342C27.3472 26.7779 28.1084 26.3291 28.5748 25.6123C27.7655 25.3895 26.9232 25.2835 26.0841 25.2991C25.5861 25.31 25.0899 25.363 24.6011 25.4565Z" fill="#F37C7C"/>
<path d="M29.91 23.361C29.8318 24.0903 30.5696 24.7666 31.5582 24.8725C32.5466 24.9785 33.4114 24.4736 33.4896 23.7459C33.5678 23.0182 32.83 22.3419 31.8415 22.236C30.853 22.13 29.9882 22.6333 29.91 23.361Z" fill="#F9BFBB"/>
<path d="M22.2426 21.5653C22.1897 22.0562 22.688 22.5128 23.3555 22.5844C24.0231 22.6577 24.6071 22.3164 24.66 21.8256C24.7128 21.3331 24.2145 20.8766 23.5469 20.8049C22.8795 20.7332 22.2955 21.0729 22.2426 21.5653Z" fill="#F9BFBB"/>
<path d="M22.2256 10.7916C22.0486 8.95905 24.8799 6.96136 30.1517 6.04043C34.2261 5.3283 39.6506 6.72295 42.4536 9.72884C44.1041 11.5006 45.1014 13.9097 44.891 16.3328C44.7196 18.3149 43.8485 20.2627 43.046 22.0703C42.4639 20.9359 40.8395 20.4933 39.5977 20.8954C38.8725 21.1291 38.279 21.5966 37.8078 22.1731C37.7892 19.8622 37.2046 17.6277 37.2055 15.3137C37.1977 15.3604 33.3779 14.8462 33.1071 14.8119C30.8972 14.5267 28.7036 14.2462 26.5582 13.626C25.6437 13.3611 24.7428 13.0526 23.8602 12.7004C23.2132 12.4418 22.2783 11.337 22.2256 10.7916Z" fill="#32334C"/>
<path d="M32.5809 22.4382C32.2039 22.7763 31.7185 23.0023 31.1752 23.0552C30.7897 23.0926 30.416 23.0381 30.0751 22.9088C29.2236 22.5893 28.5804 21.8071 28.487 20.8409C28.3564 19.4884 29.3506 18.2823 30.7016 18.1529C32.054 18.022 33.2592 19.0147 33.3898 20.3672C33.4679 21.176 33.1437 21.9333 32.5809 22.4382ZM28.2834 19.9559L27.3459 19.8141C27.3489 19.7876 27.3546 19.7626 27.3577 19.7377L28.3055 19.8717C28.2972 19.8998 28.2902 19.9278 28.2834 19.9559ZM24.8757 21.8772C24.7994 21.8834 24.7241 21.8865 24.6486 21.8881C24.4605 21.8897 24.2756 21.8678 24.0971 21.8258C23.5434 21.7027 23.054 21.3879 22.7079 20.95C22.423 20.5916 22.2348 20.1506 22.1876 19.6613C22.1667 19.4463 22.174 19.2375 22.208 19.0334L22.2078 19.0318C22.3828 17.9535 23.2664 17.084 24.4022 16.9733C25.7546 16.8424 26.9598 17.8366 27.0904 19.1876C27.2209 20.5402 26.228 21.7463 24.8757 21.8772ZM41.0669 20.5386L40.7104 20.5324L37.7074 20.481L35.9657 20.4514L33.6665 20.414C33.6642 20.3891 33.6645 20.3657 33.6622 20.3407C33.5171 18.8386 32.1776 17.7353 30.6753 17.8802C29.6171 17.9815 28.758 18.6796 28.3928 19.6084L27.3754 19.4634C27.3766 19.3622 27.3725 19.2624 27.3627 19.1627C27.2177 17.6605 25.878 16.5557 24.3759 16.7006C23.4839 16.7879 22.7333 17.299 22.3004 18.0127L22.2465 17.6512C22.2381 17.5935 22.1955 17.553 22.1421 17.539C22.1252 17.5359 22.1073 17.5343 22.0896 17.5359C22.0151 17.5483 21.964 17.6169 21.9755 17.6933L22.0294 18.0517L22.0889 18.4412C22.0802 18.4646 22.0717 18.4895 22.0629 18.5129C21.9333 18.8791 21.8755 19.2764 21.9152 19.6878C21.9672 20.2254 22.1722 20.7116 22.4826 21.109C22.9672 21.726 23.7081 22.1265 24.5278 22.1592L24.5664 22.1608C24.6766 22.1639 24.7889 22.1592 24.9021 22.1483C26.0868 22.0346 27.0212 21.176 27.292 20.0821L28.231 20.2239C28.2017 20.4342 28.1934 20.6477 28.2146 20.8659C28.3173 21.9302 29.0193 22.795 29.9547 23.1565C30.0434 23.1924 30.1343 23.222 30.2273 23.2469C30.5364 23.3295 30.8651 23.3591 31.2015 23.3279C31.8389 23.2656 32.4031 22.9882 32.8321 22.5769C32.8486 22.5628 32.8648 22.5457 32.881 22.5285C33.3557 22.0486 33.65 21.3957 33.6723 20.6867L35.6798 20.721L37.7325 20.7552L39.9713 20.7942H40.0194L40.6446 20.8051L41.0617 20.8113H41.0781C41.0931 20.8098 41.1079 20.8051 41.1209 20.7989C41.1632 20.7802 41.1934 20.7397 41.1998 20.6898L41.2012 20.6758C41.2023 20.6025 41.1426 20.5386 41.0669 20.5386Z" fill="black"/>
<path d="M38.6414 38.2173C38.5548 39.1663 36.7455 39.9345 34.4681 40.3973C32.7394 40.7495 30.7431 40.924 29.0253 40.8679C27.4388 40.8165 26.0921 40.5687 25.4152 40.0794C24.7492 39.5979 24.9717 33.7965 27.3043 34.0069C27.3565 34.0115 27.433 34.0115 27.5329 34.0069C28.1469 33.9866 29.604 33.8121 31.2629 33.6157C33.3217 33.3695 35.6902 33.089 37.1365 33.0189C37.8664 32.9831 38.3624 33.0002 38.4677 33.1031C39.2071 33.823 38.7837 36.645 38.6414 38.2173Z" fill="#00AEFF"/>
</g>
</g>
<defs>
<clipPath id="clip0_1065_49887">
<rect width="64" height="64" rx="32" fill="white"/>
</clipPath>
<clipPath id="clip1_1065_49887">
<rect width="71" height="71" fill="white" transform="translate(-3)"/>
</clipPath>
</defs>
</svg>
