<svg width="64" height="64" viewBox="0 0 64 64" fill="none" xmlns="http://www.w3.org/2000/svg">
<g clip-path="url(#clip0_1065_49873)">
<rect width="64" height="64" rx="32" fill="#EFF9FF"/>
<g clip-path="url(#clip1_1065_49873)">
<rect width="75" height="75" transform="translate(-5)" fill="#EFF9FF"/>
<path d="M-48.4912 99.6866C-46.6723 98.1673 -44.8534 96.648 -43.0345 95.1287C-41.2913 93.6703 -39.7786 92.4209 -37.8576 91.1962C-37.0692 90.6942 -36.0157 90.0489 -35.1762 89.5798C-30.8471 86.7552 -26.518 83.9322 -22.1872 81.1092C-19.4482 79.3233 -16.7092 77.5356 -13.9701 75.7497C-12.171 74.576 -10.3669 73.3991 -8.7291 72.0098C-6.69787 70.2881 4.93478 52.9321 6.18908 51.4243C6.94132 52.4004 11.7527 56.4003 12.8111 64.3294C8.67297 68.1515 -0.936684 78.5068 -5.68719 81.5224C-14.1742 86.9083 -23.8629 89.5304 -32.9392 93.8513C-33.2668 94.0077 -33.6026 94.8291 -33.7985 95.1484C-34.4322 96.1854 -34.9178 97.3015 -35.624 98.2957C-36.3367 99.2998 -37.1597 100.226 -38.0733 101.054C-38.4865 101.428 -39.1613 101.612 -39.4115 100.943C-39.4395 100.893 -39.4626 100.839 -39.4774 100.776C-39.6765 100.027 -39.3128 99.3442 -38.9375 98.722C-38.5111 98.0109 -38.1753 97.2998 -38.1325 96.4587C-38.121 96.2315 -38.1753 95.983 -38.3515 95.8381C-38.4568 95.7492 -38.5967 95.713 -38.7334 95.6883C-39.1959 95.611 -39.6206 95.6949 -40.0189 95.8644C-40.2296 95.9533 -40.4321 96.0669 -40.628 96.1937C-40.8173 96.3122 -40.9983 96.4422 -41.1777 96.5755C-41.4016 96.7418 -41.6172 96.9113 -41.8345 97.0677C-41.8773 97.099 -41.9218 97.1303 -41.9645 97.1599C-42.0041 97.1879 -42.0452 97.2159 -42.0847 97.2438C-42.3432 97.4249 -42.6016 97.6043 -42.86 97.7837C-43.3308 98.113 -43.7999 98.4405 -44.2707 98.7681C-44.6805 99.0545 -45.0921 99.3409 -45.5019 99.6273C-46.2196 100.126 -47.0064 100.696 -47.8903 100.847C-48.5521 100.961 -49.0887 100.187 -48.4912 99.6866Z" fill="#FFCFCA"/>
<path d="M24.325 24.3417C23.9629 23.5796 23.6814 22.7648 23.4921 21.9056C22.1374 15.7641 26.0171 9.68691 32.1586 8.33221C38.3 6.97751 44.3772 10.8589 45.7319 17.0003C45.7714 17.1781 45.806 17.3559 45.8373 17.5336C47.8603 18.5328 49.4289 20.4077 49.9524 22.7829C50.1038 23.466 50.1565 24.1491 50.1252 24.8158C52.4132 25.731 54.2239 27.726 54.7934 30.3136C55.7119 34.4699 53.0848 38.5834 48.9285 39.5002C48.2372 39.6517 47.5475 39.7043 46.8726 39.6698C45.8949 40.5883 44.6653 41.2648 43.2612 41.5743C41.5427 41.9528 39.8341 41.7257 38.3526 41.036C37.4654 41.7421 36.407 42.2623 35.2251 42.5224C32.0779 43.217 28.957 41.8788 27.2286 39.3834C23.4411 39.701 19.9103 37.1776 19.0691 33.3654C18.1984 29.4165 20.5259 25.5088 24.325 24.3417Z" fill="#AC1B35"/>
<path d="M37.8418 40.1572C36.7982 39.6041 35.8797 38.8453 34.8262 38.3136C34.7357 38.2971 34.6451 38.2823 34.5497 38.2741C32.8789 38.1375 31.2148 37.8905 29.5374 37.7967C29.0173 37.7687 28.4889 37.772 27.9704 37.8379C26.2667 38.8518 24.517 39.7835 22.6191 40.2526C21.8454 40.4436 20.8891 40.6526 19.8981 40.7547C19.1739 41.0789 18.7969 41.6238 19.1788 42.618C19.5459 43.576 20.2488 44.4402 20.9483 45.1974C21.1623 45.4295 21.3862 45.6517 21.6183 45.8657C24.8067 48.7775 30.4592 50.3018 34.5793 48.4088C36.7027 47.4344 38.4936 45.7801 39.817 43.9562C40.2318 43.3851 40.5281 42.748 40.8425 42.1242C40.8672 42.0748 40.9199 41.9563 40.989 41.8065C39.9355 41.2666 38.887 40.7135 37.8418 40.1572Z" fill="#FFCFCA"/>
<path d="M26.9224 41.225C27.5067 41.6777 28.254 41.8472 28.975 42.0019C29.8441 42.1912 30.7149 42.3789 31.6021 42.4398C33.3304 42.5566 34.9567 42.1155 36.6489 41.7451C36.7279 40.7493 36.8102 39.7551 36.8909 38.7592C36.9896 37.5148 37.0917 36.2671 37.3172 35.0375C37.3863 34.6622 37.4637 34.2869 37.5542 33.9149C37.7715 32.9881 38.0414 32.0746 38.3114 31.1577C38.532 30.4071 38.7542 29.6532 38.9764 28.901C38.4875 29.2812 38.0414 29.459 37.467 29.6993C35.0456 30.7116 32.5881 31.6301 30.1173 32.5174C29.375 32.784 28.6227 33.0507 27.8409 33.1527L27.347 37.5L26.9224 41.225Z" fill="#FFCFCA"/>
<path d="M27.3472 37.5004C30.0582 37.1103 32.7116 36.335 35.1758 35.1466C35.9593 34.7696 36.7725 34.363 37.5543 33.9153C37.7716 32.9886 38.0416 32.075 38.3115 31.1582C38.5321 30.4076 38.7543 29.6537 38.9765 28.9014C38.4877 29.2817 38.0416 29.4595 37.4671 29.6998C35.0458 30.7121 32.5882 31.6306 30.1175 32.5178C29.3751 32.7845 28.6229 33.0511 27.841 33.1532L27.3472 37.5004Z" fill="#F9BFBB"/>
<path d="M22.9161 29.981C23.2601 31.4838 23.8478 32.8978 25.0214 33.9381C26.0634 34.8599 27.4033 35.4492 28.7826 35.6154C30.3085 35.7998 31.8542 35.5134 33.278 34.9142C33.9858 34.6146 34.6656 34.2393 35.2977 33.8064C36.4006 33.0476 37.375 32.1209 38.2507 31.1118C39.6713 29.4691 40.919 27.5366 41.7223 25.4609C42.6342 23.1153 42.9798 20.5853 42.3741 18.0899C42.1305 17.0726 41.714 16.0982 41.1511 15.2159C38.7742 11.4925 33.8591 10.1049 29.8838 12.0357C27.8131 13.0431 26.1029 14.7879 25.0115 16.8011C24.6659 17.4397 24.3482 18.1014 24.0683 18.7796C22.6116 22.2923 22.07 26.2774 22.9161 29.981Z" fill="#FFCFCA"/>
<path d="M37.2676 30.358C38.3243 31.3884 39.9441 31.8049 41.363 31.3934C42.5613 31.0461 43.5703 30.1144 44.0378 28.9622C44.1234 28.7515 44.1892 28.5358 44.237 28.312C44.3209 27.9235 44.3423 27.5169 44.2699 27.1268C44.0855 26.1606 43.2674 25.3639 42.3094 25.1417C41.3514 24.9178 40.2996 25.2487 39.5902 25.9285L38.6963 27.6322L37.2676 30.358Z" fill="#FFCFCA"/>
<path d="M25.7355 13.8087C26.1273 13.4959 26.5223 13.1865 26.9273 12.8885C26.9767 12.8507 27.031 12.8161 27.082 12.7799C27.1001 12.7667 27.1199 12.7536 27.1396 12.7387L27.1462 12.7338C27.3404 12.6071 27.533 12.4787 27.7305 12.3585C28.1338 12.1116 28.5503 11.8844 28.9832 11.6935C29.0573 11.6606 29.1593 11.6342 29.24 11.5947C29.3964 11.5503 29.5527 11.5091 29.7107 11.4729C30.2951 10.4014 31.3206 9.57833 32.6062 9.29356C33.7353 9.045 34.858 9.25735 35.7781 9.80383C36.1616 9.5487 36.5962 9.35611 37.0735 9.25076C39.1212 8.79974 41.1459 10.0935 41.5969 12.1396C41.6265 12.2696 41.6479 12.398 41.6627 12.5264C42.8051 13.0959 43.6907 14.156 43.9886 15.5008C44.2174 16.5411 44.0544 17.5748 43.6001 18.4522C44.7293 18.8308 45.638 19.7756 45.9128 21.0233C46.3309 22.9163 45.1343 24.7879 43.243 25.2059C41.35 25.6224 39.4784 24.4274 39.062 22.5361C38.927 21.9303 38.9599 21.3279 39.1262 20.7731C37.3978 20.5361 35.9147 19.2703 35.4769 17.486C35.1691 17.6358 34.8398 17.7543 34.4892 17.8316C32.8333 18.1954 31.1922 17.5699 30.1799 16.3469C29.6893 16.8045 29.0737 17.1403 28.3709 17.2967C26.5767 17.6917 24.8006 16.7782 24.0352 15.193C24.5981 14.7272 25.1627 14.263 25.7355 13.8087Z" fill="#AC1B35"/>
<path d="M22.037 43.7769L22.0649 43.7719C21.925 43.8114 21.7851 43.8476 21.6436 43.8806C21.7357 43.8509 21.9283 43.7966 22.037 43.7769Z" fill="#FFCFCA"/>
<path d="M31.2119 24.5719C31.4045 24.595 31.6893 24.3036 31.7914 23.8526C31.8457 23.6139 31.8374 23.3719 31.7683 23.1892C31.7436 23.125 31.6761 22.9752 31.5593 22.9489L31.5412 22.9456C31.3486 22.9226 31.0638 23.2139 30.9617 23.6649C30.9074 23.9036 30.9173 24.1456 30.9848 24.3283C31.0095 24.3925 31.077 24.5423 31.1938 24.5686L31.2119 24.5719Z" fill="#1F3C49"/>
<path d="M25.4609 23.6516C25.6222 23.6697 25.9136 23.413 26.0173 22.9554C26.0683 22.7249 26.0601 22.4895 25.9942 22.3117C25.9465 22.185 25.8741 22.1011 25.7967 22.0829L25.7803 22.0796C25.6173 22.0615 25.3276 22.3167 25.2239 22.7759C25.1712 23.0064 25.1794 23.2418 25.2453 23.4195C25.2947 23.5463 25.3654 23.6302 25.4428 23.6483L25.4609 23.6516Z" fill="#1F3C49"/>
<path d="M28.2981 24.8831C28.1566 24.707 27.9064 24.6197 27.6628 24.6494C27.4142 24.674 27.1772 24.8354 27.0488 25.0526C26.9155 25.2683 26.8825 25.553 26.9764 25.7851C27.0636 26.0139 27.2578 26.1966 27.4801 26.2394C27.3336 26.0732 27.2578 25.8905 27.2348 25.7144C27.2118 25.5382 27.2545 25.3753 27.3401 25.2304C27.429 25.0856 27.5541 24.972 27.7204 24.9094C27.8866 24.8469 28.0842 24.8304 28.2981 24.8831Z" fill="#1F3C49"/>
<path d="M32.9038 21.2138C32.94 21.2155 32.9762 21.2006 33.0026 21.1727C33.0553 21.12 33.052 21.0344 32.9993 20.9834C32.6059 20.6064 32.0446 20.4023 31.5014 20.4352C31.4273 20.4402 31.3713 20.5027 31.3763 20.5768C31.3796 20.6525 31.4438 20.7085 31.5178 20.7035C31.9886 20.6739 32.4725 20.8517 32.8133 21.1776C32.838 21.2023 32.8709 21.2138 32.9038 21.2138Z" fill="#1F3C49"/>
<path d="M27.1169 20.1243C27.1465 20.1145 27.1745 20.0963 27.1926 20.0667C27.2321 20.0042 27.214 19.9219 27.1514 19.8807C26.7383 19.6141 26.2033 19.5235 25.7243 19.6387C25.6535 19.6569 25.6074 19.7293 25.6255 19.8017C25.642 19.8741 25.7144 19.9186 25.7869 19.9005C26.1967 19.8017 26.6527 19.8791 27.0066 20.1079C27.0395 20.1293 27.0807 20.1342 27.1169 20.1243Z" fill="#1F3C49"/>
<path d="M31.4064 23.2369C31.6928 23.1974 31.757 23.6402 31.4706 23.6813C31.1842 23.7225 31.1216 23.2781 31.4064 23.2369Z" fill="white"/>
<path d="M25.5643 22.3053C25.8507 22.2641 25.9133 22.7085 25.6285 22.7497C25.3421 22.7908 25.2779 22.3464 25.5643 22.3053Z" fill="white"/>
<path d="M25.1233 26.9982C25.0887 27.5825 25.2155 28.1323 25.4607 28.5948C25.8558 29.3356 26.5537 29.8475 27.3751 29.8969C28.2179 29.9479 28.9882 29.5018 29.4639 28.7825C29.7454 28.3627 29.9248 27.8492 29.9594 27.2879C29.9594 27.2681 29.9578 27.2467 29.9594 27.227L25.1299 26.9356C25.1282 26.957 25.1249 26.9784 25.1233 26.9982Z" fill="#D55454"/>
<path d="M25.3257 26.9487C25.8327 27.5545 26.6047 27.9627 27.4886 28.0154C28.3725 28.0697 29.1873 27.7553 29.7634 27.2137L25.3257 26.9487Z" fill="white"/>
<path d="M25.4609 28.5948C25.856 29.3356 26.5539 29.8475 27.3753 29.8969C28.2181 29.9479 28.9884 29.5018 29.4641 28.7825C28.651 28.552 27.8033 28.4385 26.9572 28.4483C26.4552 28.4549 25.9548 28.5043 25.4609 28.5948Z" fill="#F37C7C"/>
<path d="M30.8283 26.5256C30.7443 27.258 31.4818 27.9461 32.4776 28.0613C33.4719 28.1765 34.3476 27.6761 34.4331 26.942C34.5187 26.2095 33.7797 25.5215 32.7838 25.4062C31.7896 25.291 30.9139 25.7931 30.8283 26.5256Z" fill="#F9BFBB"/>
<path d="M23.1168 24.6523C23.0592 25.1478 23.558 25.612 24.2296 25.6893C24.9028 25.7667 25.4937 25.4293 25.5513 24.9338C25.6073 24.44 25.1102 23.9741 24.437 23.8968C23.7654 23.8194 23.1744 24.1569 23.1168 24.6523Z" fill="#F9BFBB"/>
<path d="M53.1157 118.995C53.0762 117.192 52.4606 112.969 52.7322 109.755C53.8679 101.361 58.4143 87.3725 58.1757 81.3084C57.9469 75.4699 55.5206 69.9622 54.0819 64.2997C53.2721 61.1097 52.7223 57.8472 51.6129 54.7493C51.3215 53.9329 50.989 53.1313 50.6071 52.3527C49.3874 49.8721 47.6821 47.938 45.5043 46.2508C43.6937 44.8483 41.6839 43.7043 39.5539 42.8681L38.3687 51.477C38.3901 51.4655 38.4099 51.4572 38.4296 51.4457C38.0313 53.9263 38.9481 56.4119 39.8748 58.7476C42.5266 65.424 45.3908 72.0148 48.4656 78.5068C48.966 79.5619 49.4763 80.6319 49.6541 81.7858C49.7923 82.6878 49.7199 83.6079 49.6475 84.5182C48.9676 93.1106 48.4179 100.442 48.1347 109.123C47.8895 109.792 46.9611 111.795 46.5447 113.199C46.2945 114.043 46.0459 114.888 45.8895 115.754C45.6476 117.113 45.9389 118.489 45.9438 119.864C45.9455 120.152 45.9405 120.443 46.0064 120.723C46.3126 122.03 47.6837 121.378 48.0607 120.484C48.0952 120.401 48.1265 120.313 48.1479 120.228C48.1792 120.119 48.1989 120.007 48.2138 119.895C48.2664 119.484 48.2302 119.052 48.222 118.641C48.217 118.333 48.222 118.022 48.2911 117.721C48.3504 117.467 48.3866 117.118 48.6714 117.016C48.9331 116.922 49.3133 117.052 49.5322 117.196C49.794 117.367 49.9734 117.624 50.1051 117.91C50.133 117.969 50.1577 118.027 50.1808 118.088C50.245 118.244 50.2977 118.409 50.3454 118.568C50.5215 119.146 50.6598 119.731 50.8211 120.31C51.0466 121.115 51.1569 121.898 50.9989 122.726C50.8359 123.567 50.4919 124.359 50.194 125.161C49.8763 126.02 49.3956 127.172 49.8647 128.055C50.082 128.461 50.6647 128.446 50.9594 128.14C51.1223 127.969 51.2145 127.744 51.3034 127.526C51.8729 126.129 52.4688 124.741 52.8342 123.271C53.1782 121.885 53.1437 120.414 53.1157 118.995Z" fill="#FFCFCA"/>
<path d="M55.4204 63.4828C50.2387 67.3955 47.5177 69.5205 43.8553 71.0941L43.847 71.1155C43.5096 72.141 43.1656 73.2044 42.8166 74.2908C42.7228 74.5871 42.6257 74.8883 42.5302 75.1879C42.1302 76.4455 41.7269 77.731 41.3286 79.0298C36.3904 80.5392 17.469 83.5729 14.9868 83.9037C14.7349 82.5359 14.4897 81.219 14.2444 79.7507C13.7029 76.508 13.158 72.5344 12.5358 65.6803C12.5243 65.705 12.5111 65.7313 12.498 65.7609C12.2675 66.2334 11.8066 67.2259 11.0198 68.8292C10.9161 69.0415 10.8058 69.2637 10.6906 69.4975C8.44209 67.4761 0.394531 58.3224 0.394531 58.3224C0.394531 58.3224 5.83804 48.8444 10.1704 45.6297C15.5827 41.6133 23.2977 39.7204 23.2977 39.7204C23.2977 39.7204 25.1857 41.6989 25.7569 42.1302C27.4227 43.3911 29.1758 44.0594 31.2613 44.1894C34.3296 44.382 37.5624 42.9565 39.3681 40.3492C46.3918 43.21 51.4222 46.5811 55.4204 63.4828Z" fill="#00AEFF"/>
<path d="M11.0195 68.8298C11.8063 67.2265 12.2672 66.2339 12.4976 65.7615C12.3709 64.3163 12.4334 62.8529 12.6869 61.4192C11.8013 62.8266 11.1495 64.3772 10.9289 65.9903C10.7989 66.9335 10.8219 67.8997 11.0195 68.8298Z" fill="#0081BC"/>
<path d="M43.8472 71.1162C43.5097 72.1417 43.1657 73.205 42.8168 74.2914C40.9271 71.1771 40.2308 67.3698 40.8283 63.76C41.3254 66.3821 42.3592 68.9006 43.8472 71.1162Z" fill="#0081BC"/>
</g>
</g>
<defs>
<clipPath id="clip0_1065_49873">
<rect width="64" height="64" rx="32" fill="white"/>
</clipPath>
<clipPath id="clip1_1065_49873">
<rect width="75" height="75" fill="white" transform="translate(-5)"/>
</clipPath>
</defs>
</svg>
