<svg width="64" height="64" viewBox="0 0 64 64" fill="none" xmlns="http://www.w3.org/2000/svg">
<g clip-path="url(#clip0_1065_49899)">
<rect width="64" height="64" rx="32" fill="#EFF9FF"/>
<g clip-path="url(#clip1_1065_49899)">
<rect width="72" height="72" fill="#EFF9FF"/>
<path d="M82.8528 116.112C81.9742 113.91 81.094 111.709 80.2154 109.506C79.3716 107.395 78.6352 105.575 77.5259 103.585C77.0692 102.768 76.4482 101.699 75.9315 100.886C73.4616 96.3432 70.9917 91.8001 68.5203 87.257C66.9574 84.3826 65.3946 81.5082 63.8318 78.6338C62.8046 76.7454 61.7759 74.8507 60.9937 72.8502C60.025 70.3693 59.4467 67.7556 58.9236 65.1435C58.5365 63.2236 58.1762 61.2925 57.7891 59.3694C56.6624 59.8703 55.5372 60.376 54.4185 60.8975C52.0197 62.0163 49.6336 63.1825 47.2222 64.2839C49.0489 69.6171 51.0447 74.8681 53.7958 79.7794C58.7087 88.5559 65.9935 95.4678 71.9319 103.585C72.1469 103.879 72.052 104.761 72.0726 105.135C72.1373 106.351 72.0362 107.563 72.1848 108.773C72.3349 109.998 72.6193 111.205 73.0302 112.367C73.2167 112.893 73.7239 113.376 74.2612 112.904C74.3101 112.874 74.356 112.837 74.3986 112.788C74.9312 112.224 74.9343 111.452 74.8996 110.725C74.8616 109.895 74.9043 109.11 75.2662 108.35C75.3642 108.144 75.5301 107.95 75.7529 107.907C75.8888 107.879 76.0294 107.914 76.1622 107.956C76.6046 108.108 76.9396 108.383 77.2099 108.723C77.3521 108.9 77.4785 109.095 77.5907 109.301C77.6997 109.495 77.7977 109.696 77.8925 109.898C78.0094 110.151 78.1201 110.404 78.237 110.643C78.2591 110.693 78.2828 110.74 78.3081 110.788C78.3286 110.831 78.3523 110.875 78.3729 110.919C78.5151 111.2 78.6573 111.48 78.7995 111.763C79.0571 112.275 79.3147 112.787 79.5738 113.3C79.7982 113.746 80.0242 114.193 80.2486 114.64C80.6436 115.421 81.0656 116.297 81.7719 116.85C82.2997 117.264 83.142 116.839 82.8528 116.112Z" fill="#FFCFCA"/>
<path d="M16.9405 45.775C9.05845 45.7734 1.50976 70.6649 1.31698 70.9873C1.15264 71.2638 -14.5278 94.3507 -14.5736 94.406C-14.5736 94.406 -19.8958 99.7614 -21.1963 101.372C-22.0733 102.464 -22.9898 103.592 -23.5508 104.881C-24.1449 106.247 -24.5084 107.686 -24.8971 109.119C-24.9588 109.344 -25.0204 109.574 -24.9935 109.805C-24.943 110.221 -24.4863 110.583 -24.0691 110.393C-23.1636 109.987 -22.8523 108.8 -22.5869 107.937C-22.3403 107.133 -22.1381 106.31 -21.7588 105.556C-21.3875 104.813 -20.8265 104.268 -20.1612 103.775C-19.6824 103.418 -19.221 103.047 -18.7311 102.701C-18.5463 102.568 -18.3503 102.435 -18.1449 102.331C-17.8668 102.187 -17.5697 102.092 -17.2568 102.116C-16.9961 102.136 -16.6168 102.261 -16.4635 102.492C-16.296 102.742 -16.4793 103.037 -16.5836 103.269C-16.7116 103.546 -16.895 103.791 -17.0846 104.03C-17.4085 104.432 -17.7862 104.831 -17.9821 105.313C-18.0169 105.395 -18.0453 105.479 -18.0675 105.565C-18.3061 106.488 -17.6076 107.82 -16.5757 106.984C-16.3529 106.806 -16.1807 106.575 -16.0069 106.351C-15.1757 105.281 -14.1122 104.382 -13.488 103.173C-13.0882 102.403 -12.7769 101.594 -12.4688 100.787C-11.8904 99.2794 -11.6408 98.3708 -11.5301 97.6486L-11.5286 97.6455L-11.5112 97.617C-11.3879 97.5206 2.8893 84.7209 11.3023 73.2517C13.2744 70.5638 18.1067 59.9906 20.4454 52.3171C20.9274 50.7353 18.4117 47.3015 16.9405 45.775Z" fill="#FFCFCA"/>
<path d="M28.3058 28.0291C30.6887 29.2459 33.1159 30.3726 35.5589 31.4676C36.2937 31.7963 37.0364 32.1266 37.8249 32.2909L37.9877 36.7503L38.1283 40.5712C37.9845 40.6661 37.8313 40.7451 37.6733 40.8114C36.9511 42.6445 35.167 43.9418 33.0764 43.9418C30.8278 43.9418 28.9315 42.4391 28.3342 40.3832C28.2884 40.369 28.2441 40.3548 28.1983 40.3421C28.1983 40.1493 28.1967 39.9565 28.1967 39.7638C28.1572 39.5157 28.1367 39.2612 28.1367 39.0021C28.1367 38.7587 28.1556 38.5201 28.1904 38.2847C28.1888 37.9528 28.1872 37.6194 28.1857 37.286C28.1809 36.0123 28.1746 34.7371 28.0419 33.4698C28.0008 33.081 27.9502 32.6939 27.887 32.3083C27.7385 31.3491 27.5362 30.3978 27.3339 29.4466C27.1664 28.6644 27.0005 27.8806 26.833 27.0999C27.3008 27.525 27.74 27.7399 28.3058 28.0291Z" fill="#FFCFCA"/>
<path d="M42.7474 20.3545C42.4945 23.4533 41.1419 26.4652 38.9296 28.649C37.9167 29.6477 36.7252 30.4773 35.401 30.9925C33.9456 31.5582 32.3591 31.7352 30.801 31.6546C29.8797 31.6056 28.9521 31.4665 28.1083 31.0999C27.0954 30.659 26.2484 29.9132 25.4599 29.1405C24.1119 27.8178 22.8699 26.3703 21.947 24.7222C21.0258 23.0756 20.4332 21.2173 20.4395 19.3289C20.4411 18.6889 20.5138 18.0379 20.7619 17.4469C21.0921 16.66 21.7069 16.031 22.3374 15.4574C24.4217 13.558 26.8662 12.0031 29.5826 11.2493C32.3922 10.4703 35.3599 10.5746 38.2722 10.6867C39.0101 10.7136 39.6833 10.859 40.2759 11.322C40.7595 11.6997 41.0249 12.3397 41.2904 12.8785C42.0204 14.3639 42.5008 15.9741 42.6952 17.6191C42.8027 18.5262 42.8216 19.4443 42.7474 20.3545Z" fill="#534741"/>
<path d="M37.9877 36.751C35.2618 36.1426 32.6229 35.1471 30.2115 33.747C29.4435 33.303 28.6471 32.8257 27.887 32.309C27.7385 31.3498 27.5362 30.3985 27.3339 29.4472C27.1664 28.665 27.0005 27.8813 26.833 27.1006C27.3008 27.5257 27.74 27.7406 28.3058 28.0298C30.6887 29.2466 33.1159 30.3732 35.5589 31.4683C36.2937 31.797 37.0364 32.1273 37.8249 32.2916L37.9877 36.751Z" fill="#F9BFBB"/>
<path d="M42.4218 18.8955C42.2512 18.2065 42.0426 17.527 41.8008 16.8665C41.0407 14.7822 39.6312 12.8638 37.7554 11.5949C34.151 9.16141 29.1164 9.75714 26.2104 12.9602C25.5215 13.7187 24.9621 14.5879 24.567 15.5218C23.5889 17.8146 23.5367 20.2814 24.0708 22.6564C24.5386 24.7581 25.4646 26.7871 26.6055 28.5664C27.3087 29.6583 28.1225 30.6886 29.088 31.5767C29.6395 32.0839 30.2494 32.5438 30.8989 32.9325C32.2026 33.7163 33.6738 34.2204 35.2003 34.271C36.5798 34.3152 37.9846 33.9518 39.1492 33.2264C40.4623 32.4063 41.2556 31.1453 41.8261 29.761C43.2261 26.3494 43.3099 22.4652 42.4218 18.8955Z" fill="#FFCFCA"/>
<path d="M27.2384 27.838C25.9268 28.4938 24.2676 28.399 23.0493 27.5789C22.0205 26.8883 21.349 25.7032 21.2541 24.4706C21.2383 24.2462 21.2399 24.0218 21.262 23.7958C21.3016 23.4024 21.4027 23.0121 21.5891 22.6644C22.0569 21.8064 23.073 21.3007 24.0448 21.3781C25.0198 21.4587 25.9157 22.0876 26.3803 22.9473L26.7106 24.8277L27.2384 27.838Z" fill="#FFCFCA"/>
<path d="M31.3492 16.2964C33.5504 15.8824 35.7564 15.3909 37.8407 14.6103C39.5347 13.9782 41.4088 12.7599 41.8623 10.9284C42.4296 8.63551 40.5033 6.87831 38.5849 5.97917C34.8414 4.22514 30.213 4.53486 26.795 6.89886C24.7202 8.33211 23.1589 10.467 22.4415 12.8484C22.0307 14.2152 21.86 16.2821 23.4687 16.9158C25.338 17.6538 27.6499 16.9616 29.5477 16.6251C30.145 16.5176 30.7471 16.4101 31.3492 16.2964Z" fill="#534741"/>
<path d="M18.7095 16.7765C18.9007 15.3591 19.5265 14.0491 20.6816 13.3143C22.3582 12.2476 24.896 12.5479 25.9153 14.373C26.5805 15.5645 26.5916 17.0831 26.4099 18.4026C26.3261 19.0188 26.1634 19.6351 25.8331 20.1692C25.6119 20.5279 24.8629 21.4539 24.3635 21.3813C24.196 21.356 24.0222 21.3338 23.8784 21.3228C23.85 21.3196 23.8215 21.318 23.7931 21.318C23.2811 21.3196 22.8039 21.4492 22.3614 21.7052C22.0311 21.8838 21.7656 22.1271 21.5665 22.4353C20.9376 23.1226 19.9911 21.9359 19.6576 21.435C18.8517 20.2214 18.4851 18.4263 18.7095 16.7765Z" fill="#534741"/>
<path d="M51.459 68.2866C51.4384 68.2945 51.4195 68.3056 51.399 68.3135C52.0026 78.3968 52.355 98.505 53.1261 106.994C41.3583 106.269 23.9381 106.929 13.5908 105.671C13.3111 100.498 13.5877 88.2636 15.013 72.0744C15.1521 70.4847 15.3132 68.8523 15.4981 67.1836C15.5045 67.1315 15.5092 67.0809 15.5155 67.0272L15.4934 67.013C13.9606 65.9653 12.2508 65.0235 10.5363 64.0975C8.14857 62.808 5.75298 61.5517 3.803 60.09C3.63234 59.9605 6.06744 55.7808 6.17331 55.5612C9.49492 48.643 15.2311 41.3108 23.1274 39.6184C23.592 39.5189 28.1335 39.0021 28.1414 38.7967C28.1398 38.8647 28.1382 38.9326 28.1382 39.0021C28.1382 41.7312 30.349 43.9419 33.078 43.9419C35.8054 43.9419 38.0161 41.7312 38.0161 39.0021C38.0161 38.9358 38.0145 38.8694 38.0114 38.8046C42.1531 39.6469 46.1053 41.5163 49.3115 44.2437C52.2254 46.7215 54.5436 49.8724 56.0732 53.3741C56.3576 54.022 56.62 54.6794 56.8681 55.3431C57.8936 58.1021 58.6916 60.9386 59.5513 63.7498C58.5178 64.5131 57.3785 65.2479 56.1759 65.9416C54.6763 66.8059 53.0755 67.6024 51.459 68.2866Z" fill="#00AEFF"/>
<path d="M51.3297 59.0189C51.5114 62.105 51.2918 65.2023 51.4593 68.2868C53.0758 67.601 54.675 66.8062 56.1762 65.9418C55.4509 65.1833 54.822 64.33 54.3131 63.4071C53.0964 61.2012 52.5939 58.6871 51.9223 56.2598C51.2491 53.8311 50.3784 51.5176 48.5596 49.7715C50.4495 52.431 51.1369 55.7652 51.3297 59.0189Z" fill="#0081BC"/>
<path d="M32.6344 18.3837C32.8303 18.3631 33.0263 18.3789 33.2222 18.3947C33.5667 18.4232 33.9127 18.4516 34.2588 18.4801C34.3726 18.4895 34.5164 18.4832 34.567 18.3789C34.5907 18.3284 34.5828 18.2667 34.5607 18.2146C34.4769 18.0139 34.232 17.9475 34.0171 17.9191C33.4861 17.8527 32.9235 17.8891 32.4258 18.0992C32.3278 18.1403 31.7716 18.3947 31.8111 18.5259C31.8459 18.6412 32.5238 18.3947 32.6344 18.3837Z" fill="#211A17"/>
<path d="M40.1731 18.1497C39.9771 18.1434 39.7827 18.1734 39.5884 18.2035C39.2455 18.2572 38.9026 18.3109 38.5612 18.3646C38.4475 18.382 38.3037 18.3868 38.2468 18.2872C38.2183 18.2367 38.2215 18.175 38.2389 18.1213C38.3084 17.9159 38.5486 17.8305 38.7603 17.7879C39.285 17.682 39.8491 17.6773 40.3611 17.8511C40.4607 17.8843 41.0358 18.0976 41.0058 18.2303C40.9789 18.3488 40.2852 18.1529 40.1731 18.1497Z" fill="#211A17"/>
<path d="M39.5583 27.2391C39.1711 28.2472 38.4585 28.9425 37.5941 29.0136C36.7613 29.0832 35.9712 28.557 35.4245 27.6847C35.0499 27.0858 34.7892 26.3257 34.707 25.4803L34.8698 25.4661L39.6831 25.0694L39.8617 25.0552C39.917 25.8548 39.8016 26.6086 39.5583 27.2391Z" fill="#CE7872"/>
<path d="M39.6829 25.0694C39.1488 25.8785 38.3303 26.4236 37.3774 26.5026C36.4245 26.5816 35.5302 26.1771 34.8696 25.466L39.6829 25.0694Z" fill="white"/>
<path d="M39.5581 27.2391C39.171 28.2472 38.4583 28.9425 37.594 29.0136C36.7612 29.0832 35.9711 28.557 35.4243 27.6847C35.6598 27.5298 35.9047 27.3939 36.1623 27.2801C36.9034 26.9499 37.7362 26.8061 38.5373 26.9341C38.8945 26.991 39.2326 27.0968 39.5581 27.2391Z" fill="#EA8C8B"/>
<path d="M34.5411 21.5011C34.5616 22.1569 34.2014 22.7005 33.7384 22.7132C33.2754 22.7274 32.885 22.2075 32.8645 21.5517C32.8455 20.8943 33.2042 20.3523 33.6672 20.3381C34.1302 20.3239 34.5221 20.8453 34.5411 21.5011Z" fill="#211A17"/>
<path d="M33.9342 21.1203C33.664 21.1282 33.6767 21.547 33.9469 21.5391C34.2171 21.5312 34.2045 21.1124 33.9342 21.1203Z" fill="white"/>
<path d="M39.0145 21.3671C39.0335 22.0229 39.4254 22.5428 39.8884 22.5286C40.3514 22.5144 40.7101 21.9724 40.6911 21.3166C40.6706 20.6592 40.2803 20.1393 39.8173 20.1535C39.3543 20.1678 38.994 20.7098 39.0145 21.3671Z" fill="#211A17"/>
<path d="M40.1002 20.8106C39.8315 20.8185 39.8426 21.2373 40.1128 21.2294C40.383 21.2215 40.3704 20.8011 40.1002 20.8106Z" fill="white"/>
<path d="M37.5815 22.8415C37.3081 22.6282 36.8831 22.6345 36.6255 22.8668L37.3729 24.1594C37.5815 24.1468 37.7522 23.973 37.828 23.7786C37.956 23.4562 37.8549 23.0549 37.5815 22.8415Z" fill="#CE7872"/>
<path d="M30.9792 22.914C29.7466 22.9993 28.8032 23.8795 28.8728 24.8813C28.9423 25.8832 29.9978 26.6259 31.2304 26.5405C32.463 26.4552 33.4064 25.5734 33.3368 24.5716C33.2673 23.5697 32.2117 22.8286 30.9792 22.914Z" fill="#F9BFBB"/>
<path d="M42.8431 23.5206C42.8052 22.9596 42.2126 22.5425 41.5205 22.5899C40.8284 22.6389 40.299 23.1335 40.3385 23.6944C40.378 24.257 40.9706 24.6742 41.6611 24.6252C42.3533 24.5778 42.8826 24.0832 42.8431 23.5206Z" fill="#F9BFBB"/>
<path d="M17.3895 54.8964C16.4524 58.8786 15.8188 62.9349 15.4932 67.0135C13.9604 65.9658 12.2507 65.024 10.5361 64.098C11.045 63.744 11.5396 63.3695 12.0184 62.9729C13.7313 61.5491 15.2246 59.8077 16.0985 57.7582C16.5236 56.7532 16.7147 55.7529 17.3895 54.8964Z" fill="#0081BC"/>
</g>
</g>
<defs>
<clipPath id="clip0_1065_49899">
<rect width="64" height="64" rx="32" fill="white"/>
</clipPath>
<clipPath id="clip1_1065_49899">
<rect width="72" height="72" fill="white"/>
</clipPath>
</defs>
</svg>
