<svg width="64" height="64" viewBox="0 0 64 64" fill="none" xmlns="http://www.w3.org/2000/svg">
<g clip-path="url(#clip0_1065_49894)">
<rect width="64" height="64" rx="32" fill="#EBFEF4"/>
<g clip-path="url(#clip1_1065_49894)">
<rect width="70" height="70" transform="translate(-3)" fill="#EBFEF4"/>
<path d="M45.2085 17.205C45.9146 21.7356 43.5951 25.8591 40.0279 26.4153C36.4608 26.9714 32.9967 23.7482 32.2906 19.2176C31.5846 14.6855 33.904 10.562 37.4714 10.0059C41.0385 9.44971 44.5026 12.6729 45.2085 17.205Z" fill="#603813"/>
<path d="M27.4629 37.8683L40.5368 38.3984L36.8005 46.1368L28.6996 45.8142L27.4629 37.8683Z" fill="black"/>
<path d="M9.16356 116.831C13.2866 119.942 58.383 119.542 58.3522 117.33C58.2774 111.936 57.4455 106.109 56.6721 100.406C56.2341 97.181 55.815 93.9978 55.5632 90.9543C54.9678 83.7859 52.9555 61.199 52.672 57.2046C52.4892 54.599 52.0323 48.6903 51.9784 47.9867C51.6473 47.7531 51.3092 47.5304 50.9655 47.3168L50.9338 47.2984C50.681 47.1494 50.3906 46.9788 50.0773 46.7991L50.0701 46.7945C48.7263 46.011 46.962 45.0154 45.7953 44.4623C42.878 43.0766 39.8796 42.2301 36.7257 41.7753C31.4764 41.0195 26.2729 41.932 22.4515 42.9982C19.0219 43.9554 16.7033 45.0369 16.4598 45.1537C16.4455 45.1598 16.4385 45.1629 16.4385 45.1629C16.4385 45.1629 18.624 46.1001 19.21 49.6996C21.703 65.0106 14.1796 77.1982 14.1796 77.1982C14.1796 77.1982 12.276 90.5273 11.1741 97.3255C10.474 101.641 8.58728 116.396 9.16356 116.831Z" fill="#CEFDE3"/>
<path d="M27.2441 30.6415C27.3873 31.4343 27.5274 32.2285 27.6691 33.0197C27.6785 33.0674 27.6861 33.1165 27.694 33.1626C27.698 33.1857 27.7023 33.2056 27.7063 33.2271C27.8943 34.278 28.0808 35.3273 28.2094 36.3827C28.263 36.8052 28.3054 37.2323 28.3354 37.6594C28.3698 38.1357 28.3885 38.6166 28.3933 39.0943C28.407 40.0115 28.3819 40.9287 28.3538 41.8428C28.338 42.3605 28.3305 42.8767 28.3268 43.3945C28.3225 43.9921 28.0682 44.6389 28.3119 45.2196C28.6202 45.954 29.3252 46.335 29.9464 46.7667C30.6228 47.2368 31.3593 47.6209 32.1307 47.9097C33.6438 48.4766 35.3511 48.6871 36.9166 48.2062C39.9098 47.2875 39.1165 43.9967 39.1062 41.6139L39.1033 40.9548L39.0985 39.2096L39.0891 36.7269C38.2334 36.5164 37.4321 36.1277 36.6383 35.7421C34.0047 34.4531 31.388 33.1334 28.823 31.7123C28.7539 31.6739 28.688 31.6371 28.6233 31.6017C28.1077 31.3144 27.6857 31.0702 27.2441 30.6415Z" fill="#FFCFCA"/>
<path d="M39.1069 41.6138C36.143 40.8487 33.2913 39.6627 30.7012 38.0419C29.8775 37.5272 29.0231 36.9757 28.2101 36.3827C28.0823 35.3272 27.8945 34.2795 27.7074 33.2286C27.5533 32.3667 27.3997 31.5033 27.2456 30.6415C27.7417 31.1239 28.2153 31.3758 28.824 31.7123C31.3883 33.1318 34.0052 34.4546 36.6393 35.742C37.4329 36.1292 38.2338 36.5163 39.0908 36.7268L39.1069 41.6138Z" fill="#F9BFBB"/>
<path d="M28.8183 31.2897C27.4665 32.233 25.6037 32.3974 24.115 31.6846C22.8573 31.0839 21.9152 29.8748 21.6098 28.5167C21.5549 28.2709 21.5208 28.0204 21.5084 27.7654C21.4878 27.3214 21.5366 26.8697 21.688 26.4519C22.0673 25.421 23.1155 24.6928 24.2106 24.6206C25.308 24.5499 26.4078 25.1061 27.0662 25.9848L27.7397 28.0251L28.8183 31.2897Z" fill="#FFCFCA"/>
<path d="M29.2294 124.617C27.816 126.737 13.2263 120.436 8.38188 118.433C4.71239 116.915 6.04453 114.735 6.43844 111.896C7.59744 103.531 9.00209 96.3268 10.3837 88.6252C10.91 85.6878 11.4349 82.6766 11.9418 79.5041C11.963 79.3735 11.9825 79.2445 12.0037 79.1139C11.3854 81.1541 10.2617 85.3483 9.79529 86.8078C7.1453 95.1116 2.90507 114.723 -1.51184 115.429C-2.27324 115.551 -10.6758 112.595 -11.0521 111.542C-13.7022 104.122 -5.48691 76.9216 -4.16188 73.5571C-1.86509 67.7267 5.39083 52.7185 7.32182 50.2358C11.032 45.4655 23.0688 42.6648 23.6642 42.4973C25.3992 42.0057 27.1498 41.5617 28.9114 41.17C30.6551 45.3073 31.0845 49.3785 31.5297 53.8446C33.9024 77.679 30.3408 122.948 29.2294 124.617Z" fill="#20CE86"/>
<path d="M33.1164 46.349L32.9875 47.0234L32.8586 47.7086L32.6429 48.8378L32.5158 49.5122L32.1606 51.3743L32.037 52.0257L31.5847 54.4039L24.2827 42.2854L24.7899 41.5818L25.1378 41.0978L25.7491 40.2482L26.0954 39.7689L26.6167 39.0453L26.9576 38.5706L27.4629 37.8685L33.1164 46.349Z" fill="#363740"/>
<path d="M32.9875 47.0232L32.8586 47.7084C31.7119 46.2535 30.5918 44.7801 29.4964 43.2899C28.4876 41.9165 27.4188 40.5537 26.6167 39.0451L26.9576 38.5704C27.3604 39.3585 27.8481 40.0975 28.3623 40.8211C29.8569 42.9243 31.3993 44.9906 32.9875 47.0232Z" fill="white"/>
<path d="M32.6428 48.8376L32.5157 49.512C31.2135 47.9742 29.9346 46.4164 28.7189 44.8124C27.6218 43.3652 26.5918 41.8581 25.749 40.248L26.0953 39.7687C26.4875 40.5384 26.924 41.2866 27.3921 42.0133C28.6713 44.0028 30.1695 45.8418 31.6694 47.6654C31.9909 48.0571 32.316 48.4489 32.6428 48.8376Z" fill="white"/>
<path d="M32.1608 51.3742L32.0371 52.0256C30.5231 50.3772 29.1274 48.6196 27.8641 46.7714C27.1203 45.6837 26.4225 44.5637 25.7741 43.4146C25.4454 42.8354 25.1309 42.2485 24.8289 41.657C24.8166 41.6324 24.8023 41.6063 24.79 41.5817L25.138 41.0978C25.2282 41.2714 25.3165 41.4481 25.4066 41.6232C25.7476 42.2823 26.1027 42.9306 26.4737 43.5728C27.7846 45.8358 29.2864 47.9882 30.9613 49.9946C31.3516 50.4632 31.7528 50.9241 32.1608 51.3742Z" fill="white"/>
<path d="M93.0091 73.2037C89.7849 77.7174 66.0153 103.415 58.7345 88.3979C58.6285 88.1782 58.4978 87.8463 58.3494 87.4331C57.5633 85.2515 56.3018 80.8284 55.7824 79.1139C55.8034 79.2445 55.8229 79.3735 55.8441 79.5041C55.8848 79.7622 55.9272 80.0188 55.9678 80.2738C56.4361 83.1667 56.9183 85.9259 57.4024 88.6252C58.784 96.3268 60.1885 103.531 61.3475 111.896C61.7414 114.735 63.0736 116.915 59.4041 118.433C54.5598 120.436 39.97 126.737 38.5567 124.617C37.8517 123.56 38.426 104.744 37.887 85.2177C37.5761 73.9319 35.3871 62.5739 36.2564 53.8446C36.7015 49.3785 37.1309 45.3073 38.8746 41.17C40.6361 41.5617 42.3869 42.0057 44.1219 42.4973C44.7172 42.6648 56.7539 45.4655 60.4641 50.2358C62.3951 52.7185 70.7482 73.3804 70.7482 73.3804C70.7482 73.3804 77.8982 68.0448 86.4723 64.3699C87.709 63.8399 93.8925 71.967 93.0091 73.2037Z" fill="#20CE86"/>
<path d="M34.6694 46.349L34.7983 47.0234L34.9274 47.7086L35.1429 48.8378L35.2701 49.5122L35.6252 51.3743L35.7488 52.0257L36.2011 54.4039L43.5031 42.2854L42.9961 41.5818L42.648 41.0978L42.0367 40.2482L41.6904 39.7689L41.1691 39.0453L40.8282 38.5706L40.3229 37.8685L34.6694 46.349Z" fill="#363740"/>
<path d="M34.7983 47.0232L34.9274 47.7084C36.0739 46.2535 37.1941 44.7801 38.2895 43.2899C39.2982 41.9165 40.3672 40.5537 41.1691 39.0451L40.8282 38.5704C40.4254 39.3585 39.9378 40.0975 39.4237 40.8211C37.929 42.9243 36.3867 44.9906 34.7983 47.0232Z" fill="white"/>
<path d="M35.1431 48.8376L35.2703 49.512C36.5723 47.9742 37.8514 46.4164 39.067 44.8124C40.1642 43.3652 41.1942 41.8581 42.0368 40.248L41.6905 39.7687C41.2983 40.5384 40.8619 41.2866 40.3937 42.0133C39.1146 44.0028 37.6164 45.8418 36.1165 47.6654C35.7949 48.0571 35.4698 48.4489 35.1431 48.8376Z" fill="white"/>
<path d="M35.6255 51.3742L35.7492 52.0256C37.2634 50.3772 38.6591 48.6196 39.9223 46.7714C40.666 45.6837 41.3639 44.5637 42.0123 43.4146C42.3409 42.8354 42.6554 42.2485 42.9576 41.657C42.9698 41.6324 42.984 41.6063 42.9964 41.5817L42.6483 41.0978C42.5583 41.2714 42.4698 41.4481 42.3798 41.6232C42.0388 42.2823 41.6836 42.9306 41.3126 43.5728C40.0017 45.8358 38.4999 47.9882 36.8252 49.9946C36.4347 50.4632 36.0337 50.9241 35.6255 51.3742Z" fill="white"/>
<path d="M44.1847 33.6866C43.5316 35.2813 42.6261 36.7315 41.1425 37.6656C39.8265 38.4922 38.2425 38.8977 36.6915 38.8301C34.9749 38.7549 33.3242 38.1557 31.864 37.237C31.1372 36.7776 30.4566 36.2414 29.8403 35.6469C28.7625 34.6114 27.8566 33.4116 27.076 32.1395C25.8084 30.0701 24.785 27.7134 24.2785 25.2783C23.7007 22.5268 23.7806 19.6738 24.9021 17.0344C25.3562 15.9575 25.9921 14.9589 26.7748 14.0893C30.0727 10.4175 35.7423 9.78455 39.7732 12.6359C41.8727 14.1246 43.4391 16.3584 44.2753 18.7781C44.541 19.5448 44.7696 20.3314 44.9553 21.1302C45.9212 25.2675 45.7921 29.7582 44.1847 33.6866Z" fill="#FFCFCA"/>
<path d="M35.8426 26.3093C35.6264 26.32 35.3284 25.9774 35.2461 25.4658C35.2027 25.197 35.2288 24.9281 35.3181 24.7284C35.349 24.6593 35.435 24.4949 35.5673 24.4749L35.5877 24.4718C35.8039 24.4611 36.1019 24.8052 36.1841 25.3153C36.2276 25.5841 36.2013 25.853 36.1121 26.0542C36.0813 26.1234 35.9952 26.2862 35.8629 26.3077L35.8426 26.3093Z" fill="#1F3C49"/>
<path d="M42.3201 25.6808C42.1375 25.69 41.8314 25.3858 41.748 24.8665C41.7058 24.6053 41.7313 24.3457 41.8176 24.1521C41.8797 24.0123 41.9658 23.9232 42.0536 23.9094L42.0725 23.9079C42.255 23.8986 42.561 24.2028 42.6446 24.7221C42.6865 24.9833 42.6613 25.2429 42.575 25.4365C42.5126 25.5763 42.4267 25.6654 42.339 25.6792L42.3201 25.6808Z" fill="#1F3C49"/>
<path d="M39.0693 26.8577C39.2388 26.6718 39.525 26.5919 39.7952 26.6411C40.0702 26.6872 40.3237 26.8823 40.4509 27.1342C40.5849 27.3831 40.601 27.7027 40.4811 27.9546C40.3672 28.205 40.1377 28.394 39.888 28.4263C40.0624 28.2511 40.1603 28.0545 40.1975 27.8578C40.2346 27.6643 40.1995 27.4784 40.1133 27.3109C40.0255 27.1435 39.8928 27.0082 39.7121 26.9284C39.5307 26.8469 39.3125 26.8147 39.0693 26.8577Z" fill="#1F3C49"/>
<path d="M36.0418 21.6464C35.7371 21.4974 35.3916 21.4083 35.043 21.3883C34.6781 21.3699 34.3103 21.4267 33.9794 21.5542C33.7202 21.6541 33.5906 21.946 33.6904 22.2041C33.7408 22.3347 33.8444 22.4392 33.9736 22.4914C34.0247 22.5114 34.0785 22.5236 34.1334 22.5267C34.2045 22.5313 34.2745 22.519 34.3415 22.4929C34.5426 22.4161 34.7671 22.3808 34.9906 22.3931C35.2036 22.4053 35.4131 22.4591 35.5975 22.5498C35.6588 22.5805 35.7244 22.5974 35.7926 22.602C35.9941 22.6128 36.182 22.5021 36.2716 22.3209C36.3942 22.072 36.2914 21.7693 36.0418 21.6464Z" fill="#1F3C49"/>
<path d="M42.2255 20.5986C42.1086 20.5725 41.9879 20.5572 41.8663 20.551C41.3317 20.5218 40.7983 20.6693 40.3646 20.9658C40.1358 21.1225 40.077 21.4375 40.234 21.6664C40.3025 21.7662 40.4048 21.8385 40.5218 21.8692C40.5545 21.8784 40.5884 21.883 40.6224 21.8845C40.7324 21.8907 40.843 21.86 40.9339 21.797C41.1821 21.628 41.5015 21.5404 41.8101 21.5558C41.88 21.5604 41.9493 21.5696 42.016 21.5834C42.0421 21.5896 42.0679 21.5926 42.0937 21.5942C42.3431 21.608 42.5615 21.4405 42.6135 21.1947C42.6704 20.9274 42.4982 20.6601 42.2255 20.5986Z" fill="#1F3C49"/>
<path d="M35.7177 24.8081C35.4019 24.742 35.2999 25.2321 35.616 25.2982C35.9319 25.3642 36.0339 24.8726 35.7177 24.8081Z" fill="white"/>
<path d="M42.2972 24.1734C41.9815 24.1073 41.8795 24.5989 42.1956 24.6635C42.5115 24.7295 42.6135 24.2379 42.2972 24.1734Z" fill="white"/>
<path d="M42.9998 29.3448C43.0885 30.2205 42.931 31.0532 42.5903 31.763C42.045 32.9014 41.0277 33.711 39.7963 33.8355C38.535 33.9645 37.3502 33.3423 36.5914 32.293C36.1431 31.68 35.8426 30.9195 35.7573 30.0792C35.7543 30.0484 35.7552 30.0177 35.752 29.9854L42.9863 29.2526C42.9897 29.2849 42.9968 29.3156 42.9998 29.3448Z" fill="#D55454"/>
<path d="M42.6924 29.2834C41.9687 30.2237 40.8346 30.8858 39.5107 31.0195C38.187 31.1531 36.9432 30.7337 36.0454 29.9564L42.6924 29.2834Z" fill="white"/>
<path d="M42.5902 31.763C42.0449 32.9014 41.0276 33.711 39.7962 33.8355C38.5349 33.9645 37.3501 33.3423 36.5913 32.293C37.799 31.8966 39.0649 31.6723 40.3355 31.6354C41.0893 31.6139 41.8438 31.657 42.5902 31.763Z" fill="#F37C7C"/>
<path d="M35.4377 28.3002C35.4814 29.1221 34.6108 29.8381 33.493 29.898C32.3752 29.9564 31.4334 29.3372 31.3898 28.5153C31.346 27.6918 32.2168 26.9759 33.3344 26.916C34.4523 26.8576 35.3939 27.4767 35.4377 28.3002Z" fill="#F9BFBB"/>
<path d="M44.8642 26.9604C44.8937 27.5166 44.3057 28.0005 43.5508 28.0404C42.796 28.0804 42.1601 27.6625 42.1305 27.1064C42.101 26.5502 42.6891 26.0663 43.4439 26.0263C44.1988 25.9864 44.8347 26.4043 44.8642 26.9604Z" fill="#F9BFBB"/>
<path d="M58.3488 87.433C57.5626 85.2515 56.3012 80.8284 55.7817 79.1139C55.8028 79.2445 55.8223 79.3735 55.8435 79.5041C55.8842 79.7622 55.9266 80.0188 55.9672 80.2738L55.7304 79.034L54.4478 59.8454C54.4478 59.8454 58.4883 77.954 58.5448 84.1069C58.5502 84.7322 58.4565 86.0857 58.3488 87.433Z" fill="#149C64"/>
<path d="M23.6165 14.8743C23.2869 13.593 23.705 12.1719 24.5339 11.1979C25.3627 10.2223 26.5532 9.66306 27.7681 9.46334C28.9831 9.26209 30.2276 9.39574 31.4381 9.64155C32.6038 9.87661 33.7716 10.2161 34.9541 10.1455C36.4058 10.0579 37.8109 9.32047 38.7672 8.14519C39.6729 7.03136 41.6206 7.19574 42.7988 7.97312C43.9772 8.75049 45.1383 10.1147 45.3811 11.5804C45.614 12.9861 45.482 15.3275 43.2832 16.6149C40.6915 18.1328 32.5416 17.5951 31.4409 17.5689C30.3402 17.5413 29.1576 17.8286 28.4312 18.7166C26.9888 20.4787 26.7073 23.1335 26.6051 25.4871C25.7539 25.0047 24.9424 24.805 23.9834 24.8111C23.5611 24.8127 23.1008 24.8465 22.5852 25.2198C21.6757 23.4592 21.1402 21.568 20.7237 19.6061C20.5172 18.6321 20.374 17.6273 20.4963 16.6395C20.5428 16.2646 20.6316 15.8851 20.8327 15.5748C21.136 15.1062 21.6648 14.8543 22.1924 14.7974C22.7198 14.7421 23.1043 14.7222 23.6165 14.8743Z" fill="#603813"/>
</g>
</g>
<defs>
<clipPath id="clip0_1065_49894">
<rect width="64" height="64" rx="32" fill="white"/>
</clipPath>
<clipPath id="clip1_1065_49894">
<rect width="70" height="70" fill="white" transform="translate(-3)"/>
</clipPath>
</defs>
</svg>
