<svg width="64" height="64" viewBox="0 0 64 64" fill="none" xmlns="http://www.w3.org/2000/svg">
<g clip-path="url(#clip0_1065_49880)">
<rect width="64" height="64" rx="32" fill="#EBFEF4"/>
<g clip-path="url(#clip1_1065_49880)">
<rect width="74" height="74" transform="translate(-5)" fill="#EBFEF4"/>
<path d="M45.7294 50.2118C45.7278 50.3385 45.7261 50.4652 45.7213 50.5919C45.6969 51.6703 45.6401 52.7568 45.5556 53.8466C45.3786 56.1544 45.0798 58.4818 44.7013 60.8107C43.8682 65.9332 42.6452 71.0507 41.4677 75.9295C40.7629 76.4038 39.6 77.1492 38.7961 77.4205C31.8482 79.7608 27.2795 79.3077 20.0604 78.0279C19.0193 73.8328 18.4753 69.5371 18.1959 65.2234C17.8922 60.5379 17.5918 55.8426 17.6356 51.1489C17.7802 50.6828 17.9328 50.2167 18.0936 49.7538C18.1228 49.6694 18.1521 49.5833 18.1829 49.4988C18.2447 49.3348 18.3064 49.1708 18.3713 49.0084C18.5419 48.5715 18.7222 48.1378 18.9106 47.7091C19.1639 47.1325 19.4368 46.5641 19.7242 46.0054C20.827 44.7305 22.0142 43.5286 23.2761 42.4112C24.6388 41.2029 26.1297 40.0693 27.8707 39.5301C29.0677 39.1582 30.3426 39.0851 31.5964 39.1484C32.3776 39.189 33.1556 39.2832 33.9221 39.4294C36.7789 39.9751 39.4977 41.2419 41.7601 43.0706C42.4731 43.6439 43.1389 44.2741 43.7496 44.9546C43.8584 45.0764 43.9656 45.1998 44.0712 45.3249C44.703 46.0687 45.2828 46.8905 45.5426 47.8325C45.7554 48.6023 45.744 49.4144 45.7294 50.2118Z" fill="#FFCFCA"/>
<path d="M41.7246 13.6513C41.3543 13.1251 40.9597 12.6151 40.539 12.1263C39.6718 11.1161 38.6372 10.2293 37.5068 9.51145C33.2614 6.81706 27.5299 7.25558 23.8984 10.7831C22.2045 12.4267 21.1082 14.5884 20.4034 16.8232C19.1284 20.8737 18.7955 25.15 18.6997 29.3629C18.6753 30.4186 18.6737 31.4742 18.6493 32.5283C18.6428 32.8336 18.4934 35.3753 18.7013 35.4582C19.4322 35.7473 20.1744 36.0006 20.9198 36.2377C24.9703 37.5305 29.193 38.3621 33.4173 38.1948C37.6384 38.0275 41.8741 36.8175 45.3123 34.3051C45.4536 33.1406 45.5234 32.0102 45.5299 30.8766C45.5478 27.4546 45.6761 23.9595 44.8705 20.6057C44.2728 18.1225 43.2009 15.748 41.7246 13.6513Z" fill="#3A374C"/>
<path d="M36.4727 27.9484L36.5215 31.7845L36.6319 40.4702L26.6924 41.0793L26.9409 36.0169L27.1618 31.5328L36.4727 27.9484Z" fill="#FFCFCA"/>
<path d="M36.4728 27.9484L36.5215 31.7845C35.4691 32.8223 34.3371 33.7708 33.0687 34.5227C31.2269 35.6109 29.0539 36.2573 26.9409 36.0169L27.1618 31.5328L36.4728 27.9484Z" fill="#FCB9B4"/>
<path d="M40.5131 22.0044L40.5147 22.006C40.0665 24.2164 39.1878 26.344 38.0039 28.1435C36.089 31.0555 32.9107 33.6622 29.3181 33.9529C27.4829 34.1007 25.6314 33.4998 24.2996 32.2103C23.9764 31.8968 23.6792 31.5476 23.4145 31.1643C21.0206 27.7001 20.6714 23.1039 21.7352 18.9754C22.1964 17.1857 22.9208 15.4868 23.8611 14.004C24.8843 12.388 26.3785 10.9767 28.0854 10.0233C30.9162 8.44471 34.3366 8.12314 37.1869 10.2101C38.4748 11.1521 39.4185 12.5196 39.9999 14.0089C40.0226 14.0641 40.0437 14.1193 40.0632 14.1746C40.9678 16.6237 41.0474 19.3717 40.5131 22.0044Z" fill="#FFCFCA"/>
<path d="M28.9382 11.6355C28.8635 12.5239 28.4185 13.3376 27.9085 14.0717C27.7965 14.2325 27.6812 14.3933 27.561 14.5492C26.0879 16.4819 24.0854 18.0102 21.8279 18.9164C21.7954 18.9294 21.758 18.9456 21.7158 18.9635C22.1771 17.1705 22.903 15.4668 23.845 13.9824C24.8715 12.3631 26.3673 10.9485 28.0791 9.99357C28.274 10.0667 28.4493 10.1771 28.589 10.3314C28.7644 10.5246 28.8651 10.7683 28.9138 11.0265C28.9512 11.2263 28.9561 11.4342 28.9382 11.6355Z" fill="#FCB9B4"/>
<path d="M40.5136 22.0037L40.5152 22.0054C39.7551 22.5689 38.9999 23.1536 38.0985 23.4135C37.647 23.545 37.1744 23.5889 36.7034 23.5889C35.271 23.5905 33.8401 23.1958 32.6107 22.4585C30.8664 21.4109 29.5768 19.7154 28.7177 17.8704C28.2239 16.8115 27.8618 15.7006 27.5694 14.5686C27.3502 13.7305 27.1715 12.8779 27.0059 12.0252C27.4525 11.3772 28.1509 11.1856 28.9191 11.054C28.9678 11.0443 29.0149 11.0361 29.0652 11.028C31.9204 10.5587 34.8974 11.1515 37.483 12.4507C38.3665 12.8957 39.2062 13.4187 40.0004 14.0083C40.0231 14.0635 40.0442 14.1187 40.0637 14.1739C40.9683 16.6231 41.0479 19.3711 40.5136 22.0037Z" fill="#FCB9B4"/>
<path d="M70.2102 65.4032C66.1532 65.5071 56.8065 59.9933 52.9443 58.02C52.2184 57.6465 50.8427 56.8864 49.256 55.9834C48.0801 55.3142 46.789 54.5704 45.5563 53.8461C43.4157 52.5874 41.4538 51.3937 40.593 50.7927C39.9125 50.3152 39.2206 49.776 38.5499 49.1816C36.2079 47.1109 34.1421 44.3791 33.8189 41.3356C33.8026 41.1764 33.801 40.0363 33.9228 39.4289C33.9683 39.1982 34.0316 39.0456 34.1193 39.0521C41.0445 39.5669 47.5279 42.5894 53.5907 45.9773C55.5348 47.0638 56.5953 47.8239 58.1804 48.8617C58.5199 49.0858 58.8837 49.3213 59.2848 49.5747L59.3092 49.5893C59.2913 49.547 59.2735 49.5048 59.2556 49.4626C59.0088 48.8568 58.7846 48.2299 58.5848 47.6436C58.3802 47.0427 58.2032 46.4824 58.0489 46.0211C57.6656 44.8712 57.2092 43.2926 57.2092 43.2926C57.2092 43.2926 55.7589 39.4305 55.5721 39.3525C55.0881 39.1511 54.6237 38.9075 54.1868 38.6184C53.6508 38.2628 53.2708 37.7934 52.7787 37.389C51.9276 36.6922 50.9288 36.1612 50.0291 35.5245C49.7514 35.3264 49.4639 35.1136 49.3015 34.8099L49.2852 34.7774C49.1407 34.4786 49.1455 34.0823 49.3924 33.8582C49.5808 33.686 49.8634 33.6535 50.1151 33.7023C50.5569 33.79 50.9905 34.0336 51.3787 34.2528C51.6272 34.3941 51.8838 34.5695 52.1583 34.6572C52.574 34.7953 52.397 34.4445 52.2606 34.1846C52.1079 33.9004 51.9276 33.6341 51.7327 33.3791C51.3478 32.874 50.9077 32.4143 50.5033 31.9255L47.7586 28.6074C47.489 28.281 47.6822 27.7126 48.0785 27.5924C48.6307 27.4219 49.0156 28.1121 49.3339 28.4385C49.865 28.9826 50.401 29.5251 50.9353 30.0659C51.3202 30.4524 51.7068 30.8406 52.0949 31.2239C52.3191 31.448 52.4701 31.7647 52.6991 32.0002C52.7819 32.0863 53.0012 32.3413 53.1522 32.2601C53.3098 32.1756 53.1376 31.9141 53.0938 31.8004C52.9833 31.5276 52.8647 31.2612 52.7397 30.9933C52.4993 30.4784 52.2379 29.9733 51.9715 29.4698C51.4339 28.4434 50.8785 27.4202 50.4659 26.3353C50.4481 26.2898 50.4351 26.246 50.427 26.2021C50.2743 25.8757 50.4595 25.4469 50.8038 25.3333C51.4534 25.1189 51.7977 26.0381 52.0543 26.4604C52.4668 27.1441 52.855 27.8409 53.2675 28.5246C53.5729 29.0346 53.8798 29.5446 54.1884 30.0545C54.294 30.2348 54.6026 31.1687 54.9193 31.0647C55.1954 30.977 54.8429 30.2624 54.8088 30.0951C54.7243 29.6956 54.635 29.2977 54.5441 28.9014C54.3606 28.1056 54.1592 27.3163 53.9351 26.5302C53.9139 26.4571 53.9058 26.3857 53.909 26.3175C53.8376 26.0982 53.7661 25.8773 53.6914 25.6581C53.5599 25.2634 53.8896 24.8428 54.3037 24.8558C54.9014 24.8704 54.9907 25.6288 55.1336 26.0657C55.3594 26.7625 55.5786 27.4592 55.7898 28.1608C55.9408 28.6545 56.0854 29.1515 56.2283 29.6485C56.3046 29.9132 56.545 31.0972 57.0225 30.7496C57.115 30.6814 57.1085 30.4362 57.1134 30.3387C57.1362 30.0253 57.0858 29.7135 57.0679 29.4016C57.0192 28.5652 56.9803 27.7272 56.9559 26.8908C56.9413 26.4311 57.4545 26.1047 57.8702 26.3126C58.476 26.6163 58.2584 27.7856 58.2681 28.3248C58.2844 29.184 58.3315 30.0415 58.4111 30.8974C58.4273 31.0436 58.4403 31.1898 58.489 31.3294C58.5507 31.5081 58.6628 31.664 58.7668 31.8248L58.77 31.828C59.3563 32.7359 59.7006 33.7883 59.8387 34.8554C59.9085 35.3913 59.9247 35.9354 59.889 36.4746C59.8517 37.0203 59.6227 38.0467 59.6227 38.0467C59.6227 38.0467 60.0238 38.6866 60.2073 38.9303C60.4185 39.208 60.6134 39.4987 60.8131 39.7829C61.2305 40.3741 61.6479 40.9636 62.0637 41.5548C63.5092 43.6012 64.9936 45.6232 66.3627 47.7232C69.9081 53.1574 71.3552 55.9379 72.9143 59.6831C73.7719 61.7408 73.1287 65.3285 70.2102 65.4032Z" fill="#FFCFCA"/>
<path d="M49.2561 55.9839C48.0802 55.3147 46.7891 54.5709 45.5564 53.8465C45.3793 56.1544 45.0805 58.4817 44.7021 60.8107C43.0374 60.7685 41.3759 60.6808 39.7209 60.5054C38.6685 60.3933 37.5235 60.1968 36.8268 59.3994C36.3298 58.8293 36.1577 58.0465 36.1041 57.2929C35.9368 54.9379 36.7651 52.6187 37.8354 50.5139C38.0644 50.0656 38.3031 49.6222 38.55 49.1821C39.4562 47.5596 40.4356 45.9745 41.181 44.2741C41.3564 43.8729 41.5351 43.4474 41.7608 43.0706C42.0142 42.6467 42.326 42.2813 42.7645 42.0653L43.091 42.1692C43.2907 43.0998 43.5067 44.0321 43.7503 44.9546C44.2441 46.8336 44.8499 48.6819 45.6554 50.4489C45.6782 50.496 45.6993 50.5431 45.722 50.5918C46.6283 52.5489 47.7944 54.4052 49.2561 55.9839Z" fill="#FCB9B4"/>
<path d="M58.7825 35.1869C58.6931 34.5648 58.5356 33.9314 58.1491 33.4377C57.7625 32.944 57.0999 32.6224 56.4957 32.7962C56.1953 32.8823 55.9386 33.0788 55.6528 33.2103C54.9398 33.5368 54.0368 33.4556 53.4521 33.9785C53.3709 34.05 53.2978 34.1361 53.2735 34.24C53.2296 34.4398 53.3774 34.6265 53.5155 34.7776C53.7104 34.992 53.9264 35.2177 54.2106 35.2762C54.4412 35.3217 54.6767 35.2486 54.9106 35.2193C55.4904 35.1495 56.0653 35.359 56.5899 35.6156C56.866 35.7488 57.1356 35.8982 57.3841 36.0785C57.8876 36.4423 58.2936 36.9263 58.6931 37.4038C58.7451 37.4671 58.7776 37.5272 58.7825 37.6084C58.9075 36.8028 58.8994 35.9924 58.7825 35.1869Z" fill="#F9BFBB"/>
<path d="M38.3078 10.8139C37.0475 9.82644 35.5907 9.11346 33.9991 8.73667C33.1432 8.53203 32.2662 8.41022 31.3875 8.38261C30.2653 8.34525 29.627 8.76103 29.091 9.73387C28.6753 10.4891 28.4722 11.3482 28.4316 12.2058C28.4203 12.4721 28.4219 12.7401 28.4381 13.0113C28.6006 15.6602 30.0395 18.5122 31.6425 20.0063C32.9385 21.2163 34.5935 22.0478 36.3118 22.462C38.0252 22.8761 40.1658 22.9427 41.759 22.069C43.2646 21.2423 43.4676 19.5126 43.047 17.9859C42.5256 16.0906 41.392 14.1596 40.1593 12.6394C39.6055 11.9573 38.9851 11.3466 38.3078 10.8139Z" fill="#3A374C"/>
<path d="M31.6165 9.65094C31.5711 9.46417 31.5159 9.27577 31.4087 9.11498C31.1634 8.74469 30.6908 8.59203 30.2474 8.5498C28.6818 8.40525 27.2298 9.32125 25.9728 10.2681C25.1932 10.856 24.4266 11.4781 23.8224 12.2446C23.4099 12.7708 23.0802 13.3571 22.7814 13.9532C21.8687 15.7803 21.2271 17.7406 20.8828 19.7529L21.0777 20.9027C21.258 18.8158 21.9807 16.6833 23.5334 15.2768C25.5261 13.4725 28.4154 13.2029 31.0302 12.5808C31.2024 12.5402 31.3843 12.4899 31.5012 12.3567C31.5906 12.2528 31.6263 12.1131 31.6539 11.9783C31.8082 11.2117 31.7952 10.4126 31.6165 9.65094Z" fill="#3A374C"/>
<path d="M41.9032 23.8683C41.58 23.0855 40.7906 22.535 39.7821 22.5122C38.6322 22.4879 37.7325 23.4477 36.9967 24.3296L35.5886 29.6762C35.5513 29.8223 36.9643 29.7817 37.1332 29.7444C37.7016 29.6177 38.2781 29.3205 38.78 29.0314C39.8162 28.4305 40.7143 27.5908 41.3688 26.5871C41.8853 25.7978 42.2881 24.7925 41.9032 23.8683Z" fill="#FFCFCA"/>
<path d="M29.0503 8.83734C29.0714 9.05822 29.0779 9.28072 29.073 9.5016C29.0714 9.57793 29.0698 9.65427 29.0633 9.7306C29.0129 10.58 28.7855 11.4148 28.425 12.1814C28.308 12.4299 28.1765 12.6719 28.0336 12.9041C27.9995 12.9609 27.9638 13.0178 27.9248 13.073C27.1387 14.2813 26.0327 15.2428 24.8227 15.9964C24.1958 16.3862 23.5299 16.7256 22.8137 16.8832C22.6627 16.9156 22.5116 16.9384 22.3589 16.953C22.3411 16.9562 22.3249 16.9579 22.307 16.9579C22.1462 16.9709 21.9838 16.9741 21.8214 16.9644C21.4413 16.9449 21.0678 16.8588 20.7202 16.6915C20.9427 15.9996 21.1993 15.3192 21.4982 14.6565C22.9128 11.5187 25.258 9.3262 28.105 8.31276C28.4185 8.35499 28.7271 8.43131 29.0097 8.51902C29.0259 8.62458 29.0405 8.73178 29.0503 8.83734Z" fill="#3A374C"/>
<path d="M30.0166 27.1913C30.0653 27.7581 29.989 28.3006 29.812 28.7797C29.7746 28.8836 29.7324 28.9827 29.687 29.0801C29.2793 29.9296 28.5419 30.524 27.6584 30.6003C26.9552 30.6604 26.2877 30.3811 25.7696 29.8776C25.729 29.8386 25.6884 29.798 25.651 29.7558C25.1606 29.2263 24.826 28.4841 24.7529 27.6444C24.7448 27.5437 24.7399 27.4447 24.7383 27.3456L29.9793 26.8941C29.9955 26.9915 30.0085 27.0906 30.0166 27.1913Z" fill="#D55454"/>
<path d="M29.6869 29.0801C29.2792 29.9296 28.5419 30.524 27.6584 30.6003C26.9551 30.6604 26.2876 30.3811 25.7695 29.8776C25.8605 29.7233 25.9709 29.5787 26.0992 29.4439C26.5296 28.9973 27.1549 28.6904 27.8711 28.6286C28.4087 28.5815 28.9203 28.6806 29.354 28.8885C29.4709 28.9453 29.5813 29.0087 29.6869 29.0801Z" fill="#F37C7C"/>
<path d="M29.2939 26.9525C29.1949 27.0857 29.0779 27.2091 28.9464 27.3228C28.5225 27.6882 27.9427 27.9367 27.2898 27.9935C26.593 28.0536 25.9418 27.8815 25.4481 27.5566C25.3344 27.4819 25.2304 27.4007 25.1362 27.3114L29.2939 26.9525Z" fill="white"/>
<path d="M18.3738 23.6393C17.8281 21.5475 19.0835 19.402 21.1737 18.8563C23.2639 18.309 25.411 19.5644 25.9567 21.6563C26.504 23.7465 25.247 25.892 23.1568 26.4393C21.0665 26.985 18.9211 25.7295 18.3738 23.6393ZM24.5616 19.2721L28.9386 18.9034C28.2646 19.4832 27.7806 20.2547 27.5548 21.1106L26.0574 21.2324C25.7635 20.4187 25.2307 19.7463 24.5616 19.2721ZM26.2231 21.8333C26.2068 21.7554 26.1938 21.6774 26.1744 21.5994C26.1597 21.5491 26.1419 21.502 26.1272 21.4517L27.5029 21.3396C27.4769 21.4646 27.4558 21.5897 27.4412 21.718L26.2231 21.8333ZM27.766 23.2658C27.1894 21.0554 28.5163 18.7865 30.7267 18.2099C32.9371 17.6318 35.2044 18.9587 35.7826 21.1691C36.3607 23.3795 35.0339 25.6467 32.8234 26.2249C30.613 26.8031 28.3442 25.4762 27.766 23.2658ZM18.1578 23.6945C18.736 25.905 21.0032 27.2335 23.2136 26.6553C25.2713 26.1177 26.5625 24.1119 26.2637 22.0542L27.42 21.9454C27.3908 22.3969 27.4298 22.8597 27.55 23.3226C28.159 25.6516 30.5497 27.0516 32.8803 26.4425C35.2093 25.8335 36.6092 23.4428 36.0002 21.1122C35.3912 18.7832 32.9989 17.3833 30.6699 17.9923C30.1486 18.1287 29.6775 18.3577 29.2618 18.6517L24.2563 19.0723C23.3403 18.538 22.2213 18.3496 21.1169 18.6387C18.9081 19.2169 17.5796 21.4858 18.1578 23.6945Z" fill="#999999"/>
<path d="M27.4795 25.4211C27.3463 25.2668 27.1368 25.1693 26.9159 25.1661C26.6934 25.158 26.4612 25.2668 26.3183 25.4438C26.1737 25.6192 26.1088 25.8807 26.1965 26.0983C26.2744 26.3111 26.4742 26.4767 26.6837 26.4751C26.5018 26.3825 26.3978 26.2153 26.3637 26.048C26.3312 25.8823 26.3832 25.715 26.492 25.5867C26.5976 25.4536 26.7503 25.3659 26.9257 25.3399C27.1011 25.3139 27.2927 25.3431 27.4795 25.4211Z" fill="#B53434"/>
<path d="M30.8451 20.055C30.8955 20.042 30.9312 19.9949 30.9279 19.9397C30.9247 19.878 30.8727 19.8309 30.811 19.8341L29.1577 19.9218C29.0959 19.9251 29.0472 19.9787 29.0521 20.0404C29.0553 20.1021 29.1073 20.1492 29.169 20.146L30.8224 20.0583L30.8451 20.055Z" fill="#24404C"/>
<path d="M24.8149 20.6187C24.8669 20.6057 24.9026 20.557 24.8977 20.5018C24.8945 20.4401 24.8409 20.3946 24.7792 20.3995L23.2184 20.5115C23.1583 20.5164 23.1112 20.57 23.1161 20.6317C23.1193 20.6934 23.1729 20.7389 23.2346 20.7356L24.7954 20.622L24.8149 20.6187Z" fill="#24404C"/>
<path d="M29.0765 23.0028C29.0554 23.0028 29.0326 22.9979 29.0115 22.9882C28.9319 22.9524 28.8979 22.8582 28.9336 22.7803C29.1252 22.3596 29.5215 22.0673 29.9909 21.9975C30.366 21.9422 30.8598 22.1371 31.1911 22.4733C31.2528 22.535 31.2528 22.6341 31.1911 22.6958C31.1294 22.7559 31.0287 22.7559 30.9686 22.6942C30.7103 22.4343 30.3108 22.2687 30.038 22.3093C29.6726 22.3629 29.3672 22.587 29.2194 22.9102C29.1934 22.9687 29.1366 23.0028 29.0765 23.0028Z" fill="#FCB9B4"/>
<path d="M23.3272 23.1961C23.2947 23.1961 23.2623 23.1863 23.233 23.1652C23.1632 23.1132 23.1486 23.0142 23.2006 22.9443C23.4815 22.5675 23.9395 22.3044 24.3179 22.3044H24.3228C24.7987 22.3077 25.2307 22.5416 25.4808 22.9297C25.5263 23.0044 25.5052 23.1003 25.4321 23.1474C25.359 23.1945 25.2616 23.1733 25.2145 23.1003C25.0244 22.8014 24.6899 22.6211 24.3212 22.6195C24.0402 22.6195 23.6716 22.8388 23.4539 23.1327C23.4231 23.1733 23.376 23.1961 23.3272 23.1961Z" fill="#FCB9B4"/>
<path d="M28.9708 22.795C28.9497 22.795 28.9269 22.7901 28.9058 22.7804C28.8278 22.7447 28.7921 22.6521 28.8279 22.5725C29.0195 22.1519 29.4158 21.8595 29.8868 21.7897C30.2619 21.7345 30.7557 21.931 31.087 22.2656C31.1471 22.3273 31.1471 22.4263 31.0854 22.4881C31.0237 22.5482 30.9246 22.5481 30.8628 22.4864C30.6062 22.2266 30.2067 22.0609 29.9323 22.1015C29.5668 22.1551 29.2615 22.3792 29.1153 22.7024C29.0877 22.7609 29.0309 22.795 28.9708 22.795Z" fill="#24404C"/>
<path d="M23.2233 22.9883C23.1892 22.9883 23.1567 22.9786 23.129 22.9574C23.0592 22.9055 23.0446 22.808 23.0966 22.7382C23.3759 22.3598 23.8355 22.0983 24.214 22.0983H24.2172C24.6931 22.0999 25.1267 22.3338 25.3752 22.7236C25.4223 22.7967 25.4012 22.8941 25.3281 22.9412C25.2534 22.9867 25.1559 22.9656 25.1105 22.8925C24.9188 22.5936 24.5843 22.415 24.2156 22.4134C23.9346 22.4134 23.5659 22.631 23.3483 22.925C23.3174 22.9672 23.2704 22.9883 23.2233 22.9883Z" fill="#24404C"/>
<path d="M30.1841 44.5437C30.1127 44.6249 30.0396 44.7045 29.9649 44.784C28.625 46.1856 26.6436 47.2462 25.2257 48.2369C23.4051 49.5053 22.2682 50.7867 21.2434 52.7113C21.0388 53.0962 20.8423 53.4893 20.6522 53.8872C20.5174 54.1681 20.3875 54.4523 20.2608 54.7382C19.5852 56.2519 18.9973 57.8418 18.45 59.4513C17.4414 62.3942 16.5595 65.4053 15.4957 68.1598C14.2062 71.4957 12.7428 74.6854 10.9677 77.7907C9.22827 80.8392 7.37844 83.8243 5.42301 86.7412C4.4453 88.1996 3.43997 89.6418 2.41192 91.0646C2.05948 91.5518 1.06227 93.0021 0.449984 93.8385C0.315183 94.0221 0.19989 94.1763 0.112188 94.2835L0.102418 94.3111V94.3144C0.146269 94.9608 0.104061 95.7956 -0.105448 97.2102C-0.215887 97.9686 -0.329581 98.7287 -0.526098 99.4709C-0.833054 100.637 -1.58014 101.62 -2.09336 102.705C-2.19893 102.934 -2.30448 103.166 -2.46202 103.364C-3.19287 104.285 -4.05528 103.268 -4.02605 102.424C-4.02442 102.344 -4.01468 102.266 -4.00168 102.19C-3.92535 101.733 -3.67524 101.318 -3.47223 100.905C-3.35367 100.663 -3.24324 100.416 -3.1864 100.151C-3.1393 99.9305 -3.03858 99.6398 -3.23185 99.4547C-3.40888 99.2858 -3.76133 99.25 -3.99033 99.2825C-4.26643 99.3231 -4.50353 99.4628 -4.71791 99.6398C-4.87545 99.7698 -5.01838 99.9224 -5.15318 100.073C-5.51048 100.468 -5.83856 100.877 -6.18287 101.279C-6.66361 101.834 -7.04365 102.414 -7.2223 103.127C-7.4042 103.853 -7.42042 104.605 -7.47889 105.347C-7.5406 106.144 -7.58284 107.231 -8.2877 107.759C-8.6109 108.001 -9.07539 107.777 -9.19882 107.427C-9.26703 107.233 -9.25728 107.021 -9.24916 106.815C-9.18907 105.501 -9.15171 104.184 -8.9016 102.888C-8.66448 101.667 -8.08956 100.514 -7.54223 99.3995C-6.72856 97.7559 -3.10354 92.1446 -3.10354 92.1446C-3.07431 92.0877 -1.54441 88.5586 -0.517978 86.3384C0.255097 84.6656 0.909624 83.3809 1.63885 81.6918C3.06806 78.3787 4.93903 74.1836 6.15386 70.786C6.25456 70.505 6.35038 70.2289 6.43808 69.9577C6.54365 69.641 6.63783 69.3308 6.72715 69.0222C7.49048 66.4204 7.82991 64.0605 8.45844 61.2151C9.1227 58.2121 9.83895 55.227 10.5178 52.2273C11.5946 47.4589 13.5452 44.6314 15.1871 43.6212C17.4625 42.2244 19.7557 41.1054 22.1513 40.2674C22.3527 40.1959 22.5541 40.1277 22.7555 40.0611C23.6666 39.7607 24.594 39.5008 25.5392 39.2799C25.7065 39.2426 25.8754 39.2036 26.0443 39.1679C27.1243 38.934 28.2303 38.7505 29.3721 38.6157C29.7862 38.5686 30.1874 38.7943 30.5171 39.1403C30.9101 39.5479 31.2073 40.1212 31.3145 40.5987C31.675 42.1903 31.1277 43.4669 30.1841 44.5437Z" fill="#FFCFCA"/>
<path d="M36.5428 55.7352C34.3064 57.9066 31.2806 59.1848 28.1835 59.5421C27.2675 59.6477 26.3336 59.6769 25.4306 59.4934C23.113 59.0208 21.2372 57.1482 20.3455 54.9556C20.3163 54.8842 20.2887 54.8111 20.2611 54.738C20.201 54.5788 20.1458 54.4181 20.0954 54.2556C19.4572 52.2483 19.488 50.0525 19.8616 47.9687C20.037 46.9845 20.2855 46.0182 20.5713 45.06C20.9595 43.7493 21.4158 42.4565 21.8446 41.1605C21.9437 40.8633 22.0428 40.5644 22.1516 40.2672C22.353 40.1958 22.5543 40.1276 22.7557 40.061C23.6668 39.7605 24.5942 39.5006 25.5394 39.2798C25.5882 39.6923 25.6759 40.0951 25.7993 40.4881C25.9309 40.9055 26.1046 41.3083 26.3174 41.6932C27.0612 43.0331 28.2647 44.1358 29.6988 44.688C29.7865 44.7221 29.8742 44.7546 29.9651 44.7839C30.0837 44.8228 30.2055 44.8602 30.3289 44.8911C31.4463 45.1834 32.6206 45.1704 33.772 45.0973C35.9467 44.9625 38.2237 44.576 39.903 43.1922C39.6562 44.563 39.9972 45.9646 40.0508 47.3581C40.171 50.4747 38.7824 53.5638 36.5428 55.7352Z" fill="#FCB9B4"/>
<path d="M43.645 40.785C43.8903 43.2861 43.8952 45.8343 44.1631 48.3273C44.5578 52.0108 45.3585 55.6374 45.9123 59.3014C46.2274 61.3754 46.3963 63.5208 46.3752 65.6565C46.3589 67.2952 46.2306 68.9258 45.9724 70.5126C38.659 74.084 30.1309 75.0974 22.1858 73.3418C21.3688 73.1615 20.5551 72.952 19.7675 72.6645C18.5575 72.2228 17.51 71.5894 16.2805 71.2028C16.235 67.6964 16.1896 64.1786 16.3877 60.6803C16.5046 58.6225 16.7044 56.5713 17.039 54.5363C17.9127 49.2222 19.6002 45.3422 20.3635 40.0135C20.8458 39.9144 21.6287 39.5458 22.1338 39.4499C23.0676 39.2729 24.0031 38.9936 24.9938 38.9075C24.9565 40.3546 25.205 41.8211 25.8968 43.0863C26.6699 44.496 28.0471 45.6215 29.6404 45.8505C30.3859 45.9577 31.1459 45.87 31.8849 45.7287C33.2491 45.4673 34.615 44.9979 35.6496 44.0705C36.6046 43.2146 37.2038 42.0371 37.6732 40.8434C37.9899 40.0411 38.1312 39.6465 38.3472 38.8117C38.8783 38.9546 40.7038 39.5799 40.9896 39.7309C41.1894 39.8365 43.4485 40.6778 43.645 40.785Z" fill="#20CE86"/>
<path d="M46.3752 65.6565C46.3589 67.2952 46.2306 68.9258 45.9724 70.5126C38.659 74.084 30.1309 75.0974 22.1858 73.3418C21.3688 73.1615 20.5551 72.952 19.7675 72.6645C18.5575 72.2228 17.51 71.5894 16.2805 71.2028C16.235 67.6964 16.1896 64.1786 16.3877 60.6803C17.0195 61.5703 17.7666 62.3498 18.7199 62.8777C20.1832 63.6848 21.934 63.7725 23.602 63.6572C25.2683 63.5403 26.9314 63.2366 28.5993 63.3357C31.6299 63.5127 34.4201 64.9923 37.3793 65.6744C38.7045 65.9797 40.0671 66.1259 41.4281 66.1454C43.088 66.1697 44.7495 66.0041 46.3752 65.6565Z" fill="#149C64"/>
<path d="M61.3168 53.9874C60.7127 53.367 60.0386 52.477 59.618 51.7185C59.0999 50.7863 58.6208 49.8329 58.1807 48.8617C58.5201 49.0858 58.8839 49.3213 59.2851 49.5747C59.7008 51.1663 60.3066 52.7027 61.3168 53.9874Z" fill="#FCB9B4"/>
</g>
</g>
<defs>
<clipPath id="clip0_1065_49880">
<rect width="64" height="64" rx="32" fill="white"/>
</clipPath>
<clipPath id="clip1_1065_49880">
<rect width="74" height="74" fill="white" transform="translate(-5)"/>
</clipPath>
</defs>
</svg>
