<svg width="64" height="64" viewBox="0 0 64 64" fill="none" xmlns="http://www.w3.org/2000/svg">
<g clip-path="url(#clip0_1065_49888)">
<rect width="64" height="64" rx="32" fill="#EBFEF4"/>
<g clip-path="url(#clip1_1065_49888)">
<rect width="68" height="68" transform="translate(-2)" fill="#EBFEF4"/>
<path d="M46.6993 43.7347C45.5964 49.5925 44.4131 55.4084 43.6616 61.3199C42.9498 66.918 42.264 72.5235 41.373 78.0962C36.7846 78.1992 32.2101 78.0067 27.6344 77.6515C23.0788 77.2963 18.5745 76.6635 14.2959 74.9965C12.0265 74.113 9.82741 73.0295 7.73877 71.7654C9.78697 68.7925 11.0418 65.3644 12.4096 62.0467C13.875 58.4933 15.1328 54.8533 16.178 51.1535C18.4576 43.0795 19.3646 34.9936 19.9072 26.6569C20.2162 21.914 21.5741 16.9278 24.7654 13.2863C27.9718 9.62393 33.3433 7.53455 38.0621 9.3165C40.9765 10.4194 43.3509 12.7013 44.9368 15.3847C45.6904 16.6607 46.277 18.0248 46.7292 19.4366C46.8515 19.8112 46.962 20.1918 47.065 20.5723C47.3873 21.7693 47.6261 22.9916 47.8007 24.2168C48.0694 26.1212 48.1917 28.033 48.1992 29.9447C48.2141 34.5698 47.5545 39.1963 46.6993 43.7347Z" fill="#345668"/>
<path d="M42.8656 44.6896C42.2334 45.1836 41.4235 45.3702 40.6413 45.5433C39.6986 45.7522 38.7534 45.9627 37.7909 46.0328C35.9145 46.1686 34.1445 45.697 32.3049 45.3045C32.2133 44.224 32.1191 43.142 32.0275 42.0615C31.9124 40.7108 31.795 39.3557 31.5452 38.023C31.4679 37.614 31.3805 37.2081 31.281 36.8037C31.0401 35.7978 30.7424 34.8068 30.4449 33.8143C30.2003 32.9995 29.9559 32.1816 29.7114 31.3668C30.2439 31.7772 30.7294 31.9682 31.3547 32.2249C33.9891 33.3114 36.6634 34.2979 39.3502 35.2486C40.1597 35.5336 40.9764 35.8187 41.8274 35.9261L42.3863 40.6452L42.8656 44.6896Z" fill="#FFCFCA"/>
<path d="M42.3863 40.6452C39.4387 40.2348 36.5527 39.4065 33.8712 38.129C33.0185 37.7245 32.1321 37.2872 31.281 36.8037C31.0401 35.7978 30.7424 34.8068 30.4449 33.8144C30.2003 32.9995 29.9559 32.1817 29.7114 31.3668C30.2439 31.7772 30.7294 31.9683 31.3547 32.225C33.9891 33.3114 36.6634 34.2979 39.3502 35.2486C40.1597 35.5337 40.9764 35.8187 41.8274 35.9262L42.3863 40.6452Z" fill="#F9BFBB"/>
<path d="M46.9004 33.05C46.4452 34.6618 45.7289 36.1617 44.3976 37.2258C43.2171 38.169 41.7314 38.7332 40.2257 38.8376C38.5594 38.9525 36.8994 38.5556 35.3882 37.8273C34.6361 37.4631 33.9198 37.0199 33.2595 36.5139C32.1051 35.6304 31.0985 34.5708 30.2054 33.4276C28.7545 31.568 27.5082 29.4025 26.7523 27.1072C25.8931 24.5119 25.6582 21.7479 26.4524 19.0735C26.7733 17.984 27.2784 16.9513 27.9392 16.0245C30.7232 12.1173 36.1302 10.8846 40.336 13.1993C42.5269 14.4067 44.2845 16.3931 45.3573 18.6377C45.6975 19.3496 46.005 20.0853 46.2706 20.836C47.6571 24.7283 48.0242 29.0787 46.9004 33.05Z" fill="#FFCFCA"/>
<path d="M46.7294 19.4363C45.4101 17.4812 44.0868 15.444 42.3465 13.8979C40.7869 12.5144 38.8486 11.5697 36.7587 11.3787C32.7995 11.016 28.1833 12.5189 25.6681 15.7156C24.3988 17.3289 23.8214 19.3527 23.7371 21.3615C23.6527 23.3688 24.0657 25.1448 24.5694 27.1073C28.3939 26.7431 31.7273 24.3194 33.7034 21.2674C35.1745 18.9975 35.9755 16.4126 36.3907 13.768C37.574 15.2992 38.886 16.732 40.4258 17.9065C42.3447 19.3691 44.6529 20.4168 47.0652 20.572C46.9623 20.1899 46.8518 19.8109 46.7294 19.4363Z" fill="#345668"/>
<path d="M61.5251 88.2593C60.2938 86.4983 57.597 83.0821 57.597 83.0821C57.597 83.0821 59.27 60.7615 54.6749 51.2279C51.7542 48.2072 48.9126 45.491 44.7324 44.7135C41.6731 49.8429 40.741 54.4679 40.2375 60.4197C39.5699 68.3101 39.3773 76.6364 42.9391 83.709C43.9256 85.667 45.1786 87.4788 46.4516 89.2637C49.8126 93.9768 53.5854 98.5242 57.7881 102.584C58.9193 103.675 60.6222 103.921 62.0101 103.181L66.0561 101.023C67.3799 100.317 67.8753 98.666 67.159 97.3482C65.383 94.0858 63.5966 91.2203 61.5251 88.2593Z" fill="#20CE86"/>
<path d="M49.3423 47.4372C49.1185 46.8402 47.3081 45.5522 47.3081 45.5522C47.3081 45.5522 36.4799 43.3673 31.3404 44.021C28.7705 44.3479 26.2316 44.9224 23.7731 45.7403C21.0755 46.6372 18.718 47.7043 16.4929 49.4997C14.2223 51.3324 12.2125 53.4695 10.307 55.6724C9.3866 56.7365 8.4907 57.8199 7.60003 58.9094C5.04097 62.0375 2.35834 65.1746 0.217911 68.6221C-2.86976 73.5963 -5.10974 79.9511 -2.12325 85.5073C-0.337421 88.8295 2.59877 91.4039 5.48616 93.7545C8.92171 96.5513 12.6893 99.0645 16.7272 100.936C17.8621 101.463 19.2185 101.063 19.8647 99.9928C20.7242 98.569 21.4448 97.0721 22.101 95.5409C22.4983 94.6141 22.4265 93.5545 21.9261 92.6784C19.1908 87.8878 15.7939 83.3971 11.5955 79.0228C14.6811 76.0842 17.7501 72.9755 20.2335 69.5519C20.4675 72.5099 20.5635 75.4708 20.4125 78.4392C20.3692 79.2929 20.3163 80.1988 20.7256 80.948C21.2436 81.8987 22.352 82.3374 23.3834 82.6658C30.8943 85.0492 39.0473 85.3357 46.7276 83.5702C48.2782 83.2135 49.9005 82.7106 50.8705 81.3614C51.7511 80.1376 51.9645 78.5616 52.2107 77.1125C52.6271 74.641 52.8793 72.1397 52.9674 69.6354C53.2301 62.0928 52.0048 54.4978 49.3423 47.4372Z" fill="#20CE86"/>
<path d="M44.9591 43.6361C44.8994 43.4047 44.8293 43.1734 44.786 42.954C44.6117 42.0481 44.7785 40.8915 43.7792 40.2662C43.2883 39.9587 42.6824 40.0125 42.1151 40.0035C41.4459 39.9945 40.7778 40.0065 40.1086 39.993C38.7057 39.9632 37.301 39.8199 35.9183 39.5677C35.213 39.4394 34.5132 39.2812 33.8225 39.0961C33.1999 38.929 32.5705 38.6484 31.9246 38.5842C31.4603 38.5379 30.9542 38.6529 30.6872 38.9707C30.5141 39.1782 30.4607 39.4409 30.4122 39.6946C30.1676 40.9795 29.9422 42.2899 30.1491 43.5943C30.2128 43.9972 30.3304 44.4181 30.6554 44.7195C31.3888 45.4016 32.9924 45.615 33.9813 45.8254C37.2482 46.5209 40.7457 46.6134 43.8138 45.4867C44.1839 45.3508 44.556 45.1927 44.8128 44.927C45.1815 44.5464 45.0755 44.0927 44.9591 43.6361Z" fill="#149C64"/>
<path d="M31.6558 44.9434C31.6032 44.9359 31.5591 44.9001 31.5504 44.8523C31.2007 42.9376 31.1724 41.0019 31.4662 39.102C31.4749 39.0453 31.534 39.008 31.599 39.017H31.6014C31.6674 39.0274 31.7138 39.0811 31.705 39.1364C31.4143 41.0183 31.4422 42.9331 31.7881 44.8284C31.7986 44.8852 31.7538 44.9374 31.688 44.9434H31.6558Z" fill="#13935E"/>
<path d="M32.6796 45.306H32.6775C32.6115 45.2955 32.5651 45.2418 32.5736 45.1851C32.7064 44.3165 32.6858 43.4166 32.6661 42.5465L32.5999 39.6467C32.5979 39.5632 32.5833 39.5363 32.5715 39.5288C32.5162 39.496 32.5015 39.4303 32.5384 39.3841C32.5755 39.3378 32.6499 39.3274 32.7055 39.3617C32.836 39.4423 32.8393 39.5826 32.8408 39.6512L32.9069 42.551C32.9269 43.4285 32.9476 44.3359 32.8124 45.2209C32.804 45.2761 32.7446 45.3135 32.6796 45.306Z" fill="#13935E"/>
<path d="M33.9391 45.5641C33.8791 45.5566 33.8325 45.5118 33.8322 45.4581C33.8221 43.5807 33.8785 41.6808 34 39.8108C34.0037 39.7541 34.0606 39.7123 34.127 39.7183C34.1919 39.7242 34.2443 39.7735 34.2404 39.8302C34.1194 41.6972 34.0629 43.5926 34.0731 45.4656C34.0734 45.5223 34.0198 45.5671 33.9533 45.5656L33.9391 45.5641Z" fill="#13935E"/>
<path d="M34.9653 45.7747C34.9015 45.7672 34.8542 45.7165 34.8587 45.6612C35.0051 43.8121 35.0338 41.9287 34.9439 40.0662C34.9412 40.0095 34.9929 39.9632 35.0593 39.9632C35.1264 39.9647 35.1818 40.0095 35.1845 40.0662C35.2746 41.9362 35.246 43.8271 35.099 45.6836C35.0945 45.7403 35.037 45.7821 34.9706 45.7762L34.9653 45.7747Z" fill="#13935E"/>
<path d="M36.1036 46.0942H36.1035C36.0373 46.0853 35.9899 46.0331 35.9974 45.9763C36.1087 45.1331 36.1339 44.2183 36.0794 43.0124L36.0742 42.8975C36.0548 42.4856 36.035 42.0587 36.0953 41.6409C36.1161 41.4976 36.1464 41.3543 36.1767 41.2125C36.2348 40.9394 36.2896 40.6812 36.28 40.4156C36.2779 40.3589 36.3302 40.3126 36.3967 40.3126C36.4624 40.3126 36.5185 40.3604 36.5207 40.4171C36.531 40.7051 36.4713 40.9857 36.4137 41.2573C36.3843 41.3961 36.3546 41.5349 36.3343 41.6752C36.2764 42.0752 36.296 42.493 36.3148 42.8975L36.32 43.0124C36.3751 44.2302 36.3494 45.154 36.2366 46.0077C36.2291 46.0644 36.1696 46.1032 36.1036 46.0942Z" fill="#13935E"/>
<path d="M37.0905 46.0059H37.0863C37.0205 45.9954 36.9751 45.9402 36.9847 45.885C37.2881 44.1284 37.387 42.333 37.2787 40.5451C37.2751 40.4884 37.3263 40.4421 37.3925 40.4406C37.4605 40.4406 37.5157 40.4869 37.5191 40.5436C37.6284 42.3435 37.5287 44.1538 37.223 45.9238C37.2135 45.9775 37.1547 46.0148 37.0905 46.0059Z" fill="#13935E"/>
<path d="M38.4135 45.964H38.4082C38.3425 45.952 38.2976 45.8983 38.3079 45.8416C38.382 45.4386 38.3402 45.0133 38.3001 44.6014C38.2813 44.4074 38.2617 44.2074 38.2538 44.0104C38.2367 43.5731 38.2767 43.1299 38.3152 42.703C38.3793 41.9896 38.4458 41.2539 38.241 40.5524C38.2247 40.4972 38.2637 40.442 38.3282 40.4301C38.3928 40.4181 38.4581 40.4539 38.4744 40.5092C38.6889 41.2434 38.6211 41.9971 38.5553 42.7269C38.5172 43.1492 38.4778 43.5865 38.4946 44.0119C38.5022 44.2044 38.5214 44.4014 38.5401 44.5924C38.5816 45.0163 38.6244 45.4536 38.5458 45.8819C38.5359 45.9371 38.4772 45.9729 38.4135 45.964Z" fill="#13935E"/>
<path d="M39.4539 45.8867C39.3898 45.8778 39.3425 45.827 39.3475 45.7718C39.5071 44.0421 39.5571 42.2811 39.4959 40.5364C39.494 40.4797 39.5462 40.4334 39.6126 40.4349C39.6792 40.4349 39.7347 40.4827 39.7368 40.5394C39.798 42.29 39.7478 44.0585 39.5875 45.7957C39.5823 45.8524 39.5244 45.8927 39.4581 45.8867H39.4539Z" fill="#13935E"/>
<path d="M40.629 45.6251C40.5641 45.6162 40.5165 45.564 40.5225 45.5087C40.6899 43.9327 40.8629 42.303 40.5489 40.7016C40.5377 40.6449 40.5819 40.5927 40.6474 40.5852C40.7135 40.5778 40.7751 40.6181 40.7863 40.6748C41.1056 42.303 40.9311 43.9462 40.7625 45.5356C40.7563 45.5923 40.6978 45.6326 40.6316 45.6251H40.629Z" fill="#13935E"/>
<path d="M41.6482 45.8002C41.5881 45.7913 41.5412 45.7465 41.5415 45.6928L41.562 40.7006C41.5623 40.6439 41.6163 40.5991 41.6828 40.6021C41.7473 40.6036 41.8031 40.6528 41.8028 40.7096L41.7822 45.7017C41.7819 45.7599 41.7279 45.8032 41.6614 45.8002H41.6482Z" fill="#13935E"/>
<path d="M42.8598 45.4821C42.7978 45.4746 42.7507 45.4269 42.7529 45.3716C42.8166 43.824 42.7752 42.251 42.6298 40.6989C42.6244 40.6407 42.6738 40.5929 42.7401 40.5899C42.8059 40.5869 42.8644 40.6332 42.8699 40.6899C43.016 42.251 43.0577 43.8315 42.9936 45.388C42.9911 45.4448 42.9354 45.488 42.869 45.4836L42.8598 45.4821Z" fill="#13935E"/>
<path d="M44.0318 45.0315L44.0069 45.0255C43.9437 45.0046 43.9097 44.9449 43.9309 44.8912C44.0784 44.5196 44.0121 44.1166 43.9419 43.6898C43.9096 43.4928 43.8761 43.2898 43.8655 43.0898C43.857 42.9301 43.8632 42.7705 43.869 42.6153C43.8749 42.46 43.8811 42.2989 43.8718 42.1437C43.8418 41.6318 43.6472 41.1258 43.4589 40.6363C43.4378 40.5811 43.4718 40.5244 43.5348 40.5079C43.5981 40.4915 43.6662 40.5229 43.6873 40.5781C43.8808 41.081 44.0808 41.6004 44.1125 42.1407C44.1221 42.3063 44.1158 42.4705 44.1097 42.6302C44.1039 42.7809 44.0981 42.9376 44.106 43.0884C44.1163 43.2794 44.1488 43.4764 44.1803 43.6689C44.2513 44.1002 44.3249 44.5464 44.1593 44.9658C44.1409 45.0121 44.0869 45.0375 44.0318 45.0315Z" fill="#13935E"/>
<path d="M31.3125 32.6639C30.11 33.7235 28.3287 34.0876 26.8127 33.5608C25.5319 33.1175 24.4894 32.052 24.046 30.7759C23.966 30.5431 23.9059 30.3058 23.8658 30.0611C23.7973 29.6327 23.7952 29.1925 23.8956 28.7716C24.1492 27.7344 25.0821 26.9165 26.132 26.727C27.1843 26.539 28.3075 26.9538 29.0395 27.7329L29.9135 29.6298L31.3125 32.6639Z" fill="#FFCFCA"/>
<path d="M48.6123 83.0271C49.2063 82.6838 49.8167 82.3853 50.3763 82.0421C50.936 81.7003 51.4345 81.2869 51.7464 80.7407C51.9031 80.4705 52.0195 80.1736 52.0971 79.8616C52.1777 79.5497 52.212 79.2512 52.1777 78.9319C52.1479 78.6125 52.0867 78.2767 52.0404 77.9394C51.9911 77.6021 51.9523 77.2633 51.9165 76.9246C51.8509 76.2455 51.8135 75.5665 51.7912 74.8874C51.7658 74.2083 51.7673 73.5278 51.7822 72.8502C51.8076 71.4936 51.8822 70.143 51.9583 68.7923C52.1105 66.0911 52.3195 63.3958 52.2598 60.6945C52.2135 57.9932 51.9941 55.2934 51.5942 52.619C52.0389 55.2874 52.3031 57.9857 52.3941 60.69C52.5001 63.3987 52.3359 66.106 52.2284 68.8058C52.1747 70.1564 52.1225 71.5056 52.1195 72.8547C52.115 73.5293 52.1255 74.1994 52.1628 74.8725C52.1941 75.5441 52.2419 76.2156 52.3195 76.8813C52.3598 77.2141 52.403 77.5454 52.4568 77.8767C52.509 78.208 52.5747 78.5378 52.6135 78.8901C52.6597 79.2438 52.6239 79.6288 52.5389 79.9706C52.4583 80.3168 52.3314 80.6571 52.1553 80.975C51.9777 81.2914 51.7479 81.5794 51.4867 81.8257C51.224 82.0719 50.9375 82.2808 50.6435 82.4674C50.057 82.8405 49.454 83.145 48.8824 83.4882L48.6123 83.0271Z" fill="#149C64"/>
<path d="M20.1792 48.6804C20.8362 49.1579 21.3946 49.7803 21.831 50.4787C22.2726 51.1742 22.5947 51.9428 22.8387 52.7278C23.0851 53.5143 23.2373 54.3262 23.3439 55.138C23.4495 55.9514 23.4952 56.7708 23.5124 57.5886C23.5203 58.4065 23.4858 59.2243 23.4161 60.0377C23.3394 60.851 23.2322 61.6614 23.0763 62.4629C22.7724 64.0672 22.2786 65.6462 21.5169 67.0819C22.0734 65.5567 22.4413 63.9851 22.6642 62.3957C22.769 61.5988 22.865 60.8003 22.9109 59.9989C22.9641 59.1974 22.9939 58.396 22.9775 57.5946C22.9709 56.7932 22.9279 55.9932 22.842 55.1977C22.8045 54.7978 22.7487 54.4038 22.6844 54.0098C22.613 53.6173 22.536 53.2263 22.4383 52.8412C22.338 52.4562 22.2241 52.0741 22.0849 51.701C22.0217 51.5115 21.9389 51.3309 21.8653 51.1458C21.7791 50.9667 21.7015 50.7817 21.6045 50.6085C21.2431 49.8967 20.7596 49.2475 20.1792 48.6804Z" fill="#149C64"/>
<path d="M30.0133 45.7731C29.9582 45.7731 29.9066 45.7388 29.8872 45.6851C29.8624 45.6149 29.8989 45.5388 29.9685 45.5135C30.1368 45.4538 30.3052 45.3956 30.4737 45.3359C30.5435 45.3105 30.6198 45.3478 30.6443 45.4179C30.6687 45.4866 30.632 45.5642 30.5623 45.5881C30.394 45.6478 30.2259 45.706 30.0579 45.7657C30.0431 45.7716 30.028 45.7731 30.0133 45.7731Z" fill="#149C64"/>
<path d="M27.987 46.503C27.9325 46.503 27.8812 46.4687 27.8615 46.4149C27.8361 46.3448 27.8718 46.2687 27.9412 46.2433C28.2783 46.1194 28.6157 45.9971 28.9536 45.8762C29.023 45.8508 29.0999 45.8866 29.1248 45.9568C29.1497 46.0269 29.1138 46.103 29.0442 46.1284C28.7069 46.2493 28.3698 46.3717 28.0329 46.494C28.0179 46.5 28.0023 46.503 27.987 46.503ZM25.9689 47.2522C25.9149 47.2522 25.8639 47.2194 25.8437 47.1656C25.8176 47.0955 25.8525 47.0194 25.9218 46.9925C26.2577 46.8657 26.594 46.7403 26.9305 46.6149C26.9997 46.5896 27.0769 46.6254 27.1026 46.694C27.1282 46.7642 27.0929 46.8403 27.0236 46.8657C26.6875 46.991 26.3517 47.1164 26.0161 47.2432C26.0006 47.2492 25.9846 47.2522 25.9689 47.2522ZM23.9589 48.0223C23.9057 48.0223 23.8552 47.9909 23.8345 47.9372C23.8073 47.8686 23.8412 47.791 23.9098 47.7641C24.1425 47.6716 24.3758 47.582 24.6086 47.4925L24.915 47.3746C24.9839 47.3492 25.0614 47.3835 25.0878 47.4522C25.1141 47.5208 25.0796 47.5984 25.0106 47.6253L24.7046 47.7432C24.4723 47.8312 24.24 47.9223 24.008 48.0133C23.9919 48.0193 23.9754 48.0223 23.9589 48.0223ZM21.9815 48.8715C21.9318 48.8715 21.8839 48.8446 21.8609 48.7953C21.8288 48.7297 21.8569 48.6491 21.9234 48.6178C22.2292 48.47 22.5519 48.3252 22.9099 48.1715C22.978 48.1432 23.0566 48.1745 23.0856 48.2432C23.1144 48.3103 23.0829 48.3894 23.0148 48.4178C22.6607 48.5685 22.3416 48.7133 22.0395 48.858C22.0207 48.867 22.001 48.8715 21.9815 48.8715ZM20.1113 49.9341C20.0685 49.9341 20.0266 49.9132 20.0006 49.8759C19.9589 49.8147 19.9749 49.7311 20.036 49.6893C20.3235 49.4938 20.6347 49.3013 20.9608 49.1177C21.0251 49.0819 21.1068 49.1043 21.143 49.1685C21.1793 49.2326 21.1566 49.3147 21.0922 49.3505C20.7726 49.5311 20.4679 49.7192 20.1865 49.9102C20.1634 49.9266 20.1373 49.9341 20.1113 49.9341ZM18.4525 51.3011C18.4176 51.3011 18.3826 51.2877 18.3565 51.2608C18.305 51.2071 18.3062 51.1235 18.3592 51.0713C18.6291 50.8086 18.9007 50.5639 19.1663 50.3445C19.2233 50.2967 19.3075 50.3042 19.3548 50.3609C19.4018 50.4191 19.3941 50.5027 19.3372 50.5504C19.0768 50.7654 18.8107 51.0056 18.5456 51.2638C18.5197 51.2892 18.4861 51.3011 18.4525 51.3011ZM16.9926 52.8816C16.9619 52.8816 16.9311 52.8712 16.9059 52.8503C16.8496 52.8025 16.8428 52.7174 16.8907 52.6622C17.1475 52.3593 17.3812 52.0951 17.6052 51.8503C17.6551 51.7951 17.7399 51.7921 17.7943 51.8414C17.8488 51.8921 17.8525 51.9772 17.8025 52.0309C17.5808 52.2727 17.3493 52.5354 17.0945 52.8353C17.068 52.8667 17.0305 52.8816 16.9926 52.8816ZM15.6203 54.5412C15.5905 54.5412 15.5605 54.5307 15.5356 54.5098C15.4784 54.4636 15.47 54.3785 15.5171 54.3218L16.1998 53.4905C16.2468 53.4323 16.3313 53.4249 16.3882 53.4711C16.4453 53.5189 16.4536 53.6024 16.4065 53.6606L15.7239 54.4919C15.6975 54.5233 15.659 54.5412 15.6203 54.5412ZM14.2569 56.2067C14.2272 56.2067 14.1973 56.1963 14.1724 56.1769C14.1152 56.1291 14.1066 56.0455 14.1533 55.9888C14.3803 55.7097 14.6073 55.4322 14.8346 55.1546C14.8814 55.0979 14.9658 55.0889 15.0229 55.1352C15.0801 55.1829 15.0884 55.2665 15.0417 55.3247C14.8144 55.6023 14.5874 55.8799 14.3607 56.1575C14.3342 56.1903 14.2958 56.2067 14.2569 56.2067ZM12.9001 57.8782C12.8704 57.8782 12.8408 57.8678 12.8161 57.8484C12.7586 57.8021 12.7495 57.717 12.7959 57.6603C13.0214 57.3812 13.2472 57.1022 13.4735 56.8231C13.5202 56.7664 13.6044 56.7574 13.6617 56.8037C13.7191 56.85 13.7278 56.935 13.6812 56.9917C13.4551 57.2708 13.2295 57.5484 13.0043 57.8275C12.9777 57.8603 12.939 57.8782 12.9001 57.8782ZM11.5547 59.5587C11.5256 59.5587 11.4962 59.5482 11.4716 59.5288C11.4136 59.4826 11.4039 59.399 11.4499 59.3408C11.6729 59.0602 11.8967 58.7797 12.1212 58.4991C12.1675 58.4409 12.2515 58.4319 12.3092 58.4782C12.367 58.5245 12.3763 58.608 12.3301 58.6662C12.106 58.9468 11.8824 59.2274 11.6596 59.508C11.633 59.5408 11.5941 59.5587 11.5547 59.5587ZM10.2258 61.2526C10.1972 61.2526 10.1684 61.2422 10.1439 61.2242C10.0855 61.178 10.0748 61.0944 10.1202 61.0362C10.34 60.7526 10.5609 60.4691 10.7826 60.187C10.8282 60.1288 10.9123 60.1184 10.9704 60.1646C11.0286 60.2094 11.0387 60.2945 10.9931 60.3512C10.7718 60.6347 10.5512 60.9168 10.3316 61.2004C10.3052 61.2347 10.2658 61.2526 10.2258 61.2526ZM8.91861 62.9629C8.89071 62.9629 8.86235 62.9539 8.83832 62.936C8.77937 62.8913 8.76758 62.8077 8.81191 62.748C9.02786 62.4615 9.24486 62.1749 9.46305 61.8899C9.50782 61.8317 9.59154 61.8197 9.65064 61.8645C9.7093 61.9093 9.72049 61.9928 9.67557 62.0525C9.45797 62.3376 9.24128 62.6226 9.02577 62.9092C8.99951 62.9435 8.95936 62.9629 8.91861 62.9629ZM7.63871 64.6926C7.6114 64.6926 7.58394 64.6852 7.56021 64.6673C7.50037 64.624 7.48708 64.5404 7.53051 64.4807C7.74154 64.1897 7.95392 63.9002 8.16763 63.6121C8.21151 63.5524 8.29538 63.5405 8.35463 63.5838C8.41403 63.627 8.42656 63.7121 8.38268 63.7703C8.16957 64.0583 7.95764 64.3479 7.74706 64.6374C7.72095 64.6747 7.68005 64.6926 7.63871 64.6926ZM6.39135 66.4477C6.36493 66.4477 6.33836 66.4403 6.31508 66.4238C6.25434 66.382 6.23942 66.2985 6.28166 66.2373C6.48671 65.9433 6.69342 65.6493 6.90161 65.3553C6.94444 65.2956 7.02786 65.2821 7.08831 65.3239C7.14845 65.3672 7.16248 65.4508 7.11979 65.5105C6.91205 65.803 6.7058 66.0955 6.50134 66.3895C6.47522 66.4283 6.43359 66.4477 6.39135 66.4477ZM5.18219 68.2282C5.15682 68.2282 5.13115 68.2207 5.10847 68.2058C5.04683 68.1655 5.02996 68.0819 5.0707 68.0207C5.26905 67.7207 5.46918 67.4223 5.6711 67.1253C5.71259 67.0641 5.79572 67.0492 5.85676 67.0895C5.91795 67.1313 5.93392 67.2148 5.89228 67.276C5.6911 67.5715 5.49156 67.87 5.29397 68.1685C5.26815 68.2073 5.22562 68.2282 5.18219 68.2282ZM4.01735 70.0385C3.99302 70.0385 3.96855 70.0325 3.94661 70.0176C3.88393 69.9788 3.86482 69.8967 3.90392 69.834C4.09451 69.5296 4.28703 69.2251 4.48149 68.9236C4.52164 68.861 4.60432 68.843 4.66641 68.8833C4.72864 68.9236 4.7464 69.0057 4.70655 69.0684C4.51269 69.3699 4.32077 69.6713 4.13093 69.9758C4.10556 70.0161 4.06197 70.0385 4.01735 70.0385ZM2.91058 71.8846C2.88834 71.8846 2.8658 71.8786 2.84506 71.8667C2.78058 71.8309 2.75805 71.7488 2.79432 71.6846C2.96236 71.3876 3.1407 71.0817 3.33949 70.7519C3.3774 70.6892 3.45978 70.6683 3.52306 70.7071C3.58634 70.7444 3.60679 70.8265 3.56858 70.8906C3.37128 71.219 3.19413 71.5205 3.02728 71.8159C3.00266 71.8607 2.95729 71.8846 2.91058 71.8846ZM1.92602 73.7979C1.90752 73.7979 1.88856 73.7949 1.8705 73.7859C1.80334 73.7561 1.77365 73.6755 1.80439 73.6084C1.94841 73.2935 2.1081 72.9666 2.27928 72.6353C2.31301 72.5696 2.3939 72.5443 2.45956 72.5786C2.52508 72.6114 2.5509 72.6935 2.51687 72.7592C2.34778 73.086 2.19003 73.4099 2.04781 73.7203C2.02527 73.7695 1.97676 73.7979 1.92602 73.7979ZM1.15519 75.8067L1.11624 75.8007C1.04535 75.7798 1.0055 75.7052 1.02714 75.6336C1.12877 75.3008 1.24816 74.9545 1.38233 74.6083C1.4089 74.5381 1.48636 74.5038 1.55531 74.5307C1.62426 74.5575 1.65858 74.6351 1.63187 74.7038C1.50009 75.0455 1.38278 75.3843 1.28309 75.7112C1.26562 75.7694 1.2125 75.8067 1.15519 75.8067ZM0.718203 77.911H0.704029C0.630602 77.9021 0.577323 77.8364 0.584934 77.7632C0.621648 77.4125 0.678952 77.0499 0.755215 76.6872C0.770437 76.6156 0.841478 76.5693 0.913711 76.5842C0.985945 76.5992 1.03236 76.6693 1.01699 76.7424C0.942663 77.0961 0.886852 77.4484 0.851034 77.7916C0.84387 77.8603 0.785809 77.911 0.718203 77.911ZM0.749399 80.0586C0.683733 80.0586 0.626273 80.0093 0.61702 79.9422C0.610453 79.8959 0.604331 79.8497 0.59851 79.8034C0.559857 79.4915 0.538223 79.1721 0.534193 78.8527C0.533149 78.7796 0.592246 78.7184 0.666121 78.7184C0.742085 78.7229 0.800884 78.7766 0.80178 78.8497C0.805809 79.1587 0.826855 79.4691 0.864166 79.7706C0.869837 79.8153 0.875802 79.8601 0.88207 79.9064C0.892219 79.9795 0.841183 80.0467 0.768055 80.0571L0.749399 80.0586ZM1.28921 82.136C1.23518 82.136 1.18444 82.1032 1.16414 82.0495C1.03356 81.7047 0.921774 81.357 0.831781 81.0123C0.812977 80.9406 0.855808 80.8675 0.927295 80.8496C0.998782 80.8302 1.07206 80.8735 1.09071 80.9451C1.17832 81.2794 1.28712 81.6197 1.41427 81.954C1.44054 82.0241 1.40576 82.1017 1.33666 82.1271C1.32099 82.1331 1.30503 82.136 1.28921 82.136ZM2.23123 84.0687C2.18556 84.0687 2.14108 84.0449 2.11601 84.0031C1.92707 83.6852 1.7526 83.3628 1.59784 83.0479C1.5653 82.9808 1.59277 82.9017 1.65918 82.8688C1.72574 82.836 1.80573 82.8629 1.83812 82.93C1.98975 83.2389 2.16078 83.5538 2.34599 83.8658C2.38375 83.9299 2.363 84.012 2.29943 84.0493C2.27794 84.0628 2.25436 84.0687 2.23123 84.0687ZM3.44993 85.8402C3.41008 85.8402 3.37068 85.8223 3.34427 85.788C3.11697 85.497 2.90102 85.203 2.70282 84.9164C2.66089 84.8552 2.67611 84.7717 2.73686 84.7299C2.7976 84.6881 2.88102 84.703 2.92296 84.7642C3.11846 85.0463 3.33114 85.3358 3.55545 85.6238C3.60082 85.682 3.59052 85.7671 3.53217 85.8119C3.50769 85.8313 3.47874 85.8402 3.44993 85.8402ZM4.84863 87.4759C4.81281 87.4759 4.77684 87.461 4.75058 87.4327C4.49776 87.1595 4.25524 86.8894 4.03004 86.6267C3.98183 86.57 3.9884 86.4865 4.04452 86.4372C4.10048 86.3894 4.18495 86.3954 4.23301 86.4521C4.45613 86.7118 4.69626 86.9804 4.94683 87.2506C4.99698 87.3043 4.99385 87.3894 4.93967 87.4401C4.91385 87.464 4.88132 87.4759 4.84863 87.4759ZM6.36105 89.0086C6.32747 89.0086 6.29419 88.9967 6.26823 88.9713C5.9981 88.7117 5.73931 88.4565 5.49873 88.2132C5.4468 88.161 5.44739 88.0759 5.49993 88.0236C5.55246 87.9714 5.63723 87.9729 5.68916 88.0251C5.9281 88.2669 6.18525 88.5206 6.45388 88.7788C6.50701 88.8311 6.50865 88.9146 6.45731 88.9684C6.43105 88.9952 6.39612 89.0086 6.36105 89.0086ZM7.93765 90.4757C7.90556 90.4757 7.87332 90.4652 7.8478 90.4414C7.58409 90.2026 7.31859 89.9593 7.05279 89.7131C6.99861 89.6623 6.99548 89.5773 7.04577 89.5235C7.09607 89.4698 7.18084 89.4668 7.23487 89.5161C7.49977 89.7623 7.76467 90.0041 8.02749 90.2429C8.08226 90.2921 8.08644 90.3772 8.03674 90.4324C8.01033 90.4608 7.97406 90.4757 7.93765 90.4757ZM9.54976 91.9025C9.51917 91.9025 9.48842 91.892 9.46319 91.8711C9.18546 91.6353 8.91145 91.3965 8.64864 91.1622C8.59357 91.113 8.58864 91.0294 8.63774 90.9742C8.68699 90.9189 8.77146 90.913 8.82683 90.9622C9.08801 91.195 9.36037 91.4323 9.63632 91.6667C9.69273 91.7144 9.6996 91.7995 9.65184 91.8562C9.62527 91.886 9.58767 91.9025 9.54976 91.9025ZM11.2213 93.2591C11.1925 93.2591 11.1637 93.2501 11.1392 93.2307C10.8537 93.0083 10.5692 92.783 10.294 92.5606C10.2367 92.5128 10.2279 92.4293 10.2743 92.3711C10.3209 92.3144 10.4052 92.3054 10.4627 92.3517C10.7364 92.574 11.0192 92.7994 11.3034 93.0188C11.3617 93.065 11.3723 93.1486 11.3269 93.2068C11.3005 93.2412 11.2611 93.2591 11.2213 93.2591ZM12.944 94.55C12.9168 94.55 12.8893 94.5411 12.8658 94.5231C12.5743 94.3127 12.2846 94.1008 11.9969 93.8844C11.9378 93.8411 11.9257 93.756 11.97 93.6978C12.0142 93.6381 12.0981 93.6262 12.1573 93.671C12.4439 93.8859 12.7323 94.0978 13.0225 94.3067C13.0825 94.35 13.0959 94.4336 13.0525 94.4933C13.0264 94.5306 12.9855 94.55 12.944 94.55ZM14.7055 95.7872C14.6794 95.7872 14.6532 95.7783 14.63 95.7634C14.3334 95.5604 14.0379 95.3559 13.7439 95.15C13.6835 95.1067 13.6687 95.0231 13.7112 94.9634C13.7536 94.9022 13.8372 94.8873 13.8976 94.9306C14.1907 95.1365 14.4853 95.3395 14.7811 95.5425C14.8422 95.5843 14.8577 95.6678 14.8159 95.7275C14.7901 95.7663 14.7482 95.7872 14.7055 95.7872ZM16.4943 96.9841C16.4691 96.9841 16.4436 96.9767 16.4209 96.9618C16.1207 96.7648 15.8214 96.5663 15.5229 96.3663C15.4614 96.326 15.445 96.2424 15.486 96.1812C15.5271 96.12 15.6102 96.1036 15.6717 96.1439C15.9694 96.3439 16.2683 96.5424 16.5679 96.7379C16.6295 96.7797 16.6468 96.8618 16.6061 96.9245C16.5804 96.9633 16.5377 96.9841 16.4943 96.9841ZM18.2998 98.1557C18.275 98.1557 18.25 98.1497 18.2276 98.1348C17.9257 97.9408 17.6241 97.7468 17.3229 97.5513C17.2609 97.511 17.2432 97.4274 17.2835 97.3662C17.3236 97.3035 17.4065 97.2856 17.4684 97.3259C17.7694 97.5214 18.0707 97.7154 18.3724 97.9095C18.4346 97.9497 18.4525 98.0333 18.4125 98.0945C18.387 98.1348 18.3438 98.1557 18.2998 98.1557Z" fill="#149C64"/>
<path d="M37.8892 26.6162C37.7634 25.8641 37.2633 25.3223 36.772 25.4044C36.2807 25.4865 35.9843 26.1626 36.1099 26.9132C36.2356 27.6654 36.7358 28.2072 37.2271 28.1251C37.7185 28.043 38.0149 27.3669 37.8892 26.6162Z" fill="#1F3C49"/>
<path d="M44.6908 25.9509C44.5684 25.2181 44.0804 24.6883 43.6012 24.7689C43.1219 24.8494 42.8329 25.5076 42.9554 26.2419C43.0781 26.9747 43.5661 27.503 44.0453 27.4239C44.5245 27.3433 44.8131 26.6836 44.6908 25.9509Z" fill="#1F3C49"/>
<path d="M35.1731 23.7106C35.0945 23.7106 35.0166 23.6763 34.9637 23.6106C34.8715 23.4957 34.8905 23.3271 35.0061 23.2346C35.7302 22.657 36.7864 22.5212 37.6335 22.8958C37.7687 22.9555 37.8298 23.1137 37.7699 23.248C37.7101 23.3838 37.552 23.445 37.4168 23.3853C36.7469 23.0883 35.9123 23.1958 35.3397 23.6524C35.2904 23.6927 35.2315 23.7106 35.1731 23.7106Z" fill="#1F3C49"/>
<path d="M42.1745 23.0854C42.0927 23.0854 42.0118 23.0481 41.9594 22.9764C41.8714 22.8585 41.8963 22.6899 42.0149 22.6033C42.7002 22.0944 43.6781 22.0004 44.448 22.366C44.5814 22.4302 44.638 22.5899 44.5744 22.7227C44.5109 22.857 44.3512 22.9137 44.2177 22.8496C43.6214 22.566 42.8643 22.6392 42.3337 23.0332C42.2858 23.0675 42.23 23.0854 42.1745 23.0854Z" fill="#1F3C49"/>
<path d="M40.5493 28.4224C40.7265 28.2254 41.0276 28.1403 41.3125 28.1896C41.6027 28.2373 41.8709 28.4418 42.0065 28.7059C42.1492 28.9671 42.1681 29.3044 42.0434 29.57C41.9249 29.8342 41.6844 30.0357 41.4215 30.07C41.6042 29.8849 41.7061 29.676 41.744 29.4701C41.7819 29.2656 41.7438 29.0701 41.6518 28.894C41.5583 28.7179 41.4177 28.5761 41.2269 28.4925C41.0352 28.4089 40.8053 28.3761 40.5493 28.4224Z" fill="#1F3C49"/>
<path d="M44.5599 31.0458L44.5631 31.0637C44.7008 31.892 44.5131 32.7009 44.0919 33.365C43.5912 34.153 42.7618 34.7366 41.7563 34.9037C40.6726 35.0843 39.6254 34.7425 38.8842 34.065C38.3552 33.5844 37.9809 32.9322 37.8557 32.1815L37.8525 32.1636L44.5599 31.0458Z" fill="#EA5353"/>
<path d="M44.0924 33.365C43.5917 34.153 42.7624 34.7366 41.7568 34.9037C40.6731 35.0843 39.6259 34.7425 38.8848 34.065C39.1419 33.9142 39.4101 33.7814 39.682 33.662C40.7213 33.2083 41.8705 32.9412 42.9961 33.0949C43.3708 33.1456 43.7354 33.2412 44.0924 33.365Z" fill="#FF948F"/>
<path d="M43.9356 31.1503C43.8572 31.2338 43.7756 31.3129 43.6911 31.392C42.444 32.5546 39.9814 33.2665 38.5703 32.0442L43.9356 31.1503Z" fill="white"/>
<path d="M37.1997 26.2031C36.7841 26.2031 36.7833 26.8493 37.1997 26.8493C37.6155 26.8493 37.6162 26.2031 37.1997 26.2031Z" fill="white"/>
<path d="M44.0337 25.4849C43.618 25.4849 43.6174 26.1312 44.0337 26.1312C44.4494 26.1312 44.4501 25.4849 44.0337 25.4849Z" fill="white"/>
</g>
</g>
<defs>
<clipPath id="clip0_1065_49888">
<rect width="64" height="64" rx="32" fill="white"/>
</clipPath>
<clipPath id="clip1_1065_49888">
<rect width="68" height="68" fill="white" transform="translate(-2)"/>
</clipPath>
</defs>
</svg>
