<svg width="64" height="64" viewBox="0 0 64 64" fill="none" xmlns="http://www.w3.org/2000/svg">
<g clip-path="url(#clip0_1065_49886)">
<rect width="64" height="64" rx="32" fill="#EBFEF4"/>
<g clip-path="url(#clip1_1065_49886)">
<rect width="72" height="72" transform="translate(-4)" fill="#EBFEF4"/>
<path d="M58.0983 49.4683C58.0983 44.4116 53.9992 40.3126 48.9441 40.3126C48.2931 40.3126 47.6594 40.3821 47.0479 40.5101C46.3115 36.8203 46.9483 32.3199 47.13 29.5924C47.5488 23.2716 47.3449 15.0497 41.8205 10.5193C38.619 7.89454 33.6777 7.17237 29.7224 8.60088C25.2078 10.2317 22.4787 14.3939 21.1924 18.5704C20.3676 21.2473 20.08 24.0095 19.3736 26.6659C18.8743 26.4336 18.3196 26.3024 17.7334 26.3024C15.894 26.3024 14.3565 27.5792 13.9535 29.2953C13.5553 29.2448 13.1507 29.2163 12.7383 29.2163C7.45251 29.2163 3.16697 33.5003 3.16697 38.7861C3.16697 39.9143 3.36451 40.9952 3.72164 42.0002C1.14589 43.5536 -0.578125 46.379 -0.578125 49.6074C-0.578125 54.0746 2.72452 57.7707 7.02111 58.3918C7.98346 62.4987 11.6669 65.5596 16.0678 65.5596C16.2606 65.5596 16.4502 65.5517 16.6399 65.539C18.1253 69.2873 21.7787 71.9389 26.0563 71.9389C29.98 71.9389 33.3822 69.7045 35.062 66.4398C36.6848 67.5459 38.6459 68.1938 40.7586 68.1938C46.2356 68.1938 50.6934 63.8466 50.8767 58.417C55.0042 57.529 58.0983 53.8613 58.0983 49.4683Z" fill="#602826"/>
<path d="M85.168 129.335C84.2531 127.044 83.3381 124.754 82.4216 122.461C81.5446 120.263 80.7782 118.369 79.623 116.297C79.1474 115.447 78.5011 114.334 77.9654 113.489C75.3928 108.761 72.8218 104.031 70.2508 99.3033C68.6232 96.3104 66.9972 93.319 65.3711 90.3277C64.3013 88.3619 63.2299 86.3914 62.4161 84.3071C61.408 81.725 60.8075 79.0055 60.2607 76.2875C59.142 70.7094 58.227 65.0585 56.3355 59.6921C54.8943 55.6057 52.8369 51.6425 49.6875 48.6639C45.0196 44.2503 38.4491 42.5595 32.144 42.9877C31.0553 43.0604 29.9697 43.2011 28.8967 43.4065C25.948 43.9738 23.0973 45.0436 20.4931 46.5416C17.7973 48.0934 15.5945 49.9944 13.8484 52.5812C13.3 53.3918 12.8054 54.2373 12.3535 55.1048C10.6374 58.3979 9.52016 61.9645 8.12325 65.4046C5.6439 71.5169 2.08367 77.3004 0.928541 83.7951C-0.27084 90.5394 2.65888 106.882 2.63992 116.444C2.44872 120.078 1.10869 124.707 0.787911 126.715C0.539818 128.297 0.274333 129.939 0.446576 131.541C0.6283 133.241 1.08025 134.885 1.50217 136.535C1.56854 136.792 1.63648 137.058 1.79292 137.274C2.0742 137.663 2.72525 137.769 3.02865 137.347C3.68918 136.432 3.33047 135.07 3.10608 134.06C2.8975 133.118 2.6336 132.18 2.58145 131.214C2.53088 130.264 2.77581 129.405 3.1519 128.539C3.42212 127.916 3.66706 127.284 3.9515 126.665C4.03051 126.494 4.11426 126.319 4.20907 126.153C4.24383 126.088 4.28175 126.028 4.32126 125.966C4.51404 125.666 4.75423 125.405 5.07186 125.255C5.34049 125.129 5.78453 125.042 6.06265 125.187C6.36605 125.345 6.35341 125.74 6.37869 126.033C6.41188 126.38 6.36763 126.729 6.31549 127.072C6.2428 127.532 6.13693 128.008 6.13219 128.477C6.13061 128.605 6.13692 128.733 6.1543 128.86C6.16536 128.959 6.18591 129.06 6.2112 129.16C6.49564 130.217 7.92887 131.157 8.47405 129.743C8.5894 129.439 8.62891 129.112 8.67474 128.792C8.89123 127.256 9.43008 125.761 9.36687 124.204C9.32578 123.212 9.17724 122.227 9.02712 121.246C8.77903 119.612 8.04898 117.229 7.87832 116.444C8.89756 106.692 9.40954 98.4105 9.97051 88.6953C10.0306 87.6682 10.0922 86.6284 10.3845 85.6408C10.7606 84.3782 11.497 83.2578 12.2176 82.1564C16.6548 75.3694 20.8724 68.4402 24.864 61.3814C26.2609 58.9131 27.6689 56.2757 27.6041 53.4392C31.3302 56.1477 36.4691 56.7814 40.7435 55.0605C46.0625 66.9848 48.5466 80.129 54.9244 91.5208C60.0395 100.654 67.6213 107.849 73.8015 116.297C74.0259 116.603 73.9264 117.522 73.9469 117.912C74.0149 119.176 73.909 120.437 74.0639 121.698C74.2219 122.972 74.5158 124.228 74.944 125.437C75.1384 125.985 75.6662 126.488 76.2256 125.996C76.2762 125.966 76.3236 125.928 76.3694 125.878C76.9225 125.29 76.9256 124.484 76.8909 123.727C76.8513 122.866 76.8956 122.047 77.2717 121.256C77.3744 121.042 77.5467 120.842 77.779 120.796C77.9196 120.767 78.0666 120.802 78.204 120.848C78.6655 121.004 79.0131 121.29 79.2944 121.644C79.4429 121.829 79.5741 122.033 79.691 122.246C79.8048 122.449 79.9059 122.659 80.0039 122.869C80.1271 123.131 80.2425 123.394 80.3626 123.643C80.3879 123.695 80.4116 123.746 80.4369 123.793C80.459 123.839 80.4827 123.885 80.5064 123.931C80.6534 124.223 80.8003 124.516 80.9489 124.809C81.2175 125.342 81.4861 125.875 81.7548 126.409C81.9886 126.873 82.2241 127.339 82.458 127.804C82.8688 128.616 83.3081 129.528 84.0429 130.103C84.5928 130.535 85.4698 130.092 85.168 129.335Z" fill="#FFCFCA"/>
<path d="M40.5235 45.9505C39.7793 46.4072 38.8801 46.5099 38.0142 46.6C36.9696 46.7122 35.9235 46.8228 34.8743 46.7801C32.8295 46.698 30.9743 45.9695 29.0354 45.32C29.0686 44.1412 29.0986 42.9608 29.1334 41.7819C29.1745 40.3076 29.214 38.8301 29.1065 37.3573C29.0733 36.907 29.0291 36.4566 28.9706 36.0094C28.8347 34.8922 28.634 33.7845 28.4349 32.6736C28.2706 31.7634 28.1062 30.85 27.9419 29.9398C28.4665 30.4486 28.969 30.7141 29.6122 31.0697C32.3254 32.5661 35.0955 33.9599 37.8814 35.3173C38.7221 35.725 39.5691 36.1342 40.4761 36.3539L40.5014 41.5228L40.5235 45.9505Z" fill="#FFCFCA"/>
<path d="M40.5014 41.5228C37.3663 40.7169 34.3481 39.4669 31.608 37.7587C30.7357 37.2151 29.8318 36.6352 28.9706 36.0094C28.8347 34.8922 28.634 33.7845 28.4349 32.6736C28.2706 31.7634 28.1062 30.85 27.9419 29.9398C28.4665 30.4486 28.969 30.7141 29.6122 31.0697C32.3254 32.5661 35.0955 33.9599 37.8814 35.3173C38.7221 35.725 39.5691 36.1343 40.4761 36.3539L40.5014 41.5228Z" fill="#F9BFBB"/>
<path d="M45.8612 21.7893C45.7016 21.0466 45.5009 20.3134 45.2655 19.5991C44.5228 17.3426 43.0816 15.2425 41.1174 13.8219C37.347 11.0976 31.9411 11.5637 28.7238 14.8901C27.9606 15.6786 27.3348 16.5888 26.8781 17.5749C25.7546 19.9942 25.6156 22.63 26.1054 25.1883C26.5337 27.4512 27.4565 29.654 28.6164 31.5945C29.3306 32.7876 30.1666 33.9174 31.1684 34.8987C31.742 35.4613 32.3773 35.9733 33.0584 36.4126C34.4284 37.2943 35.9849 37.8822 37.6157 37.988C39.0884 38.0829 40.6039 37.7431 41.8743 37.0051C43.306 36.174 44.1988 34.8513 44.8546 33.3896C46.468 29.7899 46.6892 25.6387 45.8612 21.7893Z" fill="#FFCFCA"/>
<path d="M29.3188 30.8373C27.895 31.4947 26.122 31.3367 24.8483 30.4186C23.7722 29.6443 23.0927 28.3533 23.0343 27.0322C23.0248 26.792 23.0343 26.5518 23.0659 26.3116C23.1212 25.8913 23.2413 25.4773 23.4546 25.1107C23.9824 24.21 25.0854 23.7027 26.1236 23.8196C27.1634 23.9382 28.0988 24.6429 28.5682 25.5768L28.8573 27.5995L29.3188 30.8373Z" fill="#FFCFCA"/>
<path d="M41.6805 12.5131C40.4574 15.9832 37.9054 18.9176 34.7797 20.8629C31.6557 22.8081 27.988 23.7973 24.3124 23.9886C24.0517 24.0028 24.8102 19.1499 24.9493 18.6838C25.6951 16.2076 27.3164 14.0064 29.456 12.5526C29.7768 12.3345 30.1086 12.1338 30.45 11.9521C32.5659 10.8254 35.0484 10.4193 37.4171 10.7638C38.3921 10.9044 39.345 11.1557 40.2157 11.6139C40.3847 11.7024 41.7548 12.3029 41.6805 12.5131Z" fill="#602826"/>
<path d="M47.0694 83.6494C47.7583 78.1614 48.2798 72.6843 49.3907 67.2595C50.3767 62.4462 51.505 57.3515 49.6735 52.6046C48.9024 51.7892 47.9717 51.1176 47.0109 50.525C38.7938 45.4573 28.4782 45.9756 19.3698 49.174C18.8831 56.71 19.8629 64.2808 20.4949 71.8263C20.6846 72.9087 20.8205 74.0007 20.9469 75.0926C21.7433 81.9207 22.1715 88.7804 22.633 95.6369C22.8495 95.6069 23.0707 95.5879 23.2967 95.58C24.8374 95.5279 26.3702 95.7823 27.8903 96.0383C31.8029 96.6925 35.714 97.3467 39.625 98.0009C41.1404 98.2553 42.6637 98.5113 44.1554 98.8732C45.0309 94.9384 45.9632 91.0148 46.8924 87.0927C46.8671 85.9565 46.9224 84.8125 47.0694 83.6494Z" fill="#FFCFCA"/>
<path d="M59.9193 68.4495C58.6677 70.0202 57.176 71.0616 55.4647 71.7663C54.9859 71.9623 54.5529 72.1266 54.1436 72.2657C52.437 72.8456 51.1744 72.9862 49.0616 73.2217L47.3661 90.2026C45.1996 90.8521 42.9383 91.1255 40.6834 91.2045C37.1864 91.3246 33.6483 91.1113 30.1639 90.8252C26.9513 90.5629 23.6819 90.043 20.7806 88.564C20.8565 84.4538 20.7695 80.3421 20.5293 76.2367C20.4314 74.5222 20.3065 72.8093 20.1548 71.0979C20.1517 71.0773 20.1501 71.0568 20.1485 71.0363C19.7266 71.6415 19.2952 72.1029 18.9444 72.7508C14.7837 69.9965 11.0892 66.7223 7.82129 62.9709C7.8924 62.8018 7.96192 62.6311 8.03145 62.4573C8.43441 61.4586 8.92429 60.5294 9.4663 59.5971C10.623 57.5981 11.8018 55.5992 13.0518 53.6555C13.2841 53.2921 13.5227 52.9349 13.7692 52.581C15.4205 50.1996 17.3926 48.03 19.7772 46.3676C21.0524 45.4779 22.4193 44.7415 23.8668 44.1743C24.6158 43.8803 28.7907 42.7347 28.8334 42.8058C29.3422 43.6465 29.8573 43.9767 30.7944 44.2659C33.0494 44.9628 35.4655 45.0244 37.8058 44.7163C39.1063 44.544 40.9125 43.3889 40.9125 43.3889C40.9125 43.3889 44.9878 44.5519 47.0706 45.8098C47.9776 46.3549 48.8278 46.9933 49.64 47.6713C52.1114 49.7318 53.9856 52.2823 55.3398 55.1931C56.7304 58.1797 57.6153 61.3606 58.6488 64.48C59.0849 65.7979 59.5147 67.1205 59.9193 68.4495Z" fill="#20CE86"/>
<path d="M49.9767 65.0963C50.0194 64.3331 50.0525 63.5651 49.9972 62.8018C49.934 61.8979 49.746 61.0114 49.5342 60.1392C49.0617 58.1971 48.4692 56.2929 47.7612 54.4488C47.9177 54.7507 48.0915 55.0462 48.2653 55.3369C49.5121 57.4528 50.6957 59.6999 51.0734 62.2108C51.3625 64.1229 51.1713 66.1187 51.6217 67.9897C52.0167 69.6204 52.8938 71.0805 54.0347 72.1646C54.071 72.1978 54.1073 72.2325 54.1437 72.2657C52.4371 72.8457 51.1745 72.9863 49.0617 73.2217C49.4963 70.3552 49.8123 67.9976 49.9767 65.0963Z" fill="#149C64"/>
<path d="M35.3738 21.2155C35.5761 21.1949 35.7815 21.2107 35.9838 21.2265C36.3441 21.2565 36.7043 21.285 37.0631 21.315C37.1832 21.3245 37.3317 21.3182 37.3838 21.2107C37.4091 21.157 37.4012 21.0922 37.3791 21.0385C37.2906 20.8315 37.0362 20.7604 36.8134 20.7319C36.2587 20.6624 35.674 20.7003 35.1557 20.92C35.0546 20.9626 34.4747 21.2265 34.5158 21.3624C34.5521 21.4825 35.2569 21.2265 35.3738 21.2155Z" fill="#211A17"/>
<path d="M43.22 20.9705C43.0162 20.9657 42.8139 20.9957 42.6117 21.0273C42.2561 21.0826 41.899 21.1395 41.5419 21.1948C41.4233 21.2122 41.2748 21.217 41.2147 21.1142C41.1847 21.0621 41.1879 20.9973 41.2068 20.942C41.2795 20.7287 41.5292 20.6386 41.7489 20.5943C42.2972 20.4837 42.8834 20.4806 43.416 20.6591C43.5203 20.6955 44.1176 20.9167 44.0876 21.0542C44.0591 21.1775 43.337 20.9736 43.22 20.9705Z" fill="#211A17"/>
<path d="M42.5811 30.4311C42.1766 31.482 41.4355 32.2041 40.5347 32.28C39.6688 32.3511 38.8471 31.8027 38.2782 30.8957C37.8879 30.2731 37.6161 29.4798 37.5308 28.6012L37.6998 28.587L42.7107 28.173L42.8972 28.1572C42.954 28.99 42.8324 29.7753 42.5811 30.4311Z" fill="#CE7872"/>
<path d="M42.7111 28.1731C42.1532 29.0169 41.3031 29.5826 40.3107 29.6664C39.3199 29.7485 38.3876 29.3266 37.7002 28.5871L42.7111 28.1731Z" fill="white"/>
<path d="M42.5807 30.4311C42.1762 31.482 41.4351 32.2041 40.5344 32.28C39.6684 32.3511 38.8467 31.8027 38.2778 30.8957C38.5212 30.7345 38.7772 30.5923 39.0442 30.4738C39.817 30.1309 40.6845 29.9808 41.5173 30.1135C41.8886 30.172 42.241 30.2842 42.5807 30.4311Z" fill="#EA8C8B"/>
<path d="M37.3586 24.4596C37.3792 25.1423 37.0047 25.708 36.5227 25.7222C36.0407 25.7364 35.6346 25.1944 35.6141 24.5118C35.5935 23.8291 35.9665 23.2634 36.4485 23.2492C36.9304 23.2349 37.3381 23.777 37.3586 24.4596Z" fill="#211A17"/>
<path d="M36.7263 24.0631C36.4466 24.071 36.4593 24.5087 36.7405 24.4992C37.0202 24.4913 37.0076 24.0552 36.7263 24.0631Z" fill="white"/>
<path d="M42.014 24.3188C42.0345 25.0014 42.4422 25.5434 42.9242 25.5292C43.4062 25.515 43.7791 24.9493 43.7585 24.2666C43.738 23.584 43.3319 23.042 42.8499 23.0562C42.368 23.0704 41.9934 23.6361 42.014 24.3188Z" fill="#211A17"/>
<path d="M43.1452 23.7408C42.8639 23.7487 42.8765 24.1848 43.1578 24.1769C43.4391 24.169 43.4265 23.7329 43.1452 23.7408Z" fill="white"/>
<path d="M40.5224 25.8548C40.238 25.6336 39.7955 25.6399 39.5269 25.8817L40.3059 27.2264C40.5224 27.2122 40.6994 27.0321 40.78 26.8298C40.9127 26.4948 40.8068 26.0761 40.5224 25.8548Z" fill="#CE7872"/>
<path d="M36.1036 27.9472C36.1763 28.9886 35.195 29.9067 33.9118 29.9952C32.6303 30.0837 31.5305 29.3109 31.4594 28.2696C31.3867 27.2266 32.368 26.3101 33.6511 26.22C34.9327 26.1316 36.0325 26.9043 36.1036 27.9472Z" fill="#F9BFBB"/>
<path d="M45.999 26.8538C46.0401 27.4385 45.4902 27.9536 44.7696 28.0026C44.0491 28.0532 43.4328 27.6186 43.3933 27.0339C43.3522 26.4492 43.9021 25.9341 44.6227 25.8851C45.3433 25.8345 45.9595 26.2691 45.999 26.8538Z" fill="#F9BFBB"/>
</g>
</g>
<defs>
<clipPath id="clip0_1065_49886">
<rect width="64" height="64" rx="32" fill="white"/>
</clipPath>
<clipPath id="clip1_1065_49886">
<rect width="72" height="72" fill="white" transform="translate(-4)"/>
</clipPath>
</defs>
</svg>
