<svg width="64" height="64" viewBox="0 0 64 64" fill="none" xmlns="http://www.w3.org/2000/svg">
<g clip-path="url(#clip0_1065_49883)">
<rect width="64" height="64" rx="32" fill="#EBFEF4"/>
<g clip-path="url(#clip1_1065_49883)">
<rect width="75" height="75" transform="translate(-5)" fill="#EBFEF4"/>
<path d="M58.3247 51.0262L58.3181 51.0098C57.1626 47.958 55.1083 45.1449 52.8219 42.8453C50.3166 40.3252 48.2212 38.1376 47.4031 34.5344C46.7957 31.8546 46.8122 29.0794 46.7677 26.3338C46.697 21.8927 46.2822 17.1159 43.7604 13.3283C41.5498 10.0033 37.9679 7.74983 33.9318 7.68893C28.7467 7.61156 23.8185 10.7391 21.2013 15.1472C18.4359 19.8022 18.1528 25.2836 16.1495 30.2283C15.0318 32.9888 13.1603 35.4529 11.5866 37.9812C9.27722 41.6849 6.502 45.3342 5.43371 49.6221C2.98603 59.5083 8.34228 70.1287 17.7972 73.8866C18.6877 74.2405 19.6046 74.5286 20.5362 74.7491C20.9626 74.8495 21.3922 74.9368 21.8251 75.0092C28.355 76.1088 34.9968 75.2644 41.3407 73.513C45.0805 72.4809 48.7776 71.0982 51.9363 68.8415C57.5296 64.8498 60.8728 57.7767 58.3247 51.0262Z" fill="#603813"/>
<path d="M102.633 79.0144C101.571 78.7774 100.501 78.5749 99.4315 78.3757C98.2003 78.1469 96.9657 77.9461 95.7411 77.6861C95.6571 77.6679 95.4546 77.6037 95.4612 77.4902C95.4629 77.4457 95.5024 77.4112 95.5452 77.398C95.667 77.3618 95.825 77.4194 95.9419 77.4507C96.8011 77.6828 97.6455 77.8325 98.5229 77.9708C99.2867 78.0926 100.045 78.2309 100.803 78.384C101.336 78.4926 101.889 78.6737 102.429 78.7165C102.809 78.7461 103.219 78.6441 103.354 78.2408C103.749 77.0589 101.379 76.7494 100.679 76.5997C98.5459 76.1421 96.4307 75.5923 94.2925 75.1627C94.1016 75.1248 93.9041 75.1116 93.7312 75.0129C93.6983 74.9931 93.6621 74.9668 93.6522 74.9289C93.6391 74.8762 93.6786 74.8269 93.7181 74.789C94.0078 74.5158 94.4242 74.3956 94.7831 74.2392C95.2818 74.0203 95.8382 73.775 96.2497 73.4063C96.5526 73.1298 96.7699 72.6656 96.5262 72.2853C96.3238 71.9677 95.9304 71.7965 95.5633 71.78C95.0975 71.757 94.6464 71.9314 94.2086 72.0977C93.2325 72.4697 92.2481 72.8187 91.2539 73.1429C90.3371 73.4425 89.3544 73.4639 88.4441 73.7882C87.8417 74.0038 87.2639 74.2804 86.7108 74.6063C86.4787 74.5223 72.4889 67.7373 66.1632 66.4814L55.2185 51.5368C54.7428 52.0718 54.2556 52.5969 53.77 53.1236C52.4367 54.5656 51.1429 56.0437 49.803 57.4791C49.3816 57.9301 48.9553 58.3762 48.5273 58.8206C48.3627 59.0428 48.1998 59.2634 48.0352 59.4856C51.9347 64.3069 58.481 72.3989 60.4513 74.7972C60.5764 75.11 60.7641 75.3486 61.0275 75.4869C67.7911 79.0226 84.7635 79.4572 85.022 79.5774C85.2063 79.6646 85.3446 79.928 85.4812 80.0827C85.6491 80.2753 85.8285 80.458 86.0145 80.6341C86.3882 80.9864 86.7882 81.309 87.2112 81.602C88.0128 82.1551 88.8918 82.5896 89.8186 82.8925C90.3815 83.0769 90.9675 83.1345 91.5518 83.2069C92.7897 83.36 94.0209 83.5526 95.2588 83.6941C96.495 83.8357 97.7377 83.8192 98.9772 83.7715C99.4299 83.7534 100.027 83.7337 100.287 83.2909C100.454 83.0044 100.385 82.6637 100.083 82.5073C99.7854 82.351 99.4035 82.3789 99.076 82.3543C98.704 82.3246 98.332 82.2966 97.9583 82.2703C97.3246 82.2242 96.6892 82.1831 96.0555 82.1436C95.7526 82.1238 95.4053 82.1682 95.1205 82.0497C94.9493 81.9806 95.1337 81.8226 95.2324 81.7979C95.4333 81.7485 95.6752 81.8193 95.8777 81.8423C96.1279 81.8703 96.3797 81.8967 96.6299 81.9213C97.132 81.9691 97.6357 82.0119 98.1394 82.0481C99.1204 82.1222 100.103 82.1748 101.086 82.2226C101.352 82.2357 101.621 82.2473 101.883 82.1929C102.363 82.0942 102.966 81.5411 102.571 81.0226C102.37 80.7592 101.993 80.728 101.662 80.7164C100.564 80.6967 99.4694 80.6193 98.378 80.5024C97.8316 80.4448 97.2867 80.3757 96.7419 80.3C96.4703 80.2621 96.2003 80.2226 95.9287 80.1815C95.8234 80.165 95.3971 80.1667 95.3641 80.0366C95.318 79.8539 95.6736 79.8819 95.7625 79.8918C96.5213 79.9856 97.2818 80.0778 98.0406 80.1699C99.3064 80.3247 100.572 80.4778 101.838 80.6325C102.445 80.7066 103.673 81.0177 103.942 80.221C104.22 79.393 103.231 79.1478 102.633 79.0144Z" fill="#FFCFCA"/>
<path d="M61.6267 58.7658C58.7494 62.0892 56.3461 64.4644 53.4079 67.7318C53.0606 67.3516 52.7133 66.9598 52.3808 66.5763C51.166 65.1755 50.1603 63.8982 50.1224 63.8488L50.1207 63.8472C50.1207 63.8472 49.2236 84.4689 49.0739 85.2162C48.8088 86.5429 51.6154 96.8719 51.0178 97.4694C43.3884 105.097 20.9807 102.999 16.7964 94.7798C16.3125 93.8284 23.8037 83.1241 23.8037 83.1241C23.8037 83.1241 20.7239 73.2609 19.1964 67.536C18.5774 65.22 18.1429 63.5805 18.1412 63.5476C17.9783 64.0397 17.6935 65.3401 17.2458 66.8347C15.7512 66.387 5.87979 64.3245 4.84277 63.8472C8.32911 52.7939 12.7768 47.2187 14.8146 45.5875C16.2549 44.4353 25.7839 40.8469 36.4026 41.6452C42.3777 42.0929 49.4887 44.7826 50.6969 45.8772C53.724 48.6146 58.4794 54.6671 61.6267 58.7658Z" fill="#20CE86"/>
<path d="M39.015 44.765C38.3862 46.7797 36.2661 47.2521 34.3929 47.2324C32.3271 47.2093 29.5947 46.732 28.8589 44.4703C28.3519 42.9099 28.7173 41.119 28.7239 39.5108C28.7305 38.4425 28.6959 37.3725 28.6087 36.3059C28.556 35.6524 28.4852 34.9989 28.3914 34.3487C28.314 33.8253 28.2285 33.3002 28.1313 32.7784C28.0655 32.4278 27.9947 32.0772 27.919 31.7299C27.8663 31.4862 27.5733 30.8295 27.8564 30.6616C28.1182 30.5052 28.6548 30.9677 28.8721 31.0994C32.0802 33.022 35.4316 34.7109 38.8866 36.1429C39.0233 36.1989 39.1648 36.2614 39.2455 36.3849C39.3228 36.5001 39.3245 36.6483 39.3245 36.7898C39.3262 37.9108 39.3261 39.035 39.3278 40.1577C39.3294 40.5939 39.3409 41.0317 39.3475 41.4679C39.3689 42.579 39.3525 43.6868 39.015 44.765Z" fill="#FFCFCA"/>
<path d="M39.3475 41.4677C36.3468 40.6414 33.4629 39.4101 30.8292 37.7641C30.0984 37.3065 29.3428 36.8225 28.6087 36.3057C28.556 35.6522 28.4852 34.9987 28.3914 34.3485C28.314 33.8251 28.2285 33.3 28.1313 32.7782C28.0655 32.4276 27.9947 32.077 27.919 31.7297C27.8663 31.486 27.5733 30.8293 27.8564 30.6614C28.1182 30.505 28.6548 30.9675 28.8721 31.0992C32.0802 33.0218 35.4316 34.7107 38.8866 36.1427C39.0233 36.1987 39.1648 36.2612 39.2455 36.3847C39.3228 36.4999 39.3245 36.6481 39.3245 36.7896C39.3262 37.9106 39.3261 39.0348 39.3278 40.1574C39.3294 40.5936 39.3409 41.0315 39.3475 41.4677Z" fill="#F9BFBB"/>
<path d="M44.3334 32.579C43.6915 34.1494 42.7993 35.5765 41.3392 36.495C40.0421 37.3098 38.4834 37.7098 36.9558 37.6423C35.2653 37.5682 33.6406 36.9806 32.2036 36.0736C31.4876 35.6226 30.8177 35.0942 30.2103 34.5098C29.1486 33.4893 28.2564 32.3074 27.4894 31.0564C26.2417 29.0203 25.2343 26.6993 24.7355 24.3026C24.6763 24.0261 24.6252 23.7479 24.5808 23.4698C24.1923 21.0204 24.3569 18.5184 25.3495 16.1843C25.7956 15.1243 26.4227 14.1416 27.1931 13.2856C30.4391 9.67089 36.0225 9.04539 39.9895 11.8536C42.0569 13.3185 43.5993 15.5193 44.4223 17.8995C44.684 18.655 44.9079 19.4303 45.0922 20.2172C45.1235 20.3521 45.1548 20.4904 45.1828 20.627C46.0321 24.5858 45.8642 28.8425 44.3334 32.579Z" fill="#FFCFCA"/>
<path d="M36.1194 25.3165C35.9071 25.3264 35.6141 24.9889 35.5318 24.4852C35.489 24.2202 35.5153 23.9569 35.6042 23.7593C35.6338 23.6902 35.7194 23.5305 35.8495 23.5091L35.8692 23.5075C36.0816 23.496 36.3746 23.8334 36.4569 24.3371C36.4997 24.6021 36.4733 24.8671 36.3861 25.063C36.3548 25.1321 36.2709 25.2918 36.1392 25.3132L36.1194 25.3165Z" fill="#1F3C49"/>
<path d="M42.4986 24.6976C42.3175 24.7059 42.0163 24.4063 41.934 23.8944C41.8928 23.6392 41.9175 23.3825 42.0031 23.1915C42.064 23.0532 42.1496 22.966 42.2352 22.9528L42.2533 22.9512C42.4344 22.9413 42.7356 23.2425 42.8179 23.7528C42.8591 24.0096 42.8344 24.2664 42.7488 24.4573C42.6879 24.594 42.6023 24.6812 42.5167 24.696L42.4986 24.6976Z" fill="#1F3C49"/>
<path d="M39.2969 25.8548C39.4648 25.6721 39.7463 25.5931 40.0113 25.6425C40.2829 25.6869 40.5314 25.8811 40.6582 26.1281C40.7899 26.3717 40.8047 26.6877 40.6878 26.9363C40.5742 27.1815 40.3487 27.3675 40.1034 27.4005C40.2746 27.2276 40.3717 27.0334 40.408 26.8408C40.4442 26.6499 40.4096 26.4671 40.3257 26.3009C40.2384 26.1379 40.1084 26.0046 39.9306 25.9239C39.7512 25.8449 39.5372 25.812 39.2969 25.8548Z" fill="#1F3C49"/>
<path d="M36.1199 21.6295C36.1001 21.6328 36.0804 21.6311 36.0606 21.6245C35.8236 21.5521 35.5635 21.529 35.3084 21.557C35.2738 21.562 35.2393 21.5669 35.2047 21.5718C34.9742 21.6114 34.7504 21.692 34.5561 21.8056C34.5397 21.8155 34.5232 21.822 34.5051 21.8237C34.4804 21.827 34.464 21.827 34.4491 21.8221C34.4096 21.8138 34.3734 21.7891 34.352 21.7529C34.3109 21.6838 34.3356 21.5916 34.4047 21.5505C34.6286 21.4188 34.887 21.3266 35.1537 21.2821C35.1932 21.2755 35.2343 21.269 35.2738 21.2657C35.5685 21.2328 35.8713 21.2591 36.1462 21.3414C36.2252 21.3644 36.2697 21.4468 36.245 21.5258C36.2285 21.5801 36.1841 21.6196 36.1281 21.6295H36.1199Z" fill="#1F3C49"/>
<path d="M41.1471 20.7388L41.1191 20.729C41.0862 20.7141 41.0615 20.6862 41.0467 20.6549C41.0154 20.5792 41.05 20.4919 41.124 20.459C41.4927 20.301 41.9191 20.2582 42.3224 20.3372C42.3586 20.3438 42.3948 20.352 42.431 20.3619C42.5298 20.3866 42.6269 20.4195 42.7174 20.459C42.7915 20.4919 42.8277 20.5792 42.7948 20.6532C42.7668 20.7191 42.7009 20.7536 42.6318 20.7405C42.6153 20.7372 42.6088 20.7339 42.6006 20.7306C42.5232 20.6977 42.4409 20.6697 42.3569 20.6483C42.3273 20.6401 42.296 20.6335 42.2664 20.6286C41.9207 20.5594 41.5569 20.5956 41.2409 20.7322C41.2146 20.7438 41.1833 20.7471 41.1537 20.7405L41.1471 20.7388Z" fill="#1F3C49"/>
<path d="M35.996 23.8367C35.6865 23.7725 35.5861 24.2564 35.8972 24.3206C36.2083 24.3848 36.3087 23.9009 35.996 23.8367Z" fill="white"/>
<path d="M42.4751 23.213C42.1639 23.1488 42.0635 23.6311 42.3746 23.697C42.6858 23.7612 42.7862 23.2772 42.4751 23.213Z" fill="white"/>
<path d="M43.1669 28.3042C43.2541 29.1667 43.0994 29.9865 42.7636 30.6844C42.227 31.8054 41.2246 32.6037 40.0131 32.7255C38.7703 32.8522 37.6049 32.2399 36.8576 31.2078C36.4164 30.6037 36.1201 29.8548 36.0362 29.0268C36.0329 28.9972 36.0345 28.9676 36.0312 28.9363L43.1537 28.2137C43.157 28.2449 43.1636 28.2746 43.1669 28.3042Z" fill="#D55454"/>
<path d="M42.8643 28.2434C42.1516 29.1702 41.0356 29.822 39.7319 29.9537C38.4299 30.0854 37.2052 29.6706 36.3213 28.9068L42.8643 28.2434Z" fill="white"/>
<path d="M42.7634 30.6844C42.2268 31.8054 41.2244 32.6037 40.0129 32.7255C38.7701 32.8522 37.6047 32.2399 36.8574 31.2078C38.0459 30.8161 39.2919 30.5955 40.5429 30.5593C41.2853 30.5379 42.0293 30.5807 42.7634 30.6844Z" fill="#F37C7C"/>
<path d="M35.721 27.2755C35.7638 28.0853 34.9062 28.7898 33.8066 28.8491C32.7054 28.9067 31.7787 28.2976 31.7359 27.4878C31.6931 26.6763 32.5507 25.9718 33.6503 25.9142C34.7515 25.8549 35.6782 26.4639 35.721 27.2755Z" fill="#F9BFBB"/>
<path d="M45.002 25.9569C45.0316 26.505 44.4522 26.9808 43.7082 27.0203C42.9658 27.0598 42.3403 26.6483 42.3107 26.1001C42.281 25.552 42.8604 25.0763 43.6028 25.0368C44.3468 24.9973 44.9723 25.4088 45.002 25.9569Z" fill="#F9BFBB"/>
<path d="M45.3161 20.5891C43.3622 20.0195 41.3886 18.7521 39.7935 16.8788C39.5829 16.6336 39.387 16.3817 39.201 16.1282C37.9878 18.6862 35.5105 21.0401 32.2135 22.4359C29.5535 23.5618 26.816 23.868 24.4507 23.468C24.0573 20.9874 24.2252 18.4541 25.2293 16.0904C25.6819 15.0155 26.3157 14.0213 27.0959 13.1538C30.3831 9.49301 36.0372 8.86093 40.0552 11.7037C42.149 13.1868 43.7111 15.4172 44.5457 17.827C44.8107 18.5907 45.0378 19.3776 45.2239 20.1726C45.2551 20.3109 45.2864 20.4491 45.3161 20.5891Z" fill="#603813"/>
<path d="M29.2052 30.0689C27.8735 30.9989 26.0398 31.1618 24.5748 30.459C23.3354 29.8664 22.4087 28.6763 22.1074 27.3397C22.0531 27.0977 22.0202 26.8525 22.0087 26.6006C21.9873 26.1628 22.0366 25.7183 22.1848 25.3068C22.5584 24.2928 23.5905 23.5752 24.6687 23.5044C25.7485 23.4352 26.8316 23.9817 27.4801 24.8476L28.1435 26.8558L29.2052 30.0689Z" fill="#FFCFCA"/>
<path d="M39.3158 41.6452C39.1529 43.0543 38.9438 44.5456 37.8278 45.5546C36.8484 46.4402 35.4789 46.8204 34.1736 46.8105C32.7991 46.799 31.4312 46.3562 30.3218 45.5563C29.0658 44.6526 28.6856 43.1333 28.6428 41.66C28.6247 40.9703 27.5367 40.9671 27.5564 41.66C27.6042 43.3654 28.0634 45.1596 29.4658 46.2542C30.7959 47.2928 32.4781 47.8673 34.1736 47.8838C35.7653 47.8986 37.413 47.3916 38.5965 46.3134C39.9331 45.097 40.208 43.3423 40.4039 41.6452C40.4812 40.9588 39.3932 40.9654 39.3158 41.6452Z" fill="#149C64"/>
<path d="M21.7267 54.4417C21.7003 54.7084 21.0765 60.8597 20.5333 63.2498C20.1942 64.7427 19.6691 66.2917 19.1967 67.5361C18.5778 65.2201 18.1432 63.5806 18.1416 63.5477C18.1416 63.5477 19.786 60.2605 20.6831 57.7207C21.5226 55.3388 21.7069 54.5323 21.7267 54.4417Z" fill="#149C64"/>
<path d="M52.3812 66.5766C51.1664 65.1758 50.1607 63.8985 50.1228 63.8491L50.1211 63.8474C50.1211 63.8474 50.2709 58.9159 50.1211 56.8517C50.024 55.502 48.959 50.9901 48.9277 50.8486C49.0035 50.9868 51.4462 55.4081 52.0635 58.3183C52.6742 61.1924 52.5721 64.4005 52.3812 66.5766Z" fill="#149C64"/>
</g>
</g>
<defs>
<clipPath id="clip0_1065_49883">
<rect width="64" height="64" rx="32" fill="white"/>
</clipPath>
<clipPath id="clip1_1065_49883">
<rect width="75" height="75" fill="white" transform="translate(-5)"/>
</clipPath>
</defs>
</svg>
