<svg width="64" height="64" viewBox="0 0 64 64" fill="none" xmlns="http://www.w3.org/2000/svg">
<g clip-path="url(#clip0_1065_49878)">
<rect width="64" height="64" rx="32" fill="#EBFEF4"/>
<g clip-path="url(#clip1_1065_49878)">
<rect width="71" height="71" transform="translate(-3)" fill="#EBFEF4"/>
<path d="M33.2062 34.3262C34.2845 34.3012 35.26 34.9089 36.2027 35.4341C37.1455 35.9577 38.2394 36.4329 39.2725 36.1228C40.357 35.7987 41.0131 34.7298 41.906 34.0348C42.8799 33.279 44.1265 32.9783 45.1986 32.369C46.2083 31.794 47.0654 30.9214 47.5204 29.8508C47.9738 28.7819 47.9956 27.5134 47.4783 26.4741C47.3412 26.1983 47.162 25.9162 47.1885 25.6092C47.2118 25.3334 47.3973 25.0997 47.589 24.9018C48.1001 24.3735 48.7327 23.9372 49.0787 23.289C49.3482 22.7857 49.4168 22.1951 49.3794 21.6247C49.2703 19.987 48.2559 18.4381 46.7989 17.6839C45.3419 16.9297 43.4923 16.9951 42.0929 17.8506C40.77 18.6594 39.1042 18.4521 37.7735 19.2468C35.5483 20.576 33.5755 22.326 31.9892 24.3767C31.2724 25.3038 30.6257 26.3058 30.2751 27.4231C29.9229 28.5403 29.8871 29.7885 30.3639 30.8575C30.6132 31.4184 30.9919 31.9108 31.3674 32.397C31.8754 33.0577 32.5393 33.8275 33.2062 34.3262Z" fill="#323A40"/>
<path d="M27.0866 42.2811C26.5724 44.1151 30.6442 46.6613 31.8596 46.4136C33.7077 46.0349 36.2882 44.0668 37.7233 42.7516C37.7826 41.664 37.8449 40.5779 37.9057 39.4918C37.9805 38.133 38.0584 36.7726 38.2687 35.4278C38.3342 35.0164 38.409 34.605 38.4978 34.1983C38.7097 33.1839 38.9778 32.1804 39.2473 31.1753C39.4686 30.351 39.6883 29.5251 39.9096 28.7008C39.3876 29.1278 38.9061 29.3334 38.2875 29.6108C35.6789 30.7779 33.0267 31.8454 30.3606 32.8785C29.558 33.1886 28.7478 33.4987 27.8985 33.6327L27.4778 38.3792L27.0866 42.2811Z" fill="#FFCFCA"/>
<path d="M27.478 38.379C30.4216 37.8804 33.2904 36.9641 35.941 35.6038C36.7824 35.1721 37.6582 34.7078 38.4981 34.1982C38.71 33.1838 38.978 32.1803 39.2476 31.1752C39.4689 30.3509 39.6886 29.525 39.9099 28.7007C39.3878 29.1276 38.9064 29.3333 38.2877 29.6107C35.6792 30.7778 33.027 31.8452 30.3608 32.8784C29.5583 33.1885 28.748 33.4986 27.8988 33.6326L27.478 38.379Z" fill="#F9BFBB"/>
<path d="M22.4491 30.3104C22.8636 31.9372 23.543 33.4612 24.8489 34.5629C26.0082 35.5384 27.4839 36.143 28.9907 36.2879C30.6581 36.4484 32.3332 36.0931 33.8665 35.4012C34.6301 35.0569 35.3609 34.6299 36.0356 34.1406C37.2168 33.2851 38.253 32.2489 39.1787 31.1269C40.6824 29.2991 41.9882 27.1611 42.8063 24.8783C43.7366 22.2994 44.0451 19.5334 43.319 16.833C43.0245 15.7313 42.5461 14.6826 41.9072 13.7367C39.2192 9.74598 33.8292 8.36693 29.5517 10.5781C27.3234 11.7312 25.508 13.6775 24.3736 15.8996C24.0152 16.6039 23.688 17.3332 23.3997 18.0796C21.9084 21.9456 21.4269 26.2994 22.4491 30.3104Z" fill="#FFCFCA"/>
<path d="M38.0894 30.3323C39.2674 31.4262 41.0438 31.836 42.5772 31.3483C43.8736 30.9385 44.9473 29.8976 45.4241 28.6276C45.5114 28.3969 45.5784 28.1616 45.6251 27.9154C45.7046 27.49 45.7171 27.0475 45.6282 26.6236C45.4007 25.5765 44.4876 24.7319 43.4389 24.5138C42.3886 24.2987 41.2527 24.6852 40.4985 25.4456L39.5713 27.3249L38.0894 30.3323Z" fill="#FFCFCA"/>
<path d="M31.3372 24.1956C31.5475 24.2143 31.8498 23.8902 31.948 23.3947C32.001 23.1345 31.9854 22.8711 31.9044 22.6732C31.8779 22.6047 31.8 22.4426 31.6722 22.4177L31.6519 22.4146C31.4416 22.3959 31.1393 22.72 31.0395 23.2139C30.9881 23.4742 31.0037 23.7375 31.0832 23.9354C31.1112 24.004 31.1891 24.1676 31.3169 24.1925L31.3372 24.1956Z" fill="#1F3C49"/>
<path d="M25.0481 23.3482C25.2258 23.3637 25.5343 23.077 25.6356 22.5752C25.6854 22.3228 25.6699 22.0673 25.5935 21.8756C25.5374 21.7369 25.4564 21.6481 25.3722 21.6309L25.3535 21.6278C25.1759 21.6122 24.8673 21.899 24.7661 22.4007C24.7162 22.6547 24.7318 22.9087 24.8081 23.1004C24.8642 23.2391 24.9453 23.3279 25.0294 23.345L25.0481 23.3482Z" fill="#1F3C49"/>
<path d="M28.1729 24.6117C28.0155 24.4247 27.7381 24.3359 27.4732 24.3749C27.2036 24.4091 26.9496 24.5915 26.8172 24.8314C26.6769 25.0683 26.6504 25.38 26.758 25.6308C26.8592 25.877 27.0758 26.0703 27.3189 26.1108C27.1553 25.9347 27.0665 25.7384 27.0369 25.5467C27.0088 25.3566 27.0494 25.1758 27.1397 25.0153C27.2317 24.8564 27.3657 24.7286 27.5449 24.6569C27.7241 24.5837 27.9376 24.5603 28.1729 24.6117Z" fill="#1F3C49"/>
<path d="M33.089 20.4935C33.128 20.492 33.1685 20.4764 33.1965 20.4452C33.2511 20.3844 33.2464 20.2925 33.1872 20.238C32.7478 19.8375 32.1323 19.6318 31.5417 19.6817C31.4607 19.6895 31.4014 19.7596 31.4077 19.8406C31.4155 19.9216 31.4856 19.9809 31.5666 19.9746C32.0793 19.9279 32.6091 20.1086 32.9893 20.4546C33.0174 20.4811 33.0532 20.4935 33.089 20.4935Z" fill="#1F3C49"/>
<path d="M26.7564 19.4617C26.7891 19.4507 26.8187 19.4289 26.8374 19.3978C26.8794 19.3292 26.8576 19.2388 26.7891 19.1968C26.3294 18.9163 25.7466 18.8321 25.2277 18.9708C25.1513 18.9926 25.103 19.0721 25.1233 19.15C25.1435 19.2295 25.2246 19.2747 25.3025 19.2544C25.7466 19.136 26.2437 19.2077 26.6363 19.4461C26.6737 19.4694 26.7174 19.4741 26.7564 19.4617Z" fill="#1F3C49"/>
<path d="M31.5138 22.7373C31.8239 22.6843 31.905 23.1658 31.5949 23.2188C31.2848 23.2702 31.2038 22.7887 31.5138 22.7373Z" fill="white"/>
<path d="M25.1247 21.8803C25.4348 21.8273 25.5174 22.3088 25.2057 22.3618C24.8972 22.4132 24.8146 21.9317 25.1247 21.8803Z" fill="white"/>
<path d="M24.7711 27.0021C24.7493 27.6394 24.9035 28.2346 25.184 28.7302C25.6328 29.528 26.4073 30.0656 27.3033 30.0983C28.2226 30.1295 29.0501 29.623 29.5487 28.8283C29.8432 28.364 30.024 27.7999 30.0458 27.1875C30.0474 27.1641 30.0442 27.1423 30.0458 27.1189L24.7773 26.935C24.7758 26.9584 24.7726 26.9802 24.7711 27.0021Z" fill="#D55454"/>
<path d="M24.9907 26.9417C25.5595 27.5883 26.4119 28.0138 27.3749 28.0465C28.3394 28.0808 29.2199 27.7177 29.8323 27.1115L24.9907 26.9417Z" fill="white"/>
<path d="M25.1836 28.7302C25.6324 29.528 26.4068 30.0656 27.3028 30.0983C28.2222 30.1295 29.0496 29.623 29.5483 28.8283C28.6554 28.5993 27.7283 28.498 26.8089 28.5307C26.2619 28.551 25.7181 28.6195 25.1836 28.7302Z" fill="#F37C7C"/>
<path d="M30.9726 26.3335C30.9009 27.1329 31.7221 27.8622 32.8098 27.9604C33.8975 28.0585 34.8371 27.4898 34.9088 26.6888C34.982 25.8894 34.1593 25.1602 33.0732 25.062C31.9855 24.9638 31.0459 25.5326 30.9726 26.3335Z" fill="#F9BFBB"/>
<path d="M22.5241 24.5026C22.4742 25.0433 23.0305 25.5342 23.7645 25.6012C24.4984 25.6682 25.1326 25.2833 25.1809 24.7426C25.2308 24.2019 24.676 23.7095 23.9405 23.644C23.2066 23.577 22.5724 23.9619 22.5241 24.5026Z" fill="#F9BFBB"/>
<path d="M42.2449 42.3447C40.5106 41.8476 38.6048 40.911 37.9114 40.7256C35.2951 44.4717 29.6136 45.0373 27.1033 40.3828C24.529 40.8674 21.1398 41.497 18.1495 42.2558C18.1214 46.1016 16.1222 50.5629 15.6547 54.323C14.9036 60.3629 13.8954 64.6091 12.8312 70.6084C11.7139 76.9116 11.7154 82.1988 10.5483 90.5776C9.74891 96.3089 9.28452 102.983 8.87158 111.742C19.9243 116.287 33.4236 116.033 53.7948 112.141C53.681 102.322 50.4663 80.7574 49.4145 70.9653C47.1597 61.3913 45.2508 51.7207 42.2449 42.3447Z" fill="#149C64"/>
<path d="M43.8922 24.6118C41.5922 24.6025 39.473 27.2484 38.7656 20.5385C38.6534 19.482 38.4929 18.4349 38.3059 17.3893C38.1204 16.3453 37.6826 15.2654 36.8053 14.7309C34.7655 13.4905 32.2957 15.9588 29.966 15.5801C28.9033 15.4072 27.7954 14.0406 26.7701 14.3772C26.3026 14.5314 25.5047 15.161 25.1635 15.5272C24.0961 16.6663 23.6473 18.2666 22.8494 19.6269C22.6188 18.1544 21.9457 16.0398 22.5877 14.7075C22.9601 13.9362 23.5242 13.0526 23.9106 12.2875C25.0232 10.0873 24.8222 8.5664 26.6875 7.02216C27.7268 6.16044 30.2356 5.29405 31.4947 5.73192C32.1196 5.95008 32.6977 6.32874 33.349 6.43781C34.231 6.58585 35.1067 6.21965 35.9529 5.92047C37.2104 5.47792 38.5536 5.16783 39.861 5.40936C41.1684 5.64933 42.4321 6.5391 42.8404 7.86363C43.1489 8.86247 42.9775 10.0545 43.6024 10.8757C44.179 11.6315 45.209 11.7749 45.9928 12.286C47.6586 13.3752 47.8611 15.8466 47.4778 17.863C47.0056 20.3453 45.4614 22.6858 43.8922 24.6118Z" fill="#323A40"/>
<path d="M27.231 39.9653C27.231 39.9653 27.298 43.2689 27.1967 45.6748C26.9443 51.6897 25.841 54.3029 25.6135 60.3225C25.5232 62.73 25.5559 65.1375 25.5995 67.545C25.626 69.0456 25.6572 70.5447 25.665 72.0437C25.6712 73.3714 25.6603 74.699 25.6089 76.0282C25.6058 76.1404 25.6011 76.2542 25.5964 76.3664C25.4484 79.9208 25.1009 83.4658 24.6365 86.9953C24.5337 87.79 24.4215 88.5831 24.3046 89.3747C24.1753 90.2692 24.0366 91.159 23.8963 92.0503C23.8886 92.0986 23.8808 92.1453 23.873 92.1936C23.8605 92.2778 23.8465 92.3635 23.8325 92.4492C23.6034 93.8844 23.3681 95.3367 23.1312 96.8046C21.6898 105.688 20.1409 115.095 19.1764 123.815C19.1156 124.367 6.92216 119.708 2.70861 115.974C2.24893 115.566 5.38883 103.592 7.06241 96.9837C7.3538 95.8369 7.59847 94.852 7.77455 94.1165C7.79169 94.0464 7.80728 93.981 7.8213 93.9171L7.82909 93.8875C7.90233 93.5774 7.95999 93.3203 8.0005 93.1255C8.00985 93.0741 8.01918 93.0273 8.02853 92.9852C8.03477 92.9541 8.041 92.9245 8.04412 92.8964C7.06085 92.792 4.92602 92.4087 3.95523 92.1235C1.47291 91.3958 -0.906533 90.0432 -2.136 87.1979C-2.64711 86.012 -2.96034 84.5675 -2.99618 82.8004C-3.01644 81.5008 -2.95567 80.1779 -2.82322 78.8409C-2.81076 78.7271 -2.79984 78.6134 -2.78737 78.4996C-2.41027 75.0309 -1.55634 71.4765 -0.395435 68.0141C3.56723 56.1884 11.1014 45.4333 15.3773 42.792C20.4635 39.6521 27.231 39.9653 27.231 39.9653Z" fill="#20CE86"/>
<path d="M53.3509 93.7333C53.3572 93.766 53.3603 93.7972 53.365 93.8299C53.5785 95.2806 53.8247 96.9978 54.0865 98.8491C55.3455 107.773 56.9474 119.811 56.6607 120.046C54.7378 121.587 46.239 124.766 38.133 125.081C37.879 124.97 36.9845 110.636 36.1337 95.8728C36.0184 93.8829 35.9046 91.8836 35.7925 89.9109C35.4855 84.4834 35.1972 79.2539 34.9634 74.925C34.9182 74.0851 34.8746 73.2795 34.8341 72.5128C34.5552 67.3441 34.3806 63.9533 34.3884 63.9081C35.7566 56.6014 37.9039 40.1976 37.9039 40.1976C37.9039 40.1976 45.5908 41.3928 53.1967 46.0457C57.4803 48.6652 63.9425 62.5088 65.9261 77.7845C65.9885 78.2675 66.0461 78.7537 66.0991 79.2399C66.258 80.6953 66.3718 82.1616 66.4341 83.6373C66.7255 90.542 59.2599 92.7983 53.3509 93.7333Z" fill="#20CE86"/>
<path d="M49.8668 54.3354C49.8122 56.0277 49.6362 57.7776 49.5816 59.4683C49.5598 60.1602 49.5364 60.8521 49.5146 61.5439C49.4133 64.7352 49.3105 67.9297 49.0347 71.1101L51.3409 71.0088C50.1909 65.544 50.554 59.8781 49.8668 54.3354Z" fill="#149C64"/>
<path d="M15.1812 55.0807C15.1438 56.7714 15.2249 58.5291 15.1875 60.2198C15.1719 60.9132 15.1563 61.6051 15.1407 62.297C15.069 65.4899 14.9974 68.6827 15.0986 71.8756L12.8018 71.6481C14.2478 66.2534 14.1933 60.5766 15.1812 55.0807Z" fill="#149C64"/>
<path d="M18.6268 78.269C18.8559 78.2892 19.1831 78.2394 19.3826 78.3484C19.6599 78.4996 19.928 78.8767 20.1586 79.0995C20.8022 79.7228 21.4629 80.3306 22.1017 80.9585C22.2778 81.1331 22.4508 81.3091 22.6238 81.4852C24.0356 79.8194 25.424 78.1334 26.7999 76.4365C25.237 75.2989 24.0434 74.4434 23.5073 74.0819C23.2471 73.909 22.9869 73.7344 22.7282 73.5599C22.6565 72.8509 22.524 72.1497 22.3199 71.4672C22.0675 70.6288 21.6062 69.9463 21.2743 69.1453C20.7024 67.7632 20.4064 66.2501 19.9327 64.8258C19.7846 64.3849 19.6179 63.9267 19.2891 63.5964L19.2517 63.5605C18.9198 63.2551 18.4009 63.1055 18.0113 63.3361C17.7121 63.5153 17.5594 63.8722 17.5236 64.2181C17.4628 64.829 17.6093 65.4897 17.7417 66.0818C17.8274 66.4605 17.9537 66.8656 17.9615 67.2567C17.9739 67.8551 17.589 67.4842 17.3039 67.2037C16.9938 66.8937 16.7195 66.5524 16.464 66.1987C15.9575 65.4974 15.5306 64.7417 15.0537 64.0202L11.8172 59.1335C11.4993 58.652 10.6812 58.6816 10.3665 59.1506C9.92704 59.802 10.6735 60.5765 10.9726 61.1187C11.4728 62.0272 11.9668 62.9372 12.4608 63.8504C12.813 64.5048 13.1651 65.1609 13.5111 65.8185C13.7152 66.1987 14.0689 66.5212 14.284 66.9108C14.3619 67.0542 14.6112 67.4406 14.4445 67.6058C14.2715 67.7772 13.9972 67.45 13.8695 67.3471C13.5578 67.0962 13.2555 66.8344 12.9563 66.568C12.3813 66.0506 11.825 65.5099 11.275 64.963C10.1514 63.8582 9.03883 62.73 7.78755 61.7639C7.73456 61.7218 7.6816 61.689 7.62862 61.661C7.26398 61.3322 6.63131 61.4054 6.3477 61.8075C5.81166 62.5679 6.8744 63.3813 7.32162 63.8831C8.04777 64.6918 8.80354 65.471 9.53125 66.2781C10.0751 66.8796 10.6189 67.4811 11.1612 68.0826C11.3529 68.293 12.4483 69.0643 12.1881 69.4352C11.9637 69.7609 11.1705 69.0191 10.968 68.9069C10.4818 68.6389 9.99872 68.3662 9.51722 68.0904C8.55265 67.5372 7.60369 66.9622 6.66873 66.3607C6.58147 66.3031 6.49106 66.2657 6.40224 66.2423C6.14357 66.0631 5.88491 65.8823 5.62935 65.6969C5.16655 65.3697 4.48871 65.633 4.34068 66.1784C4.12564 66.9638 5.07773 67.3783 5.59039 67.7382C6.40692 68.3085 7.22969 68.868 8.06024 69.4212C8.64615 69.8123 9.23363 70.1987 9.82577 70.5805C10.1405 70.7846 11.5882 71.5653 10.9462 72.0499C10.8199 72.145 10.5052 72.0375 10.3743 72.0063C9.95821 71.9128 9.57177 71.7243 9.1713 71.5762C8.10233 71.182 7.02557 70.8018 5.94414 70.4387C5.352 70.2377 4.72245 70.7768 4.83153 71.4017C4.9858 72.3086 6.59549 72.4878 7.29359 72.7153C8.40775 73.0753 9.50632 73.4758 10.5893 73.9183C10.7747 73.9962 10.9602 74.0726 11.1222 74.191C11.3295 74.3406 11.4884 74.551 11.6567 74.7489C13.1776 76.5455 15.4823 77.7345 17.7823 78.1537C18.0612 78.2051 18.3448 78.2441 18.6268 78.269Z" fill="#FFCFCA"/>
</g>
</g>
<defs>
<clipPath id="clip0_1065_49878">
<rect width="64" height="64" rx="32" fill="white"/>
</clipPath>
<clipPath id="clip1_1065_49878">
<rect width="71" height="71" fill="white" transform="translate(-3)"/>
</clipPath>
</defs>
</svg>
