<svg width="64" height="64" viewBox="0 0 64 64" fill="none" xmlns="http://www.w3.org/2000/svg">
<g clip-path="url(#clip0_1065_49891)">
<rect width="64" height="64" rx="32" fill="#EBFEF4"/>
<g clip-path="url(#clip1_1065_49891)">
<rect width="72" height="72" transform="translate(-4)" fill="#EBFEF4"/>
<path d="M95.9772 74.6457C94.9773 74.4213 93.9703 74.2317 92.9631 74.0436C91.8044 73.8287 90.6419 73.6391 89.4889 73.3942C89.4105 73.3768 89.2199 73.3167 89.2258 73.2093C89.228 73.1682 89.2646 73.135 89.3045 73.1239C89.4192 73.0892 89.5691 73.1429 89.6788 73.1729C90.4874 73.391 91.2829 73.5316 92.1087 73.6628C92.8264 73.7766 93.5418 73.9061 94.254 74.0515C94.7568 74.1542 95.2761 74.3233 95.7857 74.3644C96.1431 74.3929 96.5293 74.2965 96.6562 73.9172C97.0279 72.8047 94.7957 72.5124 94.1386 72.3718C92.1302 71.9419 90.1388 71.4236 88.1263 71.0191C87.9471 70.9843 87.76 70.9701 87.5985 70.8785C87.5662 70.8595 87.5327 70.8358 87.5236 70.7995C87.5112 70.7505 87.5485 70.7031 87.5854 70.6683C87.8581 70.4091 88.2506 70.2969 88.5882 70.15C89.0579 69.9446 89.5812 69.7138 89.9683 69.3662C90.254 69.1055 90.4575 68.6678 90.2294 68.3106C90.0383 68.012 89.6681 67.8508 89.3226 67.835C88.8832 67.8129 88.4587 67.9772 88.0476 68.1336C87.1287 68.4844 86.2011 68.8131 85.2661 69.1181C84.4034 69.3994 83.4773 69.4199 82.6216 69.7249C82.0541 69.9272 81.5091 70.1879 80.9896 70.4945C80.741 70.406 63.8281 62.1984 59.6856 62.6803C57.4235 62.9426 54.7955 70.2685 56.8134 71.3241C63.1795 74.6536 79.1567 75.0613 79.3992 75.1751C79.5738 75.2572 79.7036 75.5037 79.8319 75.6507C79.9904 75.8308 80.1592 76.0047 80.3344 76.169C80.6855 76.5009 81.0627 76.8058 81.4603 77.0792C82.2152 77.6007 83.0424 78.01 83.9139 78.2944C84.4442 78.4682 84.9959 78.5219 85.5464 78.5915C86.7107 78.7353 87.8706 78.917 89.0361 79.0497C90.1984 79.1825 91.3692 79.1683 92.5362 79.1224C92.9623 79.105 93.5252 79.0877 93.7689 78.6689C93.9252 78.4019 93.8608 78.0795 93.5772 77.9325C93.297 77.7856 92.9377 77.8124 92.6284 77.7887C92.2781 77.7603 91.9276 77.735 91.577 77.7097C90.9798 77.6671 90.3823 77.626 89.7847 77.5896C89.5007 77.5722 89.1735 77.6133 88.9047 77.5027C88.7444 77.4363 88.9184 77.2878 89.0112 77.2657C89.2005 77.2183 89.4276 77.2846 89.6177 77.3068C89.8539 77.332 90.0901 77.3573 90.3267 77.381C90.7995 77.4269 91.2729 77.4664 91.7467 77.5011C92.6706 77.5691 93.5958 77.6196 94.5214 77.6639C94.7714 77.6765 95.0245 77.6876 95.2699 77.637C95.7231 77.5438 96.2901 77.0223 95.9186 76.5356C95.7296 76.2875 95.3744 76.2575 95.0629 76.2464C94.0299 76.2275 92.9985 76.1548 91.9714 76.0458C91.457 75.9905 90.9439 75.9272 90.4316 75.8546C90.1763 75.8198 89.9211 75.7819 89.6662 75.7424C89.5679 75.7281 89.1654 75.7297 89.1346 75.608C89.0911 75.4358 89.4265 75.4611 89.5096 75.4706C90.2243 75.5575 90.9394 75.646 91.6542 75.7329C92.8457 75.8783 94.0374 76.0221 95.2288 76.1674C95.8009 76.237 96.957 76.5309 97.209 75.7803C97.4715 75.0012 96.5396 74.7705 95.9772 74.6457Z" fill="#FFCFCA"/>
<path d="M53.3998 37.8412C53.4314 37.413 53.4181 36.9816 53.3524 36.5612C53.1847 35.4898 52.6949 34.4927 51.8559 33.8053C51.1308 33.2128 50.2345 32.9109 49.4967 32.3357C48.6565 31.6815 48.066 30.7034 47.6725 29.6652C47.1713 28.341 46.8999 26.8714 46.6213 25.4792C46.3168 23.9575 46.0861 22.4183 45.8707 20.8792C45.4781 18.0712 45.0982 15.1826 43.9995 12.5784C42.8548 9.86515 40.8634 7.85669 38.2816 6.84378C35.7111 5.83402 32.8609 5.65546 30.2086 6.38551C26.815 7.31942 24.0623 9.92203 22.5268 13.3163C21.5069 15.5713 20.9533 18.0427 20.5818 20.5221C20.3121 22.3235 20.1315 24.1534 19.5928 25.8822C19.1912 27.17 18.5694 28.4168 17.6548 29.3602C16.6432 30.4047 15.2208 30.7413 14.0404 31.5156C12.7503 32.3626 11.8828 33.8496 11.5688 35.4472C7.85102 36.9326 5.22266 40.5639 5.22266 44.8115C5.22266 50.3786 9.73606 54.8917 15.3038 54.8917C16.7753 54.8917 18.1719 54.574 19.4322 54.0068C19.7875 54.2169 20.1563 54.4065 20.5373 54.574C21.3141 59.6039 25.6616 63.4548 30.9087 63.4548C33.3292 63.4548 35.5565 62.6331 37.3319 61.2568C37.8028 61.3374 38.286 61.3832 38.7802 61.3832C43.1923 61.3832 46.8099 57.9905 47.1719 53.6718C47.632 53.746 48.1037 53.7871 48.5851 53.7871C53.39 53.7871 57.2851 49.8919 57.2851 45.088C57.2851 42.0635 55.7415 39.4009 53.3998 37.8412Z" fill="#F7931E"/>
<path d="M68.9514 75.054C68.4819 75.6797 58.6108 74.1122 55.3213 71.2931C54.1088 70.2549 52.7887 68.3934 51.6604 66.5714C50.133 64.1063 48.9551 61.7154 48.8668 61.5321L48.8612 61.521C48.8612 61.521 48.7231 73.5354 48.585 74.2259C48.3391 75.4522 52.3135 87.6214 51.7612 88.1745C44.7113 95.2238 19.8609 92.5927 15.9941 84.9982C15.5467 84.1197 21.518 72.5683 21.518 72.5683C21.518 72.5683 18.5558 60.6851 18.1166 57.8123C18.0891 57.629 18.0711 57.4836 18.0656 57.3777C17.8667 57.9735 17.2328 59.413 16.4568 61.1023C14.7818 64.7478 13.275 69.912 13.2322 69.9452C12.9754 70.1364 11.0973 78.4325 10.4703 79.0598C9.55885 79.9716 0.97894 77.0624 0.665426 76.4351C0.316042 75.735 1.43594 68.5356 3.1511 64.0067C6.60354 54.8921 10.7465 45.0884 15.3037 41.5804C17.4759 39.9085 25.8861 35.9864 35.6992 36.7228C41.2203 37.1368 48.857 40.7887 50.307 42.1524C55.4774 47.0084 60.1188 58.9658 60.6477 60.17C62.9705 61.0849 71.4165 65.037 71.4579 65.4953C71.6153 67.2193 70.1475 73.458 68.9514 75.054Z" fill="#20CE86"/>
<path d="M38.2532 39.8813C37.6718 41.7444 35.7122 42.1805 33.9819 42.1615C32.0719 42.141 29.5475 41.7001 28.8667 39.6095C28.3985 38.1668 28.7354 36.5123 28.7424 35.0253C28.7479 34.0377 28.7161 33.05 28.636 32.0656C28.5877 31.4603 28.5215 30.8567 28.4346 30.2562C28.3641 29.7711 28.284 29.286 28.1942 28.804C28.1334 28.4801 28.0686 28.1561 27.9981 27.8353C27.9497 27.6094 27.6791 27.0041 27.9401 26.8477C28.1817 26.7039 28.6776 27.1306 28.8791 27.2522C31.844 29.03 34.9401 30.5896 38.1344 31.9139C38.26 31.966 38.3911 32.0229 38.4657 32.1367C38.5362 32.2441 38.5389 32.3816 38.5389 32.5112C38.5403 33.5478 38.5403 34.586 38.5417 35.6242C38.5432 36.0272 38.5542 36.4317 38.5598 36.8346C38.579 37.8602 38.5639 38.8858 38.2532 39.8813Z" fill="#FFCFCA"/>
<path d="M38.5598 36.8345C35.7866 36.0713 33.1215 34.9335 30.6883 33.4118C30.0116 32.9883 29.3141 32.5411 28.636 32.0655C28.5877 31.4602 28.5215 30.8566 28.4346 30.2561C28.3641 29.771 28.284 29.2859 28.1942 28.8039C28.1334 28.48 28.0686 28.156 27.9981 27.8352C27.9497 27.6093 27.6791 27.004 27.9401 26.8476C28.1817 26.7038 28.6776 27.1305 28.8791 27.2521C31.844 29.0299 34.9401 30.5895 38.1344 31.9138C38.26 31.9659 38.3911 32.0228 38.4657 32.1366C38.5362 32.244 38.5389 32.3815 38.5389 32.5111C38.5403 33.5477 38.5403 34.5859 38.5417 35.6241C38.5432 36.027 38.5542 36.4316 38.5598 36.8345Z" fill="#F9BFBB"/>
<path d="M29.1857 27.1051C27.9558 27.9632 26.2609 28.1133 24.9065 27.4654C23.7621 26.9171 22.905 25.8173 22.6272 24.5831C22.5771 24.3587 22.5463 24.1312 22.5349 23.8989C22.5159 23.4944 22.5607 23.0835 22.6983 22.7043C23.0433 21.7656 23.9971 21.1035 24.9934 21.0387C25.9919 20.9739 26.9925 21.478 27.5914 22.2792L28.2042 24.1344L29.1857 27.1051Z" fill="#FFCFCA"/>
<path d="M43.1661 29.2858C42.5721 30.7364 41.7481 32.0559 40.3982 32.906C39.2008 33.6582 37.7597 34.0264 36.3486 33.9648C34.7867 33.8968 33.2849 33.3532 31.9564 32.5157C31.2951 32.0985 30.6759 31.6102 30.1151 31.0698C29.1346 30.1264 28.3102 29.0345 27.6 27.8778C26.4466 25.9958 25.5158 23.8514 25.0546 21.636C24.5291 19.1329 24.6018 16.5366 25.6221 14.1347C26.0353 13.155 26.6138 12.2479 27.326 11.4562C30.3267 8.11567 35.485 7.53889 39.1523 10.1336C41.0625 11.4878 42.4877 13.52 43.2486 15.7212C43.4903 16.4181 43.6983 17.1339 43.8672 17.8608C44.7461 21.6265 44.6286 25.7113 43.1661 29.2858Z" fill="#FFCFCA"/>
<path d="M35.5764 22.5731C35.3799 22.5842 35.1087 22.2713 35.0338 21.8067C34.9943 21.5618 35.0181 21.3168 35.0994 21.1351C35.1273 21.0719 35.2057 20.9234 35.326 20.9044L35.3446 20.9028C35.5414 20.8918 35.8124 21.2046 35.8873 21.6692C35.9268 21.9142 35.9029 22.1591 35.8217 22.3408C35.7937 22.404 35.7153 22.5526 35.5949 22.5715L35.5764 22.5731Z" fill="#1F3C49"/>
<path d="M41.4703 22.0026C41.3042 22.0105 41.0258 21.7324 40.9498 21.2615C40.9114 21.0245 40.9346 20.7875 41.0131 20.6105C41.0697 20.4841 41.1481 20.4035 41.2277 20.3908L41.245 20.3877C41.4112 20.3798 41.6895 20.6579 41.7656 21.1288C41.8037 21.3674 41.7807 21.6044 41.7023 21.7798C41.6455 21.9078 41.5673 21.9868 41.4875 22.0011L41.4703 22.0026Z" fill="#1F3C49"/>
<path d="M38.5127 23.0727C38.6668 22.9036 38.9272 22.8309 39.1731 22.8751C39.4234 22.9178 39.6539 23.0964 39.7698 23.3239C39.8916 23.5499 39.9063 23.8422 39.7972 24.0714C39.6934 24.2989 39.4848 24.4712 39.2576 24.4996C39.4163 24.34 39.5054 24.1614 39.539 23.9829C39.573 23.8075 39.5409 23.6384 39.4626 23.4851C39.3828 23.3334 39.262 23.2101 39.0975 23.1359C38.9326 23.0632 38.7339 23.0332 38.5127 23.0727Z" fill="#1F3C49"/>
<path d="M35.5761 18.7536C35.5576 18.7552 35.5396 18.7536 35.5214 18.7489C35.3022 18.6809 35.0612 18.6604 34.8252 18.6872C34.7932 18.6904 34.7613 18.6952 34.7294 18.6999C34.517 18.7347 34.3097 18.8105 34.13 18.9164C34.1153 18.9243 34.1 18.9306 34.0834 18.9322C34.061 18.9353 34.046 18.9353 34.0311 18.9306C33.9948 18.9243 33.9617 18.899 33.9426 18.8674C33.9045 18.8026 33.9262 18.7189 33.9911 18.6793C34.1978 18.5577 34.4371 18.4723 34.6829 18.4313C34.7196 18.4249 34.7566 18.4202 34.7936 18.4155C35.0668 18.3854 35.3457 18.4107 35.6004 18.4866C35.6725 18.5087 35.7136 18.5845 35.6919 18.6572C35.6767 18.7062 35.6352 18.7441 35.5837 18.752L35.5761 18.7536Z" fill="#1F3C49"/>
<path d="M40.2207 17.9305L40.1949 17.921C40.165 17.9068 40.1418 17.8815 40.1287 17.8514C40.0991 17.7819 40.1311 17.7013 40.2003 17.6713C40.5413 17.5259 40.9344 17.4848 41.3075 17.5591C41.3412 17.5654 41.3747 17.5733 41.4079 17.5812C41.499 17.6049 41.5882 17.635 41.6727 17.6713C41.7403 17.7013 41.7742 17.7819 41.7448 17.8499C41.7187 17.9115 41.6579 17.9447 41.5934 17.9305C41.5785 17.9273 41.5717 17.9257 41.5651 17.9226C41.4934 17.8925 41.4174 17.8657 41.3391 17.8467C41.3115 17.8388 41.2838 17.8325 41.2559 17.8277C40.9359 17.7645 40.5994 17.7977 40.3084 17.9226C40.2832 17.9336 40.2546 17.9368 40.2273 17.932L40.2207 17.9305Z" fill="#1F3C49"/>
<path d="M35.4627 21.2078C35.1754 21.1478 35.0825 21.595 35.3704 21.6534C35.6575 21.7135 35.7504 21.2679 35.4627 21.2078Z" fill="white"/>
<path d="M41.4489 20.6309C41.1617 20.5709 41.0689 21.0181 41.3565 21.0765C41.6439 21.1366 41.7367 20.6894 41.4489 20.6309Z" fill="white"/>
<path d="M42.0885 25.3353C42.1691 26.1317 42.0258 26.8902 41.7159 27.535C41.2199 28.5716 40.294 29.308 39.1738 29.4217C38.0263 29.5387 36.9481 28.973 36.2579 28.0185C35.85 27.4607 35.5765 26.7686 35.499 26.0037C35.4962 25.9753 35.4971 25.9484 35.4941 25.9184L42.0764 25.2516C42.0792 25.2816 42.0857 25.3084 42.0885 25.3353Z" fill="#D55454"/>
<path d="M41.8089 25.2784C41.1504 26.1348 40.1185 26.7369 38.9141 26.8602C37.7098 26.9818 36.578 26.5994 35.7612 25.8915L41.8089 25.2784Z" fill="white"/>
<path d="M41.7159 27.535C41.2198 28.5716 40.294 29.308 39.1738 29.4217C38.0262 29.5387 36.948 28.973 36.2578 28.0185C37.3567 27.6566 38.5083 27.4528 39.6644 27.4196C40.3504 27.4006 41.0367 27.4402 41.7159 27.535Z" fill="#F37C7C"/>
<path d="M35.2079 24.3843C35.2477 25.1333 34.4555 25.7844 33.4385 25.8381C32.4215 25.8934 31.5647 25.3293 31.5249 24.5803C31.4851 23.8313 32.2772 23.1802 33.2942 23.1265C34.3113 23.0728 35.168 23.6353 35.2079 24.3843Z" fill="#F9BFBB"/>
<path d="M43.7845 23.1656C43.8115 23.6712 43.2764 24.1121 42.5897 24.1484C41.9027 24.1848 41.3242 23.804 41.2974 23.2983C41.2703 22.7926 41.8054 22.3533 42.4922 22.317C43.1791 22.2806 43.7576 22.6599 43.7845 23.1656Z" fill="#F9BFBB"/>
<path d="M43.2201 14.8837C42.8681 14.3385 42.382 13.7222 41.7354 13.7854C41.4985 13.8076 41.2818 13.9245 41.053 13.9893C40.5764 14.1236 40.0395 14.0256 39.6425 13.7285C39.3116 13.482 39.0794 13.1123 38.7227 12.9037C38.3014 12.6587 37.7346 12.6919 37.3443 12.9843C37.0088 13.2355 36.8233 13.6337 36.5641 13.9624C35.9753 14.7114 35.0051 15.0844 34.0543 15.1397C33.1035 15.195 32.1599 14.9674 31.2455 14.702C30.8109 14.5755 30.3207 14.4444 29.9258 14.6656C29.6518 14.8189 29.4875 15.1128 29.3734 15.4051C29.0825 16.1542 29.0344 16.9759 29.0932 17.777C29.1642 18.7426 29.3691 19.7871 28.8819 20.623C28.5398 21.2108 27.867 21.5901 27.1873 21.5775C26.5503 21.5664 25.9657 21.244 25.351 21.0781C24.7361 20.9106 23.9649 20.9548 23.6103 21.4842C23.3333 18.8532 23.2836 16.1004 24.3589 13.6843C25.3393 11.4815 27.2056 9.71007 29.4129 8.73824C31.6201 7.76799 34.1451 7.58468 36.4979 8.11247C37.3892 8.31158 38.2636 8.6134 39.052 9.07482C41.0679 10.2537 42.4664 12.673 43.2201 14.8837Z" fill="#F7931E"/>
<path d="M18.1164 57.8122C18.0889 57.6289 18.0709 57.4835 18.0654 57.3776C17.8664 57.9734 17.2326 59.4129 16.4565 61.1022C17.1387 55.9854 17.4992 49.9822 17.4992 49.9822C17.4992 49.9822 17.8459 54.7466 18.1164 57.8122Z" fill="#149C64"/>
<path d="M51.6603 66.5711C50.1329 64.106 48.955 61.7151 48.8667 61.5318C48.5974 57.1041 48.1706 47.9562 48.0132 46.5008C49.9519 52.749 50.2587 59.2974 51.4904 65.7225C51.5443 66.0054 51.6009 66.2898 51.6603 66.5711Z" fill="#149C64"/>
</g>
</g>
<defs>
<clipPath id="clip0_1065_49891">
<rect width="64" height="64" rx="32" fill="white"/>
</clipPath>
<clipPath id="clip1_1065_49891">
<rect width="72" height="72" fill="white" transform="translate(-4)"/>
</clipPath>
</defs>
</svg>
