<svg width="64" height="64" viewBox="0 0 64 64" fill="none" xmlns="http://www.w3.org/2000/svg">
<g clip-path="url(#clip0_1065_49881)">
<rect width="64" height="64" rx="32" fill="#EBFEF4"/>
<g clip-path="url(#clip1_1065_49881)">
<rect width="71" height="71" transform="translate(-3)" fill="#EBFEF4"/>
<path d="M25.6337 41.4839C25.5708 40.6082 24.8091 39.9132 23.9019 40.1641C18.4575 41.6678 12.8302 44.2031 10.296 49.5791C9.30514 51.6812 8.95298 54.0217 8.46914 56.2796C7.92764 58.8071 7.42448 61.3424 6.95996 63.884C6.37218 67.1018 5.89208 70.3367 5.43691 73.5748C5.02319 76.5168 5.10033 80.132 3.74308 82.7779C1.21168 87.7129 -1.42911 92.7399 -4.01661 97.703C-5.34363 100.248 -6.66644 102.795 -7.97585 105.349C-8.61504 106.596 -9.2505 107.846 -9.88331 109.097C-10.1912 109.705 -10.7293 110.428 -10.4017 111.126C-9.75896 112.492 -7.91055 113.247 -6.70072 114.043C-6.34434 114.278 -5.98079 114.517 -5.56926 114.632C-3.69466 115.157 -2.1121 112.117 -1.21859 110.937C0.309133 108.919 1.81161 106.881 3.28822 104.826C6.54203 100.296 9.88793 95.671 12.747 90.8232C13.8765 88.9081 15.0801 86.9603 15.9853 84.9346C18.1302 80.1304 18.9313 74.8323 20.6742 69.8755C22.5139 64.6428 24.7692 59.3525 25.3881 53.7927C25.8428 49.7084 25.929 45.5822 25.6337 41.4839Z" fill="#149C64"/>
<path d="M69.1588 117.012C67.3901 117.462 61.57 116.865 61.3596 116.737C60.4122 116.164 60.3468 85.2138 58.896 82.6691C58.0966 81.2667 54.9786 76.1322 51.781 70.7126C48.7642 65.5921 45.6726 60.2145 44.3995 57.4876C42.0154 52.3874 43.0209 40.3482 43.3823 39.0081C46.687 39.8511 48.9263 40.8251 49.1616 40.9279L49.1818 40.9388C51.4008 41.9564 54.0826 43.8683 55.203 44.9062C62.7278 51.8841 69.8086 73.6063 71.0069 79.4731C72.442 86.4993 70.4085 116.692 69.1588 117.012Z" fill="#149C64"/>
<path d="M57.1179 107.296C53.202 110.234 9.91406 110.444 9.91406 108.392C9.91406 100.561 11.6819 91.7214 12.2401 83.9005C12.7163 77.2452 14.3472 56.2756 14.5661 52.5685C14.7166 49.9942 15.1134 43.9482 15.1134 43.9482C15.1134 43.9482 18.9827 41.6217 20.9967 40.6649C23.7782 39.3435 26.6447 38.5192 29.6657 38.0564C34.6939 37.2897 39.7001 38.0689 43.3821 39.0085C46.6869 39.8515 48.9261 40.8254 49.1614 40.9283L49.1817 40.9392C49.1817 40.9392 47.0967 41.8352 46.5825 45.1808C44.3931 59.4093 51.7762 70.6132 51.7762 70.6132C51.7762 70.6132 53.7801 82.9484 54.9286 89.236C55.6578 93.2298 57.6649 106.886 57.1179 107.296Z" fill="#20CE86"/>
<path d="M22.1998 14.3812C22.5006 13.2639 22.9867 12.2308 23.6255 11.408C25.3338 9.20931 28.2272 7.59183 31.0718 8.00321C33.6559 8.37564 35.9675 9.43214 37.3243 11.7664C38.7442 14.2067 38.6971 17.4946 37.0032 19.793C35.9904 21.1674 34.6037 22.2769 33.0525 22.9859C32.587 23.1978 32.1049 23.3739 31.6113 23.5079C28.9931 24.2216 25.5649 23.9178 23.5737 21.8889C21.6868 19.9676 21.5346 16.8495 22.1998 14.3812Z" fill="#32334C"/>
<path d="M38.2452 25.2846C38.118 25.9889 37.9935 26.6933 37.8678 27.3976C37.8594 27.4397 37.8525 27.4833 37.8457 27.5254C37.8421 27.5441 37.8383 27.5628 37.8348 27.5815C37.6677 28.5149 37.5021 29.4467 37.3878 30.3832C37.3402 30.7603 37.3026 31.139 37.276 31.5176C37.2454 31.9415 37.2289 32.3685 37.2245 32.7923C37.2124 33.6057 37.2347 34.4207 37.2596 35.2341C37.2894 36.2252 37.3177 37.2162 37.3473 38.2057C36.7638 38.8384 35.9469 39.6331 35.0735 40.3374C33.3733 40.8096 31.394 41.1228 29.6763 41.1851C28.5138 40.5073 27.4831 39.5131 27.6563 38.6015L27.7099 35.03L27.7124 34.4441L27.7168 32.8952L27.7251 30.6887C28.4852 30.5032 29.1968 30.1573 29.9019 29.8145C32.2409 28.6707 34.5647 27.4973 36.8429 26.2351C36.9043 26.2024 36.9629 26.1697 37.0202 26.137C37.4782 25.883 37.853 25.6648 38.2452 25.2846Z" fill="#FFCFCA"/>
<path d="M27.7104 35.0302C30.3428 34.3507 32.8755 33.2974 35.1758 31.8575C35.9075 31.401 36.6664 30.9117 37.3885 30.385C37.502 29.4469 37.6685 28.515 37.8348 27.5832C37.9716 26.8181 38.1081 26.0499 38.2449 25.2848C37.8044 25.7133 37.3837 25.9361 36.8433 26.2369C34.5657 27.4975 32.2414 28.6709 29.9021 29.8146C29.1972 30.159 28.4858 30.5034 27.7248 30.6888L27.7104 35.0302Z" fill="#F9BFBB"/>
<path d="M22.522 28.0954C23.0247 29.5399 23.7582 30.8707 25.0294 31.7698C26.1568 32.5661 27.5421 33.0008 28.9209 33.0149C30.4469 33.0304 31.9394 32.5801 33.2785 31.8337C33.945 31.4613 34.5742 31.0187 35.1494 30.5216C36.1548 29.6537 37.0159 28.633 37.769 27.5438C38.9924 25.7689 40.0127 23.7276 40.5788 21.5928C41.223 19.179 41.2888 16.6453 40.4208 14.2503C40.0698 13.2732 39.5535 12.3585 38.9011 11.5498C36.1521 8.13563 31.1546 7.30196 27.4432 9.6378C25.5098 10.8564 24.0136 12.7637 23.1561 14.8689C22.8837 15.5358 22.6432 16.223 22.4404 16.9227C21.3854 20.5456 21.2847 24.5348 22.522 28.0954Z" fill="#FFCFCA"/>
<path d="M36.7188 26.9068C37.8723 27.809 39.5165 28.0427 40.8709 27.4818C42.0151 27.0096 42.9086 25.9812 43.2445 24.7938C43.3049 24.5772 43.347 24.3574 43.3704 24.1315C43.4101 23.7373 43.3881 23.3352 43.274 22.9581C42.987 22.0247 42.0923 21.3282 41.1246 21.2129C40.1547 21.0976 39.1528 21.537 38.5268 22.2865L37.8317 24.0629L36.7188 26.9068Z" fill="#FFCFCA"/>
<path d="M30.2739 21.9527C30.4649 21.973 30.7459 21.6816 30.8433 21.2328C30.8947 20.996 30.8843 20.756 30.8148 20.5752C30.7908 20.5114 30.7222 20.3633 30.606 20.3384L30.5879 20.3353C30.3968 20.315 30.116 20.6048 30.0186 21.0536C29.9672 21.2905 29.9775 21.5305 30.047 21.7128C30.0712 21.7751 30.1396 21.9247 30.256 21.9496L30.2739 21.9527Z" fill="#1F3C49"/>
<path d="M24.5592 21.0849C24.7208 21.102 25.0068 20.8449 25.1057 20.3899C25.1556 20.1608 25.1454 19.9286 25.0783 19.7525C25.0296 19.6248 24.9577 19.5422 24.8805 19.5266L24.8639 19.5235C24.7024 19.5063 24.4163 19.7619 24.3174 20.2185C24.2677 20.4475 24.2776 20.6797 24.3448 20.8558C24.3934 20.9836 24.4656 21.0646 24.5425 21.0817L24.5592 21.0849Z" fill="#1F3C49"/>
<path d="M27.3862 22.2833C27.2448 22.1103 26.9947 22.0262 26.7527 22.0573C26.5067 22.0838 26.2725 22.2459 26.1475 22.4625C26.0168 22.6759 25.9873 22.9595 26.0814 23.1886C26.1706 23.4161 26.365 23.5953 26.5849 23.6358C26.4386 23.4722 26.3613 23.293 26.3378 23.1169C26.3141 22.944 26.3541 22.7803 26.4386 22.6354C26.5244 22.4921 26.6486 22.3783 26.8127 22.316C26.9774 22.2521 27.1725 22.2334 27.3862 22.2833Z" fill="#1F3C49"/>
<path d="M32.013 18.3579C32.0472 18.347 32.0765 18.3221 32.0924 18.2863C32.1224 18.2192 32.0924 18.1398 32.025 18.1102C31.5317 17.8889 30.9403 17.8842 30.4429 18.0961C30.3752 18.1257 30.3435 18.2037 30.3727 18.2722C30.4016 18.3392 30.4799 18.3704 30.548 18.3423C30.9784 18.1569 31.4893 18.1631 31.9158 18.3533C31.9478 18.3688 31.9823 18.3688 32.013 18.3579Z" fill="#1F3C49"/>
<path d="M26.274 17.4821C26.3045 17.4759 26.3327 17.4603 26.3531 17.4338C26.398 17.3746 26.387 17.2905 26.3284 17.2453C25.9399 16.9477 25.4191 16.8152 24.9354 16.8916C24.8647 16.904 24.813 16.971 24.8243 17.0443C24.8357 17.1175 24.9041 17.1674 24.977 17.1549C25.3898 17.091 25.8342 17.2032 26.1658 17.4572C26.1979 17.4821 26.2374 17.4899 26.274 17.4821Z" fill="#1F3C49"/>
<path d="M30.4566 20.6266C30.7397 20.5829 30.8069 21.0239 30.5231 21.066C30.24 21.1096 30.173 20.6686 30.4566 20.6266Z" fill="white"/>
<path d="M24.6519 19.7495C24.9352 19.7058 25.0022 20.1453 24.7184 20.1889C24.4353 20.2325 24.3683 19.7915 24.6519 19.7495Z" fill="white"/>
<path d="M24.2523 24.4086C24.2222 24.9883 24.3531 25.5321 24.6009 25.9887C24.9973 26.7226 25.6948 27.2244 26.5108 27.2665C27.347 27.3101 28.1082 26.8613 28.5746 26.1445C28.8504 25.7253 29.024 25.2142 29.0528 24.6564C29.0539 24.6377 29.0522 24.6174 29.0533 24.5956L24.2582 24.3463C24.2571 24.3681 24.2534 24.3883 24.2523 24.4086Z" fill="#D55454"/>
<path d="M24.4526 24.3575C24.9605 24.9543 25.7301 25.3548 26.6074 25.4C27.4849 25.4452 28.2916 25.1273 28.8585 24.585L24.4526 24.3575Z" fill="white"/>
<path d="M24.6011 25.9887C24.9975 26.7226 25.695 27.2244 26.511 27.2665C27.3472 27.3101 28.1084 26.8613 28.5748 26.1445C27.7655 25.9217 26.9232 25.8157 26.0841 25.8313C25.5861 25.8422 25.0899 25.8952 24.6011 25.9887Z" fill="#F37C7C"/>
<path d="M29.91 23.8933C29.8318 24.6225 30.5696 25.2988 31.5582 25.4048C32.5466 25.5107 33.4114 25.0059 33.4896 24.2782C33.5678 23.5504 32.83 22.8742 31.8415 22.7682C30.853 22.6622 29.9882 23.1655 29.91 23.8933Z" fill="#F9BFBB"/>
<path d="M22.2426 22.0975C22.1897 22.5884 22.688 23.045 23.3555 23.1167C24.0231 23.1899 24.6071 22.8486 24.66 22.3578C24.7128 21.8654 24.2145 21.4088 23.5469 21.3371C22.8795 21.2654 22.2955 21.6051 22.2426 22.0975Z" fill="#F9BFBB"/>
<path d="M22.2256 11.3238C22.0486 9.49128 24.8799 7.49359 30.1517 6.57265C34.2261 5.86053 39.6506 7.25518 42.4536 10.2611C44.1041 12.0328 45.1014 14.4419 44.891 16.865C44.7196 18.8471 43.8485 20.7949 43.046 22.6025C42.4639 21.4681 40.8395 21.0255 39.5977 21.4276C38.8725 21.6613 38.279 22.1288 37.8078 22.7054C37.7892 20.3944 37.2046 18.1599 37.2055 15.8459C37.1977 15.8926 33.3779 15.3784 33.1071 15.3441C30.8972 15.059 28.7036 14.7785 26.5582 14.1583C25.6437 13.8934 24.7428 13.5848 23.8602 13.2327C23.2132 12.974 22.2783 11.8692 22.2256 11.3238Z" fill="#32334C"/>
<path d="M32.5809 22.9704C32.2039 23.3085 31.7185 23.5345 31.1752 23.5875C30.7897 23.6249 30.416 23.5703 30.0751 23.441C29.2236 23.1215 28.5804 22.3393 28.487 21.3732C28.3564 20.0206 29.3506 18.8145 30.7016 18.6852C32.054 18.5543 33.2592 19.5469 33.3898 20.8995C33.4679 21.7082 33.1437 22.4655 32.5809 22.9704ZM28.2834 20.4881L27.3459 20.3463C27.3489 20.3198 27.3546 20.2949 27.3577 20.2699L28.3055 20.4039C28.2972 20.432 28.2902 20.46 28.2834 20.4881ZM24.8757 22.4094C24.7994 22.4157 24.7241 22.4188 24.6486 22.4203C24.4605 22.4219 24.2756 22.4001 24.0971 22.358C23.5434 22.2349 23.054 21.9201 22.7079 21.4823C22.423 21.1238 22.2348 20.6829 22.1876 20.1936C22.1667 19.9785 22.174 19.7697 22.208 19.5656L22.2078 19.564C22.3828 18.4857 23.2664 17.6162 24.4022 17.5056C25.7546 17.3747 26.9598 18.3688 27.0904 19.7199C27.2209 21.0724 26.228 22.2785 24.8757 22.4094ZM41.0669 21.0709L40.7104 21.0646L37.7074 21.0132L35.9657 20.9836L33.6665 20.9462C33.6642 20.9213 33.6645 20.8979 33.6622 20.873C33.5171 19.3708 32.1776 18.2676 30.6753 18.4125C29.6171 18.5138 28.758 19.2119 28.3928 20.1406L27.3754 19.9957C27.3766 19.8944 27.3725 19.7947 27.3627 19.6949C27.2177 18.1928 25.878 17.088 24.3759 17.2329C23.4839 17.3201 22.7333 17.8312 22.3004 18.5449L22.2465 18.1834C22.2381 18.1258 22.1955 18.0852 22.1421 18.0712C22.1252 18.0681 22.1073 18.0665 22.0896 18.0681C22.0151 18.0806 21.964 18.1491 21.9755 18.2255L22.0294 18.5839L22.0889 18.9734C22.0802 18.9968 22.0717 19.0218 22.0629 19.0451C21.9333 19.4113 21.8755 19.8087 21.9152 20.2201C21.9672 20.7577 22.1722 21.2438 22.4826 21.6412C22.9672 22.2583 23.7081 22.6587 24.5278 22.6915L24.5664 22.693C24.6766 22.6961 24.7889 22.6915 24.9021 22.6806C26.0868 22.5668 27.0212 21.7082 27.292 20.6143L28.231 20.7561C28.2017 20.9665 28.1934 21.1799 28.2146 21.3981C28.3173 22.4624 29.0193 23.3272 29.9547 23.6888C30.0434 23.7246 30.1343 23.7542 30.2273 23.7791C30.5364 23.8617 30.8651 23.8913 31.2015 23.8602C31.8389 23.7978 32.4031 23.5205 32.8321 23.1091C32.8486 23.0951 32.8648 23.0779 32.881 23.0608C33.3557 22.5808 33.65 21.9279 33.6723 21.2189L35.6798 21.2532L37.7325 21.2875L39.9713 21.3264H40.0194L40.6446 21.3373L41.0617 21.3436H41.0781C41.0931 21.342 41.1079 21.3373 41.1209 21.3311C41.1632 21.3124 41.1934 21.2719 41.1998 21.222L41.2012 21.208C41.2023 21.1348 41.1426 21.0709 41.0669 21.0709Z" fill="black"/>
<path d="M38.6414 38.7495C38.5548 39.6985 36.7455 40.4667 34.4681 40.9295C32.7394 41.2817 30.7431 41.4562 29.0253 41.4001C27.4388 41.3487 26.0921 41.1009 25.4152 40.6116C24.7492 40.1301 24.9717 34.3287 27.3043 34.5391C27.3565 34.5438 27.433 34.5438 27.5329 34.5391C28.1469 34.5188 29.604 34.3443 31.2629 34.148C33.3217 33.9018 35.6902 33.6213 37.1365 33.5512C37.8664 33.5153 38.3624 33.5325 38.4677 33.6353C39.2071 34.3552 38.7837 37.1772 38.6414 38.7495Z" fill="#20CE86"/>
</g>
</g>
<defs>
<clipPath id="clip0_1065_49881">
<rect width="64" height="64" rx="32" fill="white"/>
</clipPath>
<clipPath id="clip1_1065_49881">
<rect width="71" height="71" fill="white" transform="translate(-3)"/>
</clipPath>
</defs>
</svg>
