<svg width="64" height="64" viewBox="0 0 64 64" fill="none" xmlns="http://www.w3.org/2000/svg">
<g clip-path="url(#clip0_1065_49900)">
<rect width="64" height="64" rx="32" fill="#EBFEF4"/>
<g clip-path="url(#clip1_1065_49900)">
<rect width="75" height="75" transform="translate(-5)" fill="#EBFEF4"/>
<path d="M-48.2412 97.2491C-46.4223 95.7298 -44.6034 94.2105 -42.7845 92.6912C-41.0413 91.2328 -39.5286 89.9834 -37.6076 88.7588C-36.8192 88.2567 -35.7657 87.6115 -34.9262 87.1423C-30.5971 84.3177 -26.268 81.4947 -21.9372 78.6717C-19.1982 76.8858 -16.4592 75.0982 -13.7201 73.3122C-11.921 72.1386 -10.1169 70.9616 -8.4791 69.5724C-6.44787 67.8506 5.18478 50.4946 6.43908 48.9868C7.19132 49.9629 12.0027 53.9628 13.0611 61.8919C8.92297 65.714 -0.686684 76.0693 -5.43719 79.0849C-13.9242 84.4708 -23.6129 87.093 -32.6892 91.4138C-33.0168 91.5702 -33.3526 92.3916 -33.5485 92.7109C-34.1822 93.7479 -34.6678 94.864 -35.374 95.8582C-36.0867 96.8623 -36.9097 97.789 -37.8233 98.617C-38.2365 98.9906 -38.9113 99.175 -39.1615 98.505C-39.1895 98.4557 -39.2126 98.4013 -39.2274 98.3388C-39.4265 97.5898 -39.0628 96.9067 -38.6875 96.2845C-38.2611 95.5734 -37.9253 94.8623 -37.8825 94.0212C-37.871 93.794 -37.9253 93.5455 -38.1015 93.4006C-38.2068 93.3117 -38.3467 93.2755 -38.4834 93.2508C-38.9459 93.1735 -39.3706 93.2574 -39.7689 93.427C-39.9796 93.5158 -40.1821 93.6294 -40.378 93.7562C-40.5673 93.8747 -40.7483 94.0047 -40.9277 94.1381C-41.1516 94.3043 -41.3672 94.4739 -41.5845 94.6302C-41.6273 94.6615 -41.6718 94.6928 -41.7145 94.7224C-41.7541 94.7504 -41.7952 94.7784 -41.8347 94.8064C-42.0932 94.9874 -42.3516 95.1668 -42.61 95.3463C-43.0808 95.6755 -43.5499 96.003 -44.0207 96.3306C-44.4305 96.617 -44.8421 96.9034 -45.2519 97.1898C-45.9696 97.6886 -46.7564 98.2581 -47.6403 98.4096C-48.3021 98.5231 -48.8387 97.7495 -48.2412 97.2491Z" fill="#FFCFCA"/>
<path d="M24.575 21.9042C24.2129 21.1421 23.9314 20.3273 23.7421 19.4681C22.3874 13.3266 26.2671 7.24941 32.4086 5.89471C38.55 4.54001 44.6272 8.4214 45.9819 14.5628C46.0214 14.7406 46.056 14.9184 46.0873 15.0961C48.1103 16.0953 49.6789 17.9702 50.2024 20.3454C50.3538 21.0285 50.4065 21.7116 50.3752 22.3783C52.6632 23.2935 54.4739 25.2885 55.0434 27.8761C55.9619 32.0324 53.3348 36.1459 49.1785 37.0627C48.4872 37.2142 47.7975 37.2668 47.1226 37.2323C46.1449 38.1508 44.9153 38.8273 43.5112 39.1368C41.7927 39.5153 40.0841 39.2882 38.6026 38.5985C37.7154 39.3046 36.657 39.8248 35.4751 40.0849C32.3279 40.7795 29.207 39.4413 27.4786 36.9459C23.6911 37.2635 20.1603 34.7401 19.3191 30.9279C18.4484 26.979 20.7759 23.0713 24.575 21.9042Z" fill="#AC1B35"/>
<path d="M38.0918 37.7197C37.0482 37.1666 36.1297 36.4078 35.0762 35.8761C34.9857 35.8596 34.8951 35.8448 34.7997 35.8366C33.1289 35.7 31.4648 35.453 29.7874 35.3592C29.2673 35.3312 28.7389 35.3345 28.2204 35.4004C26.5167 36.4143 24.767 37.346 22.8691 37.8151C22.0954 38.0061 21.1391 38.2151 20.1481 38.3172C19.4239 38.6414 19.0469 39.1863 19.4288 40.1805C19.7959 41.1385 20.4988 42.0027 21.1983 42.7599C21.4123 42.992 21.6362 43.2142 21.8683 43.4282C25.0567 46.34 30.7092 47.8643 34.8293 45.9713C36.9527 44.9969 38.7436 43.3426 40.067 41.5187C40.4818 40.9476 40.7781 40.3105 41.0925 39.6867C41.1172 39.6373 41.1699 39.5188 41.239 39.369C40.1855 38.8291 39.137 38.276 38.0918 37.7197Z" fill="#FFCFCA"/>
<path d="M27.1724 38.7875C27.7567 39.2402 28.504 39.4097 29.225 39.5644C30.0941 39.7537 30.9649 39.9414 31.8521 40.0023C33.5804 40.1191 35.2067 39.678 36.8989 39.3076C36.9779 38.3118 37.0602 37.3176 37.1409 36.3217C37.2396 35.0773 37.3417 33.8296 37.5672 32.6C37.6363 32.2247 37.7137 31.8494 37.8042 31.4774C38.0215 30.5506 38.2914 29.6371 38.5614 28.7202C38.782 27.9696 39.0042 27.2157 39.2264 26.4635C38.7375 26.8437 38.2914 27.0215 37.717 27.2618C35.2956 28.2741 32.8381 29.1926 30.3673 30.0799C29.625 30.3465 28.8727 30.6132 28.0909 30.7152L27.597 35.0625L27.1724 38.7875Z" fill="#FFCFCA"/>
<path d="M27.5972 35.0629C30.3082 34.6728 32.9616 33.8975 35.4258 32.7091C36.2093 32.3321 37.0225 31.9255 37.8043 31.4778C38.0216 30.5511 38.2916 29.6375 38.5615 28.7207C38.7821 27.9701 39.0043 27.2162 39.2265 26.4639C38.7377 26.8442 38.2916 27.022 37.7171 27.2623C35.2958 28.2746 32.8382 29.1931 30.3675 30.0803C29.6251 30.347 28.8729 30.6136 28.091 30.7157L27.5972 35.0629Z" fill="#F9BFBB"/>
<path d="M23.1661 27.5435C23.5101 29.0463 24.0978 30.4603 25.2714 31.5006C26.3134 32.4224 27.6533 33.0117 29.0326 33.1779C30.5585 33.3623 32.1042 33.0759 33.528 32.4767C34.2358 32.1771 34.9156 31.8018 35.5477 31.3689C36.6506 30.6101 37.625 29.6834 38.5007 28.6743C39.9213 27.0316 41.169 25.0991 41.9723 23.0234C42.8842 20.6778 43.2298 18.1478 42.6241 15.6524C42.3805 14.6351 41.964 13.6607 41.4011 12.7784C39.0242 9.05503 34.1091 7.66741 30.1338 9.59823C28.0631 10.6056 26.3529 12.3504 25.2615 14.3636C24.9159 15.0022 24.5982 15.6639 24.3183 16.3421C22.8616 19.8548 22.32 23.8399 23.1661 27.5435Z" fill="#FFCFCA"/>
<path d="M37.5176 27.9205C38.5743 28.9509 40.1941 29.3674 41.613 28.9559C42.8113 28.6086 43.8203 27.6769 44.2878 26.5247C44.3734 26.314 44.4392 26.0983 44.487 25.8745C44.5709 25.486 44.5923 25.0794 44.5199 24.6893C44.3355 23.7231 43.5174 22.9264 42.5594 22.7042C41.6014 22.4803 40.5496 22.8112 39.8402 23.491L38.9463 25.1947L37.5176 27.9205Z" fill="#FFCFCA"/>
<path d="M25.9855 11.3712C26.3773 11.0584 26.7723 10.749 27.1773 10.451C27.2267 10.4132 27.281 10.3786 27.332 10.3424C27.3501 10.3292 27.3699 10.3161 27.3896 10.3012L27.3962 10.2963C27.5904 10.1696 27.783 10.0412 27.9805 9.921C28.3838 9.6741 28.8003 9.44694 29.2332 9.256C29.3073 9.22308 29.4093 9.19674 29.49 9.15724C29.6464 9.11279 29.8027 9.07164 29.9607 9.03543C30.5451 7.96385 31.5706 7.14083 32.8562 6.85606C33.9853 6.6075 35.108 6.81985 36.0281 7.36633C36.4116 7.1112 36.8462 6.91861 37.3235 6.81326C39.3712 6.36224 41.3959 7.65604 41.8469 9.70208C41.8765 9.83212 41.8979 9.96051 41.9127 10.0889C43.0551 10.6584 43.9407 11.7185 44.2386 13.0633C44.4674 14.1036 44.3044 15.1373 43.8501 16.0147C44.9793 16.3933 45.888 17.3381 46.1628 18.5858C46.5809 20.4788 45.3843 22.3504 43.493 22.7684C41.6 23.1849 39.7284 21.9899 39.312 20.0986C39.177 19.4928 39.2099 18.8904 39.3762 18.3356C37.6478 18.0986 36.1647 16.8328 35.7269 15.0485C35.4191 15.1983 35.0898 15.3168 34.7392 15.3941C33.0833 15.7579 31.4422 15.1324 30.4299 13.9094C29.9393 14.367 29.3237 14.7028 28.6209 14.8592C26.8267 15.2542 25.0506 14.3407 24.2852 12.7555C24.8481 12.2897 25.4127 11.8255 25.9855 11.3712Z" fill="#AC1B35"/>
<path d="M22.287 41.3394L22.3149 41.3344C22.175 41.3739 22.0351 41.4101 21.8936 41.4431C21.9857 41.4134 22.1783 41.3591 22.287 41.3394Z" fill="#FFCFCA"/>
<path d="M31.4619 22.1344C31.6545 22.1575 31.9393 21.8661 32.0414 21.4151C32.0957 21.1764 32.0874 20.9344 32.0183 20.7517C31.9936 20.6875 31.9261 20.5377 31.8093 20.5114L31.7912 20.5081C31.5986 20.4851 31.3138 20.7764 31.2117 21.2274C31.1574 21.4661 31.1673 21.7081 31.2348 21.8908C31.2595 21.955 31.327 22.1048 31.4438 22.1311L31.4619 22.1344Z" fill="#1F3C49"/>
<path d="M25.7109 21.2141C25.8722 21.2322 26.1636 20.9755 26.2673 20.5179C26.3183 20.2874 26.3101 20.052 26.2442 19.8742C26.1965 19.7475 26.1241 19.6636 26.0467 19.6454L26.0303 19.6421C25.8673 19.624 25.5776 19.8792 25.4739 20.3384C25.4212 20.5689 25.4294 20.8043 25.4953 20.982C25.5447 21.1088 25.6154 21.1927 25.6928 21.2108L25.7109 21.2141Z" fill="#1F3C49"/>
<path d="M28.5481 22.4456C28.4066 22.2695 28.1564 22.1822 27.9128 22.2119C27.6642 22.2365 27.4272 22.3979 27.2988 22.6151C27.1655 22.8308 27.1325 23.1155 27.2264 23.3476C27.3136 23.5764 27.5078 23.7591 27.7301 23.8019C27.5836 23.6357 27.5078 23.453 27.4848 23.2769C27.4618 23.1007 27.5045 22.9378 27.5901 22.7929C27.679 22.6481 27.8041 22.5345 27.9704 22.4719C28.1366 22.4094 28.3342 22.3929 28.5481 22.4456Z" fill="#1F3C49"/>
<path d="M33.1538 18.7763C33.19 18.778 33.2262 18.7631 33.2526 18.7352C33.3053 18.6825 33.302 18.5969 33.2493 18.5459C32.8559 18.1689 32.2946 17.9648 31.7514 17.9977C31.6773 18.0027 31.6213 18.0652 31.6263 18.1393C31.6296 18.215 31.6938 18.271 31.7678 18.266C32.2386 18.2364 32.7225 18.4142 33.0633 18.7401C33.088 18.7648 33.1209 18.7763 33.1538 18.7763Z" fill="#1F3C49"/>
<path d="M27.3669 17.6868C27.3965 17.677 27.4245 17.6588 27.4426 17.6292C27.4821 17.5667 27.464 17.4844 27.4014 17.4432C26.9883 17.1766 26.4533 17.086 25.9743 17.2012C25.9035 17.2194 25.8574 17.2918 25.8755 17.3642C25.892 17.4366 25.9644 17.4811 26.0369 17.463C26.4467 17.3642 26.9027 17.4416 27.2566 17.6704C27.2895 17.6918 27.3307 17.6967 27.3669 17.6868Z" fill="#1F3C49"/>
<path d="M31.6564 20.7994C31.9428 20.7599 32.007 21.2027 31.7206 21.2438C31.4342 21.285 31.3716 20.8406 31.6564 20.7994Z" fill="white"/>
<path d="M25.8143 19.8678C26.1007 19.8266 26.1633 20.271 25.8785 20.3122C25.5921 20.3533 25.5279 19.9089 25.8143 19.8678Z" fill="white"/>
<path d="M25.3733 24.5607C25.3387 25.145 25.4655 25.6948 25.7107 26.1573C26.1058 26.8981 26.8037 27.41 27.6251 27.4594C28.4679 27.5104 29.2382 27.0643 29.7139 26.345C29.9954 25.9252 30.1748 25.4117 30.2094 24.8504C30.2094 24.8306 30.2078 24.8092 30.2094 24.7895L25.3799 24.4981C25.3782 24.5195 25.3749 24.5409 25.3733 24.5607Z" fill="#D55454"/>
<path d="M25.5757 24.5112C26.0827 25.117 26.8547 25.5252 27.7386 25.5779C28.6225 25.6322 29.4373 25.3178 30.0134 24.7762L25.5757 24.5112Z" fill="white"/>
<path d="M25.7109 26.1573C26.106 26.8981 26.8039 27.41 27.6253 27.4594C28.4681 27.5104 29.2384 27.0643 29.7141 26.345C28.901 26.1145 28.0533 26.001 27.2072 26.0108C26.7052 26.0174 26.2048 26.0668 25.7109 26.1573Z" fill="#F37C7C"/>
<path d="M31.0783 24.0881C30.9943 24.8205 31.7318 25.5086 32.7276 25.6238C33.7219 25.739 34.5976 25.2386 34.6831 24.5045C34.7687 23.772 34.0297 23.084 33.0338 22.9687C32.0396 22.8535 31.1639 23.3556 31.0783 24.0881Z" fill="#F9BFBB"/>
<path d="M23.3668 22.2148C23.3092 22.7103 23.808 23.1745 24.4796 23.2518C25.1528 23.3292 25.7437 22.9918 25.8013 22.4963C25.8573 22.0025 25.3602 21.5366 24.687 21.4593C24.0154 21.3819 23.4244 21.7194 23.3668 22.2148Z" fill="#F9BFBB"/>
<path d="M53.3657 116.557C53.3262 114.755 52.7106 110.531 52.9822 107.318C54.1179 98.9231 58.6643 84.935 58.4257 78.8709C58.1969 73.0324 55.7706 67.5247 54.3319 61.8623C53.5221 58.6722 52.9723 55.4097 51.8629 52.3119C51.5715 51.4954 51.239 50.6938 50.8571 49.9152C49.6374 47.4346 47.9321 45.5005 45.7543 43.8133C43.9437 42.4108 41.9339 41.2668 39.8039 40.4306L38.6187 49.0395C38.6401 49.028 38.6599 49.0198 38.6796 49.0082C38.2813 51.4888 39.1981 53.9744 40.1248 56.3101C42.7766 62.9865 45.6408 69.5773 48.7156 76.0693C49.216 77.1245 49.7263 78.1944 49.9041 79.3483C50.0423 80.2503 49.9699 81.1705 49.8975 82.0807C49.2176 90.6731 48.6679 98.0046 48.3847 106.686C48.1395 107.354 47.2111 109.357 46.7947 110.762C46.5445 111.606 46.2959 112.45 46.1395 113.316C45.8976 114.676 46.1889 116.052 46.1938 117.426C46.1955 117.714 46.1905 118.006 46.2564 118.286C46.5626 119.593 47.9337 118.941 48.3107 118.047C48.3452 117.963 48.3765 117.876 48.3979 117.79C48.4292 117.682 48.4489 117.57 48.4638 117.458C48.5164 117.046 48.4802 116.615 48.472 116.203C48.467 115.896 48.472 115.584 48.5411 115.283C48.6004 115.03 48.6366 114.681 48.9214 114.579C49.1831 114.485 49.5633 114.615 49.7822 114.758C50.044 114.929 50.2234 115.186 50.3551 115.473C50.383 115.532 50.4077 115.589 50.4308 115.65C50.495 115.807 50.5477 115.971 50.5954 116.131C50.7715 116.709 50.9098 117.293 51.0711 117.873C51.2966 118.677 51.4069 119.461 51.2489 120.289C51.0859 121.13 50.7419 121.922 50.444 122.723C50.1263 123.583 49.6456 124.735 50.1147 125.617C50.332 126.024 50.9147 126.009 51.2094 125.703C51.3723 125.532 51.4645 125.306 51.5534 125.089C52.1229 123.691 52.7188 122.304 53.0842 120.834C53.4282 119.448 53.3937 117.976 53.3657 116.557Z" fill="#FFCFCA"/>
<path d="M55.6704 61.0453C50.4887 64.958 47.7677 67.083 44.1053 68.6567L44.097 68.6781C43.7596 69.7036 43.4156 70.7669 43.0666 71.8533C42.9728 72.1496 42.8757 72.4508 42.7802 72.7504C42.3802 74.008 41.9769 75.2935 41.5786 76.5923C36.6404 78.1017 17.719 81.1354 15.2368 81.4662C14.9849 80.0984 14.7397 78.7815 14.4944 77.3133C13.9529 74.0705 13.408 70.097 12.7858 63.2428C12.7743 63.2675 12.7611 63.2938 12.748 63.3235C12.5175 63.7959 12.0566 64.7884 11.2698 66.3917C11.1661 66.604 11.0558 66.8263 10.9406 67.06C8.69209 65.0386 0.644531 55.8849 0.644531 55.8849C0.644531 55.8849 6.08804 46.407 10.4204 43.1922C15.8327 39.1759 23.5477 37.2829 23.5477 37.2829C23.5477 37.2829 25.4357 39.2614 26.0069 39.6927C27.6727 40.9536 29.4258 41.6219 31.5113 41.7519C34.5796 41.9445 37.8124 40.519 39.6181 37.9117C46.6418 40.7725 51.6722 44.1436 55.6704 61.0453Z" fill="#20CE86"/>
<path d="M11.2695 66.3923C12.0563 64.789 12.5172 63.7964 12.7476 63.324C12.6209 61.8788 12.6834 60.4155 12.9369 58.9817C12.0513 60.3891 11.3995 61.9397 11.1789 63.5528C11.0489 64.496 11.0719 65.4623 11.2695 66.3923Z" fill="#149C64"/>
<path d="M44.0972 68.6787C43.7597 69.7042 43.4157 70.7675 43.0668 71.8539C41.1771 68.7396 40.4808 64.9323 41.0783 61.3225C41.5754 63.9447 42.6092 66.4631 44.0972 68.6787Z" fill="#149C64"/>
</g>
</g>
<defs>
<clipPath id="clip0_1065_49900">
<rect width="64" height="64" rx="32" fill="white"/>
</clipPath>
<clipPath id="clip1_1065_49900">
<rect width="75" height="75" fill="white" transform="translate(-5)"/>
</clipPath>
</defs>
</svg>
