<svg width="64" height="64" viewBox="0 0 64 64" fill="none" xmlns="http://www.w3.org/2000/svg">
<g clip-path="url(#clip0_1065_49884)">
<rect width="64" height="64" rx="32" fill="#EBFEF4"/>
<g clip-path="url(#clip1_1065_49884)">
<rect width="72" height="72" transform="translate(-4 -1)" fill="#EBFEF4"/>
<path d="M82.8528 117.351C81.9742 115.15 81.094 112.948 80.2154 110.746C79.3716 108.634 78.6352 106.814 77.5259 104.825C77.0692 104.008 76.4482 102.938 75.9315 102.126C73.4616 97.5825 70.9917 93.0393 68.5203 88.4962C66.9574 85.6218 65.3946 82.7474 63.8318 79.873C62.8046 77.9847 61.7759 76.09 60.9937 74.0895C60.025 71.6085 59.4467 68.9949 58.9236 66.3828C58.5365 64.4628 58.1762 62.5318 57.7891 60.6087C56.6624 61.1096 55.5372 61.6153 54.4185 62.1367C52.0197 63.2555 49.6336 64.4217 47.2222 65.5231C49.0489 70.8563 51.0447 76.1074 53.7958 81.0187C58.7087 89.7952 65.9935 96.707 71.9319 104.825C72.1469 105.118 72.052 106 72.0726 106.375C72.1373 107.59 72.0362 108.802 72.1848 110.012C72.3349 111.237 72.6193 112.444 73.0302 113.606C73.2167 114.132 73.7239 114.616 74.2612 114.143C74.3101 114.113 74.356 114.077 74.3986 114.028C74.9312 113.464 74.9343 112.691 74.8996 111.964C74.8616 111.134 74.9043 110.349 75.2662 109.589C75.3642 109.383 75.5301 109.189 75.7529 109.146C75.8888 109.118 76.0294 109.153 76.1622 109.195C76.6046 109.347 76.9396 109.622 77.2099 109.962C77.3521 110.139 77.4785 110.335 77.5907 110.54C77.6997 110.735 77.7977 110.935 77.8925 111.138C78.0094 111.39 78.1201 111.643 78.237 111.882C78.2591 111.932 78.2828 111.98 78.3081 112.027C78.3286 112.07 78.3523 112.114 78.3729 112.158C78.5151 112.44 78.6573 112.719 78.7995 113.002C79.0571 113.514 79.3147 114.026 79.5738 114.54C79.7982 114.985 80.0242 115.433 80.2486 115.88C80.6436 116.66 81.0656 117.536 81.7719 118.089C82.2997 118.503 83.142 118.078 82.8528 117.351Z" fill="#FFCFCA"/>
<path d="M16.9405 47.0143C9.05845 47.0127 1.50977 71.9042 1.31698 72.2266C1.15264 72.5031 -14.5278 95.59 -14.5736 95.6453C-14.5736 95.6453 -19.8958 101.001 -21.1963 102.611C-22.0733 103.703 -22.9898 104.831 -23.5508 106.12C-24.1449 107.486 -24.5084 108.925 -24.8971 110.359C-24.9588 110.583 -25.0204 110.814 -24.9935 111.044C-24.943 111.46 -24.4863 111.822 -24.0691 111.632C-23.1636 111.226 -22.8523 110.039 -22.5869 109.177C-22.3403 108.372 -22.1381 107.549 -21.7588 106.795C-21.3875 106.053 -20.8265 105.507 -20.1612 105.014C-19.6824 104.657 -19.221 104.286 -18.7311 103.94C-18.5463 103.807 -18.3503 103.674 -18.1449 103.57C-17.8668 103.426 -17.5697 103.331 -17.2568 103.355C-16.9961 103.376 -16.6168 103.501 -16.4635 103.731C-16.296 103.981 -16.4793 104.276 -16.5836 104.509C-16.7116 104.785 -16.895 105.03 -17.0846 105.269C-17.4085 105.672 -17.7862 106.07 -17.9821 106.552C-18.0169 106.634 -18.0453 106.718 -18.0675 106.805C-18.3061 107.728 -17.6076 109.06 -16.5757 108.224C-16.3529 108.045 -16.1807 107.814 -16.0069 107.59C-15.1757 106.52 -14.1122 105.621 -13.488 104.412C-13.0882 103.643 -12.7769 102.834 -12.4688 102.026C-11.8904 100.519 -11.6407 99.61 -11.5301 98.8879L-11.5286 98.8847L-11.5112 98.8563C-11.3879 98.7599 2.8893 85.9602 11.3023 74.491C13.2744 71.8031 18.1067 61.2299 20.4454 53.5564C20.9274 51.9746 18.4117 48.5408 16.9405 47.0143Z" fill="#FFCFCA"/>
<path d="M28.3058 29.2684C30.6887 30.4851 33.1159 31.6118 35.5589 32.7069C36.2937 33.0356 37.0364 33.3659 37.8249 33.5302L37.9877 37.9895L38.1283 41.8105C37.9845 41.9053 37.8313 41.9843 37.6733 42.0507C36.9511 43.8837 35.167 45.1811 33.0764 45.1811C30.8278 45.1811 28.9315 43.6783 28.3342 41.6225C28.2884 41.6082 28.2441 41.594 28.1983 41.5814C28.1983 41.3886 28.1967 41.1958 28.1967 41.003C28.1572 40.7549 28.1367 40.5005 28.1367 40.2414C28.1367 39.998 28.1556 39.7594 28.1904 39.5239C28.1888 39.1921 28.1872 38.8587 28.1857 38.5252C28.1809 37.2516 28.1746 35.9764 28.0419 34.709C28.0008 34.3203 27.9502 33.9332 27.887 33.5476C27.7385 32.5884 27.5362 31.6371 27.3339 30.6858C27.1664 29.9036 27.0005 29.1198 26.833 28.3392C27.3008 28.7643 27.74 28.9792 28.3058 29.2684Z" fill="#FFCFCA"/>
<path d="M42.7474 21.5937C42.4945 24.6925 41.1419 27.7044 38.9296 29.8883C37.9167 30.887 36.7252 31.7166 35.401 32.2317C33.9456 32.7974 32.3591 32.9744 30.801 32.8938C29.8797 32.8448 28.9521 32.7058 28.1083 32.3392C27.0954 31.8983 26.2484 31.1524 25.4599 30.3797C24.1119 29.0571 22.8699 27.6096 21.947 25.9614C21.0258 24.3149 20.4332 22.4565 20.4395 20.5682C20.4411 19.9282 20.5138 19.2772 20.7619 18.6862C21.0921 17.8992 21.7069 17.2703 22.3374 16.6967C24.4217 14.7972 26.8662 13.2423 29.5826 12.4886C32.3922 11.7095 35.3599 11.8138 38.2722 11.926C39.0101 11.9529 39.6833 12.0983 40.2759 12.5613C40.7594 12.9389 41.0249 13.5789 41.2904 14.1178C42.0204 15.6032 42.5008 17.2134 42.6952 18.8584C42.8027 19.7654 42.8216 20.6835 42.7474 21.5937Z" fill="#534741"/>
<path d="M37.9877 37.9902C35.2618 37.3819 32.6229 36.3863 30.2115 34.9863C29.4435 34.5422 28.6471 34.065 27.887 33.5483C27.7385 32.5891 27.5362 31.6378 27.3339 30.6865C27.1664 29.9043 27.0005 29.1205 26.833 28.3399C27.3008 28.765 27.74 28.9799 28.3058 29.2691C30.6887 30.4858 33.1159 31.6125 35.5589 32.7076C36.2937 33.0363 37.0364 33.3665 37.8249 33.5309L37.9877 37.9902Z" fill="#F9BFBB"/>
<path d="M42.4218 20.1348C42.2512 19.4458 42.0426 18.7663 41.8008 18.1058C41.0407 16.0215 39.6312 14.1031 37.7554 12.8342C34.151 10.4007 29.1164 10.9964 26.2104 14.1995C25.5215 14.958 24.9621 15.8271 24.567 16.761C23.5889 19.0539 23.5367 21.5206 24.0708 23.8957C24.5386 25.9973 25.4646 28.0263 26.6055 29.8057C27.3087 30.8976 28.1225 31.9279 29.088 32.816C29.6395 33.3232 30.2494 33.783 30.8989 34.1718C32.2026 34.9556 33.6738 35.4596 35.2003 35.5102C36.5798 35.5545 37.9846 35.191 39.1492 34.4657C40.4623 33.6456 41.2556 32.3846 41.8261 31.0003C43.2261 27.5886 43.3099 23.7045 42.4218 20.1348Z" fill="#FFCFCA"/>
<path d="M27.2384 29.0773C25.9268 29.7331 24.2676 29.6383 23.0493 28.8181C22.0205 28.1276 21.349 26.9424 21.2541 25.7099C21.2383 25.4855 21.2399 25.2611 21.262 25.0351C21.3016 24.6416 21.4027 24.2513 21.5891 23.9037C22.0569 23.0456 23.073 22.5399 24.0448 22.6174C25.0198 22.698 25.9157 23.3269 26.3803 24.1865L26.7106 26.067L27.2384 29.0773Z" fill="#FFCFCA"/>
<path d="M31.3492 17.5356C33.5504 17.1216 35.7564 16.6302 37.8407 15.8495C39.5347 15.2175 41.4088 13.9991 41.8623 12.1677C42.4296 9.87477 40.5033 8.11757 38.5849 7.21843C34.8414 5.4644 30.213 5.77412 26.795 8.13812C24.7202 9.57137 23.1589 11.7062 22.4415 14.0876C22.0307 15.4545 21.86 17.5214 23.4687 18.1551C25.338 18.893 27.6499 18.2009 29.5477 17.8643C30.145 17.7569 30.7471 17.6494 31.3492 17.5356Z" fill="#534741"/>
<path d="M18.7095 18.0158C18.9007 16.5983 19.5265 15.2883 20.6816 14.5535C22.3582 13.4869 24.896 13.7871 25.9153 15.6123C26.5805 16.8038 26.5916 18.3223 26.4099 19.6418C26.3261 20.2581 26.1634 20.8744 25.8331 21.4085C25.6119 21.7672 24.8629 22.6932 24.3635 22.6205C24.196 22.5952 24.0222 22.5731 23.8784 22.562C23.85 22.5589 23.8215 22.5573 23.7931 22.5573C23.2811 22.5589 22.8039 22.6885 22.3614 22.9445C22.0311 23.123 21.7656 23.3664 21.5665 23.6745C20.9376 24.3619 19.9911 23.1752 19.6576 22.6742C18.8517 21.4606 18.4851 19.6655 18.7095 18.0158Z" fill="#534741"/>
<path d="M51.459 69.5259C51.4384 69.5338 51.4195 69.5448 51.399 69.5527C52.0026 79.636 52.355 99.7442 53.1261 108.233C41.3583 107.508 23.9381 108.168 13.5908 106.91C13.3111 101.737 13.5877 89.5029 15.013 73.3136C15.1521 71.7239 15.3132 70.0916 15.4981 68.4229C15.5045 68.3707 15.5092 68.3202 15.5155 68.2664L15.4934 68.2522C13.9606 67.2045 12.2508 66.2627 10.5363 65.3367C8.14857 64.0473 5.75298 62.791 3.803 61.3293C3.63234 61.1997 6.06744 57.0201 6.17331 56.8004C9.49492 49.8823 15.2311 42.5501 23.1274 40.8577C23.592 40.7581 28.1335 40.2414 28.1414 40.036C28.1398 40.1039 28.1382 40.1719 28.1382 40.2414C28.1382 42.9704 30.349 45.1811 33.078 45.1811C35.8054 45.1811 38.0161 42.9704 38.0161 40.2414C38.0161 40.175 38.0145 40.1087 38.0114 40.0439C42.1531 40.8861 46.1053 42.7555 49.3115 45.483C52.2254 47.9607 54.5436 51.1117 56.0732 54.6134C56.3576 55.2613 56.62 55.9187 56.8681 56.5824C57.8936 59.3414 58.6916 62.1779 59.5513 64.9891C58.5178 65.7523 57.3785 66.4871 56.1759 67.1808C54.6763 68.0452 53.0755 68.8416 51.459 69.5259Z" fill="#20CE86"/>
<path d="M51.3297 60.2582C51.5114 63.3443 51.2918 66.4415 51.4593 69.5261C53.0758 68.8403 54.675 68.0454 56.1762 67.1811C55.4509 66.4226 54.822 65.5692 54.3131 64.6464C53.0964 62.4404 52.5939 59.9263 51.9223 57.4991C51.2491 55.0703 50.3784 52.7569 48.5596 51.0108C50.4495 53.6703 51.1369 57.0045 51.3297 60.2582Z" fill="#149C64"/>
<path d="M32.6344 19.6229C32.8303 19.6024 33.0263 19.6182 33.2222 19.634C33.5667 19.6624 33.9127 19.6909 34.2588 19.7193C34.3726 19.7288 34.5164 19.7225 34.567 19.6182C34.5907 19.5676 34.5828 19.506 34.5607 19.4538C34.4769 19.2532 34.232 19.1868 34.0171 19.1583C33.4861 19.092 32.9235 19.1283 32.4258 19.3385C32.3278 19.3796 31.7716 19.634 31.8111 19.7651C31.8459 19.8805 32.5238 19.634 32.6344 19.6229Z" fill="#211A17"/>
<path d="M40.1731 19.389C39.9771 19.3827 39.7827 19.4127 39.5884 19.4427C39.2455 19.4965 38.9026 19.5502 38.5612 19.6039C38.4475 19.6213 38.3037 19.626 38.2468 19.5265C38.2183 19.4759 38.2215 19.4143 38.2389 19.3606C38.3084 19.1551 38.5486 19.0698 38.7603 19.0271C39.285 18.9213 39.8491 18.9165 40.3611 19.0903C40.4607 19.1235 41.0358 19.3369 41.0058 19.4696C40.9789 19.5881 40.2852 19.3922 40.1731 19.389Z" fill="#211A17"/>
<path d="M39.5583 28.4783C39.1711 29.4865 38.4585 30.1818 37.5941 30.2529C36.7613 30.3224 35.9712 29.7962 35.4245 28.9239C35.0499 28.325 34.7892 27.565 34.707 26.7195L34.8698 26.7053L39.6831 26.3087L39.8617 26.2945C39.917 27.0941 39.8016 27.8478 39.5583 28.4783Z" fill="#CE7872"/>
<path d="M39.6829 26.3087C39.1488 27.1177 38.3303 27.6629 37.3774 27.7419C36.4245 27.8209 35.5302 27.4164 34.8696 26.7053L39.6829 26.3087Z" fill="white"/>
<path d="M39.5581 28.4783C39.171 29.4865 38.4583 30.1818 37.594 30.2529C36.7612 30.3224 35.9711 29.7962 35.4243 28.9239C35.6598 28.7691 35.9047 28.6332 36.1623 28.5194C36.9034 28.1891 37.7362 28.0453 38.5373 28.1733C38.8945 28.2302 39.2326 28.3361 39.5581 28.4783Z" fill="#EA8C8B"/>
<path d="M34.5411 22.7404C34.5616 23.3962 34.2014 23.9398 33.7384 23.9524C33.2754 23.9666 32.885 23.4467 32.8645 22.791C32.8455 22.1336 33.2042 21.5916 33.6672 21.5774C34.1302 21.5631 34.5221 22.0846 34.5411 22.7404Z" fill="#211A17"/>
<path d="M33.9342 22.3596C33.664 22.3675 33.6767 22.7863 33.9469 22.7784C34.2171 22.7705 34.2045 22.3517 33.9342 22.3596Z" fill="white"/>
<path d="M39.0145 22.6064C39.0335 23.2622 39.4254 23.7821 39.8884 23.7678C40.3514 23.7536 40.7101 23.2116 40.6911 22.5558C40.6706 21.8985 40.2803 21.3786 39.8173 21.3928C39.3543 21.407 38.994 21.949 39.0145 22.6064Z" fill="#211A17"/>
<path d="M40.1002 22.0499C39.8315 22.0578 39.8426 22.4765 40.1128 22.4686C40.383 22.4607 40.3704 22.0404 40.1002 22.0499Z" fill="white"/>
<path d="M37.5815 24.0808C37.3081 23.8675 36.8831 23.8738 36.6255 24.1061L37.3729 25.3987C37.5815 25.386 37.7522 25.2122 37.828 25.0178C37.956 24.6955 37.8549 24.2941 37.5815 24.0808Z" fill="#CE7872"/>
<path d="M30.9792 24.1532C29.7466 24.2385 28.8032 25.1187 28.8728 26.1206C28.9423 27.1224 29.9978 27.8651 31.2304 27.7798C32.463 27.6945 33.4064 26.8127 33.3368 25.8108C33.2673 24.809 32.2117 24.0679 30.9792 24.1532Z" fill="#F9BFBB"/>
<path d="M42.8431 24.7599C42.8052 24.1989 42.2126 23.7817 41.5205 23.8291C40.8284 23.8781 40.299 24.3727 40.3385 24.9337C40.378 25.4963 40.9706 25.9134 41.6611 25.8644C42.3533 25.817 42.8826 25.3224 42.8431 24.7599Z" fill="#F9BFBB"/>
<path d="M17.3895 56.1357C16.4524 60.1178 15.8188 64.1742 15.4932 68.2527C13.9604 67.205 12.2507 66.2632 10.5361 65.3372C11.045 64.9833 11.5396 64.6088 12.0184 64.2121C13.7313 62.7884 15.2246 61.047 16.0985 58.9974C16.5236 57.9924 16.7147 56.9921 17.3895 56.1357Z" fill="#149C64"/>
</g>
</g>
<defs>
<clipPath id="clip0_1065_49884">
<rect width="64" height="64" rx="32" fill="white"/>
</clipPath>
<clipPath id="clip1_1065_49884">
<rect width="72" height="72" fill="white" transform="translate(-4 -1)"/>
</clipPath>
</defs>
</svg>
